<?xml version="1.0" encoding="utf-8"?>
<!-- Generator: Adobe Illustrator 17.0.0, SVG Export Plug-In . SVG Version: 6.00 Build 0)  -->
<!DOCTYPE svg PUBLIC "-//W3C//DTD SVG 1.1//EN" "http://www.w3.org/Graphics/SVG/1.1/DTD/svg11.dtd">
<svg version="1.1" id="Camada_1" xmlns="http://www.w3.org/2000/svg" xmlns:xlink="http://www.w3.org/1999/xlink" x="0px" y="0px"
	 width="141.73px" height="141.73px" viewBox="0 0 141.73 141.73" enable-background="new 0 0 141.73 141.73" xml:space="preserve">
<g>
	<g>
		<ellipse fill="#010101" cx="-101.324" cy="59.582" rx="1.074" ry="1.174"/>
		<ellipse fill="#010101" cx="-37.026" cy="59.582" rx="1.074" ry="1.174"/>
		<g>
			<path fill="#F3A7A7" d="M-19.965,52.157c7.426-9.041,10.78-20.604,12.335-31.599c0.725-5.127-0.234-6.297-5.723-5.651
				c-3.875,0.323-8.397,1.292-12.272,2.261c-5.49,1.614-23.251,9.364-21.635,15.177c1.292,6.781,19.413,18.338,25.871,19.63
				L-19.965,52.157z"/>
		</g>
		<g>
			<path fill="#CE2427" d="M-22.521,45.721c4.872-5.931,7.072-13.515,8.092-20.727c0.475-3.363-0.154-4.13-3.755-3.706
				c-2.542,0.212-5.507,0.847-8.049,1.482c-3.601,1.059-15.251,6.143-14.192,9.955c0.847,4.448,12.734,12.029,16.971,12.877
				L-22.521,45.721z"/>
		</g>
		<g>
			<path fill="#F3A7A7" d="M-117.605,52.157c-7.427-9.041-10.78-20.604-12.335-31.599c-0.725-5.127,0.235-6.297,5.724-5.651
				c3.875,0.323,8.397,1.292,12.272,2.261c5.49,1.614,23.251,9.364,21.635,15.177c-1.292,6.781-19.413,18.338-25.871,19.63
				L-117.605,52.157z"/>
		</g>
		<g>
			<path fill="#CE2427" d="M-115.049,45.721c-4.872-5.931-7.072-13.515-8.092-20.727c-0.475-3.363,0.155-4.13,3.755-3.706
				c2.542,0.212,5.507,0.847,8.049,1.482c3.601,1.059,15.251,6.143,14.192,9.955c-0.847,4.448-12.734,12.029-16.97,12.877
				L-115.049,45.721z"/>
		</g>
		<circle fill="#F3A7A7" cx="-68.962" cy="74.155" r="53.612"/>
		<ellipse opacity="0.1" fill="#010101" cx="-68.904" cy="81.886" rx="24.567" ry="25.119"/>
		<circle fill="#CE7878" cx="-69.156" cy="76.95" r="23.813"/>
		<ellipse fill="#CE2427" cx="-79.512" cy="77.704" rx="2.756" ry="6.782"/>
		<path opacity="0.1" fill="#010101" d="M-79.512,82.904c-1.408,0-2.569-2.599-2.735-5.953c-0.013,0.272-0.021,0.548-0.021,0.829
			c0,3.746,1.234,6.782,2.756,6.782s2.756-3.036,2.756-6.782c0-0.281-0.008-0.557-0.021-0.829
			C-76.944,80.305-78.104,82.904-79.512,82.904z"/>
		<ellipse fill="#CE2428" cx="-58.296" cy="77.704" rx="2.756" ry="6.782"/>
		<path opacity="0.1" fill="#CE2427" d="M-58.296,82.904c1.408,0,2.568-2.599,2.735-5.953c0.013,0.272,0.021,0.548,0.021,0.829
			c0,3.746-1.234,6.782-2.756,6.782c-1.522,0-2.756-3.036-2.756-6.782c0-0.281,0.007-0.557,0.021-0.829
			C-60.865,80.305-59.704,82.904-58.296,82.904z"/>
		<circle fill="#272626" cx="-101.586" cy="60.756" r="3.876"/>
		<circle fill="#FFFFFF" cx="-99.445" cy="59.941" r="0.816"/>
		<circle fill="#272626" cx="-37.027" cy="60.756" r="3.876"/>
		<circle fill="#FFFFFF" cx="-34.886" cy="59.941" r="0.816"/>
		<path fill="#6D383C" d="M-64.932,37.576V20.644c-1.33-0.099-2.674-0.15-4.029-0.15c-1.356,0-2.7,0.052-4.03,0.15v16.87
			L-64.932,37.576z"/>
		<rect x="-72.992" y="34.131" fill="#CE2427" width="8.06" height="3.445"/>
		<path fill="#272626" d="M-30.25,55.208c0,0-4.563,1.762-5.063-3.05"/>
		<path fill="#272626" d="M-109.298,55.208c0,0,4.563,1.762,5.063-3.05"/>
		<path fill="none" stroke="#262626" stroke-width="0.6402" stroke-miterlimit="10" d="M-68.904,106.047
			c0,0-10.608-0.172-10.608,12.203"/>
		<path fill="none" stroke="#262626" stroke-width="0.6402" stroke-miterlimit="10" d="M-69.135,106.047
			c0,0,10.608-0.172,10.608,12.203"/>
	</g>
</g>
<g>
	<g>
		<ellipse fill="#010101" cx="40.009" cy="59.582" rx="1.074" ry="1.174"/>
		<ellipse fill="#010101" cx="104.307" cy="59.582" rx="1.074" ry="1.174"/>
		<g>
			<path fill="#E8DE7F" d="M121.369,52.157c7.426-9.041,10.78-20.604,12.335-31.599c0.725-5.127-0.234-6.297-5.723-5.651
				c-3.875,0.323-8.397,1.292-12.272,2.261c-5.49,1.614-23.251,9.364-21.635,15.177c1.292,6.781,19.413,18.338,25.871,19.63
				L121.369,52.157z"/>
		</g>
		<g>
			<path fill="#EFD518" d="M118.813,45.721c4.872-5.931,7.072-13.515,8.092-20.727c0.475-3.363-0.154-4.13-3.755-3.706
				c-2.542,0.212-5.507,0.847-8.049,1.482c-3.601,1.059-15.251,6.143-14.192,9.955c0.847,4.448,12.734,12.029,16.971,12.877
				L118.813,45.721z"/>
		</g>
		<g>
			<path fill="#E8DE7F" d="M23.729,52.157c-7.427-9.041-10.78-20.604-12.335-31.599c-0.725-5.127,0.235-6.297,5.724-5.651
				c3.875,0.323,8.397,1.292,12.272,2.261c5.49,1.614,23.251,9.364,21.635,15.177c-1.292,6.781-19.413,18.338-25.871,19.63
				L23.729,52.157z"/>
		</g>
		<g>
			<path fill="#EFD518" d="M26.284,45.721c-4.872-5.931-7.072-13.515-8.092-20.727c-0.475-3.363,0.155-4.13,3.755-3.706
				c2.542,0.212,5.507,0.847,8.049,1.482c3.601,1.059,15.251,6.143,14.192,9.955c-0.847,4.448-12.734,12.029-16.97,12.877
				L26.284,45.721z"/>
		</g>
		<circle fill="#E8DE7F" cx="72.372" cy="74.155" r="53.612"/>
		<ellipse opacity="0.1" fill="#010101" cx="72.429" cy="81.886" rx="24.567" ry="25.119"/>
		<circle fill="#D3C04E" cx="72.177" cy="76.95" r="23.813"/>
		<ellipse fill="#EFD518" cx="61.821" cy="77.704" rx="2.756" ry="6.782"/>
		<path opacity="0.1" fill="#010101" d="M61.821,82.904c-1.408,0-2.569-2.599-2.735-5.953c-0.013,0.272-0.021,0.548-0.021,0.829
			c0,3.746,1.234,6.782,2.756,6.782c1.522,0,2.756-3.036,2.756-6.782c0-0.281-0.008-0.557-0.021-0.829
			C64.39,80.305,63.229,82.904,61.821,82.904z"/>
		<ellipse fill="#EFD518" cx="83.037" cy="77.704" rx="2.756" ry="6.782"/>
		<path opacity="0.1" fill="#010101" d="M83.037,82.904c1.408,0,2.568-2.599,2.735-5.953c0.013,0.272,0.021,0.548,0.021,0.829
			c0,3.746-1.234,6.782-2.756,6.782c-1.522,0-2.756-3.036-2.756-6.782c0-0.281,0.007-0.557,0.021-0.829
			C80.468,80.305,81.629,82.904,83.037,82.904z"/>
		<circle fill="#272626" cx="39.747" cy="60.756" r="3.876"/>
		<circle fill="#FFFFFF" cx="41.888" cy="59.941" r="0.816"/>
		<circle fill="#272626" cx="104.307" cy="60.756" r="3.876"/>
		<circle fill="#FFFFFF" cx="106.448" cy="59.941" r="0.816"/>
		<path fill="#918834" d="M76.401,37.576V20.644c-1.33-0.099-2.674-0.15-4.029-0.15c-1.356,0-2.7,0.052-4.03,0.15v16.87
			L76.401,37.576z"/>
		<rect x="68.342" y="34.131" fill="#D3C04E" width="8.06" height="3.445"/>
		
			<line fill="none" stroke="#262626" stroke-width="0.6402" stroke-miterlimit="10" x1="55.519" y1="108.833" x2="88.333" y2="108.833"/>
	</g>
</g>
<g>
	<g>
		<ellipse fill="#010101" cx="182.334" cy="59.582" rx="1.074" ry="1.174"/>
		<ellipse fill="#010101" cx="246.632" cy="59.582" rx="1.074" ry="1.174"/>
		<g>
			<path fill="#C2DFA3" d="M263.694,52.157c7.426-9.041,10.78-20.604,12.335-31.599c0.725-5.127-0.234-6.297-5.723-5.651
				c-3.875,0.323-8.397,1.292-12.272,2.261c-5.49,1.614-23.251,9.364-21.635,15.177c1.292,6.781,19.413,18.338,25.871,19.63
				L263.694,52.157z"/>
		</g>
		<g>
			<path fill="#26B34B" d="M261.138,45.721c4.872-5.931,7.072-13.515,8.092-20.727c0.475-3.363-0.154-4.13-3.755-3.706
				c-2.542,0.212-5.507,0.847-8.049,1.482c-3.601,1.059-15.251,6.143-14.192,9.955c0.847,4.448,12.734,12.029,16.971,12.877
				L261.138,45.721z"/>
		</g>
		<g>
			<path fill="#C2DFA3" d="M166.054,52.157c-7.427-9.041-10.78-20.604-12.335-31.599c-0.725-5.127,0.235-6.297,5.724-5.651
				c3.875,0.323,8.397,1.292,12.272,2.261c5.49,1.614,23.251,9.364,21.635,15.177c-1.292,6.781-19.413,18.338-25.871,19.63
				L166.054,52.157z"/>
		</g>
		<g>
			<path fill="#26B34B" d="M168.609,45.721c-4.872-5.931-7.072-13.515-8.092-20.727c-0.475-3.363,0.155-4.13,3.755-3.706
				c2.542,0.212,5.507,0.847,8.049,1.482c3.601,1.059,15.251,6.143,14.192,9.955c-0.847,4.448-12.734,12.029-16.97,12.877
				L168.609,45.721z"/>
		</g>
		<circle fill="#C2DFA3" cx="214.697" cy="74.155" r="53.612"/>
		<ellipse opacity="0.1" fill="#010101" cx="214.754" cy="81.886" rx="24.567" ry="25.119"/>
		<circle fill="#ADD296" cx="214.502" cy="76.95" r="23.813"/>
		<ellipse fill="#26B34B" cx="204.146" cy="77.704" rx="2.756" ry="6.782"/>
		<path opacity="0.1" fill="#010101" d="M204.146,82.904c-1.408,0-2.569-2.599-2.735-5.953c-0.013,0.272-0.021,0.548-0.021,0.829
			c0,3.746,1.234,6.782,2.756,6.782s2.756-3.036,2.756-6.782c0-0.281-0.008-0.557-0.021-0.829
			C206.715,80.305,205.554,82.904,204.146,82.904z"/>
		<ellipse fill="#26B34B" cx="225.362" cy="77.704" rx="2.756" ry="6.782"/>
		<path opacity="0.1" fill="#010101" d="M225.362,82.904c1.408,0,2.568-2.599,2.735-5.953c0.013,0.272,0.021,0.548,0.021,0.829
			c0,3.746-1.234,6.782-2.756,6.782c-1.522,0-2.756-3.036-2.756-6.782c0-0.281,0.007-0.557,0.021-0.829
			C222.793,80.305,223.954,82.904,225.362,82.904z"/>
		<circle fill="#272626" cx="182.072" cy="60.756" r="3.876"/>
		<circle fill="#FFFFFF" cx="184.213" cy="59.941" r="0.816"/>
		<circle fill="#272626" cx="246.632" cy="60.756" r="3.876"/>
		<circle fill="#FFFFFF" cx="248.773" cy="59.941" r="0.816"/>
		<path fill="#4B724E" d="M218.727,37.576V20.644c-1.33-0.099-2.674-0.15-4.029-0.15c-1.356,0-2.7,0.052-4.03,0.15v16.87
			L218.727,37.576z"/>
		<rect x="210.667" y="34.131" fill="#ACD195" width="8.06" height="3.445"/>
		<path fill="#272626" d="M180.158,53.137c0,0-4.563-1.762-5.063,3.05"/>
		<path fill="#272626" d="M248.773,53.137c0,0,4.563-1.762,5.063,3.05"/>
		<path fill="none" stroke="#262626" stroke-width="0.7753" stroke-miterlimit="10" d="M185.451,94.356
			c0,0,5.895,17.583,29.051,17.583"/>
		<path fill="none" stroke="#262626" stroke-width="0.7753" stroke-miterlimit="10" d="M243.554,94.356
			c0,0-5.895,17.583-29.051,17.583"/>
	</g>
</g>
<g>
	<g>
		<ellipse fill="#010101" cx="38.304" cy="-85.378" rx="1.074" ry="1.174"/>
		<ellipse fill="#010101" cx="102.602" cy="-85.378" rx="1.074" ry="1.174"/>
		<g>
			<path fill="#9AC2E6" d="M119.664-92.803c7.426-9.041,10.78-20.604,12.335-31.599c0.725-5.127-0.234-6.297-5.723-5.651
				c-3.875,0.323-8.397,1.292-12.272,2.261c-5.49,1.614-23.251,9.364-21.635,15.177c1.292,6.781,19.413,18.338,25.871,19.63
				L119.664-92.803z"/>
		</g>
		<g>
			<path fill="#7AA0BC" d="M117.108-99.239c4.872-5.931,7.072-13.515,8.092-20.727c0.475-3.363-0.154-4.13-3.755-3.706
				c-2.542,0.212-5.507,0.847-8.049,1.482c-3.601,1.059-15.251,6.143-14.192,9.955c0.847,4.448,12.734,12.029,16.971,12.877
				L117.108-99.239z"/>
		</g>
		<g>
			<path fill="#9AC2E6" d="M22.024-92.803c-7.427-9.041-10.78-20.604-12.335-31.599c-0.725-5.127,0.235-6.297,5.724-5.651
				c3.875,0.323,8.397,1.292,12.272,2.261c5.49,1.614,23.251,9.364,21.635,15.177c-1.292,6.781-19.413,18.338-25.871,19.63
				L22.024-92.803z"/>
		</g>
		<g>
			<path fill="#7AA0BC" d="M24.58-99.239c-4.872-5.931-7.072-13.515-8.092-20.727c-0.475-3.363,0.155-4.13,3.755-3.706
				c2.542,0.212,5.507,0.847,8.049,1.482c3.601,1.059,15.251,6.143,14.192,9.955c-0.847,4.448-12.734,12.029-16.97,12.877
				L24.58-99.239z"/>
		</g>
		<circle fill="#9AC2E6" cx="70.667" cy="-70.804" r="53.612"/>
		<ellipse opacity="0.1" fill="#010101" cx="70.724" cy="-63.074" rx="24.567" ry="25.119"/>
		<circle fill="#A3D0F0" cx="70.472" cy="-68.009" r="23.813"/>
		<ellipse fill="#7BA4C4" cx="60.116" cy="-67.256" rx="2.756" ry="6.782"/>
		<path opacity="0.1" fill="#010101" d="M60.116-62.056c-1.408,0-2.569-2.599-2.735-5.953c-0.013,0.272-0.021,0.548-0.021,0.829
			c0,3.746,1.234,6.782,2.756,6.782c1.522,0,2.756-3.036,2.756-6.782c0-0.281-0.008-0.557-0.021-0.829
			C62.685-64.655,61.524-62.056,60.116-62.056z"/>
		<ellipse fill="#7BA4C4" cx="81.332" cy="-67.256" rx="2.756" ry="6.782"/>
		<path opacity="0.1" fill="#010101" d="M81.332-62.056c1.408,0,2.568-2.599,2.735-5.953c0.013,0.272,0.021,0.548,0.021,0.829
			c0,3.746-1.234,6.782-2.756,6.782c-1.522,0-2.756-3.036-2.756-6.782c0-0.281,0.007-0.557,0.021-0.829
			C78.763-64.655,79.925-62.056,81.332-62.056z"/>
		<circle fill="#272626" cx="38.043" cy="-84.203" r="3.876"/>
		<circle fill="#FFFFFF" cx="40.183" cy="-85.019" r="0.816"/>
		<circle fill="#272626" cx="102.602" cy="-84.203" r="3.876"/>
		<circle fill="#FFFFFF" cx="104.743" cy="-85.019" r="0.816"/>
		<path fill="#5C768A" d="M74.697-107.384v-16.932c-1.33-0.099-2.674-0.15-4.029-0.15c-1.356,0-2.7,0.052-4.03,0.15v16.87
			L74.697-107.384z"/>
		<rect x="66.637" y="-110.829" fill="#A3D0F0" width="8.06" height="3.445"/>
		<path fill="#272626" d="M36.129-91.823c0,0-4.562-1.762-5.062,3.05"/>
		<path fill="#272626" d="M104.743-91.823c0,0,4.563-1.762,5.063,3.05"/>
		<path fill="none" stroke="#262626" stroke-width="0.7753" stroke-miterlimit="10" d="M41.421-50.603
			c0,0,5.895,17.583,29.051,17.583"/>
		<path fill="none" stroke="#262626" stroke-width="0.7753" stroke-miterlimit="10" d="M99.524-50.603
			c0,0-5.895,17.583-29.051,17.583"/>
	</g>
</g>
</svg>
