<?xml version="1.0" encoding="utf-8"?>
<!-- Generator: Adobe Illustrator 17.0.0, SVG Export Plug-In . SVG Version: 6.00 Build 0)  -->
<!DOCTYPE svg PUBLIC "-//W3C//DTD SVG 1.1//EN" "http://www.w3.org/Graphics/SVG/1.1/DTD/svg11.dtd">
<svg version="1.1" id="Camada_1" xmlns="http://www.w3.org/2000/svg" xmlns:xlink="http://www.w3.org/1999/xlink" x="0px" y="0px"
	 width="761.058px" height="226.974px" viewBox="0 0 761.058 226.974" enable-background="new 0 0 761.058 226.974"
	 xml:space="preserve">
<path fill="#8DBAD3" d="M70.392,8.011c0,0-99.333,12.667-62,95.667c0,0,32.667,73,128.667,99.667c0,0,154,42.667,311.333,13.333
	c0,0,225.333-52.667,260.667-80.667c0,0,50.667-32,52-52.667c0,0,10-36.667-50-54c0,0-89.333-30-188.667-29.333
	c0,0-132.667,10-192,6c0,0-113.333-6-181.333-3.333C149.058,2.678,126.392,0.011,70.392,8.011z"/>
</svg>
