<?xml version="1.0" encoding="utf-8"?>
<!-- Generator: Adobe Illustrator 17.0.0, SVG Export Plug-In . SVG Version: 6.00 Build 0)  -->
<!DOCTYPE svg PUBLIC "-//W3C//DTD SVG 1.1//EN" "http://www.w3.org/Graphics/SVG/1.1/DTD/svg11.dtd">
<svg version="1.1" id="Camada_1" xmlns="http://www.w3.org/2000/svg" xmlns:xlink="http://www.w3.org/1999/xlink" x="0px" y="0px"
	 width="858.561px" height="257.971px" viewBox="0 0 858.561 257.971" enable-background="new 0 0 858.561 257.971"
	 xml:space="preserve">
<path fill="#AECF9F" d="M825.204,147.668c0,0-78-22.5-128-29c0,0-81-13.5-43.5-69.5c0,0,44.5-52.5-50-49c0,0-65.5,2.5-118,28
	c0,0-27,9.5-84,18c0,0-55.5,3.5-103-4.5c0,0-111.5-19.5-275.5,20.5c0,0-41,18.5-14,41.5l65.5,43.5c0,0,24.5,12,13,46.5
	c0,0-15,30,9,41c0,0,29.167,15.417,58.583,16.5c0,0,71.417,4.5,126.417-2.25c0,0,46.312-2.949,69.657-0.132
	c5.569,0.105,11.256,0.857,16.903,1.93c0.968,0.041,1.9,0.216,2.823,0.453c44.087,2.092,215.409,9.849,244.117,5.499
	c0,0,104.5,4,228-57C843.204,199.668,887.704,169.168,825.204,147.668z"/>
</svg>
