<?xml version="1.0" encoding="utf-8"?>
<!-- Generator: Adobe Illustrator 17.0.0, SVG Export Plug-In . SVG Version: 6.00 Build 0)  -->
<!DOCTYPE svg PUBLIC "-//W3C//DTD SVG 1.1//EN" "http://www.w3.org/Graphics/SVG/1.1/DTD/svg11.dtd">
<svg version="1.1" id="Camada_1" xmlns="http://www.w3.org/2000/svg" xmlns:xlink="http://www.w3.org/1999/xlink" x="0px" y="0px"
	 width="141.73px" height="141.73px" viewBox="0 0 141.73 141.73" enable-background="new 0 0 141.73 141.73" xml:space="preserve">
<g>
	<g>
		<ellipse fill="#010101" cx="38.676" cy="59.582" rx="1.074" ry="1.174"/>
		<ellipse fill="#010101" cx="102.974" cy="59.582" rx="1.074" ry="1.174"/>
		<g>
			<path fill="#F3A7A7" d="M120.035,52.157c7.426-9.041,10.78-20.604,12.335-31.599c0.725-5.127-0.234-6.297-5.723-5.651
				c-3.875,0.323-8.397,1.292-12.272,2.261c-5.49,1.614-23.251,9.364-21.635,15.177c1.292,6.781,19.413,18.338,25.871,19.63
				L120.035,52.157z"/>
		</g>
		<g>
			<path fill="#CE2427" d="M117.479,45.721c4.872-5.931,7.072-13.515,8.092-20.727c0.475-3.363-0.154-4.13-3.755-3.706
				c-2.542,0.212-5.507,0.847-8.049,1.482c-3.601,1.059-15.251,6.143-14.192,9.955c0.847,4.448,12.734,12.029,16.971,12.877
				L117.479,45.721z"/>
		</g>
		<g>
			<path fill="#F3A7A7" d="M22.395,52.157c-7.427-9.041-10.78-20.604-12.335-31.599c-0.725-5.127,0.235-6.297,5.724-5.651
				c3.875,0.323,8.397,1.292,12.272,2.261c5.49,1.614,23.251,9.364,21.635,15.177c-1.292,6.781-19.413,18.338-25.871,19.63
				L22.395,52.157z"/>
		</g>
		<g>
			<path fill="#CE2427" d="M24.951,45.721c-4.872-5.931-7.072-13.515-8.092-20.727c-0.475-3.363,0.155-4.13,3.755-3.706
				c2.542,0.212,5.507,0.847,8.049,1.482c3.601,1.059,15.251,6.143,14.192,9.955c-0.847,4.448-12.734,12.029-16.97,12.877
				L24.951,45.721z"/>
		</g>
		<circle fill="#F3A7A7" cx="71.038" cy="74.155" r="53.612"/>
		<ellipse opacity="0.1" fill="#010101" cx="71.096" cy="81.886" rx="24.567" ry="25.119"/>
		<circle fill="#CE7878" cx="70.844" cy="76.95" r="23.813"/>
		<ellipse fill="#CE2427" cx="60.488" cy="77.704" rx="2.756" ry="6.782"/>
		<path opacity="0.1" fill="#010101" d="M60.488,82.904c-1.408,0-2.569-2.599-2.735-5.953c-0.013,0.272-0.021,0.548-0.021,0.829
			c0,3.746,1.234,6.782,2.756,6.782c1.522,0,2.756-3.036,2.756-6.782c0-0.281-0.008-0.557-0.021-0.829
			C63.056,80.305,61.896,82.904,60.488,82.904z"/>
		<ellipse fill="#CE2428" cx="81.704" cy="77.704" rx="2.756" ry="6.782"/>
		<path opacity="0.1" fill="#CE2427" d="M81.704,82.904c1.408,0,2.568-2.599,2.735-5.953c0.013,0.272,0.021,0.548,0.021,0.829
			c0,3.746-1.234,6.782-2.756,6.782c-1.522,0-2.756-3.036-2.756-6.782c0-0.281,0.007-0.557,0.021-0.829
			C79.135,80.305,80.296,82.904,81.704,82.904z"/>
		<circle fill="#272626" cx="38.414" cy="60.756" r="3.876"/>
		<circle fill="#FFFFFF" cx="40.555" cy="59.941" r="0.816"/>
		<circle fill="#272626" cx="102.973" cy="60.756" r="3.876"/>
		<circle fill="#FFFFFF" cx="105.114" cy="59.941" r="0.816"/>
		<path fill="#6D383C" d="M75.068,37.576V20.644c-1.33-0.099-2.674-0.15-4.029-0.15c-1.356,0-2.7,0.052-4.03,0.15v16.87
			L75.068,37.576z"/>
		<rect x="67.008" y="34.131" fill="#CE2427" width="8.06" height="3.445"/>
		<path fill="#272626" d="M109.75,55.208c0,0-4.563,1.762-5.063-3.05"/>
		<path fill="#272626" d="M30.702,55.208c0,0,4.563,1.762,5.063-3.05"/>
		<path fill="none" stroke="#262626" stroke-width="0.6402" stroke-miterlimit="10" d="M71.096,106.047
			c0,0-10.608-0.172-10.608,12.203"/>
		<path fill="none" stroke="#262626" stroke-width="0.6402" stroke-miterlimit="10" d="M70.865,106.047
			c0,0,10.608-0.172,10.608,12.203"/>
	</g>
</g>
<g>
	<g>
		<ellipse fill="#010101" cx="317.676" cy="59.582" rx="1.074" ry="1.174"/>
		<ellipse fill="#010101" cx="381.974" cy="59.582" rx="1.074" ry="1.174"/>
		<g>
			<path fill="#E8DE7F" d="M399.035,52.157c7.426-9.041,10.78-20.604,12.335-31.599c0.725-5.127-0.234-6.297-5.723-5.651
				c-3.875,0.323-8.397,1.292-12.272,2.261c-5.49,1.614-23.251,9.364-21.635,15.177c1.292,6.781,19.413,18.338,25.871,19.63
				L399.035,52.157z"/>
		</g>
		<g>
			<path fill="#EFD518" d="M396.479,45.721c4.872-5.931,7.072-13.515,8.092-20.727c0.475-3.363-0.154-4.13-3.755-3.706
				c-2.542,0.212-5.507,0.847-8.049,1.482c-3.601,1.059-15.251,6.143-14.192,9.955c0.847,4.448,12.734,12.029,16.971,12.877
				L396.479,45.721z"/>
		</g>
		<g>
			<path fill="#E8DE7F" d="M301.395,52.157c-7.427-9.041-10.78-20.604-12.335-31.599c-0.725-5.127,0.235-6.297,5.724-5.651
				c3.875,0.323,8.397,1.292,12.272,2.261c5.49,1.614,23.251,9.364,21.635,15.177c-1.292,6.781-19.413,18.338-25.871,19.63
				L301.395,52.157z"/>
		</g>
		<g>
			<path fill="#EFD518" d="M303.951,45.721c-4.872-5.931-7.072-13.515-8.092-20.727c-0.475-3.363,0.155-4.13,3.755-3.706
				c2.542,0.212,5.507,0.847,8.049,1.482c3.601,1.059,15.251,6.143,14.192,9.955c-0.847,4.448-12.734,12.029-16.97,12.877
				L303.951,45.721z"/>
		</g>
		<circle fill="#E8DE7F" cx="350.038" cy="74.155" r="53.612"/>
		<ellipse opacity="0.1" fill="#010101" cx="350.096" cy="81.886" rx="24.567" ry="25.119"/>
		<circle fill="#D3C04E" cx="349.844" cy="76.95" r="23.813"/>
		<ellipse fill="#EFD518" cx="339.488" cy="77.704" rx="2.756" ry="6.782"/>
		<path opacity="0.1" fill="#010101" d="M339.488,82.904c-1.408,0-2.569-2.599-2.735-5.953c-0.013,0.272-0.021,0.548-0.021,0.829
			c0,3.746,1.234,6.782,2.756,6.782s2.756-3.036,2.756-6.782c0-0.281-0.008-0.557-0.021-0.829
			C342.056,80.305,340.896,82.904,339.488,82.904z"/>
		<ellipse fill="#EFD518" cx="360.704" cy="77.704" rx="2.756" ry="6.782"/>
		<path opacity="0.1" fill="#010101" d="M360.704,82.904c1.408,0,2.568-2.599,2.735-5.953c0.013,0.272,0.021,0.548,0.021,0.829
			c0,3.746-1.234,6.782-2.756,6.782c-1.522,0-2.756-3.036-2.756-6.782c0-0.281,0.007-0.557,0.021-0.829
			C358.135,80.305,359.296,82.904,360.704,82.904z"/>
		<circle fill="#272626" cx="317.414" cy="60.756" r="3.876"/>
		<circle fill="#FFFFFF" cx="319.555" cy="59.941" r="0.816"/>
		<circle fill="#272626" cx="381.973" cy="60.756" r="3.876"/>
		<circle fill="#FFFFFF" cx="384.114" cy="59.941" r="0.816"/>
		<path fill="#918834" d="M354.068,37.576V20.644c-1.33-0.099-2.674-0.15-4.029-0.15c-1.356,0-2.7,0.052-4.03,0.15v16.87
			L354.068,37.576z"/>
		<rect x="346.008" y="34.131" fill="#D3C04E" width="8.06" height="3.445"/>
		
			<line fill="none" stroke="#262626" stroke-width="0.6402" stroke-miterlimit="10" x1="333.186" y1="108.833" x2="366" y2="108.833"/>
	</g>
</g>
<g>
	<g>
		<ellipse fill="#010101" cx="177.334" cy="59.582" rx="1.074" ry="1.174"/>
		<ellipse fill="#010101" cx="241.632" cy="59.582" rx="1.074" ry="1.174"/>
		<g>
			<path fill="#C2DFA3" d="M258.694,52.157c7.426-9.041,10.78-20.604,12.335-31.599c0.725-5.127-0.234-6.297-5.723-5.651
				c-3.875,0.323-8.397,1.292-12.272,2.261c-5.49,1.614-23.251,9.364-21.635,15.177c1.292,6.781,19.413,18.338,25.871,19.63
				L258.694,52.157z"/>
		</g>
		<g>
			<path fill="#26B34B" d="M256.138,45.721c4.872-5.931,7.072-13.515,8.092-20.727c0.475-3.363-0.154-4.13-3.755-3.706
				c-2.542,0.212-5.507,0.847-8.049,1.482c-3.601,1.059-15.251,6.143-14.192,9.955c0.847,4.448,12.734,12.029,16.971,12.877
				L256.138,45.721z"/>
		</g>
		<g>
			<path fill="#C2DFA3" d="M161.054,52.157c-7.427-9.041-10.78-20.604-12.335-31.599c-0.725-5.127,0.235-6.297,5.724-5.651
				c3.875,0.323,8.397,1.292,12.272,2.261c5.49,1.614,23.251,9.364,21.635,15.177c-1.292,6.781-19.413,18.338-25.871,19.63
				L161.054,52.157z"/>
		</g>
		<g>
			<path fill="#26B34B" d="M163.609,45.721c-4.872-5.931-7.072-13.515-8.092-20.727c-0.475-3.363,0.155-4.13,3.755-3.706
				c2.542,0.212,5.507,0.847,8.049,1.482c3.601,1.059,15.251,6.143,14.192,9.955c-0.847,4.448-12.734,12.029-16.97,12.877
				L163.609,45.721z"/>
		</g>
		<circle fill="#C2DFA3" cx="209.697" cy="74.155" r="53.612"/>
		<ellipse opacity="0.1" fill="#010101" cx="209.754" cy="81.886" rx="24.567" ry="25.119"/>
		<circle fill="#ADD296" cx="209.502" cy="76.95" r="23.813"/>
		<ellipse fill="#26B34B" cx="199.146" cy="77.704" rx="2.756" ry="6.782"/>
		<path opacity="0.1" fill="#010101" d="M199.146,82.904c-1.408,0-2.569-2.599-2.735-5.953c-0.013,0.272-0.021,0.548-0.021,0.829
			c0,3.746,1.234,6.782,2.756,6.782s2.756-3.036,2.756-6.782c0-0.281-0.008-0.557-0.021-0.829
			C201.715,80.305,200.554,82.904,199.146,82.904z"/>
		<ellipse fill="#26B34B" cx="220.362" cy="77.704" rx="2.756" ry="6.782"/>
		<path opacity="0.1" fill="#010101" d="M220.362,82.904c1.408,0,2.568-2.599,2.735-5.953c0.013,0.272,0.021,0.548,0.021,0.829
			c0,3.746-1.234,6.782-2.756,6.782c-1.522,0-2.756-3.036-2.756-6.782c0-0.281,0.007-0.557,0.021-0.829
			C217.793,80.305,218.954,82.904,220.362,82.904z"/>
		<circle fill="#272626" cx="177.072" cy="60.756" r="3.876"/>
		<circle fill="#FFFFFF" cx="179.213" cy="59.941" r="0.816"/>
		<circle fill="#272626" cx="241.632" cy="60.756" r="3.876"/>
		<circle fill="#FFFFFF" cx="243.773" cy="59.941" r="0.816"/>
		<path fill="#4B724E" d="M213.727,37.576V20.644c-1.33-0.099-2.674-0.15-4.029-0.15c-1.356,0-2.7,0.052-4.03,0.15v16.87
			L213.727,37.576z"/>
		<rect x="205.667" y="34.131" fill="#ACD195" width="8.06" height="3.445"/>
		<path fill="#272626" d="M175.158,53.137c0,0-4.563-1.762-5.063,3.05"/>
		<path fill="#272626" d="M243.773,53.137c0,0,4.563-1.762,5.063,3.05"/>
		<path fill="none" stroke="#262626" stroke-width="0.7753" stroke-miterlimit="10" d="M180.451,94.356
			c0,0,5.895,17.583,29.051,17.583"/>
		<path fill="none" stroke="#262626" stroke-width="0.7753" stroke-miterlimit="10" d="M238.554,94.356
			c0,0-5.895,17.583-29.051,17.583"/>
	</g>
</g>
<g>
	<g>
		<ellipse fill="#010101" cx="38.304" cy="-85.378" rx="1.074" ry="1.174"/>
		<ellipse fill="#010101" cx="102.602" cy="-85.378" rx="1.074" ry="1.174"/>
		<g>
			<path fill="#9AC2E6" d="M119.664-92.803c7.426-9.041,10.78-20.604,12.335-31.599c0.725-5.127-0.234-6.297-5.723-5.651
				c-3.875,0.323-8.397,1.292-12.272,2.261c-5.49,1.614-23.251,9.364-21.635,15.177c1.292,6.781,19.413,18.338,25.871,19.63
				L119.664-92.803z"/>
		</g>
		<g>
			<path fill="#7AA0BC" d="M117.108-99.239c4.872-5.931,7.072-13.515,8.092-20.727c0.475-3.363-0.154-4.13-3.755-3.706
				c-2.542,0.212-5.507,0.847-8.049,1.482c-3.601,1.059-15.251,6.143-14.192,9.955c0.847,4.448,12.734,12.029,16.971,12.877
				L117.108-99.239z"/>
		</g>
		<g>
			<path fill="#9AC2E6" d="M22.024-92.803c-7.427-9.041-10.78-20.604-12.335-31.599c-0.725-5.127,0.235-6.297,5.724-5.651
				c3.875,0.323,8.397,1.292,12.272,2.261c5.49,1.614,23.251,9.364,21.635,15.177c-1.292,6.781-19.413,18.338-25.871,19.63
				L22.024-92.803z"/>
		</g>
		<g>
			<path fill="#7AA0BC" d="M24.58-99.239c-4.872-5.931-7.072-13.515-8.092-20.727c-0.475-3.363,0.155-4.13,3.755-3.706
				c2.542,0.212,5.507,0.847,8.049,1.482c3.601,1.059,15.251,6.143,14.192,9.955c-0.847,4.448-12.734,12.029-16.97,12.877
				L24.58-99.239z"/>
		</g>
		<circle fill="#9AC2E6" cx="70.667" cy="-70.804" r="53.612"/>
		<ellipse opacity="0.1" fill="#010101" cx="70.724" cy="-63.074" rx="24.567" ry="25.119"/>
		<circle fill="#A3D0F0" cx="70.472" cy="-68.009" r="23.813"/>
		<ellipse fill="#7BA4C4" cx="60.116" cy="-67.256" rx="2.756" ry="6.782"/>
		<path opacity="0.1" fill="#010101" d="M60.116-62.056c-1.408,0-2.569-2.599-2.735-5.953c-0.013,0.272-0.021,0.548-0.021,0.829
			c0,3.746,1.234,6.782,2.756,6.782c1.522,0,2.756-3.036,2.756-6.782c0-0.281-0.008-0.557-0.021-0.829
			C62.685-64.655,61.524-62.056,60.116-62.056z"/>
		<ellipse fill="#7BA4C4" cx="81.332" cy="-67.256" rx="2.756" ry="6.782"/>
		<path opacity="0.1" fill="#010101" d="M81.332-62.056c1.408,0,2.568-2.599,2.735-5.953c0.013,0.272,0.021,0.548,0.021,0.829
			c0,3.746-1.234,6.782-2.756,6.782c-1.522,0-2.756-3.036-2.756-6.782c0-0.281,0.007-0.557,0.021-0.829
			C78.763-64.655,79.925-62.056,81.332-62.056z"/>
		<circle fill="#272626" cx="38.043" cy="-84.203" r="3.876"/>
		<circle fill="#FFFFFF" cx="40.183" cy="-85.019" r="0.816"/>
		<circle fill="#272626" cx="102.602" cy="-84.203" r="3.876"/>
		<circle fill="#FFFFFF" cx="104.743" cy="-85.019" r="0.816"/>
		<path fill="#5C768A" d="M74.697-107.384v-16.932c-1.33-0.099-2.674-0.15-4.029-0.15c-1.356,0-2.7,0.052-4.03,0.15v16.87
			L74.697-107.384z"/>
		<rect x="66.637" y="-110.829" fill="#A3D0F0" width="8.06" height="3.445"/>
		<path fill="#272626" d="M36.129-91.823c0,0-4.562-1.762-5.062,3.05"/>
		<path fill="#272626" d="M104.743-91.823c0,0,4.563-1.762,5.063,3.05"/>
		<path fill="none" stroke="#262626" stroke-width="0.7753" stroke-miterlimit="10" d="M41.421-50.603
			c0,0,5.895,17.583,29.051,17.583"/>
		<path fill="none" stroke="#262626" stroke-width="0.7753" stroke-miterlimit="10" d="M99.524-50.603
			c0,0-5.895,17.583-29.051,17.583"/>
	</g>
</g>
</svg>
