<?xml version="1.0" encoding="utf-8"?>
<!-- Generator: Adobe Illustrator 17.0.0, SVG Export Plug-In . SVG Version: 6.00 Build 0)  -->
<!DOCTYPE svg PUBLIC "-//W3C//DTD SVG 1.1//EN" "http://www.w3.org/Graphics/SVG/1.1/DTD/svg11.dtd">
<svg version="1.1" id="Layer_1" xmlns="http://www.w3.org/2000/svg" xmlns:xlink="http://www.w3.org/1999/xlink" x="0px" y="0px"
	 width="2160.312px" height="1530.029px" viewBox="0 0 2160.312 1530.029" enable-background="new 0 0 2160.312 1530.029"
	 xml:space="preserve">
<g>
	<g>
		<g>
			<g>
				<path fill="#93C5FD" d="M450.416,1522.414l-146.476-6.525c0,0-335.344-139.202-301.547-640.919
					C36.191,373.252,613.426,65.961,788.867,25.758s306.784-46.67,357.08,80.089c50.296,126.758,96.989,180.548,175.159,180.301
					c78.171-0.248,564.747-38.74,729.07,207.86c142.974,214.562,209.577,558.275-146.004,1021.289L450.416,1522.414z"/>
			</g>
		</g>
	</g>
	<g>
		<g>
			<g>
				<g>
					<g>
						<g>
							<path fill="#AECF9F" d="M1310.368,1017.92c0,0,123.774-214.355,197.512-87.457c0,0,137.187-246.937,248.652-159.48
								c111.464,87.457-58.305,540.174-58.305,540.174s183.488-176.628,123.468,85.742c0,0,77.168-58.494,126.898-39.536
								c49.73,18.958,6.859,166.511,6.859,166.511h-750.881L1310.368,1017.92z"/>
						</g>
					</g>
				</g>
			</g>
		</g>
		<g>
			<g>
				<g>
					<g>
						<g>
							<g>
								<path fill="#AECF9F" d="M942.085,1525.111c-6.495-5.196-39.294-329.614-211.708-262.38c0,0-94.894-171.116-211.574-159.466
									c-129.013,12.882-31.399,249.563-31.399,249.563s-123.413-50.665-94.833,83.142c0,0-157.19-28.58-145.498,84.441
									L942.085,1525.111z"/>
							</g>
						</g>
					</g>
				</g>
				<g>
					<g>
						<g>
							<g>
								
									<ellipse transform="matrix(0.7699 -0.6382 0.6382 0.7699 -681.9937 476.714)" fill="#AECF9F" cx="320.068" cy="1184.085" rx="29.229" ry="54.562"/>
							</g>
						</g>
					</g>
				</g>
				<g>
					<g>
						<g>
							<g>
								
									<ellipse transform="matrix(0.7699 -0.6382 0.6382 0.7699 -740.8484 483.3992)" fill="#AECF9F" cx="299.911" cy="1269.042" rx="17.303" ry="32.3"/>
							</g>
						</g>
					</g>
				</g>
			</g>
			<g>
				<g>
					<g>
						<g>
							<g>
								<path d="M493.114,1380.225c0.369-0.08,0.708-0.298,0.935-0.636c0.463-0.693,0.277-1.63-0.416-2.093
									c-1.26-0.843-31.172-20.567-57.425-14.871c-0.006,0.001-0.009,0.002-0.015,0.003c-0.814,0.177-1.33,0.981-1.154,1.795
									s0.98,1.331,1.794,1.154c0.003-0.002,0.009-0.002,0.014-0.003c24.992-5.422,54.811,14.232,55.108,14.432
									C492.31,1380.242,492.728,1380.309,493.114,1380.225z"/>
							</g>
						</g>
					</g>
				</g>
				<g>
					<g>
						<g>
							<g>
								<path d="M473.011,1382.48c0.372-0.081,0.712-0.3,0.938-0.642c0.46-0.694,0.269-1.631-0.426-2.091
									c-0.576-0.381-14.391-9.325-38.922-7.799c-0.837,0.055-1.464,0.768-1.412,1.599c0.052,0.832,0.768,1.464,1.599,1.413
									c23.53-1.464,36.936,7.215,37.069,7.303C472.212,1382.498,472.627,1382.563,473.011,1382.48z"/>
							</g>
						</g>
					</g>
				</g>
			</g>
		</g>
		<g>
			<g>
				<g>
					<g>
						<path d="M1752.432,852.654c-0.146,0.994-1.001,1.758-2.037,1.76c-1.138,0-2.061-0.922-2.062-2.06
							c-0.028-28.871-16.812-46.081-16.982-46.251c-0.802-0.806-0.801-2.112,0.005-2.913c0.805-0.803,2.108-0.803,2.911,0.001
							c0.741,0.742,18.158,18.514,18.187,49.16C1752.455,852.454,1752.447,852.555,1752.432,852.654z"/>
					</g>
				</g>
			</g>
			<g>
				<g>
					<g>
						<path d="M1741.506,875.522c-0.15,1.022-1.046,1.791-2.104,1.758c-1.137-0.036-2.03-0.988-1.994-2.124
							c0.943-29.781-11.998-50.356-12.129-50.561c-0.613-0.959-0.334-2.233,0.623-2.846c0.957-0.615,2.23-0.337,2.845,0.619
							c0.563,0.876,13.766,21.795,12.78,52.916C1741.524,875.366,1741.517,875.445,1741.506,875.522z"/>
					</g>
				</g>
			</g>
		</g>
	</g>
	<g>
		<g>
			<path fill="#0D4B39" d="M817.214,1516.365l656.796,7.089c0.585-2.204,50.473-1.566,50.232-3.957
				c-11.435-113.314-36.06-307.213-36.06-307.213l-211.978,57.163l-449.246,8.11c0,0-19.276,194.94-26.532,245.442
				C800.402,1523.156,817.177,1516.212,817.214,1516.365z"/>
		</g>
	</g>
	<g>
		<path fill="#E88B24" d="M1024.009,1148.309c7.713,1.458,15.313,3.729,22.74,6.78c-7.459-2.989-15.122-5.292-22.835-6.75
			L1024.009,1148.309z"/>
		<path fill="#E88B24" d="M1058.481,1160.493l-0.033,0.062l-0.062-0.033c-1.922-1.015-3.814-1.935-5.706-2.855
			C1054.605,1158.525,1056.56,1159.478,1058.481,1160.493z"/>
		<g>
			<circle fill="#FDC364" cx="992.748" cy="1268.278" r="111.971"/>
			<path fill="#F9A51B" d="M933.901,1379.679c-61.428-32.448-85.005-108.821-52.557-170.249
				c32.448-61.428,108.821-85.005,170.249-52.557c61.428,32.448,85.005,108.821,52.557,170.249
				C1071.702,1388.55,995.329,1412.127,933.901,1379.679z M1038.496,1181.667c-47.753-25.225-107.133-6.894-132.358,40.86
				s-6.894,107.133,40.86,132.358c47.754,25.225,107.133,6.894,132.358-40.86C1104.581,1266.272,1086.25,1206.892,1038.496,1181.667
				z"/>
		</g>
		<g>
			<g>
				<g>
					<path fill="#F9A51B" d="M1013.796,1307.413c-7.86,14.88-23.471,22.115-40.517,19.432l-9.239,17.49l-26.096-13.785l8.388-15.88
						c-6.795-5.151-12.438-11.542-15.503-17.705l-3.172-6.363l22.998-21.087l5.746,10.634c3.077,5.602,8.409,10.834,14.295,13.943
						c4.386,2.317,10.43,3.379,12.893-1.285c0.997-1.888,2.845-5.386-6.433-16.323c-11.69-13.631-22.331-30.189-12.153-49.455
						c7.508-14.214,22.466-21.155,38.813-18.627l9.004-17.046l25.93,13.697l-8.124,15.38c5.08,3.961,9.22,8.492,12.447,13.676
						l4.175,6.75l-23.182,20.493l-5.944-9.318c-1.602-2.479-4.884-7.693-12.657-11.799c-2.776-1.466-7.874-3.378-9.956,0.564
						c-0.968,1.832-2.024,3.831,8.48,16.481C1013.509,1268.7,1024.941,1286.314,1013.796,1307.413z"/>
				</g>
			</g>
		</g>
		<path fill="#F9A51B" d="M908.005,1279.566c-1.883-24.152,7.029-47.389,24.46-64.175c1.824-1.756-0.74-4.752-2.57-2.99
			c-18.554,17.866-27.757,42.279-25.757,67.937C904.335,1282.861,908.2,1282.072,908.005,1279.566z"/>
		<path fill="#F9A51B" d="M989.859,1180.544c-16.487,2.256-31.988,8.037-45.909,17.161c-2.096,1.374-0.392,4.933,1.728,3.543
			c13.657-8.949,28.771-14.623,44.954-16.838C993.146,1184.067,992.369,1180.201,989.859,1180.544z"/>
		<path fill="#F9A51B" d="M1081.825,1251.838c-0.289-2.52-4.155-1.738-3.867,0.772c3.305,28.773-6.822,57.232-27.528,77.476
			c-1.809,1.769,0.754,4.766,2.571,2.99C1074.793,1311.77,1085.301,1282.11,1081.825,1251.838z"/>
		<path fill="#F9A51B" d="M1038.232,1338.451c-11.872,9.136-25.552,14.836-40.376,16.946c-2.512,0.358-1.737,4.224,0.773,3.866
			c15.485-2.204,29.784-8.289,42.174-17.823C1042.819,1339.889,1040.236,1336.908,1038.232,1338.451z"/>
		<path fill="#F9A51B" d="M1050.578,1311.764c-4.782,8.558-11.28,15.637-19.402,21.13c-2.103,1.422,0.44,4.438,2.525,3.028
			c8.371-5.661,15.158-13.047,20.088-21.869C1055.016,1311.857,1051.815,1309.551,1050.578,1311.764z"/>
		<path fill="#E88B24" d="M942.884,1357.383c-3.483,7.181-6.965,14.363-10.447,21.544c-1.105,2.278,2.633,3.542,3.727,1.284
			c3.483-7.181,6.965-14.363,10.447-21.544C947.716,1356.39,943.979,1355.125,942.884,1357.383z"/>
		<path fill="#E88B24" d="M973.025,1367.705c0.685-2.432-3.038-3.732-3.727-1.284c-2.181,7.743-4.362,15.485-6.543,23.228
			c-0.685,2.432,3.038,3.732,3.727,1.284C968.662,1383.19,970.844,1375.448,973.025,1367.705z"/>
		<path fill="#E88B24" d="M999.041,1391.633c0.25-8.189,0.5-16.378,0.751-24.567c0.077-2.528-3.858-2.793-3.936-0.247
			c-0.25,8.189-0.501,16.378-0.751,24.567C995.028,1393.913,998.963,1394.179,999.041,1391.633z"/>
		<path fill="#E88B24" d="M1031.406,1385.197c-1.229-8.42-2.457-16.839-3.686-25.258c-0.366-2.511-4.233-1.737-3.866,0.773
			c1.228,8.419,2.457,16.839,3.685,25.258C1027.906,1388.481,1031.772,1387.707,1031.406,1385.197z"/>
		<path fill="#E88B24" d="M1056.996,1374.498l-11.083-23.521c-1.083-2.299-4.626-0.57-3.543,1.728
			c3.694,7.84,7.389,15.681,11.083,23.521C1054.536,1378.525,1058.079,1376.795,1056.996,1374.498z"/>
		<path fill="#E88B24" d="M1076.244,1358.016c-5.367-5.01-10.735-10.02-16.102-15.029c-1.839-1.716-4.843,0.841-2.99,2.571
			c5.367,5.01,10.734,10.019,16.102,15.029C1075.093,1362.302,1078.097,1359.745,1076.244,1358.016z"/>
		<path fill="#E88B24" d="M1099.683,1330.826c-8.25-3.246-16.501-6.493-24.751-9.739c-2.363-0.93-3.642,2.8-1.284,3.727
			c8.25,3.246,16.501,6.493,24.751,9.739C1100.761,1335.483,1102.041,1331.754,1099.683,1330.826z"/>
		<path fill="#E88B24" d="M1111.499,1304.83c-8.096-1.354-16.191-2.707-24.287-4.06c-2.497-0.418-2.733,3.52-0.247,3.936
			c8.096,1.353,16.191,2.707,24.287,4.06C1113.749,1309.182,1113.985,1305.245,1111.499,1304.83z"/>
		<path fill="#F9A51B" d="M937.392,1230.931c4.862-8.513,11.425-15.531,19.599-20.948c2.116-1.402-0.398-4.442-2.497-3.051
			c-8.424,5.583-15.279,12.905-20.292,21.681C932.955,1230.797,936.135,1233.132,937.392,1230.931z"/>
		<path fill="#E88B24" d="M1049.244,1184.931c3.982-6.917,7.963-13.834,11.944-20.752c1.263-2.194-2.375-3.719-3.627-1.544
			c-3.982,6.917-7.963,13.835-11.944,20.752C1044.354,1185.581,1047.993,1187.106,1049.244,1184.931z"/>
		<path fill="#E88B24" d="M1019.909,1172.504c-0.855,2.377,2.766,3.937,3.627,1.544c2.723-7.569,5.446-15.138,8.169-22.707
			c0.855-2.377-2.767-3.937-3.627-1.544C1025.355,1157.366,1022.632,1164.935,1019.909,1172.504z"/>
		<path fill="#E88B24" d="M994.225,1142.313c-0.828,8.151-1.657,16.302-2.486,24.452c-0.256,2.516,3.651,3.059,3.908,0.525
			c0.829-8.151,1.657-16.302,2.486-24.452C998.39,1140.322,994.483,1139.779,994.225,1142.313z"/>
		<path fill="#E88B24" d="M965.97,1145.02c0.63,8.485,1.26,16.97,1.891,25.456c0.188,2.531,4.099,2.031,3.911-0.497
			c-0.63-8.485-1.26-16.97-1.891-25.455C969.694,1141.991,965.782,1142.491,965.97,1145.02z"/>
		<path fill="#E88B24" d="M939.688,1153.883l9.393,24.245c0.918,2.37,4.574,0.895,3.657-1.473
			c-3.131-8.082-6.262-16.164-9.392-24.246C942.427,1150.04,938.77,1151.515,939.688,1153.883z"/>
		<path fill="#E88B24" d="M913.308,1173.342c5,5.377,9.999,10.753,14.999,16.13c1.713,1.842,4.891-0.496,3.164-2.353
			c-5-5.376-9.999-10.753-14.999-16.13C914.76,1169.148,911.582,1171.486,913.308,1173.342z"/>
		<path fill="#E88B24" d="M888.006,1198.807c8,3.821,16,7.643,24.001,11.464c2.291,1.094,3.831-2.535,1.544-3.627
			c-8-3.822-16-7.643-24-11.464C887.259,1194.085,885.72,1197.714,888.006,1198.807z"/>
		<path fill="#E88B24" d="M872.851,1226.857c7.98,1.923,15.959,3.845,23.939,5.767c2.461,0.593,2.975-3.318,0.525-3.908
			c-7.98-1.922-15.96-3.845-23.939-5.767C870.915,1222.356,870.401,1226.267,872.851,1226.857z"/>
		<path fill="#E88B24" d="M1092.349,1284.076c7.979,0.193,15.958,0.385,23.937,0.578c2.531,0.061,2.132-3.864-0.376-3.924
			c-7.979-0.193-15.958-0.385-23.937-0.577C1089.442,1280.09,1089.84,1284.015,1092.349,1284.076z"/>
		<path fill="#E88B24" d="M1114.999,1257.224c-8.185,0.36-16.37,0.72-24.555,1.08c-2.527,0.111-2.499,4.055,0.046,3.943
			c8.185-0.36,16.37-0.72,24.555-1.079C1117.571,1261.057,1117.543,1257.113,1114.999,1257.224z"/>
		<path fill="#E88B24" d="M1111.286,1230.976c-8.305,1.852-16.609,3.703-24.914,5.555c-2.477,0.552-1.417,4.35,1.058,3.798
			c8.304-1.852,16.609-3.703,24.913-5.555C1114.821,1234.222,1113.761,1230.424,1111.286,1230.976z"/>
		<path fill="#E88B24" d="M1101.767,1207.571l-22.631,12.803c-2.212,1.251-0.224,4.656,1.987,3.405
			c7.544-4.268,15.087-8.535,22.631-12.803C1105.966,1209.724,1103.978,1206.32,1101.767,1207.571z"/>
		<path fill="#E88B24" d="M1080.012,1181.23c-4.596,5.725-9.193,11.45-13.789,17.176c-1.575,1.961,1.199,4.767,2.786,2.791
			c4.596-5.725,9.193-11.45,13.789-17.176C1084.373,1182.059,1081.599,1179.253,1080.012,1181.23z"/>
		<path fill="#E88B24" d="M893.051,1248.761c-6.576-0.262-13.152-0.525-19.727-0.788c-2.529-0.101-2.792,3.834-0.247,3.936
			c6.576,0.263,13.152,0.526,19.728,0.788C895.332,1252.798,895.596,1248.863,893.051,1248.761z"/>
		<path fill="#E88B24" d="M890.201,1274.228c-7.259-0.155-14.518-0.31-21.777-0.465c-2.527-0.054-2.794,3.881-0.247,3.936
			c7.259,0.155,14.518,0.31,21.777,0.465C892.48,1278.217,892.747,1274.282,890.201,1274.228z"/>
		<path fill="#E88B24" d="M893.253,1292.117c-6.883,0.951-13.767,1.902-20.65,2.854c-2.514,0.347-1.738,4.213,0.772,3.867
			c6.884-0.951,13.767-1.902,20.65-2.854C896.54,1295.636,895.763,1291.77,893.253,1292.117z"/>
		<path fill="#E88B24" d="M899.704,1310.972c-6.861,2.187-13.721,4.375-20.581,6.562c-2.39,0.762-1.649,4.639,0.772,3.867
			c6.861-2.187,13.721-4.374,20.581-6.562C902.866,1314.076,902.125,1310.2,899.704,1310.972z"/>
		<path fill="#E88B24" d="M908.692,1329.539c-5.408,3.825-10.816,7.651-16.224,11.476c-2.075,1.467,0.515,4.444,2.571,2.99
			c5.408-3.826,10.816-7.651,16.224-11.477C913.336,1331.061,910.747,1328.085,908.692,1329.539z"/>
		<path fill="#E88B24" d="M927.065,1347.165c-4.793,5.135-9.586,10.27-14.378,15.405c-1.716,1.839,0.841,4.843,2.57,2.99
			c4.793-5.135,9.586-10.27,14.378-15.405C931.352,1348.317,928.795,1345.312,927.065,1347.165z"/>
	</g>
	<g>
		<g>
			<g>
				<g>
					<path fill="#282828" d="M963.973,387.149c0,0-37.191-48.119,13.352-108.54c50.543-60.42,79.533,13.887,105.206,15.135
						c25.673,1.248,66.766-18,93.738,22.773c26.972,40.773,25.956,75.79,52.856,76.634c26.9,0.844,125.16,44.73,124.13,133.834
						c-1.03,89.105-83.862,104.283-83.862,104.283s-317.574,91.067-359.38,12.843c-41.806-78.225-19.5-121.818,14.42-159.819
						C945.279,460.938,992.098,434.434,963.973,387.149z"/>
				</g>
			</g>
		</g>
		<g>
			<g>
				<g>
					<g>
						<g>
							<path fill="#FE9F73" d="M1003.514,405.251c0,0,0.497,120.679,24.332,143.798c0,0,11.836,12.436,35.104,9.303l11.31,73.829
								l104.185-15.961l-37.107-242.219L1003.514,405.251z"/>
						</g>
					</g>
				</g>
			</g>
			<g>
				<g>
					<g>
						<g>
							<path fill="#F07162" d="M1067.5,588.049l-4.55-29.697c0,0,49.751-10.644,77.576-34.769
								C1140.526,523.583,1104.882,570.177,1067.5,588.049z"/>
						</g>
					</g>
				</g>
			</g>
			<g>
				<g>
					<g>
						<g>
							<circle fill="#FE9F73" cx="1163.349" cy="458.342" r="29.992"/>
						</g>
					</g>
				</g>
			</g>
		</g>
		<g>
			<g>
				<g>
					<path fill="#FE9F73" d="M1003.514,405.251c0,0,2.026-47.01,62.31-61.388c60.283-14.378,75.515,30.137,75.515,30.137
						l-67.506,24.806l-65.872,5.436L1003.514,405.251z"/>
				</g>
			</g>
		</g>
		<g>
			<g>
				<g>
					<path fill="#282828" d="M997.592,366.598c0,0,43.664,31.36,91.651,15.384c0,0,25.659,57.67,60.89,49.43s3.05-88.65,3.05-88.65
						s-70.816-16.938-75.035-16.292c-4.219,0.646-75.579,7.26-75.579,7.26L997.592,366.598z"/>
				</g>
			</g>
		</g>
	</g>
	<g>
		<path fill="#FE9F73" d="M1070.408,596.618c0,0-171.284,41.095-233.659,90.393c-114.487,90.485-353.642,442.22-235.364,550.889
			c117.682,108.121,288.562,77.422,535.539,0l-71.633-97.216L760,1128.746l348.854-540.431L1070.408,596.618z"/>
	</g>
	<g>
		<path fill="#FE9F73" d="M1148.62,588.315c0,0,169.668-10.976,238.472,28.861c68.804,39.837,357.191,452.308,189.114,746.934
			c-56.348,98.772-519.22,67.088-645.652-80.16l143.875-117.862l248.399,18.941L1148.62,588.315z"/>
	</g>
	<g>
		<path fill="#FE9F73" d="M1003.556,619.145l69.411-20.395l76.522-1.597c0,0,307.224,317.122,308.929,322.238
			c1.706,5.117,98.921,271.18-17.055,269.475c-115.977-1.706-466.158-272.126-482.788-264.369
			c-63.339,124-186.493,229.995-186.493,229.995l-81.507-129.995l138-180.756L1003.556,619.145z"/>
	</g>
	<g>
		<path fill="#FE9F73" d="M1383.824,883.586c0,0,10.927,112.906,1.75,176.306c-6.588,45.52-22.214,94.104-44.454,125.232
			c-53.216,74.483,145.421,43.004,148.832,41.202c3.411-1.802-26.077-342.068-27.877-349.627
			C1460.276,869.143,1383.824,883.586,1383.824,883.586z"/>
	</g>
	<g>
		<path d="M775.826,1110.913c-0.565,0-1.126-0.238-1.522-0.702c-0.109-0.128-11.134-12.964-25.111-22.565
			c-0.911-0.625-1.142-1.87-0.516-2.781c0.625-0.91,1.871-1.141,2.781-0.516c14.427,9.91,25.428,22.726,25.889,23.267
			c0.717,0.84,0.617,2.103-0.223,2.819C776.746,1110.756,776.285,1110.913,775.826,1110.913z"/>
	</g>
	<path fill="#0D4B39" d="M1153.805,851.956c-127.986-119.994-143.741-237.793-143.741-237.793
		c-25.156-1.332-79.511,23.903-79.511,23.903c-18.979,165.431-97.654,303.885-92.225,563.997
		c143,48.103,540.712-9.451,540.712-9.451C1524.242,912.497,1153.805,851.956,1153.805,851.956z"/>
	<g>
		<path fill="#0D4B39" d="M1253.794,586.489c68.222,0,73.149,11.467,73.149,11.467c84.897,326.935,64.431,469.495,64.431,469.495
			l-239.912-48.294l-214.986,46.02c0,0-52.215-4.548,89.914-103.114c142.128-98.566,222.004-356.244,222.004-356.244
			L1253.794,586.489z"/>
	</g>
	<g>
		<path d="M1341.119,1187.043c-0.38,0-0.766-0.112-1.102-0.349c-0.866-0.609-1.075-1.806-0.467-2.674
			c35.585-50.655,51.602-129.569,47.607-234.547c-2.848-74.844-15.432-139.387-19.223-157.385c-0.125-0.596-0.199-0.952-0.217-1.058
			l-42.647-192.659c-0.229-1.035,0.425-2.059,1.46-2.289c1.025-0.234,2.057,0.424,2.288,1.459l42.662,192.74
			c0.034,0.181,0.101,0.497,0.21,1.016c3.806,18.074,16.442,82.884,19.303,158.03c4.027,105.836-12.224,185.541-48.302,236.9
			C1342.318,1186.758,1341.722,1187.043,1341.119,1187.043z"/>
	</g>
	<g>
		<path d="M1146.435,828.889c-0.373,0-0.75-0.109-1.081-0.335c-0.875-0.598-1.098-1.792-0.5-2.666
			c31.616-46.224,89.339-185.239,89.918-186.638c0.405-0.979,1.535-1.44,2.507-1.038c0.978,0.406,1.443,1.528,1.038,2.507
			c-0.581,1.403-58.456,140.786-90.296,187.335C1147.649,828.596,1147.048,828.889,1146.435,828.889z"/>
	</g>
	<g>
		<g>
			<path d="M1026.959,1077.67c-0.791,0.063-1.404,0.732-1.387,1.535c0.018,0.831,0.707,1.491,1.539,1.473l27.409-0.597
				c0.822-0.05,1.492-0.708,1.474-1.539c-0.018-0.831-0.707-1.491-1.54-1.473l-27.408,0.596
				C1027.017,1077.667,1026.988,1077.668,1026.959,1077.67z"/>
		</g>
		<g>
			<path d="M1030.57,1069.486c-0.791,0.062-1.404,0.732-1.387,1.535c0.018,0.832,0.708,1.491,1.539,1.473l27.408-0.598
				c0.814-0.051,1.492-0.706,1.474-1.539c-0.018-0.832-0.708-1.491-1.539-1.473l-27.408,0.598
				C1030.628,1069.483,1030.599,1069.484,1030.57,1069.486z"/>
		</g>
	</g>
	<g>
		<g>
			<g>
				<g>
					<path d="M2060.174,1530.029H90.931c-2.621,0-4.746-3.41-4.746-7.615s2.124-7.615,4.746-7.615h1969.243
						c2.621,0,4.746,3.41,4.746,7.615S2062.795,1530.029,2060.174,1530.029z"/>
				</g>
			</g>
		</g>
	</g>
	<g>
		<path fill="#E88B24" d="M1193.418,1235.222c-9.359-3.617-18.389-8.23-27.02-13.783c8.686,5.483,17.786,10.151,27.146,13.768
			L1193.418,1235.222z"/>
		<path fill="#E88B24" d="M1152.899,1211.931l0.056-0.07l0.07,0.056c2.181,1.72,4.347,3.315,6.513,4.909
			C1157.316,1215.301,1155.08,1213.651,1152.899,1211.931z"/>
		<g>
			<circle fill="#FDC364" cx="1260.468" cy="1091.633" r="143.129"/>
			<path fill="#F9A51B" d="M1360.216,965.195c69.719,55.001,81.693,156.468,26.692,226.187
				c-55.001,69.719-156.468,81.693-226.188,26.692c-69.719-55.001-81.693-156.468-26.692-226.187S1290.497,910.194,1360.216,965.195
				z M1182.921,1189.934c54.199,42.758,133.09,33.448,175.847-20.752s33.448-133.09-20.752-175.847
				c-54.199-42.758-133.09-33.448-175.847,20.752S1128.722,1147.177,1182.921,1189.934z"/>
		</g>
		<g>
			<g>
				<g>
					<path fill="#F9A51B" d="M1243.059,1037.565c13.323-16.889,34.622-22.374,55.431-15.057l15.66-19.851l29.618,23.366
						l-14.219,18.023c7.351,8.048,12.968,17.387,15.395,25.844l2.516,8.733l-33.79,21.19l-4.764-14.697
						c-2.572-7.755-8.066-15.565-14.746-20.835c-4.978-3.927-12.331-6.66-16.506-1.367c-1.69,2.143-4.823,6.113,4.312,22.009
						c11.543,19.841,21.09,43.118,3.839,64.984c-12.727,16.133-33.137,21.399-53.104,14.44l-15.262,19.346l-29.43-23.217
						l13.771-17.456c-5.47-6.155-9.627-12.809-12.484-20.072l-3.687-9.452l33.883-20.401l5.317,13.089
						c1.44,3.488,4.361,10.802,13.183,17.761c3.151,2.486,9.118,6.068,12.647,1.594c1.641-2.08,3.43-4.348-6.849-22.681
						C1234.465,1086.3,1224.168,1061.511,1243.059,1037.565z"/>
				</g>
			</g>
		</g>
		<path fill="#F9A51B" d="M1369.615,1097.044c-3.22,30.799-19.798,57.95-45.595,75.02c-2.7,1.786-0.169,6.146,2.54,4.353
			c27.458-18.169,44.674-46.731,48.095-79.45C1374.991,1093.75,1369.949,1093.848,1369.615,1097.044z"/>
		<path fill="#F9A51B" d="M1243.806,1202.597c21.249,0.978,42.073-2.705,61.685-10.954c2.953-1.242,1.634-6.111-1.352-4.854
			c-19.239,8.092-39.553,11.729-60.409,10.769C1240.489,1197.408,1240.571,1202.448,1243.806,1202.597z"/>
		<path fill="#F9A51B" d="M1144.681,1091.696c-0.219,3.234,4.821,3.146,5.04-0.077c2.501-36.937,21.815-70.372,52.528-91.032
			c2.684-1.805,0.155-6.166-2.54-4.354C1167.384,1017.978,1147.313,1052.835,1144.681,1091.696z"/>
		<path fill="#F9A51B" d="M1219.518,992.893c17.039-8.739,35.555-12.741,54.68-11.965c3.241,0.132,3.161-4.908-0.077-5.039
			c-19.977-0.811-39.361,3.531-57.143,12.651C1214.084,990.024,1216.642,994.368,1219.518,992.893z"/>
		<path fill="#F9A51B" d="M1197.825,1023.586c7.992-9.653,17.798-17.049,29.279-22.076c2.972-1.301,0.474-5.681-2.474-4.39
			c-11.833,5.181-22.074,12.896-30.313,22.847C1192.267,1022.444,1195.758,1026.083,1197.825,1023.586z"/>
		<path fill="#E88B24" d="M1343.766,991.146c6.039-8.223,12.078-16.445,18.117-24.668c1.916-2.608-2.49-5.062-4.389-2.477
			c-6.039,8.223-12.078,16.445-18.117,24.668C1337.461,991.278,1341.867,993.732,1343.766,991.146z"/>
		<path fill="#E88B24" d="M1308.262,971.198c-1.424,2.899,2.956,5.394,4.389,2.477c4.533-9.229,9.066-18.458,13.599-27.688
			c1.424-2.898-2.956-5.394-4.389-2.476C1317.328,952.74,1312.795,961.969,1308.262,971.198z"/>
		<path fill="#E88B24" d="M1281.09,935.1c-2.208,10.237-4.417,20.474-6.626,30.711c-0.682,3.16,4.204,4.404,4.89,1.221
			c2.209-10.237,4.418-20.474,6.627-30.711C1286.663,933.161,1281.777,931.917,1281.09,935.1z"/>
		<path fill="#E88B24" d="M1238.912,935.704c-0.403,10.869-0.806,21.737-1.209,32.606c-0.12,3.242,4.92,3.162,5.039-0.077
			c0.403-10.868,0.806-21.737,1.209-32.606C1244.072,932.385,1239.033,932.465,1238.912,935.704z"/>
		<path fill="#E88B24" d="M1204.267,943.236l8.493,32.133c0.83,3.141,5.684,1.786,4.854-1.352
			c-2.831-10.711-5.662-21.422-8.493-32.133C1208.291,938.742,1203.437,940.097,1204.267,943.236z"/>
		<path fill="#E88B24" d="M1176.257,959.504c5.589,7.54,11.177,15.079,16.766,22.619c1.915,2.583,6.283,0.063,4.354-2.54
			c-5.589-7.539-11.177-15.079-16.766-22.618C1178.696,954.382,1174.327,956.901,1176.257,959.504z"/>
		<path fill="#E88B24" d="M1140.501,988.265c9.621,5.989,19.242,11.979,28.863,17.968c2.755,1.715,5.226-2.677,2.476-4.389
			c-9.621-5.99-19.242-11.979-28.863-17.969C1140.222,982.16,1137.751,986.553,1140.501,988.265z"/>
		<path fill="#E88B24" d="M1119.633,1018.213c9.864,3.574,19.729,7.148,29.594,10.722c3.042,1.102,4.25-3.793,1.221-4.891
			c-9.865-3.574-19.729-7.148-29.594-10.722C1117.812,1012.22,1116.604,1017.115,1119.633,1018.213z"/>
		<path fill="#F9A51B" d="M1321.421,1151.388c-8.082,9.578-17.956,16.883-29.484,21.802c-2.984,1.274-0.527,5.676,2.433,4.413
			c11.881-5.07,22.193-12.689,30.525-22.563C1326.968,1152.583,1323.51,1148.911,1321.421,1151.388z"/>
		<path fill="#E88B24" d="M1170.164,1183.345c-6.605,7.775-13.211,15.55-19.816,23.325c-2.095,2.466,2.126,5.225,4.203,2.781
			c6.605-7.775,13.211-15.55,19.816-23.326C1176.462,1183.659,1172.24,1180.9,1170.164,1183.345z"/>
		<path fill="#E88B24" d="M1204.169,1205.753c1.625-2.791-2.567-5.59-4.203-2.781c-5.174,8.886-10.348,17.771-15.522,26.657
			c-1.625,2.791,2.567,5.59,4.203,2.78C1193.82,1223.525,1198.994,1214.639,1204.169,1205.753z"/>
		<path fill="#E88B24" d="M1229.474,1249.65c2.927-10.055,5.854-20.11,8.781-30.166c0.904-3.104-3.882-4.69-4.792-1.564
			c-2.927,10.055-5.854,20.11-8.781,30.166C1223.778,1251.189,1228.563,1252.776,1229.474,1249.65z"/>
		<path fill="#E88B24" d="M1265.621,1252.783c1.17-10.813,2.341-21.626,3.511-32.439c0.349-3.225-4.684-3.502-5.032-0.28
			c-1.17,10.813-2.341,21.626-3.511,32.439C1260.239,1255.728,1265.272,1256.005,1265.621,1252.783z"/>
		<path fill="#E88B24" d="M1300.713,1247.719l-6.2-32.653c-0.606-3.192-5.543-2.184-4.938,1.006
			c2.067,10.884,4.133,21.769,6.2,32.653C1296.38,1251.917,1301.318,1250.909,1300.713,1247.719z"/>
		<path fill="#E88B24" d="M1338.377,1229.358c-5.042-7.916-10.083-15.832-15.125-23.747c-1.727-2.712-6.263-0.508-4.522,2.226
			c5.042,7.916,10.083,15.831,15.125,23.747C1335.582,1234.295,1340.118,1232.091,1338.377,1229.358z"/>
		<path fill="#E88B24" d="M1376.076,1203.197c-9.174-6.655-18.347-13.309-27.521-19.964c-2.627-1.906-5.402,2.301-2.781,4.203
			c9.173,6.655,18.347,13.309,27.521,19.964C1375.923,1209.306,1378.698,1205.099,1376.076,1203.197z"/>
		<path fill="#E88B24" d="M1401.617,1171.439c-9.587-4.263-19.174-8.525-28.762-12.788c-2.957-1.315-4.508,3.483-1.564,4.792
			c9.587,4.262,19.174,8.525,28.762,12.788C1403.009,1177.545,1404.561,1172.748,1401.617,1171.439z"/>
		<path fill="#E88B24" d="M1138.907,1048.733c-9.986-2.088-19.973-4.175-29.959-6.263c-3.168-0.662-3.575,4.364-0.435,5.021
			c9.986,2.088,19.973,4.175,29.959,6.263C1141.64,1054.416,1142.047,1049.39,1138.907,1048.733z"/>
		<path fill="#E88B24" d="M1104.222,1077.251c10.373,1.441,20.746,2.881,31.119,4.322c3.202,0.445,4.079-4.52,0.854-4.968
			c-10.373-1.441-20.746-2.882-31.119-4.323C1101.874,1071.838,1100.997,1076.803,1104.222,1077.251z"/>
		<path fill="#E88B24" d="M1102.818,1111.108c10.869-0.407,21.737-0.814,32.606-1.221c3.242-0.121,2.787-5.141-0.452-5.02
			c-10.868,0.407-21.737,0.814-32.605,1.221C1099.124,1106.21,1099.579,1111.23,1102.818,1111.108z"/>
		<path fill="#E88B24" d="M1109.371,1142.735l31.412-10.861c3.07-1.062,1.358-5.801-1.71-4.74
			c-10.471,3.62-20.941,7.24-31.412,10.86C1104.59,1139.056,1106.302,1143.795,1109.371,1142.735z"/>
		<path fill="#E88B24" d="M1130.627,1180.881c7.103-6.135,14.206-12.269,21.308-18.403c2.433-2.101-0.404-6.271-2.857-4.153
			c-7.103,6.134-14.205,12.269-21.308,18.403C1125.337,1178.83,1128.175,1182.999,1130.627,1180.881z"/>
		<path fill="#E88B24" d="M1381.289,1139.229c8.206,1.851,16.412,3.702,24.618,5.554c3.155,0.712,4.397-4.174,1.221-4.89
			c-8.206-1.851-16.412-3.703-24.618-5.554C1379.355,1133.627,1378.113,1138.513,1381.289,1139.229z"/>
		<path fill="#E88B24" d="M1390.763,1107.873c9.09,1.874,18.18,3.748,27.269,5.621c3.164,0.652,4.41-4.233,1.221-4.89
			c-9.09-1.874-18.179-3.748-27.269-5.622C1388.82,1102.33,1387.574,1107.215,1390.763,1107.873z"/>
		<path fill="#E88B24" d="M1391.063,1084.677c8.874,0.396,17.747,0.793,26.621,1.189c3.241,0.145,3.159-4.895-0.077-5.04
			c-8.874-0.396-17.747-0.793-26.621-1.189C1387.746,1079.493,1387.827,1084.532,1391.063,1084.677z"/>
		<path fill="#E88B24" d="M1387.314,1059.481c9.131-1.163,18.261-2.326,27.392-3.489c3.181-0.405,3.146-5.45-0.077-5.04
			c-9.131,1.163-18.261,2.326-27.392,3.489C1384.057,1054.847,1384.092,1059.892,1387.314,1059.481z"/>
		<path fill="#E88B24" d="M1380.311,1034.061c7.684-3.558,15.367-7.117,23.051-10.675c2.948-1.365,0.38-5.706-2.54-4.354
			c-7.684,3.558-15.367,7.117-23.051,10.675C1374.824,1031.072,1377.391,1035.413,1380.311,1034.061z"/>
		<path fill="#E88B24" d="M1361.289,1007.651c7.213-5.347,14.426-10.694,21.639-16.04c2.583-1.915,0.063-6.283-2.54-4.354
			c-7.213,5.347-14.426,10.694-21.639,16.041C1356.167,1005.212,1358.686,1009.581,1361.289,1007.651z"/>
	</g>
	<g>
		<path fill="#E88B24" d="M984.236,902.117c5.389-9.356,11.782-18.197,19.109-26.459c-7.262,8.333-13.726,17.24-19.114,26.596
			L984.236,902.117z"/>
		<path fill="#E88B24" d="M1015.681,862.87l0.066,0.071l-0.071,0.066c-2.189,2.035-4.241,4.076-6.294,6.116
			C1011.369,867.011,1013.492,864.905,1015.681,862.87z"/>
		<g>
			<circle fill="#FDC364" cx="1125.87" cy="997.081" r="154.014"/>
			<path fill="#F9A51B" d="M1243.877,1123.987c-69.976,65.071-179.845,61.08-244.916-8.896
				c-65.071-69.976-61.08-179.845,8.896-244.916s179.845-61.08,244.916,8.896S1313.854,1058.916,1243.877,1123.987z
				 M1034.123,898.419c-54.399,50.586-57.502,136.008-6.917,190.407c50.586,54.399,136.008,57.502,190.407,6.917
				c54.399-50.586,57.502-136.008,6.917-190.407S1088.522,847.833,1034.123,898.419z"/>
		</g>
		<g>
			<g>
				<g>
					<path fill="#F9A51B" d="M1186.233,987.48c15.763,16.951,18.085,40.503,6.875,61.424l18.527,19.924l-29.728,27.644
						l-16.822-18.09c-9.769,6.49-20.625,10.923-30.019,12.11l-9.701,1.236l-16.963-39.423l16.414-2.643
						c8.67-1.457,17.88-6.012,24.585-12.246c4.997-4.646,9.114-12.014,4.174-17.327c-2-2.151-5.705-6.135-24.114,0.957
						c-23,9.004-49.325,15.32-69.734-6.628c-15.057-16.192-17.293-38.763-6.602-58.848l-18.057-19.418l29.538-27.467l16.292,17.52
						c7.447-4.802,15.207-8.126,23.402-9.967l10.659-2.363l16.109,39.392l-14.794,3.496c-3.946,0.957-12.204,2.857-21.059,11.091
						c-3.163,2.941-7.955,8.695-3.779,13.186c1.941,2.087,4.058,4.364,25.247-3.544
						C1135.827,970.31,1163.883,963.445,1186.233,987.48z"/>
				</g>
			</g>
		</g>
		<path fill="#F9A51B" d="M1102.127,1112.25c-32.219-8.5-58.358-30.603-72.258-60.848c-1.454-3.165-6.507-1.192-5.048,1.983
			c14.794,32.192,42.329,55.206,76.556,64.236C1104.743,1118.51,1105.47,1113.132,1102.127,1112.25z"/>
		<path fill="#F9A51B" d="M1010.623,961.074c-4.542,22.434-4.058,45.184,1.482,67.398c0.834,3.345,6.229,2.745,5.385-0.638
			c-5.434-21.791-5.953-43.991-1.495-66.011C1016.687,958.402,1011.314,957.659,1010.623,961.074z"/>
		<path fill="#F9A51B" d="M1144.887,873.948c-3.403-0.766-4.14,4.608-0.749,5.372c38.865,8.747,71.235,34.796,88.142,70.86
			c1.478,3.151,6.531,1.18,5.048-1.983C1219.533,910.239,1185.776,883.151,1144.887,873.948z"/>
		<path fill="#F9A51B" d="M1237.614,969.811c6.485,19.558,7.688,39.907,3.711,60.116c-0.674,3.425,4.698,4.17,5.371,0.749
			c4.155-21.108,2.733-42.436-4.034-62.848C1241.561,964.506,1236.52,966.509,1237.614,969.811z"/>
		<path fill="#F9A51B" d="M1208.552,941.684c8.947,10.089,15.196,21.735,18.649,34.772c0.894,3.375,5.963,1.44,5.076-1.907
			c-3.558-13.437-10.075-25.597-19.298-35.998C1210.683,935.962,1206.238,939.075,1208.552,941.684z"/>
		<path fill="#E88B24" d="M1218.993,1102.217c7.748,7.777,15.497,15.554,23.245,23.331c2.458,2.467,5.793-1.813,3.357-4.259
			c-7.748-7.777-15.497-15.554-23.245-23.331C1219.892,1095.491,1216.557,1099.772,1218.993,1102.217z"/>
		<path fill="#E88B24" d="M1246.057,1067.752c-2.847-1.992-6.223,2.254-3.357,4.259c9.067,6.341,18.133,12.682,27.2,19.024
			c2.847,1.992,6.223-2.254,3.356-4.259C1264.19,1080.434,1255.124,1074.093,1246.057,1067.752z"/>
		<path fill="#E88B24" d="M1288.92,1044.808c-10.521-4.036-21.043-8.072-31.564-12.108c-3.248-1.246-5.376,3.744-2.105,4.999
			c10.521,4.036,21.043,8.072,31.564,12.108C1290.063,1051.053,1292.191,1046.063,1288.92,1044.808z"/>
		<path fill="#E88B24" d="M1295.23,999.859c-11.491-2.22-22.982-4.44-34.473-6.66c-3.427-0.662-4.173,4.71-0.749,5.371
			c11.491,2.22,22.982,4.44,34.472,6.66C1297.908,1005.893,1298.655,1000.521,1295.23,999.859z"/>
		<path fill="#E88B24" d="M1292.931,961.777l-35.568,3.735c-3.477,0.365-2.836,5.75,0.638,5.385
			c11.856-1.245,23.712-2.49,35.569-3.734C1297.046,966.797,1296.406,961.413,1292.931,961.777z"/>
		<path fill="#E88B24" d="M1280.249,929.312c-8.938,4.7-17.877,9.4-26.815,14.1c-3.062,1.61-1.103,6.671,1.983,5.048
			c8.938-4.7,17.876-9.4,26.815-14.101C1285.294,932.749,1283.335,927.689,1280.249,929.312z"/>
		<path fill="#E88B24" d="M1255.56,886.551c-7.955,9.244-15.909,18.487-23.864,27.73c-2.278,2.647,1.985,5.999,4.259,3.357
			c7.955-9.243,15.909-18.487,23.864-27.73C1262.097,887.26,1257.833,883.909,1255.56,886.551z"/>
		<path fill="#E88B24" d="M1227.153,859.424c-5.427,9.9-10.853,19.801-16.279,29.701c-1.674,3.053,3.333,5.145,4.999,2.104
			c5.426-9.9,10.853-19.801,16.279-29.701C1233.826,858.476,1228.82,856.384,1227.153,859.424z"/>
		<path fill="#F9A51B" d="M1052.283,1052.046c-8.852-10.172-14.993-21.876-18.323-34.945c-0.862-3.383-5.949-1.496-5.094,1.86
			c3.433,13.47,9.835,25.69,18.961,36.177C1050.099,1057.747,1054.572,1054.676,1052.283,1052.046z"/>
		<path fill="#E88B24" d="M1043.232,885.939c-7.179-8.305-14.358-16.611-21.537-24.916c-2.277-2.634-5.907,1.399-3.65,4.011
			c7.179,8.305,14.358,16.611,21.537,24.916C1041.859,892.585,1045.489,888.551,1043.232,885.939z"/>
		<path fill="#E88B24" d="M1013.799,918.405c2.7,2.188,6.367-1.808,3.65-4.011c-8.596-6.966-17.191-13.933-25.787-20.899
			c-2.7-2.188-6.367,1.809-3.649,4.011C996.608,904.473,1005.204,911.439,1013.799,918.405z"/>
		<path fill="#E88B24" d="M962.952,938.078c10.21,4.769,20.42,9.539,30.629,14.309c3.152,1.472,5.627-3.355,2.453-4.838
			c-10.21-4.77-20.42-9.54-30.629-14.309C962.253,931.768,959.777,936.595,962.952,938.078z"/>
		<path fill="#E88B24" d="M953.662,975.999c11.305,3.027,22.61,6.053,33.915,9.08c3.372,0.903,4.496-4.403,1.127-5.305
			c-11.305-3.027-22.61-6.053-33.915-9.08C951.417,969.791,950.293,975.097,953.662,975.999z"/>
		<path fill="#E88B24" d="M953.263,1014.149l35.744-1.211c3.494-0.118,3.236-5.535-0.256-5.416
			c-11.915,0.404-23.829,0.807-35.744,1.21C949.514,1008.85,949.772,1014.267,953.263,1014.149z"/>
		<path fill="#E88B24" d="M966.58,1057.225c9.248-4.057,18.497-8.113,27.745-12.169c3.168-1.39,1.572-6.576-1.621-5.176
			c-9.248,4.056-18.496,8.113-27.745,12.17C961.79,1053.439,963.387,1058.626,966.58,1057.225z"/>
		<path fill="#E88B24" d="M988.184,1101.625c8.588-8.658,17.177-17.316,25.765-25.974c2.46-2.48-1.556-6.124-4.011-3.649
			c-8.588,8.658-17.177,17.316-25.765,25.974C981.714,1100.455,985.73,1104.099,988.184,1101.625z"/>
		<path fill="#E88B24" d="M1017.745,1134.017c6.113-9.492,12.226-18.984,18.338-28.476c1.885-2.927-2.961-5.368-4.838-2.453
			c-6.113,9.492-12.225,18.984-18.338,28.476C1011.022,1134.492,1015.868,1136.932,1017.745,1134.017z"/>
		<path fill="#E88B24" d="M1191.523,874.889c3.866-10.275,7.732-20.55,11.597-30.824c1.226-3.259-4.052-4.52-5.267-1.29
			c-3.866,10.275-7.731,20.55-11.597,30.825C1185.029,876.859,1190.307,878.12,1191.523,874.889z"/>
		<path fill="#E88B24" d="M1166.915,833.307c-3.241,10.793-6.483,21.585-9.725,32.378c-1.001,3.332,4.134,5.082,5.142,1.727
			c3.242-10.793,6.484-21.585,9.725-32.378C1173.058,831.702,1167.923,829.951,1166.915,833.307z"/>
		<path fill="#E88B24" d="M1131.145,826.233c-1.359,11.624-2.717,23.248-4.076,34.872c-0.405,3.467,5.008,3.811,5.412,0.347
			c1.359-11.624,2.717-23.248,4.076-34.872C1136.962,823.113,1131.549,822.769,1131.145,826.233z"/>
		<path fill="#E88B24" d="M1096.435,827.989l6.371,35.192c0.623,3.44,5.945,2.401,5.322-1.037
			c-2.124-11.731-4.248-23.461-6.371-35.192C1101.135,823.512,1095.813,824.551,1096.435,827.989z"/>
		<path fill="#E88B24" d="M1052.368,844.305c5.353,8.564,10.705,17.128,16.057,25.691c1.833,2.934,6.734,0.604,4.886-2.353
			c-5.352-8.564-10.705-17.127-16.057-25.691C1055.421,839.018,1050.52,841.348,1052.368,844.305z"/>
		<path fill="#E88B24" d="M1055.345,1117.711c-3.321,8.421-6.642,16.842-9.963,25.263c-1.277,3.238,3.714,5.363,4.999,2.105
			c3.321-8.421,6.642-16.842,9.964-25.263C1061.621,1116.577,1056.63,1114.452,1055.345,1117.711z"/>
		<path fill="#E88B24" d="M1087.126,1132.953c-3.491,9.357-6.981,18.714-10.472,28.07c-1.215,3.257,3.774,5.388,4.999,2.105
			c3.491-9.357,6.982-18.713,10.472-28.07C1093.34,1131.801,1088.351,1129.67,1087.126,1132.953z"/>
		<path fill="#E88B24" d="M1111.742,1137.095c-1.884,9.37-3.768,18.741-5.652,28.111c-0.688,3.422,4.684,4.166,5.371,0.749
			c1.884-9.371,3.768-18.741,5.652-28.111C1117.802,1134.422,1112.429,1133.678,1111.742,1137.095z"/>
		<path fill="#E88B24" d="M1139.152,1137.261c-0.268,9.901-0.537,19.801-0.805,29.702c-0.094,3.449,5.277,4.243,5.371,0.749
			c0.268-9.901,0.537-19.801,0.805-29.702C1144.617,1134.562,1139.246,1133.767,1139.152,1137.261z"/>
		<path fill="#E88B24" d="M1167.337,1134.004c2.517,8.757,5.035,17.514,7.552,26.271c0.966,3.359,6.005,1.344,5.048-1.983
			c-2.517-8.757-5.035-17.514-7.552-26.271C1171.42,1128.662,1166.381,1130.677,1167.337,1134.004z"/>
		<path fill="#E88B24" d="M1198.555,1118.13c4.497,8.552,8.993,17.102,13.49,25.654c1.61,3.062,6.671,1.103,5.048-1.983
			c-4.497-8.551-8.993-17.102-13.49-25.654C1201.993,1113.085,1196.932,1115.044,1198.555,1118.13z"/>
	</g>
	<g>
		<path fill="#E88B24" d="M889.926,917.186c8.598-1.925,17.442-2.963,26.454-3.119c-9.018,0.235-17.94,1.266-26.538,3.191
			L889.926,917.186z"/>
		<path fill="#E88B24" d="M930.875,914.423l-0.006,0.079l-0.079-0.006c-2.432-0.192-4.791-0.3-7.151-0.407
			C926.006,914.117,928.444,914.231,930.875,914.423z"/>
		<g>
			<circle fill="#FDC364" cx="911.025" cy="1054.745" r="125.693"/>
			<path fill="#F9A51B" d="M899.88,1195.733c-77.742-6.144-135.992-74.391-129.847-152.133s74.391-135.991,152.133-129.847
				s135.991,74.391,129.847,152.133C1045.869,1143.628,977.623,1201.878,899.88,1195.733z M919.686,945.132
				c-60.436-4.776-113.498,40.512-118.274,100.948s40.512,113.498,100.948,118.274s113.498-40.512,118.274-100.948
				C1025.411,1002.97,980.123,949.908,919.686,945.132z"/>
		</g>
		<g>
			<g>
				<g>
					<path fill="#F9A51B" d="M950.116,1085.73c-1.488,18.832-14.364,33.229-33.128,38.039l-1.749,22.135l-33.027-2.61l1.588-20.097
						c-9.294-2.29-17.951-6.368-23.85-11.36l-6.098-5.149l14.334-31.959l10.649,8.407c5.662,4.407,13.484,7.43,20.932,8.018
						c5.551,0.439,12.253-1.153,12.719-7.056c0.189-2.389,0.539-6.816-13.886-13.966c-18.108-8.855-36.437-21.193-34.51-45.577
						c1.422-17.989,13.755-31.792,31.73-36.453l1.705-21.573l32.816,2.594l-1.538,19.465c6.997,1.826,13.279,4.656,18.909,8.565
						l7.304,5.103l-14.787,31.428l-10.268-6.963c-2.753-1.844-8.454-5.759-18.292-6.537c-3.513-0.278-9.618,0.018-10.012,5.007
						c-0.183,2.319-0.383,4.849,16.067,13.22C932.613,1045.952,952.227,1059.028,950.116,1085.73z"/>
				</g>
			</g>
		</g>
		<path fill="#F9A51B" d="M828.688,1104.047c-12.676-24.06-13.818-51.973-3.31-77.024c1.1-2.621-2.875-4.57-3.978-1.94
			c-11.185,26.663-9.82,55.919,3.646,81.478C826.37,1109.074,830.004,1106.543,828.688,1104.047z"/>
		<path fill="#F9A51B" d="M869.051,965.592c-15.993,9.654-29.401,22.503-39.696,38.095c-1.55,2.348,1.788,5.259,3.356,2.885
			c10.099-15.295,23.158-27.862,38.855-37.337C874.005,967.762,871.486,964.122,869.051,965.592z"/>
		<path fill="#F9A51B" d="M995.539,998.206c-1.418-2.469-5.055,0.055-3.642,2.515c16.195,28.191,18.406,62.028,6.06,92.098
			c-1.079,2.628,2.896,4.578,3.979,1.94C1014.929,1063.11,1012.578,1027.865,995.539,998.206z"/>
		<path fill="#F9A51B" d="M989.1,1106.863c-8.177,14.694-19.745,26.651-34.088,35.415c-2.431,1.485,0.087,5.126,2.515,3.642
			c14.982-9.155,27.018-21.782,35.552-37.117C994.468,1106.306,990.481,1104.382,989.1,1106.863z"/>
		<path fill="#F9A51B" d="M989.965,1073.867c-1.126,10.947-4.677,21.133-10.608,30.405c-1.535,2.4,2.426,4.379,3.949,1.998
			c6.113-9.556,9.826-20.186,10.987-31.472C994.581,1071.989,990.256,1071.036,989.965,1073.867z"/>
		<path fill="#E88B24" d="M899.23,1168.758c-0.398,8.95-0.796,17.901-1.193,26.852c-0.126,2.839,4.288,2.481,4.413-0.333
			c0.398-8.95,0.795-17.901,1.193-26.852C903.77,1165.586,899.355,1165.944,899.23,1168.758z"/>
		<path fill="#E88B24" d="M934.887,1166.001c-0.375-2.811-4.79-2.497-4.413,0.333c1.193,8.951,2.386,17.901,3.579,26.852
			c0.375,2.811,4.79,2.496,4.413-0.333C937.273,1183.902,936.08,1174.952,934.887,1166.001z"/>
		<path fill="#E88B24" d="M972.34,1179.102c-3.382-8.552-6.764-17.105-10.146-25.657c-1.044-2.64-5.218-1.165-4.167,1.494
			c3.382,8.553,6.764,17.105,10.145,25.657C969.217,1183.237,973.391,1181.761,972.34,1179.102z"/>
		<path fill="#E88B24" d="M1002.842,1158.083c-5.009-8.133-10.017-16.265-15.026-24.398c-1.494-2.426-5.135,0.091-3.642,2.515
			c5.008,8.133,10.017,16.265,15.026,24.398C1000.694,1163.024,1004.335,1160.507,1002.842,1158.083z"/>
		<path fill="#E88B24" d="M1024.465,1135.68l-21.879-19.319c-2.138-1.888-5.022,1.469-2.885,3.356
			c7.293,6.44,14.586,12.88,21.879,19.319C1023.719,1140.924,1026.602,1137.567,1024.465,1135.68z"/>
		<path fill="#E88B24" d="M1036.979,1110.135c-7.759-2.778-15.519-5.557-23.278-8.335c-2.658-0.952-4.619,3.019-1.94,3.979
			c7.759,2.778,15.518,5.557,23.278,8.335C1037.698,1115.065,1039.658,1111.094,1036.979,1110.135z"/>
		<path fill="#E88B24" d="M1049.055,1071.689c-9.947,0.321-19.895,0.641-29.842,0.962c-2.849,0.092-2.51,4.505,0.333,4.413
			c9.947-0.321,19.895-0.642,29.842-0.962C1052.237,1076.011,1051.898,1071.598,1049.055,1071.689z"/>
		<path fill="#E88B24" d="M1049.681,1039.64c-8.947,2.203-17.893,4.406-26.84,6.61c-2.759,0.679-1.253,4.843,1.495,4.167
			c8.947-2.203,17.893-4.407,26.84-6.61C1053.934,1043.127,1052.428,1038.964,1049.681,1039.64z"/>
		<path fill="#F9A51B" d="M837.364,1040.852c1.228-10.936,4.874-21.088,10.891-30.304c1.558-2.386-2.385-4.402-3.93-2.035
			c-6.202,9.499-10.014,20.093-11.28,31.368C832.731,1042.686,837.046,1043.68,837.364,1040.852z"/>
		<path fill="#E88B24" d="M932.216,943.719c1.03-8.9,2.059-17.8,3.089-26.7c0.327-2.823-4.102-2.778-4.426,0.02
			c-1.03,8.9-2.059,17.8-3.088,26.7C927.464,946.562,931.893,946.517,932.216,943.719z"/>
		<path fill="#E88B24" d="M896.454,943.948c0.175,2.831,4.602,2.829,4.426-0.02c-0.557-9.013-1.115-18.025-1.672-27.038
			c-0.175-2.831-4.602-2.829-4.425,0.021C895.339,925.923,895.896,934.936,896.454,943.948z"/>
		<path fill="#E88B24" d="M856.56,924.242c2.769,8.77,5.538,17.54,8.306,26.31c0.855,2.707,5.123,1.531,4.262-1.196
			c-2.769-8.77-5.537-17.54-8.306-26.31C859.967,920.339,855.699,921.516,856.56,924.242z"/>
		<path fill="#E88B24" d="M828.637,939.591c4.421,8.467,8.842,16.933,13.263,25.399c1.319,2.525,5.129,0.272,3.811-2.251
			c-4.421-8.466-8.842-16.933-13.263-25.399C831.129,934.815,827.32,937.068,828.637,939.591z"/>
		<path fill="#E88B24" d="M805.485,960.41l20.458,20.818c2,2.035,5.113-1.11,3.115-3.144c-6.82-6.939-13.639-13.878-20.458-20.818
			C806.6,955.231,803.486,958.376,805.485,960.41z"/>
		<path fill="#E88B24" d="M786.942,992.193c7.544,3.32,15.087,6.64,22.63,9.96c2.584,1.137,4.821-2.685,2.216-3.832
			c-7.543-3.32-15.087-6.64-22.63-9.96C786.573,987.225,784.337,991.047,786.942,992.193z"/>
		<path fill="#E88B24" d="M772.178,1029.689c9.945,0.383,19.89,0.767,29.836,1.15c2.848,0.11,2.822-4.316-0.02-4.425
			c-9.945-0.383-19.89-0.767-29.836-1.15C769.31,1025.153,769.336,1029.579,772.178,1029.689z"/>
		<path fill="#E88B24" d="M769.024,1065.339c9.08-1.565,18.16-3.13,27.24-4.696c2.8-0.483,1.592-4.743-1.196-4.262
			c-9.08,1.565-18.16,3.131-27.24,4.696C765.028,1061.56,766.236,1065.82,769.024,1065.339z"/>
		<path fill="#E88B24" d="M1020.716,1026.759c8.31-3.348,16.621-6.696,24.931-10.044c2.636-1.062,0.481-4.931-2.132-3.878
			c-8.31,3.348-16.621,6.696-24.931,10.044C1015.948,1023.943,1018.103,1027.811,1020.716,1026.759z"/>
		<path fill="#E88B24" d="M1032.129,989.013c-8.277,4.009-16.554,8.018-24.831,12.027c-2.555,1.238-0.773,5.29,1.8,4.044
			c8.277-4.009,16.554-8.018,24.831-12.027C1036.484,991.82,1034.702,987.767,1032.129,989.013z"/>
		<path fill="#E88B24" d="M1016.635,963.606c-7.737,5.6-15.475,11.2-23.212,16.8c-2.308,1.67,0.473,5.114,2.779,3.445
			c7.737-5.6,15.475-11.2,23.212-16.8C1021.722,965.381,1018.941,961.937,1016.635,963.606z"/>
		<path fill="#E88B24" d="M996.419,943.711l-17.637,23.256c-1.724,2.273,1.839,4.899,3.561,2.627
			c5.879-7.752,11.758-15.504,17.638-23.256C1001.705,944.065,998.142,941.439,996.419,943.711z"/>
		<path fill="#E88B24" d="M962.287,926.228c-2.193,7.945-4.387,15.889-6.58,23.834c-0.751,2.722,3.355,4.381,4.112,1.638
			c2.193-7.945,4.386-15.889,6.58-23.834C967.15,925.145,963.044,923.485,962.287,926.228z"/>
		<path fill="#E88B24" d="M799.582,1078.94c-6.895,2.652-13.79,5.304-20.685,7.956c-2.651,1.02-1.174,5.193,1.494,4.167
			c6.895-2.652,13.79-5.304,20.686-7.956C803.728,1082.087,802.25,1077.913,799.582,1078.94z"/>
		<path fill="#E88B24" d="M807.963,1106.458c-7.552,3.067-15.103,6.133-22.654,9.2c-2.628,1.067-1.155,5.243,1.494,4.167
			c7.551-3.067,15.103-6.133,22.654-9.2C812.086,1109.557,810.612,1105.382,807.963,1106.458z"/>
		<path fill="#E88B24" d="M819.061,1123.541c-6.673,4.04-13.345,8.08-20.018,12.12c-2.437,1.476,0.082,5.116,2.515,3.642
			c6.673-4.04,13.345-8.08,20.018-12.12C824.013,1125.708,821.495,1122.068,819.061,1123.541z"/>
		<path fill="#E88B24" d="M834.092,1140.109c-6.1,5.304-12.199,10.608-18.299,15.912c-2.125,1.848,0.362,5.514,2.515,3.642
			c6.1-5.304,12.199-10.608,18.299-15.912C838.731,1141.904,836.244,1138.237,834.092,1140.109z"/>
		<path fill="#E88B24" d="M851.608,1155.254c-3.875,6.347-7.749,12.694-11.623,19.041c-1.486,2.435,2.506,4.352,3.979,1.94
			c3.874-6.347,7.748-12.694,11.623-19.041C857.073,1154.759,853.08,1152.842,851.608,1155.254z"/>
		<path fill="#E88B24" d="M878.383,1165.257c-2.658,7.423-5.316,14.847-7.974,22.27c-0.952,2.658,3.019,4.619,3.979,1.94
			c2.658-7.423,5.316-14.847,7.974-22.27C883.313,1164.538,879.342,1162.577,878.383,1165.257z"/>
	</g>
	<g>
		<g>
			<g>
				<g>
					<g>
						<g>
							<path fill="#FE9F73" d="M1204.406,1088.932c17.841-37.632-14.07-28.964-14.07-28.964c4.916-28.738,5.788-49.422-0.762-50.471
								c-4.794-0.768-9.642,1.004-13.107,4.406c-10.998,10.8-49.047,66.453-68.755,88.38c-18.016,6.274-29.804-0.991-28.472-19.452
								c0.686-9.512-0.257-30.187-13.668-9.091c-10.958,17.237-18.89,45.171-18.89,45.171l-101.458,32.502l72.209,128.032
								c0,0,110.556-49.346,127.264-56.666c6.985-3.06,14.309-11.195,27.197-22.634c0.847-0.751,13.658-9.074,14.507-9.843
								c17.141-15.514,27.645-27.886,33.528-40.106c19.254-39.991-0.68-33.044-0.68-33.044
								C1235.359,1073.738,1204.406,1088.932,1204.406,1088.932z"/>
						</g>
					</g>
				</g>
			</g>
		</g>
	</g>
	<g>
		<path fill="#FE9F73" d="M1046.684,1118.911c0,0-101.458-16.354-322.743-7.23c0,0,15.35,79.99,20.467,82.548
			c5.117,2.558,144.971,27.289,156.909,30.7s67.369,13.644,69.927,13.644c2.558,0,72.319-4.864,73.255-6.696
			C1045.434,1230.045,1046.684,1118.911,1046.684,1118.911z"/>
	</g>
	<g>
		<path fill="#FE9F73" d="M1052.541,1228.908c0,0,152.847-53.648,386.263-42.174c233.416,11.474-231.775,153.602-231.775,153.602
			L1052.541,1228.908z"/>
	</g>
	<g>
		<g>
			<g>
				<path fill="#ED7163" d="M1165.545,1096.192c-0.351-0.094-0.684-0.27-0.972-0.526c-0.983-0.88-1.066-2.387-0.187-3.365
					c11.008-12.284,24.007-34.727,24.557-35.678c0.662-1.138,2.136-1.514,3.255-0.871c1.139,0.657,1.533,2.117,0.871,3.255
					c-0.558,0.968-13.8,23.827-25.131,36.473C1167.319,1096.172,1166.382,1096.417,1165.545,1096.192z"/>
			</g>
		</g>
	</g>
	<g>
		<g>
			<g>
				<path fill="#ED7163" d="M1196.019,1149.627c-0.427-0.115-0.823-0.346-1.143-0.697c-0.887-0.97-0.82-2.475,0.155-3.365
					c13.599-12.423,22.208-29.253,22.292-29.424c0.589-1.172,2.06-1.664,3.201-1.05c1.175,0.594,1.644,2.026,1.05,3.202
					c-0.091,0.178-9.091,17.785-23.333,30.792C1197.621,1149.657,1196.774,1149.83,1196.019,1149.627z"/>
			</g>
		</g>
	</g>
	<g>
		<g>
			<g>
				<path fill="#ED7163" d="M1181.368,1121.202c-0.427-0.115-0.823-0.346-1.143-0.697c-0.887-0.97-0.82-2.475,0.155-3.365
					c13.599-12.423,22.208-29.253,22.292-29.424c0.589-1.172,2.06-1.664,3.201-1.05c1.175,0.594,1.644,2.026,1.05,3.201
					c-0.091,0.178-9.091,17.785-23.333,30.792C1182.969,1121.231,1182.123,1121.404,1181.368,1121.202z"/>
			</g>
		</g>
	</g>
	<g>
		<g>
			<path d="M1046.686,1120.83c-0.074,0-0.149-0.004-0.224-0.013c-0.253-0.03-26.08-3.015-95.685-8.741
				c-69.531-5.722-227.476,1.448-229.064,1.521c-1.05,0.058-1.956-0.77-2.005-1.829c-0.049-1.059,0.77-1.956,1.829-2.005
				c1.59-0.073,159.777-7.246,229.555-1.514c69.691,5.734,95.562,8.726,95.815,8.756c1.053,0.122,1.806,1.075,1.684,2.129
				C1048.475,1120.11,1047.646,1120.83,1046.686,1120.83z"/>
		</g>
		<g>
			<path d="M800.269,1310.205c-25.248,0-51.807-2.256-79.058-8.263c-82.9-18.275-132.515-63.324-143.532-97.447
				c-0.325-1.01,0.228-2.091,1.237-2.415c1.01-0.328,2.089,0.229,2.415,1.235c10.691,33.115,59.283,76.931,140.706,94.88
				c75.615,16.673,146.124,4.134,197.61-5.022c4.78-0.849,9.406-1.671,13.87-2.442c41.262-7.118,165.432-59.353,216.905-81.482
				c23.748-10.208,44.15-26.214,59.001-46.286c0.631-0.847,1.831-1.034,2.683-0.401c0.853,0.63,1.032,1.831,0.401,2.683
				c-15.254,20.617-36.199,37.052-60.571,47.53c-51.596,22.182-176.101,74.549-217.766,81.737c-4.457,0.768-9.077,1.591-13.85,2.44
				C887.005,1302.875,845.769,1310.205,800.269,1310.205z"/>
		</g>
		<g>
			<path d="M1171.892,1202.063c-0.961,0-1.791-0.721-1.904-1.698c-0.122-1.053,0.633-2.005,1.685-2.127
				c1.621-0.187,162.541-18.683,211.622-14.449c1.055,0.09,1.838,1.021,1.746,2.076c-0.092,1.053-1.008,1.857-2.076,1.746
				c-48.695-4.197-209.235,14.252-210.851,14.437C1172.04,1202.059,1171.965,1202.063,1171.892,1202.063z"/>
		</g>
		<g>
			<path d="M1358.301,741.542c-0.056,0-0.112-0.002-0.169-0.007c-1.057-0.093-1.836-1.023-1.745-2.079l4.649-53.076
				c0.094-1.055,1.036-1.841,2.078-1.743c1.057,0.093,1.836,1.023,1.745,2.079l-4.649,53.076
				C1360.123,740.789,1359.285,741.542,1358.301,741.542z"/>
		</g>
		<g>
			<path d="M1369.415,1422.132c-174.007,0-312.183-54.952-313.825-55.617c-0.982-0.397-1.456-1.516-1.059-2.498
				c0.397-0.982,1.516-1.454,2.498-1.059c1.951,0.787,197.554,78.546,416.211,48.403c0.74-0.122,78.902-13.219,97.921-43.093
				c19.35-30.392,34.82-76.504,34.974-76.967c0.335-1.004,1.413-1.542,2.428-1.214c1.004,0.335,1.548,1.422,1.212,2.428
				c-0.154,0.467-15.77,47.018-35.377,77.814c-19.939,31.318-97.302,44.288-100.587,44.826
				C1438.161,1420.071,1403.11,1422.132,1369.415,1422.132z"/>
		</g>
		<g>
			<path d="M1563.064,1347.941c-0.279,0-0.564-0.062-0.832-0.191c-0.954-0.461-1.355-1.608-0.894-2.561l15.918-32.974
				c0.459-0.952,1.608-1.351,2.561-0.894c0.954,0.461,1.355,1.608,0.894,2.561l-15.918,32.974
				C1564.464,1347.542,1563.778,1347.941,1563.064,1347.941z"/>
		</g>
		<g>
			<path d="M1543.734,1358.018c-0.296,0-0.598-0.069-0.879-0.214c-0.943-0.487-1.31-1.645-0.825-2.586l19.33-37.366
				c0.489-0.941,1.643-1.308,2.586-0.824c0.943,0.487,1.31,1.645,0.825,2.586l-19.33,37.366
				C1545.098,1357.639,1544.429,1358.018,1543.734,1358.018z"/>
		</g>
	</g>
	<path fill="#FE9F73" d="M1054.366,1127.289c-5.5-6.875-6.511-12.253-6.511-12.253c3.347-24.526,13.459-49.354,22.64-54.839
		c8.135-4.861,13.578-1.361,12.148,16.305c-1.429,17.667,0.181,42.912,9.848,61.245
		C1085.491,1144.414,1054.366,1127.289,1054.366,1127.289z"/>
</g>
</svg>
