<?xml version="1.0" encoding="utf-8"?>
<!-- Generator: Adobe Illustrator 17.0.0, SVG Export Plug-In . SVG Version: 6.00 Build 0)  -->
<!DOCTYPE svg PUBLIC "-//W3C//DTD SVG 1.1//EN" "http://www.w3.org/Graphics/SVG/1.1/DTD/svg11.dtd">
<svg version="1.1" xmlns="http://www.w3.org/2000/svg" xmlns:xlink="http://www.w3.org/1999/xlink" x="0px" y="0px"
	 width="70.659px" height="88.435px" viewBox="0 0 70.659 88.435" enable-background="new 0 0 70.659 88.435" xml:space="preserve">
<g id="Layer_2">
</g>
<g id="Layer_1">
	<g>
		<g>
			<g>
				<g>
					<ellipse fill="#969696" cx="35.357" cy="85.937" rx="19.297" ry="2.498"/>
				</g>
				<g>
					<g>
						<g>
							<g>
								<g>
									<path fill="#FDDCBE" d="M29.667,29.155c0.252-0.067,0.419,0.177,0.475,0.371c-0.071-0.178-0.152-0.504,0.15-0.617
										c0.348-0.13,0.58,0.284,0.651,0.436l0.004-0.001c-0.05-0.149-0.155-0.558,0.141-0.663c0.293-0.105,0.474,0.284,0.533,0.44
										c-0.056-0.172-0.169-0.632,0.192-0.744c0.27-0.084,0.422,0.542,0.422,0.542c2.23,12.913,5.923,26.375,5.923,26.375
										l-3.307-0.016c-3.657-11.659-4.966-24.301-5.263-25.426C29.589,29.85,29.425,29.233,29.667,29.155z"/>
								</g>
							</g>
						</g>
					</g>
				</g>
				<g>
					<path fill="#E6E6E6" d="M31.904,43.634c1.173-0.427,2.17-0.911,3.017-1.437c-0.6-2.645-1.219-5.521-1.795-8.459
						c-0.92-0.1-1.945-0.399-3.051-0.717C30.445,35.549,31.027,39.341,31.904,43.634z"/>
				</g>
				<g>
					<g>
						<g>
							<g>
								<g>
									<path fill="#002043" d="M50.519,75.594c-0.771-2.532-3.435,1.524-3.435,1.524s0.745-3.394-0.134-4.534
										c-0.842-1.092-2.922,0.396-3.472,0.771l-22.613,4.972l0.883,3.627l-2.603-0.306c0,0-1.899,4.013,0.12,4.273
										c2.019,0.26,0.676-2.69,0.676-2.69s1.926,1.067,3.317,0.661c1.085-0.317,0.222-3.451,0.074-4.419
										c14.859-0.908,21.786-4.933,21.991-5.088c0,0,0.371,3.655,0.765,5.478C46.087,79.862,51.29,78.126,50.519,75.594z"/>
								</g>
							</g>
							<g>
								<g>
									<g>
										<g>
											<g>
												<path fill="#FDDCBE" d="M40.869,58.049c0,0-2.204-27.34-21.69-14.635c0,0-5.765,6.083-3.381,19.802
													C37.1,63.562,40.869,58.049,40.869,58.049z"/>
											</g>
										</g>
										<g>
											<g>
												<path fill="#594A42" d="M37.052,29.878c0,0,9.341,15.301-15.988,16.625l-0.727,5.851c0,0-2.665-1.876-2.898,0.681
													c-0.233,2.557,2.642,1.186,2.642,1.186s-1.54,6.824-4.282,8.994c0,0-12.645-24.002,0.128-23.7
													c0,0-0.377-4.697,6.441-6.174C29.432,31.811,35.439,39.544,37.052,29.878z"/>
											</g>
										</g>
										<g>
											<path fill="#E6E7E8" d="M15.916,63.217c1.157-0.094,2.097-0.208,3.136-0.222c-0.381-1.665-2.569-11.763-4.09-23.449
												c-1.138,0.095-2.037,0.415-2.73,0.918C12.671,45.055,13.634,54.365,15.916,63.217z"/>
										</g>
									</g>
								</g>
								<g>
									<g>
										<path fill="#19568E" d="M40.869,58.049l2.61,15.306c0,0-9.04,3.842-22.613,4.972l-5.067-15.111
											C15.798,63.216,32.979,62.478,40.869,58.049z"/>
									</g>
								</g>
								<g>
									<g>
										<path fill="#E6E6E6" d="M35.805,61.159l0.709,0.877l-0.512,1.288c0,0,0.297,7.598-8.81,8.896l-2.528-2.208l2.266-2.214
											c7.535,0.668,7.654-4.08,7.654-4.08l-1.088-1.05l0.298-0.885L35.805,61.159z"/>
									</g>
								</g>
							</g>
							<g>
								<g>
									<path fill="#002043" d="M35.805,61.159l0.709,0.877l-0.512,1.288c0,0,0.297,6.911-8.81,8.209l-2.528-2.208l2.266-2.214
										c7.535,0.668,7.654-3.393,7.654-3.393l-1.088-1.05l0.298-0.885L35.805,61.159z"/>
								</g>
							</g>
						</g>
					</g>
					<g>
						<path fill="#969696" d="M13.85,83.08c0-0.824-0.668-1.492-1.492-1.492c-0.069,0-0.137,0.006-0.204,0.016
							c-0.277-0.268-0.653-0.433-1.068-0.433c-0.85,0-1.539,0.689-1.539,1.539c0,0.306,0.091,0.591,0.245,0.831
							c-0.151,0.197-0.245,0.44-0.245,0.708c0,0.645,0.523,1.168,1.168,1.168c0.18,0,0.348-0.044,0.5-0.117
							c0.205,0.153,0.457,0.246,0.732,0.246c0.676,0,1.224-0.545,1.231-1.22C13.583,84.059,13.85,83.601,13.85,83.08z"/>
					</g>
					<g>
						<path fill="#969696" d="M6.324,80.174c0-0.886-0.718-1.604-1.604-1.604c-0.035,0-0.069,0.003-0.103,0.005
							c-0.138-0.654-0.719-1.145-1.414-1.145c-0.784,0-1.421,0.625-1.444,1.404C0.779,78.889,0,79.699,0,80.693
							c0,0.943,0.701,1.72,1.61,1.844c0.326,0.54,0.917,0.902,1.594,0.902c0.973,0,1.771-0.746,1.855-1.698
							C5.782,81.586,6.324,80.944,6.324,80.174z"/>
					</g>
				</g>
				<g>
					<g>
						<path fill="#E6E6E6" d="M22.366,33.342c-4.105,0.889-5.6,2.944-6.141,4.44c1.269-0.288,2.62-0.655,4.061-1.111
							c2.994-0.949,5.442-1.981,7.427-3.086C26.047,33.184,24.245,32.935,22.366,33.342z"/>
					</g>
				</g>
				<g>
					<g>
						<g>
							<g>
								<path fill="#AECF9F" d="M8.933,8.627c-2.962,3.131-8.852,12.834-6.286,20.224c2.333,6.718,6.224,11.529,19.211,7.415
									c12.986-4.114,13.096-10.194,10.764-16.911c-2.566-7.39-13.839-11.469-17.694-12.627L16.858,0L3.21,4.324L8.933,8.627z"/>
							</g>
						</g>
						<g>
							<path fill="#594A42" d="M16.028,6.504c-0.047-0.136-0.174-0.229-0.328-0.259c0.105-0.112,0.149-0.259,0.101-0.395
								c-0.075-0.217-0.354-0.325-0.622-0.24L8.032,7.875C7.764,7.96,7.608,8.205,7.684,8.422c0.047,0.136,0.174,0.229,0.328,0.259
								C7.907,8.793,7.864,8.94,7.911,9.076c0.075,0.217,0.354,0.325,0.622,0.24l7.147-2.264
								C15.948,6.967,16.104,6.722,16.028,6.504z"/>
						</g>
						<g>
							<path fill="#E88B24" d="M13.494,16.778c0.385-0.28,0.802-0.521,1.245-0.722c-0.442,0.205-0.863,0.448-1.248,0.727
								L13.494,16.778z"/>
							<path fill="#E88B24" d="M15.466,15.763l0.001,0.004l-0.004,0.001c-0.125,0.043-0.244,0.088-0.363,0.133
								C15.218,15.852,15.341,15.806,15.466,15.763z"/>
							<g>
								<circle fill="#FDC364" cx="17.491" cy="23.149" r="6.793"/>
								<path fill="#F9A51B" d="M19.961,30.382c-3.988,1.362-8.341-0.774-9.704-4.762s0.774-8.341,4.762-9.704
									s8.341,0.774,9.704,4.762C26.086,24.667,23.95,29.02,19.961,30.382z M15.57,17.526c-3.1,1.059-4.761,4.444-3.702,7.544
									s4.444,4.761,7.544,3.702c3.1-1.059,4.761-4.444,3.702-7.544C22.055,18.128,18.67,16.467,15.57,17.526z"/>
							</g>
							<g>
								<g>
									<g>
										<path fill="#F9A51B" d="M20.094,23.848c0.33,0.966,0,1.956-0.828,2.597l0.388,1.136L17.96,28.16l-0.352-1.031
											c-0.51,0.086-1.027,0.069-1.427-0.052l-0.413-0.125l0.026-1.893l0.709,0.189c0.375,0.097,0.828,0.079,1.21-0.051
											c0.285-0.097,0.583-0.32,0.48-0.623c-0.042-0.123-0.119-0.35-0.988-0.395c-1.088-0.051-2.262-0.27-2.689-1.521
											c-0.315-0.923,0-1.872,0.792-2.489l-0.378-1.107l1.683-0.575l0.341,0.999c0.386-0.059,0.759-0.054,1.122,0.019
											l0.472,0.096l-0.06,1.876l-0.659-0.125c-0.176-0.032-0.543-0.104-1.048,0.068c-0.18,0.062-0.477,0.207-0.389,0.463
											c0.041,0.119,0.085,0.249,1.08,0.311C18.373,22.25,19.626,22.478,20.094,23.848z"/>
									</g>
								</g>
							</g>
							<path fill="#F9A51B" d="M14.464,27.361c-1.145-0.922-1.8-2.282-1.816-3.75c-0.002-0.154-0.241-0.165-0.239-0.011
								c0.017,1.563,0.712,2.984,1.928,3.964C14.456,27.66,14.582,27.457,14.464,27.361z"/>
							<path fill="#F9A51B" d="M13.497,19.627c-0.586,0.822-0.976,1.747-1.152,2.741c-0.027,0.15,0.201,0.223,0.228,0.071
								c0.173-0.975,0.551-1.879,1.127-2.685C13.789,19.629,13.586,19.502,13.497,19.627z"/>
							<path fill="#F9A51B" d="M20.471,18.532c-0.123-0.092-0.25,0.111-0.127,0.203c1.408,1.051,2.243,2.682,2.276,4.439
								c0.003,0.153,0.242,0.165,0.239,0.011C22.824,21.336,21.952,19.638,20.471,18.532z"/>
							<path fill="#F9A51B" d="M22.481,24.06c-0.09,0.904-0.408,1.745-0.931,2.488c-0.089,0.126,0.114,0.252,0.203,0.127
								c0.547-0.775,0.873-1.66,0.968-2.604C22.736,23.918,22.497,23.908,22.481,24.06z"/>
							<path fill="#F9A51B" d="M21.817,22.405c0.179,0.567,0.221,1.149,0.126,1.736c-0.025,0.152,0.214,0.165,0.239,0.014
								c0.098-0.605,0.055-1.212-0.13-1.797C22.005,22.213,21.77,22.258,21.817,22.405z"/>
							<path fill="#E88B24" d="M19.351,29.058c0.172,0.453,0.344,0.905,0.517,1.358c0.055,0.144,0.266,0.031,0.212-0.111
								c-0.172-0.453-0.344-0.905-0.517-1.358C19.508,28.803,19.297,28.916,19.351,29.058z"/>
							<path fill="#E88B24" d="M21.06,28.157c-0.079-0.131-0.291-0.021-0.212,0.111c0.251,0.418,0.502,0.837,0.753,1.255
								c0.079,0.131,0.291,0.021,0.212-0.111C21.563,28.994,21.312,28.575,21.06,28.157z"/>
							<path fill="#E88B24" d="M23.199,28.003c-0.351-0.352-0.702-0.703-1.053-1.055c-0.108-0.109-0.284,0.054-0.175,0.163
								c0.351,0.352,0.702,0.703,1.053,1.055C23.133,28.275,23.308,28.113,23.199,28.003z"/>
							<path fill="#E88B24" d="M24.262,26.307c-0.423-0.296-0.846-0.592-1.269-0.888c-0.126-0.088-0.253,0.115-0.127,0.203
								c0.423,0.296,0.846,0.592,1.269,0.888C24.261,26.598,24.388,26.395,24.262,26.307z"/>
							<path fill="#E88B24" d="M24.854,24.732l-1.5-0.489c-0.147-0.048-0.218,0.181-0.071,0.228c0.5,0.163,1,0.326,1.5,0.489
								C24.929,25.008,25,24.779,24.854,24.732z"/>
							<path fill="#E88B24" d="M24.927,23.196c-0.445,0.029-0.889,0.057-1.334,0.086c-0.152,0.01-0.164,0.249-0.011,0.239
								c0.445-0.029,0.889-0.057,1.333-0.086C25.068,23.425,25.08,23.186,24.927,23.196z"/>
							<path fill="#E88B24" d="M24.701,21.03c-0.487,0.229-0.973,0.458-1.46,0.688c-0.139,0.066-0.028,0.277,0.111,0.212
								c0.487-0.229,0.973-0.458,1.46-0.688C24.952,21.176,24.84,20.964,24.701,21.03z"/>
							<path fill="#E88B24" d="M24.045,19.427c-0.397,0.301-0.793,0.602-1.19,0.903c-0.122,0.093,0.042,0.267,0.163,0.175
								c0.397-0.301,0.793-0.602,1.19-0.903C24.331,19.508,24.167,19.334,24.045,19.427z"/>
							<path fill="#F9A51B" d="M13.539,24.04c-0.174-0.569-0.21-1.151-0.11-1.737c0.026-0.152-0.213-0.167-0.239-0.017
								c-0.104,0.604-0.066,1.212,0.113,1.798C13.348,24.23,13.584,24.187,13.539,24.04z"/>
							<path fill="#E88B24" d="M16.161,17.187c-0.14-0.464-0.28-0.927-0.419-1.391c-0.044-0.147-0.263-0.05-0.219,0.096
								c0.14,0.464,0.28,0.927,0.419,1.391C15.986,17.43,16.205,17.333,16.161,17.187z"/>
							<path fill="#E88B24" d="M14.392,17.966c0.069,0.137,0.289,0.042,0.219-0.096c-0.221-0.435-0.442-0.87-0.663-1.305
								c-0.069-0.137-0.289-0.042-0.219,0.096C13.95,17.095,14.171,17.531,14.392,17.966z"/>
							<path fill="#E88B24" d="M11.99,17.844c0.325,0.376,0.651,0.751,0.976,1.127c0.1,0.116,0.287-0.034,0.186-0.151
								c-0.325-0.376-0.651-0.751-0.976-1.127C12.076,17.577,11.889,17.727,11.99,17.844z"/>
							<path fill="#E88B24" d="M10.934,19.204c0.401,0.325,0.802,0.65,1.203,0.976c0.12,0.097,0.26-0.097,0.141-0.193
								c-0.401-0.325-0.802-0.65-1.203-0.976C10.955,18.914,10.815,19.107,10.934,19.204z"/>
							<path fill="#E88B24" d="M10.232,20.733l1.461,0.594c0.143,0.058,0.23-0.165,0.087-0.223
								c-0.487-0.198-0.974-0.396-1.461-0.594C10.176,20.452,10.089,20.675,10.232,20.733z"/>
							<path fill="#E88B24" d="M9.994,22.708c0.445,0.003,0.891,0.006,1.336,0.009c0.153,0.001,0.182-0.237,0.028-0.238
								c-0.445-0.003-0.891-0.006-1.336-0.009C9.869,22.469,9.84,22.707,9.994,22.708z"/>
							<path fill="#E88B24" d="M10.066,24.884c0.502-0.194,1.003-0.389,1.505-0.583c0.144-0.056,0.047-0.275-0.096-0.219
								c-0.502,0.194-1.003,0.389-1.505,0.583C9.826,24.721,9.922,24.94,10.066,24.884z"/>
							<path fill="#E88B24" d="M10.674,26.72c0.417-0.272,0.834-0.545,1.251-0.817c0.129-0.084-0.023-0.269-0.151-0.186
								c-0.417,0.272-0.834,0.545-1.251,0.817C10.395,26.619,10.546,26.804,10.674,26.72z"/>
							<path fill="#E88B24" d="M22.332,19.409c0.34-0.344,0.681-0.689,1.021-1.033c0.108-0.109-0.082-0.255-0.189-0.147
								c-0.34,0.344-0.681,0.689-1.021,1.033C22.035,19.371,22.225,19.517,22.332,19.409z"/>
							<path fill="#E88B24" d="M22.089,17.292c-0.325,0.376-0.649,0.753-0.974,1.129c-0.1,0.116,0.075,0.279,0.176,0.162
								c0.325-0.376,0.649-0.753,0.974-1.129C22.365,17.337,22.189,17.175,22.089,17.292z"/>
							<path fill="#E88B24" d="M20.775,16.364c-0.264,0.444-0.527,0.887-0.791,1.331c-0.079,0.132,0.133,0.244,0.212,0.111
								c0.264-0.444,0.527-0.887,0.791-1.331C21.065,16.343,20.854,16.231,20.775,16.364z"/>
							<path fill="#E88B24" d="M19.346,15.81l-0.376,1.532c-0.037,0.15,0.196,0.204,0.233,0.054
								c0.125-0.511,0.251-1.021,0.376-1.532C19.615,15.714,19.382,15.66,19.346,15.81z"/>
							<path fill="#E88B24" d="M17.277,15.675c0.062,0.441,0.123,0.882,0.185,1.323c0.021,0.151,0.26,0.145,0.239-0.007
								c-0.062-0.441-0.123-0.882-0.185-1.323C17.495,15.517,17.256,15.523,17.277,15.675z"/>
							<path fill="#E88B24" d="M12.481,26.74c-0.285,0.279-0.57,0.559-0.856,0.838c-0.11,0.107,0.053,0.283,0.163,0.175
								c0.285-0.279,0.57-0.559,0.856-0.838C12.754,26.807,12.592,26.632,12.481,26.74z"/>
							<path fill="#E88B24" d="M13.487,27.925c-0.309,0.314-0.618,0.628-0.926,0.942c-0.107,0.109,0.055,0.285,0.163,0.175
								c0.309-0.314,0.618-0.628,0.926-0.942C13.758,27.99,13.596,27.815,13.487,27.925z"/>
							<path fill="#E88B24" d="M14.404,28.534c-0.244,0.343-0.489,0.687-0.733,1.03c-0.089,0.125,0.114,0.252,0.203,0.127
								c0.244-0.344,0.489-0.687,0.733-1.031C14.696,28.536,14.493,28.409,14.404,28.534z"/>
							<path fill="#E88B24" d="M15.505,29.034c-0.189,0.394-0.378,0.788-0.566,1.182c-0.066,0.137,0.136,0.266,0.203,0.127
								c0.189-0.394,0.378-0.788,0.566-1.182C15.774,29.023,15.572,28.895,15.505,29.034z"/>
							<path fill="#E88B24" d="M16.699,29.41c-0.056,0.398-0.112,0.796-0.168,1.194c-0.022,0.153,0.218,0.162,0.239,0.011
								c0.056-0.398,0.112-0.796,0.168-1.194C16.959,29.268,16.72,29.258,16.699,29.41z"/>
							<path fill="#E88B24" d="M18.241,29.332c0.027,0.425,0.055,0.851,0.082,1.276c0.01,0.152,0.249,0.164,0.239,0.011
								c-0.027-0.425-0.055-0.851-0.082-1.276C18.471,29.19,18.232,29.178,18.241,29.332z"/>
						</g>
					</g>
				</g>
			</g>
			<g>
				<path fill="#FDDCBE" d="M10.514,37.515c0.009,0.027,0.019,0.053,0.029,0.076C10.536,37.566,10.526,37.541,10.514,37.515z"/>
				<path fill="#19568E" d="M14.858,60.255c0.297,0.989,0.61,1.978,0.94,2.96l3.307-0.05c0,0-0.429-1.382-1.096-3.729L14.858,60.255
					z"/>
				<path fill="#FDDCBE" d="M12.624,36.941c0,0-0.164-0.623-0.433-0.533c-0.358,0.12-0.236,0.578-0.177,0.748
					c-0.062-0.154-0.251-0.539-0.542-0.429c-0.293,0.111-0.18,0.518-0.127,0.666l-0.004,0.001c-0.074-0.15-0.314-0.56-0.66-0.423
					c-0.261,0.103-0.229,0.361-0.167,0.543c0.011,0.026,0.021,0.051,0.029,0.076c-0.01-0.023-0.02-0.049-0.029-0.076
					c-0.077-0.174-0.235-0.348-0.454-0.285c-0.241,0.083-0.064,0.697-0.064,0.697c0.292,1.024,1.652,11.653,4.862,22.329l3.15-0.819
					C16.666,54.718,14.358,46.096,12.624,36.941z"/>
			</g>
			
				<ellipse transform="matrix(0.9731 -0.2303 0.2303 0.9731 -11.1768 7.4606)" fill="#594A42" cx="26.378" cy="51.62" rx="0.795" ry="1.625"/>
			
				<ellipse transform="matrix(0.9731 -0.2303 0.2303 0.9731 -10.365 9.6092)" fill="#594A42" cx="35.99" cy="49.216" rx="0.795" ry="1.625"/>
			<ellipse fill="#EB7D86" cx="32.771" cy="56.68" rx="1.698" ry="2.455"/>
		</g>
		<g>
			<path fill="#93C5FD" d="M70.659,31.898c0-1.318-0.39-2.544-1.06-3.572c0.127-0.509,0.195-1.04,0.195-1.588
				c0-3.621-2.935-6.556-6.556-6.556c-0.45,0-0.889,0.046-1.314,0.132c-0.933-0.51-2.002-0.8-3.14-0.8
				c-0.185,0-0.367,0.01-0.548,0.025c-1.06-0.737-2.348-1.17-3.737-1.17c-3.465,0-6.3,2.689-6.538,6.093
				c-1.401,1.202-2.289,2.984-2.289,4.975c0,0.381,0.034,0.753,0.097,1.116c-0.459,0.895-0.719,1.909-0.719,2.984
				c0,3.621,2.935,6.556,6.556,6.556c0.471,0,0.93-0.051,1.373-0.145c1.054,0.723,2.329,1.146,3.703,1.146
				c0.16,0,0.318-0.008,0.475-0.019c1.129,0.921,2.57,1.474,4.141,1.474c3.147,0,5.774-2.217,6.409-5.175
				C69.485,36.201,70.659,34.187,70.659,31.898z"/>
			<g>
				<path fill="#002043" d="M59.153,32.585h-3.33v-0.333c0-0.567,0.064-1.027,0.193-1.38c0.128-0.353,0.32-0.676,0.574-0.968
					c0.254-0.292,0.825-0.806,1.714-1.542c0.473-0.386,0.71-0.739,0.71-1.06c0-0.321-0.095-0.571-0.285-0.749
					c-0.19-0.178-0.477-0.267-0.863-0.267c-0.415,0-0.758,0.137-1.03,0.412c-0.272,0.275-0.445,0.754-0.521,1.437l-3.401-0.421
					c0.117-1.25,0.571-2.257,1.363-3.019c0.792-0.762,2.006-1.144,3.642-1.144c1.273,0,2.302,0.266,3.085,0.798
					c1.063,0.719,1.595,1.677,1.595,2.875c0,0.497-0.137,0.976-0.412,1.437c-0.275,0.462-0.836,1.025-1.683,1.692
					c-0.59,0.468-0.963,0.843-1.117,1.126C59.231,31.76,59.153,32.129,59.153,32.585z M55.709,33.47h3.567v3.146h-3.567V33.47z"/>
			</g>
			<circle fill="#93C5FD" cx="46.982" cy="43.226" r="1.998"/>
			<circle fill="#93C5FD" cx="42.417" cy="45.683" r="1.186"/>
		</g>
	</g>
</g>
</svg>
