<?xml version="1.0" encoding="utf-8"?>
<!-- Generator: Adobe Illustrator 17.0.0, SVG Export Plug-In . SVG Version: 6.00 Build 0)  -->
<!DOCTYPE svg PUBLIC "-//W3C//DTD SVG 1.1//EN" "http://www.w3.org/Graphics/SVG/1.1/DTD/svg11.dtd">
<svg version="1.1" id="Layer_1" xmlns="http://www.w3.org/2000/svg" xmlns:xlink="http://www.w3.org/1999/xlink" x="0px" y="0px"
	 width="5225.817px" height="4652.9px" viewBox="0 0 5225.817 4652.9" enable-background="new 0 0 5225.817 4652.9"
	 xml:space="preserve">
<g>
	<g>
		<g>
			<polygon fill="#AECF9F" points="2590.275,2435.85 3411.739,3715.924 3910.955,3400.128 3089.492,2120.051 			"/>
		</g>
		<g>
			<path fill="#065F0F" d="M3979.864,3375.853c-26.623-40.292-801.663-1213.944-836.184-1266.214
				c-12.532-19.001-38.154-24.448-57.479-12.233c-412.908,261.208-211.112,133.527-490.778,310.442
				c-12.762,8.072-19.646,21.91-19.325,35.961c0.151,9.05,2.812,15.167,6.999,22.252
				c6.354,10.631,738.121,1236.614,738.337,1236.974c17.507,29.276,47.535,46.606,79.313,49.246c0,0,0,0,0.025-0.004
				c20.715,1.721,42.153-2.823,61.316-14.343c0.393-0.238,491.973-296.29,504.447-303.789
				C3986.816,3421.945,3992.849,3395.52,3979.864,3375.853z M3436.032,3676.039c-19.466,12.057-45.401,6.477-57.771-13.367
				c-105.274-168.88-716.762-1152.609-716.996-1152.984c-22.562-36.271-20.441-32.836-21.313-34.349
				c-10.627-19.041-4.601-43.302,14.138-55.139c80.292-50.793,101.558-64.254,394.036-249.248
				c19.347-12.244,45.005-6.747,57.511,12.287c604.482,919.32,224.224,340.992,769.687,1170.52
				c11.877,17.932,7.657,42.052-8.896,55.107C3863.315,3411.354,3893.606,3392.313,3436.032,3676.039z"/>
		</g>
		<g>
			<path fill="#065F0F" d="M3298.167,3117.025c-119.587,26.176-259.508-2.372-299.847-184.587
				c-26.27-118.662,53.271-242.595,169.611-280.576c141.422-46.167,248.452,21.698,304.304,189.321
				C3510.665,2956.526,3447.678,3084.3,3298.167,3117.025z"/>
		</g>
		<g>
			<path fill="#065F0F" d="M3471.655,3310.746c-45.048,9.861-97.749-0.893-112.945-69.528
				c-9.897-44.699,20.067-91.381,63.887-105.688c53.27-17.392,93.588,8.172,114.623,71.314
				C3551.699,3250.29,3527.971,3298.419,3471.655,3310.746z"/>
		</g>
	</g>
	<g>
		<path fill="#065F0F" d="M3048.857,2629.362c-45.048,9.861-97.749-0.893-112.945-69.528
			c-9.896-44.699,20.067-91.381,63.887-105.688c53.27-17.392,93.588,8.172,114.623,71.314
			C3128.902,2568.906,3105.174,2617.035,3048.857,2629.362z"/>
	</g>
</g>
<g>
	<g>
		<g>
			<polygon fill="#AECF9F" points="3076.753,2722.747 4590.86,3494.956 4894.588,2908.876 3380.479,2136.663 			"/>
		</g>
		<g>
			<path fill="#065F0F" d="M4947.4,2846.615c-48.398-23.875-1457.731-719.558-1520.5-750.538
				c-22.802-11.272-50.595-2.087-62.358,20.591c-251.212,484.763-128.453,247.828-298.602,576.159
				c-7.766,14.981-6.608,32.214,1.62,45.592c5.247,8.648,11.261,13.051,19.295,17.527
				c12.123,6.677,1409.194,777.245,1409.605,777.47c33.393,18.382,72.136,18.181,104.287,2.818c0,0,0,0,0.022-0.018
				c20.958-10.014,39.084-26.481,51.083-48.398c0.245-0.45,307.732-563.177,315.542-577.443
				C4980.085,2887.172,4971.014,2858.273,4947.4,2846.615z M4591.823,3442.778c-11.988,22.605-40.159,31.837-63.279,19.661
				c-196.763-103.625-1341.239-708.224-1341.675-708.454c-42.213-22.283-38.231-20.164-39.924-21.132
				c-20.986-12.384-28.845-39.19-17.435-61.173c48.85-94.265,61.783-119.24,239.742-462.587
				c11.768-22.719,39.624-31.875,62.42-20.557c1101.415,546.397,408.544,202.663,1402.401,695.678
				c21.567,10.609,31.09,36.262,22.475,58.188C4854.945,2946.557,4873.443,2911.112,4591.823,3442.778z"/>
		</g>
		<g>
			<path fill="#065F0F" d="M4143.732,2981.067c-100.641,92.658-251.746,143.97-393.366-9.12
				c-92.227-99.696-85.324-264.111,5.531-366.33c110.443-124.254,251.969-119.091,400.335,11.177
				C4258.321,2706.432,4269.557,2865.226,4143.732,2981.067z"/>
		</g>
		<g>
			<path fill="#065F0F" d="M4420.317,3070.217c-37.911,34.904-94.825,54.23-148.171-3.434
				c-34.742-37.553-32.139-99.486,2.081-137.988c41.601-46.805,94.912-44.86,150.796,4.212
				C4463.481,2966.768,4467.711,3026.583,4420.317,3070.217z"/>
		</g>
	</g>
	<g>
		<path fill="#065F0F" d="M3628.318,2651.015c-37.911,34.904-94.825,54.23-148.171-3.434
			c-34.742-37.553-32.139-99.486,2.081-137.988c41.6-46.805,94.912-44.86,150.796,4.212
			C3671.482,2547.566,3675.711,2607.381,3628.318,2651.015z"/>
	</g>
</g>
<g>
	<g>
		<g>
			<polygon fill="#AECF9F" points="3593.535,2378.783 5179.933,2286.659 5148.164,1670.32 3561.763,1762.442 			"/>
		</g>
		<g>
			<path fill="#065F0F" d="M5161.366,1595.139c-50.327,3.597-1516.041,107.976-1581.32,112.629
				c-23.721,1.675-41.808,22.214-40.587,46.068c26.285,509.787,13.417,260.633,31.219,605.913
				c0.811,15.756,9.884,29.113,22.842,36.02c8.318,4.499,15.25,5.211,23.847,5.029c12.935-0.339,1504.127-38.506,1504.566-38.518
				c35.625-0.941,66.79-19.404,85.474-46.986c0,0,0,0,0.01-0.025c12.18-17.979,19.027-39.827,18.355-63.178
				c-0.015-0.479-17.72-599.751-18.157-614.951C5206.895,1612.424,5185.926,1593.392,5161.366,1595.139z M5156.063,2244.105
				c1.005,23.901-17.364,44.656-41.769,45.752c-207.704,9.33-1416.697,62.097-1417.157,62.118
				c-44.584,1.96-40.371,1.789-42.194,1.807c-22.782-0.079-41.784-17.996-42.962-41.122c-5.111-99.131-6.472-125.391-25.064-486.476
				c-1.236-23.889,16.915-44.434,40.653-46.07c1146.758-79.388,425.358-29.456,1460.12-101.109
				c22.412-1.627,42.212,14.573,45.618,36.333C5133.977,1719.448,5132.159,1682.112,5156.063,2244.105z"/>
		</g>
		<g>
			<path fill="#065F0F" d="M4576.438,2083.229c-37.436,122.298-135.116,235.071-321.693,178.445
				c-121.503-36.876-193.594-172.795-168.571-298.184c30.42-152.421,147.048-215.104,328.287-180.078
				C4539.172,1807.515,4623.242,1930.33,4576.438,2083.229z"/>
		</g>
		<g>
			<path fill="#065F0F" d="M4841.708,2024.516c-14.102,46.069-50.894,88.545-121.173,67.217
				c-45.77-13.89-72.923-65.089-63.499-112.318c11.457-57.414,55.39-81.026,123.658-67.829
				C4827.672,1920.66,4859.338,1966.923,4841.708,2024.516z"/>
		</g>
	</g>
	<g>
		<path fill="#065F0F" d="M4004.681,2060.38c-14.101,46.069-50.894,88.545-121.173,67.217
			c-45.769-13.89-72.923-65.089-63.499-112.318c11.457-57.414,55.39-81.026,123.659-67.829
			C3990.644,1956.524,4022.31,2002.788,4004.681,2060.38z"/>
	</g>
</g>
<g>
	<g>
		<path fill="#728EAD" d="M3081.211,1492.395c19.884-46.909-2.02-101.054-48.93-120.938L1948.501,912.069
			c-46.91-19.883-101.055,2.028-120.939,48.937l-176.554,416.521l1253.656,531.392L3081.211,1492.395z"/>
		<path fill="#728EAD" d="M1559.474,1593.466c-19.88,46.912,2.023,101.055,48.934,120.939l1083.784,459.388
			c46.907,19.883,101.052-2.026,120.937-48.935l24.225-57.143l-1253.654-531.393L1559.474,1593.466z"/>
		
			<rect x="2157.944" y="1041.808" transform="matrix(-0.3903 0.9207 -0.9207 -0.3903 4706.0283 328.6792)" fill="#002043" width="172.474" height="1361.628"/>
	</g>
	
		<rect x="2230.365" y="1592.055" transform="matrix(-0.9207 -0.3903 0.3903 -0.9207 4331.7539 4164.125)" fill="#F1F7F7" width="717.127" height="99.852"/>
	
		<rect x="1723.295" y="1323.254" transform="matrix(-0.9207 -0.3903 0.3903 -0.9207 3218.6553 3400.3435)" fill="#F1F7F7" width="462.963" height="99.854"/>
	<path fill="#D83A33" d="M2729.831,1474.844c26.622-62.813,99.129-92.155,161.947-65.528
		c62.812,26.626,92.155,99.136,65.531,161.949c-26.63,62.818-99.139,92.152-161.951,65.526
		C2732.541,1610.17,2703.204,1537.662,2729.831,1474.844z"/>
	<path fill="#F8D173" d="M2590.57,1415.817c26.629-62.813,99.13-92.157,161.948-65.529c62.819,26.628,92.154,99.136,65.527,161.947
		c-26.628,62.819-99.128,92.157-161.947,65.529C2593.28,1551.137,2563.945,1478.635,2590.57,1415.817z"/>
	
		<rect x="2205.192" y="1210.264" transform="matrix(-0.9207 -0.3903 0.3903 -0.9207 3983.4568 3311.9175)" fill="#7E8080" width="246.013" height="82.001"/>
	
		<rect x="1992.598" y="1096.253" transform="matrix(-0.9207 -0.3903 0.3903 -0.9207 3511.3308 2987.9712)" fill="#7E8080" width="133.257" height="82.001"/>
</g>
<g>
	<g>
		<path fill="#4682B4" d="M3476.761,1708.863c48.197-16.518,73.881-68.978,57.359-117.174L3152.439,478.162
			c-16.52-48.202-68.984-73.875-117.18-57.355l-427.955,146.687l441.503,1288.058L3476.761,1708.863z"/>
		<path fill="#4682B4" d="M2385.437,643.54c-48.197,16.521-73.874,68.983-57.356,117.179l381.68,1113.525
			c16.521,48.198,68.984,73.879,117.18,57.354l58.716-20.122L2444.149,623.419L2385.437,643.54z"/>
		
			<rect x="2660.245" y="558.673" transform="matrix(-0.946 0.3243 -0.3243 -0.946 5746.4766 1521.4381)" fill="#002043" width="172.47" height="1361.623"/>
	</g>
	
		<rect x="2678.14" y="1392.354" transform="matrix(-0.3242 -0.946 0.946 -0.3242 2656.9839 4782.5693)" fill="#F1F7F7" width="717.124" height="99.85"/>
	<polygon fill="#F1F7F7" points="2785.542,555.555 2935.655,993.508 2841.198,1025.888 2691.083,587.932 	"/>
	<path fill="#D83A33" d="M3255.203,1435.566c64.539-22.117,134.796,12.264,156.914,76.803c22.123,64.541-12.264,134.8-76.801,156.92
		c-64.544,22.125-134.797-12.264-156.918-76.805C3156.277,1527.94,3190.661,1457.693,3255.203,1435.566z"/>
	<path fill="#F8D173" d="M3206.16,1292.488c64.538-22.119,134.793,12.262,156.916,76.805
		c22.124,64.54-12.268,134.792-76.804,156.916c-64.546,22.123-134.792-12.262-156.919-76.81
		C3107.234,1384.86,3141.613,1314.611,3206.16,1292.488z"/>
	
		<rect x="3030.461" y="946.3" transform="matrix(-0.3242 -0.946 0.946 -0.3242 3241.9983 4290.5195)" fill="#7E8080" width="246.012" height="81.997"/>
	<polygon fill="#7E8080" points="3075.925,634.628 3119.13,760.682 3041.563,787.273 2998.353,661.211 	"/>
</g>
<g>
	<path fill="#E9CCB2" d="M2572.147,1201.297c0,0,49.521-81.724,68.459-165.218c10.585-46.67-9.379-93.797-29.042-126.304
		c-0.955-0.361-1.47-0.542-1.47-0.542l-119.701,269.894C2487.014,1221.209,2572.147,1201.297,2572.147,1201.297z"/>
	<path fill="#EBC197" d="M3590.808,2020.98c72.002-290.06-179.002-441.135-179.002-441.135l-717.722,354.47l-212.254-16.624
		l144.979-382.899c0,0,56.656-94.13,139.865-317.603c79.395-213.218-135.254-299.91-155.111-307.416
		c19.664,32.507,39.628,79.634,29.042,126.304c-18.938,83.494-68.459,165.218-68.459,165.218s-85.133,19.912-81.755-22.171
		c0,0-208.718,147.925-464.454,686.434c-255.732,538.506-150.692,875.281-150.692,875.281l-664.212,720.07l824.425,590.25
		l474.383-603.518c346.708-22.125,898.898-570.271,898.898-570.271S3518.811,2311.035,3590.808,2020.98z"/>
</g>
<g>
	<path fill="#8C2B3D" d="M2128.965,3164.826l-392.61-323.329c-41.338-34.045-102.448-28.127-136.486,13.201l-245.98,298.688
		c-34.041,41.335-28.13,102.444,13.206,136.485l392.609,323.33l83.954-101.942L2128.965,3164.826z"/>
	<path fill="#42130D" d="M2521.571,3488.15l-392.605-323.323l-285.307,346.434l-83.954,101.942l392.607,323.328
		c41.339,34.048,102.446,28.131,136.489-13.207l245.979-298.684C2568.818,3583.306,2562.91,3522.2,2521.571,3488.15z"/>
</g>
<g>
	<path fill="#51726C" d="M2443.881,3697.704l-454.143-374.008L903.431,4649.724h884.228l687.585-842.043
		C2498.054,3779.98,2484.01,3730.749,2443.881,3697.704z"/>
	<path fill="#70A79D" d="M903.431,4649.724l1086.307-1326.027l-454.145-374.005c-40.126-33.05-91.136-37.392-113.945-9.698
		l-784.244,954.663v755.067H903.431z"/>
</g>
<g>
	<g>
		<g>
			
				<rect x="2723.533" y="1297.135" transform="matrix(0.8556 -0.5176 0.5176 0.8556 -306.0938 1633.5043)" fill="#065F0F" width="102.756" height="136.544"/>
			<path fill="#F69F88" d="M2767.968,1424.471c1.366,2.25,0.641,5.186-1.611,6.552l0,0c-2.258,1.365-5.188,0.641-6.556-1.612
				l-48.595-80.328c-1.36-2.255-0.638-5.19,1.615-6.553l0,0c2.259-1.368,5.192-0.646,6.558,1.615L2767.968,1424.471z"/>
			<path fill="#F69F88" d="M2781.975,1415.994c1.359,2.255,0.639,5.193-1.62,6.553l0,0c-2.253,1.365-5.186,0.646-6.55-1.61
				l-48.594-80.32c-1.367-2.254-0.644-5.185,1.614-6.553l0,0c2.256-1.365,5.19-0.645,6.557,1.615L2781.975,1415.994z"/>
			<path fill="#F69F88" d="M2795.97,1407.528c1.368,2.258,0.641,5.19-1.607,6.555l0,0c-2.256,1.361-5.192,0.639-6.554-1.613
				l-48.6-80.325c-1.362-2.26-0.641-5.195,1.615-6.557l0,0c2.254-1.358,5.19-0.643,6.553,1.613L2795.97,1407.528z"/>
			<path fill="#F69F88" d="M2809.971,1399.055c1.37,2.252,0.646,5.189-1.608,6.557l0,0c-2.254,1.362-5.19,0.639-6.559-1.619
				l-48.59-80.315c-1.363-2.259-0.641-5.192,1.614-6.557l0,0c2.254-1.372,5.188-0.643,6.552,1.614L2809.971,1399.055z"/>
			<path fill="#F69F88" d="M2823.975,1390.587c1.361,2.255,0.641,5.188-1.612,6.547l0,0c-2.251,1.369-5.186,0.646-6.555-1.608
				l-48.589-80.322c-1.368-2.257-0.646-5.19,1.61-6.554l0,0c2.253-1.369,5.189-0.643,6.549,1.614L2823.975,1390.587z"/>
			<path fill="#F69F88" d="M2837.978,1382.116c1.363,2.257,0.641,5.182-1.612,6.552l0,0c-2.258,1.366-5.193,0.641-6.552-1.618
				l-48.596-80.317c-1.364-2.256-0.646-5.192,1.615-6.557l0,0c2.251-1.363,5.186-0.644,6.551,1.618L2837.978,1382.116z"/>
		</g>
		<path fill="#FFFFFF" d="M2800.587,1253.262c6.111,10.108,2.871,23.247-7.223,29.352l-100.348,60.712
			c-10.101,6.109-23.239,2.873-29.352-7.225l-16.015-26.461c-6.106-10.107-2.873-23.242,7.232-29.356l100.345-60.707
			c10.1-6.114,23.239-2.875,29.352,7.222L2800.587,1253.262z"/>
	</g>
	<g>
		<g>
			
				<rect x="3730.643" y="1376.018" transform="matrix(-0.7646 -0.6445 0.6445 -0.7646 5742.9453 4986.0991)" fill="#065F0F" width="102.758" height="136.537"/>
			<path fill="#F69F88" d="M3779.684,1503.708c-1.702,2.012-1.441,5.026,0.574,6.723l0,0c2.015,1.701,5.024,1.443,6.723-0.57
				l60.508-71.784c1.7-2.014,1.441-5.027-0.57-6.725l0,0c-2.019-1.698-5.03-1.44-6.727,0.576L3779.684,1503.708z"/>
			<path fill="#F69F88" d="M3767.17,1493.157c-1.699,2.015-1.44,5.026,0.574,6.727l0,0c2.014,1.696,5.022,1.439,6.728-0.576
				l60.507-71.774c1.695-2.012,1.435-5.022-0.579-6.723l0,0c-2.016-1.702-5.022-1.45-6.723,0.571L3767.17,1493.157z"/>
			<path fill="#F69F88" d="M3754.663,1482.614c-1.706,2.017-1.446,5.028,0.569,6.723l0,0c2.015,1.698,5.025,1.442,6.726-0.569
				l60.505-71.781c1.7-2.019,1.444-5.032-0.57-6.726l0,0c-2.016-1.693-5.028-1.442-6.729,0.576L3754.663,1482.614z"/>
			<path fill="#F69F88" d="M3742.148,1472.066c-1.702,2.011-1.441,5.022,0.574,6.727l0,0c2.017,1.696,5.023,1.436,6.727-0.579
				l60.502-71.77c1.701-2.018,1.445-5.028-0.574-6.728l0,0c-2.015-1.705-5.021-1.444-6.727,0.573L3742.148,1472.066z"/>
			<path fill="#F69F88" d="M3729.636,1461.521c-1.7,2.01-1.441,5.025,0.575,6.718l0,0c2.011,1.703,5.024,1.446,6.722-0.568
				l60.506-71.779c1.697-2.019,1.445-5.028-0.57-6.725l0,0c-2.012-1.701-5.029-1.44-6.727,0.573L3729.636,1461.521z"/>
			<path fill="#F69F88" d="M3717.121,1450.971c-1.696,2.018-1.438,5.021,0.578,6.725l0,0c2.01,1.698,5.022,1.439,6.723-0.578
				l60.503-71.773c1.698-2.013,1.444-5.025-0.569-6.727l0,0c-2.015-1.697-5.025-1.443-6.724,0.577L3717.121,1450.971z"/>
		</g>
		<path fill="#FFFFFF" d="M3774.118,1329.516c-7.61,9.028-6.458,22.507,2.57,30.114l89.664,75.596
			c9.032,7.601,22.516,6.454,30.123-2.57l19.935-23.651c7.606-9.026,6.458-22.507-2.566-30.119l-89.673-75.593
			c-9.021-7.605-22.507-6.455-30.114,2.567L3774.118,1329.516z"/>
	</g>
</g>
<g>
	<g>
		
			<rect x="3252.491" y="1159.849" transform="matrix(0.9969 0.0781 -0.0781 0.9969 109.2656 -256.5086)" fill="#002043" width="164.15" height="218.116"/>
		<path fill="#3D4C5E" d="M3270.564,1339.103c-0.327,4.202-4.001,7.333-8.194,7.004l0,0c-4.196-0.327-7.336-3.994-7.008-8.194
			l11.71-149.506c0.327-4.199,4.005-7.333,8.196-7.004l0,0c4.196,0.331,7.336,3.998,7.006,8.192L3270.564,1339.103z"/>
		<path fill="#3D4C5E" d="M3296.628,1341.14c-0.329,4.203-3.998,7.338-8.195,7.008l0,0c-4.199-0.33-7.339-3.996-7.007-8.197
			l11.708-149.506c0.33-4.195,3.996-7.327,8.201-7l0,0c4.195,0.328,7.331,3.997,7.002,8.192L3296.628,1341.14z"/>
		<path fill="#3D4C5E" d="M3322.689,1343.185c-0.33,4.203-4,7.333-8.196,7.008l0,0c-4.198-0.331-7.334-3.996-7.004-8.199
			l11.71-149.504c0.328-4.198,3.993-7.331,8.194-7.003l0,0c4.195,0.329,7.338,3.993,7.006,8.192L3322.689,1343.185z"/>
		<path fill="#3D4C5E" d="M3348.747,1345.229c-0.328,4.196-3.993,7.331-8.194,7.002l0,0c-4.197-0.331-7.333-3.994-7.002-8.196
			l11.706-149.504c0.331-4.198,4.001-7.334,8.194-7.005l0,0c4.203,0.328,7.336,3.997,7.008,8.193L3348.747,1345.229z"/>
		<path fill="#3D4C5E" d="M3374.812,1347.268c-0.331,4.201-3.999,7.329-8.197,7.003l0,0c-4.195-0.328-7.334-3.994-7.006-8.195
			l11.71-149.507c0.328-4.196,4.001-7.325,8.194-7.001l0,0c4.2,0.332,7.336,3.995,7.006,8.193L3374.812,1347.268z"/>
		<path fill="#3D4C5E" d="M3400.869,1349.307c-0.328,4.199-3.993,7.335-8.191,7.005l0,0c-4.201-0.328-7.334-3.994-7.006-8.197
			l11.71-149.501c0.33-4.199,3.995-7.335,8.199-7.004l0,0c4.193,0.33,7.325,3.995,6.998,8.194L3400.869,1349.307z"/>
	</g>
	<path fill="#202F5A" d="M3472.304,1147.251c-1.474,18.793-17.905,32.845-36.705,31.375l-186.777-14.631
		c-18.799-1.47-32.846-17.91-31.373-36.708l3.859-49.261c1.471-18.798,17.905-32.842,36.703-31.371l186.779,14.63
		c18.801,1.47,32.841,17.905,31.37,36.7L3472.304,1147.251z"/>
</g>
<path fill="#B82025" d="M2261.127,3956.928c-33.042,40.118-92.365,45.862-132.487,12.814c-40.127-33.039-45.864-92.36-12.82-132.484
	c33.042-40.122,92.361-45.865,132.485-12.821C2288.431,3857.48,2294.168,3916.804,2261.127,3956.928z"/>
<path fill="#B82025" d="M2098.702,4154.154c-33.052,40.136-92.363,45.865-132.487,12.82
	c-40.125-33.042-45.875-92.353-12.821-132.484c33.042-40.127,92.363-45.869,132.486-12.824
	C2126.005,4054.711,2131.744,4114.033,2098.702,4154.154z"/>
<path fill="#D3AA84" d="M2609.204,2146.123c0,0-2.425,606.472-178.721,759.548c0,0,315.867-314.478,450.518-283.937
	C3015.651,2652.275,2609.204,2146.123,2609.204,2146.123z"/>
<g>
	<path fill="#202F5A" d="M2375.615,2085.244c-36.526,466.351,311.885,874.015,778.244,910.536
		c466.355,36.529,873.997-311.914,910.521-778.269c36.525-466.334-311.897-873.981-778.253-910.508
		C2819.768,1270.477,2412.138,1618.908,2375.615,2085.244z"/>
	<path fill="#C5D7DC" d="M2671.007,1654.824c-6.123,31.998-10.612,64.615-13.215,97.846
		c-37.912,484.059,323.758,907.204,807.822,945.118c96.916,7.589,191.409-0.891,280.872-23.122
		c-148.094,149.363-358.379,235.09-584.503,217.376c-408.147-31.967-713.103-388.748-681.136-796.891
		C2494.196,1924.695,2564.242,1772.265,2671.007,1654.824z"/>
	<path fill="#FFFFFF" d="M2657.792,1752.67c2.603-33.231,7.092-65.848,13.215-97.846
		c148.829-163.738,369.057-259.399,606.736-240.784c408.147,31.964,713.092,388.744,681.127,796.871
		c-14.261,182.048-93.152,343.512-212.384,463.755c-89.463,22.231-183.956,30.711-280.872,23.122
		C2981.55,2659.874,2619.88,2236.729,2657.792,1752.67z"/>
	<g>
		<g>
			<path fill="#2E3C51" d="M3211.78,1495.746c-2.563,32.709,21.864,61.298,54.563,63.859c32.692,2.56,61.277-21.876,63.841-54.586
				c2.561-32.689-21.876-61.282-54.566-63.84C3242.919,1438.615,3214.34,1463.059,3211.78,1495.746z"/>
			<path fill="#2E3C51" d="M3109.545,2801.049c-2.56,32.699,21.866,61.288,54.567,63.85c32.69,2.559,61.277-21.874,63.841-54.576
				c2.559-32.694-21.874-61.296-54.564-63.854C3140.686,2743.903,3112.105,2768.357,3109.545,2801.049z"/>
		</g>
	</g>
	<g>
		<g>
			<path fill="#2E3C51" d="M2562.58,2161.118c32.709,2.563,61.276-21.869,63.838-54.563c2.562-32.692-21.858-61.261-54.565-63.824
				c-32.696-2.562-61.284,21.856-63.845,54.547C2505.448,2129.975,2529.886,2158.557,2562.58,2161.118z"/>
			<path fill="#2E3C51" d="M3867.894,2263.352c32.667,2.559,61.264-21.867,63.822-54.564c2.561-32.694-21.878-61.284-54.549-63.842
				c-32.715-2.563-61.299,21.874-63.859,54.564C3810.748,2232.211,3835.175,2260.787,3867.894,2263.352z"/>
		</g>
	</g>
	<path fill="#065F0F" d="M3535.587,1626.498c-1.592,20.285,13.589,38.034,33.875,39.62c20.3,1.591,38.051-13.574,39.637-33.861
		c1.591-20.307-13.582-38.054-33.88-39.644C3554.934,1591.022,3537.175,1606.197,3535.587,1626.498z"/>
	<path fill="#065F0F" d="M3751.956,1906.375c-1.589,20.287,13.579,38.037,33.878,39.624c20.3,1.593,38.019-13.584,39.607-33.867
		c1.589-20.303-13.555-38.026-33.854-39.619C3771.289,1870.923,3753.544,1886.075,3751.956,1906.375z"/>
	<path fill="#065F0F" d="M2622.629,2372.538c-1.592,20.282,13.569,38.041,33.878,39.632c20.264,1.586,38.028-13.592,39.617-33.876
		c1.589-20.279-13.595-38.041-33.858-39.625C2641.957,2337.074,2624.215,2352.259,2622.629,2372.538z"/>
	<path fill="#065F0F" d="M2838.995,2652.426c-1.589,20.288,13.567,38.034,33.885,39.625c20.285,1.591,38.025-13.583,39.613-33.868
		c1.592-20.309-13.574-38.037-33.857-39.63C2858.316,2616.962,2840.585,2632.116,2838.995,2652.426z"/>
	<path fill="#065F0F" d="M3731.76,2426.542c-20.3-1.586-38.032,13.584-39.623,33.887c-1.588,20.291,13.565,38.036,33.863,39.627
		c20.288,1.59,38.039-13.58,39.628-33.87C3767.218,2445.879,3752.045,2428.132,3731.76,2426.542z"/>
	<path fill="#065F0F" d="M3451.87,2642.91c-20.275-1.589-38.036,13.575-39.626,33.878c-1.586,20.302,13.596,38.029,33.869,39.621
		c20.29,1.589,38.029-13.562,39.622-33.865C3487.324,2662.241,3472.16,2644.499,3451.87,2642.91z"/>
	<path fill="#065F0F" d="M2985.698,1513.583c-20.296-1.592-38.018,13.58-39.606,33.878c-1.591,20.299,13.551,38.039,33.85,39.631
		c20.298,1.587,38.047-13.575,39.636-33.878C3021.166,1532.92,3005.995,1515.173,2985.698,1513.583z"/>
	<path fill="#065F0F" d="M2705.832,1729.947c-20.304-1.591-38.048,13.57-39.643,33.879c-1.586,20.288,13.582,38.031,33.887,39.624
		c20.293,1.59,38.04-13.58,39.626-33.864C2741.294,1749.273,2726.125,1731.537,2705.832,1729.947z"/>
	<path fill="#2E3C51" d="M2893.525,2567.445l281.086-392.855c-2.087-6.353-2.981-13.215-2.428-20.305l0.277-3.531
		c2.258-28.822,27.45-50.354,56.291-48.095c28.813,2.258,50.367,27.448,48.11,56.271l-0.278,3.536
		c-2.256,28.822-27.474,50.371-56.285,48.113c-3.382-0.264-6.593-0.861-9.745-1.738l-276.912,386.988
		c-7.822,11.074-23.174,13.702-34.236,5.872C2888.327,2593.859,2885.69,2578.521,2893.525,2567.445z"/>
	<path fill="#065F0F" d="M3139.531,2147.904c-3.446,43.983,29.398,82.416,73.391,85.861c43.953,3.438,82.41-29.405,85.857-73.388
		c2.656-33.93-16.354-64.487-45.359-78.291c0.043-0.444,0.191-0.822,0.225-1.251l24.505-312.877
		c1.234-15.785-10.54-29.574-26.329-30.813c-15.796-1.234-29.604,10.551-30.837,26.332l-24.506,312.882
		c-0.036,0.432,0.047,0.827,0.017,1.25C3165.698,2086.731,3142.187,2113.974,3139.531,2147.904z M3178.318,2150.942
		c1.765-22.54,21.492-39.395,44.038-37.634c22.554,1.771,39.374,21.488,37.607,44.027c-1.763,22.545-21.449,39.402-44.003,37.636
		C3193.413,2193.208,3176.553,2173.481,3178.318,2150.942z"/>
</g>
<g>
	<polygon fill="#2E3C51" points="2844.302,1692.916 2825.596,1708.904 2748.861,1619.121 2767.568,1603.14 	"/>
	<polygon fill="#2E3C51" points="3691.13,2683.664 3672.423,2699.647 3595.683,2609.872 3614.392,2593.879 	"/>
</g>
<g>
	<g>
		<polygon fill="#2E3C51" points="3808.064,2077.08 3804.469,2052.737 3921.312,2035.504 3924.904,2059.849 		"/>
		
			<rect x="2563.001" y="2187.44" transform="matrix(0.1458 0.9893 -0.9893 0.1458 4422.209 -628.8961)" fill="#2E3C51" width="24.606" height="118.105"/>
	</g>
	<g>
		<polygon fill="#2E3C51" points="3145.684,1563.325 3121.341,1566.918 3104.106,1450.069 3128.451,1446.484 		"/>
		
			<rect x="3302.791" y="2737.03" transform="matrix(0.9893 -0.1459 0.1459 0.9893 -372.3876 513.4513)" fill="#2E3C51" width="24.611" height="118.109"/>
	</g>
</g>
<g>
	<g>
		
			<rect x="3823.025" y="2306.905" transform="matrix(-0.3292 0.9443 -0.9443 -0.3292 7331.9995 -476.7148)" fill="#2E3C51" width="24.607" height="118.106"/>
		<polygon fill="#2E3C51" points="2544.854,1928.999 2552.956,1905.768 2664.475,1944.65 2656.368,1967.884 		"/>
	</g>
	<g>
		<polygon fill="#2E3C51" points="3426.738,1595.866 3403.508,1587.767 3442.386,1476.251 3465.625,1484.354 		"/>
		<polygon fill="#2E3C51" points="2997.604,2826.536 2974.362,2818.433 3013.257,2706.914 3036.491,2715.012 		"/>
	</g>
</g>
<path fill="#EBC197" d="M4259.622,1913.303c9.182,79.976-36.952,150.961-103.044,158.545l-360.906,41.44
	c-66.091,7.593-127.118-51.091-136.299-131.066l0,0c-9.182-79.974,36.954-150.963,103.049-158.55l360.906-41.44
	C4189.417,1774.645,4250.443,1833.324,4259.622,1913.303L4259.622,1913.303z"/>
<path fill="#EBC197" d="M4248.811,2265.915c2.722,73.076-44.019,134.134-104.403,136.38l-329.74,12.296
	c-60.385,2.256-111.548-55.157-114.271-128.234l0,0c-2.725-73.061,44.018-134.125,104.403-136.376l329.742-12.292
	C4194.924,2135.438,4246.085,2192.85,4248.811,2265.915L4248.811,2265.915z"/>
<path fill="#EBC197" d="M4106.306,2550.595c2.176,58.393-35.177,107.184-83.421,108.981l-263.493,9.816
	c-48.25,1.799-89.138-44.067-91.311-102.461l0,0c-2.176-58.391,35.175-107.185,83.429-108.979l263.487-9.821
	C4063.25,2446.331,4104.129,2492.209,4106.306,2550.595L4106.306,2550.595z"/>
<g>
	
		<rect x="3703.066" y="1668.929" transform="matrix(0.6498 0.7601 -0.7601 0.6498 2614.7332 -2218.9756)" fill="#2E3C51" width="24.599" height="118.105"/>
	<polygon fill="#2E3C51" points="2687.728,2622.529 2671.742,2603.822 2761.514,2527.086 2777.505,2545.791 	"/>
</g>
<path fill="#EBC197" d="M4139.416,1534.734c25.294,76.421-5.406,155.325-68.563,176.228L3725.978,1825.1
	c-63.16,20.902-134.865-24.105-160.157-100.528l0,0c-25.295-76.423,5.401-155.324,68.559-176.232l344.883-114.136
	C4042.417,1413.3,4114.118,1458.311,4139.416,1534.734L4139.416,1534.734z"/>
<path fill="#E9CCB2" d="M3583.731,1605.175c0,0,26.122,166.013,92.877,217.342c0,0,163.882-29.018,128.135-165.636
	C3768.996,1520.264,3583.731,1605.175,3583.731,1605.175z"/>
<path fill="#E9CCB2" d="M3710.837,1863.01c0,0-16.379,167.256,35.361,233.694c0,0,165.919,13.04,165.6-128.179
	C3911.478,1827.31,3710.837,1863.01,3710.837,1863.01z"/>
<path fill="#E9CCB2" d="M3741.623,2182.29c0,0-30.761,133.707,4.18,192.911c0,0,132.974,27.919,147.492-86.454
	C3907.809,2174.382,3741.623,2182.29,3741.623,2182.29z"/>
<path fill="#E9CCB2" d="M3706.294,2482.205c0,0-18.359,111.424,13.404,158.254c0,0,110.679,16.063,116.695-78.645
	C3842.403,2467.116,3706.294,2482.205,3706.294,2482.205z"/>
<g>
	<path fill="#E88B24" d="M3531.519,423.55c19.853,1.554,39.648,5.188,59.217,10.84c-19.634-5.485-39.596-9.187-59.449-10.741
		L3531.519,423.55z"/>
	<path fill="#E88B24" d="M3621.813,444.791l-0.065,0.167l-0.167-0.065c-5.126-2.03-10.151-3.832-15.175-5.63
		C3611.498,440.894,3616.689,442.76,3621.813,444.791z"/>
	<g>
		<circle fill="#FDC364" cx="3485.693" cy="734.719" r="284.076"/>
		<path fill="#F9A51B" d="M3367.938,1031.876c-163.855-64.928-244.335-251.059-179.407-414.915s251.059-244.335,414.915-179.408
			s244.335,251.059,179.407,414.915C3717.922,1016.324,3531.794,1096.807,3367.938,1031.876z M3577.239,503.693
			c-127.381-50.476-272.093,12.098-322.569,139.478s12.097,272.093,139.478,322.569c127.381,50.476,272.093-12.097,322.569-139.478
			C3767.193,698.884,3704.616,554.169,3577.239,503.693z"/>
	</g>
	<g>
		<g>
			<g>
				<path fill="#F9A51B" d="M3549.549,827.631c-15.729,39.691-53.109,62.236-96.839,60.16l-18.488,46.653l-69.609-27.585
					l16.785-42.358c-18.556-11.121-34.547-25.684-43.971-40.387l-9.752-15.175l52.2-59.511l17.419,25.236
					c9.301,13.281,24.192,25.008,39.889,31.231c11.699,4.635,27.236,5.652,32.164-6.789c1.996-5.037,5.692-14.366-20.716-39.398
					c-33.233-31.163-64.628-69.992-44.261-121.383c15.024-37.915,50.837-59.539,92.763-57.66l18.018-45.467l69.164,27.409
					l-16.257,41.026c13.902,8.593,25.592,18.88,35.155,31.067l12.388,15.877l-52.824,58.065l-17.555-21.865
					c-4.722-5.812-14.437-18.058-35.171-26.275c-7.407-2.936-20.79-6.353-24.955,4.162c-1.938,4.888-4.048,10.219,25.922,39.231
					C3538.171,730.072,3571.853,771.349,3549.549,827.631z"/>
			</g>
		</g>
	</g>
	<path fill="#F9A51B" d="M3275.073,786.511c-11.396-60.395,4.684-121.451,44.03-168.583c4.116-4.932-3.173-11.782-7.305-6.832
		c-41.876,50.167-58.368,114.27-46.264,178.431C3266.724,795.834,3276.257,792.781,3275.073,786.511z"/>
	<path fill="#F9A51B" d="M3454.262,514.245c-40.962,10.228-78.462,29.074-111.062,55.914c-4.91,4.042,0.368,12.549,5.333,8.461
		c31.979-26.33,68.537-44.799,108.741-54.839C3463.519,522.227,3460.497,512.688,3454.262,514.245z"/>
	<path fill="#F9A51B" d="M3705.828,668.744c-1.425-6.276-10.957-3.241-9.539,3.013c16.253,71.658-1.456,146.221-48.106,202.975
		c-4.076,4.959,3.214,11.813,7.305,6.835C3704.588,821.831,3722.928,744.135,3705.828,668.744z"/>
	<path fill="#F9A51B" d="M3619.721,899.183c-27.427,26.309-60.361,44.45-97.169,53.853c-6.239,1.594-3.217,11.13,3.013,9.539
		c38.446-9.82,72.835-29.102,101.461-56.557C3631.685,901.547,3624.353,894.743,3619.721,899.183z"/>
	<path fill="#F9A51B" d="M3643.514,828.48c-9.706,22.9-24.146,42.544-43.118,58.63c-4.913,4.165,2.33,11.072,7.203,6.94
		c19.554-16.581,34.639-37.077,44.645-60.685C3654.734,827.492,3646.023,822.56,3643.514,828.48z"/>
	<path fill="#E88B24" d="M3384.458,973.174c-6.807,19.072-13.612,38.14-20.419,57.212c-2.16,6.05,7.614,8.21,9.755,2.212
		c6.807-19.072,13.612-38.14,20.419-57.212C3396.373,969.337,3386.599,967.177,3384.458,973.174z"/>
	<path fill="#E88B24" d="M3463.315,990.911c1.06-6.322-8.689-8.575-9.755-2.212c-3.371,20.128-6.74,40.254-10.111,60.382
		c-1.06,6.322,8.689,8.575,9.755,2.213C3456.576,1031.165,3459.944,1011.04,3463.315,990.911z"/>
	<path fill="#E88B24" d="M3535.514,1044.097c-1.623-20.722-3.245-41.443-4.867-62.165c-0.5-6.396-10.5-5.982-9.993,0.46
		c1.622,20.722,3.244,41.444,4.867,62.165C3526.021,1050.954,3536.018,1050.54,3535.514,1044.097z"/>
	<path fill="#E88B24" d="M3615.373,1018.959c-5.417-20.898-10.831-41.793-16.248-62.688c-1.616-6.233-11.152-3.214-9.539,3.013
		c5.417,20.895,10.831,41.793,16.247,62.688C3607.447,1028.205,3616.986,1025.186,3615.373,1018.959z"/>
	<path fill="#E88B24" d="M3676.967,984.932l-34.426-56.27c-3.365-5.5-11.826-0.164-8.46,5.333
		c11.476,18.757,22.95,37.513,34.426,56.273C3671.871,995.766,3680.329,990.429,3676.967,984.932z"/>
	<path fill="#E88B24" d="M3720.975,938.065c-14.916-11.158-29.831-22.316-44.747-33.474c-5.111-3.822-11.983,3.452-6.835,7.305
		c14.916,11.158,29.831,22.316,44.747,33.471C3719.251,949.193,3726.123,941.919,3720.975,938.065z"/>
	<path fill="#E88B24" d="M3772.606,863.039c-21.701-5.917-43.403-11.835-65.104-17.749c-6.214-1.693-8.414,8.062-2.213,9.755
		c21.701,5.917,43.403,11.835,65.104,17.749C3776.608,874.491,3778.808,864.733,3772.606,863.039z"/>
	<path fill="#E88B24" d="M3795.253,794.224c-20.79-1.187-41.579-2.37-62.372-3.557c-6.412-0.365-5.924,9.632,0.46,9.993
		c20.79,1.187,41.579,2.37,62.372,3.557C3802.123,804.582,3801.637,794.589,3795.253,794.224z"/>
	<path fill="#F9A51B" d="M3335.805,655.766c9.919-22.808,24.541-42.315,43.662-58.226c4.95-4.119-2.228-11.093-7.138-7.008
		c-19.708,16.399-34.982,36.753-45.21,60.265C3324.579,656.65,3333.24,661.662,3335.805,655.766z"/>
	<path fill="#E88B24" d="M3605.244,508.968c8.139-18.54,16.275-37.084,24.414-55.624c2.58-5.88-7.014-8.726-9.573-2.898
		c-8.139,18.54-16.275,37.084-24.411,55.624C3593.088,511.949,3602.685,514.795,3605.244,508.968z"/>
	<path fill="#E88B24" d="M3527.838,485.7c-1.502,6.229,8.062,9.168,9.573,2.898c4.783-19.838,9.57-39.679,14.353-59.517
		c1.502-6.229-8.062-9.168-9.573-2.895C3537.408,446.02,3532.622,465.858,3527.838,485.7z"/>
	<path fill="#E88B24" d="M3454.753,416.622c0.155,20.784,0.309,41.57,0.46,62.354c0.046,6.415,10.049,6.712,10.002,0.247
		c-0.155-20.784-0.306-41.57-0.46-62.354C3464.709,410.454,3454.707,410.161,3454.753,416.622z"/>
	<path fill="#E88B24" d="M3384.238,431.225c3.924,21.229,7.849,42.454,11.773,63.679c1.171,6.332,10.898,3.995,9.728-2.33
		c-3.924-21.225-7.849-42.454-11.773-63.679C3392.794,422.564,3383.067,424.9,3384.238,431.225z"/>
	<path fill="#E88B24" d="M3320.389,460.812l30.363,58.562c2.967,5.723,11.782,0.998,8.816-4.722
		c-10.12-19.52-20.24-39.043-30.363-58.565C3326.241,450.368,3317.426,455.093,3320.389,460.812z"/>
	<path fill="#E88B24" d="M3259.215,517.15c14.091,12.184,28.178,24.368,42.269,36.552c4.827,4.175,12.199-2.599,7.333-6.804
		c-14.091-12.184-28.178-24.368-42.269-36.552C3261.721,506.171,3254.352,512.944,3259.215,517.15z"/>
	<path fill="#E88B24" d="M3202.408,588.338c21.229,7.435,42.457,14.872,63.686,22.307c6.081,2.129,8.964-7.447,2.896-9.573
		c-21.229-7.438-42.457-14.872-63.686-22.31C3199.225,576.633,3196.343,586.212,3202.408,588.338z"/>
	<path fill="#E88B24" d="M3171.91,663.253c20.654,2.651,41.307,5.306,61.964,7.957c6.368,0.819,6.591-9.187,0.247-10.002
		c-20.654-2.651-41.308-5.306-61.965-7.957C3165.785,652.435,3165.566,662.437,3171.91,663.253z"/>
	<path fill="#E88B24" d="M3741.242,747.151c20.175-1.709,40.353-3.421,60.528-5.133c6.399-0.544,4.313-10.333-2.03-9.795
		c-20.175,1.709-40.353,3.421-60.528,5.133C3732.813,737.902,3734.899,747.691,3741.242,747.151z"/>
	<path fill="#E88B24" d="M3790.977,673.197c-20.543,3.161-41.088,6.322-61.631,9.48c-6.341,0.977-5.185,10.914,1.202,9.931
		c20.543-3.161,41.088-6.319,61.631-9.48C3798.52,682.155,3797.364,672.214,3790.977,673.197z"/>
	<path fill="#E88B24" d="M3774.389,608.019c-20.434,6.956-40.869,13.911-61.306,20.867c-6.097,2.073-2.376,11.362,3.714,9.289
		c20.434-6.956,40.869-13.911,61.303-20.867C3784.197,615.234,3780.48,605.945,3774.389,608.019z"/>
	<path fill="#E88B24" d="M3743.94,551.61l-53.553,38.517c-5.234,3.764,0.717,11.804,5.948,8.04
		c17.851-12.839,35.702-25.678,53.553-38.517C3755.123,555.887,3749.171,547.846,3743.94,551.61z"/>
	<path fill="#E88B24" d="M3681.824,491.163c-10.018,15.704-20.033,31.41-30.051,47.114c-3.433,5.38,4.335,11.693,7.793,6.27
		c10.018-15.704,20.033-31.407,30.051-47.114C3693.047,492.056,3685.282,485.743,3681.824,491.163z"/>
	<path fill="#E88B24" d="M3228.881,712.938c-16.658,1.146-33.314,2.296-49.972,3.442c-6.406,0.442-5.985,10.438,0.46,9.993
		c16.658-1.146,33.314-2.293,49.972-3.442C3235.747,722.489,3235.326,712.493,3228.881,712.938z"/>
	<path fill="#E88B24" d="M3228.701,777.949c-18.352,1.607-36.7,3.214-55.049,4.82c-6.387,0.559-5.979,10.559,0.46,9.993
		c18.349-1.607,36.7-3.214,55.049-4.82C3235.549,787.383,3235.138,777.387,3228.701,777.949z"/>
	<path fill="#E88B24" d="M3241.324,822.229c-17.097,4.292-34.198,8.587-51.295,12.879c-6.245,1.57-3.223,11.106,3.013,9.539
		c17.1-4.292,34.198-8.587,51.298-12.879C3250.582,830.198,3247.56,820.663,3241.324,822.229z"/>
	<path fill="#E88B24" d="M3262.784,868.005c-16.702,7.404-33.4,14.811-50.102,22.214c-5.819,2.58-2.88,12.153,3.013,9.539
		c16.702-7.404,33.4-14.807,50.102-22.214C3271.613,874.964,3268.677,865.391,3262.784,868.005z"/>
	<path fill="#E88B24" d="M3290.561,912.359c-12.586,11.137-25.174,22.273-37.76,33.41c-4.83,4.273,2.521,11.065,7.305,6.835
		c12.586-11.137,25.171-22.273,37.76-33.41C3302.692,914.921,3295.341,908.126,3290.561,912.359z"/>
	<path fill="#E88B24" d="M3341.75,951.757c-10.676,14.27-21.349,28.54-32.022,42.809c-3.822,5.111,3.455,11.983,7.305,6.835
		c10.673-14.27,21.349-28.54,32.022-42.809C3352.877,953.482,3345.604,946.606,3341.75,951.757z"/>
</g>
<g>
	<path fill="#E88B24" d="M4475.832,665.196c17.784-8.96,36.596-16.112,56.261-21.421c-19.634,5.485-38.624,12.665-56.409,21.626
		L4475.832,665.196z"/>
	<path fill="#E88B24" d="M4564.061,636.564l0.031,0.176l-0.176,0.031c-5.437,0.921-10.667,1.984-15.896,3.05
		C4553.22,638.578,4558.627,637.483,4564.061,636.564z"/>
	<g>
		<circle fill="#FDC364" cx="4597.915" cy="955.062" r="284.076"/>
		<path fill="#F9A51B" d="M4651.22,1270.224c-173.782,29.396-339.078-88.074-368.474-261.856s88.074-339.077,261.855-368.474
			c173.782-29.396,339.078,88.074,368.474,261.856C4942.469,1075.533,4825.003,1240.83,4651.22,1270.224z M4556.469,710.04
			c-135.098,22.852-226.427,151.367-203.575,286.465s151.367,226.427,286.464,203.575
			c135.098-22.852,226.427-151.367,203.575-286.464C4820.083,778.52,4691.564,687.19,4556.469,710.04z"/>
	</g>
	<g>
		<g>
			<g>
				<path fill="#F9A51B" d="M4700.679,1001.426c7.12,42.096-13.163,80.75-51.638,101.639l8.369,49.48l-73.827,12.486l-7.599-44.925
					c-21.633,0.106-42.856-4.061-58.536-11.75l-16.205-7.924l13.798-77.949l27.976,12.555c14.837,6.537,33.65,8.849,50.3,6.035
					c12.407-2.099,26.221-9.282,23.988-22.476c-0.903-5.342-2.578-15.236-38.135-22.957c-44.573-9.427-91.546-26.363-100.763-80.868
					c-6.802-40.212,12.619-77.266,49.447-97.389l-8.155-48.222l73.355-12.406l7.36,43.512c16.343,0.144,31.671,2.883,46.167,8.349
					l18.823,7.157l-15.082,77.035l-26.345-9.601c-7.05-2.524-21.706-7.961-43.696-4.242c-7.856,1.328-21.072,5.342-19.185,16.493
					c0.876,5.185,1.834,10.837,42.501,20.116C4640.386,923.889,4690.584,941.733,4700.679,1001.426z"/>
			</g>
		</g>
	</g>
	<path fill="#F9A51B" d="M4444.634,1108.516c-41.048-45.744-58.939-106.294-49.719-166.994c0.964-6.351-8.82-8.432-9.788-2.057
		c-9.813,64.607,9.307,127.975,52.912,176.574C4442.325,1120.816,4448.895,1113.264,4444.634,1108.516z"/>
	<path fill="#F9A51B" d="M4456.767,782.801c-29.729,29.977-52.033,65.53-66.002,105.38c-2.104,6.001,6.818,10.541,8.946,4.471
		c13.702-39.092,35.395-73.834,64.575-103.257C4468.82,784.829,4461.292,778.237,4456.767,782.801z"/>
	<path fill="#F9A51B" d="M4751.982,784.548c-4.471-4.629-11.051,2.907-6.597,7.52c51.04,52.859,74.539,125.804,64.058,198.519
		c-0.915,6.354,8.871,8.437,9.79,2.059C4830.264,916.111,4805.68,840.16,4751.982,784.548z"/>
	<path fill="#F9A51B" d="M4797.775,1026.25c-9.821,36.714-28.583,69.298-55.189,96.417c-4.509,4.597,3.018,11.186,7.521,6.596
		c27.79-28.324,47.207-62.637,57.458-100.953C4809.232,1022.07,4799.435,1020.052,4797.775,1026.25z"/>
	<path fill="#F9A51B" d="M4781.479,953.452c3.568,24.615,1.4,48.898-6.488,72.489c-2.043,6.109,7.73,8.261,9.757,2.202
		c8.129-24.315,10.407-49.662,6.729-75.037C4790.562,946.791,4780.557,947.088,4781.479,953.452z"/>
	<path fill="#E88B24" d="M4634.924,1211.46c4.063,19.839,8.126,39.673,12.189,59.511c1.289,6.294,10.767,3.075,9.49-3.164
		c-4.063-19.838-8.127-39.673-12.19-59.511C4643.125,1202.002,4633.646,1205.221,4634.924,1211.46z"/>
	<path fill="#E88B24" d="M4711.557,1185.758c-2.371-5.956-11.875-2.83-9.49,3.164c7.549,18.961,15.099,37.918,22.648,56.88
		c2.371,5.956,11.875,2.83,9.49-3.164C4726.656,1223.677,4719.105,1204.719,4711.557,1185.758z"/>
	<path fill="#E88B24" d="M4800.867,1193.824c-12.127-16.881-24.254-33.761-36.381-50.642c-3.743-5.211-12.08,0.326-8.308,5.573
		c12.127,16.881,24.254,33.761,36.381,50.642C4796.302,1204.608,4804.637,1199.073,4800.867,1193.824z"/>
	<path fill="#E88B24" d="M4856.135,1130.937c-15.464-15.065-30.923-30.128-46.385-45.19c-4.612-4.493-11.203,3.031-6.596,7.52
		c15.462,15.062,30.923,30.128,46.384,45.19C4854.148,1142.951,4860.741,1135.425,4856.135,1130.937z"/>
	<path fill="#E88B24" d="M4891.174,1069.913l-58.605-30.28c-5.729-2.96-10.198,5.989-4.471,8.946
		c19.536,10.093,39.069,20.187,58.606,30.282C4892.432,1081.819,4896.898,1072.872,4891.174,1069.913z"/>
	<path fill="#E88B24" d="M4904.521,1007.024c-18.539-1.812-37.078-3.624-55.617-5.436c-6.352-0.62-8.459,9.162-2.06,9.79
		c18.54,1.812,37.078,3.624,55.616,5.433C4908.813,1017.433,4910.92,1007.651,4904.521,1007.024z"/>
	<path fill="#E88B24" d="M4909.792,916.101c-21.626,6.187-43.252,12.373-64.876,18.563c-6.192,1.773-3.018,11.256,3.164,9.489
		c21.626-6.187,43.252-12.373,64.877-18.563C4919.149,923.821,4915.973,914.335,4909.792,916.101z"/>
	<path fill="#E88B24" d="M4893.494,845.512c-18.395,9.76-36.788,19.523-55.185,29.285c-5.672,3.011-0.074,11.307,5.573,8.308
		c18.395-9.76,36.788-19.523,55.185-29.285C4904.737,850.81,4899.143,842.515,4893.494,845.512z"/>
	<path fill="#F9A51B" d="M4428.809,965.225c-3.338-24.646-0.943-48.907,7.164-72.424c2.099-6.088-7.655-8.332-9.737-2.294
		c-8.355,24.239-10.869,49.562-7.43,74.971C4419.666,971.799,4429.671,971.596,4428.809,965.225z"/>
	<path fill="#E88B24" d="M4583.153,700.036c-2.648-20.074-5.301-40.149-7.949-60.224c-0.841-6.366-10.521-3.827-9.689,2.483
		c2.648,20.074,5.301,40.149,7.952,60.222C4574.302,708.887,4583.985,706.346,4583.153,700.036z"/>
	<path fill="#E88B24" d="M4504.896,720.255c1.944,6.106,11.646,3.662,9.689-2.483c-6.191-19.445-12.381-38.894-18.571-58.339
		c-1.944-6.106-11.646-3.662-9.688,2.485C4492.515,681.361,4498.703,700.807,4504.896,720.255z"/>
	<path fill="#E88B24" d="M4406.59,699.058c10.904,17.694,21.809,35.391,32.71,53.087c3.364,5.462,12.072,0.532,8.683-4.973
		c-10.904-17.694-21.807-35.393-32.711-53.087C4411.908,688.623,4403.202,693.556,4406.59,699.058z"/>
	<path fill="#E88B24" d="M4353.854,748.093c14.359,16.121,28.716,32.239,43.073,48.358c4.283,4.808,11.391-2.232,7.111-7.034
		c-14.357-16.118-28.715-32.239-43.072-48.358C4356.683,736.251,4349.574,743.291,4353.854,748.093z"/>
	<path fill="#E88B24" d="M4314.584,806.488l56.318,34.347c5.503,3.357,10.593-5.253,5.092-8.607
		c-18.771-11.448-37.544-22.9-56.32-34.349C4314.176,794.523,4309.085,803.133,4314.584,806.488z"/>
	<path fill="#E88B24" d="M4291.466,886.374c18.365,3.117,36.728,6.236,55.093,9.353c6.292,1.069,9.086-8.545,2.745-9.619
		c-18.365-3.117-36.728-6.236-55.093-9.353C4287.919,875.686,4285.127,885.298,4291.466,886.374z"/>
	<path fill="#E88B24" d="M4279.78,976.697c22.008-4.644,44.018-9.286,66.026-13.93c6.304-1.331,3.807-11.015-2.485-9.688
		c-22.009,4.641-44.018,9.286-66.027,13.927C4270.991,968.336,4273.491,978.023,4279.78,976.697z"/>
	<path fill="#E88B24" d="M4292.524,1056.572c19.037-8.437,38.076-16.871,57.116-25.31c5.871-2.6,0.875-11.273-4.973-8.682
		c-19.038,8.437-38.076,16.872-57.116,25.31C4281.68,1050.494,4286.676,1059.162,4292.524,1056.572z"/>
	<path fill="#E88B24" d="M4822.906,833.247c16.368-11.918,32.737-23.84,49.104-35.76c5.191-3.782-1.667-11.073-6.813-7.325
		c-16.368,11.918-32.737,23.84-49.104,35.76C4810.904,829.707,4817.761,836.997,4822.906,833.247z"/>
	<path fill="#E88B24" d="M4827.11,744.225c-15.93,13.35-31.862,26.702-47.794,40.05c-4.917,4.121,1.222,12.021,6.175,7.87
		c15.93-13.35,31.864-26.699,47.794-40.05C4838.204,747.976,4832.063,740.074,4827.11,744.225z"/>
	<path fill="#E88B24" d="M4779.144,697.081c-13.871,16.539-27.742,33.079-41.615,49.62c-4.14,4.933,3.856,10.948,7.99,6.019
		c13.871-16.539,27.742-33.079,41.612-49.618C4791.271,698.168,4783.278,692.151,4779.144,697.081z"/>
	<path fill="#E88B24" d="M4723.868,664.621l-25.837,60.696c-2.526,5.932,6.731,9.723,9.254,3.793
		c8.612-20.232,17.224-40.464,25.836-60.696C4735.648,662.482,4726.391,658.691,4723.868,664.621z"/>
	<path fill="#E88B24" d="M4639.417,645.119c-0.428,18.622-0.853,37.245-1.281,55.867c-0.148,6.38,9.768,7.753,9.914,1.323
		c0.429-18.622,0.854-37.242,1.281-55.867C4649.478,640.066,4639.565,638.692,4639.417,645.119z"/>
	<path fill="#E88B24" d="M4366.997,1069.536c-13.652,9.614-27.3,19.229-40.953,28.844c-5.249,3.698,0.291,12.029,5.573,8.308
		c13.652-9.614,27.302-19.227,40.952-28.844C4377.819,1074.145,4372.279,1065.814,4366.997,1069.536z"/>
	<path fill="#E88B24" d="M4400.538,1125.227c-14.862,10.885-29.721,21.77-44.58,32.653c-5.172,3.789,0.359,12.129,5.573,8.308
		c14.859-10.884,29.721-21.77,44.58-32.653C4411.283,1129.746,4405.751,1121.41,4400.538,1125.227z"/>
	<path fill="#E88B24" d="M4434.283,1156.553c-12.397,12.532-24.795,25.068-37.193,37.599c-4.527,4.579,3,11.168,7.521,6.596
		c12.4-12.533,24.795-25.068,37.195-37.601C4446.33,1158.571,4438.804,1151.982,4434.283,1156.553z"/>
	<path fill="#E88B24" d="M4476.36,1184.579c-10.446,14.988-20.888,29.977-31.334,44.965c-3.639,5.222,3.835,11.886,7.52,6.596
		c10.446-14.988,20.89-29.974,31.334-44.965C4487.517,1185.955,4480.045,1179.289,4476.36,1184.579z"/>
	<path fill="#E88B24" d="M4523.103,1208.115c-4.992,16.047-9.986,32.096-14.977,48.142c-1.916,6.158,7.891,8.156,9.79,2.059
		c4.992-16.047,9.983-32.094,14.978-48.142C4534.806,1204.019,4524.997,1202.017,4523.103,1208.115z"/>
	<path fill="#E88B24" d="M4587.3,1215.278c-1.735,17.737-3.466,35.472-5.198,53.207c-0.62,6.352,9.165,8.458,9.79,2.059
		c1.732-17.735,3.466-35.472,5.198-53.207C4597.71,1210.986,4587.926,1208.876,4587.3,1215.278z"/>
</g>
<g>
	<path fill="#E88B24" d="M4105.537,1803.633c-6.448-18.842-10.963-38.454-13.537-58.66c2.753,20.199,7.271,39.992,13.719,58.833
		L4105.537,1803.633z"/>
	<path fill="#E88B24" d="M4089.222,1712.32l0.179-0.007l0.007,0.179c0.17,5.511,0.509,10.838,0.851,16.164
		C4089.736,1723.334,4089.391,1717.829,4089.222,1712.32z"/>
	<g>
		<circle fill="#FDC364" cx="4409.36" cy="1722.282" r="284.076"/>
		<path fill="#F9A51B" d="M4728.848,1712.519c5.387,176.168-133.558,323.872-309.726,329.259
			c-176.168,5.387-323.872-133.557-329.259-309.725s133.557-323.872,309.726-329.259
			C4575.759,1397.409,4723.464,1536.349,4728.848,1712.519z M4160.973,1729.876c4.187,136.953,119.024,244.978,255.978,240.791
			c136.953-4.187,244.978-119.025,240.791-255.977c-4.187-136.953-119.024-244.978-255.978-240.791
			C4264.813,1478.084,4156.787,1592.926,4160.973,1729.876z"/>
	</g>
	<g>
		<g>
			<g>
				<path fill="#F9A51B" d="M4469.323,1626.813c42.674-1.304,78.196,24.068,93.635,65.035l50.159-1.533l2.287,74.841l-45.541,1.392
					c-2.85,21.445-9.876,41.9-19.634,56.383l-10.063,14.971l-75.334-24.315l16.258-25.999c8.502-13.806,13.361-32.126,12.848-49.005
					c-0.385-12.578-5.614-27.243-18.989-26.833c-5.415,0.165-15.445,0.473-27.95,34.643c-15.426,42.868-38.618,87.088-93.872,88.775
					c-40.764,1.246-74.819-23.053-89.723-62.285l-48.884,1.493l-2.272-74.362l44.109-1.349c2.375-16.17,7.181-30.981,14.576-44.594
					l9.661-17.669l74.254,25.461l-13.109,24.787c-3.463,6.64-10.851,20.415-10.17,42.707c0.243,7.964,2.414,21.604,13.719,21.257
					c5.256-0.16,10.986-0.337,25.732-39.356C4384.279,1675.951,4408.812,1628.661,4469.323,1626.813z"/>
			</g>
		</g>
	</g>
	<path fill="#F9A51B" d="M4540.441,1895.085c-50.921,34.415-113.348,43.87-172.22,26.446c-6.16-1.822-9.557,7.586-3.374,9.416
		c62.661,18.544,128.047,8.258,182.146-28.301C4552.311,1899.051,4545.728,1891.511,4540.441,1895.085z"/>
	<path fill="#F9A51B" d="M4219.436,1838.581c25.636,33.545,57.81,60.495,95.378,79.776c5.658,2.904,11.374-5.315,5.651-8.252
		c-36.854-18.913-68.308-45.147-93.471-78.072C4223.091,1826.917,4215.533,1833.475,4219.436,1838.581z"/>
	<path fill="#F9A51B" d="M4261.484,1546.371c-5.196,3.797,1.371,11.344,6.549,7.562c59.334-43.342,134.805-56.659,205.407-36.345
		c6.169,1.774,9.57-7.635,3.377-9.417C4402.506,1486.79,4323.909,1500.771,4261.484,1546.371z"/>
	<path fill="#F9A51B" d="M4507.176,1534.017c35.029,14.743,64.745,37.78,87.976,67.84c3.938,5.095,11.494-1.462,7.562-6.549
		c-24.264-31.398-55.604-55.319-92.161-70.708C4504.6,1522.096,4501.262,1531.526,4507.176,1534.017z"/>
	<path fill="#F9A51B" d="M4432.834,1540.218c24.872-0.173,48.631,5.291,70.923,16.327c5.772,2.858,9.24-6.53,3.514-9.365
		c-22.977-11.373-47.775-17.092-73.415-16.914C4427.477,1530.31,4426.404,1540.263,4432.834,1540.218z"/>
	<path fill="#E88B24" d="M4668.41,1720.637c20.207-1.315,40.411-2.632,60.618-3.948c6.411-0.417,4.517-10.246-1.838-9.833
		c-20.208,1.315-40.411,2.632-60.618,3.948C4660.161,1711.221,4662.054,1721.05,4668.41,1720.637z"/>
	<path fill="#E88B24" d="M4653.415,1641.212c-6.224,1.535-4.425,11.378,1.838,9.833c19.814-4.889,39.625-9.779,59.44-14.668
		c6.224-1.535,4.425-11.378-1.838-9.833C4693.04,1631.433,4673.229,1636.323,4653.415,1641.212z"/>
	<path fill="#E88B24" d="M4673.602,1553.84c-18.379,9.708-36.757,19.416-55.136,29.124c-5.673,2.996-1.327,12.011,4.386,8.991
		c18.378-9.708,36.757-19.416,55.136-29.124C4683.661,1559.834,4679.316,1550.822,4673.602,1553.84z"/>
	<path fill="#E88B24" d="M4618.852,1490.501c-17.035,13.261-34.069,26.518-51.102,39.778c-5.081,3.956,1.473,11.512,6.549,7.562
		c17.033-13.26,34.069-26.518,51.102-39.778C4630.483,1494.11,4623.928,1486.551,4618.852,1490.501z"/>
	<path fill="#E88B24" d="M4563.186,1447.456l-38,53.921c-3.714,5.271,4.54,10.921,8.252,5.651
		c12.666-17.974,25.333-35.946,38.002-53.922C4575.152,1447.837,4566.898,1442.189,4563.186,1447.456z"/>
	<path fill="#E88B24" d="M4502.708,1425.646c-4.327,18.118-8.654,36.236-12.981,54.354c-1.482,6.208,7.921,9.631,9.417,3.377
		c4.327-18.118,8.654-36.236,12.978-54.352C4513.607,1422.815,4504.204,1419.391,4502.708,1425.646z"/>
	<path fill="#E88B24" d="M4413.357,1408.006c3.175,22.268,6.351,44.537,9.529,66.804c0.91,6.376,10.738,4.527,9.833-1.838
		c-3.175-22.268-6.351-44.537-9.529-66.804C4422.283,1399.791,4412.452,1401.642,4413.357,1408.006z"/>
	<path fill="#E88B24" d="M4341.204,1414.511c7.157,19.555,14.316,39.109,21.474,58.667c2.208,6.031,11.191,1.618,8.991-4.386
		c-7.157-19.555-14.316-39.109-21.474-58.667C4347.988,1404.097,4339.007,1408.506,4341.204,1414.511z"/>
	<path fill="#F9A51B" d="M4396.332,1891.191c-24.871-0.059-48.578-5.745-70.768-16.987c-5.744-2.91-9.299,6.445-3.602,9.332
		c22.871,11.588,47.613,17.536,73.253,17.599C4401.596,1901.146,4402.761,1891.207,4396.332,1891.191z"/>
	<path fill="#E88B24" d="M4154.707,1702.076c-20.248-0.118-40.497-0.232-60.745-0.35c-6.421-0.036-5.228,9.9,1.136,9.937
		c20.248,0.118,40.497,0.232,60.744,0.347C4162.266,1712.052,4161.072,1702.113,4154.707,1702.076z"/>
	<path fill="#E88B24" d="M4164.049,1782.361c6.314-1.092,5.218-11.037-1.136-9.938c-20.108,3.477-40.22,6.953-60.329,10.43
		c-6.314,1.092-5.219,11.037,1.139,9.936C4123.828,1789.314,4143.938,1785.84,4164.049,1782.361z"/>
	<path fill="#E88B24" d="M4129.625,1876.85c19.018-8.385,38.038-16.771,57.057-25.154c5.871-2.587,2.176-11.887-3.74-9.28
		c-19.018,8.385-38.039,16.769-57.057,25.154C4120.014,1870.157,4123.711,1879.456,4129.625,1876.85z"/>
	<path fill="#E88B24" d="M4170.998,1935.789c17.931-12.022,35.859-24.043,53.787-36.064c5.348-3.586-0.655-11.589-5.997-8.005
		c-17.928,12.021-35.859,24.043-53.787,36.064C4159.653,1931.37,4165.656,1939.373,4170.998,1935.789z"/>
	<path fill="#E88B24" d="M4223.483,1982.667l41.716-51.1c4.077-4.993-3.757-11.212-7.831-6.22
		c-13.905,17.032-27.813,34.065-41.719,51.101C4211.574,1981.437,4219.408,1987.656,4223.483,1982.667z"/>
	<path fill="#E88B24" d="M4299.462,2016.478c5.596-17.767,11.193-35.532,16.789-53.299c1.918-6.087-7.224-10.168-9.154-4.032
		c-5.596,17.767-11.193,35.532-16.789,53.299C4288.39,2018.532,4297.531,2022.611,4299.462,2016.478z"/>
	<path fill="#E88B24" d="M4387.343,2040.391c-1.595-22.436-3.187-44.874-4.782-67.31c-0.458-6.427-10.392-5.275-9.936,1.139
		c1.592,22.438,3.187,44.874,4.779,67.311C4377.86,2047.955,4387.797,2046.802,4387.343,2040.391z"/>
	<path fill="#E88B24" d="M4468.21,2038.675c-5.758-20.011-11.513-40.024-17.272-60.038c-1.774-6.171-11.047-2.407-9.28,3.74
		c5.758,20.011,11.513,40.024,17.272,60.038C4460.708,2048.587,4469.977,2044.822,4468.21,2038.675z"/>
	<path fill="#E88B24" d="M4319.414,1482.762c-9.57-17.842-19.145-35.686-28.718-53.527c-3.038-5.659-11.196,0.139-8.187,5.749
		c9.571,17.842,19.145,35.686,28.719,53.527C4314.267,1494.169,4322.426,1488.371,4319.414,1482.762z"/>
	<path fill="#E88B24" d="M4231.8,1466.439c11.049,17.604,22.1,35.211,33.147,52.816c3.411,5.433,12.075,0.431,8.64-5.042
		c-11.05-17.604-22.098-35.212-33.147-52.816C4237.031,1455.962,4228.364,1460.966,4231.8,1466.439z"/>
	<path fill="#E88B24" d="M4178.546,1507.518c14.49,16,28.98,31.999,43.471,48.002c4.322,4.774,11.373-2.325,7.054-7.094
		c-14.49-16-28.98-31.999-43.47-47.999C4181.28,1495.652,4174.228,1502.749,4178.546,1507.518z"/>
	<path fill="#E88B24" d="M4138.841,1557.843l56.599,33.884c5.531,3.312,10.551-5.34,5.021-8.649
		c-18.866-11.295-37.732-22.589-56.599-33.884C4138.332,1545.881,4133.312,1554.533,4138.841,1557.843z"/>
	<path fill="#E88B24" d="M4107.989,1638.839c18.389,2.968,36.779,5.931,55.168,8.899c6.3,1.018,9.014-8.617,2.665-9.641
		c-18.389-2.968-36.777-5.933-55.168-8.899C4104.357,1628.182,4101.642,1637.814,4107.989,1638.839z"/>
	<path fill="#E88B24" d="M4491.223,1966.67c7.66,14.837,15.321,29.671,22.98,44.508c2.946,5.705,11.956,1.354,8.991-4.386
		c-7.66-14.837-15.318-29.672-22.98-44.508C4497.268,1956.579,4488.258,1960.929,4491.223,1966.67z"/>
	<path fill="#E88B24" d="M4550.974,1941.049c8.754,16.209,17.506,32.416,26.259,48.622c3.047,5.641,12.064,1.301,8.991-4.386
		c-8.752-16.206-17.506-32.416-26.259-48.622C4556.917,1931.022,4547.904,1935.364,4550.974,1941.049z"/>
	<path fill="#E88B24" d="M4586.615,1911.899c10.721,13.993,21.447,27.987,32.168,41.979c3.917,5.11,11.473-1.446,7.562-6.549
		c-10.723-13.995-21.447-27.987-32.169-41.982C4590.259,1900.24,4582.704,1906.796,4586.615,1911.899z"/>
	<path fill="#E88B24" d="M4620.125,1874.043c13.421,12.395,26.843,24.786,40.264,37.182c4.676,4.318,12.298-2.177,7.562-6.549
		c-13.421-12.395-26.84-24.788-40.264-37.182C4623.011,1863.179,4615.388,1869.671,4620.125,1874.043z"/>
	<path fill="#E88B24" d="M4649.825,1830.953c15.215,7.136,30.431,14.276,45.646,21.412c5.838,2.739,9.158-6.703,3.377-9.417
		c-15.215-7.136-30.43-14.273-45.646-21.412C4647.364,1818.801,4644.042,1828.244,4649.825,1830.953z"/>
	<path fill="#E88B24" d="M4665.688,1768.336c17.334,4.141,34.667,8.278,51.999,12.416c6.208,1.482,9.63-7.924,3.377-9.417
		c-17.333-4.138-34.667-8.278-51.999-12.416C4662.857,1757.437,4659.431,1766.842,4665.688,1768.336z"/>
</g>
<g>
	<path fill="#E88B24" d="M2243.909,97.041c15.221,12.841,29.181,27.337,41.782,43.341c-12.75-15.906-26.807-30.555-42.028-43.396
		L2243.909,97.041z"/>
	<path fill="#E88B24" d="M2304.869,166.955l-0.15,0.098l-0.098-0.15c-2.98-4.639-6.011-9.032-9.044-13.424
		C2298.763,157.774,2301.891,162.318,2304.869,166.955z"/>
	<g>
		<circle fill="#FDC364" cx="2025.208" cy="323.087" r="284.076"/>
		<path fill="#F9A51B" d="M1756.25,495.8c-95.238-148.304-52.062-346.439,96.242-441.677s346.439-52.061,441.677,96.242
			s52.062,346.439-96.242,441.677C2049.621,687.278,1851.486,644.106,1756.25,495.8z M2234.308,188.807
			c-74.037-115.292-228.084-148.858-343.375-74.822c-115.292,74.037-148.859,228.084-74.822,343.375
			c74.037,115.292,228.084,148.859,343.375,74.822C2274.777,458.148,2308.343,304.097,2234.308,188.807z"/>
	</g>
	<g>
		<g>
			<g>
				<path fill="#F9A51B" d="M2022.894,435.802c-35.925,23.07-79.438,19.583-113.75-7.607l-42.226,27.116l-40.458-63.004
					l38.338-24.62c-8.587-19.856-13.084-41.012-12.165-58.451l0.928-18.015l77.11-17.899l-0.568,30.659
					c-0.19,16.213,5.067,34.423,14.189,48.633c6.8,10.588,18.828,20.475,30.087,13.244c4.559-2.927,13.002-8.35,6.149-44.085
					c-8.822-44.696-11.679-94.548,34.836-124.416c34.316-22.037,76.02-18.716,108.981,7.261l41.153-26.426l40.199,62.602
					l-37.133,23.846c6.281,15.088,9.778,30.262,10.439,45.739l0.804,20.122l-76.774,16.361l-1.508-27.999
					c-0.446-7.475-1.196-23.089-13.247-41.855c-4.305-6.704-13.183-17.285-22.699-11.173c-4.425,2.841-9.248,5.94-1.822,46.986
					C2070.548,349.917,2073.836,403.09,2022.894,435.802z"/>
			</g>
		</g>
	</g>
	<path fill="#F9A51B" d="M1823.911,242.325c25.965-55.706,74.636-95.926,134.085-111.266c6.22-1.606,4.294-11.422-1.949-9.81
		c-63.275,16.329-114.056,58.784-141.643,117.963C1811.692,245.028,1821.216,248.108,1823.911,242.325z"/>
	<path fill="#F9A51B" d="M2128.257,125.659c-39.239-15.58-80.693-22.142-122.828-19.351c-6.346,0.42-7.02,10.408-0.602,9.983
		c41.333-2.739,81.802,3.579,120.316,18.871C2131.122,137.541,2134.23,128.03,2128.257,125.659z"/>
	<path fill="#F9A51B" d="M2242.506,397.876c2.503-5.929-7.01-9.023-9.506-3.116c-28.588,67.689-86.459,117.93-157.453,136.827
		c-6.203,1.652-4.279,11.47,1.948,9.813C2152.219,521.51,2212.429,469.091,2242.506,397.876z"/>
	<path fill="#F9A51B" d="M2038.166,534.85c-37.623,5.375-74.956,0.905-110.34-12.923c-5.998-2.343-9.104,7.165-3.116,9.506
		c36.958,14.445,76.138,18.837,115.404,13.23C2046.507,543.748,2044.519,533.945,2038.166,534.85z"/>
	<path fill="#F9A51B" d="M2098.728,491.293c-21.24,12.942-44.426,20.478-69.219,22.48c-6.42,0.518-4.564,10.353,1.804,9.838
		c25.554-2.066,49.762-9.917,71.658-23.259C2108.419,497.033,2104.219,487.947,2098.728,491.293z"/>
	<path fill="#E88B24" d="M1803.904,457.749c-16.652,11.522-33.301,23.044-49.953,34.567c-5.283,3.655,1.397,11.11,6.634,7.487
		c16.652-11.522,33.301-23.044,49.953-34.567C1815.821,461.58,1809.141,454.126,1803.904,457.749z"/>
	<path fill="#E88B24" d="M1857.618,518.147c4.548-4.518-2.058-12.033-6.634-7.487c-14.478,14.385-28.951,28.769-43.428,43.154
		c-4.548,4.518,2.057,12.033,6.634,7.487C1828.667,546.916,1843.141,532.532,1857.618,518.147z"/>
	<path fill="#E88B24" d="M1885.249,603.458c10.767-17.779,21.534-35.558,32.302-53.337c3.324-5.488-5.041-10.983-8.386-5.454
		c-10.767,17.779-21.534,35.558-32.302,53.337C1873.539,603.492,1881.901,608.985,1885.249,603.458z"/>
	<path fill="#E88B24" d="M1964.781,629.612c7.788-20.135,15.576-40.266,23.361-60.398c2.322-6.006-7.185-9.114-9.506-3.116
		c-7.786,20.133-15.576,40.266-23.361,60.398C1952.95,632.5,1962.46,635.611,1964.781,629.612z"/>
	<path fill="#E88B24" d="M2034.66,637.892l4.851-65.787c0.474-6.431-9.511-7.03-9.983-0.602c-1.616,21.93-3.235,43.857-4.853,65.789
		C2024.203,643.721,2034.185,644.318,2034.66,637.892z"/>
	<path fill="#E88B24" d="M2097.742,625.487c-5.609-17.763-11.218-35.526-16.827-53.289c-1.923-6.086-11.747-4.185-9.813,1.948
		c5.609,17.763,11.218,35.526,16.829,53.286C2089.852,633.52,2099.676,631.619,2097.742,625.487z"/>
	<path fill="#E88B24" d="M2183.439,594.653c-14.177-17.463-28.355-34.926-42.534-52.387c-4.06-5-11.537,1.642-7.487,6.634
		c14.177,17.463,28.355,34.926,42.534,52.387C2180.01,606.289,2187.489,599.645,2183.439,594.653z"/>
	<path fill="#E88B24" d="M2241.969,551.96c-16.196-13.089-32.394-26.175-48.593-39.265c-4.996-4.036-10.429,4.369-5.454,8.386
		c16.196,13.089,32.394,26.175,48.593,39.265C2241.508,564.38,2246.942,555.98,2241.969,551.96z"/>
	<path fill="#F9A51B" d="M1949.496,171.535c21.359-12.742,44.614-20.061,69.425-21.834c6.423-0.459,4.66-10.311-1.711-9.856
		c-25.573,1.827-49.851,9.454-71.872,22.588C1939.861,165.706,1943.974,174.829,1949.496,171.535z"/>
	<path fill="#E88B24" d="M2253.981,209.425c17.424-10.314,34.848-20.632,52.272-30.946c5.526-3.272-0.609-11.179-6.086-7.937
		c-17.424,10.314-34.848,20.632-52.27,30.948C2242.368,204.758,2248.504,212.667,2253.981,209.425z"/>
	<path fill="#E88B24" d="M2204.673,145.38c-4.853,4.184,1.202,12.149,6.086,7.937c15.455-13.325,30.915-26.651,46.37-39.976
		c4.853-4.185-1.202-12.149-6.088-7.935C2235.588,118.729,2220.13,132.053,2204.673,145.38z"/>
	<path fill="#E88B24" d="M2185.59,46.643c-11.996,16.973-23.993,33.949-35.991,50.92c-3.704,5.238,4.249,11.312,7.981,6.034
		c11.996-16.973,23.996-33.947,35.991-50.92C2197.275,47.439,2189.321,41.367,2185.59,46.643z"/>
	<path fill="#E88B24" d="M2119.792,17.382c-9.193,19.533-18.384,39.064-27.574,58.595c-2.741,5.826,6.523,9.602,9.261,3.78
		c9.191-19.531,18.384-39.064,27.574-58.595C2131.794,15.336,2122.53,11.56,2119.792,17.382z"/>
	<path fill="#E88B24" d="M2050.67,4.179l-9.489,65.279c-0.928,6.379,8.989,7.682,9.915,1.306
		c3.163-21.758,6.329-43.519,9.491-65.282C2061.516-0.892,2051.599-2.196,2050.67,4.179z"/>
	<path fill="#E88B24" d="M1968.121,14.267c4.34,18.115,8.678,36.228,13.019,54.343c1.486,6.206,11.426,5.004,9.925-1.251
		c-4.34-18.115-8.678-36.228-13.019-54.343C1976.56,6.81,1966.623,8.014,1968.121,14.267z"/>
	<path fill="#E88B24" d="M1880.458,38.965c12.909,18.42,25.815,36.842,38.724,55.262c3.698,5.276,11.625-0.821,7.935-6.088
		c-12.907-18.422-25.815-36.842-38.722-55.265C1884.699,27.6,1876.771,33.7,1880.458,38.965z"/>
	<path fill="#E88B24" d="M1811.993,82.033c15.231,14.199,30.461,28.401,45.695,42.601c4.696,4.379,10.712-3.619,6.034-7.981
		c-15.231-14.199-30.461-28.401-45.695-42.601C1813.327,69.673,1807.315,77.671,1811.993,82.033z"/>
	<path fill="#E88B24" d="M2225.548,482.222c17.385,10.378,34.775,20.755,52.162,31.131c5.516,3.29,9.53-5.878,4.064-9.141
		c-17.385-10.378-34.775-20.755-52.162-31.131C2224.094,469.793,2220.079,478.962,2225.548,482.222z"/>
	<path fill="#E88B24" d="M2309.078,451.152c-18.531-9.413-37.064-18.827-55.593-28.242c-5.72-2.905-10.577,5.842-4.816,8.768
		c18.531,9.413,37.062,18.83,55.593,28.242C2309.981,462.828,2314.84,454.079,2309.078,451.152z"/>
	<path fill="#E88B24" d="M2333.616,388.533c-20.656-6.267-41.312-12.534-61.971-18.803c-6.162-1.871-8.557,7.844-2.4,9.712
		c20.656,6.267,41.312,12.534,61.968,18.801C2337.375,400.114,2339.772,390.4,2333.616,388.533z"/>
	<path fill="#E88B24" d="M2341.779,324.952l-65.966,0.056c-6.447,0.005-6.302,10.007,0.143,10
		c21.989-0.019,43.978-0.037,65.966-0.056C2348.369,334.948,2348.223,324.946,2341.779,324.952z"/>
	<path fill="#E88B24" d="M2326.573,239.623c-17.296,6.914-34.592,13.832-51.888,20.746c-5.926,2.368-3.297,12.027,2.674,9.638
		c17.296-6.914,34.59-13.83,51.888-20.746C2335.169,246.894,2332.543,237.237,2326.573,239.623z"/>
	<path fill="#E88B24" d="M1829.296,155.619c-14.201-8.784-28.401-17.564-42.601-26.348c-5.461-3.377-10.95,4.988-5.454,8.386
		c14.201,8.784,28.399,17.566,42.601,26.348C1829.303,167.382,1834.791,159.017,1829.296,155.619z"/>
	<path fill="#E88B24" d="M1791.235,208.325c-15.845-9.398-31.687-18.793-47.529-28.189c-5.515-3.271-11.015,5.09-5.454,8.386
		c15.842,9.396,31.687,18.793,47.529,28.189C1791.296,219.982,1796.792,211.622,1791.235,208.325z"/>
	<path fill="#E88B24" d="M1775.665,251.656c-16.392-6.485-32.788-12.968-49.179-19.453c-5.988-2.367-9.095,7.142-3.116,9.506
		c16.394,6.486,32.788,12.968,49.182,19.455C1778.537,263.529,1781.644,254.02,1775.665,251.656z"/>
	<path fill="#E88B24" d="M1766.401,301.357c-17.885-3.726-35.77-7.448-53.655-11.174c-6.231-1.297-9.427,8.193-3.116,9.506
		c17.885,3.726,35.768,7.451,53.654,11.174C1769.514,312.158,1772.712,302.67,1766.401,301.357z"/>
	<path fill="#E88B24" d="M1763.097,353.586c-16.719,1.706-33.439,3.411-50.158,5.118c-6.416,0.655-4.405,10.459,1.948,9.813
		c16.719-1.706,33.437-3.413,50.158-5.118C1771.457,362.742,1769.449,352.935,1763.097,353.586z"/>
	<path fill="#E88B24" d="M1781.702,415.444c-16.995,5.365-33.987,10.733-50.979,16.1c-6.086,1.923-4.182,11.749,1.948,9.813
		c16.992-5.367,33.987-10.733,50.979-16.1C1789.736,423.334,1787.837,413.507,1781.702,415.444z"/>
</g>
<g>
	<path fill="#E88B24" d="M1339.084,1857.061c19.582-3.625,39.643-5.225,60.008-4.818c-20.385-0.229-40.625,1.349-60.207,4.974
		L1339.084,1857.061z"/>
	<path fill="#E88B24" d="M1431.8,1854.266l-0.02,0.178l-0.178-0.02c-5.477-0.638-10.796-1.081-16.114-1.521
		C1420.829,1853.165,1426.326,1853.628,1431.8,1854.266z"/>
	<g>
		<circle fill="#FDC364" cx="1375.16" cy="2169.511" r="284.076"/>
		<path fill="#F9A51B" d="M1338.128,2486.996c-175.064-20.417-300.876-179.455-280.459-354.519s179.455-300.876,354.519-280.459
			s300.876,179.455,280.459,354.519C1672.227,2381.601,1513.192,2507.416,1338.128,2486.996z M1403.947,1922.681
			c-136.094-15.873-259.742,81.945-275.615,218.039c-15.873,136.094,81.945,259.742,218.039,275.615
			c136.094,15.873,259.742-81.945,275.615-218.039C1637.86,2062.205,1540.039,1938.554,1403.947,1922.681z"/>
	</g>
	<g>
		<g>
			<g>
				<path fill="#F9A51B" d="M1460.841,2242.783c-4.946,42.407-35.237,73.839-78.021,83.125l-5.814,49.845l-74.371-8.675
					l5.278-45.256c-20.798-5.952-40.007-15.893-52.908-27.663l-13.34-12.142l35.063-70.972l23.344,19.883
					c12.415,10.429,29.829,17.913,46.601,19.872c12.499,1.457,27.771-1.573,29.32-14.864c0.628-5.381,1.789-15.348-30.186-32.713
					c-40.153-21.525-80.509-50.931-74.103-105.838c4.724-40.508,33.74-70.647,74.729-79.657l5.667-48.577l73.896,8.62l-5.112,43.833
					c15.65,4.712,29.599,11.632,41.985,20.936l16.067,12.14l-36.04,69.736l-22.605-16.591c-6.062-4.396-18.61-13.718-40.763-16.302
					c-7.913-0.923-21.725-0.769-23.034,10.465c-0.609,5.223-1.272,10.917,35.173,31.207
					C1424.658,2151.471,1467.856,2182.651,1460.841,2242.783z"/>
			</g>
		</g>
	</g>
	<path fill="#F9A51B" d="M1185.056,2273.931c-26.604-55.404-26.834-118.542-0.993-174.235c2.703-5.827-6.108-10.563-8.821-4.714
		c-27.502,59.278-26.882,125.466,1.378,184.326C1179.397,2285.094,1187.818,2279.683,1185.056,2273.931z"/>
	<path fill="#F9A51B" d="M1287.865,1964.63c-36.931,20.458-68.294,48.348-92.858,82.696c-3.7,5.173,3.595,12.028,7.337,6.797
		c24.096-33.695,54.645-60.977,90.894-81.057C1298.87,1969.95,1293.487,1961.515,1287.865,1964.63z"/>
	<path fill="#F9A51B" d="M1570.794,2048.932c-2.997-5.695-11.423-0.302-8.438,5.374c34.205,65.031,36.35,141.638,5.936,208.513
		c-2.657,5.844,6.155,10.583,8.822,4.717C1609.125,2197.147,1606.781,2117.35,1570.794,2048.932z"/>
	<path fill="#F9A51B" d="M1547.109,2293.79c-19.704,32.498-46.836,58.529-79.969,77.117c-5.615,3.151-0.234,11.583,5.374,8.438
		c34.607-19.414,62.851-46.922,83.417-80.837C1559.278,2292.985,1550.437,2288.304,1547.109,2293.79z"/>
	<path fill="#F9A51B" d="M1551.839,2219.341c-3.464,24.63-12.342,47.336-26.517,67.776c-3.671,5.293,5.11,10.094,8.751,4.845
		c14.609-21.068,23.891-44.764,27.461-70.155C1562.423,2215.489,1552.734,2212.973,1551.839,2219.341z"/>
	<path fill="#E88B24" d="M1338.929,2426.02c-1.652,20.183-3.302,40.362-4.954,60.544c-0.524,6.403,9.476,5.966,9.996-0.381
		c1.652-20.183,3.302-40.362,4.954-60.544C1349.45,2419.235,1339.449,2419.673,1338.929,2426.02z"/>
	<path fill="#E88B24" d="M1419.693,2422.793c-0.609-6.382-10.609-6.041-9.996,0.382c1.94,20.316,3.883,40.629,5.824,60.945
		c0.608,6.382,10.609,6.041,9.996-0.381C1423.576,2463.422,1421.633,2443.11,1419.693,2422.793z"/>
	<path fill="#E88B24" d="M1503.176,2455.533c-6.918-19.6-13.836-39.2-20.754-58.801c-2.135-6.05-11.689-3.068-9.535,3.025
		c6.918,19.6,13.836,39.2,20.754,58.801C1495.776,2464.608,1505.327,2461.627,1503.176,2455.533z"/>
	<path fill="#E88B24" d="M1573.836,2410.627c-10.629-18.791-21.255-37.579-31.883-56.366c-3.171-5.604-11.604-0.225-8.438,5.374
		c10.628,18.788,21.255,37.579,31.883,56.366C1568.566,2421.605,1577.002,2416.226,1573.836,2410.627z"/>
	<path fill="#E88B24" d="M1624.555,2361.849l-47.788-45.472c-4.671-4.445-11.467,2.896-6.796,7.337
		c15.93,15.157,31.858,30.315,47.789,45.475C1622.429,2373.631,1629.222,2366.292,1624.555,2361.849z"/>
	<path fill="#E88B24" d="M1654.969,2305.208c-17.291-6.928-34.582-13.857-51.873-20.785c-5.925-2.373-10.685,6.429-4.717,8.822
		c17.291,6.928,34.582,13.857,51.872,20.782C1656.177,2316.404,1660.938,2307.602,1654.969,2305.208z"/>
	<path fill="#E88B24" d="M1685.477,2219.395c-22.493-0.113-44.987-0.227-67.479-0.337c-6.441-0.031-6.047,9.961,0.381,9.996
		c22.493,0.113,44.987,0.227,67.479,0.337C1692.3,2229.425,1691.906,2219.429,1685.477,2219.395z"/>
	<path fill="#E88B24" d="M1689.587,2147.066c-20.391,4.222-40.781,8.447-61.176,12.669c-6.289,1.303-3.236,10.834,3.025,9.535
		c20.391-4.222,40.781-8.447,61.176-12.669C1698.898,2155.299,1695.849,2145.77,1689.587,2147.066z"/>
	<path fill="#F9A51B" d="M1209.968,2131.938c3.694-24.595,12.783-47.217,27.147-67.525c3.719-5.258-5.017-10.142-8.706-4.927
		c-14.806,20.932-24.306,44.539-28.116,69.895C1199.351,2135.69,1209.013,2138.296,1209.968,2131.938z"/>
	<path fill="#E88B24" d="M1432.365,1920.545c3.076-20.013,6.148-40.028,9.224-60.042c0.974-6.347-9.03-6.619-9.997-0.328
		c-3.076,20.013-6.148,40.028-9.221,60.041C1421.391,1926.565,1431.398,1926.836,1432.365,1920.545z"/>
	<path fill="#E88B24" d="M1351.576,1918.053c0.158,6.406,10.156,6.776,9.997,0.328c-0.501-20.401-1-40.805-1.502-61.205
		c-0.158-6.406-10.156-6.776-9.996-0.325C1350.576,1877.249,1351.074,1897.65,1351.576,1918.053z"/>
	<path fill="#E88B24" d="M1263.132,1870.19c5.516,20.039,11.032,40.081,16.545,60.12c1.701,6.185,11.441,3.889,9.727-2.344
		c-5.516-20.039-11.029-40.082-16.545-60.12C1271.158,1861.66,1261.419,1863.96,1263.132,1870.19z"/>
	<path fill="#E88B24" d="M1198.78,1902.506c9.273,19.495,18.545,38.988,27.817,58.48c2.766,5.814,11.561,1.046,8.796-4.763
		c-9.272-19.492-18.545-38.988-27.817-58.48C1204.809,1891.929,1196.015,1896.697,1198.78,1902.506z"/>
	<path fill="#E88B24" d="M1144.735,1947.576l44.455,48.736c4.344,4.763,11.64-2.078,7.298-6.838
		c-14.817-16.245-29.635-32.493-44.455-48.739C1147.693,1935.975,1140.396,1942.816,1144.735,1947.576z"/>
	<path fill="#E88B24" d="M1100.183,2017.799c16.759,8.132,33.515,16.266,50.273,24.398c5.741,2.787,11.115-5.661,5.327-8.467
		c-16.759-8.132-33.515-16.266-50.273-24.398C1099.77,2006.545,1094.399,2014.992,1100.183,2017.799z"/>
	<path fill="#E88B24" d="M1063.684,2101.241c22.428,1.701,44.858,3.405,67.286,5.106c6.425,0.487,6.737-9.509,0.325-9.996
		c-22.429-1.704-44.857-3.405-67.287-5.109C1057.587,2090.755,1057.275,2100.754,1063.684,2101.241z"/>
	<path fill="#E88B24" d="M1053.564,2181.491c20.638-2.772,41.277-5.541,61.918-8.313c6.364-0.853,3.995-10.577-2.344-9.727
		c-20.638,2.772-41.277,5.54-61.918,8.313C1044.854,2172.621,1047.224,2182.341,1053.564,2181.491z"/>
	<path fill="#E88B24" d="M1625.253,2115.535c19.049-6.86,38.101-13.724,57.15-20.587c6.042-2.178,1.499-11.097-4.49-8.939
		c-19.049,6.86-38.101,13.724-57.15,20.588C1614.721,2108.776,1619.264,2117.695,1625.253,2115.535z"/>
	<path fill="#E88B24" d="M1654.205,2031.247c-19.03,8.358-38.062,16.717-57.093,25.073c-5.874,2.581-2.191,11.883,3.726,9.284
		c19.03-8.358,38.063-16.714,57.093-25.073C1663.805,2037.953,1660.121,2028.648,1654.205,2031.247z"/>
	<path fill="#E88B24" d="M1621.35,1972.562c-17.945,11.996-35.891,23.992-53.839,35.989c-5.355,3.577,0.638,11.59,5.987,8.015
		c17.945-11.996,35.891-23.992,53.836-35.989C1632.688,1977,1626.699,1968.986,1621.35,1972.562z"/>
	<path fill="#E88B24" d="M1577.368,1925.929l-41.792,51.039c-4.085,4.988,3.74,11.219,7.823,6.232
		c13.931-17.013,27.861-34.026,41.792-51.039C1589.276,1927.173,1581.45,1920.942,1577.368,1925.929z"/>
	<path fill="#E88B24" d="M1501.75,1883.57c-5.623,17.758-11.243,35.518-16.866,53.276c-1.928,6.084,7.208,10.177,9.148,4.045
		c5.623-17.758,11.244-35.515,16.866-53.276C1512.823,1881.535,1503.692,1877.441,1501.75,1883.57z"/>
	<path fill="#E88B24" d="M1121.432,2214.78c-15.797,5.409-31.591,10.82-47.389,16.229c-6.074,2.081-3.087,11.63,3.025,9.535
		c15.797-5.409,31.592-10.817,47.389-16.229C1130.531,2222.235,1127.544,2212.686,1121.432,2214.78z"/>
	<path fill="#E88B24" d="M1138.045,2277.633c-17.315,6.291-34.626,12.581-51.938,18.871c-6.026,2.189-3.05,11.744,3.025,9.535
		c17.311-6.29,34.626-12.581,51.938-18.871C1147.097,2284.979,1144.119,2275.428,1138.045,2277.633z"/>
	<path fill="#E88B24" d="M1161.674,2317.152c-15.409,8.561-30.82,17.126-46.229,25.688c-5.628,3.129-0.246,11.561,5.374,8.438
		c15.412-8.562,30.821-17.126,46.233-25.688C1172.676,2322.461,1167.294,2314.029,1161.674,2317.152z"/>
	<path fill="#E88B24" d="M1194.226,2355.834c-14.224,11.465-28.443,22.933-42.667,34.398c-4.955,3.995,0.356,12.484,5.374,8.437
		c14.224-11.465,28.444-22.929,42.667-34.398C1204.552,2360.278,1199.244,2351.787,1194.226,2355.834z"/>
	<path fill="#E88B24" d="M1232.514,2391.512c-9.283,14.009-18.57,28.018-27.853,42.027c-3.562,5.376,5.293,10.039,8.822,4.717
		c9.283-14.009,18.567-28.017,27.853-42.027C1244.895,2390.855,1236.039,2386.188,1232.514,2391.512z"/>
	<path fill="#E88B24" d="M1292.14,2416.357c-6.629,16.542-13.256,33.084-19.882,49.626c-2.373,5.925,6.432,10.685,8.822,4.717
		c6.626-16.542,13.256-33.084,19.882-49.626C1303.335,2415.149,1294.533,2410.385,1292.14,2416.357z"/>
</g>
<g>
	<path fill="#E88B24" d="M3359.81,3610.769c-3.573,19.591-9.209,38.911-16.829,57.801c7.461-18.971,13.181-38.451,16.754-58.042
		L3359.81,3610.769z"/>
	<path fill="#E88B24" d="M3329.461,3698.423l-0.159-0.082l0.082-0.159c2.543-4.892,4.848-9.707,7.15-14.521
		C3334.391,3688.56,3332.004,3693.533,3329.461,3698.423z"/>
	<g>
		<circle fill="#FDC364" cx="3054.945" cy="3533.413" r="284.076"/>
		<path fill="#F9A51B" d="M2771.364,3385.934c81.318-156.37,274.694-217.426,431.063-136.108
			c156.37,81.318,217.426,274.694,136.108,431.063c-81.318,156.37-274.694,217.426-431.064,136.108
			C2751.102,3735.677,2690.043,3542.304,2771.364,3385.934z M3275.418,3648.068c63.217-121.562,15.746-271.906-105.815-335.124
			c-121.562-63.217-271.906-15.746-335.124,105.815c-63.218,121.561-15.746,271.906,105.815,335.124
			C3061.852,3817.1,3212.201,3769.626,3275.418,3648.068z"/>
	</g>
	<g>
		<g>
			<g>
				<path fill="#F9A51B" d="M2956,3587.449c-37.878-19.699-56.489-59.185-49.958-102.475l-44.522-23.154l34.548-66.429
					l40.423,21.022c12.958-17.323,29.077-31.744,44.665-39.618l16.092-8.152l53.87,58.003l-26.883,14.751
					c-14.161,7.896-27.347,21.512-35.14,36.492c-5.805,11.165-8.403,26.516,3.469,32.689c4.807,2.5,13.709,7.129,41.307-16.585
					c34.393-29.878,76.225-57.144,125.268-31.637c36.183,18.816,54.037,56.651,47.888,98.165l43.389,22.566l-34.327,66.004
					l-39.152-20.36c-9.968,12.952-21.394,23.53-34.494,31.8l-17.058,10.702l-52.368-58.476l23.543-15.23
					c6.264-4.104,19.438-12.517,29.728-32.304c3.677-7.068,8.442-20.032-1.593-25.25c-4.665-2.427-9.752-5.07-41.673,21.781
					C3054.21,3586.092,3009.71,3615.383,2956,3587.449z"/>
			</g>
		</g>
	</g>
	<path fill="#F9A51B" d="M3024.928,3318.606c61.243-5.17,120.338,17.06,163.207,61.012c4.486,4.598,12.045-1.954,7.542-6.569
		c-45.629-46.779-107.713-69.729-172.775-64.24C3016.506,3309.349,3018.57,3319.143,3024.928,3318.606z"/>
	<path fill="#F9A51B" d="M3277.476,3524.656c-5.992-41.792-20.911-81.021-44.283-116.19c-3.52-5.297-12.521-0.916-8.961,4.442
		c22.928,34.5,37.568,72.753,43.45,113.772C3268.591,3533.05,3278.389,3531.018,3277.476,3524.656z"/>
	<path fill="#F9A51B" d="M3098.1,3759.133c6.388-0.776,4.343-10.569-2.023-9.797c-72.943,8.853-145.308-16.377-197.003-68.578
		c-4.518-4.561-12.08,1.991-7.545,6.569C2945.94,3742.271,3021.358,3768.447,3098.1,3759.133z"/>
	<path fill="#F9A51B" d="M2877.656,3649.949c-23.371-29.97-38.055-64.583-43.651-102.16c-0.949-6.369-10.744-4.336-9.796,2.023
		c5.843,39.248,21.513,75.426,45.902,106.706C2874.083,3661.609,2881.601,3655.01,2877.656,3649.949z"/>
	<path fill="#F9A51B" d="M2945.561,3680.836c-21.79-11.993-39.856-28.363-53.922-48.879c-3.642-5.313-11.251,1.187-7.639,6.457
		c14.498,21.145,33.347,38.244,55.81,50.607C2945.399,3692.099,2951.194,3683.937,2945.561,3680.836z"/>
	<path fill="#E88B24" d="M2828.072,3408.361c-18.277-8.719-36.551-17.435-54.828-26.154c-5.798-2.766-8.945,6.736-3.197,9.478
		c18.277,8.719,36.551,17.435,54.828,26.154C2830.674,3420.605,2833.82,3411.103,2828.072,3408.361z"/>
	<path fill="#E88B24" d="M2802.377,3484.996c6.181,1.7,9.417-7.768,3.197-9.479c-19.679-5.409-39.355-10.814-59.034-16.223
		c-6.181-1.7-9.417,7.768-3.197,9.479C2763.021,3474.182,2782.698,3479.587,2802.377,3484.996z"/>
	<path fill="#E88B24" d="M2742.098,3551.387c20.779,0.502,41.558,1.004,62.337,1.506c6.414,0.155,7.023-9.834,0.562-9.988
		c-20.779-0.502-41.558-1.004-62.337-1.506C2736.246,3541.244,2735.637,3551.23,2742.098,3551.387z"/>
	<path fill="#E88B24" d="M2758.95,3633.395c21.342-3.255,42.68-6.507,64.019-9.762c6.365-0.971,4.335-10.766-2.023-9.797
		c-21.339,3.255-42.68,6.507-64.019,9.762C2750.563,3624.566,2752.592,3634.364,2758.95,3633.395z"/>
	<path fill="#E88B24" d="M2786.511,3698.141l59.49-28.501c5.815-2.786,1.37-11.747-4.442-8.961c-19.83,9.501-39.66,19-59.493,28.501
		C2776.255,3691.966,2780.7,3700.924,2786.511,3698.141z"/>
	<path fill="#E88B24" d="M2828.64,3746.704c12.623-13.698,25.245-27.397,37.868-41.095c4.324-4.694-2.21-12.273-6.569-7.545
		c-12.623,13.698-25.245,27.397-37.865,41.096C2817.747,3743.853,2824.281,3751.432,2828.64,3746.704z"/>
	<path fill="#E88B24" d="M2898.002,3805.726c8.102-20.984,16.204-41.968,24.303-62.952c2.319-6.009-7.161-9.193-9.478-3.197
		c-8.102,20.984-16.204,41.968-24.303,62.952C2886.202,3808.537,2895.685,3811.722,2898.002,3805.726z"/>
	<path fill="#E88B24" d="M2964.146,3835.28c3.303-20.56,6.603-41.12,9.906-61.683c1.017-6.341-8.977-6.876-9.988-0.562
		c-3.303,20.56-6.603,41.12-9.906,61.683C2953.141,3841.056,2963.131,3841.594,2964.146,3835.28z"/>
	<path fill="#F9A51B" d="M3148.79,3392.369c21.676,12.196,39.588,28.733,53.463,49.379c3.592,5.345,11.263-1.083,7.7-6.385
		c-14.301-21.28-32.989-38.552-55.334-51.127C3149.056,3381.112,3143.186,3389.216,3148.79,3392.369z"/>
	<path fill="#E88B24" d="M3267.311,3675.388c17.612,9.99,35.228,19.976,52.841,29.966c5.586,3.167,9.397-6.087,3.861-9.227
		c-17.612-9.99-35.228-19.976-52.841-29.963C3265.586,3662.991,3261.775,3672.248,3267.311,3675.388z"/>
	<path fill="#E88B24" d="M3298.361,3600.763c-6.043-2.13-9.943,7.084-3.861,9.227c19.246,6.784,38.495,13.571,57.741,20.355
		c6.044,2.13,9.943-7.084,3.858-9.227C3336.855,3614.334,3317.61,3607.547,3298.361,3600.763z"/>
	<path fill="#E88B24" d="M3374.54,3535.112c-20.691-1.969-41.385-3.937-62.075-5.908c-6.386-0.609-7.702,9.311-1.267,9.925
		c20.691,1.968,41.384,3.94,62.075,5.908C3379.658,3545.646,3380.972,3535.726,3374.54,3535.112z"/>
	<path fill="#E88B24" d="M3367.212,3463.475c-21.518,1.736-43.033,3.473-64.549,5.21c-6.418,0.519-5.087,10.434,1.325,9.914
		c21.515-1.737,43.033-3.473,64.549-5.21C3374.954,3472.871,3373.624,3462.956,3367.212,3463.475z"/>
	<path fill="#E88B24" d="M3344.298,3396.938l-61.356,24.225c-5.996,2.367-2.196,11.619,3.797,9.252
		c20.451-8.074,40.905-16.148,61.359-24.225C3354.09,3403.827,3350.291,3394.574,3344.298,3396.938z"/>
	<path fill="#E88B24" d="M3294.501,3330.333c-13.559,12.773-27.117,25.543-40.677,38.316c-4.646,4.375,1.34,12.401,6.02,7.989
		c13.559-12.773,27.117-25.543,40.677-38.316C3305.166,3333.946,3299.181,3325.924,3294.501,3330.333z"/>
	<path fill="#E88B24" d="M3229.484,3266.554c-9.563,20.358-19.129,40.717-28.693,61.075c-2.739,5.832,6.493,9.678,9.227,3.858
		c9.566-20.358,19.129-40.717,28.696-61.075C3241.453,3264.583,3232.219,3260.737,3229.484,3266.554z"/>
	<path fill="#E88B24" d="M3158.075,3228.566c-4.746,20.275-9.495,40.55-14.242,60.828c-1.465,6.251,8.466,7.494,9.925,1.267
		c4.746-20.275,9.495-40.55,14.242-60.828C3169.462,3223.578,3159.534,3222.339,3158.075,3228.566z"/>
	<path fill="#E88B24" d="M3016.488,3786.358c-0.36,20.244-0.717,40.491-1.074,60.735c-0.112,6.421,9.839,5.346,9.952-1.019
		c0.36-20.244,0.717-40.491,1.074-60.736C3026.549,3778.917,3016.597,3779.992,3016.488,3786.358z"/>
	<path fill="#E88B24" d="M3084.977,3843.383c-1.047-20.758-2.094-41.519-3.138-62.277c-0.324-6.407-10.328-6.272-10.002,0.182
		c1.047,20.758,2.091,41.519,3.138,62.277C3075.296,3849.971,3085.303,3849.837,3084.977,3843.383z"/>
	<path fill="#E88B24" d="M3151.508,3833.537c-4.833-21.038-9.666-42.076-14.499-63.116c-1.44-6.277-11.06-3.524-9.619,2.747
		c4.833,21.038,9.666,42.075,14.499,63.113C3143.329,3842.557,3152.949,3839.807,3151.508,3833.537z"/>
	<path fill="#E88B24" d="M3210.731,3809.006l-32.848-57.206c-3.21-5.591-11.815-0.492-8.606,5.096
		c10.949,19.069,21.899,38.137,32.848,57.206C3205.335,3819.694,3213.941,3814.594,3210.731,3809.006z"/>
	<path fill="#E88B24" d="M3277.204,3753.386c-14.599-11.569-29.201-23.135-43.799-34.704c-5.001-3.964-12.074,3.119-7.033,7.112
		c14.599,11.569,29.198,23.135,43.8,34.704C3275.17,3764.459,3282.243,3757.379,3277.204,3753.386z"/>
	<path fill="#E88B24" d="M3102.833,3280.167c0.56-16.688,1.117-33.374,1.678-50.062c0.214-6.417-9.772-7.02-9.988-0.563
		c-0.56,16.688-1.12,33.374-1.678,50.063C3092.631,3286.021,3102.618,3286.624,3102.833,3280.167z"/>
	<path fill="#E88B24" d="M3038.18,3273.351c0.275-18.42,0.55-36.837,0.825-55.254c0.096-6.411-9.893-7.026-9.988-0.562
		c-0.275,18.417-0.55,36.837-0.825,55.253C3028.096,3279.199,3038.082,3279.811,3038.18,3273.351z"/>
	<path fill="#E88B24" d="M2992.843,3281.386c-2.524-17.446-5.051-34.896-7.575-52.341c-0.924-6.373-10.719-4.34-9.797,2.023
		c2.524,17.449,5.051,34.896,7.574,52.345C2983.97,3289.782,2993.764,3287.75,2992.843,3281.386z"/>
	<path fill="#E88B24" d="M2945.115,3298.061c-5.66-17.37-11.323-34.738-16.983-52.108c-1.973-6.052-11.796-4.106-9.797,2.023
		c5.66,17.37,11.32,34.738,16.983,52.108C2937.291,3306.133,2947.114,3304.19,2945.115,3298.061z"/>
	<path fill="#E88B24" d="M2898.156,3321.164c-9.793-13.657-19.586-27.317-29.38-40.974c-3.758-5.241-11.265,1.379-7.545,6.569
		c9.793,13.657,19.587,27.314,29.38,40.974C2894.369,3332.97,2901.879,3326.351,2898.156,3321.164z"/>
	<path fill="#E88B24" d="M2853.738,3368.063c-13.105-12.077-26.211-24.151-39.316-36.225c-4.694-4.324-12.273,2.213-7.545,6.569
		c13.105,12.074,26.211,24.151,39.316,36.225C2850.886,3378.956,2858.469,3372.422,2853.738,3368.063z"/>
</g>
<g>
	<path fill="#E88B24" d="M4525.767,3264.66c19.854,1.554,39.648,5.188,59.218,10.84c-19.634-5.485-39.596-9.187-59.449-10.741
		L4525.767,3264.66z"/>
	<path fill="#E88B24" d="M4616.061,3285.901l-0.064,0.167l-0.167-0.065c-5.126-2.03-10.151-3.832-15.175-5.63
		C4605.747,3282.004,4610.938,3283.87,4616.061,3285.901z"/>
	<g>
		<circle fill="#FDC364" cx="4479.942" cy="3575.829" r="284.076"/>
		<path fill="#F9A51B" d="M4362.187,3872.986c-163.855-64.928-244.335-251.059-179.408-414.915
			c64.928-163.855,251.059-244.335,414.915-179.407c163.855,64.928,244.335,251.059,179.407,414.915
			C4712.17,3857.434,4526.042,3937.917,4362.187,3872.986z M4571.487,3344.803c-127.38-50.476-272.093,12.098-322.569,139.478
			c-50.476,127.38,12.097,272.093,139.478,322.569c127.38,50.476,272.093-12.097,322.569-139.478
			C4761.441,3539.994,4698.865,3395.279,4571.487,3344.803z"/>
	</g>
	<g>
		<g>
			<g>
				<path fill="#F9A51B" d="M4543.797,3668.74c-15.728,39.691-53.108,62.236-96.838,60.16l-18.488,46.654l-69.609-27.585
					l16.785-42.358c-18.556-11.121-34.547-25.684-43.971-40.387l-9.752-15.175l52.2-59.511l17.418,25.236
					c9.301,13.281,24.192,25.008,39.889,31.231c11.699,4.635,27.236,5.652,32.164-6.789c1.997-5.037,5.692-14.365-20.715-39.398
					c-33.233-31.163-64.628-69.992-44.262-121.383c15.024-37.915,50.837-59.539,92.763-57.66l18.018-45.467l69.164,27.409
					l-16.257,41.026c13.902,8.594,25.592,18.88,35.156,31.067l12.388,15.876l-52.824,58.065l-17.554-21.865
					c-4.722-5.813-14.437-18.058-35.171-26.275c-7.407-2.936-20.79-6.353-24.955,4.162c-1.938,4.888-4.048,10.219,25.922,39.231
					C4532.42,3571.182,4566.102,3612.459,4543.797,3668.74z"/>
			</g>
		</g>
	</g>
	<path fill="#F9A51B" d="M4269.322,3627.622c-11.396-60.395,4.685-121.451,44.03-168.583c4.116-4.932-3.173-11.782-7.305-6.832
		c-41.876,50.167-58.367,114.27-46.264,178.431C4260.973,3636.944,4270.505,3633.891,4269.322,3627.622z"/>
	<path fill="#F9A51B" d="M4448.51,3355.355c-40.961,10.228-78.462,29.074-111.062,55.914c-4.91,4.042,0.368,12.549,5.333,8.46
		c31.979-26.33,68.537-44.799,108.742-54.839C4457.768,3363.337,4454.746,3353.798,4448.51,3355.355z"/>
	<path fill="#F9A51B" d="M4700.076,3509.854c-1.424-6.276-10.958-3.241-9.539,3.013c16.254,71.658-1.455,146.22-48.105,202.975
		c-4.076,4.959,3.213,11.813,7.305,6.835C4698.837,3662.941,4717.176,3585.245,4700.076,3509.854z"/>
	<path fill="#F9A51B" d="M4613.969,3740.293c-27.427,26.308-60.361,44.45-97.169,53.853c-6.239,1.594-3.217,11.13,3.013,9.539
		c38.446-9.82,72.835-29.102,101.461-56.557C4625.934,3742.657,4618.601,3735.853,4613.969,3740.293z"/>
	<path fill="#F9A51B" d="M4637.762,3669.59c-9.706,22.9-24.146,42.544-43.118,58.63c-4.913,4.166,2.33,11.072,7.203,6.94
		c19.554-16.581,34.639-37.077,44.645-60.685C4648.982,3668.602,4640.271,3663.67,4637.762,3669.59z"/>
	<path fill="#E88B24" d="M4378.706,3814.284c-6.807,19.072-13.612,38.14-20.419,57.212c-2.16,6.05,7.614,8.21,9.755,2.213
		c6.807-19.072,13.612-38.14,20.419-57.212C4390.622,3810.447,4380.848,3808.287,4378.706,3814.284z"/>
	<path fill="#E88B24" d="M4457.564,3832.021c1.06-6.322-8.689-8.575-9.755-2.213c-3.371,20.128-6.739,40.254-10.11,60.383
		c-1.06,6.322,8.689,8.575,9.755,2.212C4450.825,3872.275,4454.193,3852.15,4457.564,3832.021z"/>
	<path fill="#E88B24" d="M4529.763,3885.207c-1.623-20.722-3.245-41.444-4.867-62.165c-0.5-6.396-10.5-5.982-9.993,0.46
		c1.623,20.722,3.245,41.444,4.867,62.165C4520.27,3892.064,4530.266,3891.65,4529.763,3885.207z"/>
	<path fill="#E88B24" d="M4609.622,3860.07c-5.417-20.898-10.831-41.793-16.248-62.688c-1.616-6.233-11.152-3.213-9.539,3.013
		c5.417,20.895,10.831,41.793,16.248,62.688C4601.695,3869.315,4611.234,3866.296,4609.622,3860.07z"/>
	<path fill="#E88B24" d="M4671.215,3826.042l-34.426-56.27c-3.365-5.5-11.826-0.164-8.46,5.333
		c11.477,18.757,22.95,37.513,34.426,56.273C4666.12,3836.875,4674.577,3831.539,4671.215,3826.042z"/>
	<path fill="#E88B24" d="M4715.224,3779.175c-14.916-11.158-29.832-22.316-44.747-33.474c-5.111-3.822-11.983,3.452-6.835,7.305
		c14.916,11.158,29.831,22.316,44.747,33.471C4713.499,3790.303,4720.372,3783.029,4715.224,3779.175z"/>
	<path fill="#E88B24" d="M4766.855,3704.149c-21.701-5.917-43.403-11.835-65.104-17.749c-6.214-1.693-8.415,8.062-2.212,9.755
		c21.701,5.917,43.402,11.835,65.104,17.749C4770.856,3715.601,4773.057,3705.843,4766.855,3704.149z"/>
	<path fill="#E88B24" d="M4789.502,3635.334c-20.79-1.187-41.58-2.37-62.373-3.557c-6.412-0.365-5.923,9.632,0.46,9.993
		c20.79,1.187,41.58,2.37,62.372,3.557C4796.371,3645.692,4795.886,3635.699,4789.502,3635.334z"/>
	<path fill="#F9A51B" d="M4330.054,3496.876c9.919-22.807,24.541-42.315,43.662-58.225c4.95-4.119-2.228-11.093-7.138-7.008
		c-19.708,16.399-34.982,36.753-45.21,60.265C4318.828,3497.76,4327.489,3502.771,4330.054,3496.876z"/>
	<path fill="#E88B24" d="M4599.493,3350.078c8.139-18.54,16.275-37.084,24.414-55.624c2.581-5.88-7.014-8.726-9.573-2.898
		c-8.139,18.54-16.275,37.083-24.412,55.624C4587.336,3353.059,4596.934,3355.905,4599.493,3350.078z"/>
	<path fill="#E88B24" d="M4522.087,3326.81c-1.502,6.229,8.062,9.168,9.573,2.898c4.783-19.838,9.569-39.679,14.353-59.517
		c1.502-6.229-8.062-9.168-9.573-2.896C4531.657,3287.13,4526.871,3306.968,4522.087,3326.81z"/>
	<path fill="#E88B24" d="M4449.001,3257.732c0.154,20.784,0.309,41.57,0.46,62.354c0.046,6.415,10.049,6.711,10.002,0.247
		c-0.155-20.783-0.306-41.57-0.46-62.354C4458.958,3251.564,4448.955,3251.271,4449.001,3257.732z"/>
	<path fill="#E88B24" d="M4378.487,3272.335c3.924,21.229,7.849,42.454,11.773,63.68c1.171,6.331,10.898,3.995,9.728-2.33
		c-3.924-21.225-7.849-42.454-11.773-63.679C4387.043,3263.674,4377.316,3266.01,4378.487,3272.335z"/>
	<path fill="#E88B24" d="M4314.637,3301.922l30.363,58.562c2.966,5.723,11.782,0.998,8.816-4.721
		c-10.12-19.52-20.24-39.043-30.363-58.566C4320.49,3291.478,4311.674,3296.203,4314.637,3301.922z"/>
	<path fill="#E88B24" d="M4253.464,3358.26c14.09,12.184,28.178,24.368,42.269,36.552c4.827,4.175,12.2-2.599,7.333-6.804
		c-14.09-12.184-28.178-24.368-42.269-36.552C4255.97,3347.281,4248.6,3354.054,4253.464,3358.26z"/>
	<path fill="#E88B24" d="M4196.657,3429.448c21.229,7.435,42.457,14.872,63.686,22.307c6.081,2.129,8.964-7.447,2.896-9.573
		c-21.229-7.438-42.457-14.872-63.686-22.31C4193.474,3417.743,4190.591,3427.322,4196.657,3429.448z"/>
	<path fill="#E88B24" d="M4166.158,3504.363c20.654,2.651,41.308,5.306,61.964,7.957c6.369,0.819,6.591-9.187,0.247-10.002
		c-20.654-2.651-41.308-5.306-61.964-7.957C4160.034,3493.545,4159.814,3503.547,4166.158,3504.363z"/>
	<path fill="#E88B24" d="M4735.491,3588.26c20.175-1.709,40.353-3.421,60.527-5.133c6.399-0.544,4.314-10.333-2.03-9.795
		c-20.175,1.709-40.353,3.421-60.528,5.133C4727.062,3579.012,4729.147,3588.801,4735.491,3588.26z"/>
	<path fill="#E88B24" d="M4785.225,3514.307c-20.542,3.161-41.088,6.322-61.631,9.48c-6.34,0.977-5.185,10.914,1.202,9.931
		c20.542-3.161,41.088-6.319,61.631-9.48C4792.768,3523.265,4791.612,3513.324,4785.225,3514.307z"/>
	<path fill="#E88B24" d="M4768.638,3449.129c-20.434,6.956-40.869,13.911-61.306,20.867c-6.097,2.073-2.376,11.362,3.714,9.289
		c20.434-6.956,40.869-13.911,61.303-20.867C4778.446,3456.344,4774.729,3447.055,4768.638,3449.129z"/>
	<path fill="#E88B24" d="M4738.188,3392.72l-53.553,38.517c-5.234,3.764,0.717,11.804,5.948,8.04
		c17.851-12.839,35.702-25.678,53.553-38.517C4749.372,3396.997,4743.42,3388.956,4738.188,3392.72z"/>
	<path fill="#E88B24" d="M4676.073,3332.273c-10.018,15.704-20.033,31.41-30.051,47.114c-3.433,5.38,4.335,11.693,7.793,6.27
		c10.018-15.704,20.033-31.407,30.051-47.114C4687.296,3333.166,4679.53,3326.853,4676.073,3332.273z"/>
	<path fill="#E88B24" d="M4223.129,3554.048c-16.658,1.146-33.313,2.296-49.972,3.442c-6.406,0.442-5.985,10.438,0.46,9.993
		c16.658-1.146,33.313-2.293,49.972-3.442C4229.995,3563.599,4229.575,3553.603,4223.129,3554.048z"/>
	<path fill="#E88B24" d="M4222.95,3619.059c-18.352,1.607-36.7,3.214-55.049,4.82c-6.387,0.559-5.979,10.559,0.46,9.993
		c18.349-1.607,36.7-3.214,55.049-4.82C4229.797,3628.493,4229.386,3618.497,4222.95,3619.059z"/>
	<path fill="#E88B24" d="M4235.573,3663.339c-17.097,4.292-34.198,8.587-51.294,12.879c-6.245,1.57-3.223,11.106,3.013,9.539
		c17.1-4.292,34.197-8.587,51.297-12.879C4244.831,3671.308,4241.808,3661.772,4235.573,3663.339z"/>
	<path fill="#E88B24" d="M4257.033,3709.115c-16.702,7.404-33.4,14.811-50.102,22.214c-5.818,2.58-2.88,12.153,3.013,9.539
		c16.702-7.404,33.4-14.807,50.102-22.214C4265.861,3716.074,4262.926,3706.501,4257.033,3709.115z"/>
	<path fill="#E88B24" d="M4284.81,3753.469c-12.586,11.136-25.175,22.273-37.76,33.409c-4.83,4.273,2.521,11.065,7.305,6.835
		c12.586-11.136,25.171-22.273,37.76-33.41C4296.941,3756.031,4289.59,3749.236,4284.81,3753.469z"/>
	<path fill="#E88B24" d="M4335.999,3792.867c-10.676,14.27-21.349,28.54-32.022,42.809c-3.823,5.111,3.455,11.983,7.305,6.835
		c10.673-14.27,21.349-28.54,32.022-42.81C4347.126,3794.592,4339.852,3787.716,4335.999,3792.867z"/>
</g>
<polygon fill="#70A79D" points="638.331,3894.832 0,4649.9 638.257,4649.9 "/>
</svg>
