<?xml version="1.0" encoding="utf-8"?>
<!-- Generator: Adobe Illustrator 17.0.0, SVG Export Plug-In . SVG Version: 6.00 Build 0)  -->
<!DOCTYPE svg PUBLIC "-//W3C//DTD SVG 1.1//EN" "http://www.w3.org/Graphics/SVG/1.1/DTD/svg11.dtd">
<svg version="1.1" id="Layer_1" xmlns="http://www.w3.org/2000/svg" xmlns:xlink="http://www.w3.org/1999/xlink" x="0px" y="0px"
	 width="5225.817px" height="4652.9px" viewBox="0 0 5225.817 4652.9" enable-background="new 0 0 5225.817 4652.9"
	 xml:space="preserve">
<g>
	<g>
		<path fill="#4682B4" d="M365.839,2504.242c23.079,119.426,138.598,197.536,258.022,174.448l2759.19-533.361
			c119.438-23.082,197.525-138.615,174.439-258.037L3352.512,826.869L160.855,1443.822L365.839,2504.242z"/>
		<path fill="#4682B4" d="M3246.248,277.108c-23.087-119.426-138.613-197.521-258.035-174.441L229.028,636.024
			C109.6,659.111,31.495,774.638,54.592,894.062l28.113,145.489L3274.362,422.59L3246.248,277.108z"/>
		<polygon fill="#002043" points="82.705,1039.551 160.855,1443.822 3352.512,826.869 3274.362,422.59 		"/>
	</g>
	<polygon fill="#F1F7F7" points="2005.058,1506.73 324.113,1831.656 278.866,1597.608 1959.811,1272.673 	"/>
	<polygon fill="#F1F7F7" points="3321.669,1252.231 2236.473,1461.995 2191.22,1227.941 3276.425,1018.174 	"/>
	<path fill="#D83A33" d="M1085.418,2070.99c30.902,159.919-73.669,314.631-233.588,345.536
		c-159.924,30.915-314.642-73.67-345.55-233.585c-30.92-159.933,73.67-314.634,233.595-345.544
		C899.806,1806.487,1054.495,1911.061,1085.418,2070.99z"/>
	<path fill="#F8D173" d="M1439.95,2002.457c30.907,159.917-73.663,314.625-233.593,345.54
		c-159.923,30.918-314.62-73.676-345.539-233.591c-30.912-159.937,73.664-314.622,233.607-345.545
		C1254.342,1737.955,1409.037,1842.518,1439.95,2002.457z"/>
	<polygon fill="#7E8080" points="2485.869,2019.39 1909.215,2130.856 1872.066,1938.653 2448.718,1827.181 	"/>
	<polygon fill="#7E8080" points="3038.478,1912.573 2726.132,1972.945 2688.972,1780.74 3001.337,1720.36 	"/>
</g>
<g>
	<path fill="#E88B24" d="M5585.51,951.9c40.707-57.822,87.66-111.698,140.367-161.23c-52.315,50.033-99.777,104.295-140.485,162.117
		L5585.51,951.9z"/>
	<path fill="#E88B24" d="M5813.932,714.594l0.392,0.5l-0.5,0.392c-15.486,11.98-30.088,24.063-44.682,36.151
		C5783.349,739.04,5798.452,726.565,5813.932,714.594z"/>
	<g>
		<circle fill="#FDC364" cx="6452.895" cy="1655.477" r="1008.735"/>
		<path fill="#F9A51B" d="M7147.194,2553.363c-495.093,382.851-1209.354,291.521-1592.206-203.572
			s-291.521-1209.354,203.572-1592.206s1209.355-291.521,1592.206,203.572C7733.612,1456.259,7642.297,2170.517,7147.194,2553.363z
			 M5913.098,957.422c-384.887,297.625-455.888,852.95-158.263,1237.837c297.625,384.887,852.95,455.888,1237.836,158.262
			c384.887-297.625,455.888-852.95,158.263-1237.837C6853.319,730.803,6297.979,659.806,5913.098,957.422z"/>
	</g>
	<g>
		<g>
			<g>
				<path fill="#F9A51B" d="M6852.328,1628.735c92.739,119.93,93.891,274.934,8.341,404.735l109.005,140.968l-210.332,162.64
					l-98.97-127.989c-67.576,36.53-141.02,58.992-202.995,61.147l-64.013,2.299l-87.212-267.222l108.628-7.491
					c57.41-4.352,120.197-28.592,167.637-65.263c35.347-27.336,66.593-72.947,37.524-110.533
					c-11.768-15.22-33.566-43.404-157.853-8.09c-155.374,45.058-330.833,70.614-450.902-84.673
					c-88.588-114.56-89.765-263.111-8.088-387.759l-106.231-137.384l208.988-161.6l95.859,123.962
					c51.427-26.896,104.018-43.966,158.563-51.102l70.929-9.079l81.665,266.509l-98.577,14.012
					c-26.305,3.893-81.303,11.385-143.953,59.83c-22.382,17.305-57.06,51.99-32.488,83.758
					c11.421,14.772,23.879,30.872,166.774-8.114C6533.753,1486.779,6720.828,1458.671,6852.328,1628.735z"/>
			</g>
		</g>
	</g>
	<path fill="#F9A51B" d="M6229.589,2392.571c-205.102-74.586-362.455-234.289-435.143-439.829
		c-7.608-21.504-41.734-11.649-34.098,9.936c77.372,218.766,243.287,385.243,461.174,464.49
		C6242.94,2434.957,6250.881,2400.312,6229.589,2392.571z"/>
	<path fill="#F9A51B" d="M5722.582,1352.137c-42.954,143.632-53.318,292.304-30.389,440.487
		c3.451,22.317,38.993,21.606,35.501-0.965c-22.496-145.362-12.688-290.472,29.47-431.451
		C5763.728,1338.319,5729.12,1330.271,5722.582,1352.137z"/>
	<path fill="#F9A51B" d="M6650.115,863.634c-21.749-7.017-29.747,27.595-8.076,34.591c248.3,80.15,443.956,269.291,532.802,514.571
		c7.765,21.431,41.901,11.582,34.107-9.931C7115.433,1144.701,6911.349,947.96,6650.115,863.634z"/>
	<path fill="#F9A51B" d="M7197.968,1544.015c30.674,131.421,26.432,264.868-11.52,394.321c-6.431,21.943,28.168,29.985,34.591,8.076
		c39.644-135.211,43.04-275.168,11.037-412.328C7226.859,1511.755,7192.796,1521.826,7197.968,1544.015z"/>
	<path fill="#F9A51B" d="M7025.12,1343.283c52.363,71.123,86.204,150.805,100.972,237.89c3.823,22.551,38.036,12.938,34.243-9.429
		c-15.226-89.755-50.502-172.955-104.483-246.274C7042.423,1307.223,7011.582,1324.895,7025.12,1343.283z"/>
	<path fill="#E88B24" d="M6997.827,2396.584c45.92,55.335,91.835,110.656,137.755,165.991c14.567,17.555,38.867-8.384,24.427-25.787
		c-45.919-55.335-91.835-110.656-137.755-165.991C7007.688,2353.24,6983.388,2379.18,6997.827,2396.584z"/>
	<path fill="#E88B24" d="M7194.833,2187.859c-17.39-14.689-41.928,11.007-24.427,25.787
		c55.371,46.755,110.738,93.495,166.11,140.249c17.39,14.689,41.928-11.007,24.427-25.787
		C7305.572,2281.354,7250.205,2234.615,7194.833,2187.859z"/>
	<path fill="#E88B24" d="M7488.047,2063.682c-66.228-32.578-132.455-65.156-198.683-97.734
		c-20.443-10.057-37.29,21.234-16.694,31.356c66.228,32.578,132.455,65.156,198.683,97.734
		C7491.796,2105.094,7508.637,2073.813,7488.047,2063.682z"/>
	<path fill="#E88B24" d="M7555.918,1774.243c-73.639-21.308-147.262-42.619-220.891-63.921c-21.963-6.353-30.014,28.24-8.076,34.591
		c73.629,21.302,147.263,42.619,220.892,63.921C7569.8,1815.196,7577.856,1780.593,7555.918,1774.243z"/>
	<path fill="#E88B24" d="M7563.553,1524.487l-234.216,3.225c-22.895,0.315-21.92,35.822,0.965,35.501
		c78.074-1.078,156.142-2.147,234.225-3.22C7587.412,1559.673,7586.432,1524.176,7563.553,1524.487z"/>
	<path fill="#E88B24" d="M7500.123,1305.187c-61.096,25.345-122.191,50.691-183.288,76.036
		c-20.932,8.687-11.163,42.851,9.931,34.107c61.096-25.345,122.191-50.691,183.278-76.042
		C7530.985,1330.608,7521.216,1296.443,7500.123,1305.187z"/>
	<path fill="#E88B24" d="M7364.494,1011.599c-57.38,55.563-114.761,111.126-172.132,166.695
		c-16.427,15.912,9.382,40.302,25.787,24.427c57.38-55.563,114.761-111.126,172.132-166.695
		C7406.718,1020.119,7380.899,995.725,7364.494,1011.599z"/>
	<path fill="#E88B24" d="M7195.336,817.787c-41.28,61.348-82.551,122.701-123.836,184.058
		c-12.728,18.923,18.688,35.538,31.355,16.694c41.28-61.348,82.551-122.701,123.836-184.058
		C7239.413,815.567,7208.013,798.949,7195.336,817.787z"/>
	<path fill="#F9A51B" d="M5940.262,1970.265c-51.694-71.606-84.79-151.599-98.75-238.818c-3.614-22.58-37.917-13.288-34.333,9.107
		c14.389,89.896,48.89,173.414,102.175,247.24C5922.628,2006.153,5953.624,1988.777,5940.262,1970.265z"/>
	<path fill="#E88B24" d="M5979.934,881.441c-41.884-58.44-83.783-116.877-125.667-175.318
		c-13.287-18.532-39.357,5.618-26.192,23.988c41.884,58.44,83.783,116.877,125.672,175.308
		C5967.022,923.971,5993.099,899.812,5979.934,881.441z"/>
	<path fill="#E88B24" d="M5768.665,1075.712c16.306,15.87,42.604-8.017,26.192-23.988
		c-51.926-50.542-103.856-101.098-155.782-151.641c-16.306-15.87-42.604,8.017-26.183,23.994
		C5664.809,974.613,5716.729,1025.164,5768.665,1075.712z"/>
	<path fill="#E88B24" d="M5425.306,1173.813c63.758,37.173,127.525,74.352,191.278,111.534c19.677,11.477,38.7-18.535,18.872-30.102
		c-63.758-37.173-127.52-74.361-191.277-111.534C5424.502,1132.234,5405.488,1162.252,5425.306,1173.813z"/>
	<path fill="#E88B24" d="M5342.188,1415.633c71.945,26.465,143.881,52.925,215.816,79.384c21.459,7.891,31.943-26.05,10.503-33.93
		c-71.936-26.459-143.881-52.925-215.817-79.384C5331.231,1373.812,5320.747,1407.753,5342.188,1415.633z"/>
	<path fill="#E88B24" d="M5316.904,1664.235l233.858,13.338c22.852,1.305,24.39-34.178,1.547-35.478
		c-77.948-4.447-155.905-8.9-233.868-13.344C5295.605,1627.442,5294.068,1662.926,5316.904,1664.235z"/>
	<path fill="#E88B24" d="M5378.17,1953.116c62.735-20.967,125.464-41.925,188.199-62.893c21.493-7.18,14.159-41.967-7.5-34.72
		c-62.735,20.967-125.464,41.925-188.199,62.893C5349.178,1925.576,5356.516,1960.354,5378.17,1953.116z"/>
	<path fill="#E88B24" d="M5492.703,2255.561c61.158-51.371,122.325-102.736,183.483-154.107
		c17.518-14.718-6.508-40.867-23.993-26.183c-61.167,51.365-122.325,102.736-183.493,154.102
		C5451.188,2244.081,5475.223,2270.237,5492.703,2255.561z"/>
	<path fill="#E88B24" d="M5666.27,2484.403c45.507-58.28,91.024-116.553,136.537-174.842c14.036-17.968-16.12-36.77-30.102-18.872
		c-45.508,58.28-91.024,116.553-136.537,174.842C5622.135,2483.513,5652.288,2502.301,5666.27,2484.403z"/>
	<path fill="#E88B24" d="M6953.733,897.485c31.323-64.714,62.643-129.443,93.956-194.163c9.93-20.53-23.746-31.891-33.595-11.542
		c-31.323,64.714-62.643,129.443-93.956,194.163C6910.218,906.479,6943.895,917.84,6953.733,897.485z"/>
	<path fill="#E88B24" d="M6817.943,611.634c-27.554,68.468-55.113,136.944-82.676,205.407c-8.502,21.135,23.943,35.605,32.51,14.317
		c27.554-68.468,55.122-136.939,82.676-205.407C6858.965,604.822,6826.51,590.346,6817.943,611.634z"/>
	<path fill="#E88B24" d="M6588.829,544.24c-15.768,75.01-31.536,150.021-47.31,225.04c-4.71,22.376,30.398,27.837,35.098,5.48
		c15.768-75.01,31.536-150.021,47.304-225.031C6628.63,527.353,6593.528,521.883,6588.829,544.24z"/>
	<path fill="#E88B24" d="M6361.391,535.068l20.641,233.33c2.014,22.804,37.351,19.191,35.331-3.604
		c-6.881-77.777-13.761-155.554-20.641-233.331C6394.708,508.658,6359.372,512.273,6361.391,535.068z"/>
	<path fill="#E88B24" d="M6064.261,615.297c29.817,59.041,59.65,118.077,89.467,177.118c10.213,20.23,43.565,7.938,33.264-12.446
		c-29.817-59.041-59.64-118.071-89.467-177.118C6087.317,582.637,6053.971,594.919,6064.261,615.297z"/>
	<path fill="#E88B24" d="M5921.209,2400.392c-26.672,52.955-53.328,105.907-80,158.862c-10.253,20.365,21.039,37.187,31.355,16.694
		c26.671-52.955,53.337-105.901,80-158.862C5962.817,2396.722,5931.525,2379.899,5921.209,2400.392z"/>
	<path fill="#E88B24" d="M6119.444,2518.694c-28.333,58.961-56.659,117.913-84.986,176.864
		c-9.86,20.521,21.419,37.386,31.356,16.694c28.327-58.951,56.659-117.913,84.986-176.864
		C6160.66,2514.867,6129.385,2498.016,6119.444,2518.694z"/>
	<path fill="#E88B24" d="M6277.55,2560.344c-17.859,59.993-35.714,120.001-53.572,179.994c-6.517,21.917,28.082,29.959,34.591,8.076
		c17.864-60.002,35.714-120.001,53.578-180.003C6318.658,2546.503,6284.06,2538.461,6277.55,2560.344z"/>
	<path fill="#E88B24" d="M6456.231,2577.712c-7.639,64.421-15.262,128.839-22.9,193.259c-2.658,22.445,31.902,30.809,34.591,8.076
		c7.639-64.421,15.272-128.833,22.9-193.259C6493.475,2563.353,6458.92,2554.979,6456.231,2577.712z"/>
	<path fill="#E88B24" d="M6642.011,2573.215c11.217,58.611,22.429,117.231,33.646,175.843c4.304,22.491,38.363,12.342,34.107-9.931
		c-11.218-58.611-22.435-117.222-33.646-175.843C6671.808,2540.802,6637.739,2550.946,6642.011,2573.215z"/>
	<path fill="#E88B24" d="M6855.06,2488.23c24.246,58.454,48.498,116.898,72.75,175.343c8.687,20.932,42.856,11.154,34.107-9.931
		c-24.251-58.444-48.498-116.898-72.75-175.343C6880.48,2457.368,6846.306,2467.131,6855.06,2488.23z"/>
</g>
<g>
	<path fill="#E88B24" d="M6899.892,2509.228c58.52,16.289,115.646,38.768,170.913,67.156
		c-55.56-27.926-113.145-50.707-171.665-66.996L6899.892,2509.228z"/>
	<path fill="#E88B24" d="M7157.736,2625.732l-0.292,0.461l-0.461-0.292c-14.156-9.082-28.14-17.419-42.127-25.748
		C7129.143,2608.023,7143.589,2616.653,7157.736,2625.732z"/>
	<g>
		<circle fill="#FDC364" cx="6580.34" cy="3413.85" r="866.523"/>
		<path fill="#F9A51B" d="M6053.68,4234.367c-452.444-290.395-584.269-894.745-293.874-1347.189
			c290.396-452.444,894.745-584.269,1347.189-293.874c452.444,290.395,584.269,894.745,293.874,1347.189
			C7110.465,4392.935,6506.123,4524.771,6053.68,4234.367z M6989.783,2775.931c-351.728-225.755-821.596-123.259-1047.352,228.469
			s-123.259,821.596,228.469,1047.351c351.728,225.755,821.596,123.259,1047.351-228.469
			C7444.005,3471.564,7341.501,3001.684,6989.783,2775.931z"/>
	</g>
	<g>
		<g>
			<g>
				<path fill="#F9A51B" d="M6717.036,3729.404c-70.346,109.597-195.456,155.177-325.144,123.331l-82.686,128.821L6117,3858.183
					l75.072-116.961c-49.028-44.166-88.361-97.133-107.957-146.668l-20.299-51.142l191.139-147.551l37.352,85.753
					c20.059,45.208,57.761,89.039,101.104,116.868c32.304,20.732,78.217,32.881,100.262-1.471
					c8.928-13.908,25.458-39.667-38.92-130.078c-81.219-112.764-152.441-247.399-61.354-389.299
					c67.195-104.692,187.076-148.433,311.479-118.237l80.584-125.544l190.978,122.584l-72.709,113.284
					c36.58,33.872,65.542,71.516,87.029,113.604l27.778,54.787l-192.16,142.856l-39.734-75.741
					c-10.728-20.167-32.632-62.518-89.884-99.266c-20.452-13.129-58.511-31.203-77.142-2.167
					c-8.665,13.498-18.106,28.217,54.604,132.631C6740.156,3430.695,6816.789,3573.997,6717.036,3729.404z"/>
			</g>
		</g>
	</g>
	<path fill="#F9A51B" d="M5919.498,3445.446c1.284-187.47,85.205-360.815,230.609-478.845c15.211-12.351-2.594-37.13-17.863-24.733
		c-154.758,125.63-241.695,307.855-243.068,507.015C5889.041,3468.459,5919.366,3464.907,5919.498,3445.446z"/>
	<path fill="#F9A51B" d="M6615.468,2735.443c-128.612,6.61-251.916,41.046-365.233,102.285c-17.067,9.221-6.254,37.78,11.007,28.452
		c111.16-60.076,231.421-93.937,357.656-100.427C6638.502,2764.762,6635.047,2734.436,6615.468,2735.443z"/>
	<path fill="#F9A51B" d="M7277.975,3345.374c-0.586-19.622-30.901-16.125-30.32,3.428c6.657,224.033-90.056,436.855-262.966,579.408
		c-15.107,12.457,2.696,37.246,17.861,24.742C7184.542,3802.909,7284.979,3581.077,7277.975,3345.374z"/>
	<path fill="#F9A51B" d="M6885.157,3984.723c-97.522,62.679-206.741,97.684-322.438,104.258c-19.61,1.116-16.153,31.433,3.428,30.32
		c120.844-6.863,235.087-44.428,336.871-109.836C6919.586,3998.812,6901.625,3974.146,6885.157,3984.723z"/>
	<path fill="#F9A51B" d="M6997.819,3787.02c-42.476,62.863-97.214,113.202-163.437,150.238
		c-17.149,9.589,0.486,34.508,17.494,24.997c68.252-38.175,125.423-90.688,169.21-155.494
		C7031.986,3790.636,7008.801,3770.767,6997.819,3787.02z"/>
	<path fill="#E88B24" d="M6137.535,4068.327c-31.556,53.101-63.101,106.195-94.655,159.296c-10.012,16.846,17.98,29.04,27.905,12.34
		c31.556-53.101,63.1-106.195,94.655-159.296C6175.452,4063.822,6147.46,4051.628,6137.535,4068.327z"/>
	<path fill="#E88B24" d="M6363.199,4167.64c6.878-18.305-20.985-30.762-27.905-12.341c-21.889,58.278-43.767,116.549-65.655,174.828
		c-6.878,18.304,20.985,30.762,27.905,12.34C6319.432,4284.19,6341.31,4225.918,6363.199,4167.64z"/>
	<path fill="#E88B24" d="M6548.152,4369.166c7.289-62.981,14.578-125.962,21.866-188.943c2.25-19.44-27.925-24.062-30.184-4.479
		c-7.289,62.981-14.578,125.962-21.866,188.943C6515.718,4384.128,6545.884,4388.747,6548.152,4369.166z"/>
	<path fill="#E88B24" d="M6801.941,4340.722c-3.967-65.732-7.927-131.454-11.896-197.176c-1.185-19.605-31.5-16.156-30.32,3.428
		c3.969,65.723,7.927,131.454,11.896,197.176C6772.796,4363.753,6803.121,4360.306,6801.941,4340.722z"/>
	<path fill="#E88B24" d="M7006.265,4274.961l-70.074-188.619c-6.85-18.438-35.304-7.421-28.452,11.007
		c23.361,62.874,46.713,125.746,70.073,188.628C6984.662,4304.405,7013.106,4293.387,7006.265,4274.961z"/>
	<path fill="#E88B24" d="M7165.47,4160.46c-38.11-42.144-76.219-84.287-114.33-126.431c-13.059-14.438-37.894,3.309-24.742,17.861
		c38.11,42.144,76.22,84.287,114.332,126.421C7153.788,4192.759,7178.623,4175.012,7165.47,4160.46z"/>
	<path fill="#E88B24" d="M7364.001,3966.132c-61.495-30.433-122.989-60.866-184.485-91.289
		c-17.609-8.711-29.913,19.202-12.341,27.905c61.495,30.433,122.989,60.866,184.485,91.289
		C7369.268,4002.758,7381.573,3974.835,7364.001,3966.132z"/>
	<path fill="#E88B24" d="M7472.126,3773.408c-61.539-15.737-123.079-31.464-184.626-47.203c-18.98-4.85-23.377,25.36-4.479,30.184
		c61.539,15.737,123.079,31.464,184.626,47.203C7486.618,3808.44,7491.022,3778.241,7472.126,3773.408z"/>
	<path fill="#F9A51B" d="M6177.926,3089.656c43.06-62.461,98.264-112.286,164.828-148.707c17.232-9.429-0.167-34.513-17.26-25.163
		c-68.607,37.539-126.259,89.516-170.657,153.905C6143.803,3085.722,6166.793,3105.801,6177.926,3089.656z"/>
	<path fill="#E88B24" d="M7070.524,2808.134c35.23-50.729,70.454-101.47,105.685-152.2c11.17-16.091-15.883-30.233-26.958-14.287
		c-35.23,50.729-70.455,101.47-105.676,152.201C7032.387,2809.936,7059.449,2824.08,7070.524,2808.134z"/>
	<path fill="#E88B24" d="M6852.449,2693.115c-8.147,17.768,18.76,32.17,26.958,14.287c25.946-56.582,51.903-113.17,77.849-169.751
		c8.147-17.768-18.76-32.17-26.959-14.278C6904.353,2579.945,6878.397,2636.524,6852.449,2693.115z"/>
	<path fill="#E88B24" d="M6674.155,2443.497c-11.719,62.306-23.439,124.621-35.167,186.925c-3.621,19.23,26.147,25.98,29.797,6.602
		c11.719-62.306,23.449-124.619,35.167-186.925C6707.573,2430.869,6677.803,2424.128,6674.155,2443.497z"/>
	<path fill="#E88B24" d="M6454.512,2445.884c-0.694,65.847-1.387,131.686-2.08,197.523c-0.205,19.64,30.283,18.348,30.484-1.273
		c0.692-65.838,1.387-131.685,2.08-197.523C6485.201,2424.971,6454.714,2426.263,6454.512,2445.884z"/>
	<path fill="#E88B24" d="M6246.039,2497.031l56.567,193.101c5.526,18.869,34.685,9.893,29.158-8.967
		c-18.854-64.363-37.705-128.736-56.565-193.11C6269.68,2469.196,6240.521,2478.172,6246.039,2497.031z"/>
	<path fill="#E88B24" d="M6029.898,2629.823c35.039,44.731,70.069,89.46,105.107,134.191c12.002,15.326,38.042-0.629,25.938-16.071
		c-35.039-44.731-70.068-89.46-105.107-134.191C6043.835,2598.426,6017.804,2614.383,6029.898,2629.823z"/>
	<path fill="#E88B24" d="M5818.124,2809.629c59.189,34.698,118.378,69.404,177.567,104.101
		c16.957,9.938,31.199-17.039,14.278-26.959c-59.188-34.707-118.378-69.404-177.566-104.111
		C5815.457,2772.724,5801.212,2799.71,5818.124,2809.629z"/>
	<path fill="#E88B24" d="M5682.919,3016.01c60.273,20.042,120.544,40.092,180.826,60.136c18.584,6.184,25.114-23.637,6.603-29.797
		c-60.273-20.042-120.544-40.093-180.826-60.136C5670.927,2980.036,5664.408,3009.85,5682.919,3016.01z"/>
	<path fill="#E88B24" d="M7338.035,3600.839c61.395,6.709,122.8,13.411,184.197,20.111c19.475,2.123,18.969-28.404-0.336-30.512
		c-61.395-6.709-122.8-13.411-184.197-20.111C7318.222,3568.213,7318.729,3598.74,7338.035,3600.839z"/>
	<path fill="#E88B24" d="M7530.258,3408.608c-63.347-2.577-126.702-5.156-190.047-7.743c-19.553-0.793-21.918,29.632-2.223,30.434
		c63.347,2.577,126.7,5.165,190.047,7.743C7547.586,3439.845,7549.953,3409.41,7530.258,3408.608z"/>
	<path fill="#E88B24" d="M7518.804,3203.777c-65.247,8.845-130.494,17.69-195.75,26.533c-19.466,2.634-13.772,32.62,5.674,29.982
		c65.247-8.845,130.494-17.69,195.74-26.535C7543.935,3231.124,7538.251,3201.14,7518.804,3203.777z"/>
	<path fill="#E88B24" d="M7460.716,3017.073l-182.886,83.913c-17.875,8.198-4.772,35.755,13.094,27.555
		c60.962-27.971,121.924-55.942,182.886-83.914C7491.685,3036.429,7478.582,3008.873,7460.716,3017.073z"/>
	<path fill="#E88B24" d="M7310.201,2799.719c-39.192,41.137-78.376,82.285-117.569,123.422
		c-13.43,14.092,6.125,37.543,19.654,23.335c39.192-41.137,78.375-82.276,117.569-123.422
		C7343.273,2808.97,7323.729,2785.521,7310.201,2799.719z"/>
	<path fill="#E88B24" d="M5824.341,3198.131c-50.538-6.332-101.069-12.652-151.608-18.984c-19.434-2.432-24.035,27.738-4.479,30.184
		c50.539,6.332,101.068,12.661,151.608,18.984C5839.297,3230.746,5843.897,3200.576,5824.341,3198.131z"/>
	<path fill="#E88B24" d="M5785.702,3392.636c-55.877-5.946-111.746-11.89-167.613-17.834c-19.448-2.069-24.087,28.103-4.479,30.184
		c55.868,5.944,111.746,11.89,167.613,17.834C5800.67,3424.889,5805.299,3394.725,5785.702,3392.636z"/>
	<path fill="#E88B24" d="M5797.536,3532.586c-53.696,2.828-107.402,5.663-161.098,8.49c-19.614,1.039-16.157,31.355,3.428,30.32
		c53.705-2.826,107.402-5.663,161.107-8.489C5820.578,3561.867,5817.12,3531.551,5797.536,3532.586z"/>
	<path fill="#E88B24" d="M5834.948,3682.193c-54.335,12.374-108.664,24.76-162.999,37.134c-18.93,4.314-15.744,34.692,3.428,30.32
		c54.335-12.374,108.662-24.75,162.999-37.134C5857.296,3708.197,5854.12,3677.821,5834.948,3682.193z"/>
	<path fill="#E88B24" d="M5892.1,3831.246c-44.202,25.96-88.414,51.919-132.616,77.88c-16.962,9.962,1.063,34.602,17.861,24.742
		c44.202-25.96,88.404-51.921,132.615-77.88C5926.914,3846.024,5908.891,3821.375,5892.1,3831.246z"/>
	<path fill="#E88B24" d="M6022.244,3979.185c-40.322,36.459-80.635,72.92-120.947,109.381
		c-14.438,13.059,3.318,37.896,17.861,24.742c40.313-36.461,80.635-72.92,120.948-109.381
		C6054.542,3990.868,6036.798,3966.023,6022.244,3979.185z"/>
</g>
<g>
	<path fill="#E88B24" d="M8956.742,801.804c35.536-6.578,71.945-9.483,108.903-8.745c-36.994-0.416-73.727,2.448-109.264,9.026
		L8956.742,801.804z"/>
	<path fill="#E88B24" d="M9125.005,796.732l-0.035,0.323l-0.323-0.036c-9.939-1.157-19.592-1.961-29.244-2.76
		C9105.095,794.734,9115.071,795.574,9125.005,796.732z"/>
	<g>
		<circle fill="#FDC364" cx="9022.215" cy="1368.842" r="515.546"/>
		<path fill="#F9A51B" d="M8955.007,1945.019c-317.708-37.052-546.034-325.677-508.981-643.386
			c37.052-317.708,325.678-546.034,643.386-508.982c317.708,37.052,546.034,325.678,508.981,643.386
			C9561.335,1753.747,9272.717,1982.076,8955.007,1945.019z M9074.457,920.891c-246.986-28.806-471.384,148.715-500.19,395.701
			c-28.806,246.986,148.715,471.384,395.701,500.19c246.986,28.806,471.384-148.715,500.19-395.701
			C9498.966,1174.101,9321.438,949.699,9074.457,920.891z"/>
	</g>
	<g>
		<g>
			<g>
				<path fill="#F9A51B" d="M9177.709,1501.818c-8.977,76.96-63.949,134.004-141.593,150.856l-10.552,90.459l-134.971-15.744
					l9.58-82.131c-37.745-10.803-72.605-28.843-96.02-50.204l-24.209-22.036l63.634-128.8l42.365,36.084
					c22.53,18.927,54.134,32.509,84.571,36.064c22.684,2.644,50.4-2.854,53.212-26.975c1.14-9.766,3.247-27.854-54.782-59.368
					c-72.87-39.064-146.109-92.431-134.483-192.076c8.573-73.515,61.231-128.21,135.618-144.563l10.284-88.159l134.108,15.644
					l-9.277,79.548c28.401,8.552,53.716,21.109,76.195,37.995l29.159,22.031L9145.145,1287l-41.024-30.109
					c-11.002-7.978-33.773-24.896-73.977-29.585c-14.361-1.676-39.427-1.396-41.803,18.992c-1.105,9.479-2.309,19.813,63.833,56.635
					C9112.044,1336.103,9190.439,1392.688,9177.709,1501.818z"/>
			</g>
		</g>
	</g>
	<path fill="#F9A51B" d="M8677.21,1558.346c-48.281-100.548-48.699-215.131-1.803-316.205c4.905-10.575-11.085-19.17-16.009-8.555
		c-49.911,107.579-48.786,227.697,2.501,334.517C8666.94,1578.603,8682.224,1568.784,8677.21,1558.346z"/>
	<path fill="#F9A51B" d="M8863.79,997.021c-67.023,37.127-123.941,87.743-168.521,150.077c-6.715,9.387,6.525,21.829,13.315,12.334
		c43.729-61.149,99.171-110.662,164.955-147.104C8883.761,1006.676,8873.993,991.368,8863.79,997.021z"/>
	<path fill="#F9A51B" d="M9377.252,1150.013c-5.438-10.336-20.729-0.549-15.313,9.752c62.077,118.019,65.969,257.046,10.773,378.413
		c-4.821,10.605,11.17,19.206,16.011,8.561C9446.817,1418.996,9442.563,1274.18,9377.252,1150.013z"/>
	<path fill="#F9A51B" d="M9334.27,1594.386c-35.759,58.978-84.999,106.219-145.129,139.953c-10.19,5.719-0.424,21.022,9.753,15.312
		c62.805-35.233,114.062-85.155,151.386-146.705C9356.354,1592.924,9340.31,1584.43,9334.27,1594.386z"/>
	<path fill="#F9A51B" d="M9342.853,1459.275c-6.285,44.699-22.397,85.905-48.123,123c-6.662,9.606,9.273,18.32,15.881,8.793
		c26.513-38.234,43.357-81.239,49.837-127.318C9362.062,1452.283,9344.478,1447.719,9342.853,1459.275z"/>
	<path fill="#E88B24" d="M8956.462,1834.358c-2.998,36.628-5.992,73.249-8.99,109.877c-0.951,11.62,17.196,10.827,18.141-0.692
		c2.998-36.628,5.992-73.249,8.99-109.877C8975.554,1822.046,8957.405,1822.839,8956.462,1834.358z"/>
	<path fill="#E88B24" d="M9103.032,1828.502c-1.104-11.581-19.253-10.962-18.14,0.692c3.521,36.87,7.047,73.734,10.568,110.605
		c1.104,11.581,19.253,10.962,18.141-0.692C9110.08,1902.236,9106.554,1865.373,9103.032,1828.502z"/>
	<path fill="#E88B24" d="M9254.539,1887.919c-12.555-35.571-25.108-71.141-37.663-106.712c-3.875-10.98-21.213-5.568-17.306,5.49
		c12.555,35.571,25.109,71.141,37.664,106.712C9241.109,1904.389,9258.441,1898.978,9254.539,1887.919z"/>
	<path fill="#E88B24" d="M9382.774,1806.423c-19.29-34.101-38.573-68.199-57.862-102.295c-5.754-10.17-21.059-0.408-15.313,9.752
		c19.289,34.096,38.573,68.199,57.862,102.295C9373.21,1826.347,9388.52,1816.584,9382.774,1806.423z"/>
	<path fill="#E88B24" d="M9474.819,1717.901l-86.727-82.524c-8.478-8.067-20.811,5.255-12.334,13.316
		c28.91,27.507,57.815,55.016,86.728,82.529C9470.962,1739.283,9483.289,1725.963,9474.819,1717.901z"/>
	<path fill="#E88B24" d="M9530.016,1615.108c-31.38-12.574-62.76-25.147-94.14-37.721c-10.752-4.307-19.393,11.667-8.561,16.01
		c31.38,12.574,62.759,25.147,94.138,37.715C9532.207,1635.425,9540.847,1619.452,9530.016,1615.108z"/>
	<path fill="#E88B24" d="M9585.382,1459.372c-40.821-0.205-81.643-0.411-122.463-0.611c-11.688-0.057-10.975,18.078,0.692,18.14
		c40.821,0.205,81.643,0.411,122.463,0.611C9597.764,1477.575,9597.048,1459.435,9585.382,1459.372z"/>
	<path fill="#E88B24" d="M9592.841,1328.109c-37.007,7.662-74.011,15.329-111.022,22.992c-11.413,2.365-5.872,19.663,5.49,17.305
		c37.006-7.662,74.011-15.329,111.021-22.992C9609.737,1343.05,9604.204,1325.756,9592.841,1328.109z"/>
	<path fill="#F9A51B" d="M8722.421,1300.654c6.703-44.636,23.198-85.69,49.267-122.546c6.749-9.542-9.104-18.405-15.799-8.942
		c-26.869,37.987-44.11,80.831-51.025,126.847C8703.152,1307.464,8720.688,1312.193,8722.421,1300.654z"/>
	<path fill="#E88B24" d="M9126.029,917.016c5.582-36.32,11.157-72.644,16.739-108.964c1.769-11.519-16.387-12.013-18.142-0.596
		c-5.582,36.32-11.158,72.644-16.734,108.963C9106.113,927.941,9124.274,928.433,9126.029,917.016z"/>
	<path fill="#E88B24" d="M8979.413,912.494c0.286,11.626,18.431,12.296,18.143,0.596c-0.91-37.023-1.815-74.053-2.726-111.076
		c-0.286-11.626-18.431-12.296-18.141-0.59C8977.598,838.441,8978.502,875.465,8979.413,912.494z"/>
	<path fill="#E88B24" d="M8818.904,825.63c10.01,36.367,20.021,72.739,30.026,109.107c3.088,11.225,20.764,7.058,17.653-4.254
		c-10.011-36.367-20.017-72.741-30.027-109.107C8833.47,810.151,8815.795,814.323,8818.904,825.63z"/>
	<path fill="#E88B24" d="M8702.116,884.278c16.828,35.38,33.655,70.755,50.482,106.13c5.02,10.552,20.979,1.898,15.963-8.643
		c-16.827-35.375-33.655-70.755-50.482-106.13C8713.059,865.082,8697.099,873.736,8702.116,884.278z"/>
	<path fill="#E88B24" d="M8604.035,966.072l80.677,88.447c7.883,8.643,21.126-3.771,13.244-12.409
		c-26.89-29.481-53.781-58.968-80.678-88.453C8609.402,945.018,8596.16,957.433,8604.035,966.072z"/>
	<path fill="#E88B24" d="M8523.182,1093.513c30.414,14.759,60.823,29.519,91.237,44.278c10.419,5.057,20.171-10.273,9.668-15.366
		c-30.414-14.759-60.823-29.519-91.237-44.278C8522.432,1073.09,8512.684,1088.419,8523.182,1093.513z"/>
	<path fill="#E88B24" d="M8456.943,1244.946c40.703,3.087,81.408,6.179,122.111,9.267c11.659,0.883,12.227-17.257,0.59-18.141
		c-40.704-3.093-81.407-6.179-122.112-9.272C8445.878,1225.915,8445.312,1244.061,8456.943,1244.946z"/>
	<path fill="#E88B24" d="M8438.576,1390.584c37.454-5.03,74.91-10.055,112.369-15.086c11.55-1.549,7.251-19.195-4.254-17.653
		c-37.454,5.03-74.909,10.055-112.369,15.086C8422.77,1374.486,8427.071,1392.126,8438.576,1390.584z"/>
	<path fill="#E88B24" d="M9476.086,1270.885c34.571-12.45,69.146-24.907,103.716-37.362c10.966-3.952,2.722-20.138-8.149-16.223
		c-34.571,12.45-69.146,24.907-103.716,37.362C9456.973,1258.62,9465.217,1274.806,9476.086,1270.885z"/>
	<path fill="#E88B24" d="M9528.628,1117.919c-34.535,15.169-69.076,30.339-103.612,45.502c-10.66,4.683-3.977,21.565,6.761,16.849
		c34.535-15.169,69.078-30.333,103.613-45.502C9546.051,1130.09,9539.366,1113.203,9528.628,1117.919z"/>
	<path fill="#E88B24" d="M9469.003,1011.417c-32.567,21.771-65.135,43.542-97.708,65.314c-9.718,6.492,1.158,21.034,10.865,14.545
		c32.567-21.771,65.135-43.542,97.702-65.313C9489.58,1019.471,9478.71,1004.927,9469.003,1011.417z"/>
	<path fill="#E88B24" d="M9389.184,926.786l-75.844,92.627c-7.414,9.052,6.788,20.36,14.196,11.309
		c25.281-30.876,50.563-61.751,75.845-92.627C9410.795,929.044,9396.592,917.736,9389.184,926.786z"/>
	<path fill="#E88B24" d="M9251.952,849.913c-10.205,32.227-20.403,64.458-30.609,96.685c-3.498,11.041,13.081,18.469,16.602,7.341
		c10.205-32.227,20.405-64.453,30.608-96.685C9272.048,846.22,9255.475,838.79,9251.952,849.913z"/>
	<path fill="#E88B24" d="M8561.744,1450.997c-28.669,9.816-57.332,19.636-86.001,29.453c-11.023,3.776-5.603,21.106,5.49,17.305
		c28.669-9.816,57.333-19.631,86.001-29.453C8578.259,1464.526,8572.837,1447.197,8561.744,1450.997z"/>
	<path fill="#E88B24" d="M8591.895,1565.064c-31.423,11.417-62.84,22.833-94.257,34.248c-10.937,3.974-5.535,21.314,5.49,17.305
		c31.417-11.415,62.84-22.833,94.257-34.248C8608.321,1578.395,8602.916,1561.062,8591.895,1565.064z"/>
	<path fill="#E88B24" d="M8634.776,1636.784c-27.965,15.537-55.934,31.081-83.898,46.618c-10.213,5.679-0.446,20.982,9.753,15.313
		c27.97-15.539,55.933-31.081,83.903-46.619C8654.742,1646.418,8644.975,1631.115,8634.776,1636.784z"/>
	<path fill="#E88B24" d="M8693.853,1706.985c-25.813,20.807-51.619,41.619-77.432,62.426c-8.992,7.25,0.646,22.657,9.752,15.312
		c25.813-20.807,51.621-41.613,77.432-62.426C8712.592,1715.048,8702.959,1699.64,8693.853,1706.985z"/>
	<path fill="#E88B24" d="M8763.337,1771.734c-16.848,25.423-33.7,50.848-50.548,76.271c-6.465,9.756,9.606,18.219,16.011,8.561
		c16.848-25.423,33.695-50.846,50.548-76.271C8785.807,1770.54,8769.734,1762.071,8763.337,1771.734z"/>
	<path fill="#E88B24" d="M8871.548,1816.821c-12.031,30.022-24.057,60.042-36.082,90.062c-4.307,10.752,11.672,19.391,16.011,8.561
		c12.025-30.02,24.057-60.042,36.082-90.062C8891.865,1814.63,8875.891,1805.984,8871.548,1816.821z"/>
</g>
<g>
	<path fill="#E88B24" d="M7495.301,3139.66c-11.767-54.605-17.897-110.723-18.424-167.855
		c1.027,57.172,7.109,113.793,18.875,168.398L7495.301,3139.66z"/>
	<path fill="#E88B24" d="M7479.874,2879.933l0.5,0.041l-0.041,0.501c-1.339,15.408-2.146,30.357-2.944,45.305
		C7477.685,2910.783,7478.532,2895.333,7479.874,2879.933z"/>
	<g>
		<circle fill="#FDC364" cx="8368.386" cy="3012.923" r="796.825"/>
		<path fill="#F9A51B" d="M9261.574,3090.755c-42.907,492.511-478.512,858.284-971.023,815.376
			c-492.511-42.907-858.283-478.512-815.376-971.023c42.908-492.511,478.512-858.284,971.023-815.376
			C8938.712,2162.647,9304.49,2598.241,9261.574,3090.755z M7673.973,2952.424c-33.359,382.877,251.026,721.548,633.903,754.907
			c382.877,33.359,721.548-251.025,754.906-633.903s-251.025-721.548-633.903-754.907
			C8046.01,2285.16,7707.334,2569.555,7673.973,2952.424z"/>
	</g>
	<g>
		<g>
			<g>
				<path fill="#F9A51B" d="M8566.808,2766.693c119.304,10.395,209.913,92.751,239.451,211.945l140.23,12.22l-18.233,209.231
					l-127.319-11.094c-14.986,58.801-41.284,113.472-73.229,150.608L8694.755,3378l-201.859-92.498l53.836-67.08
					c28.224-35.663,47.78-85.1,51.9-132.285c3.062-35.164-6.684-77.736-44.076-80.991c-15.14-1.32-43.179-3.76-89.247,87.314
					c-57.063,114.343-136.207,229.901-290.677,216.436c-113.963-9.928-200.84-88.813-229.46-202.999l-136.664-11.911l18.117-207.894
					l123.316,10.743c11.931-44.264,30.189-83.941,55.262-119.431l32.721-46.043l198.474,95.336l-44.666,64.738
					c-11.829,17.357-36.938,53.301-42.369,115.624c-1.941,22.263-0.378,60.976,31.227,63.725
					c14.694,1.281,30.715,2.672,84.618-101.173C8313.751,2875.619,8397.636,2751.949,8566.808,2766.693z"/>
			</g>
		</g>
	</g>
	<path fill="#F9A51B" d="M8676.725,3537.381c-153.162,79.129-330.167,84.945-488.435,17.053
		c-16.56-7.101-29.117,17.991-12.495,25.119c168.456,72.256,353.979,65.098,516.696-18.958
		C8708.484,3552.333,8692.624,3529.165,8676.725,3537.381z"/>
	<path fill="#F9A51B" d="M7801.094,3274.457c60.383,101.872,141.149,187.522,239.464,253.581
		c14.806,9.95,33.43-11.066,18.455-21.128c-96.445-64.799-175.441-148.219-234.71-248.208
		C7815.11,3243.166,7791.9,3258.948,7801.094,3274.457z"/>
	<path fill="#F9A51B" d="M8014.288,2474.286c-15.723,8.868,0.088,32.052,15.758,23.217
		c179.531-101.229,394.144-113.515,584.138-33.719c16.603,6.971,29.168-18.124,12.504-25.122
		C8426.711,2354.675,8203.171,2367.784,8014.288,2474.286z"/>
	<path fill="#F9A51B" d="M8702.756,2520.641c92.731,52.584,167.937,126.525,222.768,217.898
		c9.295,15.486,32.496-0.293,23.216-15.757c-57.267-95.44-136.705-172.376-233.48-227.262
		C8699.5,2486.587,8687.102,2511.759,8702.756,2520.641z"/>
	<path fill="#F9A51B" d="M8493.63,2513.476c69.34,7.694,133.729,30.727,192.199,68.798c15.141,9.859,27.885-15.153,12.867-24.932
		c-60.266-39.235-127.465-63.319-198.947-71.25C8481.962,2484.116,8475.703,2511.487,8493.63,2513.476z"/>
	<path fill="#E88B24" d="M9090.545,3093.5c56.723,2.979,113.436,5.952,170.158,8.931c17.995,0.946,15.951-27.056-1.888-27.994
		c-56.724-2.979-113.436-5.952-170.158-8.931C9070.662,3064.56,9072.706,3092.562,9090.545,3093.5z"/>
	<path fill="#E88B24" d="M9074.884,2867.323c-17.842,2.229-16.067,30.239,1.889,27.994c56.804-7.104,113.597-14.215,170.4-21.32
		c17.843-2.229,16.067-30.239-1.889-27.994C9188.481,2853.107,9131.688,2860.218,9074.884,2867.323z"/>
	<path fill="#E88B24" d="M9159.842,2630.573c-54.388,21.001-108.775,42.002-163.163,63.004c-16.789,6.482-7.646,33.023,9.263,26.488
		c54.388-21.001,108.775-42.002,163.163-63.004C9185.894,2650.578,9176.752,2624.045,9159.842,2630.573z"/>
	<path fill="#E88B24" d="M9028.15,2436.136c-51.813,31.341-103.622,62.671-155.427,94.009c-15.453,9.349,0.319,32.552,15.757,23.217
		c51.806-31.338,103.622-62.671,155.428-94.009C9059.363,2450.012,9043.589,2426.8,9028.15,2436.136z"/>
	<path fill="#E88B24" d="M8887.235,2297.926l-123.58,137.711c-12.08,13.461,9.057,31.913,21.128,18.455
		c41.192-45.906,82.388-91.804,123.589-137.713C8920.443,2302.921,8899.31,2284.477,8887.235,2297.926z"/>
	<path fill="#E88B24" d="M8725.938,2217.29c-18.01,49.047-36.02,98.094-54.029,147.142c-6.168,16.805,18.9,29.433,25.122,12.503
		c18.01-49.048,36.019-98.094,54.02-147.139C8757.227,2212.988,8732.159,2200.36,8725.938,2217.29z"/>
	<path fill="#E88B24" d="M8482.837,2138.78c1.524,63.076,3.049,126.151,4.582,189.224c0.439,18.06,28.424,16.139,27.994-1.888
		c-1.525-63.075-3.049-126.151-4.582-189.224C8510.4,2118.829,8482.407,2120.753,8482.837,2138.78z"/>
	<path fill="#E88B24" d="M8279.706,2133.18c13.507,56.827,27.022,113.65,40.531,170.485c4.169,17.525,30.643,8.185,26.487-9.263
		c-13.507-56.827-27.021-113.65-40.531-170.485C8302.026,2106.4,8275.559,2115.73,8279.706,2133.18z"/>
	<path fill="#F9A51B" d="M8276.567,3479.162c-69.263-8.342-133.432-31.973-191.548-70.584
		c-15.046-9.996-28.024,14.896-13.103,24.812c59.9,39.797,126.869,64.501,198.272,73.107
		C8287.958,3508.622,8294.472,3481.319,8276.567,3479.162z"/>
	<path fill="#E88B24" d="M7665.658,2872.923c-56.364-6.985-112.734-13.959-169.098-20.944c-17.876-2.212-17.819,25.86-0.102,28.056
		c56.364,6.985,112.734,13.959,169.096,20.936C7683.435,2903.199,7683.375,2875.119,7665.658,2872.923z"/>
	<path fill="#E88B24" d="M7665.288,3099.64c17.948-0.967,18.166-29.03,0.102-28.056c-57.157,3.076-114.325,6.146-171.482,9.222
		c-17.948,0.967-18.166,29.03-0.093,28.053C7550.962,3105.786,7608.122,3102.718,7665.288,3099.64z"/>
	<path fill="#E88B24" d="M7538.332,3351.536c55.733-17.106,111.474-34.215,167.209-51.313c17.203-5.276,9.968-32.397-7.369-27.081
		c-55.733,17.106-111.476,34.207-167.209,51.313C7513.76,3329.731,7521.004,3356.849,7538.332,3351.536z"/>
	<path fill="#E88B24" d="M7634.208,3529.319c53.901-27.595,107.794-55.188,161.687-82.781c16.076-8.232,1.985-32.499-14.074-24.272
		c-53.893,27.593-107.794,55.188-161.687,82.781C7604.059,3513.28,7618.149,3537.546,7634.208,3529.319z"/>
	<path fill="#E88B24" d="M7765.001,3677.157l133.005-128.632c12.998-12.568-6.78-32.467-19.77-19.901
		c-44.333,42.874-88.675,85.75-133.014,128.634C7732.231,3669.815,7752.009,3689.714,7765.001,3677.157z"/>
	<path fill="#E88B24" d="M7965.538,3796.32c21.429-47.654,42.861-95.3,64.29-142.953c7.343-16.324-16.781-30.7-24.175-14.242
		c-21.429,47.654-42.861,95.3-64.291,142.953C7934.019,3798.401,7958.141,3812.768,7965.538,3796.32z"/>
	<path fill="#E88B24" d="M8202.48,3891.822c2.933-63.023,5.874-126.049,8.807-189.072c0.838-18.053-27.213-18.111-28.053-0.094
		c-2.941,63.026-5.874,126.049-8.814,189.075C8173.579,3909.776,8201.639,3909.831,8202.48,3891.822z"/>
	<path fill="#E88B24" d="M8428.311,3913.625c-9.461-57.637-18.914-115.277-28.378-172.922c-2.914-17.773-29.982-10.336-27.081,7.368
		c9.462,57.637,18.915,115.277,28.378,172.922C8404.154,3938.773,8431.213,3931.33,8428.311,3913.625z"/>
	<path fill="#E88B24" d="M8196.568,2316.14c-20.794-52.848-41.6-105.703-62.403-158.549c-6.601-16.762-31.235-3.295-24.695,13.323
		c20.794,52.849,41.6,105.703,62.403,158.549C8178.482,2346.222,8203.116,2332.755,8196.568,2316.14z"/>
	<path fill="#E88B24" d="M7957.874,2241.868c24.993,52.67,49.988,105.349,74.973,158.022c7.717,16.257,33.496,5.17,25.726-11.206
		c-24.993-52.67-49.98-105.352-74.973-158.022C7975.891,2214.403,7950.103,2225.492,7957.874,2241.868z"/>
	<path fill="#E88B24" d="M7796.025,2338.791c35.104,49.332,70.208,98.665,105.315,148.006c10.468,14.72,32.444-2.739,21.981-17.442
		c-35.104-49.332-70.208-98.665-105.313-147.997C7807.54,2306.638,7785.562,2324.088,7796.025,2338.791z"/>
	<path fill="#E88B24" d="M7668.877,2465.925l146.525,112.995c14.319,11.045,31.148-11.406,16.832-22.443
		c-48.841-37.665-97.683-75.33-146.525-112.995C7671.391,2432.436,7654.562,2454.888,7668.877,2465.925z"/>
	<path fill="#E88B24" d="M7556.307,2681.409c50.25,14.313,100.504,28.614,150.754,42.926c17.215,4.906,27.943-21.042,10.591-25.979
		c-50.249-14.313-100.496-28.616-150.753-42.926C7549.694,2650.529,7538.963,2676.468,7556.307,2681.409z"/>
	<path fill="#E88B24" d="M8516.088,3720.612c16.459,43.85,32.924,87.688,49.384,131.538c6.331,16.861,32.859,7.703,26.487-9.263
		c-16.459-43.849-32.916-87.691-49.384-131.538C8536.243,3694.489,8509.716,3703.646,8516.088,3720.612z"/>
	<path fill="#E88B24" d="M8690.953,3668.885c19.056,48.031,38.11,96.053,57.164,144.076c6.633,16.717,33.179,7.59,26.487-9.263
		c-19.054-48.022-38.11-96.053-57.164-144.075C8710.808,3642.906,8684.272,3652.038,8690.953,3668.885z"/>
	<path fill="#E88B24" d="M8799.82,3599.4c25.267,42.503,50.542,85.011,75.808,127.513c9.234,15.523,32.436-0.257,23.217-15.757
		c-25.268-42.511-50.541-85.011-75.81-127.522C8813.804,3568.119,8790.603,3583.899,8799.82,3599.4z"/>
	<path fill="#E88B24" d="M8905.611,3504.962c33.311,38.941,66.627,77.871,99.938,116.811c11.607,13.565,34.975-2.02,23.217-15.757
		c-33.311-38.941-66.618-77.873-99.938-116.811C8917.223,3475.648,8893.854,3491.225,8905.611,3504.962z"/>
	<path fill="#E88B24" d="M9002.509,3394.692c40.037,24.881,80.077,49.771,120.114,74.652c15.364,9.548,27.714-15.663,12.503-25.121
		c-40.037-24.881-80.074-49.762-120.114-74.652C8999.65,3360.031,8987.292,3385.245,9002.509,3394.692z"/>
	<path fill="#E88B24" d="M9067.283,3225.478c46.925,17.233,93.847,34.457,140.769,51.681c16.806,6.168,29.431-18.908,12.503-25.121
		c-46.921-17.224-93.847-34.457-140.768-51.681C9062.981,3194.188,9050.345,3219.259,9067.283,3225.478z"/>
</g>
<g>
	<g>
		<g>
			<polygon fill="#AECF9F" points="5043.95,2257.207 744.007,2342.175 766.14,4012.351 5066.091,3927.389 			"/>
		</g>
		<g>
			<path fill="#065F0F" d="M722.655,4214.31c136.48-4.52,4111.303-135.122,4288.331-140.949
				c64.328-2.076,115.369-55.75,114.536-120.39c-18.329-1381.437-9.314-706.269-21.723-1641.922
				c-0.561-42.695-23.719-79.76-58.049-99.781c-22.031-13.029-40.706-15.67-63.973-16.067
				c-35.019-0.422-4071.893-51.527-4073.08-51.539c-96.447-1.141-182.643,45.564-236.028,118.227c0,0,0,0-0.029,0.066
				c-34.802,47.365-55.58,105.744-56.181,168.966c-0.008,1.297-14.145,1623.859-14.537,1665.012
				C601.311,4162.851,656.051,4216.494,722.655,4214.31z M804.159,2459.733c-0.244-64.744,51.581-118.976,117.7-119.415
				c562.7-3.736,3837.878-21.323,3839.127-21.333c120.782-0.686,109.368-0.66,114.301-0.521
				c61.605,2.571,111.143,52.995,111.934,115.661c3.564,268.63,4.527,339.788,17.439,1318.268
				c0.871,64.735-50.344,118.421-114.713,120.389c-3109.619,96.022-1153.429,35.641-3959.354,122.338
				c-60.783,2.08-112.656-43.781-119.613-102.984C809.594,3880.953,810.646,3982.116,804.159,2459.733z"/>
		</g>
		<g>
			<path fill="#065F0F" d="M2355.105,2954.809c113.901-326.879,389.75-621.766,888.487-449.311
				c324.788,112.306,505.693,487.358,425.04,823.883c-98.045,409.073-419.953,566.529-906.489,453.044
				C2427.355,3704.333,2212.699,3363.48,2355.105,2954.809z"/>
		</g>
		<g>
			<path fill="#065F0F" d="M1631.605,3086.146c42.905-123.134,146.806-234.203,334.669-169.247
				c122.346,42.302,190.483,183.581,160.108,310.336c-36.927,154.091-158.187,213.403-341.454,170.646
				C1658.818,3368.476,1577.966,3240.079,1631.605,3086.146z"/>
		</g>
	</g>
	<g>
		<path fill="#065F0F" d="M3899.056,3075.777c42.905-123.134,146.806-234.203,334.669-169.247
			c122.345,42.302,190.483,183.581,160.107,310.336c-36.927,154.091-158.187,213.403-341.454,170.646
			C3926.269,3358.107,3845.417,3229.71,3899.056,3075.777z"/>
	</g>
</g>
</svg>
