<?xml version="1.0" encoding="utf-8"?>
<!-- Generator: Adobe Illustrator 17.0.0, SVG Export Plug-In . SVG Version: 6.00 Build 0)  -->
<!DOCTYPE svg PUBLIC "-//W3C//DTD SVG 1.1//EN" "http://www.w3.org/Graphics/SVG/1.1/DTD/svg11.dtd">
<svg version="1.1" id="Layer_1" xmlns="http://www.w3.org/2000/svg" xmlns:xlink="http://www.w3.org/1999/xlink" x="0px" y="0px"
	 width="5225.817px" height="4652.9px" viewBox="0 0 5225.817 4652.9" enable-background="new 0 0 5225.817 4652.9"
	 xml:space="preserve">
<g>
	<g>
		<g>
			<polygon fill="#AECF9F" points="-2236.59,2858.439 -722.483,3630.648 -418.755,3044.568 -1932.864,2272.355 			"/>
		</g>
		<g>
			<path fill="#065F0F" d="M-365.943,2982.307c-48.398-23.875-1457.73-719.558-1520.5-750.539
				c-22.801-11.272-50.595-2.087-62.358,20.591c-251.212,484.763-128.453,247.828-298.602,576.159
				c-7.766,14.981-6.608,32.214,1.62,45.592c5.247,8.648,11.261,13.051,19.295,17.528
				c12.123,6.677,1409.194,777.245,1409.605,777.47c33.393,18.382,72.136,18.181,104.287,2.818c0,0,0,0,0.022-0.018
				c20.958-10.014,39.084-26.481,51.083-48.398c0.245-0.45,307.732-563.177,315.542-577.443
				C-333.258,3022.865-342.329,2993.966-365.943,2982.307z M-721.52,3578.47c-11.988,22.604-40.159,31.837-63.278,19.661
				c-196.763-103.625-1341.239-708.224-1341.676-708.454c-42.213-22.283-38.231-20.164-39.924-21.132
				c-20.986-12.384-28.845-39.19-17.435-61.173c48.85-94.265,61.783-119.24,239.742-462.587
				c11.768-22.719,39.624-31.875,62.42-20.557c1101.415,546.396,408.545,202.662,1402.402,695.678
				c21.567,10.61,31.09,36.262,22.474,58.188C-458.398,3082.25-439.9,3046.804-721.52,3578.47z"/>
		</g>
		<g>
			<path fill="#065F0F" d="M-1169.611,3116.76c-100.641,92.658-251.745,143.969-393.366-9.12
				c-92.227-99.696-85.324-264.111,5.53-366.33c110.443-124.254,251.969-119.091,400.335,11.176
				C-1055.022,2842.125-1043.787,3000.918-1169.611,3116.76z"/>
		</g>
		<g>
			<path fill="#065F0F" d="M-893.026,3205.909c-37.911,34.904-94.825,54.23-148.171-3.434
				c-34.742-37.553-32.139-99.486,2.081-137.988c41.6-46.805,94.912-44.86,150.796,4.212
				C-849.862,3102.46-845.632,3162.275-893.026,3205.909z"/>
		</g>
	</g>
	<g>
		<path fill="#065F0F" d="M-1685.026,2786.708c-37.911,34.904-94.825,54.23-148.171-3.434
			c-34.742-37.553-32.139-99.486,2.081-137.988c41.6-46.805,94.912-44.86,150.796,4.212
			C-1641.861,2683.259-1637.631,2743.074-1685.026,2786.708z"/>
	</g>
</g>
<g>
	<g>
		<path fill="#4682B4" d="M-1358.79,847.016c48.197-16.518,73.881-68.978,57.359-117.174l-381.682-1113.527
			c-16.52-48.202-68.984-73.875-117.18-57.355l-427.955,146.687l441.503,1288.058L-1358.79,847.016z"/>
		<path fill="#4682B4" d="M-2450.115-218.306c-48.197,16.521-73.874,68.983-57.356,117.179l381.68,1113.525
			c16.521,48.198,68.984,73.879,117.18,57.354l58.716-20.122l-441.506-1288.058L-2450.115-218.306z"/>
		
			<rect x="-2175.306" y="-303.173" transform="matrix(-0.946 0.3243 -0.3243 -0.946 -3942.8169 1412.267)" fill="#002043" width="172.47" height="1361.623"/>
	</g>
	
		<rect x="-2157.411" y="530.507" transform="matrix(-0.3242 -0.946 0.946 -0.3242 -2931.1909 -933.027)" fill="#F1F7F7" width="717.124" height="99.85"/>
	<polygon fill="#F1F7F7" points="-2050.009,-306.292 -1899.896,131.661 -1994.353,164.042 -2144.468,-273.914 	"/>
	<path fill="#D83A33" d="M-1580.348,573.72c64.539-22.117,134.796,12.264,156.914,76.803c22.123,64.541-12.264,134.8-76.801,156.92
		c-64.544,22.125-134.797-12.264-156.918-76.805C-1679.274,666.093-1644.89,595.846-1580.348,573.72z"/>
	<path fill="#F8D173" d="M-1629.391,430.641c64.538-22.119,134.793,12.262,156.916,76.805
		c22.124,64.54-12.268,134.792-76.804,156.915c-64.546,22.123-134.792-12.262-156.919-76.81
		C-1728.317,523.013-1693.938,452.764-1629.391,430.641z"/>
	
		<rect x="-1805.09" y="84.453" transform="matrix(-0.3242 -0.946 0.946 -0.3242 -2346.1624 -1425.079)" fill="#7E8080" width="246.012" height="81.997"/>
	<polygon fill="#7E8080" points="-1759.626,-227.218 -1716.421,-101.164 -1793.989,-74.574 -1837.198,-200.635 	"/>
</g>
<g>
	<path fill="#E88B24" d="M389.049,547.332c48.671-69.135,104.81-133.551,167.829-192.775
		c-62.55,59.822-119.298,124.701-167.97,193.835L389.049,547.332z"/>
	<path fill="#E88B24" d="M662.161,263.598l0.469,0.598l-0.598,0.469c-18.516,14.324-35.975,28.77-53.424,43.224
		C625.594,292.826,643.652,277.911,662.161,263.598z"/>
	<g>
		<circle fill="#FDC364" cx="1426.134" cy="1388.561" r="1206.09"/>
		<path fill="#F9A51B" d="M2256.271,2462.115c-591.956,457.754-1445.96,348.556-1903.715-243.4S4.001,772.754,595.956,315
			S2041.917-33.556,2499.671,558.4C2957.419,1150.367,2848.238,2004.366,2256.271,2462.115z M780.729,553.934
			C320.54,909.789,235.648,1573.76,591.502,2033.949s1019.826,545.081,1480.014,189.226
			c460.189-355.854,545.081-1019.826,189.226-1480.015C1904.9,282.978,1240.91,198.091,780.729,553.934z"/>
	</g>
	<g>
		<g>
			<g>
				<path fill="#F9A51B" d="M1903.715,1356.587c110.883,143.394,112.26,328.723,9.973,483.92l130.331,168.548l-251.483,194.459
					l-118.333-153.029c-80.797,43.677-168.61,70.533-242.71,73.11l-76.536,2.749l-104.275-319.503l129.88-8.956
					c68.642-5.203,143.714-34.186,200.435-78.032c42.262-32.684,79.622-87.219,44.865-132.159
					c-14.07-18.197-40.133-51.896-188.736-9.673c-185.772,53.873-395.559,84.429-539.12-101.238
					c-105.92-136.974-107.328-314.588-9.671-463.622L761.321,848.896l249.876-193.216l114.614,148.215
					c61.489-32.157,124.369-52.568,189.585-61.1l84.806-10.855l97.643,318.651l-117.864,16.754
					c-31.451,4.655-97.209,13.612-172.117,71.535c-26.76,20.69-68.224,62.161-38.844,100.145
					c13.656,17.662,28.55,36.912,199.402-9.702C1522.812,1186.858,1746.488,1153.251,1903.715,1356.587z"/>
			</g>
		</g>
	</g>
	<path fill="#F9A51B" d="M1159.139,2269.865c-245.229-89.178-433.368-280.126-520.277-525.88
		c-9.096-25.711-49.899-13.928-40.769,11.88c92.51,261.567,290.885,460.614,551.401,555.365
		C1175.102,2320.543,1184.598,2279.121,1159.139,2269.865z"/>
	<path fill="#F9A51B" d="M552.938,1025.874c-51.358,171.733-63.749,349.492-36.335,526.666c4.126,26.684,46.622,25.833,42.446-1.154
		c-26.898-173.802-15.171-347.302,35.235-515.863C602.134,1009.352,560.756,999.73,552.938,1025.874z"/>
	<path fill="#F9A51B" d="M1661.939,441.798c-26.003-8.389-35.567,32.994-9.656,41.359
		c296.879,95.831,530.815,321.977,637.043,615.245c9.284,25.624,50.099,13.848,40.78-11.874
		C2218.296,777.854,1974.283,542.621,1661.939,441.798z"/>
	<path fill="#F9A51B" d="M2316.979,1255.292c36.676,157.133,31.603,316.688-13.774,471.469
		c-7.688,26.235,33.679,35.851,41.358,9.656c47.4-161.665,51.461-329.004,13.196-492.998
		C2351.522,1216.72,2310.794,1228.762,2316.979,1255.292z"/>
	<path fill="#F9A51B" d="M2110.313,1015.287c62.608,85.037,103.07,180.309,120.727,284.432
		c4.571,26.963,45.477,15.469,40.943-11.273c-18.205-107.315-60.382-206.792-124.925-294.456
		C2131.001,972.172,2094.126,993.302,2110.313,1015.287z"/>
	<path fill="#E88B24" d="M2077.681,2274.663c54.904,66.162,109.802,132.306,164.706,198.467
		c17.417,20.99,46.471-10.024,29.206-30.833c-54.903-66.162-109.802-132.306-164.706-198.467
		C2089.47,2222.839,2060.416,2253.854,2077.681,2274.663z"/>
	<path fill="#E88B24" d="M2313.23,2025.102c-20.792-17.563-50.132,13.161-29.206,30.832
		c66.204,55.902,132.403,111.787,198.608,167.689c20.792,17.563,50.132-13.161,29.206-30.833
		C2445.634,2136.889,2379.434,2081.005,2313.23,2025.102z"/>
	<path fill="#E88B24" d="M2663.81,1876.63c-79.185-38.952-158.37-77.904-237.555-116.855c-24.442-12.024-44.585,25.388-19.96,37.49
		c79.185,38.952,158.37,77.904,237.554,116.855C2668.292,1926.143,2688.428,1888.742,2663.81,1876.63z"/>
	<path fill="#E88B24" d="M2744.96,1530.563c-88.046-25.476-176.074-50.957-264.108-76.427c-26.26-7.596-35.886,33.765-9.656,41.358
		c88.035,25.47,176.074,50.958,264.108,76.427C2761.557,1579.529,2771.19,1538.156,2744.96,1530.563z"/>
	<path fill="#E88B24" d="M2754.089,1231.943l-280.04,3.857c-27.374,0.376-26.208,42.83,1.154,42.446
		c93.349-1.289,186.691-2.567,280.051-3.85C2782.615,1274.013,2781.444,1231.571,2754.089,1231.943z"/>
	<path fill="#E88B24" d="M2678.248,969.738c-73.05,30.304-146.098,60.608-219.147,90.912c-25.027,10.386-13.347,51.235,11.874,40.78
		c73.05-30.304,146.098-60.608,219.136-90.919C2715.148,1000.132,2703.468,959.284,2678.248,969.738z"/>
	<path fill="#E88B24" d="M2516.084,618.71c-68.606,66.434-137.214,132.867-205.809,199.308
		c-19.641,19.025,11.218,48.186,30.833,29.206c68.606-66.434,137.214-132.867,205.809-199.308
		C2566.57,628.898,2535.698,599.731,2516.084,618.71z"/>
	<path fill="#E88B24" d="M2313.831,386.98c-49.357,73.35-98.702,146.707-148.065,220.068c-15.218,22.625,22.344,42.49,37.49,19.961
		c49.357-73.35,98.702-146.707,148.065-220.068C2366.532,384.326,2328.988,364.457,2313.831,386.98z"/>
	<path fill="#F9A51B" d="M813.207,1764.937c-61.807-85.616-101.378-181.258-118.07-285.541
		c-4.321-26.997-45.335-15.888-41.051,10.889c17.204,107.484,58.455,207.342,122.165,295.611
		C792.122,1807.846,829.183,1787.07,813.207,1764.937z"/>
	<path fill="#E88B24" d="M860.64,463.088c-50.079-69.874-100.175-139.744-150.253-209.618
		c-15.886-22.157-47.057,6.717-31.316,28.682c50.079,69.874,100.175,139.744,150.26,209.607
		C845.203,513.938,876.381,485.053,860.64,463.088z"/>
	<path fill="#E88B24" d="M608.037,695.367c19.496,18.975,50.94-9.585,31.316-28.682c-62.086-60.43-124.175-120.878-186.26-181.308
		c-19.496-18.975-50.94,9.585-31.305,28.688C483.862,574.488,545.94,634.93,608.037,695.367z"/>
	<path fill="#E88B24" d="M197.502,812.662c76.232,44.446,152.475,88.898,228.7,133.355c23.526,13.723,46.271-22.161,22.564-35.992
		c-76.232-44.446-152.468-88.909-228.7-133.355C196.54,762.947,173.806,798.838,197.502,812.662z"/>
	<path fill="#E88B24" d="M98.121,1101.793c86.021,31.642,172.031,63.279,258.04,94.915c25.658,9.435,38.193-31.146,12.558-40.568
		c-86.01-31.636-172.031-63.279-258.04-94.915C85.021,1051.789,72.486,1092.37,98.121,1101.793z"/>
	<path fill="#E88B24" d="M67.891,1399.033l279.612,15.947c27.323,1.56,29.161-40.865,1.85-42.419
		c-93.198-5.317-186.408-10.641-279.624-15.954C42.426,1355.041,40.587,1397.467,67.891,1399.033z"/>
	<path fill="#E88B24" d="M141.144,1744.433c75.009-25.069,150.011-50.128,225.02-75.197c25.698-8.585,16.93-50.178-8.968-41.513
		c-75.009,25.069-150.011,50.128-225.02,75.197C106.479,1711.505,115.253,1753.086,141.144,1744.433z"/>
	<path fill="#E88B24" d="M278.085,2106.049c73.123-61.421,146.258-122.836,219.381-184.257
		c20.945-17.597-7.782-48.863-28.688-31.305c-73.135,61.415-146.258,122.836-219.392,184.251
		C228.447,2092.323,257.184,2123.596,278.085,2106.049z"/>
	<path fill="#E88B24" d="M485.608,2379.663c54.411-69.682,108.833-139.356,163.25-209.049
		c16.782-21.483-19.274-43.964-35.991-22.565c-54.411,69.682-108.833,139.356-163.25,209.049
		C432.839,2378.6,468.891,2401.063,485.608,2379.663z"/>
	<path fill="#E88B24" d="M2024.96,482.271c37.451-77.375,74.898-154.768,112.338-232.15c11.873-24.547-28.392-38.13-40.167-13.8
		c-37.451,77.375-74.899,154.768-112.339,232.15C1972.931,493.025,2013.196,506.608,2024.96,482.271z"/>
	<path fill="#E88B24" d="M1862.602,140.494c-32.944,81.863-65.895,163.737-98.851,245.594c-10.166,25.27,28.627,42.571,38.87,17.119
		c32.944-81.863,65.906-163.731,98.851-245.594C1911.65,132.349,1872.846,115.042,1862.602,140.494z"/>
	<path fill="#E88B24" d="M1588.663,59.915c-18.853,89.686-37.706,179.372-56.566,269.069c-5.632,26.754,36.346,33.284,41.964,6.552
		c18.853-89.686,37.706-179.372,56.559-269.057C1636.252,39.724,1594.281,33.183,1588.663,59.915z"/>
	<path fill="#E88B24" d="M1316.728,48.948l24.679,278.981c2.408,27.266,44.658,22.945,42.243-4.31
		c-8.227-92.993-16.453-185.987-24.679-278.981C1356.564,17.372,1314.314,21.693,1316.728,48.948z"/>
	<path fill="#E88B24" d="M961.466,144.874c35.651,70.592,71.32,141.178,106.971,211.77c12.211,24.188,52.088,9.49,39.772-14.88
		c-35.651-70.592-71.309-141.172-106.971-211.77C989.033,105.824,949.162,120.51,961.466,144.874z"/>
	<path fill="#E88B24" d="M790.426,2279.216c-31.89,63.316-63.762,126.627-95.651,189.942c-12.259,24.349,25.155,44.463,37.49,19.961
		c31.89-63.316,63.773-126.62,95.651-189.942C840.174,2274.828,802.76,2254.714,790.426,2279.216z"/>
	<path fill="#E88B24" d="M1027.445,2420.663c-33.876,70.497-67.745,140.982-101.613,211.467
		c-11.79,24.536,25.609,44.701,37.49,19.96c33.869-70.485,67.745-140.982,101.614-211.467
		C1076.725,2416.087,1039.331,2395.94,1027.445,2420.663z"/>
	<path fill="#E88B24" d="M1216.484,2470.462c-21.353,71.731-42.701,143.479-64.054,215.209
		c-7.792,26.205,33.576,35.821,41.359,9.656c21.359-71.742,42.701-143.479,64.06-215.22
		C1265.635,2453.913,1224.267,2444.298,1216.484,2470.462z"/>
	<path fill="#E88B24" d="M1430.123,2491.228c-9.133,77.025-18.248,154.045-27.381,231.07c-3.178,26.836,38.143,36.836,41.358,9.656
		c9.133-77.025,18.26-154.039,27.381-231.07C1474.653,2474.059,1433.338,2464.048,1430.123,2491.228z"/>
	<path fill="#E88B24" d="M1652.25,2485.851c13.412,70.078,26.817,140.167,40.229,210.245c5.147,26.892,45.869,14.756,40.78-11.874
		c-13.412-70.078-26.824-140.156-40.229-210.245C1687.876,2447.097,1647.142,2459.226,1652.25,2485.851z"/>
	<path fill="#E88B24" d="M1906.981,2384.239c28.989,69.89,57.986,139.769,86.983,209.648c10.386,25.027,51.241,13.336,40.78-11.874
		c-28.996-69.878-57.986-139.769-86.983-209.648C1937.375,2347.339,1896.515,2359.012,1906.981,2384.239z"/>
</g>
<g>
	<path fill="#E88B24" d="M1960.584,2409.344c69.969,19.476,138.271,46.353,204.352,80.295
		c-66.43-33.39-135.282-60.627-205.251-80.103L1960.584,2409.344z"/>
	<path fill="#E88B24" d="M2268.875,2548.643l-0.349,0.552l-0.552-0.349c-16.925-10.859-33.646-20.827-50.369-30.785
		C2234.688,2527.469,2251.96,2537.787,2268.875,2548.643z"/>
	<g>
		<circle fill="#FDC364" cx="1578.513" cy="3490.953" r="1036.055"/>
		<path fill="#F9A51B" d="M948.814,4472.001c-540.963-347.21-698.579-1069.798-351.369-1610.761s1069.798-698.579,1610.761-351.369
			s698.579,1069.798,351.369,1610.761C2212.355,4661.592,1489.776,4819.222,948.814,4472.001z M2068.062,2728.228
			c-420.542-269.923-982.338-147.374-1252.262,273.168s-147.374,982.338,273.168,1252.261
			c420.542,269.924,982.338,147.375,1252.262-273.168C2611.151,3559.958,2488.593,2998.149,2068.062,2728.228z"/>
	</g>
	<g>
		<g>
			<g>
				<path fill="#F9A51B" d="M1741.953,3868.243c-84.108,131.04-233.696,185.537-388.757,147.46l-98.863,154.024l-229.811-147.509
					l89.759-139.844c-58.62-52.807-105.649-116.137-129.078-175.364l-24.27-61.148l228.534-176.419l44.659,102.531
					c23.983,54.052,69.062,106.458,120.884,139.733c38.624,24.788,93.52,39.314,119.878-1.759
					c10.674-16.628,30.438-47.428-46.535-155.528c-97.109-134.825-182.265-295.802-73.358-465.464
					c80.341-125.174,223.677-177.473,372.418-141.369l96.35-150.106l228.342,146.567l-86.935,135.448
					c43.736,40.499,78.366,85.508,104.055,135.829l33.212,65.506l-229.755,170.806l-47.508-90.56
					c-12.826-24.112-39.016-74.749-107.469-118.687c-24.453-15.697-69.958-37.307-92.235-2.59
					c-10.36,16.139-21.649,33.738,65.288,158.579C1769.596,3511.094,1861.222,3682.432,1741.953,3868.243z"/>
			</g>
		</g>
	</g>
	<path fill="#F9A51B" d="M788.38,3528.73c1.534-224.148,101.874-431.407,275.726-572.529c18.187-14.767-3.102-44.394-21.358-29.572
		c-185.036,150.209-288.982,368.085-290.623,606.21C751.964,3556.247,788.222,3552,788.38,3528.73z"/>
	<path fill="#F9A51B" d="M1620.514,2679.818c-153.774,7.903-301.202,49.077-436.69,122.297
		c-20.406,11.025-7.477,45.171,13.16,34.019c132.908-71.83,276.697-112.315,427.63-120.074
		C1648.055,2714.873,1643.924,2678.614,1620.514,2679.818z"/>
	<path fill="#F9A51B" d="M2412.638,3409.08c-0.701-23.461-36.946-19.28-36.252,4.099c7.959,267.864-107.675,522.324-314.415,692.767
		c-18.063,14.895,3.224,44.533,21.355,29.583C2300.926,3956.13,2421.011,3690.897,2412.638,3409.08z"/>
	<path fill="#F9A51B" d="M1942.966,4173.515c-116.601,74.942-247.189,116.795-385.521,124.656
		c-23.447,1.334-19.313,37.583,4.098,36.252c144.486-8.206,281.081-53.12,402.778-131.325
		C1984.132,4190.36,1962.656,4160.868,1942.966,4173.515z"/>
	<path fill="#F9A51B" d="M2077.671,3937.132c-50.786,75.162-116.234,135.349-195.412,179.631
		c-20.504,11.466,0.581,41.26,20.917,29.887c81.605-45.644,149.962-108.431,202.316-185.916
		C2118.522,3941.456,2090.801,3917.7,2077.671,3937.132z"/>
	<path fill="#E88B24" d="M1049.075,4273.476c-37.729,63.49-75.446,126.971-113.174,190.461
		c-11.97,20.142,21.498,34.721,33.365,14.755c37.729-63.49,75.446-126.971,113.174-190.461
		C1094.411,4268.09,1060.943,4253.51,1049.075,4273.476z"/>
	<path fill="#E88B24" d="M1318.89,4392.219c8.224-21.886-25.091-36.78-33.365-14.755c-26.171,69.68-52.33,139.352-78.501,209.032
		c-8.224,21.886,25.091,36.78,33.365,14.755C1266.56,4531.571,1292.718,4461.9,1318.89,4392.219z"/>
	<path fill="#E88B24" d="M1540.028,4633.173c8.714-75.303,17.429-150.606,26.144-225.909c2.691-23.244-33.389-28.769-36.09-5.355
		c-8.714,75.303-17.43,150.606-26.144,225.909C1501.249,4651.063,1537.317,4656.585,1540.028,4633.173z"/>
	<path fill="#E88B24" d="M1843.47,4599.164c-4.743-78.592-9.477-157.172-14.223-235.753c-1.417-23.44-37.662-19.317-36.252,4.098
		c4.745,78.582,9.477,157.172,14.223,235.753C1808.623,4626.701,1844.881,4622.58,1843.47,4599.164z"/>
	<path fill="#E88B24" d="M2087.769,4520.537l-83.784-225.521c-8.189-22.044-42.211-8.873-34.019,13.161
		c27.932,75.174,55.853,150.347,83.782,225.532C2061.939,4555.742,2095.949,4542.568,2087.769,4520.537z"/>
	<path fill="#E88B24" d="M2278.122,4383.634c-45.566-50.389-91.132-100.777-136.698-151.167
		c-15.614-17.262-45.308,3.957-29.583,21.355c45.566,50.389,91.132,100.777,136.7,151.155
		C2264.154,4422.252,2293.848,4401.034,2278.122,4383.634z"/>
	<path fill="#E88B24" d="M2515.495,4151.286c-73.526-36.386-147.051-72.774-220.579-109.149
		c-21.054-10.415-35.765,22.958-14.755,33.365c73.526,36.386,147.051,72.774,220.579,109.149
		C2521.792,4195.078,2536.504,4161.693,2515.495,4151.286z"/>
	<path fill="#E88B24" d="M2644.774,3920.858c-73.578-18.816-147.158-37.62-220.747-56.438c-22.693-5.798-27.951,30.322-5.355,36.09
		c73.578,18.816,147.158,37.62,220.747,56.438C2662.101,3962.743,2667.367,3926.636,2644.774,3920.858z"/>
	<path fill="#F9A51B" d="M1097.368,3103.331c51.485-74.681,117.489-134.254,197.076-177.801c20.604-11.274-0.2-41.266-20.637-30.085
		c-82.03,44.883-150.962,107.03-204.045,184.015C1056.569,3098.627,1084.058,3122.636,1097.368,3103.331z"/>
	<path fill="#E88B24" d="M2164.6,2766.731c42.123-60.655,84.238-121.322,126.362-181.977c13.356-19.239-18.991-36.148-32.232-17.082
		c-42.123,60.655-84.238,121.322-126.351,181.979C2119.001,2768.885,2151.359,2785.797,2164.6,2766.731z"/>
	<path fill="#E88B24" d="M1903.86,2629.209c-9.741,21.244,22.43,38.464,32.232,17.082c31.022-67.651,62.057-135.311,93.08-202.962
		c9.741-21.244-22.43-38.464-32.234-17.072C1965.918,2493.898,1934.884,2561.547,1903.86,2629.209z"/>
	<path fill="#E88B24" d="M1690.683,2330.754c-14.011,74.496-28.025,149.002-42.047,223.496
		c-4.329,22.992,31.263,31.063,35.627,7.894c14.011-74.496,28.036-149,42.047-223.496
		C1730.64,2315.656,1695.045,2307.596,1690.683,2330.754z"/>
	<path fill="#E88B24" d="M1428.068,2333.608c-0.83,78.73-1.659,157.449-2.487,236.168c-0.245,23.482,36.207,21.938,36.449-1.522
		c0.828-78.719,1.659-157.449,2.487-236.168C1464.761,2308.604,1428.309,2310.148,1428.068,2333.608z"/>
	<path fill="#E88B24" d="M1178.807,2394.761l67.634,230.88c6.607,22.561,41.471,11.829,34.862-10.722
		c-22.542-76.956-45.081-153.922-67.632-230.891C1207.074,2361.481,1172.209,2372.214,1178.807,2394.761z"/>
	<path fill="#E88B24" d="M920.38,2553.533c41.894,53.482,83.777,106.963,125.671,160.446c14.35,18.324,45.485-0.752,31.013-19.215
		c-41.894-53.482-83.777-106.963-125.671-160.445C937.043,2515.995,905.919,2535.073,920.38,2553.533z"/>
	<path fill="#E88B24" d="M667.173,2768.519c70.77,41.486,141.538,82.982,212.308,124.468c20.274,11.882,37.303-20.372,17.071-32.234
		c-70.768-41.497-141.538-82.982-212.306-124.479C663.983,2724.394,646.952,2756.659,667.173,2768.519z"/>
	<path fill="#E88B24" d="M505.516,3015.277c72.065,23.963,144.128,47.937,216.204,71.901c22.22,7.394,30.028-28.261,7.894-35.627
		c-72.065-23.963-144.128-47.936-216.204-71.901C491.177,2972.265,483.383,3007.912,505.516,3015.277z"/>
	<path fill="#E88B24" d="M2484.449,3714.526c73.406,8.021,146.826,16.035,220.234,24.045c23.286,2.538,22.68-33.961-0.402-36.482
		c-73.406-8.022-146.826-16.035-220.234-24.045C2460.76,3675.517,2461.365,3712.015,2484.449,3714.526z"/>
	<path fill="#E88B24" d="M2714.279,3484.686c-75.74-3.081-151.491-6.165-227.229-9.258c-23.379-0.948-26.206,35.429-2.657,36.388
		c75.74,3.081,151.489,6.176,227.229,9.258C2734.998,3522.034,2737.827,3485.645,2714.279,3484.686z"/>
	<path fill="#E88B24" d="M2700.584,3239.78c-78.012,10.576-156.024,21.152-234.047,31.725c-23.274,3.149-16.467,39.001,6.785,35.848
		c78.012-10.576,156.024-21.152,234.036-31.727C2730.632,3272.477,2723.836,3236.627,2700.584,3239.78z"/>
	<path fill="#E88B24" d="M2631.131,3016.548l-218.667,100.331c-21.372,9.802-5.706,42.75,15.656,32.945
		c72.889-33.444,145.778-66.887,218.667-100.331C2668.16,3039.691,2652.493,3006.743,2631.131,3016.548z"/>
	<path fill="#E88B24" d="M2451.169,2756.67c-46.86,49.185-93.711,98.384-140.571,147.569c-16.057,16.849,7.323,44.888,23.499,27.901
		c46.86-49.185,93.708-98.373,140.571-147.569C2490.712,2767.731,2467.343,2739.694,2451.169,2756.67z"/>
	<path fill="#E88B24" d="M674.607,3233.029c-60.426-7.57-120.843-15.127-181.269-22.698c-23.236-2.907-28.737,33.165-5.355,36.09
		c60.426,7.57,120.841,15.139,181.269,22.698C692.488,3272.026,697.989,3235.953,674.607,3233.029z"/>
	<path fill="#E88B24" d="M628.407,3465.588c-66.81-7.109-133.608-14.216-200.406-21.323c-23.253-2.474-28.8,33.601-5.355,36.09
		c66.798,7.107,133.608,14.216,200.406,21.323C646.305,3504.152,651.839,3468.086,628.407,3465.588z"/>
	<path fill="#E88B24" d="M642.556,3632.919c-64.201,3.381-128.415,6.771-192.616,10.152c-23.452,1.242-19.318,37.49,4.098,36.252
		c64.212-3.379,128.415-6.771,192.627-10.149C670.107,3667.929,665.973,3631.682,642.556,3632.919z"/>
	<path fill="#E88B24" d="M687.288,3811.796c-64.966,14.795-129.923,29.604-194.889,44.399c-22.633,5.158-18.824,41.479,4.098,36.252
		c64.966-14.795,129.921-29.592,194.889-44.399C714.009,3842.888,710.211,3806.569,687.288,3811.796z"/>
	<path fill="#E88B24" d="M755.622,3990.011c-52.85,31.04-105.711,62.077-158.561,93.116c-20.281,11.911,1.27,41.372,21.355,29.583
		c52.85-31.04,105.7-62.079,158.561-93.117C797.247,4007.681,775.698,3978.209,755.622,3990.011z"/>
	<path fill="#E88B24" d="M911.228,4166.894c-48.211,43.592-96.411,87.187-144.61,130.781c-17.262,15.614,3.967,45.31,21.355,29.583
		c48.2-43.594,96.411-87.187,144.61-130.781C949.846,4180.863,928.629,4151.157,911.228,4166.894z"/>
</g>
<g>
	<path fill="#E88B24" d="M4419.849,367.87c42.49-7.865,86.021-11.339,130.21-10.455c-44.232-0.497-88.151,2.927-130.641,10.792
		L4419.849,367.87z"/>
	<path fill="#E88B24" d="M4621.033,361.806l-0.042,0.386l-0.386-0.042c-11.884-1.384-23.426-2.345-34.966-3.3
		C4597.227,359.417,4609.155,360.421,4621.033,361.806z"/>
	<g>
		<circle fill="#FDC364" cx="4498.131" cy="1045.847" r="616.41"/>
		<path fill="#F9A51B" d="M4417.775,1734.751c-379.867-44.302-652.864-389.395-608.562-769.262
			c44.302-379.867,389.395-652.863,769.262-608.562c379.866,44.301,652.863,389.395,608.562,769.262
			C5142.729,1506.057,4797.644,1779.058,4417.775,1734.751z M4560.595,510.257c-295.308-34.442-563.608,177.81-598.051,473.118
			c-34.442,295.308,177.811,563.609,473.118,598.05c295.308,34.442,563.608-177.81,598.05-473.118
			C5068.157,813.006,4855.896,544.701,4560.595,510.257z"/>
	</g>
	<g>
		<g>
			<g>
				<path fill="#F9A51B" d="M4684.047,1204.839c-10.732,92.017-76.46,160.222-169.295,180.37l-12.616,108.157l-161.376-18.824
					l11.454-98.2c-45.129-12.916-86.81-34.486-114.804-60.026l-28.946-26.348l76.083-154l50.654,43.143
					c26.939,22.63,64.725,38.869,101.118,43.12c27.122,3.162,60.261-3.412,63.622-32.252c1.362-11.677,3.883-33.303-65.5-70.983
					c-87.127-46.706-174.695-110.514-160.794-229.654c10.251-87.898,73.211-153.294,162.152-172.846l12.296-105.407l160.345,18.704
					l-11.092,95.112c33.958,10.225,64.226,25.239,91.103,45.429l34.864,26.341l-78.202,151.318l-49.05-36
					c-13.154-9.539-40.381-29.766-88.45-35.373c-17.171-2.004-47.141-1.67-49.981,22.707c-1.323,11.333-2.76,23.69,76.321,67.716
					C4605.536,1006.702,4699.269,1074.359,4684.047,1204.839z"/>
			</g>
		</g>
	</g>
	<path fill="#F9A51B" d="M4085.628,1272.427c-57.728-120.22-58.227-257.221-2.156-378.069c5.865-12.644-13.254-22.921-19.141-10.229
		c-59.677,128.627-58.332,272.245,2.99,399.964C4073.349,1296.648,4091.622,1284.907,4085.628,1272.427z"/>
	<path fill="#F9A51B" d="M4308.711,601.28c-80.137,44.391-148.19,104.909-201.491,179.439c-8.028,11.224,7.802,26.1,15.921,14.747
		c52.285-73.113,118.573-132.313,197.228-175.885C4332.59,612.825,4320.911,594.522,4308.711,601.28z"/>
	<path fill="#F9A51B" d="M4922.631,784.205c-6.502-12.358-24.786-0.656-18.308,11.66c74.221,141.109,78.875,307.336,12.881,452.448
		c-5.765,12.68,13.355,22.963,19.143,10.235C5005.806,1105.814,5000.718,932.665,4922.631,784.205z"/>
	<path fill="#F9A51B" d="M4871.238,1315.518c-42.755,70.517-101.629,127-173.522,167.334c-12.185,6.838-0.507,25.135,11.66,18.308
		c75.092-42.127,136.378-101.815,181.004-175.407C4897.644,1313.77,4878.46,1303.615,4871.238,1315.518z"/>
	<path fill="#F9A51B" d="M4881.501,1153.973c-7.516,53.444-26.78,102.712-57.539,147.065c-7.966,11.485,11.087,21.904,18.988,10.513
		c31.7-45.715,51.84-97.133,59.587-152.228C4904.468,1145.614,4883.444,1140.156,4881.501,1153.973z"/>
	<path fill="#E88B24" d="M4419.514,1602.44c-3.584,43.794-7.164,87.58-10.749,131.374c-1.138,13.893,20.561,12.945,21.689-0.828
		c3.584-43.794,7.165-87.58,10.749-131.374C4442.342,1587.719,4420.643,1588.667,4419.514,1602.44z"/>
	<path fill="#E88B24" d="M4594.761,1595.438c-1.32-13.847-23.02-13.107-21.689,0.828c4.21,44.084,8.426,88.16,12.637,132.244
		c1.32,13.847,23.02,13.107,21.689-0.828C4603.188,1683.598,4598.972,1639.522,4594.761,1595.438z"/>
	<path fill="#E88B24" d="M4775.91,1666.479c-15.011-42.53-30.021-85.06-45.033-127.59c-4.633-13.128-25.363-6.657-20.691,6.564
		c15.011,42.53,30.022,85.06,45.033,127.59C4759.853,1686.171,4780.576,1679.702,4775.91,1666.479z"/>
	<path fill="#E88B24" d="M4929.233,1569.04c-23.064-40.773-46.12-81.542-69.182-122.308c-6.88-12.16-25.178-0.488-18.309,11.66
		c23.063,40.767,46.12,81.542,69.183,122.308C4917.798,1592.861,4936.103,1581.188,4929.233,1569.04z"/>
	<path fill="#E88B24" d="M5039.286,1463.198l-103.694-98.669c-10.136-9.645-24.882,6.283-14.748,15.921
		c34.567,32.889,69.127,65.78,103.696,98.675C5034.674,1488.763,5049.414,1472.838,5039.286,1463.198z"/>
	<path fill="#E88B24" d="M5105.281,1340.294c-37.52-15.034-75.038-30.067-112.558-45.101c-12.855-5.149-23.186,13.949-10.235,19.143
		c37.519,15.034,75.038,30.067,112.556,45.094C5107.901,1364.587,5118.232,1345.488,5105.281,1340.294z"/>
	<path fill="#E88B24" d="M5171.48,1154.089c-48.808-0.245-97.616-0.491-146.422-0.73c-13.975-0.068-13.122,21.615,0.828,21.689
		c48.808,0.245,97.616,0.491,146.422,0.73C5186.285,1175.854,5185.429,1154.165,5171.48,1154.089z"/>
	<path fill="#E88B24" d="M5180.398,997.144c-44.247,9.161-88.491,18.328-132.743,27.491c-13.646,2.828-7.021,23.51,6.564,20.691
		c44.247-9.161,88.491-18.328,132.743-27.491C5200.601,1015.008,5193.985,994.332,5180.398,997.144z"/>
	<path fill="#F9A51B" d="M4139.684,964.319c8.015-53.369,27.737-102.455,58.906-146.521c8.069-11.408-10.886-22.006-18.89-10.692
		c-32.126,45.419-52.741,96.645-61.008,151.664C4116.646,972.461,4137.611,978.115,4139.684,964.319z"/>
	<path fill="#E88B24" d="M4622.257,505.623c6.674-43.426,13.34-86.857,20.014-130.283c2.114-13.773-19.593-14.363-21.691-0.712
		c-6.674,43.426-13.34,86.857-20.008,130.281C4598.445,518.685,4620.159,519.273,4622.257,505.623z"/>
	<path fill="#E88B24" d="M4446.956,500.216c0.342,13.9,22.037,14.702,21.691,0.712c-1.087-44.266-2.17-88.541-3.258-132.807
		c-0.342-13.9-22.037-14.702-21.69-0.706C4444.786,411.675,4445.867,455.943,4446.956,500.216z"/>
	<path fill="#E88B24" d="M4255.044,396.358c11.969,43.482,23.939,86.97,35.901,130.454c3.691,13.422,24.826,8.439,21.106-5.086
		c-11.969-43.482-23.933-86.972-35.901-130.454C4272.459,377.85,4251.327,382.839,4255.044,396.358z"/>
	<path fill="#E88B24" d="M4115.407,466.48c20.121,42.302,40.239,84.599,60.358,126.894c6.002,12.617,25.085,2.269,19.086-10.334
		c-20.119-42.296-40.239-84.599-60.358-126.894C4128.491,443.529,4109.408,453.876,4115.407,466.48z"/>
	<path fill="#E88B24" d="M3998.137,564.277l96.461,105.752c9.425,10.334,25.259-4.509,15.835-14.837
		c-32.151-35.249-64.303-70.505-96.462-105.758C4004.554,539.103,3988.721,553.947,3998.137,564.277z"/>
	<path fill="#E88B24" d="M3901.465,716.651c36.365,17.646,72.723,35.295,109.087,52.941c12.457,6.047,24.117-12.283,11.559-18.372
		c-36.365-17.646-72.722-35.295-109.087-52.941C3900.567,692.232,3888.913,710.56,3901.465,716.651z"/>
	<path fill="#E88B24" d="M3822.267,897.711c48.667,3.691,97.335,7.388,146.002,11.08c13.941,1.056,14.619-20.634,0.706-21.69
		c-48.668-3.698-97.335-7.388-146.004-11.086C3809.036,874.957,3808.36,896.653,3822.267,897.711z"/>
	<path fill="#E88B24" d="M3800.307,1071.843c44.782-6.014,89.565-12.022,134.354-18.038c13.809-1.851,8.67-22.951-5.086-21.107
		c-44.782,6.014-89.565,12.022-134.354,18.038C3781.407,1052.596,3786.551,1073.687,3800.307,1071.843z"/>
	<path fill="#E88B24" d="M5040.801,928.726c41.335-14.886,82.675-29.78,124.008-44.672c13.11-4.726,3.253-24.078-9.744-19.397
		c-41.335,14.886-82.675,29.78-124.008,44.672C5017.948,914.061,5027.806,933.414,5040.801,928.726z"/>
	<path fill="#E88B24" d="M5103.623,745.831c-41.292,18.136-82.591,36.274-123.885,54.404c-12.745,5.6-4.754,25.784,8.084,20.146
		c41.292-18.136,82.592-36.268,123.884-54.404C5124.454,760.384,5116.461,740.193,5103.623,745.831z"/>
	<path fill="#E88B24" d="M5032.333,618.493c-38.939,26.03-77.879,52.061-116.825,78.093c-11.619,7.762,1.385,25.15,12.991,17.391
		c38.939-26.03,77.878-52.061,116.818-78.091C5056.935,628.123,5043.938,610.734,5032.333,618.493z"/>
	<path fill="#E88B24" d="M4936.897,517.304l-90.683,110.749c-8.864,10.822,8.117,24.343,16.974,13.522
		c30.228-36.916,60.456-73.833,90.683-110.749C4962.735,520.004,4945.754,506.484,4936.897,517.304z"/>
	<path fill="#E88B24" d="M4772.816,425.392c-12.202,38.532-24.396,77.069-36.597,115.601c-4.183,13.201,15.639,22.082,19.849,8.777
		c12.202-38.532,24.397-77.063,36.597-115.601C4796.843,420.976,4777.028,412.093,4772.816,425.392z"/>
	<path fill="#E88B24" d="M3947.572,1144.076c-34.279,11.737-68.549,23.478-102.827,35.215c-13.18,4.515-6.699,25.235,6.564,20.691
		c34.279-11.737,68.551-23.472,102.827-35.215C3967.317,1160.251,3960.835,1139.532,3947.572,1144.076z"/>
	<path fill="#E88B24" d="M3983.621,1280.459c-37.571,13.651-75.134,27.3-112.698,40.948c-13.076,4.751-6.618,25.484,6.564,20.691
		c37.564-13.649,75.134-27.3,112.698-40.948C4003.261,1296.398,3996.799,1275.674,3983.621,1280.459z"/>
	<path fill="#E88B24" d="M4034.892,1366.211c-33.436,18.577-66.876,37.162-100.312,55.738c-12.212,6.79-0.534,25.087,11.66,18.308
		c33.442-18.579,66.877-37.162,100.319-55.74C4058.764,1377.729,4047.086,1359.433,4034.892,1366.211z"/>
	<path fill="#E88B24" d="M4105.527,1450.146c-30.864,24.878-61.719,49.761-92.582,74.639c-10.752,8.669,0.772,27.09,11.66,18.308
		c30.864-24.878,61.72-49.755,92.582-74.639C4127.932,1459.787,4116.415,1441.365,4105.527,1450.146z"/>
	<path fill="#E88B24" d="M4188.605,1527.563c-20.144,30.397-40.293,60.796-60.438,91.193c-7.73,11.665,11.485,21.784,19.143,10.235
		c20.144-30.397,40.287-60.794,60.437-91.193C4215.472,1526.136,4196.254,1516.01,4188.605,1527.563z"/>
	<path fill="#E88B24" d="M4317.988,1581.472c-14.385,35.895-28.764,71.789-43.142,107.682
		c-5.149,12.856,13.956,23.185,19.143,10.235c14.378-35.893,28.763-71.789,43.142-107.682
		C4342.28,1578.852,4323.179,1568.515,4317.988,1581.472z"/>
</g>
<g>
	<path fill="#E88B24" d="M2672.483,3163.119c-14.069-65.288-21.399-132.385-22.028-200.695c1.228,68.358,8.5,136.056,22.569,201.345
		L2672.483,3163.119z"/>
	<path fill="#E88B24" d="M2654.037,2852.577l0.598,0.048l-0.048,0.599c-1.601,18.422-2.566,36.297-3.52,54.169
		C2651.421,2889.463,2652.433,2870.99,2654.037,2852.577z"/>
	<g>
		<circle fill="#FDC364" cx="3716.383" cy="3011.587" r="952.72"/>
		<path fill="#F9A51B" d="M4784.321,3104.646c-51.302,588.869-572.131,1026.204-1161,974.901
			c-588.869-51.302-1026.203-572.131-974.901-1161s572.131-1026.204,1161-974.901
			C4398.292,1994.957,4835.633,2515.773,4784.321,3104.646z M2886.111,2939.251c-39.885,457.786,300.138,862.716,757.923,902.601
			c457.786,39.886,862.716-300.137,902.601-757.923c39.886-457.786-300.138-862.716-757.924-902.601
			C3330.937,2141.439,2926,2481.475,2886.111,2939.251z"/>
	</g>
	<g>
		<g>
			<g>
				<path fill="#F9A51B" d="M3953.626,2717.183c142.645,12.429,250.982,110.897,286.3,253.411l167.666,14.61l-21.801,250.166
					l-152.229-13.264c-17.918,70.304-49.361,135.673-87.556,180.074l-39.399,45.908l-241.353-110.595l64.368-80.204
					c33.746-42.64,57.129-101.75,62.054-158.167c3.661-42.043-7.991-92.945-52.699-96.836
					c-18.102-1.578-51.627-4.496-106.708,104.396c-68.227,136.713-162.854,274.88-347.546,258.78
					c-136.259-11.871-240.134-106.189-274.353-242.715l-163.402-14.241l21.662-248.567l147.442,12.845
					c14.265-52.924,36.095-100.364,66.074-142.798l39.122-55.051l237.305,113.989l-53.404,77.404
					c-14.144,20.753-44.165,63.729-50.658,138.245c-2.321,26.619-0.452,72.905,37.337,76.193
					c17.569,1.532,36.723,3.196,101.173-120.967C3651.06,2847.419,3751.356,2699.554,3953.626,2717.183z"/>
			</g>
		</g>
	</g>
	<path fill="#F9A51B" d="M4085.047,3638.652c-183.127,94.611-394.762,101.564-583.995,20.39c-19.799-8.49-34.813,21.51-14.94,30.033
		c201.413,86.393,423.233,77.834,617.785-22.667C4123.021,3656.53,4104.058,3628.829,4085.047,3638.652z"/>
	<path fill="#F9A51B" d="M3038.103,3324.288c72.198,121.803,168.765,224.21,286.314,303.193
		c17.702,11.897,39.97-13.231,22.066-25.262c-115.314-77.477-209.765-177.217-280.63-296.768
		C3054.861,3286.876,3027.111,3305.746,3038.103,3324.288z"/>
	<path fill="#F9A51B" d="M3293.008,2367.567c-18.799,10.604,0.105,38.322,18.841,27.759
		c214.656-121.035,471.256-135.724,698.422-40.316c19.85,8.334,34.874-21.669,14.949-30.036
		C3786.119,2224.555,3518.845,2240.228,3293.008,2367.567z"/>
	<path fill="#F9A51B" d="M4116.171,2422.991c110.874,62.872,200.793,151.28,266.351,260.53c11.114,18.516,38.854-0.351,27.759-18.84
		c-68.471-114.112-163.452-206.101-279.161-271.725C4112.279,2382.275,4097.455,2412.371,4116.171,2422.991z"/>
	<path fill="#F9A51B" d="M3866.131,2414.424c82.906,9.199,159.892,36.738,229.802,82.257c18.103,11.788,33.34-18.118,15.385-29.809
		c-72.057-46.912-152.404-75.707-237.871-85.189C3852.18,2379.32,3844.697,2412.046,3866.131,2414.424z"/>
	<path fill="#E88B24" d="M4579.831,3107.928c67.82,3.562,135.628,7.117,203.449,10.678c21.516,1.131,19.071-32.349-2.257-33.471
		c-67.821-3.562-135.628-7.117-203.449-10.678C4556.057,3073.326,4558.501,3106.806,4579.831,3107.928z"/>
	<path fill="#E88B24" d="M4561.105,2837.5c-21.333,2.665-19.21,36.155,2.258,33.471c67.917-8.494,135.821-16.996,203.738-25.491
		c21.333-2.665,19.211-36.155-2.258-33.471C4696.927,2820.503,4629.023,2829.005,4561.105,2837.5z"/>
	<path fill="#E88B24" d="M4662.685,2554.431c-65.028,25.11-130.057,50.22-195.086,75.33c-20.073,7.75-9.141,39.484,11.075,31.67
		c65.028-25.11,130.057-50.22,195.086-75.33C4693.833,2578.349,4682.904,2546.626,4662.685,2554.431z"/>
	<path fill="#E88B24" d="M4505.229,2321.953c-61.951,37.472-123.896,74.932-185.836,112.401
		c-18.476,11.178,0.382,38.921,18.84,27.759c61.941-37.469,123.896-74.932,185.836-112.401
		C4542.548,2338.544,4523.688,2310.791,4505.229,2321.953z"/>
	<path fill="#E88B24" d="M4336.744,2156.703l-147.758,164.653c-14.443,16.094,10.829,38.157,25.262,22.065
		c49.252-54.888,98.507-109.766,147.768-164.656C4376.449,2162.675,4351.18,2140.622,4336.744,2156.703z"/>
	<path fill="#E88B24" d="M4143.889,2060.291c-21.533,58.643-43.066,117.286-64.599,175.93
		c-7.375,20.093,22.597,35.192,30.036,14.949c21.533-58.643,43.066-117.286,64.589-175.927
		C4181.3,2055.147,4151.328,2040.048,4143.889,2060.291z"/>
	<path fill="#E88B24" d="M3853.226,1966.421c1.823,75.416,3.646,150.832,5.478,226.245c0.526,21.594,33.985,19.297,33.471-2.258
		c-1.823-75.416-3.646-150.832-5.479-226.245C3886.183,1942.566,3852.713,1944.867,3853.226,1966.421z"/>
	<path fill="#E88B24" d="M3610.354,1959.725c16.15,67.945,32.309,135.885,48.461,203.84c4.985,20.954,36.638,9.786,31.67-11.075
		c-16.15-67.945-32.309-135.885-48.461-203.84C3637.041,1927.706,3605.396,1938.861,3610.354,1959.725z"/>
	<path fill="#F9A51B" d="M3606.601,3569.042c-82.813-9.974-159.537-38.228-229.024-84.394
		c-17.989-11.952-33.507,17.811-15.666,29.666c71.619,47.583,151.69,77.12,237.064,87.41
		C3620.22,3604.267,3628.008,3571.622,3606.601,3569.042z"/>
	<path fill="#E88B24" d="M2876.17,2844.196c-67.391-8.352-134.79-16.691-202.182-25.042c-21.373-2.645-21.305,30.919-0.122,33.545
		c67.391,8.351,134.79,16.691,202.179,25.032C2897.424,2880.395,2897.354,2846.822,2876.17,2844.196z"/>
	<path fill="#E88B24" d="M2875.727,3115.269c21.46-1.156,21.719-34.709,0.122-33.544c-68.34,3.678-136.692,7.349-205.032,11.026
		c-21.459,1.156-21.719,34.709-0.112,33.542C2739.034,3122.617,2807.377,3118.95,2875.727,3115.269z"/>
	<path fill="#E88B24" d="M2723.932,3416.447c66.637-20.453,133.283-40.909,199.923-61.352c20.569-6.309,11.918-38.735-8.81-32.379
		c-66.637,20.453-133.286,40.899-199.923,61.352C2694.553,3390.377,2703.214,3422.8,2723.932,3416.447z"/>
	<path fill="#E88B24" d="M2838.567,3629.013c64.447-32.994,128.884-65.985,193.32-98.976c19.221-9.843,2.374-38.857-16.827-29.021
		c-64.437,32.991-128.884,65.985-193.32,98.976C2802.519,3609.836,2819.365,3638.85,2838.567,3629.013z"/>
	<path fill="#E88B24" d="M2994.949,3805.775l159.027-153.798c15.541-15.027-8.106-38.819-23.637-23.795
		c-53.007,51.262-106.024,102.526-159.037,153.801C2955.768,3796.997,2979.415,3820.789,2994.949,3805.775z"/>
	<path fill="#E88B24" d="M3234.72,3948.251c25.622-56.977,51.246-113.944,76.868-170.921c8.78-19.518-20.065-36.706-28.905-17.029
		c-25.622,56.977-51.246,113.944-76.868,170.921C3197.035,3950.74,3225.876,3967.918,3234.72,3948.251z"/>
	<path fill="#E88B24" d="M3518.02,4062.438c3.507-75.354,7.023-150.71,10.529-226.063c1.002-21.585-32.537-21.655-33.541-0.112
		c-3.517,75.357-7.023,150.71-10.539,226.067C3483.463,4083.905,3517.012,4083.971,3518.02,4062.438z"/>
	<path fill="#E88B24" d="M3788.032,4088.508c-11.313-68.914-22.615-137.83-33.93-206.754c-3.484-21.25-35.849-12.358-32.379,8.81
		c11.313,68.914,22.615,137.83,33.93,206.754C3759.15,4118.575,3791.502,4109.676,3788.032,4088.508z"/>
	<path fill="#E88B24" d="M3510.951,2178.48c-24.863-63.188-49.739-126.384-74.612-189.568c-7.892-20.041-37.346-3.94-29.527,15.929
		c24.863,63.188,49.739,126.383,74.612,189.568C3489.326,2214.448,3518.78,2198.346,3510.951,2178.48z"/>
	<path fill="#E88B24" d="M3225.556,2089.677c29.883,62.975,59.768,125.96,89.641,188.938c9.226,19.438,40.049,6.182,30.759-13.398
		c-29.883-62.975-59.759-125.963-89.641-188.939C3247.099,2056.838,3216.266,2070.097,3225.556,2089.677z"/>
	<path fill="#E88B24" d="M3032.043,2205.563c41.972,58.984,83.945,117.969,125.92,176.963c12.517,17.6,38.792-3.274,26.281-20.854
		c-41.972-58.984-83.945-117.969-125.917-176.952C3045.81,2167.119,3019.532,2187.983,3032.043,2205.563z"/>
	<path fill="#E88B24" d="M2880.019,2357.571l175.192,135.102c17.12,13.206,37.242-13.638,20.125-26.834
		c-58.397-45.034-116.795-90.068-175.192-135.102C2883.024,2317.53,2862.902,2344.374,2880.019,2357.571z"/>
	<path fill="#E88B24" d="M2745.424,2615.212c60.08,17.113,120.168,34.212,180.248,51.324c20.583,5.866,33.41-25.158,12.664-31.062
		c-60.08-17.113-120.158-34.215-180.248-51.324C2737.518,2578.291,2724.688,2609.306,2745.424,2615.212z"/>
	<path fill="#E88B24" d="M3892.983,3857.732c19.679,52.428,39.365,104.844,59.045,157.273c7.571,20.159,39.289,9.211,31.67-11.075
		c-19.679-52.428-39.355-104.847-59.045-157.272C3917.082,3826.498,3885.364,3837.447,3892.983,3857.732z"/>
	<path fill="#E88B24" d="M4102.06,3795.885c22.785,57.428,45.566,114.846,68.348,172.263c7.93,19.987,39.67,9.075,31.669-11.075
		c-22.781-57.418-45.566-114.846-68.348-172.263C4125.799,3764.823,4094.072,3775.741,4102.06,3795.885z"/>
	<path fill="#E88B24" d="M4232.227,3712.805c30.209,50.818,60.43,101.643,90.639,152.461c11.041,18.56,38.781-0.307,27.759-18.84
		c-30.211-50.828-60.43-101.643-90.642-152.471C4248.946,3675.404,4221.206,3694.271,4232.227,3712.805z"/>
	<path fill="#E88B24" d="M4358.715,3599.891c39.828,46.56,79.663,93.106,119.491,139.665c13.878,16.219,41.817-2.415,27.759-18.84
		c-39.828-46.559-79.652-93.109-119.49-139.665C4372.599,3564.841,4344.657,3583.466,4358.715,3599.891z"/>
	<path fill="#E88B24" d="M4474.57,3468.047c47.871,29.749,95.744,59.508,143.614,89.257c18.37,11.416,33.136-18.727,14.949-30.036
		c-47.871-29.749-95.741-59.498-143.614-89.257C4471.153,3426.605,4456.376,3456.751,4474.57,3468.047z"/>
	<path fill="#E88B24" d="M4552.018,3265.727c56.104,20.604,112.207,41.198,168.309,61.792c20.093,7.375,35.189-22.607,14.949-30.036
		c-56.102-20.594-112.208-41.198-168.309-61.792C4546.874,3228.315,4531.765,3258.291,4552.018,3265.727z"/>
</g>
</svg>
