<?xml version="1.0" encoding="utf-8"?>
<!-- Generator: Adobe Illustrator 17.0.0, SVG Export Plug-In . SVG Version: 6.00 Build 0)  -->
<!DOCTYPE svg PUBLIC "-//W3C//DTD SVG 1.1//EN" "http://www.w3.org/Graphics/SVG/1.1/DTD/svg11.dtd">
<svg version="1.1" xmlns="http://www.w3.org/2000/svg" xmlns:xlink="http://www.w3.org/1999/xlink" x="0px" y="0px"
	 width="631.423px" height="445.021px" viewBox="0 0 631.423 445.021" enable-background="new 0 0 631.423 445.021"
	 xml:space="preserve">
<g id="BACKGROUND">
	<path fill="#F5DECF" d="M442.41,31.934c-58.151-6.313-116.654-12.636-175.021-8.798c-58.367,3.839-117.173,18.414-165.873,50.814
		c-48.7,32.4-86.262,84.218-92.958,142.326c-7.305,63.396,23.439,127.931,72.406,168.853c48.967,40.924,114.002,59.67,177.816,59.89
		c63.816,0.22,126.67-16.972,185.631-41.388c40.417-16.738,79.806-37.18,112.886-65.807c33.078-28.624,59.655-66.057,69.835-108.601
		c10.18-42.545,2.45-90.285-25.381-124.035C564.704,60.264,503.455,38.561,442.41,31.934z"/>
	<g>
		<path fill="#FFFFFF" d="M102.071,143.871c-16.522-0.378-33.043-0.79-49.565-1.234c-9.252-0.249-18.57-0.516-27.607-2.516
			c-1.574-0.349-3.183-0.771-4.466-1.747c-1.283-0.976-2.169-2.64-1.779-4.203c0.482-1.928,2.647-2.96,4.63-3.101
			c2.849-0.202,5.621,0.867,8.454,1.234c2.833,0.367,6.186-0.253,7.578-2.748c1.184-2.123,0.51-4.743,0.032-7.127
			c-0.974-4.875-0.893-10.24,1.752-14.45c2.645-4.211,8.423-6.678,11.706-3.887c2.388-6.817,6.149-13.31,11.718-17.909
			c5.57-4.599,13.103-7.11,20.179-5.652c7.076,1.456,13.322,7.32,15.515,16.247c3.767-1.876,8.392-1.929,12.199-0.137
			c3.808,1.792,6.717,5.389,7.672,9.488c0.499,2.143,0.727,4.759,2.676,5.783c1.527,0.801,3.366,0.183,5.072-0.07
			c4.196-0.626,8.671,1.304,11.097,4.785c2.426,3.48,2.688,8.346,1.096,14.79c1.657-1.517,4.289-1.274,6.361-0.408
			c2.073,0.867,3.934,2.25,6.109,2.818c2.64,0.69,5.459,0.103,8.147,0.575c2.689,0.472,5.499,2.81,4.819,5.453
			c-0.707,2.75-4.297,3.332-7.137,3.363C140.423,143.411,122.514,144.339,102.071,143.871z"/>
		<path fill="#FFFFFF" d="M333.011,280.377c16.526,0.138,33.052,0.242,49.579,0.314c9.256,0.04,18.577,0.063,27.672-1.654
			c1.584-0.299,3.205-0.672,4.519-1.606c1.312-0.936,2.25-2.571,1.909-4.146c-0.421-1.942-2.553-3.042-4.531-3.244
			c-2.842-0.291-5.645,0.691-8.488,0.969c-2.843,0.279-6.175-0.446-7.488-2.983c-1.117-2.159-0.361-4.756,0.19-7.125
			c1.126-4.842,1.212-10.207-1.301-14.497c-2.512-4.291-8.21-6.938-11.579-4.251c-2.174-6.888-5.73-13.495-11.153-18.266
			c-5.424-4.771-12.875-7.515-19.992-6.28c-7.117,1.235-13.544,6.9-16.014,15.755c-3.706-1.993-8.328-2.19-12.189-0.518
			c-3.862,1.672-6.882,5.177-7.964,9.244c-0.566,2.126-0.875,4.734-2.855,5.697c-1.551,0.753-3.37,0.078-5.068-0.229
			c-4.174-0.757-8.707,1.032-11.241,4.436c-2.533,3.403-2.947,8.258-1.557,14.749c-1.608-1.568-4.247-1.407-6.346-0.606
			c-2.099,0.802-4.003,2.126-6.194,2.626c-2.66,0.607-5.46-0.067-8.161,0.32c-2.702,0.388-5.584,2.637-4.987,5.3
			c0.621,2.771,4.191,3.465,7.028,3.584C294.692,278.72,312.563,280.207,333.011,280.377z"/>
		<path fill="#FFFFFF" d="M538.126,172.963c-25.943,0.605-51.934,1.209-77.816-0.673c-3.146-0.229-6.499-0.575-8.946-2.566
			c-2.446-1.99-3.28-6.239-0.815-8.207c3.105-2.48,8.108,0.54,11.557-1.432c2.693-1.541,3.021-5.19,3.483-8.259
			c0.938-6.213,3.928-12.342,9.105-15.901c5.178-3.559,12.697-3.966,17.412,1.476c2.217-4.694,4.478-9.453,7.882-13.373
			c3.405-3.92,8.161-6.962,13.35-7.14c6.998-0.241,13.134,4.625,16.93,8.577c3.714-4.16,8.036-8.105,13.396-9.644
			c5.36-1.54,11.945-0.004,14.786,4.797c1.692,2.862,1.834,6.437,1.071,9.674c-0.763,3.238-2.351,6.211-3.972,9.115
			c-1.207,2.161-2.391,5.03-0.768,6.899c1.201,1.384,3.403,1.377,5.101,0.686c1.697-0.692,3.124-1.917,4.773-2.717
			c3.264-1.585,7.354-1.313,10.379,0.689c3.026,2.001,4.877,5.659,3.982,10.067c2.802-3.902,8.618-5.258,12.858-2.998
			c4.239,2.261,6.355,7.846,4.31,14.304c2.66,0.333,5.286-0.885,7.967-0.877c2.682,0.01,5.774,2.392,4.746,4.868
			c-0.803,1.934-3.366,2.242-5.46,2.253C581.775,172.695,560.108,172.45,538.126,172.963z"/>
	</g>
</g>
<g id="OBJECTS">
	<g>
		<g>
			<path opacity="0.15" fill="#2E2854" d="M528.664,113.727c-0.115-0.807-0.631-1.61-1.418-1.817
				c-1.227-0.325-2.299,0.836-3.037,1.869c-0.657,0.921-1.341,1.815-2.023,2.711c1.976-4.74,3.372-9.722,4.121-14.802
				c0.135-0.915,0.247-1.863-0.008-2.751c-0.254-0.888-0.969-1.709-1.888-1.804c-1.509-0.157-2.487,1.506-3.061,2.909
				c-1.931,4.724-3.861,9.447-5.791,14.171c1.684-5.56,2.779-11.296,3.258-17.086c5.274-18.457,8.545-37.486,9.678-56.648
				c0,0-28.432-3.352-28.845-2.554c-0.913,19.618-5.13,39.079-12.543,58.243c2.045,0.611,4.108,1.166,6.183,1.68
				c-1.528,4.808-2.807,9.697-4.506,14.447c-1.286,3.598-2.846,7.147-4.866,10.38l0,0c-0.139,0.223-0.289,0.438-0.433,0.658
				c-0.24,0.366-0.482,0.731-0.734,1.088c-0.162,0.229-0.329,0.454-0.496,0.679c-0.241,0.323-0.49,0.64-0.742,0.955
				c-5.869-0.695-12.149,1.439-17.2,4.766c-6.622,4.361-11.822,10.527-17.821,15.711c-15.351,13.266-36.301,19.831-56.478,17.695
				c-20.055-2.122-38.23-12.194-56.872-19.891c-12.074-4.985-24.919-8.981-37.905-11.152c-8.928-1.492-17.921-2.108-26.777-1.603
				c0.113-1.944-0.325-3.866-1.471-5.46c-2.042-2.838-5.823-3.991-9.312-3.766c-3.49,0.226-6.784,1.613-10.001,2.985
				c-1.359,0.58-2.75,1.107-4.206,1.619l-3.603-11.396c3.388-1.254,6.585-2.946,9.374-5.237c0.841-0.691,1.627-1.435,2.375-2.213
				c2.858,0.154,5.754-0.53,8.392-1.683c2.46-1.073,4.843-2.64,6.119-5.001c1.863-3.447,0.962-7.635-0.109-11.442
				c2.365-0.649,4.587-1.812,6.418-3.446c3.943-3.518,5.958-9.074,5.186-14.302c-0.438-2.97-1.774-5.865-4.024-7.853
				c-0.616-0.545-1.298-1.011-2.024-1.396c2.259-5.819,3.871-11.93,3.245-18.091c-0.761-7.487-5.645-15.011-12.983-16.674
				c0.325-8.593-3.969-16.577-10.837-20.111c-6.868-3.536-15.861-2.391-21.625,2.751c-5.128-2.896-10.916-2.268-15.789-0.054
				c-4.872,2.215-8.946,5.875-12.571,9.814c-7.16-4.111-16.798-3.108-23.077,2.249c-6.278,5.357-8.787,14.716-6.027,22.495
				c-7.401,2.801-12.594,9.826-13.493,17.498c-0.76,6.489,1.585,13.23,6.05,17.977c-0.626,0.452-1.217,0.953-1.759,1.508
				c-4.535,4.643-5.524,12.277-2.566,18.053c2.958,5.777,9.533,9.407,16.018,9.116c1.389-0.063,2.758-0.308,4.087-0.695
				c0.976,1.934,2.226,3.736,3.684,5.338c3.027,3.324,7.051,5.873,11.498,6.536c4.093,0.61,9.718-0.924,12.888-3.817
				c4.504,1.296,9.274,1.848,14.034,1.776c0.489,3.856,0.979,7.713,1.468,11.57c-2.417,0.054-4.827,0.211-7.17,0.78
				c-3.325,0.807-6.559,2.548-8.44,5.405c-1.656,2.516-2.012,5.982-0.589,8.577c-8.243,3.419-15.947,8.089-22.801,13.793
				c-10.02,8.339-18.237,18.85-23.714,30.742c-7.302,15.853-9.92,33.511-16.88,49.518c-3.284,7.553-7.682,14.875-14.239,19.858
				c-6.558,4.983-15.603,7.257-23.249,4.198c-16.461-6.585-18.063-32.285-34.459-39.031c-1.398-0.575-2.839-0.956-4.298-1.171
				c0.805-2.779,1.743-5.531,2.344-8.36c0.989-4.659,0.922-9.904-1.931-13.716c-1.761-2.353-4.388-3.896-7.052-5.138
				c-1.627-0.759-3.297-1.42-4.997-1.998c-2.035-5.154-4.07-10.309-6.105-15.463c-0.394-0.997-0.801-2.016-1.519-2.811
				c-0.717-0.796-1.821-1.332-2.863-1.082c-1.116,0.269-1.872,1.374-2.08,2.503c-0.207,1.129,0.027,2.287,0.266,3.41
				c1.248,5.848,2.174,9.979,3.49,14.825c-0.146-0.1-0.296-0.19-0.458-0.26c-1.022-0.438-2.259-0.339-3.199,0.257
				c-0.903,0.573-1.44,1.506-1.723,2.548c-0.598-1.075-1.011-1.553-1.68-1.723c-1.059-0.27-2.248,0.03-3.051,0.771
				c-0.639,0.589-0.984,1.368-1.155,2.216c-0.221-0.198-0.455-0.326-0.733-0.397c-1.059-0.27-2.248,0.03-3.051,0.771
				c-1.279,1.178-1.411,3.101-1.231,4.859c-0.563-0.346-1.251-0.501-1.922-0.305c-0.988,0.29-2.639,1.504-2.519,5.161
				c0.086,2.604,0.695,5.149,1.788,7.451c0.536,1.134,1.473,2.35,2.809,2.174c0.674-0.088,1.261-0.542,1.657-1.11
				c2.302,7.658,5.631,15.246,9.351,21.39c-3.617,9.13-2.548,19.86,1.264,29.027c4.282,10.295,11.603,19.005,19.515,27.271
				c13.441,14.041,33.544,20.846,52.953,19.808c19.41-1.04,38.034-9.519,52.863-22.084c10.534-8.926,19.225-19.833,26.267-31.741
				c2.698,14.847,4.246,29.902,4.611,44.988c0.136,5.6,0.119,11.273,1.531,16.692c0.934,3.583,2.594,7.088,5.021,9.843l0.372,65.156
				c0,0,142.239,1.472,142.899-0.397c1.739-29.643-0.384-59.481-6.31-88.74c2.893-6.831,3.305-14.636,2.253-22.032
				c-1.217-8.557-4.248-16.734-7.13-24.883c-6.595-18.651-12.497-37.547-17.721-56.628c24.883,10.675,53.098,13.16,79.959,9.08
				c30.572-4.642,59.502-17.391,85.603-33.969c5.657-3.592,11.473-7.689,14.169-13.823c2.025-4.608,1.99-9.71,0.974-14.709
				c5.968-5.751,23.232-22.752,26.84-35.6C528.573,115.347,528.779,114.534,528.664,113.727z M511.271,100.639
				c-0.403,1.223-0.806,2.446-1.208,3.67c0.244-1.227,0.454-2.46,0.632-3.698C510.886,100.622,511.079,100.628,511.271,100.639z
				 M502.139,99.67c-0.315,1.376-0.629,2.753-0.944,4.129c0.087-1.446,0.139-2.864,0.152-4.268
				C501.611,99.576,501.873,99.628,502.139,99.67z"/>
			<g>
				<path fill="#6978C9" d="M202.223,324.409l2.096,67.935c0,0,142.232-2.102,142.844-3.987c0.995-29.719-1.885-59.538-8.565-88.679
					L202.223,324.409z"/>
				<path opacity="0.15" fill="#2E2854" d="M338.598,299.678l-136.375,24.731l0.336,10.876
					c19.697,1.368,108.958,5.841,138.727-22.717C340.469,308.259,339.58,303.96,338.598,299.678z"/>
				<path fill="none" stroke="#2E2854" stroke-linecap="round" stroke-linejoin="round" stroke-miterlimit="10" d="M223.06,333.132
					c0,0,5.823,17.292-14.325,19.243"/>
				<path fill="none" stroke="#2E2854" stroke-linecap="round" stroke-linejoin="round" stroke-miterlimit="10" d="M324.66,319.495
					c0,0-6.343,12.9,10.027,19.499"/>
			</g>
			<g>
				<g>
					<path fill="#896962" d="M212.685,111.852c0.854,5.603,1.709,11.207,2.563,16.81c0,0,19.015-4.751,20.014-4.819l-6.205-18.037
						L212.685,111.852z"/>
					<path fill="#604845" d="M229.056,105.806l-16.372,6.046c0.286,1.872,0.571,3.744,0.856,5.616
						c7.925,0.229,14.025-1.676,18.243-3.732L229.056,105.806z"/>
				</g>
				<path fill="#2E2854" d="M199.519,110.65c-2.862,3.468-9.079,5.489-13.542,4.938c-4.462-0.551-8.549-2.998-11.658-6.245
					c-3.068-3.203-5.303-7.26-6.044-11.632c0,0-10.434-18.166-11.553-18.865c-6.275-4.504-9.903-12.451-9.198-20.143
					c0.706-7.693,5.721-14.846,13.049-17.832c-2.954-7.707-0.682-17.127,5.46-22.639c6.143-5.514,15.752-6.758,23.013-2.828
					c3.525-4.028,7.505-7.79,12.32-10.127c4.815-2.336,10.586-3.109,15.785-0.343c5.633-5.285,14.594-6.656,21.549-3.293
					c6.955,3.361,11.447,11.234,11.339,19.833c7.378,1.479,12.449,8.877,13.398,16.343c0.948,7.464-1.406,14.94-4.227,21.917
					c0,0-3.679,20.781-3.618,22.802c1.236,3.927,2.441,8.34,0.575,12.01c-1.217,2.393-3.559,4.019-5.992,5.153
					c-3.156,1.474-6.706,2.293-10.143,1.739L199.519,110.65z"/>
				<g>
					<path fill="#896962" d="M170.11,75.281c-5.603-3.276-13.388-1.962-17.806,2.793c-4.417,4.756-5.214,12.412-2.111,18.112
						c3.103,5.701,9.766,9.164,16.242,8.711c6.475-0.455,12.484-4.667,15.382-10.474L170.11,75.281z"/>
					<g>
						<path fill="none" stroke="#2E2854" stroke-linecap="round" stroke-linejoin="round" stroke-miterlimit="10" d="
							M156.949,92.495c0.368-4.524,3.963-8.595,8.407-9.519"/>
						<path fill="none" stroke="#2E2854" stroke-linecap="round" stroke-linejoin="round" stroke-miterlimit="10" d="
							M160.489,85.513c1.397,3.034,3.882,5.558,6.926,6.955"/>
					</g>
					<path fill="#896962" d="M245.955,61.276c1.324-3.053,4.146-5.413,7.385-6.177c3.238-0.764,6.818,0.088,9.366,2.228
						c2.299,1.93,3.708,4.791,4.22,7.749c0.904,5.206-0.972,10.812-4.825,14.428c-3.853,3.615-9.567,5.129-14.705,3.897
						L245.955,61.276z"/>
					<path fill="#896962" d="M245.91,48.467c2.768,9.45,5.232,19.159,4.887,29c-0.345,9.841-3.839,19.957-11.287,26.397
						c-5.27,4.556-12.102,6.954-18.96,8.175c-12.165,2.165-25.609,0.588-35.205-7.197c-9.028-7.323-13.332-18.834-17.248-29.778
						c4.702-7.057,8.139-16.127,9.531-24.798c4.108,3.406,10.395,2.978,15.056,0.378c4.66-2.6,8.05-6.948,13.355-10.766
						c4.944,5.587,11.716,9.531,19.015,11.075C232.352,52.496,240.14,51.632,245.91,48.467z"/>
					<g>
						<path fill="#B2776D" d="M185.345,104.842c2.992,2.427,6.358,4.25,9.942,5.545c0.918-0.543,1.742-1.237,2.4-2.09
							c2.87-3.72,2.569-10.203-2.344-13.319c-3.968-2.517-9.839-1.298-12.476,2.591c-0.734,1.082-1.173,2.321-1.357,3.604
							C182.692,102.481,183.957,103.716,185.345,104.842z"/>
						<path fill="#B2776D" d="M249.202,81.481c-3.968-2.517-9.84-1.297-12.477,2.591c-2.636,3.889-1.597,9.796,2.209,12.55
							c1.601,1.159,3.58,1.671,5.548,1.607c3.155-4.657,5.058-10.198,5.872-15.867C250,82.049,249.624,81.749,249.202,81.481z"/>
					</g>
					<g>
						<path fill="none" stroke="#2E2854" stroke-linecap="round" stroke-linejoin="round" stroke-miterlimit="10" d="
							M185.941,71.505c1.217-2.136,3.297-3.761,5.664-4.424c2.366-0.664,4.989-0.357,7.139,0.833"/>
						<path fill="none" stroke="#2E2854" stroke-linecap="round" stroke-linejoin="round" stroke-miterlimit="10" d="
							M217.945,62.763c2.057,1.432,4.113,2.865,6.02,5.023c-1.394,0.872-2.788,1.743-4.181,2.613"/>
						<path fill="none" stroke="#2E2854" stroke-linecap="round" stroke-linejoin="round" stroke-miterlimit="10" d="M227.089,62.08
							c1.197-2.034,3.232-3.557,5.521-4.131c2.289-0.575,4.803-0.193,6.818,1.035"/>
					</g>
					<g>
						<path fill="#2E2854" d="M229.941,75.246c-10.295,2.598-20.462,5.701-30.604,10.189c3.807,5.938,11.735,8.873,18.49,6.846
							C224.583,90.255,229.585,83.439,229.941,75.246z"/>
						<path fill="#D14B56" d="M216.715,85.823c-2.743,1.033-4.709,3.78-4.842,7.013c1.999,0.186,4.024,0.024,5.954-0.555
							c2.732-0.819,5.168-2.431,7.135-4.591C222.87,85.586,219.508,84.771,216.715,85.823z"/>
						<path fill="#FFFFFF" d="M199.337,85.436c0.713,1.113,1.571,2.12,2.539,3.009c8.654-4.537,18.055-8.048,27.756-10.442
							c0.159-0.898,0.268-1.817,0.308-2.756C219.646,77.844,209.479,80.948,199.337,85.436z"/>
					</g>
				</g>
			</g>
			<g>
				<g>
					<g>
						<path fill="#896962" d="M497.335,100.449c1.961-6.502,3.923-13.004,5.884-19.507c0.381-1.261,0.949-2.711,2.221-3.047
							c1.144-0.301,2.344,0.532,2.851,1.6c0.508,1.067,0.489,2.302,0.434,3.483c-0.341,7.374-1.68,14.699-3.968,21.717
							L497.335,100.449z"/>
						<path fill="none" stroke="#2E2854" stroke-linecap="round" stroke-linejoin="round" stroke-miterlimit="10" d="
							M497.335,100.449c1.961-6.502,3.923-13.004,5.884-19.507c0.381-1.261,0.949-2.711,2.221-3.047
							c1.144-0.301,2.344,0.532,2.851,1.6c0.508,1.067,0.489,2.302,0.434,3.483c-0.341,7.374-1.68,14.699-3.968,21.717
							L497.335,100.449z"/>
						<path fill="#896962" d="M504.418,104.808c2.285-6.02,4.571-12.041,6.857-18.061c0.538-1.417,1.475-3.105,2.987-2.985
							c0.921,0.072,1.656,0.875,1.932,1.756c0.277,0.881,0.189,1.832,0.077,2.75c-0.859,7.044-2.94,13.938-6.123,20.281
							L504.418,104.808z"/>
						<path fill="none" stroke="#2E2854" stroke-linecap="round" stroke-linejoin="round" stroke-miterlimit="10" d="
							M504.418,104.808c2.285-6.02,4.571-12.041,6.857-18.061c0.538-1.417,1.475-3.105,2.987-2.985
							c0.921,0.072,1.656,0.875,1.932,1.756c0.277,0.881,0.189,1.832,0.077,2.75c-0.859,7.044-2.94,13.938-6.123,20.281
							L504.418,104.808z"/>
						<g>
							<path fill="#AECF9F" d="M476.945,83.734c9.835,2.67,19.938,4.353,30.776,3.827c5.411-19.729,8.506-40.093,9.2-60.539
								c0,0-28.508-2.636-28.9-1.828C487.601,44.829,483.875,64.39,476.945,83.734z"/>
							<g>
								<path fill="#065F0F" d="M479.659,75.599c-0.844,2.715-1.744,5.428-2.714,8.135c9.835,2.67,19.938,4.353,30.776,3.827
									c0.826-3.01,1.578-6.04,2.296-9.078C499.834,78.559,489.646,77.59,479.659,75.599z"/>
								<path fill="#065F0F" d="M488.021,25.194c-0.064,2.984-0.214,5.967-0.43,8.947c9.577,1.236,19.257,1.644,28.904,1.218
									c0.183-2.777,0.331-5.555,0.426-8.336C516.921,27.022,488.413,24.386,488.021,25.194z"/>
								<path fill="#065F0F" d="M506.626,58.232c0.461-4.087-2.802-8.232-6.882-8.744c-4.468-0.56-8.511,3.064-8.872,7.161
									c-0.36,4.098,3.003,8.161,7.095,8.572C502.059,65.633,506.164,62.319,506.626,58.232z"/>
							</g>
						</g>
						<g>
							<path fill="#896962" d="M490.75,140.974c-0.214-0.1,23.924-22.556,27.928-38.318c0.2-0.79,0.386-1.609,0.251-2.412
								c-0.135-0.803-0.671-1.593-1.463-1.781c-1.235-0.294-2.277,0.894-2.989,1.945c-1.544,2.282-3.214,4.443-4.761,6.716
								L488.83,96.152c0,0-14.088,16.167-18.616,19.87L490.75,140.974z"/>
							<path fill="none" stroke="#2E2854" stroke-linecap="round" stroke-linejoin="round" stroke-miterlimit="10" d="
								M514.385,112.398c1.974-3.358,3.514-6.677,4.293-9.742c0.2-0.79,0.386-1.609,0.251-2.412
								c-0.135-0.803-0.671-1.593-1.463-1.781c-1.235-0.294-2.277,0.894-2.989,1.945c-1.544,2.282-3.214,4.443-4.761,6.716"/>
						</g>
						<path fill="#896962" d="M489.781,98.117c1.423-7.031,2.844-14.062,4.267-21.092c0.257-1.273,0.532-2.587,1.278-3.651
							c0.747-1.062,2.1-1.814,3.348-1.455c1.828,0.525,2.316,2.853,2.395,4.753c0.351,8.447-0.87,16.957-3.582,24.965
							L489.781,98.117z"/>
						<path fill="none" stroke="#2E2854" stroke-linecap="round" stroke-linejoin="round" stroke-miterlimit="10" d="
							M489.781,98.117c1.423-7.031,2.844-14.062,4.267-21.092c0.257-1.273,0.532-2.587,1.278-3.651
							c0.747-1.062,2.1-1.814,3.348-1.455c1.828,0.525,2.316,2.853,2.395,4.753c0.351,8.447-0.87,16.957-3.582,24.965
							L489.781,98.117z"/>
						<g>
							<path fill="#896962" d="M470.214,116.022c4.221-4.539,6.874-10.321,8.813-16.209c1.94-5.886,3.235-11.969,5.15-17.866
								c0.34-1.044,0.713-2.11,1.425-2.946c0.712-0.836,1.843-1.404,2.911-1.151c1.746,0.415,2.339,2.57,2.511,4.357
								c0.439,4.559,0.243,9.18-0.097,14.23c7.354,1.336,14.204,5.286,19.044,10.981"/>
							<path fill="#896968" d="M470.214,116.022l11.976-2.591c-2.829-1.658-5.595-2.588-7.766-3.119
								C473.218,112.355,471.833,114.281,470.214,116.022z"/>
							<path fill="none" stroke="#2E2854" stroke-linecap="round" stroke-linejoin="round" stroke-miterlimit="10" d="
								M478.402,101.636c0.217-0.605,0.425-1.213,0.626-1.823c1.94-5.886,3.235-11.969,5.15-17.866
								c0.34-1.044,0.713-2.11,1.425-2.946c0.712-0.836,1.843-1.404,2.911-1.151c1.746,0.415,2.339,2.57,2.511,4.357
								c0.439,4.559,0.243,9.18-0.097,14.23c7.354,1.336,14.204,5.286,19.044,10.981"/>
						</g>
					</g>
					<g>
						<path fill="#6F4D94" d="M303.206,192.224c27.533,14.074,59.945,17.116,90.39,11.707c30.446-5.409,59.046-18.88,84.722-36.109
							c5.565-3.733,11.276-7.975,13.817-14.174c2.945-7.185,0.972-15.422-1.942-22.619c-2.614-6.458-6.398-13.041-12.752-15.9
							c-7.232-3.252-15.904-0.706-22.414,3.82c-6.511,4.526-11.553,10.82-17.421,16.154c-15.013,13.647-35.792,20.736-56.015,19.108
							c-20.102-1.617-38.525-11.23-57.353-18.456c-12.195-4.68-25.137-8.352-38.174-10.196L303.206,192.224z"/>
						<path opacity="0.15" fill="#2E2854" d="M478.319,167.821c2.076-1.393,4.172-2.856,6.117-4.466
							c-103.251,42.293-177.892,9.326-177.892,9.326l-7.585,3.026l4.246,16.516c27.533,14.074,59.945,17.116,90.39,11.707
							C424.042,198.522,452.642,185.05,478.319,167.821z"/>
						<path fill="none" stroke="#2E2854" stroke-linecap="round" stroke-linejoin="round" stroke-miterlimit="10" d="
							M303.206,192.224c27.533,14.074,59.945,17.116,90.39,11.707c30.446-5.409,59.046-18.88,84.722-36.109
							c5.565-3.733,11.276-7.975,13.817-14.174"/>
					</g>
				</g>
				<path fill="#896962" d="M40.525,243.783c-7.023-8.219-13.769-22.451-16.678-35.451c0,0,17.353-9.374,17.978-8.845
					c-2.548-7.817-3.773-12.577-5.69-20.573c-0.267-1.117-0.53-2.268-0.352-3.402c0.179-1.134,0.907-2.258,2.016-2.554
					c1.035-0.277,2.152,0.232,2.889,1.009c0.738,0.777,1.17,1.786,1.589,2.772c3.174,7.483,6.348,14.965,9.522,22.448l7.382,30.472
					L40.525,243.783z"/>
				<path fill="none" stroke="#2E2854" stroke-linecap="round" stroke-linejoin="round" stroke-miterlimit="10" d="M41.825,199.487
					c-2.548-7.817-3.773-12.577-5.69-20.573c-0.267-1.117-0.53-2.268-0.352-3.402c0.179-1.134,0.907-2.258,2.016-2.554
					c1.035-0.277,2.152,0.232,2.889,1.009c0.738,0.777,1.17,1.786,1.589,2.772c3.174,7.483,6.348,14.965,9.522,22.448"/>
				<path fill="#896962" d="M19.629,208.061c0.151,2.6,0.824,5.13,1.974,7.404c0.565,1.12,1.531,2.312,2.863,2.103
					c0.862-0.135,1.577-0.865,1.909-1.663c0.332-0.798,0.35-1.658,0.333-2.489c-0.049-2.428-0.359-4.829-0.922-7.153
					c-0.225-0.93-0.505-1.874-1.126-2.589c-0.62-0.714-1.663-1.152-2.643-0.837C21.038,203.152,19.418,204.408,19.629,208.061z"/>
				<path fill="none" stroke="#2E2854" stroke-linecap="round" stroke-linejoin="round" stroke-miterlimit="10" d="M19.629,208.061
					c0.151,2.6,0.824,5.13,1.974,7.404c0.565,1.12,1.531,2.312,2.863,2.103c0.862-0.135,1.577-0.865,1.909-1.663
					c0.332-0.798,0.35-1.658,0.333-2.489c-0.049-2.428-0.359-4.829-0.922-7.153c-0.225-0.93-0.505-1.874-1.126-2.589
					c-0.62-0.714-1.663-1.152-2.643-0.837C21.038,203.152,19.418,204.408,19.629,208.061z"/>
				<path fill="#896962" d="M31.206,201.568c1.658,3.024,2.488,6.497,2.377,9.944c-0.03,0.912-0.13,1.844-0.529,2.665
					c-0.4,0.821-1.148,1.518-2.052,1.644c-1.596,0.223-2.863-1.287-3.656-2.69c-1.671-2.962-2.808-6.224-3.339-9.583
					c-0.295-1.866-0.309-4.028,1.048-5.343c0.784-0.761,1.966-1.091,3.031-0.847C29.154,197.602,29.594,198.627,31.206,201.568z"/>
				<path fill="none" stroke="#2E2854" stroke-linecap="round" stroke-linejoin="round" stroke-miterlimit="10" d="M31.206,201.568
					c1.658,3.024,2.488,6.497,2.377,9.944c-0.03,0.912-0.13,1.844-0.529,2.665c-0.4,0.821-1.148,1.518-2.052,1.644
					c-1.596,0.223-2.863-1.287-3.656-2.69c-1.671-2.962-2.808-6.224-3.339-9.583c-0.295-1.866-0.309-4.028,1.048-5.343
					c0.784-0.761,1.966-1.091,3.031-0.847C29.154,197.602,29.594,198.627,31.206,201.568z"/>
				<path fill="#896962" d="M36.079,198.856c1.658,3.024,2.488,6.497,2.377,9.944c-0.03,0.912-0.13,1.844-0.529,2.665
					c-0.4,0.821-1.148,1.518-2.052,1.644c-1.596,0.223-2.863-1.287-3.656-2.69c-1.671-2.961-2.808-6.224-3.339-9.583
					c-0.295-1.866-0.309-4.028,1.048-5.343c0.784-0.761,1.965-1.091,3.031-0.847C34.027,194.89,34.467,195.915,36.079,198.856z"/>
				<path fill="none" stroke="#2E2854" stroke-linecap="round" stroke-linejoin="round" stroke-miterlimit="10" d="M36.079,198.856
					c1.658,3.024,2.488,6.497,2.377,9.944c-0.03,0.912-0.13,1.844-0.529,2.665c-0.4,0.821-1.148,1.518-2.052,1.644
					c-1.596,0.223-2.863-1.287-3.656-2.69c-1.671-2.961-2.808-6.224-3.339-9.583c-0.295-1.866-0.309-4.028,1.048-5.343
					c0.784-0.761,1.965-1.091,3.031-0.847C34.027,194.89,34.467,195.915,36.079,198.856z"/>
				<path fill="#896962" d="M42.255,196.868c1.66,3.377,3.362,6.95,3.131,10.707c-0.08,1.308-0.502,2.743-1.639,3.394
					c-1.087,0.62-2.515,0.298-3.515-0.455c-1-0.753-1.662-1.86-2.29-2.943c-1.577-2.724-3.126-5.585-3.426-8.717
					c-0.183-1.895,0.245-4.057,1.825-5.117c0.925-0.619,2.159-0.749,3.191-0.337C40.566,193.813,41.246,194.814,42.255,196.868z"/>
				<path fill="none" stroke="#2E2854" stroke-linecap="round" stroke-linejoin="round" stroke-miterlimit="10" d="M42.255,196.868
					c1.66,3.377,3.362,6.95,3.131,10.707c-0.08,1.308-0.502,2.743-1.639,3.394c-1.087,0.62-2.515,0.298-3.515-0.455
					c-1-0.753-1.662-1.86-2.29-2.943c-1.577-2.724-3.126-5.585-3.426-8.717c-0.183-1.895,0.245-4.057,1.825-5.117
					c0.925-0.619,2.159-0.749,3.191-0.337C40.566,193.813,41.246,194.814,42.255,196.868z"/>
				<path fill="#896962" d="M45.922,216.857c-1.128-5.894,0.721-12.282,4.287-16.432c-2.669-1.519-5.04-3.56-6.938-5.973
					c-0.478-0.606-0.949-1.343-0.776-2.095c0.318-1.378,2.264-1.415,3.635-1.068c2.628,0.665,5.201,1.544,7.685,2.628
					c2.694,1.174,5.36,2.651,7.179,4.959c2.949,3.739,3.147,8.98,2.275,13.663c-0.872,4.681-2.666,9.173-3.262,13.898"/>
				<path fill="none" stroke="#2E2854" stroke-linecap="round" stroke-linejoin="round" stroke-miterlimit="10" d="M45.922,216.857
					c-1.128-5.894,0.721-12.282,4.287-16.432c-2.669-1.519-5.04-3.56-6.938-5.973c-0.478-0.606-0.949-1.343-0.776-2.095
					c0.318-1.378,2.264-1.415,3.635-1.068c2.628,0.665,5.201,1.544,7.685,2.628c2.694,1.174,5.36,2.651,7.179,4.959
					c2.949,3.739,3.147,8.98,2.275,13.663c-0.872,4.681-2.666,9.173-3.262,13.898"/>
				<path fill="#6F4D94" d="M196.78,240.81c-7.601,17.89-18.379,34.645-32.888,47.579c-14.509,12.934-32.914,21.879-52.292,23.405
					c-19.377,1.526-39.645-4.773-53.434-18.471c-8.117-8.064-15.655-16.587-20.194-26.772c-4.539-10.185-5.685-22.434-0.535-32.324
					c5.15-9.89,17.608-16.191,28.023-12.209c16.56,6.331,18.808,31.983,35.429,38.153c7.72,2.866,16.706,0.365,23.136-4.781
					c6.43-5.146,10.643-12.576,13.736-20.209c6.556-16.177,8.729-33.895,15.631-49.927c5.177-12.026,13.126-22.74,22.934-31.328
					L196.78,240.81z"/>
				<path opacity="0.15" fill="#2E2854" d="M111.601,311.794c19.378-1.527,37.783-10.471,52.292-23.405
					c14.509-12.935,25.286-29.69,32.888-47.579l-7.645-32.477c-6.387,2.123-12.387,4.236-12.387,4.236s-7.516,77.188-58.105,84.744
					c-35.78,5.344-63.696-12.753-76.977-23.807c4.445,7.23,10.302,13.659,16.501,19.817
					C71.956,307.021,92.224,313.32,111.601,311.794z"/>
				<path fill="none" stroke="#2E2854" stroke-linecap="round" stroke-linejoin="round" stroke-miterlimit="10" d="M196.78,240.81
					c-7.601,17.89-18.379,34.645-32.888,47.579c-14.509,12.934-32.914,21.879-52.292,23.405
					c-19.377,1.526-39.645-4.773-53.434-18.471c-8.117-8.064-15.655-16.587-20.194-26.772"/>
				<g>
					<path fill="#6F4D94" d="M306.544,172.682c7.282,27.207,15.975,54.036,26.028,80.344c3.085,8.074,6.321,16.172,7.752,24.696
						c1.431,8.524,0.926,17.648-3.165,25.261c-5.24,9.751-15.572,15.722-26.03,19.352c-15.327,5.322-31.71,6.651-47.895,7.769
						c-13.386,0.923-26.781,1.728-40.176,2.533c-5.541,0.333-11.4,0.602-16.316-1.976c-4.96-2.603-8.151-7.775-9.7-13.158
						c-1.548-5.382-1.673-11.053-1.95-16.648c-1.488-30.142-7.702-60.048-18.345-88.288l-0.419-58.643
						c14.457-12.659,32.952-20.699,52.555-21.514c17.798-8.266,37.596-9.623,57.181-6.853L306.544,172.682z"/>
					<path fill="none" stroke="#2E2854" stroke-linecap="round" stroke-linejoin="round" stroke-miterlimit="10" d="
						M306.544,172.682c7.282,27.207,15.975,54.036,26.028,80.344c3.085,8.074,6.321,16.172,7.752,24.696
						c1.431,8.524,0.926,17.648-3.165,25.261c-5.24,9.751-15.572,15.722-26.03,19.352c-15.327,5.322-31.71,6.651-47.895,7.769
						c-13.386,0.923-26.781,1.728-40.176,2.533c-5.541,0.333-11.4,0.602-16.316-1.976c-4.96-2.603-8.151-7.775-9.7-13.158
						c-1.548-5.382-1.673-11.053-1.95-16.648c-1.488-30.142-7.702-60.048-18.345-88.288"/>
					<path opacity="0.15" fill="#2E2854" d="M228.884,132.411c-11.519,0.479-22.646,3.468-32.805,8.407
						c-0.441,3.376,0.812,9.069,13.899,9.896c18.776,1.187,45.677-5.67,51.743-17.67c1.702-3.367,2.448-6.276,2.642-8.721
						C252.111,124.741,240.1,127.202,228.884,132.411z"/>
				</g>
				<g>
					<path fill="#6F4D94" d="M227.762,122.896c-3.241,1.094-6.711,1.272-10.131,1.389c-3.419,0.116-6.879,0.184-10.181,1.075
						c-3.304,0.89-6.493,2.712-8.301,5.615c-1.809,2.904-1.915,6.994,0.327,9.579c1.927,2.223,5.048,2.928,7.967,3.306
						c12.793,1.656,25.897-0.603,37.955-5.185c4.182-1.588,8.417-3.573,11.221-7.058c2.804-3.484,3.733-8.844,1.03-12.409
						c-2.112-2.786-5.921-3.843-9.403-3.531c-3.483,0.313-6.742,1.783-9.923,3.236C235.142,120.365,231.797,121.534,227.762,122.896
						z"/>
					<path fill="none" stroke="#2E2854" stroke-linecap="round" stroke-linejoin="round" stroke-miterlimit="10" d="
						M227.762,122.896c-3.241,1.094-6.711,1.272-10.131,1.389c-3.419,0.116-6.879,0.184-10.181,1.075
						c-3.304,0.89-6.493,2.712-8.301,5.615c-1.809,2.904-1.915,6.994,0.327,9.579c1.927,2.223,5.048,2.928,7.967,3.306
						c12.793,1.656,25.897-0.603,37.955-5.185c4.182-1.588,8.417-3.573,11.221-7.058c2.804-3.484,3.733-8.844,1.03-12.409
						c-2.112-2.786-5.921-3.843-9.403-3.531c-3.483,0.313-6.742,1.783-9.923,3.236C235.142,120.365,231.797,121.534,227.762,122.896
						z"/>
				</g>
			</g>
		</g>
		<g>
			<g>
				<path opacity="0.15" fill="#2E2854" d="M146.958,382.523c-6.647-25.479-29.797-45.996-55.424-54.946
					c7.87,4.408,9.443,14.742,12.576,23.2C110.057,366.836,128.053,378.189,146.958,382.523z"/>
				<path fill="#E88B24" d="M146.958,382.523c-5.444-25.763-27.453-49.632-52.631-59.775c7.655,4.772,8.741,15.168,11.473,23.765
					C110.987,362.834,128.277,377.306,146.958,382.523z"/>
				<path fill="none" stroke="#2E2854" stroke-linecap="round" stroke-linejoin="round" stroke-miterlimit="10" d="M111.89,341.012
					c10.876,12.178,25.629,28.189,35.068,41.511"/>
			</g>
			<g>
				<path opacity="0.15" fill="#2E2854" d="M146.666,389.54c1.329-12.604,9.63-24.744,19.9-32.17
					c10.27-7.428,22.473-11.658,33.971-14.76C192.682,366.185,171.375,385.82,146.666,389.54z"/>
				<path fill="#F7A145" d="M146.666,389.54c-0.199-12.673,6.82-25.179,16.12-33.788c9.3-8.612,20.905-14.28,31.945-18.746
					C189.773,361.356,170.747,382.87,146.666,389.54z"/>
				<path fill="none" stroke="#2E2854" stroke-linecap="round" stroke-linejoin="round" stroke-miterlimit="10" d="M178.394,353.903
					c-9.914,12.498-20.475,24.329-31.728,35.637"/>
			</g>
			<path fill="none" stroke="#2E2854" stroke-linecap="round" stroke-linejoin="round" stroke-miterlimit="10" d="M131.892,264.644
				c13.172,44.653,17.899,91.781,13.859,138.161"/>
			<path opacity="0.15" fill="#2E2854" d="M148.4,282.328c-9.325,5.633-19.394,10.031-29.864,13.045
				c-5.361-21.192-14.866-41.165-28.488-58.018c10.222-5.767,20.856-10.804,32.324-13.483
				C136.258,239.683,145.672,259.383,148.4,282.328z"/>
			<path fill="#AECF9F" d="M150.694,275.662c-9.325,5.633-19.394,10.031-29.864,13.044c-5.361-21.192-14.866-41.165-28.488-58.018
				c10.222-5.767,20.856-10.804,32.324-13.483C138.552,233.017,147.966,252.717,150.694,275.662z"/>
			<g>
				<path fill="#065F0F" d="M130.066,223.873c-1.716-2.291-3.513-4.518-5.4-6.667c-11.467,2.679-22.102,7.716-32.324,13.483
					c2.017,2.496,3.933,5.068,5.77,7.694C109.487,234.55,120.046,229.652,130.066,223.873z"/>
				<path fill="#065F0F" d="M118.873,248.059c-1.717,3.737,0.084,8.695,3.8,10.459c3.715,1.764,8.695,0.022,10.504-3.671
					c1.808-3.694,0.22-8.887-3.893-10.716C125.526,242.461,120.59,244.322,118.873,248.059z"/>
				<path fill="#065F0F" d="M150.694,275.662c-0.425-3.573-1.03-7.057-1.771-10.47c-10.457,3.535-20.667,7.99-31.077,13.196
					c1.102,3.403,2.105,6.842,2.984,10.319C131.3,285.693,141.369,281.295,150.694,275.662z"/>
			</g>
			<path fill="none" stroke="#2E2854" stroke-linecap="round" stroke-linejoin="round" stroke-miterlimit="10" d="M175.919,296.078
				c-13.143,12.594-23.43,28.146-29.916,45.153"/>
			<path opacity="0.15" fill="#2E2854" d="M156.335,302.298c5.825,9.207,12.867,17.64,20.886,25.015
				c14.266-16.562,31.694-30.182,51.414-39.171c-6.568-9.727-13.831-18.986-22.893-26.507
				C186.254,269.575,169.029,282.991,156.335,302.298z"/>
			<path fill="#AECF9F" d="M156.335,297.848c5.825,9.207,12.867,17.64,20.886,25.015c14.266-16.562,31.694-30.182,51.414-39.171
				c-6.568-9.727-13.831-18.986-22.893-26.507C186.254,265.125,169.029,278.541,156.335,297.848z"/>
			<g>
				<path fill="#065F0F" d="M205.743,257.185c-2.649,1.079-5.251,2.269-7.81,3.551c6.381,9.648,13.638,18.748,22.102,27.261
					c2.817-1.529,5.681-2.974,8.602-4.305C222.067,273.965,214.805,264.706,205.743,257.185z"/>
				<path fill="#065F0F" d="M162.598,289.273c-2.188,2.722-4.286,5.569-6.263,8.575c5.825,9.207,12.867,17.64,20.886,25.015
					c2.34-2.717,4.774-5.346,7.281-7.897C177.516,305.657,170.373,297.108,162.598,289.273z"/>
				<path fill="#065F0F" d="M189.065,295.034c4.112,0.083,7.94-3.548,8.073-7.658c0.134-4.111-3.449-7.983-7.558-8.167
					c-4.497-0.202-8.239,3.733-8.271,7.846C181.276,291.168,184.952,294.951,189.065,295.034z"/>
			</g>
			<g>
				<g>
					<path opacity="0.15" fill="#2E2854" d="M482.924,376.694c11.952-23.464,39.521-39.342,66.471-42.594
						c-8.632,2.619-12.382,12.376-17.255,19.967C522.89,368.479,502.319,376.511,482.924,376.694z"/>
					<path fill="#E88B24" d="M482.924,376.694c10.282-24.242,36.458-43.449,63.114-48.577c-8.428,3.216-11.486,13.212-15.816,21.125
						C522.002,364.265,502.259,375.155,482.924,376.694z"/>
					<path fill="none" stroke="#2E2854" stroke-linecap="round" stroke-linejoin="round" stroke-miterlimit="10" d="
						M525.299,342.675c-13.009,9.868-30.558,22.753-42.375,34.019"/>
				</g>
				<g>
					<path opacity="0.15" fill="#2E2854" d="M481.865,383.637c1.83-12.542-3.501-24.618-11.616-34.354
						c-8.114-9.738-18.892-16.853-29.266-22.704C442.766,351.366,458.844,373.921,481.865,383.637z"/>
					<path fill="#F7A145" d="M481.865,383.637c2.625-12.399-1.867-26.019-9.344-36.252c-7.477-10.235-17.78-18.023-27.76-24.522
						C444.96,347.712,459.51,372.474,481.865,383.637z"/>
					<path fill="none" stroke="#2E2854" stroke-linecap="round" stroke-linejoin="round" stroke-miterlimit="10" d="
						M457.557,342.579c7.334,14.167,15.432,27.803,24.308,41.058"/>
				</g>
				<path fill="none" stroke="#2E2854" stroke-linecap="round" stroke-linejoin="round" stroke-miterlimit="10" d="M520.307,263.889
					c-21.487,41.3-35.161,86.648-40.087,132.942"/>
				<path opacity="0.15" fill="#2E2854" d="M502.115,276.275c8.073,7.316,17.112,13.563,26.81,18.527
					c9.323-19.771,22.481-37.552,39.082-51.481c-8.927-7.62-18.399-14.602-29.14-19.429
					C522.206,236.749,509.19,254.279,502.115,276.275z"/>
				<path fill="#AECF9F" d="M499.741,271.098c8.073,7.316,17.112,13.563,26.81,18.527c9.323-19.771,22.481-37.552,39.082-51.481
					c-8.927-7.62-18.399-14.602-29.14-19.429C519.832,231.572,506.817,249.102,499.741,271.098z"/>
				<g>
					<path fill="#065F0F" d="M529.914,224.224c2.124-1.919,4.314-3.761,6.578-5.508c10.741,4.827,20.213,11.809,29.14,19.429
						c-2.458,2.063-4.832,4.22-7.138,6.446C548.065,238.648,538.64,231.816,529.914,224.224z"/>
					<path fill="#065F0F" d="M536.264,250.107c0.969,3.997-1.749,8.518-5.734,9.537c-3.984,1.019-8.538-1.645-9.606-5.617
						c-1.066-3.972,1.488-8.764,5.875-9.771C530.807,243.337,535.295,246.11,536.264,250.107z"/>
					<path fill="#065F0F" d="M499.741,271.098c1.102-3.425,2.364-6.729,3.745-9.937c9.585,5.474,18.752,11.804,27.971,18.908
						c-1.734,3.128-3.377,6.312-4.907,9.555C516.853,284.661,507.814,278.414,499.741,271.098z"/>
				</g>
				<path fill="none" stroke="#2E2854" stroke-linecap="round" stroke-linejoin="round" stroke-miterlimit="10" d="M471.07,286.301
					c10.485,14.88,17.6,32.116,20.705,50.05"/>
				<path opacity="0.15" fill="#2E2854" d="M489.952,297.276c-7.482,7.919-16.01,14.846-25.294,20.547
					c-10.826-18.99-25.321-35.698-42.952-48.3c8.311-8.287,17.213-15.982,27.549-21.627
					C466.861,259.425,481.195,275.894,489.952,297.276z"/>
				<path fill="#AECF9F" d="M489.952,291.791c-7.482,7.92-16.01,14.847-25.294,20.547c-10.826-18.99-25.321-35.698-42.952-48.3
					c8.311-8.288,17.213-15.983,27.549-21.627C466.861,253.94,481.195,270.41,489.952,291.791z"/>
				<g>
					<path fill="#065F0F" d="M449.256,242.412c2.393,1.567,4.719,3.233,6.985,4.982c-8.112,8.246-16.979,15.786-26.918,22.519
						c-2.472-2.041-5.005-4.008-7.617-5.874C430.017,255.751,438.92,248.056,449.256,242.412z"/>
					<path fill="#065F0F" d="M485.449,282.175c1.625,3.091,3.14,6.287,4.503,9.617c-7.482,7.92-16.01,14.846-25.294,20.547
						c-1.776-3.115-3.661-6.162-5.632-9.147C467.667,295.396,476.316,288.374,485.449,282.175z"/>
					<path fill="#065F0F" d="M458.369,282.756c-4.052-0.707-7.113-5.004-6.455-9.063c0.657-4.061,4.916-7.174,8.983-6.566
						c4.453,0.664,7.37,5.243,6.614,9.286C466.755,280.455,462.421,283.462,458.369,282.756z"/>
				</g>
			</g>
			<g>
				<path opacity="0.15" fill="#2E2854" d="M248.419,381.051c-2.821-23.237-20.682-45.337-41.225-55.073
					c1.501,7.959,2.551,16.023,4.751,23.819c2.198,7.795,5.644,15.421,11.276,21.241
					C228.853,376.859,238.655,381.628,248.419,381.051z"/>
				<path fill="#F7A145" d="M248.419,381.051c-1.44-23.363-17.903-47.258-37.833-58.193c1.027,8.034,1.598,16.146,3.332,24.058
					c1.733,7.911,4.721,15.728,9.999,21.872C229.194,374.933,238.638,381.049,248.419,381.051z"/>
				<path fill="none" stroke="#2E2854" stroke-linecap="round" stroke-linejoin="round" stroke-miterlimit="10" d="M223.348,345.833
					c4.982,12.624,14.758,26.395,25.071,35.217"/>
			</g>
			<g>
				<path opacity="0.15" fill="#2E2854" d="M288.163,318.743c-1.81,7.849-7.398,14.273-13.427,19.615
					c-6.028,5.342-12.727,10.006-17.921,16.162c-5.194,6.156-9.003,11.519-8.284,20.965c13.746,0.359,27.665-3.921,35.318-15.346
					C291.499,348.712,292.838,333.327,288.163,318.743z"/>
				<path fill="#F7A145" d="M285.279,315.693c-1.444,7.925-6.727,14.601-12.502,20.217c-5.774,5.616-12.249,10.586-17.152,16.977
					c-4.903,6.39-8.252,12.635-7.095,22.037c13.748-0.279,27.246-5.911,34.36-17.679
					C290.002,345.475,290.626,330.045,285.279,315.693z"/>
				<path fill="none" stroke="#2E2854" stroke-linecap="round" stroke-linejoin="round" stroke-miterlimit="10" d="M248.53,374.924
					c4.704-8.245,13.138-10.763,20.245-17.054c7.107-6.292,13.726-14.558,13.439-24.046"/>
			</g>
			<path fill="none" stroke="#2E2854" stroke-linecap="round" stroke-linejoin="round" stroke-miterlimit="10" d="M270.213,207.15
				c-13.111,29.918-22.907,61.289-29.152,93.352"/>
			<path opacity="0.15" fill="#2E2854" d="M251.229,218.777c8.687,6.575,18.241,12,28.339,16.089
				c7.543-20.516,19.081-39.389,34.387-54.729c-9.565-6.802-19.615-12.921-30.74-16.782
				C267.754,177.633,256.336,196.241,251.229,218.777z"/>
			<path fill="#AECF9F" d="M250.208,214.48c8.687,6.575,18.241,12,28.339,16.089c7.543-20.516,19.081-39.389,34.387-54.729
				c-9.565-6.802-19.615-12.921-30.74-16.782C266.733,173.337,255.315,191.945,250.208,214.48z"/>
			<g>
				<path fill="#065F0F" d="M253.062,204.252c-1.093,3.317-2.058,6.719-2.854,10.228c8.687,6.575,18.241,12,28.339,16.089
					c1.238-3.366,2.594-6.682,4.045-9.951C272.783,214.355,263.093,208.859,253.062,204.252z"/>
				<path fill="#065F0F" d="M282.194,159.059c-2.101,1.94-4.12,3.968-6.067,6.067c9.362,6.793,19.352,12.766,30.266,17.765
					c2.101-2.421,4.275-4.779,6.541-7.051C303.369,169.039,293.32,162.92,282.194,159.059z"/>
				<path fill="#065F0F" d="M269.802,195.607c1.414,3.862,6.185,6.113,10.064,4.747c3.879-1.366,6.189-6.109,4.871-10.004
					c-1.318-3.896-6.033-6.263-9.945-4.994C270.511,186.746,268.389,191.745,269.802,195.607z"/>
			</g>
			<path fill="none" stroke="#2E2854" stroke-linecap="round" stroke-linejoin="round" stroke-miterlimit="10" d="M220.913,225.991
				c18.764,51.744,28.188,106.859,27.68,161.898"/>
			<g>
				<path opacity="0.15" fill="#2E2854" d="M210.376,266.614c20.99,12.238,34.825,37.951,34.955,62.158
					c-8.486-5.74-17.242-13.67-22.965-22.168C215.347,296.182,213.623,283.191,210.376,266.614z"/>
				<path fill="#E88B24" d="M217.018,262.225c19.364,14.675,31.096,42.5,28.313,66.547c-7.733-6.72-16.564-16.28-21.222-25.405
					C218.395,292.176,218.247,279.072,217.018,262.225z"/>
				<path fill="none" stroke="#2E2854" stroke-linecap="round" stroke-linejoin="round" stroke-miterlimit="10" d="M225.287,279.38
					c0,0,16.748,32.42,20.044,49.391"/>
			</g>
			<path fill="none" stroke="#2E2854" stroke-linecap="round" stroke-linejoin="round" stroke-miterlimit="10" d="M279.591,284.078
				c-3.659,22.354-15.577,43.241-32.874,57.849"/>
			<g>
				<path opacity="0.15" fill="#2E2854" d="M263.771,305.29c10.017,1.877,20.222,2.749,30.983,1.359
					c3.82-20.097,5.28-40.643,4.34-61.079c0,0-28.625-0.354-28.953,0.483C271.29,265.658,269.137,285.454,263.771,305.29z"/>
				<path fill="#AECF9F" d="M259.953,302.799c10.017,1.877,20.222,2.749,30.983,1.359c3.82-20.097,5.28-40.643,4.341-61.079
					c0,0-28.625-0.354-28.953,0.483C267.471,263.168,265.318,282.964,259.953,302.799z"/>
				<g>
					<path fill="#065F0F" d="M262.009,294.474c-0.625,2.774-1.306,5.549-2.057,8.325c10.017,1.877,20.222,2.749,30.983,1.359
						c0.583-3.067,1.092-6.146,1.565-9.232C282.356,295.814,272.123,295.662,262.009,294.474z"/>
					<path fill="#065F0F" d="M295.276,243.079c0,0-28.625-0.354-28.953,0.483c0.174,2.98,0.263,5.965,0.285,8.953
						c9.645,0.468,19.327,0.102,28.909-1.092C295.478,248.64,295.404,245.859,295.276,243.079z"/>
					<path fill="#065F0F" d="M279.946,266.844c-4.496-0.201-8.239,3.734-8.271,7.847c-0.033,4.112,3.644,7.895,7.756,7.979
						c4.112,0.083,7.94-3.548,8.074-7.658C287.637,270.901,284.055,267.028,279.946,266.844z"/>
				</g>
			</g>
			<path opacity="0.15" fill="#2E2854" d="M213.2,243.464c10.019-1.864,19.851-4.733,29.386-9.913
				c-3.689-20.122-9.742-39.81-17.993-58.53c0,0-26.824,10-26.828,10.898C205.91,203.79,211.046,223.029,213.2,243.464z"/>
			<path fill="#AECF9F" d="M208.739,242.519c10.019-1.864,19.851-4.733,29.386-9.913c-3.689-20.122-9.742-39.81-17.993-58.53
				c0,0-26.824,10-26.828,10.898C201.45,202.845,206.585,222.084,208.739,242.519z"/>
			<g>
				<path fill="#065F0F" d="M207.653,234.013c0.418,2.813,0.785,5.646,1.086,8.506c10.019-1.864,19.851-4.733,29.386-9.913
					c-0.563-3.07-1.2-6.126-1.872-9.174C227.113,227.92,217.514,231.47,207.653,234.013z"/>
				<path fill="#065F0F" d="M220.133,174.076c0,0-26.824,10-26.828,10.898c1.238,2.716,2.398,5.468,3.497,8.247
					c9.164-3.044,18.062-6.879,26.567-11.451C222.328,179.19,221.255,176.622,220.133,174.076z"/>
				<path fill="#065F0F" d="M214.411,201.772c-4.266,1.435-6.336,6.455-4.883,10.303c1.453,3.847,6.247,6.048,10.113,4.642
					c3.865-1.407,6.125-6.174,4.767-10.056C223.048,202.779,218.31,200.461,214.411,201.772z"/>
			</g>
			<g>
				<path opacity="0.15" fill="#2E2854" d="M374.723,383.758c-0.893-28.48-20.11-57.389-44.279-70.782
					c3.585,10.367,1.745,21.817,3.808,32.591C337.799,364.103,357.008,380.864,374.723,383.758z"/>
				<path fill="#E88B24" d="M374.723,383.758c3.904-28.225-10.451-60.564-32.027-77.827c1.793,10.822-1.945,21.8-1.721,32.767
					C341.358,357.567,357.746,377.929,374.723,383.758z"/>
				<path fill="none" stroke="#2E2854" stroke-linecap="round" stroke-linejoin="round" stroke-miterlimit="10" d="M353.568,331.834
					c3.273,16.846,13.222,36.707,21.155,51.924"/>
			</g>
			<g>
				<path opacity="0.15" fill="#2E2854" d="M375.321,379.472c1.572-13.605,8.409-26.405,17.35-36.778
					c8.942-10.374,21.047-17.983,34.534-20.86c-5.72,6.458-6.837,15.625-9.723,23.756
					C411.58,362.222,395.895,375.197,375.321,379.472z"/>
				<path fill="#F7A145" d="M375.321,379.472c0.58-13.683,6.38-27.16,14.545-38.156c8.165-10.996,19.685-19.465,32.928-23.313
					c-5.235,6.856-5.684,16.081-7.972,24.399C410.144,359.42,395.53,373.714,375.321,379.472z"/>
				<path fill="none" stroke="#2E2854" stroke-linecap="round" stroke-linejoin="round" stroke-miterlimit="10" d="M404.229,339.523
					c-8.031,14.284-18.807,27.045-28.909,39.949"/>
			</g>
			<g>
				<path opacity="0.15" fill="#2E2854" d="M339.272,181.04c22.623,14.044,38.27,40.452,40.762,68.271
					c-12.061-5.393-22.881-15.558-29.787-26.821C343.342,211.226,339.932,197.852,339.272,181.04z"/>
				<path fill="#F9A51B" d="M342.651,177.777c21.883,15.171,36.303,43.624,37.383,71.534c-11.773-5.996-22.194-17.983-28.521-29.581
					C345.188,208.13,342.459,194.601,342.651,177.777z"/>
				<path fill="none" stroke="#2E2854" stroke-linecap="round" stroke-linejoin="round" stroke-miterlimit="10" d="M355.467,203.335
					c6.321,16.381,14.077,31.896,24.567,45.976"/>
			</g>
			<path fill="none" stroke="#2E2854" stroke-linecap="round" stroke-linejoin="round" stroke-miterlimit="10" d="M386.888,107.93
				c-15.833,93.762,2.091,190.747-13.52,284.545"/>
			<path fill="none" stroke="#2E2854" stroke-linecap="round" stroke-linejoin="round" stroke-miterlimit="10" d="M411.338,158.916
				c-12.761,11.088-23.472,24.52-31.48,39.405"/>
			<path opacity="0.15" fill="#2E2854" d="M394.363,163.736c6.339,8.86,13.851,16.88,22.275,23.786
				c13.302-17.346,29.927-31.936,49.103-42.032c-7.111-9.338-14.887-18.169-24.363-25.161
				C422.372,129.364,405.938,143.738,394.363,163.736z"/>
			<path fill="#AECF9F" d="M392.586,158.772c6.339,8.86,13.851,16.88,22.275,23.786c13.302-17.346,29.926-31.936,49.103-42.032
				c-7.111-9.338-14.887-18.169-24.363-25.161C420.594,124.4,404.161,138.773,392.586,158.772z"/>
			<g>
				<path fill="#065F0F" d="M414.861,182.557c2.182-2.846,4.463-5.609,6.821-8.299c-7.505-8.896-15.122-17.024-23.331-24.405
					c-2.03,2.842-3.963,5.804-5.766,8.918C398.925,167.632,406.436,175.652,414.861,182.557z"/>
				<path fill="#065F0F" d="M439.601,115.364c-2.583,1.228-5.114,2.564-7.596,3.99c6.919,9.269,14.683,17.942,23.616,25.959
					c2.726-1.687,5.503-3.292,8.343-4.787C456.853,131.188,449.077,122.356,439.601,115.364z"/>
				<path fill="#065F0F" d="M425.102,154.1c4.111-0.151,7.725-3.993,7.625-8.105c-0.1-4.111-3.897-7.773-8.01-7.723
					c-4.501,0.055-8.012,4.196-7.811,8.304C417.106,150.683,420.993,154.25,425.102,154.1z"/>
			</g>
			<path fill="none" stroke="#2E2854" stroke-linecap="round" stroke-linejoin="round" stroke-miterlimit="10" d="M343.165,254.525
				c17.046,3.481,31.612,16.744,37.173,33.159"/>
			<path opacity="0.15" fill="#2E2854" d="M324.504,291.303c1.758-6.595,6.62-12.289,12.856-15.061
				c6.235-2.771,13.721-2.564,19.794,0.549c0,0,12.44-23.71,11.729-22.826c-10.29-8.335-25.053-10.768-37.476-6.179
				c-12.422,4.59-22.056,16.037-24.456,29.062L324.504,291.303z"/>
			<path fill="#AECF9F" d="M321.603,287.686c1.758-6.595,6.62-12.289,12.856-15.061c6.235-2.771,13.721-2.564,19.794,0.549
				c0,0,12.44-23.71,11.729-22.826c-10.29-8.335-25.053-10.768-37.476-6.179c-12.422,4.59-22.056,16.037-24.456,29.061
				L321.603,287.686z"/>
			<g>
				<path fill="#065F0F" d="M346.229,270.821c2.789,0.292,5.526,1.073,8.023,2.353c0,0,12.44-23.71,11.729-22.826
					c-2.392-1.938-5.033-3.542-7.823-4.827C353.483,253.6,349.492,262.074,346.229,270.821z"/>
				<path fill="#065F0F" d="M306.605,265.039c-1.156,2.623-2.035,5.366-2.556,8.191l17.553,14.457
					c0.684-2.565,1.842-4.991,3.363-7.164C318.846,275.361,312.726,270.2,306.605,265.039z"/>
				<path fill="#065F0F" d="M340.183,257.088c-1.318-3.896-6.032-6.264-9.944-4.994c-4.282,1.389-6.404,6.387-4.991,10.251
					c1.413,3.862,6.184,6.112,10.064,4.746S341.501,260.984,340.183,257.088z"/>
			</g>
			<g>
				<path opacity="0.15" fill="#2E2854" d="M442.307,272.069c-6.321,8.528-16.893,12.499-26.653,16.675
					c-9.761,4.173-22.536,10.23-25.87,20.962c11.334,4.143,27.144,1.954,37.057-4.93
					C436.755,297.891,443.011,286.026,442.307,272.069z"/>
				<path fill="#E88B24" d="M438.695,267.302c-5.447,9.112-15.575,14.108-24.874,19.228c-9.3,5.118-21.78,12.167-24.036,23.176
					c11.688,3.002,27.569-0.497,36.754-8.328C435.722,293.547,440.775,281.121,438.695,267.302z"/>
				<path fill="none" stroke="#2E2854" stroke-linecap="round" stroke-linejoin="round" stroke-miterlimit="10" d="M389.785,309.705
					c5.581-4.999,16.609-7.682,23.369-10.913c6.76-3.233,13.559-7.465,16.898-14.173"/>
			</g>
			<path fill="none" stroke="#2E2854" stroke-linecap="round" stroke-linejoin="round" stroke-miterlimit="10" d="M379.53,329.885
				c6.194-14.612,15.183-28.149,23.012-42.065c10.4-18.486,19.119-39.434,15.781-60.379"/>
			<path opacity="0.15" fill="#2E2854" d="M434.964,260.072c-10.059-1.631-19.956-4.274-29.608-9.23
				c3.223-20.202,8.82-40.025,16.635-58.931c0,0,27.049,9.377,27.073,10.275C441.334,220.24,436.645,239.593,434.964,260.072z"/>
			<path fill="#AECF9F" d="M431.528,257.656c-10.059-1.631-19.956-4.274-29.608-9.23c3.223-20.202,8.819-40.025,16.634-58.931
				c0,0,27.049,9.377,27.073,10.275C437.898,217.824,433.209,237.177,431.528,257.656z"/>
			<g>
				<path fill="#065F0F" d="M403.58,239.211c-0.602,3.063-1.168,6.133-1.659,9.215c9.652,4.956,19.548,7.599,29.608,9.23
					c0.235-2.866,0.536-5.707,0.889-8.529C422.5,246.813,412.822,243.486,403.58,239.211z"/>
				<path fill="#065F0F" d="M420.033,232.113c3.896,1.316,8.637-0.994,10.001-4.875c1.364-3.88-0.82-8.85-5.119-10.186
					c-3.928-1.22-8.611,1.206-9.881,5.119C413.767,226.083,416.136,230.796,420.033,232.113z"/>
				<path fill="#065F0F" d="M418.555,189.495c-1.063,2.572-2.076,5.163-3.057,7.767c8.609,4.374,17.594,8.002,26.825,10.834
					c1.035-2.804,2.13-5.581,3.305-8.326C445.604,198.872,418.555,189.495,418.555,189.495z"/>
			</g>
			<path fill="none" stroke="#2E2854" stroke-linecap="round" stroke-linejoin="round" stroke-miterlimit="10" d="M348.355,133.74
				c15.136,22.369,25.845,47.71,31.427,74.132"/>
			<g>
				<path opacity="0.15" fill="#2E2854" d="M345.649,167.011c8.198-6.054,15.789-12.931,22.102-21.755
					c-12.11-16.488-26.156-31.554-41.756-44.788c0,0-19.76,20.715-19.371,21.524C321.758,134.51,334.783,149.571,345.649,167.011z"
					/>
				<path fill="#AECF9F" d="M346.608,161.633c8.198-6.054,15.789-12.931,22.102-21.755c-12.11-16.488-26.156-31.553-41.756-44.788
					c0,0-19.76,20.715-19.371,21.524C322.717,129.132,335.743,144.194,346.608,161.633z"/>
				<g>
					<path fill="#065F0F" d="M307.583,116.615c2.3,1.902,4.546,3.871,6.749,5.891c6.913-6.742,13.241-14.08,18.895-21.908
						c-2.063-1.867-4.15-3.707-6.272-5.507C326.954,95.09,307.194,115.805,307.583,116.615z"/>
					<path fill="#065F0F" d="M333.907,122.503c-3.211,3.155-2.879,8.574,0.109,11.4c2.989,2.826,8.263,2.711,11.125-0.243
						c2.863-2.953,2.813-8.228-0.105-11.127C342.116,119.635,336.841,119.621,333.907,122.503z"/>
					<path fill="#065F0F" d="M341.915,154.456c1.605,2.347,3.173,4.736,4.693,7.177c8.198-6.054,15.789-12.931,22.102-21.755
						c-1.848-2.516-3.756-4.986-5.692-7.434C356.756,140.474,349.675,147.861,341.915,154.456z"/>
				</g>
			</g>
			<g>
				<path fill="#003B70" d="M121.347,444.803h407.478c6.856-2.448,12.117-8.369,13.482-15.834
					c2.315-12.646,4.472-26.675,4.732-38.033c-146.175-9.947-294.831-7.474-442.718,6.651c1.513,11.068,3.398,22.086,6.359,33.812
					C112.181,437.34,116.162,442.131,121.347,444.803z"/>
				<path opacity="0.15" fill="#2E2854" d="M460.987,433.594c-75.509-0.666-292.903-0.178-349.634-0.036
					c1.837,4.939,5.453,8.905,9.994,11.244h407.478c6.856-2.448,12.117-8.369,13.482-15.834c0.535-2.925,1.061-5.924,1.558-8.947
					C527.693,427.26,501.681,433.953,460.987,433.594z"/>
				<path fill="none" stroke="#2E2854" stroke-linecap="round" stroke-linejoin="round" stroke-miterlimit="10" d="M111.353,406.584
					c0,0,249.445-23.241,435.686-3.797"/>
			</g>
		</g>
	</g>
	<path fill="#F5DECF" d="M-18.576,174.841c-1.207-1.037-3.414-0.354-3.824,1.183c-0.41,1.538,1.163,3.23,2.727,2.932
		C-18.11,178.657-16.972,176.22-18.576,174.841z"/>
	<path fill="#F5DECF" d="M377.44,1.297c-3.157-2.713-8.929-0.927-10.002,3.093c-1.073,4.022,3.043,8.446,7.131,7.668
		C378.658,11.277,381.634,4.904,377.44,1.297z"/>
	<path fill="#F5DECF" d="M619.496,49.886c-8.059-6.926-22.795-2.366-25.534,7.896c-2.739,10.269,7.768,21.563,18.205,19.575
		C622.605,75.363,630.204,59.094,619.496,49.886z"/>
	<path fill="#F5DECF" d="M565.443,5.898c-3.381-2.906-9.565-0.993-10.714,3.313c-1.149,4.309,3.259,9.048,7.639,8.214
		C566.748,16.588,569.936,9.762,565.443,5.898z"/>
	<path fill="#F5DECF" d="M99.526,23.629c-6.446-5.54-18.234-1.892-20.425,6.316c-2.191,8.214,6.213,17.248,14.562,15.658
		C102.013,44.008,108.091,30.995,99.526,23.629z"/>
	<path fill="#F5DECF" d="M612.598,326.408c-2.196-1.887-6.211-0.645-6.958,2.152c-0.747,2.798,2.117,5.876,4.961,5.334
		C613.446,333.35,615.516,328.917,612.598,326.408z"/>
	<path fill="#F5DECF" d="M20.576,100.608c-3.874-3.33-10.958-1.137-12.274,3.796c-1.317,4.937,3.734,10.365,8.751,9.41
		C22.071,112.855,25.724,105.035,20.576,100.608z"/>
	<path fill="#F5DECF" d="M13.384,355.137c-4.152-3.569-11.745-1.219-13.156,4.069c-1.411,5.291,4.002,11.11,9.38,10.086
		C14.986,368.264,18.901,359.882,13.384,355.137z"/>
</g>
</svg>
