<?xml version="1.0" encoding="utf-8"?>
<!-- Generator: Adobe Illustrator 17.0.0, SVG Export Plug-In . SVG Version: 6.00 Build 0)  -->
<!DOCTYPE svg PUBLIC "-//W3C//DTD SVG 1.1//EN" "http://www.w3.org/Graphics/SVG/1.1/DTD/svg11.dtd">
<svg version="1.1" id="Ñëîé_1" xmlns="http://www.w3.org/2000/svg" xmlns:xlink="http://www.w3.org/1999/xlink" x="0px" y="0px"
	 width="2100px" height="2000px" viewBox="0 0 2100 2000" enable-background="new 0 0 2100 2000" xml:space="preserve">
<g>
	<path id="_x31_2" fill="#B9DAEF" d="M247.8,1705.788c0,0-285.822-422.137,34.288-647.626
		c217.142-152.957,151.089-501.272,168.9-648.582c26.713-220.943,247.331-237.176,489.027,48.678
		c92.719,109.659,247.546,236.459,444.255,51.848c220.383-206.829,461.456-27.962,549.337,324.193
		c103.71,415.582-116.673,862.911-116.545,862.983L247.8,1705.788z"/>
	<g id="_x31_1">
		<path fill="#BFF3A7" d="M215.811,1724.22c0,0-125.407-185.904-84.195-217.32c41.213-31.416,171.943,136.991,171.943,136.991
			s-76.954-170.001-60.838-266.859c16.116-96.859,140.672,130.149,170.674,241.522c0,0-7.569-156.907,64.076-220.766
			c71.645-63.859,45.364,256.603,45.364,256.603s44.991-184.473,93.871-193.337c48.88-8.863-14.656,261.719-14.656,261.719
			L215.811,1724.22z"/>
		<path fill="#065F0F" d="M160.113,1544.193c-0.25-0.359-0.625-0.599-1.055-0.676c-0.428-0.073-0.862,0.019-1.219,0.269
			c-0.739,0.514-0.921,1.534-0.407,2.273l124.742,179.292c0.305,0.44,0.807,0.703,1.342,0.703c0.336,0,0.66-0.102,0.932-0.294
			c0.358-0.249,0.598-0.623,0.675-1.052c0.077-0.429-0.018-0.863-0.267-1.221L160.113,1544.193z"/>
		<path fill="#065F0F" d="M270.212,1393.287c-0.306-0.844-1.245-1.279-2.094-0.976c-0.846,0.309-1.283,1.249-0.975,2.093
			l120.059,329.726c0.233,0.645,0.85,1.078,1.535,1.078c0.19,0,0.377-0.033,0.558-0.099c0.41-0.15,0.738-0.449,0.922-0.845
			c0.184-0.396,0.203-0.839,0.054-1.249L270.212,1393.287z"/>
		<path fill="#065F0F" d="M491.258,1435.354c-0.623-0.125-1.234,0.278-1.364,0.895c-0.348,1.657-34.893,167.107-43.345,287.021
			c-0.022,0.309,0.078,0.607,0.281,0.841c0.203,0.233,0.484,0.373,0.768,0.391l0.105,0.006c0.604,0,1.11-0.473,1.152-1.076
			c8.42-119.445,42.954-285.049,43.302-286.708C492.288,1436.101,491.887,1435.486,491.258,1435.354z"/>
		<path fill="#065F0F" d="M607.962,1494.864c-0.612-0.175-1.254,0.18-1.43,0.793c-0.495,1.731-49.663,173.663-60.993,227.457
			c-0.064,0.303-0.006,0.612,0.163,0.87s0.428,0.436,0.727,0.498c0.079,0.017,0.16,0.027,0.242,0.027
			c0.543,0,1.019-0.386,1.131-0.918c11.328-53.784,60.458-225.568,60.953-227.297
			C608.931,1495.681,608.574,1495.039,607.962,1494.864z"/>
	</g>
	<g id="_x31_0">
		<path fill="#BFF3A7" d="M1887.182,1724.22c0,0,125.407-185.904,84.195-217.32c-41.213-31.416-171.944,136.991-171.944,136.991
			s76.954-170.001,60.838-266.859c-16.116-96.859-140.672,130.149-170.674,241.522c0,0,7.569-156.907-64.076-220.766
			c-71.645-63.859-45.364,256.603-45.364,256.603s-44.991-184.473-93.871-193.337c-48.88-8.863,14.656,261.719,14.656,261.719
			L1887.182,1724.22z"/>
		<path fill="#065F0F" d="M1945.829,1544.84c-0.077-0.43-0.317-0.805-0.674-1.053c-0.358-0.25-0.789-0.345-1.222-0.269
			c-0.43,0.077-0.805,0.317-1.054,0.675l-124.741,179.293c-0.25,0.358-0.345,0.792-0.268,1.222c0.078,0.43,0.317,0.803,0.672,1.049
			c0.275,0.193,0.599,0.296,0.935,0.296c0.537,0,1.038-0.264,1.341-0.701l124.741-179.292
			C1945.809,1545.703,1945.905,1545.27,1945.829,1544.84z"/>
		<path fill="#065F0F" d="M1834.875,1392.311c-0.411-0.15-0.855-0.13-1.25,0.054c-0.395,0.185-0.695,0.512-0.843,0.922
			l-120.061,329.729c-0.307,0.846,0.131,1.785,0.978,2.093c0.181,0.066,0.368,0.099,0.557,0.099c0.684,0,1.301-0.433,1.535-1.076
			l120.06-329.727C1836.159,1393.558,1835.721,1392.619,1834.875,1392.311z"/>
		<path fill="#065F0F" d="M1611.73,1435.355c-0.625,0.131-1.025,0.746-0.895,1.369c0.348,1.656,34.862,166.993,43.302,286.708
			c0.042,0.603,0.548,1.076,1.152,1.076l0.081-0.004c0.308-0.021,0.589-0.161,0.792-0.393c0.203-0.233,0.303-0.532,0.281-0.841
			c-8.396-119.107-42.996-285.356-43.345-287.022C1612.968,1435.63,1612.357,1435.226,1611.73,1435.355z"/>
		<path fill="#065F0F" d="M1496.461,1495.656c-0.085-0.297-0.281-0.543-0.552-0.693c-0.27-0.151-0.582-0.185-0.878-0.1
			c-0.612,0.176-0.968,0.817-0.793,1.431c0.493,1.719,49.6,173.393,60.953,227.296c0.112,0.532,0.588,0.918,1.131,0.918
			c0.081,0,0.162-0.009,0.238-0.026c0.624-0.131,1.025-0.745,0.894-1.369C1546.229,1669.813,1498.488,1502.743,1496.461,1495.656z"
			/>
	</g>
	<ellipse id="_x39_" fill="#E8CFAC" cx="1045.594" cy="1757.09" rx="925.284" ry="129.017"/>
	<g id="_x38_">
		<path fill="#FDFFFE" d="M1870.442,1027.686c-1.399,0-2.77,0.12-4.107,0.34c0.128-1.026,0.201-2.069,0.201-3.13
			c0-13.868-11.242-25.111-25.11-25.111c-8.743,0-16.438,4.47-20.935,11.247c-1.84-12.056-12.252-21.292-24.822-21.292
			c-13.868,0-25.11,11.242-25.11,25.111c0,2.533,0.379,4.976,1.076,7.281c-0.357-0.015-0.715-0.027-1.076-0.027
			c-13.868,0-25.111,11.242-25.111,25.111s11.242,25.111,25.111,25.111c5.414,0,10.424-1.719,14.525-4.634
			c5.567,11.651,17.458,19.7,31.232,19.7c14.734,0,27.309-9.215,32.297-22.193c4.32,7.587,12.475,12.707,21.83,12.707
			c13.868,0,25.11-11.242,25.11-25.11C1895.552,1038.928,1884.31,1027.686,1870.442,1027.686z"/>
		<path fill="#FDFFFE" d="M578.734,388.704c1.826,0.145,3.602,0.443,5.324,0.868c-0.061-1.352-0.049-2.721,0.061-4.105
			c1.433-18.096,17.264-31.605,35.361-30.173c11.408,0.903,20.988,7.531,26.156,16.839c3.646-15.541,18.187-26.518,34.59-25.219
			c18.096,1.433,31.605,17.264,30.173,35.361c-0.262,3.305-1.008,6.454-2.156,9.39c0.468,0.017,0.936,0.038,1.407,0.076
			c18.096,1.433,31.605,17.264,30.173,35.361c-1.433,18.096-17.264,31.605-35.361,30.173c-7.065-0.559-13.425-3.321-18.475-7.548
			c-8.468,14.628-24.816,23.903-42.789,22.48c-19.227-1.522-34.684-14.846-39.852-32.296c-6.421,9.454-17.591,15.293-29.799,14.326
			c-18.097-1.433-31.605-17.264-30.173-35.361C544.806,400.78,560.637,387.271,578.734,388.704z"/>
		<path fill="#B9DAEF" d="M202.411,782.63c1.736,0,3.436,0.149,5.095,0.422c-0.158-1.273-0.249-2.567-0.249-3.882
			c0-17.202,13.945-31.148,31.147-31.148c10.844,0,20.39,5.545,25.968,13.951c2.282-14.954,15.198-26.41,30.789-26.41
			c17.202,0,31.147,13.945,31.147,31.147c0,3.142-0.47,6.173-1.335,9.032c0.443-0.019,0.887-0.034,1.335-0.034
			c17.202,0,31.147,13.945,31.147,31.148s-13.945,31.147-31.147,31.147c-6.716,0-12.93-2.133-18.018-5.748
			c-6.905,14.451-21.655,24.436-38.74,24.436c-18.277,0-33.875-11.431-40.062-27.529c-5.359,9.411-15.474,15.762-27.078,15.762
			c-17.202,0-31.147-13.945-31.147-31.148C171.263,796.575,185.208,782.63,202.411,782.63z"/>
	</g>
	<g id="_x37_">
		<path fill="#FFB12A" d="M1098.985,506.936H883.359c-6.487,0-11.746-5.259-11.746-11.746v-0.847
			c0-6.487,5.259-11.746,11.746-11.746h215.627c6.487,0,11.746,5.259,11.746,11.746v0.847
			C1110.731,501.677,1105.472,506.936,1098.985,506.936z"/>
		<rect x="889.504" y="482.597" fill="#E98900" width="2.794" height="24.339"/>
		<rect x="906.216" y="482.597" fill="#E98900" width="2.794" height="24.339"/>
		<rect x="922.928" y="482.597" fill="#E98900" width="2.794" height="24.339"/>
		<rect x="939.639" y="482.597" fill="#E98900" width="2.794" height="24.339"/>
		<rect x="956.351" y="482.597" fill="#E98900" width="2.794" height="24.339"/>
		<rect x="973.063" y="482.597" fill="#E98900" width="2.794" height="24.339"/>
		<rect x="989.775" y="482.597" fill="#E98900" width="2.794" height="24.339"/>
		<rect x="1006.487" y="482.597" fill="#E98900" width="2.794" height="24.339"/>
		<rect x="1023.198" y="482.597" fill="#E98900" width="2.794" height="24.339"/>
		<rect x="1039.91" y="482.597" fill="#E98900" width="2.794" height="24.339"/>
		<rect x="1056.622" y="482.597" fill="#E98900" width="2.794" height="24.339"/>
		<rect x="1073.334" y="482.597" fill="#E98900" width="2.794" height="24.339"/>
		<rect x="1090.046" y="482.597" fill="#E98900" width="2.794" height="24.339"/>
		<path fill="#FFB12A" d="M1090.74,482.597H875.113c-6.487,0-11.746-5.259-11.746-11.746v-0.847c0-6.487,5.259-11.746,11.746-11.746
			h215.627c6.487,0,11.746,5.259,11.746,11.746v0.847C1102.486,477.339,1097.227,482.597,1090.74,482.597z"/>
		<rect x="881.258" y="458.259" fill="#E98900" width="2.794" height="24.339"/>
		<rect x="897.97" y="458.259" fill="#E98900" width="2.794" height="24.339"/>
		<rect x="914.682" y="458.259" fill="#E98900" width="2.794" height="24.339"/>
		<rect x="931.394" y="458.259" fill="#E98900" width="2.794" height="24.339"/>
		<rect x="948.106" y="458.259" fill="#E98900" width="2.794" height="24.339"/>
		<rect x="964.818" y="458.259" fill="#E98900" width="2.794" height="24.339"/>
		<rect x="981.529" y="458.259" fill="#E98900" width="2.794" height="24.339"/>
		<rect x="998.241" y="458.259" fill="#E98900" width="2.794" height="24.339"/>
		<rect x="1014.953" y="458.259" fill="#E98900" width="2.794" height="24.339"/>
		<rect x="1031.665" y="458.259" fill="#E98900" width="2.794" height="24.339"/>
		<rect x="1048.377" y="458.259" fill="#E98900" width="2.794" height="24.339"/>
		<rect x="1065.088" y="458.259" fill="#E98900" width="2.794" height="24.339"/>
		<rect x="1081.8" y="458.259" fill="#E98900" width="2.794" height="24.339"/>
		<path fill="#FFB12A" d="M1098.985,555.614H883.359c-6.487,0-11.746-5.259-11.746-11.746v-0.847
			c0-6.487,5.259-11.746,11.746-11.746h215.627c6.487,0,11.746,5.259,11.746,11.746v0.847
			C1110.731,550.355,1105.472,555.614,1098.985,555.614z"/>
		<rect x="889.504" y="531.275" fill="#E98900" width="2.794" height="24.339"/>
		<rect x="906.216" y="531.275" fill="#E98900" width="2.794" height="24.339"/>
		<rect x="922.928" y="531.275" fill="#E98900" width="2.794" height="24.339"/>
		<rect x="939.639" y="531.275" fill="#E98900" width="2.794" height="24.339"/>
		<rect x="956.351" y="531.275" fill="#E98900" width="2.794" height="24.339"/>
		<rect x="973.063" y="531.275" fill="#E98900" width="2.794" height="24.339"/>
		<rect x="989.775" y="531.275" fill="#E98900" width="2.794" height="24.339"/>
		<rect x="1006.487" y="531.275" fill="#E98900" width="2.794" height="24.339"/>
		<rect x="1023.198" y="531.275" fill="#E98900" width="2.794" height="24.339"/>
		<rect x="1039.91" y="531.275" fill="#E98900" width="2.794" height="24.339"/>
		<rect x="1056.622" y="531.275" fill="#E98900" width="2.794" height="24.339"/>
		<rect x="1073.334" y="531.275" fill="#E98900" width="2.794" height="24.339"/>
		<rect x="1090.046" y="531.275" fill="#E98900" width="2.794" height="24.339"/>
		<path fill="#FFB12A" d="M1074.028,531.275H858.401c-6.487,0-11.746-5.259-11.746-11.746v-0.847
			c0-6.487,5.259-11.746,11.746-11.746h215.627c6.487,0,11.746,5.259,11.746,11.746v0.847
			C1085.774,526.016,1080.515,531.275,1074.028,531.275z"/>
		<rect x="864.547" y="506.936" fill="#E98900" width="2.794" height="24.339"/>
		<rect x="881.258" y="506.936" fill="#E98900" width="2.794" height="24.339"/>
		<rect x="897.97" y="506.936" fill="#E98900" width="2.794" height="24.339"/>
		<rect x="914.682" y="506.936" fill="#E98900" width="2.794" height="24.339"/>
		<rect x="931.394" y="506.936" fill="#E98900" width="2.794" height="24.339"/>
		<rect x="948.106" y="506.936" fill="#E98900" width="2.794" height="24.339"/>
		<rect x="964.818" y="506.936" fill="#E98900" width="2.794" height="24.339"/>
		<rect x="981.529" y="506.936" fill="#E98900" width="2.794" height="24.339"/>
		<rect x="998.241" y="506.936" fill="#E98900" width="2.794" height="24.339"/>
		<rect x="1014.953" y="506.936" fill="#E98900" width="2.794" height="24.339"/>
		<rect x="1031.665" y="506.936" fill="#E98900" width="2.794" height="24.339"/>
		<rect x="1048.377" y="506.936" fill="#E98900" width="2.794" height="24.339"/>
		<rect x="1065.088" y="506.936" fill="#E98900" width="2.794" height="24.339"/>
		<path fill="#FFB12A" d="M1065.937,458.259H850.311c-6.487,0-11.746-5.259-11.746-11.746v-0.847
			c0-6.487,5.259-11.746,11.746-11.746h215.627c6.487,0,11.746,5.259,11.746,11.746v0.847
			C1077.683,453,1072.425,458.259,1065.937,458.259z"/>
		<rect x="856.456" y="433.919" fill="#E98900" width="2.794" height="24.339"/>
		<rect x="873.168" y="433.919" fill="#E98900" width="2.794" height="24.339"/>
		<rect x="889.88" y="433.919" fill="#E98900" width="2.794" height="24.339"/>
		<rect x="906.592" y="433.919" fill="#E98900" width="2.794" height="24.339"/>
		<rect x="923.303" y="433.919" fill="#E98900" width="2.794" height="24.339"/>
		<rect x="940.015" y="433.919" fill="#E98900" width="2.794" height="24.339"/>
		<rect x="956.727" y="433.919" fill="#E98900" width="2.794" height="24.339"/>
		<rect x="973.439" y="433.919" fill="#E98900" width="2.794" height="24.339"/>
		<rect x="990.151" y="433.919" fill="#E98900" width="2.794" height="24.339"/>
		<rect x="1006.863" y="433.919" fill="#E98900" width="2.794" height="24.339"/>
		<rect x="1023.574" y="433.919" fill="#E98900" width="2.794" height="24.339"/>
		<rect x="1040.286" y="433.919" fill="#E98900" width="2.794" height="24.339"/>
		<rect x="1056.998" y="433.919" fill="#E98900" width="2.794" height="24.339"/>
		<path fill="#FFB12A" d="M1090.922,385.241H875.295c-6.487,0-11.746-5.259-11.746-11.746v-0.847
			c0-6.487,5.259-11.746,11.746-11.746h215.627c6.487,0,11.746,5.259,11.746,11.746v0.847
			C1102.668,379.983,1097.409,385.241,1090.922,385.241z"/>
		<rect x="881.441" y="360.903" fill="#E98900" width="2.794" height="24.339"/>
		<rect x="898.153" y="360.903" fill="#E98900" width="2.794" height="24.339"/>
		<rect x="914.864" y="360.903" fill="#E98900" width="2.794" height="24.339"/>
		<rect x="931.576" y="360.903" fill="#E98900" width="2.794" height="24.339"/>
		<rect x="948.288" y="360.903" fill="#E98900" width="2.794" height="24.339"/>
		<rect x="965" y="360.903" fill="#E98900" width="2.794" height="24.339"/>
		<rect x="981.712" y="360.903" fill="#E98900" width="2.794" height="24.339"/>
		<rect x="998.423" y="360.903" fill="#E98900" width="2.794" height="24.339"/>
		<rect x="1015.135" y="360.903" fill="#E98900" width="2.794" height="24.339"/>
		<rect x="1031.847" y="360.903" fill="#E98900" width="2.794" height="24.339"/>
		<rect x="1048.559" y="360.903" fill="#E98900" width="2.794" height="24.339"/>
		<rect x="1065.271" y="360.903" fill="#E98900" width="2.794" height="24.339"/>
		<rect x="1081.983" y="360.903" fill="#E98900" width="2.794" height="24.339"/>
		<path fill="#FFB12A" d="M1082.676,360.903H867.05c-6.487,0-11.746-5.259-11.746-11.746v-0.847c0-6.487,5.259-11.746,11.746-11.746
			h215.626c6.487,0,11.746,5.259,11.746,11.746v0.847C1094.422,355.644,1089.163,360.903,1082.676,360.903z"/>
		<rect x="873.195" y="336.564" fill="#E98900" width="2.794" height="24.339"/>
		<rect x="889.907" y="336.564" fill="#E98900" width="2.794" height="24.339"/>
		<rect x="906.619" y="336.564" fill="#E98900" width="2.794" height="24.339"/>
		<rect x="923.331" y="336.564" fill="#E98900" width="2.794" height="24.339"/>
		<rect x="940.042" y="336.564" fill="#E98900" width="2.794" height="24.339"/>
		<rect x="956.754" y="336.564" fill="#E98900" width="2.794" height="24.339"/>
		<rect x="973.466" y="336.564" fill="#E98900" width="2.794" height="24.339"/>
		<rect x="990.178" y="336.564" fill="#E98900" width="2.794" height="24.339"/>
		<rect x="1006.89" y="336.564" fill="#E98900" width="2.794" height="24.339"/>
		<rect x="1023.602" y="336.564" fill="#E98900" width="2.794" height="24.339"/>
		<rect x="1040.313" y="336.564" fill="#E98900" width="2.794" height="24.339"/>
		<rect x="1057.025" y="336.564" fill="#E98900" width="2.794" height="24.339"/>
		<rect x="1073.737" y="336.564" fill="#E98900" width="2.794" height="24.339"/>
		<path fill="#FFB12A" d="M1090.922,433.919H875.295c-6.487,0-11.746-5.259-11.746-11.746v-0.847
			c0-6.487,5.259-11.746,11.746-11.746h215.627c6.487,0,11.746,5.259,11.746,11.746v0.847
			C1102.668,428.661,1097.409,433.919,1090.922,433.919z"/>
		<rect x="881.441" y="409.58" fill="#E98900" width="2.794" height="24.339"/>
		<rect x="898.153" y="409.58" fill="#E98900" width="2.794" height="24.339"/>
		<rect x="914.864" y="409.58" fill="#E98900" width="2.794" height="24.339"/>
		<rect x="931.576" y="409.58" fill="#E98900" width="2.794" height="24.339"/>
		<rect x="948.288" y="409.58" fill="#E98900" width="2.794" height="24.339"/>
		<rect x="965" y="409.58" fill="#E98900" width="2.794" height="24.339"/>
		<rect x="981.712" y="409.58" fill="#E98900" width="2.794" height="24.339"/>
		<rect x="998.423" y="409.58" fill="#E98900" width="2.794" height="24.339"/>
		<rect x="1015.135" y="409.58" fill="#E98900" width="2.794" height="24.339"/>
		<rect x="1031.847" y="409.58" fill="#E98900" width="2.794" height="24.339"/>
		<rect x="1048.559" y="409.58" fill="#E98900" width="2.794" height="24.339"/>
		<rect x="1065.271" y="409.58" fill="#E98900" width="2.794" height="24.339"/>
		<rect x="1081.983" y="409.58" fill="#E98900" width="2.794" height="24.339"/>
		<path fill="#FFB12A" d="M1065.964,409.581H850.338c-6.487,0-11.746-5.259-11.746-11.746v-0.847
			c0-6.487,5.259-11.746,11.746-11.746h215.627c6.487,0,11.746,5.259,11.746,11.746v0.847
			C1077.711,404.322,1072.452,409.581,1065.964,409.581z"/>
		<rect x="856.483" y="385.241" fill="#E98900" width="2.794" height="24.339"/>
		<rect x="873.195" y="385.241" fill="#E98900" width="2.794" height="24.339"/>
		<rect x="889.907" y="385.241" fill="#E98900" width="2.794" height="24.339"/>
		<rect x="906.619" y="385.241" fill="#E98900" width="2.794" height="24.339"/>
		<rect x="923.331" y="385.241" fill="#E98900" width="2.794" height="24.339"/>
		<rect x="940.042" y="385.241" fill="#E98900" width="2.794" height="24.339"/>
		<rect x="956.754" y="385.241" fill="#E98900" width="2.794" height="24.339"/>
		<rect x="973.466" y="385.241" fill="#E98900" width="2.794" height="24.339"/>
		<rect x="990.178" y="385.241" fill="#E98900" width="2.794" height="24.339"/>
		<rect x="1006.89" y="385.241" fill="#E98900" width="2.794" height="24.339"/>
		<rect x="1023.602" y="385.241" fill="#E98900" width="2.794" height="24.339"/>
		<rect x="1040.313" y="385.241" fill="#E98900" width="2.794" height="24.339"/>
		<rect x="1057.025" y="385.241" fill="#E98900" width="2.794" height="24.339"/>
		<path fill="#FFB12A" d="M1057.874,336.564H842.247c-6.487,0-11.746-5.259-11.746-11.746v-0.847
			c0-6.487,5.259-11.746,11.746-11.746h215.627c6.487,0,11.746,5.259,11.746,11.746v0.847
			C1069.62,331.305,1064.361,336.564,1057.874,336.564z"/>
		<rect x="848.393" y="312.225" fill="#E98900" width="2.794" height="24.339"/>
		<rect x="865.105" y="312.225" fill="#E98900" width="2.794" height="24.339"/>
		<rect x="881.816" y="312.225" fill="#E98900" width="2.794" height="24.339"/>
		<rect x="898.528" y="312.225" fill="#E98900" width="2.794" height="24.339"/>
		<rect x="915.24" y="312.225" fill="#E98900" width="2.794" height="24.339"/>
		<rect x="931.952" y="312.225" fill="#E98900" width="2.794" height="24.339"/>
		<rect x="948.664" y="312.225" fill="#E98900" width="2.794" height="24.339"/>
		<rect x="965.375" y="312.225" fill="#E98900" width="2.794" height="24.339"/>
		<rect x="982.087" y="312.225" fill="#E98900" width="2.794" height="24.339"/>
		<rect x="998.799" y="312.225" fill="#E98900" width="2.794" height="24.339"/>
		<rect x="1015.511" y="312.225" fill="#E98900" width="2.794" height="24.339"/>
		<rect x="1032.223" y="312.225" fill="#E98900" width="2.794" height="24.339"/>
		<rect x="1048.935" y="312.225" fill="#E98900" width="2.794" height="24.339"/>
	</g>
	<g id="_x36_">
		<path fill="#59413B" d="M972.199,451.058c82.676-13.754,166.606-21.467,250.543-19.777c20.082,0.45,39.856,1.636,60.02,3.562
			c76.847,9.405,57.041,124.514-18.646,107.493c-11.099-2.826-22.373-5.476-33.839-7.811c-11.136-2.268-23.519-4.525-34.802-6.316
			c-68.604-10.821-138.369-15.06-207.879-14.887C941.573,519.996,929.688,461.413,972.199,451.058z"/>
		<path fill="#59413B" d="M960.155,604.881c-79.296,0-186.385-41.084-191.142-42.925c-16.149-6.251-24.173-24.41-17.921-40.559
			c6.251-16.149,24.41-24.174,40.559-17.921c1.602,0.617,111.091,42.515,177.229,38.443c93.214-5.73,174.834-56.686,175.647-57.199
			c14.64-9.25,34.005-4.881,43.255,9.759c9.25,14.639,4.881,34.005-9.758,43.255c-3.877,2.45-96.206,60.071-205.296,66.777
			C968.635,604.761,964.43,604.881,960.155,604.881z"/>
		<path fill="#59413B" d="M1008.977,701.48c-83.5,0-171.71-43.495-175.572-45.421c-15.496-7.729-21.794-26.556-14.065-42.052
			c7.724-15.489,26.535-21.786,42.027-14.078c0.944,0.468,85.159,41.823,155.062,38.679c59.382-2.66,204.393-52.141,255.257-70.983
			c16.238-6.013,34.278,2.271,40.294,18.509c6.016,16.237-2.27,34.277-18.507,40.293c-1.943,0.72-48.235,17.837-104.849,35.66
			c-77.604,24.431-134.594,37.608-169.389,39.167C1015.83,701.406,1012.405,701.48,1008.977,701.48z"/>
		<path fill="#59413B" d="M979.642,659.35c-3.624,0-7.234-0.088-10.845-0.272c-81.932-4.182-173.741-30.715-177.609-31.842
			c-16.625-4.846-26.174-22.251-21.328-38.876c4.845-16.624,22.251-26.174,38.875-21.328c1.29,0.374,88.945,25.625,163.259,29.418
			c67.988,3.468,147.081-39.75,147.873-40.187c15.136-8.41,34.209-2.947,42.62,12.19c8.41,15.138,2.94,34.235-12.198,42.645
			C1146.596,613.15,1062.439,659.35,979.642,659.35z"/>
		<path fill="#59413B" d="M864.935,644.754c0,0,83.588,24.977,137.053,24.977c57.639,0,230.326-36.401,310.61-33.303
			c91.675,3.538,342.961,79.292,342.961,79.292V445.579c0,0-252.005-104.349-427.057-47.991
			c-68.309,21.992-209.957,46.832-209.957,46.832l152.458,80.991L864.935,644.754z"/>
		<path fill="#4C3430" d="M990.143,617.671c-9.978,0-19.102-0.645-27.352-1.937c-61.415-9.618-172.214-42.018-173.326-42.344
			c-2.095-0.615-3.295-2.811-2.681-4.906c0.615-2.096,2.811-3.293,4.906-2.681c1.107,0.325,111.418,32.582,172.324,42.12
			c60.217,9.427,155.748-21.013,156.706-21.321c2.08-0.67,4.305,0.472,4.975,2.55c0.669,2.078-0.472,4.305-2.55,4.975
			c-0.243,0.078-24.736,7.93-56.478,14.474C1037.382,614.641,1011.768,617.671,990.143,617.671z"/>
		<path fill="#4C3430" d="M983.478,671.078c-8.286,0-15.941-0.286-22.787-0.863c-40.881-3.447-139.311-31.611-143.481-32.808
			c-2.098-0.602-3.311-2.792-2.709-4.89c0.602-2.099,2.792-3.31,4.89-2.709c1.014,0.292,101.854,29.147,141.964,32.53
			c37.467,3.16,108.716-2.896,172.397-20.583c2.104-0.583,4.282,0.648,4.867,2.751c0.584,2.104-0.648,4.282-2.751,4.867
			c-29.326,8.146-62.232,14.426-95.159,18.164C1020.059,669.879,1000.45,671.078,983.478,671.078z"/>
		<path fill="#4C3430" d="M799.958,576.257c-0.825,0-1.657-0.257-2.368-0.791c-1.743-1.306-2.1-3.775-0.801-5.521
			c0.372-0.506,8.839-12.294,1.375-25.633c-6.501-11.617-33.722-17.784-43.663-19.181c-2.162-0.303-3.669-2.302-3.365-4.465
			c0.303-2.162,2.301-3.673,4.464-3.365c0.398,0.056,9.867,1.408,20.585,4.774c14.969,4.701,24.685,10.884,28.877,18.375
			c10.022,17.909-1.445,33.566-1.939,34.223C802.348,575.711,801.16,576.257,799.958,576.257z"/>
		<path fill="#4C3430" d="M818.297,637.561c-0.788,0-1.584-0.235-2.276-0.724c-1.781-1.257-2.208-3.719-0.955-5.502
			c0.13-0.187,9.745-14.232,1.98-24.369c-7.145-9.328-33.62-15.207-43.217-16.686c-2.158-0.332-3.638-2.35-3.306-4.508
			c0.332-2.158,2.349-3.633,4.507-3.307c3.852,0.592,37.936,6.171,48.293,19.693c11.327,14.788-1.252,32.962-1.793,33.729
			C820.759,636.978,819.538,637.561,818.297,637.561z"/>
		<path fill="#4C3430" d="M954.417,489.889c-2.884,0-4.527-0.09-4.735-0.102c-2.18-0.128-3.843-1.998-3.715-4.177
			c0.128-2.179,1.996-3.838,4.178-3.716c0.159,0.009,16.462,0.878,40.799-3.387c5.668-0.993,9.581-3.351,11.962-7.208
			c5.072-8.215,1.469-20.53,1.432-20.654c-0.626-2.088,0.556-4.293,2.643-4.923c2.087-0.629,4.289,0.544,4.923,2.63
			c0.195,0.639,4.682,15.785-2.246,27.059c-3.583,5.832-9.421,9.493-17.349,10.883C974.59,489.4,961.137,489.889,954.417,489.889z"
			/>
		<path fill="#30313C" d="M1384.317,363.676c0,0-46.832,114.361-38.757,303.45L2100,940.404V417.482
			C2100,417.482,1604.551,363.676,1384.317,363.676z"/>
		<path fill="#64656E" d="M1438.124,700.219c-2.004,0-3.722-1.518-3.928-3.555c-4.142-40.876-4.369-83.566-0.675-126.885
			c2.953-34.639,8.406-69.757,16.206-104.381c13.291-58.991,29.047-96.688,29.204-97.061c0.848-2.011,3.165-2.956,5.177-2.107
			c2.012,0.847,2.956,3.166,2.108,5.178c-0.156,0.369-15.687,37.561-28.821,95.922c-12.107,53.803-24.596,137.126-15.334,228.537
			c0.22,2.172-1.362,4.111-3.534,4.331C1438.393,700.212,1438.258,700.219,1438.124,700.219z"/>
	</g>
	<g id="_x33_">
		<rect x="519.332" y="796.127" fill="#4682B4" width="1054.423" height="895.843"/>
		<polygon fill="#FACE6C" points="434.765,986.927 518.529,796.127 1574.56,796.127 1658.323,986.927 		"/>
		<rect x="434.765" y="986.927" fill="#FFB12A" width="1223.558" height="71.235"/>
		<polygon fill="#1E3A8A" points="1261.681,986.927 831.408,986.927 871.576,796.127 1221.512,796.127 		"/>
		<rect x="577.48" y="1096.64" fill="#305777" width="592.55" height="435.78"/>
		<rect x="597.48" y="1116.64" fill="#7CE1F7" width="552.55" height="395.78"/>
		<rect x="1216.6" y="1096.11" fill="#305777" width="306.86" height="595.859"/>
		<rect x="1236.6" y="1116.11" fill="#7CE1F7" width="266.86" height="575.86"/>
		<rect x="831.408" y="986.927" fill="#1A3163" width="430.273" height="71.235"/>
		<polygon fill="#B3F4FF" points="958.41,1116.64 811.39,1512.42 722.05,1512.42 869.06,1116.64 		"/>
		<polygon fill="#B3F4FF" points="1033.57,1116.64 886.55,1512.42 841.89,1512.42 988.91,1116.64 		"/>
		<polygon fill="#B3F4FF" points="1495.32,1116.11 1281.41,1691.97 1236.6,1691.97 1236.6,1572.11 1405.99,1116.11 		"/>
		<polygon fill="#B3F4FF" points="1503.46,1176.32 1503.46,1296.57 1356.58,1691.97 1311.92,1691.97 		"/>
		<rect x="560.808" y="1512.419" fill="#305777" width="625.894" height="23.421"/>
		<rect x="1254.66" y="1370.5" fill="#305777" width="23.421" height="67.08"/>
	</g>
	<g id="_x32_">
		<path fill="#818496" d="M610.527,1256.52c0,0,19.874,0.165,32.252,15.697C642.779,1272.217,623.086,1277.143,610.527,1256.52z"/>
		<path fill="#D89935" d="M440.514,1234.027c0,0-10.713,10.268-15.496,32.669c-3.463,16.219-14.629,43.938-18.597,59.648
			c-16.032,63.471,11.512,90.809,90.073,75.524c37.113-7.221,35.405-42.278,30.613-61.751
			c-6.268-25.475-21.603-47.248-19.931-75.958c0,0-10.1-23.641-25.413-25.857C466.45,1236.085,440.514,1234.027,440.514,1234.027z"
			/>
		
			<rect x="451.584" y="1294.424" transform="matrix(-0.0367 -0.9993 0.9993 -0.0367 -816.4033 1830.5997)" fill="#F2B5A7" width="45.001" height="28.707"/>
		<path fill="#D1836B" d="M467.918,1310.957c0,0,9.097,6.828,20.773,4.468l-0.575-15.655L467.918,1310.957z"/>
		<path fill="#F2B5A7" d="M481.733,1311.72L481.733,1311.72c16.297-3.51,26.663-19.567,23.153-35.864l-3.299-15.318
			c-3.51-16.297-19.567-26.663-35.864-23.153l0,0c-16.297,3.51-26.663,19.567-23.153,35.864l3.299,15.317
			C449.379,1304.864,465.436,1315.23,481.733,1311.72z"/>
		<path fill="#F2B5A7" d="M475.814,1494.538c26.497-0.974,65.621-9.662,53.973-45.658c-5.982-18.485-13.529-43.499-9.378-77.149
			c3.247-26.315-18.103-52.665-45.068-52.518l-1.741,0.064c-25.843,1.362-37.592,27.617-33.895,53.872
			c4.765,33.84-2.271,57.754-8.712,75.055C413.337,1495.631,475.814,1494.538,475.814,1494.538z"/>
		<path fill="#F2B5A7" d="M483.421,1345.715c-1.292-9.705,5.528-18.619,15.233-19.911l79.401-10.569l43.616-67.261
			c3.042-4.703,9.16-6.572,14.388-4.15c5.725,2.653,8.215,9.444,5.563,15.168l-37.676,81.315c-2.173,4.597-6.603,8.126-12.017,8.847
			l-88.597,11.793C493.627,1362.239,484.712,1355.419,483.421,1345.715z"/>
		
			<ellipse transform="matrix(0.9777 -0.2101 0.2101 0.9777 -257.1186 126.4824)" fill="#30313C" cx="466.716" cy="1273.341" rx="2.078" ry="4.077"/>
		<path fill="#F1F3F2" d="M488.908,1321.304c0,0,31.553-6.719,85.523-8.974c0,0,22.186-36.753,36.095-55.81
			c0,0,12.225,14.666,32.252,15.697c0,0-23.712,71.364-43.591,79.556c-19.878,8.191-77.098,16.301-77.098,16.301L488.908,1321.304z"
			/>
		
			<ellipse transform="matrix(0.9777 -0.2101 0.2101 0.9777 -255.9107 130.1367)" fill="#30313C" cx="484.534" cy="1269.512" rx="2.078" ry="4.077"/>
		
			<ellipse transform="matrix(-0.9986 0.0528 -0.0528 -0.9986 988.9163 2540.5603)" fill="#E58A76" cx="460.903" cy="1283.342" rx="3.197" ry="2.917"/>
		
			<ellipse transform="matrix(-0.9986 0.0528 -0.0528 -0.9986 1055.5186 2527.0891)" fill="#E58A76" cx="494.372" cy="1277.49" rx="3.197" ry="2.918"/>
		<path fill="#F1F3F2" d="M488.908,1321.304c0,0,14.434,2.667,29.218,23.46c4.053,5.7,13.388,20.977,13.724,30.1
			c0.365,9.92-9.548,15.922-8.888,33.884c0.654,17.81,14.104,28.754,6.825,40.131c-4.282,6.692-70.707,18.037-99.341,1.041
			c-15.931-9.456,10.188-30.86,2.289-79.696c-6.015-37.192,14.41-43.906,27.466-47.866c0,0,11.191,28.022,21.042,27.156
			C491.357,1348.626,488.908,1321.304,488.908,1321.304z"/>
		<circle fill="#F2B5A7" cx="442.968" cy="1282.693" r="8.018"/>
		<path fill="#D89935" d="M476.19,1229.267c0,0,12.911-6.906,24.535,4.344c10.167,9.839,8.785,22.705,5.557,35.003
			C506.283,1268.614,483.159,1246.747,476.19,1229.267z"/>
		<circle fill="#F2B5A7" cx="503.829" cy="1270.946" r="8.018"/>
		<path fill="#D1836B" d="M475.443,1291.617c0.369,2.159,2.692,3.563,5.19,3.136c2.493-0.428,4.217-2.525,3.848-4.683
			c-0.083-0.488-0.27-0.943-0.534-1.34c-0.901-1.363-2.725-2.128-4.656-1.796c-1.686,0.288-3.02,1.343-3.594,2.666
			C475.421,1290.229,475.325,1290.917,475.443,1291.617z"/>
		<path fill="#FFFFFF" d="M475.697,1289.599c5.701,1.472,8.249-0.864,8.249-0.864l0.001-0.005c-0.901-1.363-2.725-2.128-4.656-1.796
			C477.604,1287.221,476.271,1288.276,475.697,1289.599z"/>
		<path fill="#AF5945" d="M504.976,1275.497c0.216-0.081,0.345-0.312,0.293-0.543c-0.522-2.304,0.749-2.994,1.978-3.66
			c0.734-0.398,1.427-0.774,1.634-1.482c0.128-0.439,0.041-0.923-0.267-1.479c-1.724-3.115-5.664-2.441-5.831-2.411
			c-0.255,0.043-0.424,0.289-0.378,0.545c0.046,0.255,0.29,0.425,0.545,0.38c0.14-0.025,3.447-0.58,4.843,1.941
			c0.177,0.321,0.24,0.577,0.186,0.761c-0.097,0.332-0.623,0.617-1.18,0.919c-1.245,0.675-3.126,1.695-2.447,4.693
			c0.057,0.253,0.309,0.412,0.562,0.354C504.936,1275.51,504.956,1275.504,504.976,1275.497z"/>
		<path fill="#AF5945" d="M444.005,1287.196c0.19-0.071,0.318-0.26,0.303-0.473c-0.215-3.067-2.31-3.501-3.696-3.788
			c-0.621-0.128-1.207-0.25-1.396-0.54c-0.104-0.161-0.118-0.424-0.041-0.782c0.613-2.83,4.042-3.252,4.077-3.256
			c0.257-0.029,0.443-0.262,0.413-0.52c-0.029-0.258-0.262-0.443-0.52-0.413c-0.168,0.019-4.135,0.51-4.888,3.991
			c-0.134,0.621-0.078,1.109,0.171,1.493c0.402,0.618,1.175,0.778,1.992,0.947c1.369,0.283,2.785,0.577,2.95,2.933
			c0.018,0.259,0.242,0.454,0.501,0.436C443.919,1287.221,443.964,1287.211,444.005,1287.196z"/>
		<path fill="#D89935" d="M488.305,1236.262c0,0-3.508,17.248-19.702,20.303c-19.018,3.587-22.892,29.166-22.892,29.166
			s-14.032-16.504-13.003-30.143C435.062,1224.383,464.847,1211.885,488.305,1236.262z"/>
		<path fill="#AF5945" d="M487.523,1260.602c0.097-0.036,0.187-0.092,0.267-0.168c0.314-0.3,0.327-0.797,0.028-1.112
			c-0.092-0.097-2.292-2.376-5.188-2.281c-1.716,0.057-3.28,0.918-4.648,2.561c-0.278,0.334-0.233,0.832,0.102,1.11
			c0.334,0.278,0.831,0.233,1.11-0.101c1.065-1.279,2.236-1.949,3.479-1.995c2.185-0.077,3.987,1.774,4.005,1.793
			C486.901,1260.644,487.237,1260.709,487.523,1260.602z"/>
		<path fill="#AF5945" d="M469.52,1262.946c0.131-0.049,0.25-0.134,0.342-0.251c0.267-0.342,0.209-0.835-0.132-1.103
			c-0.085-0.067-2.117-1.641-4.646-1.159c-1.795,0.342-3.339,1.606-4.59,3.757c-0.219,0.376-0.091,0.859,0.285,1.078
			c0.376,0.219,0.858,0.091,1.077-0.285c1.007-1.732,2.189-2.742,3.507-2.998c1.817-0.354,3.377,0.835,3.392,0.847
			C468.982,1263.005,469.271,1263.039,469.52,1262.946z"/>
		<path fill="#AF5945" d="M478.846,1283.891c0.022-0.008,0.045-0.019,0.066-0.031c0.384-0.217,3.73-2.175,2.984-4.05
			c-0.63-1.584-5.315-8.107-5.514-8.384c-0.151-0.211-0.444-0.258-0.655-0.107c-0.211,0.151-0.258,0.445-0.107,0.655
			c1.338,1.86,4.916,6.957,5.403,8.183c0.351,0.882-1.582,2.324-2.573,2.885c-0.226,0.128-0.305,0.414-0.178,0.64
			C478.388,1283.886,478.633,1283.971,478.846,1283.891z"/>
		<path fill="#DBBFB2" d="M515.138,1396.274c7.246-1.448,11.508-5.308,11.735-5.518c0.191-0.176,0.202-0.473,0.027-0.663
			c-0.176-0.191-0.475-0.202-0.663-0.027c-0.069,0.064-7.07,6.384-18.187,5.768c-0.255-0.015-0.48,0.184-0.495,0.443
			c-0.014,0.259,0.184,0.48,0.443,0.495C510.618,1396.917,513.008,1396.7,515.138,1396.274z"/>
		<path fill="#818496" d="M476.115,1398.169c0.792-0.158,1.222-0.276,1.245-0.282c0.25-0.071,0.395-0.33,0.324-0.579
			c-0.07-0.25-0.331-0.393-0.579-0.324c-0.118,0.034-12.1,3.298-28.474-1.488c-0.25-0.073-0.51,0.07-0.583,0.319
			c-0.073,0.249,0.07,0.51,0.319,0.583C461.957,1400.368,472.597,1398.872,476.115,1398.169z"/>
		<path fill="#F2B5A7" d="M621.471,1251.602c0,0,6.695-10.957,16.721-14.405s14.749-2.533,18.542-0.106
			c3.792,2.428-8.341,17.312-14.852,20.029C635.372,1259.838,626.8,1260.311,621.471,1251.602z"/>
		<path fill="#F2B5A7" d="M620.897,1249.224l0.311-0.626c0.1-0.201,0.175-0.335,0.253-0.477c0.079-0.146,0.157-0.285,0.234-0.417
			c0.155-0.269,0.309-0.54,0.467-0.796c0.311-0.523,0.633-1.03,0.955-1.533c0.322-0.505,0.661-0.992,0.99-1.487l1.028-1.45
			c1.397-1.91,2.901-3.732,4.502-5.468c1.588-1.744,3.317-3.371,5.137-4.886l1.381-1.117l1.445-1.044l0.722-0.517l0.756-0.477
			l1.509-0.945c1.132-0.711,2.645-0.511,3.549,0.53c0.999,1.151,0.875,2.894-0.276,3.893l-0.165,0.143l-1.159,1.005l-0.577,0.498
			l-0.548,0.54l-1.09,1.074l-0.709,0.782c0.408-0.199,0.817-0.412,1.227-0.623c0.883-0.465,1.762-0.957,2.634-1.466
			c1.745-1.019,3.445-2.13,5.096-3.311c0.836-0.58,1.63-1.208,2.442-1.824l1.179-0.964l0.59-0.485l0.568-0.505
			c1.552-1.322,2.96-2.777,4.352-4.266l0.082-0.088c0.822-0.881,2.182-1.074,3.23-0.396c1.176,0.761,1.513,2.331,0.753,3.507
			c-1.22,1.886-2.493,3.763-3.922,5.501l-0.526,0.664l-0.547,0.642l-0.386,0.448c0.124-0.086,0.248-0.172,0.373-0.258l1.239-0.917
			l0.621-0.461l0.6-0.482c1.634-1.26,3.134-2.657,4.619-4.089l0.084-0.081c0.869-0.838,2.239-0.959,3.25-0.225
			c1.134,0.823,1.386,2.409,0.563,3.543c-1.331,1.833-2.714,3.655-4.242,5.332l-0.538,0.612l0.426-0.268l1.274-0.9l0.64-0.453
			l0.605-0.488l1.218-0.981l0.154-0.125c0.942-0.76,2.322-0.755,3.261,0.072c1.049,0.924,1.15,2.524,0.226,3.573l-1.182,1.342
			l-0.596,0.672l-0.629,0.632l-1.27,1.263l-1.33,1.192c-0.713,0.62-1.445,1.218-2.187,1.802l1.103-0.717l0.782-0.509l0.733-0.567
			l1.478-1.138l0.189-0.146c0.98-0.756,2.392-0.696,3.304,0.192c1,0.973,1.022,2.574,0.049,3.574l-1.497,1.539l-0.755,0.771
			l-0.806,0.709l-1.627,1.416l-1.718,1.295c-0.29,0.212-0.571,0.441-0.869,0.639l-0.898,0.589c-0.604,0.384-1.194,0.805-1.816,1.158
			l-1.868,1.067c-0.625,0.357-1.273,0.652-1.912,0.981c-2.572,1.264-5.234,2.343-7.968,3.222l-2.065,0.623
			c-0.697,0.182-1.389,0.385-2.096,0.549c-0.705,0.17-1.414,0.334-2.138,0.476c-0.356,0.077-0.73,0.14-1.099,0.207
			c-0.181,0.034-0.373,0.065-0.571,0.094c-0.193,0.03-0.379,0.06-0.648,0.089l-0.622,0.069c-0.341,0.035-0.69,0.034-1.045-0.006
			c-2.655-0.301-4.563-2.697-4.262-5.351c0.301-2.655,2.697-4.562,5.352-4.262c0.06,0.007,0.189,0.006,0.319,0.005
			c-0.195-0.48-0.321-0.997-0.353-1.543c-0.033-0.549,0.032-1.08,0.171-1.581c-0.071-0.161-0.134-0.327-0.189-0.498
			c-2.249,0.232-4.425-1.139-5.126-3.381c-0.061-0.194-0.104-0.389-0.14-0.583c-0.923,1.431-1.784,2.902-2.566,4.411l-0.687,1.374
			c-0.213,0.464-0.439,0.922-0.642,1.386c-0.205,0.464-0.408,0.926-0.592,1.386c-0.098,0.232-0.182,0.457-0.27,0.683
			c-0.045,0.115-0.086,0.225-0.122,0.329c-0.039,0.107-0.081,0.222-0.092,0.273c-0.084,0.375-0.218,0.77-0.397,1.13
			c-1.193,2.399-4.104,3.377-6.504,2.185C620.683,1254.535,619.705,1251.623,620.897,1249.224z"/>
		<path fill="#AF5945" d="M652.683,1251.193c0.03-0.006,0.06-0.015,0.09-0.028c5.953-2.495,10.84-6.877,10.888-6.921
			c0.192-0.174,0.207-0.47,0.034-0.663c-0.174-0.192-0.47-0.207-0.663-0.034c-0.048,0.043-4.82,4.321-10.622,6.752
			c-0.239,0.1-0.352,0.375-0.251,0.615C652.246,1251.124,652.468,1251.236,652.683,1251.193z"/>
		<path fill="#AF5945" d="M651.863,1245.111c0.057-0.011,0.112-0.033,0.163-0.066c6.44-4.17,10.828-8.611,10.872-8.656
			c0.182-0.185,0.179-0.482-0.006-0.664c-0.186-0.182-0.483-0.178-0.664,0.006c-0.043,0.044-4.363,4.415-10.712,8.525
			c-0.218,0.141-0.28,0.432-0.139,0.65C651.484,1245.072,651.68,1245.148,651.863,1245.111z"/>
		<path fill="#AF5945" d="M647.413,1241.252c0.059-0.012,0.116-0.035,0.169-0.071c3.987-2.672,8.336-7.339,8.519-7.536
			c0.176-0.19,0.165-0.487-0.025-0.663c-0.19-0.176-0.486-0.167-0.664,0.025c-0.044,0.047-4.458,4.784-8.354,7.395
			c-0.215,0.144-0.273,0.436-0.128,0.651C647.04,1241.215,647.233,1241.288,647.413,1241.252z"/>
		<path fill="#AF5945" d="M642.318,1250.022c0.141-0.028,0.267-0.12,0.333-0.26c0.111-0.234,0.011-0.515-0.224-0.625
			c-1.999-0.946-4.593-1.098-5.984-1.102c1.991-2.953,2.653-6.802,2.683-6.979c0.043-0.256-0.13-0.498-0.386-0.54
			c-0.254-0.043-0.497,0.129-0.541,0.385c-0.007,0.045-0.78,4.522-3.068,7.328c-0.118,0.145-0.139,0.346-0.054,0.512
			c0.085,0.166,0.261,0.266,0.448,0.254c0.038-0.003,3.912-0.234,6.5,0.991C642.12,1250.031,642.223,1250.042,642.318,1250.022z"/>
		<path fill="#818496" d="M530.141,1367.34c0.037-0.008,0.075-0.02,0.111-0.037c0.234-0.112,0.333-0.392,0.221-0.626
			c-0.048-0.102-4.954-10.26-13.564-19.725c-0.174-0.192-0.472-0.206-0.663-0.031c-0.192,0.174-0.206,0.472-0.031,0.663
			c8.518,9.365,13.363,19.398,13.411,19.498C529.72,1367.28,529.935,1367.381,530.141,1367.34z"/>
		<path fill="#818496" d="M639.887,1281.155c0.205-0.041,0.364-0.216,0.376-0.434c0.014-0.259-0.184-0.481-0.443-0.495
			c-0.223-0.012-22.454-1.423-33.997-16.795c-0.156-0.207-0.449-0.249-0.658-0.094c-0.207,0.156-0.249,0.45-0.093,0.657
			c11.81,15.727,34.469,17.156,34.696,17.169C639.809,1281.165,639.848,1281.162,639.887,1281.155z"/>
		<path fill="#F2B5A7" d="M488.505,1493.823l-28.066,135.637l-0.637,3.079c-0.119,0.574-0.305,1.18-0.509,1.709l-49.453,125.824
			c-3.573,9.092-13.841,13.565-22.933,9.992c-9.092-3.573-13.568-13.835-9.994-22.927l49.409-125.841l-2.966-133.71
			c-0.239-18.178,14.084-26.38,32.262-26.619c18.178-0.239,33.327,7.575,33.566,25.754
			C489.216,1489.095,488.953,1491.585,488.505,1493.823z"/>
		<path fill="#F2B5A7" d="M529.519,1490.394l5.365,138.406l0.122,3.141c0.023,0.585-0.012,1.219-0.083,1.782l-17.754,134.022
			c-1.283,9.684-10.174,16.495-19.858,15.212c-9.684-1.283-16.496-10.167-15.213-19.852l17.707-134.029l-35.023-129.076
			c-4.602-17.587,5.925-35.576,23.513-40.177c17.587-4.602,35.576,5.925,40.177,23.512
			C529.073,1485.634,529.416,1488.114,529.519,1490.394z"/>
		<path fill="#30313C" d="M519.582,1453.574c0,0,27.34,56.686,37.355,152.946c4.48,43.057-15.756,139.059-15.756,139.059
			s-40.211,10.734-74.669-2.851l15.925-111.045c0,0-5.67-62.366-17.059-93.416c-11.39-31.051-8.385-81.502-8.385-81.502
			C486.532,1459.243,519.582,1453.574,519.582,1453.574z"/>
		<path fill="#CC0A96" d="M549.423,1810.544l-42.653-0.526l-8.945-19.161l-3.866,18.998l-12.319-0.15
			c-11.23-23.561,0.825-52.968,0.825-52.968s17.831,3.635,39.26,0.664l-0.502,19.114l31.81,23.175
			C557.759,1803.134,555.272,1810.616,549.423,1810.544z"/>
		<path fill="#DF7FE2" d="M487.794,1783.805c-0.465-0.003-0.929-0.097-1.371-0.281c-0.895-0.373-1.591-1.072-1.961-1.969
			c-0.369-0.897-0.367-1.884,0.006-2.779c0.373-0.896,1.073-1.592,1.969-1.961c0.897-0.369,1.884-0.367,2.779,0.006
			c0.895,0.373,1.592,1.072,1.961,1.969l0,0c0.762,1.851-0.124,3.977-1.975,4.739
			C488.748,1783.717,488.271,1783.809,487.794,1783.805z M487.839,1777.478c-0.354-0.003-0.708,0.065-1.044,0.204
			c-0.665,0.274-1.184,0.79-1.461,1.454c-0.277,0.664-0.278,1.396-0.005,2.062c0.274,0.665,0.79,1.184,1.455,1.461
			c0.664,0.276,1.396,0.279,2.061,0.004c1.373-0.565,2.031-2.143,1.466-3.516c-0.274-0.665-0.79-1.184-1.455-1.461
			C488.528,1777.55,488.184,1777.481,487.839,1777.478z"/>
		<path fill="#30313C" d="M497.581,1456.259c0,0,3.041,61.032-10.378,156.877c-6.003,42.871-48.725,131.193-48.725,131.193
			s-41.612,0.752-71.794-20.719l42.153-103.96c0,0-2.625-61.44-2.379-95.677c0.37-51.409,26.433-73.828,26.433-73.828
			C460.969,1459.651,497.581,1456.259,497.581,1456.259z"/>
		<path fill="#CC0A96" d="M430.861,1809.37l-41.276-10.765l-4.076-20.75l-8.32,17.511l-11.922-3.107
			c-5.236-25.569,13.534-51.216,13.534-51.216s16.434,7.815,37.949,10.083l-5.082,18.432l25.305,30.143
			C440.734,1804.181,436.52,1810.846,430.861,1809.37z"/>
		<path fill="#DF7FE2" d="M377.467,1768.599c-0.45-0.115-0.878-0.317-1.263-0.602c-0.779-0.578-1.287-1.424-1.43-2.383
			c-0.143-0.959,0.096-1.916,0.674-2.696c0.577-0.78,1.424-1.287,2.383-1.43c0.959-0.143,1.917,0.097,2.695,0.674
			c0.78,0.577,1.287,1.424,1.43,2.383l0,0c0.295,1.98-1.077,3.831-3.056,4.126C378.414,1768.743,377.929,1768.717,377.467,1768.599z
			 M379.032,1762.469c-0.343-0.088-0.703-0.107-1.063-0.053c-0.712,0.106-1.34,0.482-1.768,1.06c-0.428,0.578-0.606,1.289-0.5,2
			c0.106,0.711,0.483,1.339,1.061,1.768c0.578,0.428,1.288,0.606,2,0.5c1.469-0.219,2.486-1.592,2.268-3.061
			c-0.106-0.712-0.483-1.339-1.061-1.767C379.684,1762.704,379.366,1762.554,379.032,1762.469z"/>
		<path fill="#3E8EDD" d="M479.968,1380.04l34.438,0.336l0,0c0.026-2.696-2.138-4.903-4.835-4.93l-24.674-0.241
			C482.201,1375.179,479.994,1377.343,479.968,1380.04L479.968,1380.04z"/>
		<path fill="#606A97" d="M467.432,1474.435l56.064,0.547c4.878,0.048,8.871-3.868,8.918-8.746l0.751-77.04
			c0.048-4.878-3.868-8.871-8.746-8.918l-56.065-0.546c-4.878-0.048-8.871,3.868-8.918,8.746l-0.751,77.04
			C458.638,1470.395,462.554,1474.387,467.432,1474.435z"/>
		<path fill="#F2B5A7" d="M390.399,1427.042l26.322-70.834c3.41-9.177,13.614-13.852,22.791-10.442
			c9.177,3.41,13.852,13.614,10.442,22.791l-18.505,49.799l68.856,12.052c5.537,0.963,9.655,5.89,9.446,11.664
			c-0.228,6.304-5.523,11.23-11.828,11.002l-92.347-3.339c-1.728-0.07-3.548-0.409-5.257-1.044
			C391.6,1445.453,387.159,1435.759,390.399,1427.042z"/>
		<path fill="#F2B5A7" d="M485.673,1434.335c0,0,11.665-5.365,21.912-2.64c10.247,2.725,13.658,6.118,15.453,10.247
			c1.796,4.129-16.574,9.724-23.495,8.351C492.624,1448.922,485.243,1444.537,485.673,1434.335z"/>
		<path fill="#F2B5A7" d="M492.287,1439.753c5.34-3.842,11.51-6.648,17.919-8.138c0.836-0.152,2.174-0.44,3.017-0.519
			c1.984-0.006,4.474-0.853,4.137-3.294c-0.54-3.584-5.442-2.266-7.993-2.412c-7.951,0.613-15.826,2.853-22.845,6.652
			C480.399,1435.714,487.022,1444.594,492.287,1439.753z"/>
		<path fill="#F2B5A7" d="M506.852,1441.166c9.086-0.135,18.199-1.959,26.529-5.602c2.801-1.126,1.328-5.556-1.573-4.802
			c-2.264,0.544-4.547,0.977-6.861,1.246c-5.714,0.603-11.556,0.572-17.224-0.369
			C500.316,1429.759,499.205,1441.555,506.852,1441.166z"/>
		<path fill="#F2B5A7" d="M508.961,1446.812c9.154,0.237,18.404-1.153,26.986-4.365c2.86-0.975,1.622-5.482-1.317-4.879
			c-2.566,0.472-5.158,0.829-7.768,0.943c-5.56,0.271-11.202-0.063-16.652-1.185
			C502.961,1435.253,501.406,1446.841,508.961,1446.812z"/>
		<path fill="#F2B5A7" d="M506.428,1449.633c9.305,2.164,19.239,2.402,28.476-0.208c3.055-0.75,2.011-5.512-1.061-4.952
			c-0.555,0.051-1.806,0.155-2.332,0.203c-7.476,0.311-15.055-1.207-21.946-4.082C502.823,1436.98,498.902,1448.17,506.428,1449.633
			z"/>
		<path fill="#F2B5A7" d="M497.245,1451.862c7.854,3.666,16.618,5.598,25.287,5.301c2.737-0.075,5.849-0.563,8.51-1.188
			c3.006-0.567,2.346-5.267-0.685-4.996c-0.043,0.005-1.993,0.129-2.1,0.136c-7.434,0.41-14.888-1.646-21.538-4.873
			c-1.577-0.798-3.181-1.635-4.629-2.631C496.25,1438.987,490.38,1448.919,497.245,1451.862z"/>
		<path fill="#AF5945" d="M524.828,1451.739c0.243-0.048,0.408-0.279,0.372-0.527c-0.037-0.257-0.275-0.435-0.532-0.398
			c-0.063,0.009-6.41,0.9-12.582-0.315c-0.254-0.05-0.501,0.115-0.551,0.37c-0.05,0.255,0.116,0.501,0.37,0.552
			c6.334,1.247,12.833,0.332,12.898,0.323C524.811,1451.742,524.819,1451.74,524.828,1451.739z"/>
		<path fill="#AF5945" d="M528.526,1444.8c0.012-0.002,0.019-0.004,0.021-0.004c0.254-0.052,0.418-0.301,0.366-0.555
			c-0.052-0.253-0.299-0.416-0.552-0.365c-0.002,0-0.005,0.001-0.022,0.004c-0.38,0.076-6.276,1.226-13.626,1.104
			c-0.258-0.005-0.473,0.203-0.477,0.462c-0.005,0.259,0.202,0.473,0.462,0.477C522.141,1446.046,528.122,1444.881,528.526,1444.8z"
			/>
		<path fill="#AF5945" d="M522.667,1439.109c1.022-0.204,1.686-0.359,1.767-0.379c0.252-0.059,0.409-0.313,0.349-0.565
			c-0.059-0.253-0.325-0.409-0.565-0.349c-0.064,0.015-6.369,1.487-11.057,1.483c-0.258,0-0.47,0.21-0.47,0.469
			c0,0.259,0.21,0.47,0.469,0.47C516.46,1440.241,520.424,1439.557,522.667,1439.109z"/>
		<path fill="#F1F3F2" d="M460.201,1322.359c0,0-35.666-0.65-53.667,37.54s-25.121,70.168-18.657,84.973
			c8.169,18.709,91.625,17.093,91.625,17.093s9.526-14.114,4.487-38.308c0,0-27.279-5.887-45.711-7.343
			C438.278,1416.315,463.824,1351.177,460.201,1322.359z"/>
		<path fill="#818496" d="M459.231,1419.458c0.191-0.038,0.346-0.194,0.374-0.399c0.034-0.257-0.147-0.493-0.404-0.527
			c-6.64-0.884-17.555-2.266-20.249-2.606c6.257-15.01,15.152-50.492,15.242-50.853c0.063-0.252-0.09-0.507-0.342-0.569
			c-0.252-0.063-0.507,0.09-0.569,0.342c-0.092,0.365-9.199,36.695-15.437,51.284c-0.058,0.135-0.049,0.291,0.024,0.418
			c0.074,0.128,0.202,0.214,0.349,0.232c0.132,0.017,13.281,1.674,20.858,2.683C459.13,1419.47,459.182,1419.468,459.231,1419.458z"
			/>
		<path fill="#818496" d="M469.918,1462.436c0.134-0.027,0.255-0.111,0.324-0.241c8.688-16.482,4.621-40.324,4.578-40.563
			c-0.045-0.256-0.288-0.426-0.544-0.381c-0.25,0.051-0.426,0.289-0.381,0.544c0.041,0.236,4.052,23.768-4.485,39.962
			c-0.121,0.229-0.033,0.513,0.197,0.634C469.707,1462.443,469.816,1462.456,469.918,1462.436z"/>
		<path fill="#818496" d="M482.869,1354.888c2.574-0.515,4.739-1.915,6.443-4.171c6.929-9.172,4.193-29.392,4.073-30.249
			c-0.036-0.257-0.273-0.436-0.53-0.4c-0.252,0.037-0.436,0.273-0.4,0.53c0.029,0.206,2.802,20.693-3.893,29.553
			c-1.69,2.237-3.87,3.556-6.475,3.916c-14.668,2.034-25.548-31.237-25.656-31.573c-0.079-0.247-0.34-0.385-0.591-0.303
			c-0.247,0.079-0.383,0.344-0.303,0.591c0.452,1.404,11.235,34.358,26.679,32.216
			C482.437,1354.968,482.654,1354.931,482.869,1354.888z"/>
		<path fill="#AF5945" d="M480.712,1295.216c-1.319,0.225-2.639-0.009-3.716-0.659c-1.099-0.664-1.815-1.68-2.017-2.86
			c0,0,0-0.001,0-0.001c-0.13-0.769-0.031-1.559,0.286-2.282c0.656-1.511,2.167-2.639,3.946-2.942
			c2.075-0.356,4.088,0.428,5.126,1.999c0.31,0.465,0.514,0.977,0.607,1.521c0.357,2.09-1.023,4.13-3.186,4.943
			C481.427,1295.057,481.077,1295.153,480.712,1295.216z M476.127,1289.788c-0.247,0.565-0.322,1.154-0.221,1.751
			c0.156,0.907,0.715,1.693,1.577,2.214c0.884,0.534,1.975,0.725,3.072,0.537c2.233-0.381,3.789-2.241,3.464-4.141
			c-0.071-0.414-0.226-0.804-0.463-1.16c-0.82-1.242-2.502-1.882-4.185-1.592c-0.302,0.052-0.595,0.131-0.873,0.236
			C477.42,1288.037,476.549,1288.815,476.127,1289.788z"/>
		<path fill="#64656E" d="M480.995,1639.972c0.212,0,0.41-0.131,0.485-0.343c0.154-0.437,15.458-44.599,15.695-123.297
			c0.001-0.284-0.229-0.515-0.512-0.516c-0.001,0-0.001,0-0.002,0c-0.283,0-0.513,0.229-0.514,0.512
			c-0.237,78.505-15.483,122.522-15.637,122.958c-0.095,0.268,0.046,0.561,0.313,0.656
			C480.881,1639.963,480.939,1639.972,480.995,1639.972z"/>
		<path fill="#64656E" d="M510.751,1736.609c19.298,0,32.86-3.198,33.082-3.252c0.276-0.066,0.445-0.345,0.378-0.62
			c-0.067-0.276-0.345-0.446-0.621-0.378c-0.362,0.087-36.675,8.642-75.164-2.476c-0.272-0.077-0.557,0.079-0.636,0.351
			c-0.079,0.272,0.078,0.557,0.351,0.636C483.369,1735.269,498.262,1736.609,510.751,1736.609z"/>
		<path fill="#64656E" d="M443.734,1731.383c0.667,0,1.036-0.011,1.073-0.011c0.284-0.01,0.506-0.248,0.496-0.531
			c-0.01-0.284-0.249-0.492-0.531-0.497c-0.39,0.014-39.461,1.058-72.239-20.878c-0.235-0.158-0.554-0.095-0.713,0.141
			c-0.158,0.236-0.094,0.555,0.142,0.713C401.965,1730.4,437.183,1731.383,443.734,1731.383z"/>
		<path fill="#64656E" d="M513.389,1725.51c17.916,0,32.054-2.258,32.303-2.299c0.28-0.046,0.47-0.311,0.424-0.59
			c-0.046-0.28-0.313-0.47-0.59-0.424c-0.439,0.072-44.292,7.072-75.43-3.772c-0.268-0.094-0.561,0.047-0.654,0.316
			c-0.093,0.268,0.048,0.561,0.316,0.654C483.441,1724.16,499.544,1725.51,513.389,1725.51z"/>
		<path fill="#64656E" d="M449.535,1720.896c0.274,0,0.502-0.216,0.513-0.492c0.012-0.284-0.209-0.523-0.492-0.535
			c-0.489-0.021-49.189-2.251-72.184-22.175c-0.215-0.186-0.539-0.163-0.725,0.052c-0.186,0.215-0.163,0.539,0.052,0.725
			c23.268,20.16,72.322,22.405,72.815,22.425C449.521,1720.896,449.528,1720.896,449.535,1720.896z"/>
	</g>
	<g id="_x31_">
		<path fill="#818496" d="M1473.885,1298.247c0,0-16.48,3.844-30.267,23.53C1443.617,1321.776,1468.238,1323.713,1473.885,1298.247z
			"/>
		<path fill="#F69D85" d="M1446.459,1293.565c5.288-4.524,13.242-3.906,17.766,1.382l52.564,61.432l66.331-54.827
			c0.405-0.333,0.851-0.671,1.292-0.972c8.088-5.527,19.125-3.452,24.652,4.636c5.527,8.088,3.452,19.125-4.636,24.652
			l-81.289,55.555l-0.632,0.433c-5.516,3.743-13.078,2.76-17.433-2.47l-64.505-77.471
			C1440.57,1305.916,1441.217,1298.051,1446.459,1293.565z"/>
		<path fill="#F1F3F2" d="M1603.566,1293.431c0,0-29.42-8.863-83.068,50.777l-46.613-45.961c0,0-6.751,17.081-30.267,23.53
			c0,0,38.379,76.151,68.876,80.095c36.637,4.739,81.205-31.975,81.205-31.975L1603.566,1293.431z"/>
		<path fill="#F69D85" d="M1689.35,1636.359c12,53.211,19.622,94.224,34.385,146.707c9.901,21.042,52.536,22.28,46.391,0.339
			c-11.435-51.547-28.201-104.1-41.323-155.239C1728.803,1628.166,1688.903,1634.579,1689.35,1636.359z"/>
		<path fill="#F69D85" d="M1583.553,1636.45l14.792,146.439c9.901,21.042,52.536,22.28,46.39,0.339l-18.591-154.966
			L1583.553,1636.45z"/>
		<path fill="#606A97" d="M1647.237,1804.609c-0.253,0.949-0.672,1.825-1.227,2.595c-1.376,1.912-3.583,3.161-6.083,3.163
			l-57.165-0.054c-2.846,0-5.004-1.646-6.083-3.841c-0.333-0.667-0.563-1.388-0.679-2.132c-0.354-2.232,0.299-4.65,2.264-6.425
			l20.08-15.025c26.441,4.069,46.123-2.479,46.123-2.479l0.598,2.828c1.317,6.233,2.129,12.561,2.429,18.924l0,0
			C1647.535,1803.012,1647.445,1803.833,1647.237,1804.609z"/>
		<path fill="#404D7F" d="M1647.237,1804.609c-0.873,3.306-3.804,5.754-7.31,5.758l-57.165-0.054
			c-3.712-0.003-6.26-2.796-6.762-5.973L1647.237,1804.609z"/>
		<path fill="#30313C" d="M1644.664,1494.09l2.89,273.176c0,0-25.956,10.936-61.477,5.203l-31.797-278.506L1644.664,1494.09z"/>
		<path fill="#606A97" d="M1772.627,1804.787c-0.252,0.949-0.672,1.825-1.227,2.595c-1.376,1.912-3.583,3.161-6.082,3.163
			l-57.165-0.054c-2.846,0-5.004-1.646-6.083-3.841c-0.333-0.667-0.563-1.389-0.679-2.132c-0.354-2.232,0.299-4.65,2.265-6.425
			l20.08-15.025c26.441,4.069,46.123-2.479,46.123-2.479l0.598,2.828c1.317,6.232,2.13,12.561,2.429,18.924l0,0
			C1772.926,1803.189,1772.836,1804.011,1772.627,1804.787z"/>
		<path fill="#404D7F" d="M1772.627,1804.787c-0.873,3.306-3.804,5.754-7.31,5.758l-57.165-0.054
			c-3.712-0.003-6.26-2.796-6.762-5.973L1772.627,1804.787z"/>
		<path fill="#30313C" d="M1702.876,1494.172c0,0,58.097,212.363,70.069,273.271c0,0-25.956,10.936-61.477,5.203l-95.153-278.596
			L1702.876,1494.172z"/>
		
			<rect x="1595.396" y="1266.565" transform="matrix(0.0014 -1 1 0.0014 334.7279 2897.1875)" fill="#F69D85" width="45.232" height="28.855"/>
		<path fill="#D1836B" d="M1627.505,1280.646c-12.155,6.138-23.927,5.221-23.927,5.221l0.012-8.761L1627.505,1280.646z"/>
		<path fill="#2A3047" d="M1587.833,1235.998c0,0-4.349-7.743-2.11-16.06l9.201,1.713
			C1594.924,1221.651,1589.77,1228.174,1587.833,1235.998z"/>
		<path fill="#F69D85" d="M1613.246,1282.501L1613.246,1282.501c-16.656-1.83-28.675-16.817-26.845-33.473l1.72-15.655
			c1.83-16.656,16.817-28.675,33.473-26.845v0c16.656,1.83,28.675,16.817,26.845,33.473l-1.72,15.655
			C1644.889,1272.312,1629.902,1284.331,1613.246,1282.501z"/>
		<circle fill="#F69D85" cx="1649.788" cy="1249.883" r="8.06"/>
		<circle fill="#F69D85" cx="1586.952" cy="1244.009" r="8.06"/>
		<path fill="#F69D85" d="M1618.63,1461.924l-1.751-0.002c-26.651-0.038-48.226-21.673-48.188-48.325l0.105-73.889
			c0.038-26.651,25.012-47.178,48.325-48.188l1.751,0.002c22.255,0.031,48.226,21.674,48.188,48.325l-0.105,73.889
			C1666.917,1440.387,1645.281,1461.962,1618.63,1461.924z"/>
		
			<ellipse transform="matrix(-0.9941 -0.1087 0.1087 -0.9941 3103.8604 2654.4221)" fill="#30313C" cx="1624.307" cy="1242.58" rx="2.089" ry="4.097"/>
		
			<ellipse transform="matrix(-0.9941 -0.1088 0.1088 -0.9941 3067.7395 2648.4961)" fill="#30313C" cx="1606.097" cy="1240.588" rx="2.089" ry="4.098"/>
		<path fill="#2A3047" d="M1573.084,1212.001c6.236-10.447,17.171-6.528,24.511-13.365c5.404-5.033,22.207-12.307,33.332-7.501
			c8.798,3.8,12.043,11.064,13.167,16.938c4.432,2.117,9.175,6.191,10.52,14.031c1.587,9.248-6.393,19.872-6.393,19.872
			s-9.062-3.768-12.733-13.605c-1.945-5.212-2.714-9.33-2.848-12.547c-4.664-0.322-9.831-0.455-13.753,0.046
			c-13.937,1.782-14.535,10.982-28.642,13.617C1573.913,1232.537,1568.761,1219.245,1573.084,1212.001z"/>
		
			<ellipse transform="matrix(0.9988 -0.0498 0.0498 0.9988 -60.3804 82.8653)" fill="#D1836B" cx="1631.149" cy="1251.98" rx="3.214" ry="2.933"/>
		
			<ellipse transform="matrix(0.9988 -0.0498 0.0498 0.9988 -60.303 81.1641)" fill="#D1836B" cx="1597.082" cy="1249.578" rx="3.214" ry="2.933"/>
		<path fill="#AF5945" d="M1586.655,1248.759c0.229-0.011,0.422-0.188,0.446-0.423c0.315-3.074-1.685-3.864-3.009-4.387
			c-0.593-0.234-1.152-0.455-1.289-0.775c-0.076-0.177-0.045-0.44,0.094-0.781c1.088-2.684,4.454-2.529,4.598-2.523
			c0.268,0.016,0.483-0.185,0.498-0.445c0.015-0.26-0.183-0.483-0.443-0.498c-0.169-0.011-4.184-0.205-5.528,3.111
			c-0.24,0.592-0.268,1.085-0.087,1.508c0.292,0.681,1.029,0.972,1.81,1.281c1.307,0.516,2.658,1.05,2.417,3.412
			c-0.027,0.259,0.162,0.491,0.421,0.518C1586.608,1248.76,1586.632,1248.76,1586.655,1248.759z"/>
		<path fill="#AF5945" d="M1649.888,1255.176c0.012,0,0.024-0.002,0.037-0.003c0.258-0.033,0.441-0.269,0.408-0.528
			c-0.301-2.356,1.037-2.923,2.331-3.472c0.773-0.328,1.503-0.637,1.777-1.325c0.171-0.427,0.13-0.92-0.125-1.505
			c-1.426-3.283-5.435-2.984-5.603-2.972c-0.259,0.022-0.452,0.25-0.431,0.509c0.021,0.259,0.257,0.449,0.509,0.432
			c0.142-0.011,3.505-0.25,4.659,2.407c0.147,0.338,0.185,0.6,0.114,0.779c-0.129,0.323-0.683,0.558-1.269,0.806
			c-1.31,0.556-3.29,1.396-2.898,4.461C1649.428,1255.011,1649.644,1255.188,1649.888,1255.176z"/>
		<path fill="#F1F3F2" d="M1603.566,1293.431c0,0-32.137,7.644-43.045,46.295c-12.239,43.369-16.05,113.15-6.249,160.182
			c1.52,7.294,32.077,11.083,55.954,11.116c30.863,0.044,81.543-7.914,92.651-16.852c14.095-11.341-15.089-71.402-19.423-103.519
			c-5.916-43.836-3.771-81.759-51.032-97.18C1632.421,1293.473,1609.705,1309.359,1603.566,1293.431z"/>
		<path fill="#AF5945" d="M1615.281,1259.997c1.695-0.085,3.55-0.425,5.482-1.186c0.242-0.096,0.362-0.37,0.266-0.612
			c-0.095-0.243-0.369-0.362-0.612-0.266c-7.042,2.775-13.172-0.441-13.234-0.474c-0.229-0.123-0.516-0.037-0.639,0.193
			s-0.037,0.516,0.193,0.639C1606.933,1258.396,1610.448,1260.238,1615.281,1259.997z"/>
		<path fill="#AF5945" d="M1613.603,1254.532c0.182-0.009,0.35-0.124,0.418-0.305c0.092-0.244-0.031-0.516-0.275-0.608
			c-1.071-0.405-3.213-1.541-3-2.469c0.296-1.293,3.065-6.906,4.107-8.96c0.118-0.233,0.025-0.517-0.207-0.635
			c-0.232-0.118-0.517-0.025-0.635,0.207c-0.155,0.306-3.803,7.507-4.185,9.177c-0.452,1.977,3.172,3.406,3.587,3.563
			C1613.476,1254.526,1613.541,1254.535,1613.603,1254.532z"/>
		<path fill="#AF5945" d="M1601.447,1234.281c0.109-0.005,0.218-0.034,0.321-0.086c4.292-2.2,9.593-0.483,9.645-0.465
			c0.415,0.138,0.863-0.086,1.002-0.501c0.138-0.415-0.086-0.863-0.5-1.001c-0.242-0.08-5.974-1.95-10.87,0.558
			c-0.389,0.2-0.543,0.677-0.344,1.066C1600.849,1234.137,1601.146,1234.296,1601.447,1234.281z"/>
		<path fill="#AF5945" d="M1630.408,1237.141c0.23-0.011,0.453-0.123,0.6-0.323c0.259-0.353,0.183-0.847-0.169-1.106
			c-0.201-0.147-4.955-3.6-10.981-2.905c-0.435,0.05-0.746,0.443-0.696,0.877c0.05,0.435,0.452,0.745,0.877,0.696
			c5.375-0.612,9.818,2.576,9.862,2.608C1630.053,1237.1,1630.233,1237.149,1630.408,1237.141z"/>
		<path fill="#818496" d="M1730.839,1485.39c0,0,15.761,6.229,34.885-4.235C1765.724,1481.155,1748.037,1472,1730.839,1485.39z"/>
		<path fill="#F69D85" d="M1745.321,1487.582c0,0-4.758,11.997-1.471,22.135c3.286,10.138,6.875,13.38,11.116,14.96
			c4.241,1.58,8.869-17.159,7.119-24.031C1760.335,1493.774,1755.537,1486.602,1745.321,1487.582z"/>
		<path fill="#F69D85" d="M1742.624,1491.617c-3.187,7.11-4.971,14.867-5.134,22.659c0.036,0.997,0.011,2.593,0.129,3.579
			c-0.065,1.986,0.674,4.565,3.153,4.31c2.272-0.154,2.688-2.488,2.653-4.327c0.665-7.613,3.492-15.045,7.565-21.478
			C1755.767,1490.357,1745.45,1484.467,1742.624,1491.617z"/>
		<path fill="#F69D85" d="M1743.8,1509.86c1.695,7.922,1.902,16.243,0.416,24.22c-0.598,2.976,3.943,4.176,4.904,1.321
			c1.199-3.157,2.143-6.472,2.815-9.786c1.114-5.848,1.734-11.844,1.325-17.805C1752.482,1500.639,1741.537,1503.001,1743.8,1509.86
			z"/>
		<path fill="#F69D85" d="M1747.339,1513.029c1.766,5.121,2.634,10.587,2.797,16.005c0.821,3.148-2.482,9.53,1.817,10.501
			c4.409,0.503,4.687-11.897,5.234-15.123c0.301-4.92,0.231-9.928-0.747-14.785
			C1754.735,1502.377,1743.867,1506.432,1747.339,1513.029z"/>
		<path fill="#F69D85" d="M1751.281,1512.929c3.715,6.989,5.419,15.161,4.517,23.051c-0.355,3.008,4.26,3.839,4.988,0.922
			c0.99-3.35,1.572-6.851,1.719-10.351c0.177-6.472-0.631-13.113-3.084-19.15C1756.14,1499.967,1745.578,1507.137,1751.281,1512.929
			z"/>
		<path fill="#F69D85" d="M1753.98,1502.597c4.663,6.747,7.76,14.761,8.46,22.957c1.051,3.206-2.318,10.458,1.831,11.267
			c5.687,0.34,4.459-17.063,3.871-20.963c-1.067-6.675-3.123-13.248-6.476-19.145
			C1757.902,1490.608,1749.062,1497.361,1753.98,1502.597z"/>
		<path fill="#AF5945" d="M1750.858,1524.786c-0.066-1.919-0.26-3.956-0.69-5.804c-0.059-0.254-0.313-0.412-0.567-0.353
			c-0.253,0.059-0.413,0.31-0.353,0.567c1.28,5.502,0.377,13.03,0.368,13.106c-0.035,0.258,0.152,0.494,0.411,0.526
			c0.259,0.032,0.494-0.151,0.526-0.411C1750.579,1532.204,1750.993,1528.749,1750.858,1524.786z"/>
		<path fill="#AF5945" d="M1756.54,1526.489c-0.063-1.835-0.211-3.797-0.52-5.463c-0.048-0.256-0.294-0.426-0.55-0.378
			c-0.256,0.048-0.422,0.295-0.378,0.55c0.827,4.457,0.459,11.363,0.455,11.433c-0.02,0.264,0.185,0.483,0.445,0.497
			c0.26,0.014,0.483-0.185,0.497-0.445C1756.499,1532.5,1756.65,1529.687,1756.54,1526.489z"/>
		<path fill="#AF5945" d="M1762.824,1526.973c0-0.005,0-0.009,0-0.014c-0.013-0.211-0.335-5.231-1.438-8.848
			c-0.076-0.249-0.34-0.39-0.589-0.314c-0.249,0.076-0.39,0.341-0.314,0.589c1.07,3.51,1.395,8.58,1.399,8.632
			c0.016,0.26,0.24,0.458,0.501,0.442C1762.638,1527.444,1762.833,1527.227,1762.824,1526.973z"/>
		<path fill="#F69D85" d="M1761.976,1494.673l-8.553-93.152c-0.247-2.721-1.307-5.393-3.213-7.632l-0.796-0.934l-73.493-86.303
			c-0.126-0.146-0.306-0.352-0.438-0.496c-7.005-7.663-18.896-8.196-26.559-1.191c-7.663,7.005-8.197,18.896-1.191,26.56
			l73.66,80.577l18.609,85.947c1.169,5.428,6.234,9.253,11.902,8.733C1758.03,1506.219,1762.538,1500.798,1761.976,1494.673z"/>
		<path fill="#F1F3F2" d="M1632.421,1293.473c0,0,34.306-2.935,57.943,17.655c24.322,21.187,64.227,63.587,70.48,85.067
			c6.253,21.48,4.88,84.96,4.88,84.96s-18.08-4.489-34.885,4.235l-16.772-68.749c0,0-57.65-54.799-67.093-75.527
			S1632.421,1293.473,1632.421,1293.473z"/>
		<path fill="#818496" d="M1682.789,1385.804c0.12-0.006,0.239-0.053,0.332-0.143c0.204-0.197,0.211-0.522,0.014-0.727
			c-0.241-0.25-24.201-25.204-34.552-41.781c-0.151-0.241-0.468-0.314-0.708-0.164c-0.241,0.15-0.313,0.468-0.164,0.708
			c10.409,16.669,34.442,41.699,34.683,41.95C1682.501,1385.758,1682.646,1385.811,1682.789,1385.804z"/>
		<path fill="#818496" d="M1550.788,1395.691c0.253-0.012,0.465-0.21,0.487-0.47c0.022-0.261,2.3-26.463,9.743-55.367
			c0.071-0.275-0.094-0.555-0.37-0.626c-0.273-0.069-0.555,0.095-0.626,0.37c-7.466,28.991-9.75,55.274-9.772,55.536
			c-0.024,0.283,0.186,0.531,0.468,0.555C1550.742,1395.692,1550.765,1395.692,1550.788,1395.691z"/>
		<path fill="#818496" d="M1513.37,1354.04c0.17-0.008,0.332-0.1,0.423-0.259c2.368-4.156,7.033-9.172,7.08-9.222
			c0.194-0.207,0.182-0.533-0.025-0.726c-0.208-0.193-0.533-0.183-0.726,0.025c-0.194,0.208-4.794,5.153-7.222,9.415
			c-0.14,0.246-0.054,0.56,0.192,0.701C1513.18,1354.023,1513.276,1354.044,1513.37,1354.04z"/>
		<path fill="#818496" d="M1729.332,1479.621c0.084-0.004,0.169-0.029,0.246-0.077c18.352-11.396,35.89-5.139,36.064-5.075
			c0.269,0.099,0.562-0.039,0.66-0.304c0.098-0.266-0.038-0.562-0.304-0.66c-0.181-0.066-18.173-6.502-36.963,5.166
			c-0.241,0.15-0.315,0.467-0.166,0.708C1728.973,1479.543,1729.151,1479.63,1729.332,1479.621z"/>
		<path fill="#818496" d="M1448.651,1331.694c0.05-0.002,0.101-0.012,0.151-0.029c25.851-9.042,32.331-25.816,32.394-25.984
			c0.099-0.267-0.041-0.561-0.313-0.658c-0.271-0.095-0.572,0.041-0.672,0.308c-0.061,0.164-6.405,16.498-31.759,25.366
			c-0.273,0.096-0.415,0.39-0.319,0.657C1448.212,1331.572,1448.426,1331.705,1448.651,1331.694z"/>
		<path fill="#64656E" d="M1645.951,1581.264c0.047-0.002,0.094-0.011,0.142-0.027c0.268-0.092,0.412-0.384,0.32-0.652
			l-16.073-47.061c-0.092-0.268-0.38-0.413-0.653-0.32c-0.268,0.092-0.412,0.384-0.32,0.652l16.073,47.061
			C1645.516,1581.138,1645.728,1581.275,1645.951,1581.264z"/>
		<path fill="#64656E" d="M1735.507,1761.478c18.876-0.887,34.695-6.167,34.933-6.247c0.268-0.091,0.412-0.383,0.321-0.652
			c-0.091-0.268-0.382-0.41-0.652-0.321c-0.353,0.12-35.663,11.899-63.574,3.001c-0.27-0.086-0.559,0.063-0.645,0.334
			c-0.087,0.27,0.063,0.559,0.334,0.646C1715.689,1761.256,1725.987,1761.926,1735.507,1761.478z"/>
		<path fill="#64656E" d="M1613.702,1761.425c18.53-0.871,33.436-5.47,33.659-5.54c0.271-0.085,0.421-0.374,0.336-0.645
			c-0.085-0.27-0.37-0.422-0.645-0.336c-0.332,0.105-33.619,10.371-62.46,2.942c-0.273-0.069-0.555,0.095-0.626,0.37
			c-0.071,0.275,0.094,0.555,0.37,0.626C1594.099,1761.355,1604.361,1761.864,1613.702,1761.425z"/>
		<path fill="#64656E" d="M1754.757,1759.164c0.035-0.002,0.069-0.006,0.104-0.016c0.275-0.071,0.44-0.35,0.37-0.626l-66.23-258.204
			c-0.071-0.276-0.349-0.443-0.626-0.37c-0.275,0.071-0.44,0.351-0.37,0.625l66.23,258.204
			C1754.298,1759.019,1754.519,1759.175,1754.757,1759.164z"/>
		<path fill="#818496" d="M1622.004,1495.956c11.782-0.554,22.821-1.813,32.371-3.265c30.01-4.562,52.17-11.955,52.39-12.029
			c0.269-0.09,0.414-0.382,0.324-0.651c-0.091-0.268-0.382-0.414-0.651-0.323c-0.22,0.074-22.311,7.442-52.237,11.99
			c-27.595,4.194-67.687,6.777-101.973-4.725c-0.267-0.089-0.56,0.055-0.651,0.324c-0.09,0.269,0.054,0.56,0.324,0.651
			C1574.505,1495.511,1599.595,1497.01,1622.004,1495.956z"/>
		<path fill="#818496" d="M1622.241,1481.665c11.782-0.554,22.669-1.751,32.011-3.119c29.36-4.298,50.212-11.16,50.42-11.229
			c0.269-0.089,0.415-0.38,0.325-0.65c-0.089-0.269-0.376-0.417-0.65-0.326c-0.206,0.069-20.989,6.906-50.265,11.19
			c-27.003,3.95-66.96,6.476-103.974-3.932c-0.272-0.078-0.557,0.083-0.634,0.355c-0.077,0.273,0.083,0.557,0.356,0.634
			C1574.206,1481.444,1599.84,1482.718,1622.241,1481.665z"/>
		<path fill="#818496" d="M1727.353,1471.51c0.09-0.004,0.181-0.033,0.262-0.087c16.807-11.303,37.875-5.054,38.087-4.989
			c0.274,0.083,0.559-0.07,0.642-0.341c0.083-0.271-0.07-0.558-0.341-0.641c-0.215-0.066-21.755-6.453-38.961,5.12
			c-0.236,0.158-0.298,0.478-0.14,0.713C1727.006,1471.438,1727.179,1471.518,1727.353,1471.51z"/>
		<path fill="#818496" d="M1452.666,1339.324c0.025-0.001,0.05-0.004,0.076-0.009c24.755-4.866,34.684-27.514,34.781-27.742
			c0.112-0.261-0.01-0.563-0.271-0.674c-0.26-0.112-0.563,0.01-0.674,0.27c-0.095,0.223-9.825,22.378-34.035,27.138
			c-0.278,0.055-0.46,0.325-0.405,0.603C1452.188,1339.163,1452.416,1339.336,1452.666,1339.324z"/>
		<path fill="#30313C" d="M1632.421,1288.009l10.388,5.422l-26.067,18.404l-6.954-8.237l-9.173,5.932l-3.533-16.503l6.47-3.153
			c0,0,2.276,6.744,7.656,7.359S1626.431,1293.217,1632.421,1288.009z"/>
		<g>
			<path fill="#E98900" d="M1364.052,1336.983l-0.079,0.09c-1.926,0.08-3.848,0.103-5.822,0.063
				c-1.975-0.04-3.945-0.137-5.911-0.293c-1.387-0.11-2.833-0.224-4.211-0.449c-0.752-0.059-1.499-0.177-2.303-0.298
				c-2.419-0.308-4.829-0.731-7.229-1.269c-16.703-3.589-31.867-11.186-44.482-21.607c-0.217-0.192-0.382-0.321-0.599-0.513
				c-0.928-0.771-1.851-1.601-2.721-2.367c-1.683-1.529-3.36-3.116-4.918-4.752c-0.643-0.691-1.292-1.324-1.931-2.072
				c-0.696-0.753-1.393-1.506-2.032-2.255c-0.697-0.753-1.389-1.564-2.019-2.428c-0.959-1.123-1.912-2.303-2.746-3.533
				c-1.162-1.488-2.204-3.025-3.246-4.561c-1.871-2.824-3.622-5.696-5.19-8.671c-6.136-11.422-10.202-24.017-11.655-37.279
				c-0.184-1.353-0.305-2.758-0.432-4.106c-0.398-5.267-0.387-10.56,0.038-15.936c0.105-1.33,0.215-2.717,0.435-4.038
				c0.073-0.925,0.204-1.845,0.33-2.708c0.154-1.209,0.361-2.356,0.568-3.504c0.198-1.031,0.396-2.063,0.594-3.094
				c0.067-0.111,0.072-0.169,0.081-0.284c8.602-40.39,40.381-71.503,79.855-80.018c6.337-1.419,12.912-2.179,19.558-2.352
				c1.806-0.032,3.549-0.01,5.351,0.016c1.739,0.079,3.478,0.158,5.27,0.3l0.058,0.005c14.511,1.147,28.148,5.25,40.269,11.618
				c1.395,0.75,2.79,1.5,4.181,2.308c2.723,1.611,5.432,3.396,7.969,5.167c0.053,0.062,0.106,0.125,0.217,0.192
				c1.377,0.981,2.691,2.016,4.005,3.051c1.315,1.035,2.624,2.127,3.876,3.215c2.118,1.912,4.173,3.878,6.166,5.897
				c1.074,1.132,2.148,2.264,3.159,3.449c9.132,10.32,16.201,22.455,20.683,35.666c0.619,1.736,1.176,3.525,1.675,5.31
				c0.945,3.507,1.769,7.063,2.357,10.657c0.154,1.001,0.307,2.002,0.403,2.999c0.233,1.473,0.403,2.998,0.52,4.462
				c0.637,5.926,0.682,11.98,0.198,18.108c-1.921,24.31-12.077,46.001-27.51,62.576
				C1418.41,1323.524,1392.475,1336.019,1364.052,1336.983z"/>
			<path fill="#E98900" d="M1338.487,1131.045c6.337-1.419,12.854-2.184,19.495-2.299c-6.646,0.173-13.221,0.933-19.558,2.352
				L1338.487,1131.045z"/>
			<path fill="#E98900" d="M1368.665,1129.009l-0.005,0.058l-0.058-0.005c-1.792-0.142-3.531-0.221-5.27-0.3
				C1365.076,1128.784,1366.873,1128.868,1368.665,1129.009z"/>
			<g>
				<circle fill="#FFC75C" cx="1354.036" cy="1232.42" r="92.631"/>
				<path fill="#FCA615" d="M1345.823,1336.323c-57.293-4.528-100.22-54.823-95.692-112.115
					c4.528-57.293,54.823-100.22,112.115-95.692c57.293,4.528,100.22,54.823,95.692,112.115
					C1453.411,1297.924,1403.116,1340.851,1345.823,1336.323z M1360.419,1151.641c-44.539-3.52-83.643,29.856-87.163,74.395
					c-3.52,44.539,29.856,83.643,74.395,87.163c44.539,3.52,83.643-29.856,87.163-74.395
					C1438.334,1194.265,1404.958,1155.161,1360.419,1151.641z"/>
			</g>
			<g>
				<g>
					<g>
						<path fill="#FCA615" d="M1382.845,1255.255c-1.097,13.879-10.586,24.488-24.414,28.033l-1.289,16.313l-24.339-1.924
							l1.171-14.811c-6.849-1.688-13.229-4.693-17.577-8.372l-4.494-3.795l10.564-23.552l7.848,6.196
							c4.172,3.248,9.937,5.475,15.426,5.909c4.091,0.323,9.03-0.85,9.374-5.2c0.139-1.761,0.397-5.023-10.234-10.293
							c-13.345-6.526-26.852-15.619-25.432-33.588c1.048-13.257,10.137-23.43,23.383-26.864l1.256-15.898l24.184,1.911
							l-1.134,14.345c5.156,1.345,9.786,3.431,13.935,6.312l5.383,3.76l-10.897,23.161l-7.567-5.132
							c-2.029-1.359-6.23-4.244-13.48-4.817c-2.589-0.205-7.088,0.013-7.379,3.69c-0.135,1.709-0.282,3.573,11.841,9.742
							C1369.946,1225.941,1384.4,1235.577,1382.845,1255.255z"/>
					</g>
				</g>
			</g>
			<path fill="#FCA615" d="M1293.358,1268.754c-9.342-17.731-10.183-38.302-2.44-56.763c0.81-1.932-2.119-3.368-2.932-1.429
				c-8.243,19.65-7.237,41.21,2.687,60.046C1291.649,1272.459,1294.327,1270.594,1293.358,1268.754z"/>
			<path fill="#FCA615" d="M1323.104,1166.719c-11.786,7.114-21.667,16.583-29.254,28.074c-1.143,1.73,1.318,3.876,2.473,2.126
				c7.443-11.272,17.066-20.533,28.634-27.516C1326.754,1168.318,1324.898,1165.636,1323.104,1166.719z"/>
			<path fill="#FCA615" d="M1416.319,1190.753c-1.045-1.819-3.726,0.04-2.684,1.853c11.935,20.775,13.564,45.712,4.466,67.872
				c-0.795,1.937,2.134,3.374,2.932,1.429C1430.609,1238.585,1428.876,1212.611,1416.319,1190.753z"/>
			<path fill="#FCA615" d="M1411.575,1270.829c-6.026,10.829-14.551,19.64-25.121,26.099c-1.791,1.095,0.064,3.778,1.853,2.684
				c11.041-6.747,19.911-16.053,26.2-27.354C1415.53,1270.419,1412.592,1269.001,1411.575,1270.829z"/>
			<path fill="#FCA615" d="M1412.212,1246.512c-0.83,8.068-3.447,15.574-7.818,22.407c-1.132,1.769,1.788,3.228,2.91,1.473
				c4.505-7.043,7.241-14.876,8.097-23.193C1415.614,1245.129,1412.426,1244.426,1412.212,1246.512z"/>
			<path fill="#E98900" d="M1345.344,1316.443c-0.293,6.596-0.586,13.192-0.879,19.788c-0.093,2.092,3.16,1.828,3.252-0.245
				c0.293-6.596,0.586-13.192,0.879-19.788C1348.689,1314.106,1345.436,1314.369,1345.344,1316.443z"/>
			<path fill="#E98900" d="M1371.622,1314.411c-0.276-2.072-3.53-1.84-3.252,0.245c0.879,6.596,1.758,13.192,2.638,19.789
				c0.276,2.072,3.53,1.84,3.252-0.246C1373.38,1327.604,1372.501,1321.008,1371.622,1314.411z"/>
			<path fill="#E98900" d="M1401.975,1326.819c-2.492-6.303-4.985-12.605-7.477-18.908c-0.769-1.946-3.846-0.858-3.071,1.101
				c2.492,6.303,4.984,12.606,7.477,18.908C1399.673,1329.866,1402.75,1328.779,1401.975,1326.819z"/>
			<path fill="#E98900" d="M1421.702,1314.081c-3.691-5.994-7.382-11.987-11.073-17.98c-1.101-1.788-3.784,0.067-2.684,1.853
				c3.691,5.993,7.382,11.987,11.073,17.98C1420.118,1317.722,1422.802,1315.867,1421.702,1314.081z"/>
			<path fill="#E98900" d="M1437.636,1297.571l-16.124-14.237c-1.576-1.392-3.701,1.082-2.126,2.473
				c5.375,4.746,10.749,9.492,16.124,14.238C1437.087,1301.436,1439.211,1298.962,1437.636,1297.571z"/>
			<path fill="#E98900" d="M1449.612,1273.24c-5.718-2.048-11.437-4.095-17.155-6.143c-1.959-0.702-3.404,2.225-1.429,2.932
				c5.718,2.047,11.436,4.095,17.155,6.143C1450.141,1276.874,1451.586,1273.947,1449.612,1273.24z"/>
			<path fill="#E98900" d="M1458.511,1244.908c-7.331,0.236-14.662,0.473-21.992,0.709c-2.099,0.068-1.85,3.32,0.245,3.252
				c7.331-0.236,14.662-0.473,21.992-0.709C1460.856,1248.092,1460.606,1244.84,1458.511,1244.908z"/>
			<path fill="#E98900" d="M1458.972,1218.536c-6.593,1.624-13.187,3.247-19.78,4.871c-2.033,0.501-0.923,3.569,1.101,3.071
				c6.593-1.624,13.187-3.248,19.78-4.871C1462.107,1221.106,1460.997,1218.038,1458.972,1218.536z"/>
			<path fill="#FCA615" d="M1299.751,1222.182c0.905-8.06,3.592-15.541,8.026-22.333c1.148-1.758-1.757-3.244-2.896-1.5
				c-4.57,7-7.38,14.808-8.313,23.117C1296.337,1223.533,1299.517,1224.266,1299.751,1222.182z"/>
			<path fill="#E98900" d="M1369.653,1150.599c0.759-6.559,1.517-13.118,2.276-19.677c0.241-2.081-3.023-2.047-3.261,0.015
				c-0.759,6.559-1.517,13.118-2.276,19.677C1366.151,1152.695,1369.415,1152.661,1369.653,1150.599z"/>
			<path fill="#E98900" d="M1343.298,1150.768c0.129,2.086,3.391,2.085,3.261-0.015c-0.411-6.642-0.821-13.284-1.232-19.926
				c-0.129-2.086-3.391-2.085-3.261,0.015C1342.476,1137.484,1342.887,1144.126,1343.298,1150.768z"/>
			<path fill="#E98900" d="M1313.898,1136.246c2.041,6.463,4.081,12.926,6.121,19.39c0.63,1.995,3.775,1.128,3.141-0.881
				c-2.04-6.463-4.081-12.927-6.121-19.39C1316.409,1133.369,1313.263,1134.236,1313.898,1136.246z"/>
			<path fill="#E98900" d="M1293.32,1147.557c3.258,6.24,6.516,12.479,9.774,18.718c0.972,1.861,3.78,0.2,2.808-1.659
				c-3.258-6.239-6.516-12.479-9.774-18.718C1295.157,1144.037,1292.349,1145.698,1293.32,1147.557z"/>
			<path fill="#E98900" d="M1276.258,1162.9l15.077,15.342c1.474,1.5,3.768-0.818,2.295-2.317
				c-5.026-5.114-10.051-10.228-15.077-15.342C1277.08,1159.083,1274.785,1161.401,1276.258,1162.9z"/>
			<path fill="#E98900" d="M1262.592,1186.323c5.559,2.447,11.118,4.894,16.678,7.34c1.904,0.838,3.553-1.979,1.633-2.824
				c-5.559-2.447-11.118-4.893-16.678-7.34C1262.321,1182.661,1260.673,1185.478,1262.592,1186.323z"/>
			<path fill="#E98900" d="M1251.712,1213.955c7.329,0.282,14.658,0.565,21.988,0.847c2.099,0.081,2.08-3.181-0.015-3.261
				c-7.329-0.283-14.658-0.565-21.988-0.848C1249.598,1210.613,1249.618,1213.874,1251.712,1213.955z"/>
			<path fill="#E98900" d="M1249.388,1240.228c6.692-1.153,13.383-2.307,20.075-3.46c2.064-0.356,1.173-3.495-0.881-3.141
				c-6.692,1.154-13.383,2.307-20.075,3.46C1246.443,1237.443,1247.333,1240.582,1249.388,1240.228z"/>
			<path fill="#E98900" d="M1437.627,1211.796c6.124-2.467,12.249-4.935,18.373-7.402c1.943-0.783,0.354-3.634-1.571-2.858
				c-6.124,2.467-12.249,4.935-18.373,7.402C1434.112,1209.721,1435.701,1212.572,1437.627,1211.796z"/>
			<path fill="#E98900" d="M1448.789,1181.227c-6.1,2.955-12.2,5.909-18.299,8.863c-1.883,0.912-0.57,3.899,1.327,2.98
				c6.1-2.954,12.2-5.909,18.299-8.863C1451.999,1183.295,1450.686,1180.308,1448.789,1181.227z"/>
			<path fill="#E98900" d="M1434.619,1162.503c-5.702,4.127-11.404,8.254-17.106,12.381c-1.701,1.231,0.349,3.769,2.048,2.539
				c5.702-4.127,11.404-8.254,17.106-12.38C1438.367,1163.811,1436.318,1161.273,1434.619,1162.503z"/>
			<path fill="#E98900" d="M1416.968,1147.841l-12.998,17.139c-1.271,1.675,1.355,3.61,2.625,1.936
				c4.333-5.713,8.665-11.426,12.998-17.139C1420.864,1148.102,1418.238,1146.167,1416.968,1147.841z"/>
			<path fill="#E98900" d="M1391.814,1137.709c-1.616,5.855-3.233,11.71-4.849,17.564c-0.554,2.006,2.472,3.229,3.03,1.207
				c1.616-5.855,3.233-11.709,4.849-17.564C1395.398,1136.911,1392.372,1135.688,1391.814,1137.709z"/>
			<path fill="#E98900" d="M1271.908,1250.251c-5.081,1.955-10.163,3.909-15.244,5.863c-1.954,0.751-0.865,3.827,1.101,3.071
				c5.081-1.954,10.163-3.909,15.245-5.863C1274.963,1252.57,1273.874,1249.495,1271.908,1250.251z"/>
			<path fill="#E98900" d="M1278.084,1270.531c-5.565,2.26-11.13,4.52-16.695,6.78c-1.937,0.787-0.851,3.864,1.101,3.071
				c5.565-2.26,11.13-4.52,16.695-6.78C1281.123,1272.814,1280.037,1269.738,1278.084,1270.531z"/>
			<path fill="#E98900" d="M1286.263,1283.12c-4.917,2.977-9.835,5.955-14.752,8.932c-1.796,1.087,0.06,3.77,1.853,2.684
				c4.918-2.977,9.835-5.955,14.753-8.932C1289.912,1284.717,1288.056,1282.035,1286.263,1283.12z"/>
			<path fill="#E98900" d="M1297.34,1295.33c-4.495,3.909-8.99,7.818-13.485,11.726c-1.566,1.362,0.267,4.064,1.853,2.684
				c4.495-3.909,8.99-7.818,13.485-11.726C1300.759,1296.653,1298.926,1293.951,1297.34,1295.33z"/>
			<path fill="#E98900" d="M1310.249,1306.491c-2.855,4.678-5.71,9.355-8.566,14.033c-1.095,1.794,1.847,3.207,2.932,1.429
				c2.855-4.677,5.71-9.355,8.566-14.032C1314.276,1306.126,1311.334,1304.714,1310.249,1306.491z"/>
			<path fill="#E98900" d="M1329.98,1313.863c-1.959,5.471-3.918,10.941-5.877,16.412c-0.702,1.959,2.225,3.404,2.932,1.429
				c1.959-5.471,3.918-10.941,5.876-16.412C1333.614,1313.333,1330.687,1311.888,1329.98,1313.863z"/>
		</g>
		<path fill="#F69D85" d="M1466.228,1298.147c-4.669-7.853-11.232-14.755-19.116-19.418c-4.491-3.574-8.279,1.934-3.237,4.784
			c0.99,0.773,3.74,4.479,4.622,5.378c0,0-6.371,7.191-12.253,12.077l4.325,4.947c3.813,3.704,3.633,3.399,6.846,3.676
			C1454.643,1309.775,1469.375,1303.601,1466.228,1298.147z"/>
	</g>
	<g>
		<path fill="#E98900" d="M1244.652,344.992l-0.079,0.09c-1.926,0.08-3.848,0.103-5.822,0.064c-1.975-0.04-3.945-0.137-5.911-0.293
			c-1.387-0.11-2.833-0.224-4.211-0.449c-0.752-0.059-1.499-0.177-2.303-0.299c-2.419-0.308-4.829-0.731-7.23-1.269
			c-16.703-3.589-31.867-11.186-44.482-21.607c-0.217-0.192-0.382-0.321-0.599-0.513c-0.928-0.771-1.851-1.601-2.722-2.367
			c-1.682-1.529-3.36-3.116-4.918-4.752c-0.643-0.691-1.291-1.324-1.931-2.072c-0.696-0.753-1.393-1.506-2.032-2.255
			c-0.697-0.753-1.389-1.564-2.019-2.428c-0.959-1.123-1.912-2.304-2.746-3.533c-1.162-1.488-2.204-3.025-3.246-4.561
			c-1.871-2.824-3.622-5.696-5.19-8.671c-6.136-11.422-10.202-24.017-11.655-37.279c-0.184-1.353-0.305-2.758-0.432-4.106
			c-0.398-5.267-0.387-10.56,0.038-15.936c0.105-1.33,0.215-2.717,0.435-4.038c0.073-0.925,0.204-1.845,0.331-2.708
			c0.154-1.209,0.361-2.356,0.568-3.504c0.198-1.031,0.396-2.063,0.594-3.094c0.067-0.111,0.072-0.169,0.081-0.284
			c8.602-40.39,40.381-71.503,79.855-80.018c6.337-1.419,12.912-2.179,19.558-2.352c1.806-0.032,3.549-0.01,5.351,0.016
			c1.739,0.079,3.478,0.158,5.27,0.3l0.058,0.005c14.511,1.147,28.148,5.25,40.268,11.618c1.395,0.75,2.79,1.5,4.181,2.308
			c2.723,1.611,5.432,3.396,7.969,5.167c0.053,0.062,0.106,0.125,0.217,0.192c1.377,0.981,2.691,2.016,4.005,3.051
			c1.315,1.035,2.625,2.127,3.876,3.215c2.118,1.913,4.173,3.878,6.166,5.897c1.074,1.132,2.148,2.264,3.159,3.449
			c9.132,10.32,16.201,22.456,20.683,35.666c0.619,1.736,1.176,3.525,1.674,5.31c0.945,3.507,1.769,7.062,2.357,10.657
			c0.154,1.001,0.307,2.002,0.403,2.999c0.233,1.473,0.403,2.998,0.52,4.462c0.637,5.926,0.682,11.98,0.198,18.108
			C1340.725,302.497,1296.893,343.22,1244.652,344.992z"/>
		<path fill="#E98900" d="M1219.088,139.055c6.337-1.419,12.854-2.184,19.495-2.299c-6.646,0.173-13.221,0.933-19.558,2.352
			L1219.088,139.055z"/>
		<path fill="#E98900" d="M1249.266,137.018l-0.005,0.058l-0.058-0.005c-1.792-0.142-3.531-0.221-5.27-0.3
			C1245.677,136.793,1247.474,136.877,1249.266,137.018z"/>
		<g>
			<circle fill="#FFC75C" cx="1234.637" cy="240.429" r="92.631"/>
			<path fill="#FCA615" d="M1226.424,344.332c-57.293-4.528-100.22-54.823-95.692-112.115
				c4.528-57.293,54.823-100.22,112.115-95.692c57.293,4.528,100.22,54.823,95.692,112.115
				C1334.011,305.933,1283.717,348.86,1226.424,344.332z M1241.02,159.65c-44.539-3.52-83.643,29.856-87.163,74.395
				c-3.52,44.539,29.856,83.643,74.395,87.163c44.539,3.52,83.643-29.856,87.163-74.395
				C1318.935,202.274,1285.559,163.17,1241.02,159.65z"/>
		</g>
		<g>
			<g>
				<g>
					<path fill="#FCA615" d="M1263.446,263.264c-1.097,13.879-10.586,24.488-24.414,28.033l-1.289,16.313l-24.339-1.924
						l1.171-14.811c-6.849-1.688-13.229-4.693-17.577-8.372l-4.494-3.795l10.563-23.552l7.848,6.196
						c4.172,3.248,9.937,5.475,15.426,5.909c4.091,0.323,9.03-0.85,9.374-5.2c0.139-1.761,0.397-5.023-10.234-10.293
						c-13.345-6.526-26.852-15.619-25.432-33.588c1.048-13.257,10.137-23.43,23.383-26.864l1.256-15.898l24.184,1.911l-1.134,14.345
						c5.156,1.345,9.786,3.431,13.935,6.312l5.383,3.76l-10.897,23.161l-7.567-5.132c-2.029-1.359-6.23-4.244-13.48-4.817
						c-2.589-0.205-7.088,0.013-7.379,3.69c-0.135,1.709-0.282,3.573,11.841,9.742
						C1250.547,233.95,1265.001,243.586,1263.446,263.264z"/>
				</g>
			</g>
		</g>
		<path fill="#FCA615" d="M1173.958,276.763c-9.341-17.731-10.183-38.302-2.439-56.763c0.81-1.932-2.119-3.368-2.932-1.429
			c-8.242,19.65-7.237,41.21,2.687,60.046C1172.25,280.468,1174.928,278.603,1173.958,276.763z"/>
		<path fill="#FCA615" d="M1203.704,174.728c-11.786,7.114-21.667,16.584-29.254,28.074c-1.143,1.73,1.318,3.876,2.473,2.126
			c7.443-11.272,17.066-20.533,28.635-27.516C1207.355,176.327,1205.499,173.645,1203.704,174.728z"/>
		<path fill="#FCA615" d="M1296.92,198.763c-1.045-1.819-3.726,0.04-2.684,1.853c11.935,20.775,13.564,45.712,4.466,67.872
			c-0.795,1.936,2.134,3.373,2.932,1.429C1311.21,246.594,1309.477,220.62,1296.92,198.763z"/>
		<path fill="#FCA615" d="M1292.175,278.838c-6.026,10.829-14.551,19.64-25.121,26.099c-1.791,1.095,0.064,3.778,1.854,2.684
			c11.041-6.747,19.911-16.053,26.2-27.354C1296.131,278.428,1293.193,277.01,1292.175,278.838z"/>
		<path fill="#FCA615" d="M1292.812,254.521c-0.83,8.068-3.447,15.574-7.818,22.407c-1.131,1.769,1.788,3.227,2.91,1.473
			c4.505-7.043,7.241-14.876,8.097-23.193C1296.214,253.138,1293.027,252.435,1292.812,254.521z"/>
		<path fill="#E98900" d="M1225.945,324.452c-0.293,6.596-0.586,13.192-0.88,19.788c-0.093,2.092,3.16,1.829,3.252-0.245
			c0.293-6.596,0.586-13.192,0.879-19.788C1229.29,322.115,1226.037,322.378,1225.945,324.452z"/>
		<path fill="#E98900" d="M1252.223,322.421c-0.276-2.072-3.53-1.84-3.252,0.245c0.879,6.596,1.759,13.192,2.638,19.789
			c0.276,2.072,3.53,1.84,3.252-0.246C1253.981,335.613,1253.102,329.017,1252.223,322.421z"/>
		<path fill="#E98900" d="M1282.576,334.828c-2.492-6.303-4.985-12.605-7.477-18.908c-0.769-1.946-3.846-0.858-3.071,1.101
			c2.492,6.303,4.984,12.606,7.477,18.908C1280.274,337.875,1283.351,336.788,1282.576,334.828z"/>
		<path fill="#E98900" d="M1302.302,322.09c-3.691-5.993-7.382-11.987-11.073-17.98c-1.101-1.788-3.784,0.067-2.684,1.853
			c3.691,5.993,7.382,11.987,11.073,17.98C1300.719,325.731,1303.402,323.876,1302.302,322.09z"/>
		<path fill="#E98900" d="M1318.237,305.58l-16.124-14.237c-1.576-1.392-3.701,1.083-2.126,2.473
			c5.375,4.746,10.749,9.492,16.124,14.238C1317.687,309.445,1319.812,306.971,1318.237,305.58z"/>
		<path fill="#E98900" d="M1330.213,281.249c-5.718-2.048-11.437-4.095-17.155-6.143c-1.959-0.702-3.404,2.225-1.429,2.932
			c5.718,2.048,11.436,4.095,17.155,6.143C1330.742,284.883,1332.187,281.956,1330.213,281.249z"/>
		<path fill="#E98900" d="M1339.112,252.917c-7.331,0.236-14.661,0.473-21.992,0.709c-2.099,0.068-1.85,3.32,0.245,3.252
			c7.331-0.236,14.662-0.473,21.992-0.709C1341.457,256.102,1341.207,252.849,1339.112,252.917z"/>
		<path fill="#E98900" d="M1339.573,226.546c-6.593,1.624-13.187,3.247-19.78,4.871c-2.033,0.501-0.923,3.569,1.101,3.071
			c6.593-1.624,13.187-3.247,19.78-4.871C1342.707,229.116,1341.597,226.047,1339.573,226.546z"/>
		<path fill="#FCA615" d="M1180.352,230.191c0.905-8.06,3.592-15.541,8.026-22.333c1.148-1.758-1.757-3.244-2.896-1.5
			c-4.57,7-7.38,14.808-8.313,23.117C1176.938,231.542,1180.118,232.275,1180.352,230.191z"/>
		<path fill="#E98900" d="M1250.254,158.608c0.759-6.559,1.517-13.118,2.276-19.677c0.241-2.081-3.023-2.047-3.261,0.015
			c-0.759,6.559-1.517,13.118-2.276,19.677C1246.752,160.704,1250.016,160.671,1250.254,158.608z"/>
		<path fill="#E98900" d="M1223.899,158.777c0.129,2.086,3.391,2.085,3.261-0.015c-0.411-6.642-0.822-13.284-1.232-19.926
			c-0.129-2.086-3.391-2.085-3.261,0.015C1223.077,145.494,1223.488,152.135,1223.899,158.777z"/>
		<path fill="#E98900" d="M1194.498,144.255c2.041,6.463,4.081,12.926,6.121,19.39c0.63,1.995,3.775,1.128,3.141-0.881
			c-2.04-6.463-4.081-12.927-6.121-19.39C1197.01,141.378,1193.864,142.246,1194.498,144.255z"/>
		<path fill="#E98900" d="M1173.921,155.566c3.258,6.239,6.516,12.479,9.775,18.718c0.972,1.861,3.78,0.2,2.808-1.659
			c-3.258-6.239-6.516-12.479-9.774-18.718C1175.758,152.046,1172.95,153.707,1173.921,155.566z"/>
		<path fill="#E98900" d="M1156.858,170.909l15.077,15.342c1.474,1.5,3.768-0.818,2.296-2.317
			c-5.026-5.114-10.051-10.228-15.077-15.342C1157.68,167.092,1155.386,169.41,1156.858,170.909z"/>
		<path fill="#E98900" d="M1143.193,194.332c5.559,2.447,11.119,4.894,16.678,7.34c1.905,0.838,3.553-1.979,1.633-2.824
			c-5.559-2.447-11.118-4.893-16.678-7.34C1142.922,190.67,1141.274,193.487,1143.193,194.332z"/>
		<path fill="#E98900" d="M1132.313,221.964c7.329,0.282,14.658,0.565,21.987,0.847c2.099,0.081,2.08-3.181-0.015-3.261
			c-7.329-0.283-14.658-0.565-21.987-0.848C1130.199,218.622,1130.218,221.883,1132.313,221.964z"/>
		<path fill="#E98900" d="M1129.989,248.237c6.692-1.153,13.383-2.307,20.075-3.46c2.064-0.356,1.173-3.495-0.882-3.141
			c-6.692,1.154-13.383,2.307-20.075,3.46C1127.044,245.452,1127.934,248.591,1129.989,248.237z"/>
		<path fill="#E98900" d="M1318.227,219.805c6.124-2.467,12.249-4.935,18.373-7.402c1.943-0.783,0.354-3.634-1.571-2.858
			c-6.124,2.467-12.249,4.935-18.373,7.402C1314.713,217.73,1316.302,220.581,1318.227,219.805z"/>
		<path fill="#E98900" d="M1329.39,189.236c-6.1,2.955-12.2,5.909-18.3,8.863c-1.883,0.912-0.57,3.899,1.327,2.98
			c6.1-2.954,12.2-5.909,18.299-8.863C1332.6,191.304,1331.286,188.317,1329.39,189.236z"/>
		<path fill="#E98900" d="M1315.219,170.512c-5.702,4.127-11.404,8.254-17.106,12.381c-1.701,1.231,0.349,3.769,2.048,2.539
			c5.702-4.127,11.404-8.254,17.106-12.381C1318.968,171.82,1316.919,169.282,1315.219,170.512z"/>
		<path fill="#E98900" d="M1297.569,155.85l-12.998,17.139c-1.271,1.675,1.355,3.61,2.625,1.936
			c4.333-5.713,8.665-11.426,12.998-17.139C1301.464,156.111,1298.839,154.176,1297.569,155.85z"/>
		<path fill="#E98900" d="M1272.415,145.718c-1.616,5.855-3.233,11.71-4.849,17.564c-0.554,2.006,2.472,3.229,3.03,1.207
			c1.616-5.855,3.233-11.709,4.849-17.564C1275.999,144.92,1272.973,143.697,1272.415,145.718z"/>
		<path fill="#E98900" d="M1152.508,258.26c-5.081,1.955-10.163,3.909-15.244,5.863c-1.954,0.751-0.865,3.827,1.101,3.071
			c5.081-1.954,10.163-3.909,15.244-5.863C1155.564,260.579,1154.475,257.504,1152.508,258.26z"/>
		<path fill="#E98900" d="M1158.685,278.54c-5.565,2.26-11.13,4.52-16.695,6.78c-1.937,0.787-0.851,3.864,1.101,3.071
			c5.565-2.26,11.13-4.52,16.695-6.78C1161.723,280.824,1160.637,277.747,1158.685,278.54z"/>
		<path fill="#E98900" d="M1166.864,291.129c-4.917,2.977-9.835,5.955-14.752,8.932c-1.796,1.087,0.06,3.77,1.853,2.684
			c4.918-2.977,9.835-5.955,14.753-8.932C1170.513,292.726,1168.657,290.044,1166.864,291.129z"/>
		<path fill="#E98900" d="M1177.941,303.339c-4.495,3.909-8.99,7.817-13.485,11.726c-1.566,1.362,0.267,4.064,1.853,2.684
			c4.495-3.909,8.99-7.817,13.485-11.726C1181.36,304.662,1179.527,301.96,1177.941,303.339z"/>
		<path fill="#E98900" d="M1190.85,314.5c-2.855,4.678-5.71,9.355-8.566,14.033c-1.095,1.794,1.847,3.207,2.932,1.429
			c2.855-4.678,5.71-9.355,8.566-14.033C1194.877,314.135,1191.934,312.723,1190.85,314.5z"/>
		<path fill="#E98900" d="M1210.581,321.872c-1.959,5.471-3.918,10.941-5.877,16.412c-0.701,1.959,2.225,3.404,2.932,1.429
			c1.959-5.471,3.918-10.941,5.876-16.412C1214.214,321.342,1211.288,319.897,1210.581,321.872z"/>
	</g>
	<g>
		<path fill="#E98900" d="M997.731,244.933l-0.06,0.068c-1.473,0.061-2.942,0.079-4.451,0.049c-1.51-0.031-3.016-0.105-4.519-0.224
			c-1.061-0.084-2.166-0.171-3.219-0.343c-0.575-0.045-1.146-0.135-1.761-0.228c-1.849-0.235-3.691-0.559-5.527-0.97
			c-12.769-2.744-24.362-8.552-34.006-16.519c-0.166-0.147-0.292-0.246-0.458-0.392c-0.709-0.59-1.415-1.224-2.081-1.81
			c-1.286-1.169-2.569-2.382-3.76-3.633c-0.492-0.528-0.987-1.012-1.476-1.584c-0.532-0.576-1.065-1.151-1.554-1.724
			c-0.533-0.576-1.062-1.196-1.543-1.856c-0.733-0.858-1.462-1.761-2.099-2.701c-0.889-1.138-1.685-2.312-2.482-3.487
			c-1.43-2.159-2.769-4.355-3.968-6.629c-4.691-8.732-7.799-18.361-8.91-28.5c-0.141-1.034-0.233-2.109-0.33-3.139
			c-0.304-4.027-0.296-8.073,0.029-12.183c0.08-1.017,0.164-2.077,0.333-3.087c0.056-0.707,0.156-1.411,0.253-2.07
			c0.118-0.924,0.276-1.801,0.434-2.678c0.151-0.789,0.303-1.577,0.454-2.366c0.051-0.085,0.055-0.129,0.062-0.217
			c6.576-30.878,30.871-54.664,61.049-61.173c4.844-1.085,9.871-1.666,14.952-1.798c1.381-0.024,2.713-0.008,4.091,0.012
			c1.329,0.061,2.659,0.121,4.029,0.229l0.044,0.003c11.094,0.877,21.519,4.013,30.785,8.882c1.067,0.573,2.133,1.147,3.196,1.765
			c2.082,1.232,4.153,2.596,6.092,3.95c0.041,0.048,0.081,0.095,0.166,0.147c1.052,0.75,2.057,1.541,3.062,2.332
			c1.005,0.791,2.006,1.626,2.963,2.458c1.619,1.462,3.19,2.965,4.714,4.508c0.821,0.865,1.642,1.731,2.415,2.637
			c6.981,7.89,12.385,17.167,15.812,27.267c0.473,1.327,0.899,2.695,1.28,4.059c0.722,2.681,1.352,5.399,1.802,8.147
			c0.118,0.765,0.235,1.531,0.308,2.293c0.178,1.126,0.308,2.292,0.398,3.411c0.487,4.53,0.522,9.158,0.151,13.843
			C1071.178,212.445,1037.668,243.578,997.731,244.933z"/>
		<path fill="#E98900" d="M978.187,87.495c4.844-1.085,9.827-1.669,14.904-1.757c-5.08,0.132-10.107,0.713-14.952,1.798
			L978.187,87.495z"/>
		<path fill="#E98900" d="M1001.258,85.939l-0.004,0.044l-0.044-0.003c-1.37-0.108-2.699-0.169-4.029-0.229
			C998.514,85.766,999.888,85.83,1001.258,85.939z"/>
		<g>
			<circle fill="#FFC75C" cx="990.074" cy="164.995" r="70.815"/>
			<path fill="#FCA615" d="M983.795,244.428c-43.8-3.462-76.617-41.912-73.156-85.711c3.462-43.8,41.912-76.617,85.711-73.156
				c43.8,3.462,76.617,41.912,73.156,85.711S1027.595,247.89,983.795,244.428z M994.954,103.24
				c-34.05-2.691-63.944,22.824-66.635,56.874c-2.691,34.05,22.824,63.944,56.874,66.635s63.944-22.824,66.635-56.874
				S1029.004,105.931,994.954,103.24z"/>
		</g>
		<g>
			<g>
				<g>
					<path fill="#FCA615" d="M1012.098,182.453c-0.839,10.61-8.093,18.721-18.664,21.431l-0.986,12.471l-18.607-1.471l0.895-11.323
						c-5.236-1.29-10.114-3.588-13.437-6.4l-3.436-2.901l8.076-18.005l6,4.737c3.19,2.483,7.597,4.186,11.793,4.517
						c3.127,0.247,6.903-0.65,7.166-3.975c0.106-1.346,0.304-3.84-7.823-7.869c-10.202-4.989-20.528-11.94-19.443-25.678
						c0.801-10.135,7.75-17.912,17.876-20.537l0.961-12.154l18.489,1.461l-0.867,10.966c3.942,1.029,7.481,2.623,10.653,4.826
						l4.115,2.875l-8.331,17.706l-5.785-3.923c-1.551-1.039-4.763-3.245-10.305-3.683c-1.979-0.156-5.419,0.01-5.641,2.821
						c-0.103,1.307-0.216,2.732,9.052,7.448C1002.237,160.042,1013.287,167.409,1012.098,182.453z"/>
				</g>
			</g>
		</g>
		<path fill="#FCA615" d="M943.686,192.772c-7.142-13.555-7.785-29.281-1.865-43.395c0.62-1.477-1.62-2.575-2.241-1.093
			c-6.301,15.022-5.532,31.504,2.054,45.905C942.38,195.605,944.427,194.179,943.686,192.772z"/>
		<path fill="#FCA615" d="M966.426,114.767c-9.01,5.439-16.564,12.678-22.365,21.463c-0.874,1.323,1.007,2.963,1.891,1.625
			c5.69-8.617,13.047-15.697,21.891-21.036C969.217,115.99,967.798,113.939,966.426,114.767z"/>
		<path fill="#FCA615" d="M1037.689,133.142c-0.799-1.391-2.848,0.031-2.052,1.417c9.125,15.883,10.37,34.946,3.414,51.888
			c-0.608,1.48,1.631,2.579,2.242,1.093C1048.613,169.708,1047.289,149.852,1037.689,133.142z"/>
		<path fill="#FCA615" d="M1034.062,194.359c-4.607,8.279-11.124,15.015-19.205,19.953c-1.37,0.837,0.049,2.888,1.417,2.052
			c8.441-5.158,15.222-12.272,20.03-20.912C1037.086,194.045,1034.839,192.961,1034.062,194.359z"/>
		<path fill="#FCA615" d="M1034.549,175.769c-0.634,6.168-2.635,11.906-5.977,17.13c-0.865,1.352,1.367,2.467,2.225,1.126
			c3.444-5.384,5.536-11.373,6.19-17.731C1037.149,174.711,1034.713,174.174,1034.549,175.769z"/>
		<path fill="#E98900" d="M983.429,229.23c-0.224,5.043-0.448,10.085-0.672,15.128c-0.071,1.6,2.416,1.398,2.486-0.188
			c0.224-5.043,0.448-10.085,0.672-15.128C985.986,227.443,983.5,227.645,983.429,229.23z"/>
		<path fill="#E98900" d="M1003.518,227.677c-0.211-1.584-2.699-1.407-2.486,0.188c0.672,5.043,1.344,10.085,2.017,15.128
			c0.211,1.584,2.699,1.406,2.486-0.188C1004.862,237.763,1004.19,232.72,1003.518,227.677z"/>
		<path fill="#E98900" d="M1026.723,237.163c-1.905-4.818-3.811-9.637-5.716-14.455c-0.588-1.487-2.94-0.656-2.348,0.842
			c1.905,4.818,3.811,9.637,5.716,14.455C1024.963,239.492,1027.315,238.661,1026.723,237.163z"/>
		<path fill="#E98900" d="M1041.804,227.425c-2.822-4.582-5.644-9.164-8.465-13.746c-0.842-1.367-2.893,0.051-2.052,1.417
			c2.822,4.582,5.644,9.164,8.465,13.746C1040.593,230.208,1042.645,228.79,1041.804,227.425z"/>
		<path fill="#E98900" d="M1053.986,214.803l-12.327-10.884c-1.205-1.064-2.829,0.828-1.625,1.891
			c4.109,3.628,8.218,7.256,12.327,10.885C1053.565,217.757,1055.19,215.866,1053.986,214.803z"/>
		<path fill="#E98900" d="M1063.141,196.202c-4.372-1.565-8.743-3.131-13.115-4.696c-1.498-0.536-2.602,1.701-1.093,2.242
			c4.371,1.565,8.743,3.131,13.115,4.696C1063.546,198.98,1064.65,196.742,1063.141,196.202z"/>
		<path fill="#E98900" d="M1069.944,174.542c-5.604,0.181-11.209,0.361-16.813,0.542c-1.605,0.052-1.414,2.538,0.188,2.486
			c5.604-0.181,11.209-0.361,16.813-0.542C1071.737,176.977,1071.546,174.491,1069.944,174.542z"/>
		<path fill="#E98900" d="M1070.297,154.381c-5.041,1.241-10.081,2.483-15.122,3.724c-1.554,0.383-0.706,2.729,0.842,2.348
			c5.041-1.241,10.081-2.483,15.122-3.724C1072.693,156.346,1071.844,154,1070.297,154.381z"/>
		<path fill="#FCA615" d="M948.574,157.168c0.692-6.162,2.746-11.881,6.136-17.073c0.878-1.344-1.344-2.48-2.214-1.147
			c-3.494,5.352-5.642,11.321-6.355,17.672C945.963,158.202,948.395,158.761,948.574,157.168z"/>
		<path fill="#E98900" d="M1002.013,102.444c0.58-5.014,1.16-10.029,1.74-15.043c0.184-1.591-2.311-1.565-2.493,0.011
			c-0.58,5.014-1.16,10.029-1.74,15.043C999.336,104.046,1001.831,104.021,1002.013,102.444z"/>
		<path fill="#E98900" d="M981.865,102.573c0.099,1.595,2.593,1.594,2.493-0.011c-0.314-5.078-0.628-10.155-0.942-15.233
			c-0.099-1.595-2.593-1.594-2.493,0.012C981.237,92.418,981.551,97.495,981.865,102.573z"/>
		<path fill="#E98900" d="M959.388,91.471c1.56,4.941,3.12,9.882,4.68,14.823c0.482,1.525,2.886,0.862,2.401-0.674
			c-1.56-4.941-3.12-9.882-4.68-14.823C961.308,89.272,958.904,89.935,959.388,91.471z"/>
		<path fill="#E98900" d="M943.657,100.118c2.491,4.77,4.982,9.54,7.472,14.31c0.743,1.423,2.89,0.153,2.147-1.268
			c-2.491-4.77-4.982-9.54-7.472-14.31C945.061,97.427,942.915,98.697,943.657,100.118z"/>
		<path fill="#E98900" d="M930.613,111.848l11.526,11.729c1.127,1.146,2.881-0.625,1.755-1.771
			c-3.842-3.91-7.684-7.819-11.526-11.729C931.241,108.93,929.487,110.702,930.613,111.848z"/>
		<path fill="#E98900" d="M920.166,129.754c4.25,1.87,8.5,3.741,12.75,5.612c1.456,0.641,2.716-1.513,1.249-2.159
			c-4.25-1.87-8.5-3.741-12.75-5.611C919.958,126.955,918.699,129.109,920.166,129.754z"/>
		<path fill="#E98900" d="M911.848,150.879c5.603,0.216,11.206,0.432,16.809,0.648c1.605,0.062,1.59-2.432-0.011-2.493
			c-5.603-0.216-11.206-0.432-16.809-0.648C910.232,148.324,910.247,150.817,911.848,150.879z"/>
		<path fill="#E98900" d="M910.071,170.964c5.116-0.882,10.231-1.764,15.347-2.645c1.578-0.272,0.897-2.672-0.674-2.401
			c-5.116,0.882-10.231,1.764-15.347,2.645C907.82,168.835,908.5,171.235,910.071,170.964z"/>
		<path fill="#E98900" d="M1053.978,149.228c4.682-1.886,9.364-3.773,14.046-5.659c1.485-0.598,0.271-2.778-1.201-2.185
			c-4.682,1.886-9.364,3.773-14.046,5.659C1051.292,147.642,1052.506,149.821,1053.978,149.228z"/>
		<path fill="#E98900" d="M1062.512,125.858c-4.663,2.259-9.327,4.517-13.99,6.776c-1.44,0.697-0.436,2.981,1.014,2.278
			c4.663-2.259,9.327-4.517,13.99-6.776C1064.966,127.44,1063.962,125.156,1062.512,125.858z"/>
		<path fill="#E98900" d="M1051.679,111.544c-4.359,3.155-8.718,6.31-13.078,9.465c-1.3,0.941,0.267,2.881,1.566,1.941
			c4.359-3.155,8.719-6.31,13.078-9.465C1054.545,112.544,1052.978,110.604,1051.679,111.544z"/>
		<path fill="#E98900" d="M1038.185,100.335l-9.937,13.102c-0.971,1.281,1.036,2.76,2.006,1.48
			c3.312-4.367,6.625-8.735,9.937-13.102C1041.163,100.534,1039.156,99.055,1038.185,100.335z"/>
		<path fill="#E98900" d="M1018.955,92.59c-1.236,4.476-2.471,8.952-3.707,13.428c-0.423,1.533,1.89,2.468,2.317,0.923
			c1.236-4.476,2.471-8.952,3.707-13.428C1021.695,91.979,1019.381,91.044,1018.955,92.59z"/>
		<path fill="#E98900" d="M927.287,178.627c-3.885,1.494-7.769,2.988-11.654,4.482c-1.494,0.574-0.661,2.926,0.842,2.348
			c3.885-1.494,7.769-2.988,11.654-4.482C929.623,180.4,928.791,178.049,927.287,178.627z"/>
		<path fill="#E98900" d="M932.009,194.13c-4.254,1.728-8.509,3.456-12.763,5.183c-1.481,0.601-0.651,2.954,0.842,2.348
			c4.254-1.728,8.509-3.455,12.763-5.183C934.332,195.877,933.502,193.524,932.009,194.13z"/>
		<path fill="#E98900" d="M938.262,203.755c-3.759,2.276-7.519,4.552-11.278,6.828c-1.373,0.831,0.046,2.882,1.417,2.052
			c3.759-2.276,7.519-4.552,11.278-6.828C941.052,204.976,939.633,202.925,938.262,203.755z"/>
		<path fill="#E98900" d="M946.73,213.09c-3.437,2.988-6.873,5.976-10.309,8.965c-1.197,1.041,0.204,3.107,1.417,2.052
			c3.437-2.988,6.873-5.976,10.309-8.965C949.344,214.101,947.943,212.035,946.73,213.09z"/>
		<path fill="#E98900" d="M956.599,221.622c-2.183,3.576-4.366,7.152-6.548,10.728c-0.837,1.372,1.412,2.452,2.242,1.093
			c2.183-3.576,4.365-7.152,6.548-10.728C959.678,221.343,957.428,220.263,956.599,221.622z"/>
		<path fill="#E98900" d="M971.684,227.258c-1.498,4.182-2.995,8.365-4.493,12.547c-0.536,1.498,1.701,2.602,2.242,1.093
			c1.497-4.182,2.995-8.365,4.492-12.547C974.461,226.853,972.224,225.748,971.684,227.258z"/>
	</g>
</g>
<path fill="#E98900" d="M1447.375,1288.406l-12.188,12.049l2.488,2.149c0,0,6.064-6.209,10.427-13.479"/>
</svg>
