<?xml version="1.0" encoding="utf-8"?>
<!-- Generator: Adobe Illustrator 17.0.0, SVG Export Plug-In . SVG Version: 6.00 Build 0)  -->
<!DOCTYPE svg PUBLIC "-//W3C//DTD SVG 1.1//EN" "http://www.w3.org/Graphics/SVG/1.1/DTD/svg11.dtd">
<svg version="1.1" id="Camada_1" xmlns="http://www.w3.org/2000/svg" xmlns:xlink="http://www.w3.org/1999/xlink" x="0px" y="0px"
	 width="174.176px" height="162.653px" viewBox="0 0 174.176 162.653" enable-background="new 0 0 174.176 162.653"
	 xml:space="preserve">
<circle fill="#5EB0E2" fill-opacity="0.5" cx="221.009" cy="142.416" r="11.509"/>
<circle fill="#F2F2F2" cx="220.715" cy="142.416" r="6.668"/>
<path fill="#6BC7B5" fill-opacity="0.5" d="M218.312,130.907c0,0,2.132-0.099,2.404,2.024c0,0,0.51,1.819-1.202,2.927
	c0,0-5.466,1.731-5.466,6.558v17.143c0,0-0.025,2.463-2.276,2.506c0,0-2.272-0.042-2.272-2.421c0-2.378,0-17.228,0-17.228
	S208.884,134.149,218.312,130.907z"/>
<circle fill="#5EB0E2" fill-opacity="0.5" cx="298.018" cy="142.416" r="11.509"/>
<circle fill="#F2F2F2" cx="297.725" cy="142.416" r="6.668"/>
<path fill="#6BC7B5" fill-opacity="0.5" d="M295.321,130.907c0,0,2.132-0.099,2.404,2.024c0,0,0.51,1.819-1.202,2.927
	c0,0-5.466,1.731-5.466,6.558v17.143c0,0-0.025,2.463-2.276,2.506c0,0-2.272-0.042-2.272-2.421c0-2.378,0-17.228,0-17.228
	S285.893,134.149,295.321,130.907z"/>
<circle fill="#5EB0E2" fill-opacity="0.5" cx="361" cy="142.416" r="11.509"/>
<circle fill="#F2F2F2" cx="360.706" cy="142.416" r="6.668"/>
<path fill="#6BC7B5" fill-opacity="0.5" d="M358.303,130.907c0,0,2.132-0.099,2.404,2.024c0,0,0.51,1.819-1.202,2.927
	c0,0-5.466,1.731-5.466,6.558v17.143c0,0-0.025,2.463-2.276,2.506c0,0-2.272-0.042-2.272-2.421c0-2.378,0-17.228,0-17.228
	S348.875,134.149,358.303,130.907z"/>
<circle fill="#5EB0E2" fill-opacity="0.5" cx="323.919" cy="142.416" r="11.509"/>
<circle fill="#F2F2F2" cx="323.626" cy="142.416" r="6.668"/>
<circle fill="#5EB0E2" fill-opacity="0.5" cx="246.857" cy="142.416" r="11.509"/>
<circle fill="#F2F2F2" cx="246.563" cy="142.416" r="6.668"/>
<circle fill="#5EB0E2" fill-opacity="0.5" cx="-1.505" cy="228.422" r="11.509"/>
<circle fill="#FFFFFF" cx="-1.799" cy="228.422" r="6.668"/>
<circle fill="#5EB0E2" fill-opacity="0.5" cx="50.021" cy="228.422" r="11.509"/>
<circle fill="#FFFFFF" cx="49.727" cy="228.422" r="6.668"/>
<path fill="#5EB0E2" fill-opacity="0.5" d="M381.653,151.499c0,1.34-1.302,2.426-2.909,2.426l0,0c-1.607,0-2.909-1.086-2.909-2.426
	v-18.03c0-1.34,1.302-2.426,2.909-2.426l0,0c1.607,0,2.909,1.086,2.909,2.426V151.499z"/>
<path fill="#5EB0E2" fill-opacity="0.5" d="M261.233,141.981c0,11.058,11.449,11.944,11.449,11.944
	c12.677,0,10.853-11.944,10.853-11.944v-8.598c0-3.151-2.457-2.841-2.457-2.841c-2.718,0-2.457,2.841-2.457,2.841v8.598
	c-0.819,6.653-5.938,6.186-5.938,6.186c-6.199,0-6.311-6.186-6.311-6.186v-8.598c0-2.996-2.532-2.84-2.532-2.84
	c-2.681,0-2.606,2.84-2.606,2.84"/>
<g>
	<path fill="#5EB0E2" fill-opacity="0.5" d="M12.837,229.004c0,11.776,11.582,12.718,11.582,12.718
		c12.825,0,10.979-12.718,10.979-12.718v-9.156c0-3.356-2.486-3.026-2.486-3.026c-2.749,0-2.486,3.026-2.486,3.026v9.156
		c-0.829,7.084-6.007,6.587-6.007,6.587c-6.271,0-6.384-6.587-6.384-6.587v-9.156c0-3.19-2.561-3.024-2.561-3.024
		c-2.712,0-2.636,3.024-2.636,3.024"/>
	<path fill="#6BC7B5" fill-opacity="0.5" d="M31.933,238.092c-2.126,0.237-3.919-1.311-5.397-2.871
		c-1.158,0.459-2.117,0.37-2.117,0.37c-0.514,0-0.972-0.058-1.406-0.139c-0.043,0.006-0.074,0.029-0.119,0.03
		c-2.226,0.065-4.662,1.02-6.339,2.765c3.387,3.107,7.864,3.475,7.864,3.475c8.078,0,10.332-5.043,10.897-8.779
		C34.649,235.048,34.021,237.859,31.933,238.092z"/>
	<path fill="#6BC7B5" fill-opacity="0.5" d="M35.49,232.168v17.027c0,0,0.021,2.486-2.164,2.486c0,0-2.486,0.207-2.486-1.284
		c0,0-0.829-1.533-1.356-4.723c0,0-0.151-2.89-5.066-3.951l6.648-2.304l2.486-1.864l0.753-1.409l0.49-1.119L35.49,232.168z"/>
</g>
<circle fill="#5EB0E2" fill-opacity="0.5" cx="396.049" cy="142.552" r="11.509"/>
<circle fill="#F2F2F2" cx="395.755" cy="142.552" r="6.668"/>
<circle fill="#5EB0E2" fill-opacity="0.5" cx="378.744" cy="126.98" r="3.326"/>
<path fill="#6BC7B5" fill-opacity="0.5" d="M38.512,228.705V208.66c0,0-0.034-2.208,1.778-2.208c0,0,2.548-0.057,2.491,2.208
	l0.001,20.045c0,0,1.547,6.654,6.945,6.385c0,0,2.227-0.212,2.454,1.883c0,0,1.148,2.605-1.635,2.944
	C50.546,239.917,38.512,239.407,38.512,228.705z"/>
<circle fill="#5EB0E2" fill-opacity="0.5" cx="100.793" cy="228.422" r="11.509"/>
<circle fill="#FFFFFF" cx="101.087" cy="228.422" r="6.668"/>
<path fill="#6BC7B5" fill-opacity="0.5" d="M112.302,228.705V208.66c0,0,0.034-2.208-1.778-2.208c0,0-2.548-0.057-2.491,2.208
	l-0.001,20.045c0,0-1.547,6.654-6.945,6.385c0,0-2.227-0.212-2.454,1.883c0,0-1.148,2.605,1.635,2.944
	C100.268,239.917,112.302,239.407,112.302,228.705z"/>
<path fill="#5EB0E2" fill-opacity="0.5" d="M141.061,227.856c0,0-0.736,3.624,3.397,3.624h18.799c0,0,4.077,0.057,3.114-3.624
	c0,0-0.413-11.41-12.607-10.943C153.765,216.913,143.609,216.247,141.061,227.856z"/>
<path fill="#6BC7B5" fill-opacity="0.5" d="M148.818,233.914c0,0-2.435-1.246-3.567,1.416c0,0-1.019,1.925,0.227,2.831
	c0,0,7.758,7.191,15.968,0.283c0,0,1.812-0.793,0.51-3.624c0,0-0.963-1.885-3.454-1.197
	C158.501,233.623,155.2,236.773,148.818,233.914z"/>
<path fill="#5EB0E2" fill-opacity="0.5" d="M169.394,211.93c0,0,0.042-2.845,2.76-2.803c0,0,2.76-0.51,3.143,2.803v15.628
	c0,0-0.637,6.2,5.139,7.517l2.378,0.679c0,0,2.676,0.467,2.208,3.567c0,0-0.595,2.076-2.803,2.121c0,0-12.698,0.555-12.825-13.375
	V211.93z"/>
<path fill="#6BC7B5" fill-opacity="0.5" d="M181.965,219.043c0,1.7-1.378,3.079-3.079,3.079h-5.946c-1.7,0-3.079-1.378-3.079-3.079
	l0,0c0-1.7,1.378-3.079,3.079-3.079h5.946C180.586,215.964,181.965,217.343,181.965,219.043L181.965,219.043z"/>
<path fill="#FFFFFF" d="M157.256,223.591c0,0.928-1.319,1.681-2.947,1.681h-0.675c-1.627,0-2.947-0.753-2.947-1.681l0,0
	c0-0.928,1.319-1.681,2.947-1.681h0.675C155.936,221.91,157.256,222.663,157.256,223.591L157.256,223.591z"/>
<g>
	<defs>
		<rect id="SVGID_1_" x="229.498" y="44.117" width="152.97" height="73.573"/>
	</defs>
	<clipPath id="SVGID_2_">
		<use xlink:href="#SVGID_1_"  overflow="visible"/>
	</clipPath>
	<g clip-path="url(#SVGID_2_)">
		<g>
			<ellipse fill="#010101" cx="273.569" cy="95.027" rx="1.074" ry="1.174"/>
			<ellipse fill="#010101" cx="337.867" cy="95.027" rx="1.074" ry="1.174"/>
			<path fill="#7AA0BC" d="M355.412,129.755c0,5.643-9.679,37.324-13.027,37.64c-3.597,0.339-14.056,0.579-16.878,0.24
				c-0.137-1.069,0.345-1.233-0.044-2.309c-0.574-1.582-1.895-1.757-3.243-2.223c-2.273-0.784-4.592-0.497-7.046-0.638
				c-0.046-1.823,4.923-3.45,6.139-4.156c1.836-1.066,3.299-2.72,5.067-3.915c1.786-1.209,3.69-2.23,5.564-3.303
				c3.459-1.98,6.515-4.537,9.584-7.007C343.193,142.745,355.412,129.755,355.412,129.755z"/>
			<path opacity="0.07" fill="#010101" d="M314.911,162.466c-0.046-1.823,4.924-3.45,6.139-4.156
				c1.836-1.066,3.299-2.72,5.067-3.915c1.786-1.209,3.69-2.23,5.564-3.303c3.459-1.98,6.515-4.537,9.584-7.007
				c1.666-1.34,13.885-14.33,13.885-14.33c0,1.643-0.822,5.495-2.068,10.136c-6.849,11.163-17.671,19.623-30.497,23.416
				c-0.207-0.065-0.416-0.131-0.627-0.203C319.685,162.319,317.365,162.607,314.911,162.466z"/>
			<path fill="#7AA0BC" d="M256.567,129.755c0,5.643,9.679,37.324,13.026,37.64c3.596,0.339,14.057,0.579,16.878,0.24
				c0.138-1.069-0.345-1.233,0.045-2.309c0.573-1.582,1.895-1.757,3.243-2.223c2.273-0.784,4.592-0.497,7.046-0.638
				c0.046-1.823-4.924-3.45-6.139-4.156c-1.836-1.066-3.299-2.72-5.067-3.915c-1.787-1.209-3.69-2.23-5.564-3.303
				c-3.459-1.98-6.515-4.537-9.585-7.007C268.785,142.745,256.567,129.755,256.567,129.755z"/>
			<path opacity="0.05" fill="#010101" d="M296.805,162.466c0.046-1.823-4.924-3.45-6.139-4.156
				c-1.836-1.066-3.299-2.72-5.067-3.915c-1.787-1.209-3.69-2.23-5.564-3.303c-3.459-1.98-6.515-4.537-9.585-7.007
				c-1.665-1.34-13.883-14.33-13.883-14.33c0,1.643,0.821,5.495,2.067,10.136c6.849,11.163,17.671,19.623,30.497,23.416
				c0.207-0.065,0.417-0.131,0.627-0.203C292.032,162.319,294.35,162.607,296.805,162.466z"/>
			<g>
				<path fill="#9AC2E6" d="M354.929,87.602c7.426-9.041,10.78-20.604,12.335-31.599c0.725-5.127-0.234-6.297-5.723-5.651
					c-3.875,0.323-8.397,1.292-12.272,2.261c-5.49,1.614-23.251,9.364-21.635,15.177c1.292,6.781,19.413,18.338,25.871,19.63
					L354.929,87.602z"/>
			</g>
			<g>
				<path fill="#7AA0BC" d="M352.373,81.166c4.872-5.931,7.072-13.515,8.092-20.727c0.475-3.363-0.154-4.13-3.755-3.706
					c-2.542,0.212-5.507,0.847-8.049,1.482c-3.601,1.059-15.251,6.143-14.192,9.955c0.847,4.448,12.734,12.029,16.971,12.877
					L352.373,81.166z"/>
			</g>
			<g>
				<path fill="#9AC2E6" d="M257.289,87.602c-7.427-9.041-10.78-20.604-12.335-31.599c-0.725-5.127,0.235-6.297,5.724-5.651
					c3.875,0.323,8.397,1.292,12.272,2.261c5.49,1.614,23.251,9.364,21.635,15.177c-1.292,6.781-19.413,18.338-25.871,19.63
					L257.289,87.602z"/>
			</g>
			<g>
				<path fill="#7AA0BC" d="M259.844,81.166c-4.872-5.931-7.072-13.515-8.092-20.727c-0.475-3.363,0.155-4.13,3.755-3.706
					c2.542,0.212,5.507,0.847,8.049,1.482c3.601,1.059,15.251,6.143,14.192,9.955c-0.847,4.448-12.734,12.029-16.97,12.877
					L259.844,81.166z"/>
			</g>
			<circle fill="#9AC2E6" cx="305.932" cy="109.601" r="53.612"/>
			<ellipse opacity="0.1" fill="#010101" cx="305.989" cy="124.122" rx="32.01" ry="32.729"/>
			<circle fill="#A3D0F0" cx="305.661" cy="117.691" r="31.028"/>
			<ellipse fill="#7BA4C4" cx="292.167" cy="118.673" rx="3.591" ry="8.837"/>
			<path opacity="0.1" fill="#010101" d="M292.167,125.448c-1.835,0-3.347-3.386-3.564-7.757c-0.017,0.354-0.028,0.714-0.028,1.08
				c0,4.881,1.608,8.837,3.591,8.837c1.983,0,3.591-3.956,3.591-8.837c0-0.366-0.01-0.726-0.028-1.08
				C295.514,122.062,294.002,125.448,292.167,125.448z"/>
			<ellipse fill="#7BA4C4" cx="319.811" cy="118.673" rx="3.591" ry="8.837"/>
			<path opacity="0.1" fill="#010101" d="M319.811,125.448c1.834,0,3.347-3.386,3.563-7.757c0.017,0.354,0.028,0.714,0.028,1.08
				c0,4.881-1.608,8.837-3.591,8.837c-1.983,0-3.591-3.956-3.591-8.837c0-0.366,0.009-0.726,0.028-1.08
				C316.464,122.062,317.977,125.448,319.811,125.448z"/>
			<circle fill="#272626" cx="273.307" cy="96.201" r="3.876"/>
			<circle fill="#FFFFFF" cx="275.448" cy="95.386" r="0.816"/>
			<circle fill="#272626" cx="337.867" cy="96.201" r="3.876"/>
			<circle fill="#FFFFFF" cx="340.008" cy="95.386" r="0.816"/>
			<path fill="#5C768A" d="M309.961,73.021V56.089c-1.33-0.099-2.674-0.15-4.029-0.15c-1.356,0-2.7,0.052-4.03,0.15v16.87
				L309.961,73.021z"/>
			<rect x="301.902" y="69.576" fill="#A3D0F0" width="8.06" height="3.445"/>
		</g>
	</g>
</g>
<g>
	<path fill="#E98C24" d="M303.381,8.585c1.172-0.262,2.378-0.404,3.606-0.425c-1.229,0.032-2.445,0.173-3.618,0.435L303.381,8.585z"
		/>
	<path fill="#E98C24" d="M308.963,8.208l-0.001,0.011l-0.011-0.001c-0.332-0.026-0.653-0.041-0.975-0.055
		C308.299,8.167,308.632,8.182,308.963,8.208z"/>
	<g>
		<circle fill="#FEC465" cx="306.257" cy="27.336" r="17.134"/>
		<path fill="#FAA61C" d="M304.738,46.555c-10.597-0.838-18.537-10.14-17.7-20.738c0.838-10.597,10.14-18.537,20.738-17.7
			c10.597,0.838,18.537,10.14,17.7,20.738C324.638,39.452,315.336,47.392,304.738,46.555z M307.438,12.394
			c-8.238-0.651-15.471,5.522-16.122,13.761s5.522,15.471,13.761,16.122c8.238,0.651,15.471-5.522,16.122-13.761
			S315.676,13.046,307.438,12.394z"/>
	</g>
	<g>
		<g>
			<g>
				<path fill="#FAA61C" d="M311.586,31.56c-0.203,2.567-1.958,4.53-4.516,5.185l-0.238,3.017l-4.502-0.356l0.217-2.74
					c-1.267-0.312-2.447-0.868-3.251-1.548l-0.831-0.702l1.954-4.356l1.452,1.146c0.772,0.601,1.838,1.013,2.853,1.093
					c0.757,0.06,1.67-0.157,1.734-0.962c0.026-0.326,0.073-0.929-1.893-1.904c-2.468-1.207-4.967-2.889-4.704-6.213
					c0.194-2.452,1.875-4.334,4.325-4.969l0.232-2.941l4.473,0.354l-0.21,2.653c0.954,0.249,1.81,0.635,2.578,1.168l0.996,0.696
					l-2.016,4.284l-1.4-0.949c-0.375-0.251-1.152-0.785-2.493-0.891c-0.479-0.038-1.311,0.002-1.365,0.682
					c-0.025,0.316-0.052,0.661,2.19,1.802C309.2,26.138,311.874,27.92,311.586,31.56z"/>
			</g>
		</g>
	</g>
	<path fill="#FAA61C" d="M295.034,34.057c-1.728-3.28-1.884-7.085-0.451-10.499c0.15-0.357-0.392-0.623-0.542-0.264
		c-1.525,3.635-1.339,7.622,0.497,11.106C294.718,34.742,295.213,34.397,295.034,34.057z"/>
	<path fill="#FAA61C" d="M300.536,15.183c-2.18,1.316-4.008,3.067-5.411,5.193c-0.211,0.32,0.244,0.717,0.457,0.393
		c1.377-2.085,3.157-3.798,5.296-5.09C301.211,15.479,300.868,14.983,300.536,15.183z"/>
	<path fill="#FAA61C" d="M317.778,19.629c-0.193-0.336-0.689,0.007-0.497,0.343c2.208,3.843,2.509,8.455,0.826,12.554
		c-0.147,0.358,0.395,0.624,0.542,0.264C320.421,28.476,320.1,23.672,317.778,19.629z"/>
	<path fill="#FAA61C" d="M316.9,34.44c-1.115,2.003-2.691,3.633-4.647,4.827c-0.331,0.202,0.012,0.699,0.343,0.496
		c2.042-1.248,3.683-2.969,4.846-5.06C317.632,34.365,317.088,34.102,316.9,34.44z"/>
	<path fill="#FAA61C" d="M317.018,29.943c-0.154,1.492-0.638,2.881-1.446,4.145c-0.209,0.327,0.331,0.597,0.538,0.272
		c0.833-1.303,1.339-2.752,1.498-4.29C317.647,29.687,317.058,29.557,317.018,29.943z"/>
	<path fill="#E98C24" d="M304.65,42.547c-0.054,1.22-0.108,2.44-0.163,3.66c-0.017,0.387,0.585,0.338,0.602-0.045
		c0.054-1.22,0.108-2.44,0.163-3.66C305.268,42.115,304.667,42.164,304.65,42.547z"/>
	<path fill="#E98C24" d="M309.51,42.197c-0.051-0.383-0.653-0.34-0.602,0.045c0.163,1.22,0.325,2.44,0.488,3.66
		c0.051,0.383,0.653,0.34,0.602-0.045C309.835,44.638,309.673,43.418,309.51,42.197z"/>
	<path fill="#E98C24" d="M314.777,44.401c-0.461-1.166-0.922-2.332-1.383-3.497c-0.142-0.36-0.711-0.159-0.568,0.204
		c0.461,1.166,0.922,2.332,1.383,3.497C314.352,44.964,314.921,44.763,314.777,44.401z"/>
	<path fill="#E98C24" d="M318.318,42.018c-0.638-1.041-1.275-2.083-1.913-3.124c-0.19-0.311-0.654,0.012-0.464,0.322
		c0.638,1.041,1.275,2.083,1.913,3.124C318.045,42.651,318.508,42.329,318.318,42.018z"/>
	<path fill="#E98C24" d="M321.158,39.004l-2.5-2.262c-0.244-0.221-0.574,0.172-0.33,0.393c0.833,0.754,1.667,1.508,2.5,2.262
		C321.073,39.618,321.402,39.225,321.158,39.004z"/>
	<path fill="#E98C24" d="M323.623,34.699c-1.058-0.379-2.115-0.757-3.173-1.136c-0.362-0.13-0.63,0.412-0.264,0.542
		c1.058,0.379,2.115,0.757,3.173,1.136C323.721,35.371,323.988,34.83,323.623,34.699z"/>
	<path fill="#E98C24" d="M324.843,29.646c-1.181,0.044-2.362,0.087-3.543,0.131c-0.338,0.013-0.298,0.614,0.04,0.602
		c1.181-0.044,2.362-0.087,3.543-0.131C325.221,30.235,325.181,29.633,324.843,29.646z"/>
	<path fill="#E98C24" d="M325,25.018c-1.22,0.3-2.439,0.601-3.659,0.901c-0.376,0.093-0.171,0.66,0.204,0.568
		c1.22-0.3,2.439-0.601,3.659-0.901C325.58,25.493,325.375,24.926,325,25.018z"/>
	<path fill="#FAA61C" d="M296.217,25.442c0.167-1.491,0.664-2.875,1.485-4.131c0.212-0.325-0.325-0.6-0.536-0.277
		c-0.845,1.295-1.365,2.739-1.538,4.276C295.585,25.692,296.173,25.828,296.217,25.442z"/>
	<path fill="#E98C24" d="M309.146,12.202c0.14-1.213,0.281-2.426,0.421-3.64c0.045-0.385-0.559-0.379-0.603,0.003
		c-0.14,1.213-0.281,2.426-0.421,3.64C308.498,12.589,309.102,12.583,309.146,12.202z"/>
	<path fill="#E98C24" d="M304.271,12.233c0.024,0.386,0.627,0.386,0.603-0.003c-0.076-1.229-0.152-2.457-0.228-3.686
		c-0.024-0.386-0.627-0.386-0.603,0.003C304.119,9.776,304.195,11.005,304.271,12.233z"/>
	<path fill="#E98C24" d="M298.959,9.925c0.35,1.077,0.701,2.154,1.051,3.23c0.108,0.332,0.645,0.189,0.536-0.146
		c-0.35-1.077-0.701-2.154-1.051-3.23C299.386,9.447,298.85,9.59,298.959,9.925z"/>
	<path fill="#E98C24" d="M295.225,11.806c0.551,1.102,1.102,2.203,1.653,3.305c0.164,0.329,0.643,0.034,0.478-0.295
		c-0.551-1.102-1.102-2.203-1.653-3.305C295.539,11.182,295.061,11.477,295.225,11.806z"/>
	<path fill="#E98C24" d="M292.096,14.723l2.597,2.6c0.254,0.254,0.648-0.138,0.395-0.392c-0.866-0.867-1.732-1.734-2.597-2.601
		C292.237,14.077,291.842,14.469,292.096,14.723z"/>
	<path fill="#E98C24" d="M289.343,18.81c1.028,0.453,2.057,0.905,3.085,1.358c0.352,0.155,0.657-0.366,0.302-0.522
		c-1.028-0.453-2.057-0.905-3.085-1.358C289.293,18.132,288.988,18.653,289.343,18.81z"/>
	<path fill="#E98C24" d="M287.717,23.948c1.235,0.044,2.47,0.087,3.705,0.131c0.354,0.013,0.354-0.59,0.001-0.603
		c-1.235-0.044-2.47-0.087-3.705-0.131C287.364,23.332,287.364,23.935,287.717,23.948z"/>
	<path fill="#E98C24" d="M287.41,28.663c1.238-0.213,2.475-0.427,3.713-0.64c0.382-0.066,0.217-0.646-0.163-0.581
		c-1.238,0.213-2.475,0.427-3.713,0.64C286.865,28.148,287.03,28.728,287.41,28.663z"/>
	<path fill="#E98C24" d="M321.219,23.917c1.133-0.456,2.266-0.913,3.398-1.369c0.359-0.145,0.066-0.672-0.291-0.529
		c-1.133,0.456-2.266,0.913-3.398,1.369C320.569,23.533,320.863,24.061,321.219,23.917z"/>
	<path fill="#E98C24" d="M322.977,18.284c-1.128,0.546-2.257,1.093-3.385,1.639c-0.348,0.169-0.105,0.721,0.245,0.551
		c1.128-0.546,2.257-1.093,3.385-1.639C323.571,18.666,323.328,18.114,322.977,18.284z"/>
	<path fill="#E98C24" d="M320.628,14.859c-0.994,0.747-1.989,1.494-2.983,2.241c-0.297,0.223,0.063,0.685,0.359,0.462
		c0.994-0.747,1.989-1.494,2.983-2.241C321.284,15.099,320.924,14.636,320.628,14.859z"/>
	<path fill="#E98C24" d="M317.589,12.153l-2.1,2.772c-0.205,0.271,0.219,0.584,0.424,0.313c0.7-0.924,1.4-1.848,2.1-2.772
		C318.219,12.195,317.794,11.882,317.589,12.153z"/>
	<path fill="#E98C24" d="M313.245,9.818c-0.299,1.083-0.598,2.166-0.897,3.249c-0.102,0.371,0.457,0.597,0.561,0.223
		c0.299-1.083,0.598-2.166,0.897-3.249C313.908,9.67,313.348,9.444,313.245,9.818z"/>
	<path fill="#E98C24" d="M291.066,30.634c-0.94,0.362-1.88,0.723-2.82,1.085c-0.361,0.139-0.16,0.708,0.204,0.568
		c0.94-0.361,1.88-0.723,2.82-1.084C291.631,31.063,291.43,30.494,291.066,30.634z"/>
	<path fill="#E98C24" d="M292.461,34.307c-1.029,0.418-2.059,0.836-3.088,1.254c-0.358,0.146-0.157,0.715,0.204,0.568
		c1.029-0.418,2.059-0.836,3.088-1.254C293.023,34.729,292.823,34.16,292.461,34.307z"/>
	<path fill="#E98C24" d="M293.722,36.714c-0.91,0.551-1.819,1.101-2.729,1.652c-0.332,0.201,0.011,0.697,0.343,0.497
		c0.91-0.551,1.819-1.101,2.729-1.652C294.397,37.009,294.053,36.513,293.722,36.714z"/>
	<path fill="#E98C24" d="M295.961,38.823c-0.831,0.723-1.663,1.446-2.494,2.169c-0.29,0.252,0.049,0.752,0.343,0.497
		c0.831-0.723,1.663-1.446,2.494-2.169C296.593,39.068,296.254,38.568,295.961,38.823z"/>
	<path fill="#E98C24" d="M298.158,41.037c-0.528,0.865-1.056,1.73-1.584,2.596c-0.203,0.332,0.342,0.593,0.542,0.264
		c0.528-0.865,1.056-1.73,1.584-2.596C298.903,40.969,298.359,40.708,298.158,41.037z"/>
	<path fill="#E98C24" d="M301.808,42.4c-0.362,1.012-0.725,2.024-1.087,3.036c-0.13,0.362,0.412,0.63,0.542,0.264
		c0.362-1.012,0.725-2.024,1.087-3.036C302.48,42.302,301.939,42.035,301.808,42.4z"/>
</g>
<g>
	<path fill="#E98C24" d="M249.415,2.706c0.637-0.531,1.332-0.999,2.08-1.4c-0.745,0.408-1.447,0.878-2.084,1.41L249.415,2.706z"/>
	<path fill="#E98C24" d="M252.723,0.712l0.003,0.007l-0.007,0.003c-0.212,0.089-0.414,0.181-0.616,0.274
		C252.302,0.896,252.511,0.801,252.723,0.712z"/>
	<g>
		<circle fill="#FEC465" cx="257.102" cy="13.311" r="11.83"/>
		<path fill="#FAA61C" d="M262.239,25.59c-6.771,2.832-14.584-0.372-17.416-7.143c-2.832-6.771,0.372-14.584,7.143-17.416
			c6.771-2.832,14.584,0.372,17.416,7.143C272.214,14.945,269.01,22.758,262.239,25.59z M253.109,3.764
			c-5.264,2.202-7.755,8.276-5.553,13.54c2.202,5.264,8.276,7.755,13.54,5.553c5.264-2.202,7.755-8.276,5.553-13.54
			S258.372,1.562,253.109,3.764z"/>
	</g>
	<g>
		<g>
			<g>
				<path fill="#FAA61C" d="M261.708,14.221c0.686,1.64,0.228,3.399-1.135,4.61l0.806,1.928l-2.876,1.203l-0.732-1.75
					c-0.876,0.208-1.777,0.24-2.485,0.076l-0.732-0.168l-0.176-3.292l1.253,0.245c0.664,0.125,1.448,0.041,2.097-0.23
					c0.483-0.202,0.976-0.624,0.761-1.138c-0.087-0.208-0.248-0.594-1.763-0.571c-1.897,0.038-3.962-0.205-4.85-2.329
					c-0.655-1.567-0.217-3.253,1.086-4.417l-0.786-1.879l2.858-1.196l0.709,1.695c0.664-0.148,1.312-0.182,1.951-0.097l0.831,0.113
					l0.115,3.267l-1.159-0.141c-0.31-0.036-0.955-0.118-1.812,0.24c-0.306,0.128-0.804,0.416-0.622,0.85
					c0.084,0.202,0.177,0.422,1.914,0.415C258.531,11.646,260.735,11.896,261.708,14.221z"/>
			</g>
		</g>
	</g>
	<path fill="#FAA61C" d="M252.334,20.981c-2.097-1.468-3.394-3.755-3.593-6.304c-0.021-0.267-0.437-0.259-0.416,0.009
		c0.212,2.713,1.585,5.103,3.813,6.662C252.356,21.502,252.551,21.134,252.334,20.981z"/>
	<path fill="#FAA61C" d="M249.752,7.656c-0.923,1.496-1.492,3.149-1.682,4.897c-0.029,0.263,0.376,0.363,0.405,0.097
		c0.187-1.715,0.739-3.329,1.645-4.797C250.26,7.625,249.892,7.428,249.752,7.656z"/>
	<path fill="#FAA61C" d="M261.742,4.941c-0.225-0.146-0.421,0.222-0.197,0.367c2.569,1.662,4.211,4.399,4.472,7.447
		c0.023,0.266,0.439,0.258,0.417-0.009C266.159,9.538,264.445,6.689,261.742,4.941z"/>
	<path fill="#FAA61C" d="M265.88,14.312c-0.052,1.582-0.505,3.08-1.328,4.431c-0.139,0.229,0.228,0.425,0.367,0.197
		c0.86-1.411,1.323-2.986,1.378-4.637C266.306,14.034,265.889,14.045,265.88,14.312z"/>
	<path fill="#FAA61C" d="M264.532,11.513c0.377,0.965,0.518,1.97,0.421,3.001c-0.025,0.267,0.392,0.262,0.416-0.003
		c0.1-1.063-0.047-2.112-0.435-3.107C264.838,11.157,264.435,11.263,264.532,11.513z"/>
	<path fill="#E98C24" d="M260.919,23.158c0.352,0.766,0.704,1.532,1.056,2.299c0.112,0.243,0.466,0.023,0.355-0.218
		c-0.352-0.766-0.704-1.532-1.056-2.299C261.162,22.697,260.808,22.917,260.919,23.158z"/>
	<path fill="#E98C24" d="M263.793,21.408c-0.152-0.219-0.508-0.003-0.355,0.218c0.485,0.698,0.97,1.395,1.455,2.093
		c0.152,0.219,0.508,0.003,0.355-0.218C264.763,22.803,264.278,22.106,263.793,21.408z"/>
	<path fill="#E98C24" d="M267.723,21.097c-0.651-0.57-1.302-1.14-1.954-1.711c-0.201-0.176-0.487,0.127-0.284,0.304
		c0.651,0.57,1.302,1.14,1.954,1.711C267.639,21.578,267.925,21.275,267.723,21.097z"/>
	<path fill="#E98C24" d="M269.144,18.517c-0.72-0.438-1.441-0.876-2.161-1.314c-0.215-0.131-0.398,0.214-0.183,0.344
		c0.72,0.438,1.441,0.876,2.161,1.314C269.176,18.991,269.359,18.647,269.144,18.517z"/>
	<path fill="#E98C24" d="M269.936,15.769l-2.249-0.599c-0.22-0.059-0.298,0.287-0.078,0.345c0.75,0.2,1.499,0.399,2.249,0.599
		C270.078,16.173,270.156,15.828,269.936,15.769z"/>
	<path fill="#E98C24" d="M270.09,12.347c-0.769,0.102-1.538,0.203-2.307,0.304c-0.263,0.035-0.257,0.452,0.009,0.416
		c0.769-0.101,1.538-0.203,2.307-0.304C270.362,12.729,270.355,12.312,270.09,12.347z"/>
	<path fill="#E98C24" d="M269.243,8.859c-0.711,0.4-1.423,0.8-2.134,1.199c-0.204,0.114,0.011,0.471,0.214,0.357
		c0.711-0.4,1.423-0.8,2.134-1.199C269.661,9.102,269.447,8.745,269.243,8.859z"/>
	<path fill="#E98C24" d="M267.878,5.968c-0.654,0.57-1.308,1.139-1.962,1.709c-0.202,0.176,0.104,0.459,0.304,0.284
		c0.654-0.57,1.308-1.139,1.962-1.709C268.384,6.077,268.079,5.794,267.878,5.968z"/>
	<path fill="#FAA61C" d="M250.34,15.319c-0.368-0.968-0.5-1.975-0.393-3.005c0.028-0.267-0.389-0.266-0.417-0.001
		c-0.11,1.062,0.027,2.113,0.406,3.111C250.031,15.672,250.435,15.569,250.34,15.319z"/>
	<path fill="#E98C24" d="M254.097,3.106c-0.297-0.789-0.594-1.578-0.891-2.368c-0.094-0.25-0.463-0.056-0.37,0.192
		c0.297,0.789,0.594,1.578,0.891,2.368C253.821,3.549,254.19,3.355,254.097,3.106z"/>
	<path fill="#E98C24" d="M251.113,4.665c0.136,0.229,0.507,0.039,0.37-0.192c-0.435-0.73-0.869-1.461-1.304-2.191
		c-0.136-0.229-0.507-0.039-0.369,0.192C250.244,3.205,250.679,3.935,251.113,4.665z"/>
	<path fill="#E98C24" d="M247.123,4.926c0.555,0.551,1.11,1.101,1.665,1.652c0.171,0.17,0.456-0.088,0.283-0.259
		c-0.555-0.551-1.11-1.101-1.665-1.652C247.234,4.497,246.95,4.755,247.123,4.926z"/>
	<path fill="#E98C24" d="M245.424,7.259c0.686,0.502,1.373,1.005,2.059,1.507c0.205,0.15,0.405-0.182,0.201-0.332
		c-0.686-0.502-1.373-1.005-2.059-1.507C245.42,6.778,245.22,7.11,245.424,7.259z"/>
	<path fill="#E98C24" d="M244.425,10.039l2.416,0.776c0.236,0.076,0.355-0.289,0.119-0.365c-0.805-0.259-1.611-0.518-2.416-0.776
		C244.307,9.598,244.189,9.963,244.425,10.039z"/>
	<path fill="#E98C24" d="M244.025,13.417c0.774-0.047,1.549-0.094,2.323-0.141c0.265-0.016,0.288-0.432,0.021-0.416
		c-0.774,0.047-1.548,0.094-2.323,0.141C243.78,13.017,243.758,13.433,244.025,13.417z"/>
	<path fill="#E98C24" d="M244.649,17.086c0.772-0.363,1.544-0.726,2.316-1.09c0.221-0.104,0.031-0.474-0.19-0.371
		c-0.772,0.363-1.544,0.726-2.316,1.09C244.238,16.819,244.428,17.189,244.649,17.086z"/>
	<path fill="#E98C24" d="M245.95,20.077c0.693-0.522,1.385-1.044,2.078-1.566c0.214-0.161-0.071-0.465-0.284-0.305
		c-0.693,0.522-1.385,1.044-2.078,1.566C245.452,19.933,245.737,20.238,245.95,20.077z"/>
	<path fill="#E98C24" d="M265.209,6.487c0.551-0.638,1.103-1.276,1.654-1.914c0.175-0.202-0.172-0.433-0.345-0.233
		c-0.551,0.638-1.103,1.276-1.654,1.914C264.688,6.456,265.035,6.687,265.209,6.487z"/>
	<path fill="#E98C24" d="M264.509,2.473c-0.52,0.692-1.04,1.384-1.56,2.075c-0.161,0.214,0.163,0.476,0.325,0.261
		c0.52-0.692,1.04-1.384,1.56-2.075C264.995,2.52,264.671,2.257,264.509,2.473z"/>
	<path fill="#E98C24" d="M261.985,1.112c-0.375,0.773-0.749,1.545-1.124,2.318c-0.112,0.23,0.255,0.401,0.367,0.17
		c0.375-0.773,0.749-1.545,1.124-2.318C262.464,1.052,262.097,0.882,261.985,1.112z"/>
	<path fill="#E98C24" d="M259.265,0.41l-0.414,2.365c-0.04,0.231,0.319,0.289,0.359,0.058c0.138-0.788,0.276-1.577,0.414-2.365
		C259.665,0.237,259.305,0.179,259.265,0.41z"/>
	<path fill="#E98C24" d="M255.86,0.348c0.158,0.759,0.317,1.519,0.475,2.278c0.054,0.26,0.469,0.222,0.415-0.04
		c-0.158-0.759-0.317-1.519-0.475-2.278C256.221,0.048,255.806,0.086,255.86,0.348z"/>
	<path fill="#E98C24" d="M248.817,20.133c-0.463,0.519-0.926,1.038-1.389,1.556c-0.178,0.199,0.125,0.485,0.304,0.284
		c0.463-0.519,0.926-1.038,1.389-1.556C249.299,20.218,248.996,19.932,248.817,20.133z"/>
	<path fill="#E98C24" d="M250.833,21.948c-0.5,0.582-1,1.163-1.5,1.745c-0.174,0.202,0.129,0.489,0.304,0.284
		c0.5-0.582,1-1.163,1.5-1.745C251.312,22.029,251.009,21.743,250.833,21.948z"/>
	<path fill="#E98C24" d="M252.367,23.027c-0.385,0.625-0.769,1.251-1.154,1.876c-0.14,0.228,0.227,0.425,0.367,0.197
		c0.385-0.625,0.769-1.251,1.154-1.876C252.875,22.995,252.508,22.799,252.367,23.027z"/>
	<path fill="#E98C24" d="M254.408,23.615c-0.282,0.706-0.564,1.413-0.846,2.119c-0.098,0.246,0.268,0.446,0.367,0.197
		c0.282-0.706,0.564-1.413,0.846-2.119C254.874,23.566,254.508,23.366,254.408,23.615z"/>
	<path fill="#E98C24" d="M256.456,24.28c-0.051,0.698-0.102,1.396-0.153,2.094c-0.02,0.268,0.397,0.256,0.416-0.009
		c0.051-0.698,0.102-1.396,0.153-2.094C256.892,24.004,256.476,24.015,256.456,24.28z"/>
	<path fill="#E98C24" d="M259.128,23.965c0.097,0.736,0.194,1.471,0.291,2.207c0.035,0.263,0.452,0.257,0.416-0.009
		c-0.097-0.736-0.194-1.471-0.291-2.207C259.51,23.693,259.093,23.699,259.128,23.965z"/>
</g>
<g>
	<path fill="#E98C24" d="M358.812,14.587c0.828,0.052,1.654,0.19,2.473,0.413c-0.821-0.216-1.655-0.357-2.482-0.409L358.812,14.587z
		"/>
	<path fill="#E98C24" d="M362.586,15.413l-0.003,0.007l-0.007-0.003c-0.215-0.081-0.425-0.153-0.636-0.225
		C362.154,15.258,362.371,15.332,362.586,15.413z"/>
	<g>
		<circle fill="#FEC465" cx="357.106" cy="27.573" r="11.83"/>
		<path fill="#FAA61C" d="M352.395,40.023c-6.865-2.597-10.336-10.295-7.739-17.16s10.295-10.336,17.16-7.739
			s10.336,10.295,7.739,17.16S359.26,42.62,352.395,40.023z M360.768,17.895c-5.336-2.019-11.321,0.68-13.341,6.017
			c-2.019,5.336,0.68,11.321,6.017,13.341c5.336,2.019,11.321-0.68,13.341-6.017S366.104,19.914,360.768,17.895z"/>
	</g>
	<g>
		<g>
			<g>
				<path fill="#FAA61C" d="M359.825,31.401c-0.629,1.663-2.171,2.626-3.993,2.568l-0.74,1.955l-2.916-1.103l0.671-1.775
					c-0.78-0.451-1.455-1.047-1.857-1.653l-0.416-0.626l2.135-2.512l0.742,1.04c0.396,0.547,1.023,1.026,1.681,1.274
					c0.49,0.185,1.138,0.218,1.335-0.304c0.08-0.211,0.228-0.602-0.888-1.627c-1.404-1.276-2.736-2.872-1.922-5.025
					c0.601-1.588,2.078-2.512,3.825-2.461l0.721-1.905l2.898,1.096l-0.65,1.719c0.584,0.349,1.078,0.77,1.484,1.271l0.526,0.653
					l-2.162,2.452l-0.745-0.899c-0.2-0.239-0.613-0.743-1.481-1.071c-0.31-0.117-0.87-0.251-1.036,0.19
					c-0.077,0.205-0.162,0.428,1.105,1.617C359.288,27.346,360.717,29.043,359.825,31.401z"/>
			</g>
		</g>
	</g>
	<path fill="#FAA61C" d="M348.37,29.866c-0.514-2.507,0.116-5.06,1.724-7.048c0.168-0.208-0.14-0.489-0.309-0.28
		c-1.711,2.116-2.356,4.796-1.811,7.459C348.028,30.26,348.423,30.127,348.37,29.866z"/>
	<path fill="#FAA61C" d="M355.654,18.414c-1.699,0.452-3.248,1.261-4.588,2.4c-0.202,0.171,0.023,0.522,0.228,0.349
		c1.314-1.117,2.825-1.91,4.492-2.354C356.045,18.74,355.913,18.345,355.654,18.414z"/>
	<path fill="#FAA61C" d="M366.229,24.684c-0.063-0.26-0.458-0.128-0.395,0.132c0.723,2.973,0.034,6.089-1.871,8.483
		c-0.167,0.209,0.141,0.49,0.309,0.28C366.277,31.059,366.99,27.812,366.229,24.684z"/>
	<path fill="#FAA61C" d="M362.793,34.334c-1.125,1.113-2.484,1.89-4.011,2.305c-0.259,0.07-0.127,0.466,0.132,0.395
		c1.594-0.434,3.014-1.259,4.188-2.421C363.293,34.425,362.983,34.146,362.793,34.334z"/>
	<path fill="#FAA61C" d="M363.738,31.375c-0.389,0.96-0.978,1.787-1.757,2.469c-0.202,0.177,0.104,0.46,0.304,0.284
		c0.803-0.703,1.418-1.566,1.82-2.556C364.204,31.327,363.839,31.127,363.738,31.375z"/>
	<path fill="#E98C24" d="M353.109,37.349c-0.271,0.798-0.542,1.597-0.813,2.395c-0.086,0.253,0.322,0.337,0.408,0.086
		c0.271-0.798,0.542-1.597,0.813-2.395C353.602,37.181,353.194,37.097,353.109,37.349z"/>
	<path fill="#E98C24" d="M356.399,38.053c0.04-0.264-0.367-0.351-0.408-0.086c-0.127,0.84-0.255,1.68-0.382,2.521
		c-0.04,0.264,0.367,0.351,0.408,0.086C356.144,39.734,356.271,38.894,356.399,38.053z"/>
	<path fill="#E98C24" d="M359.466,40.529c-0.081-0.862-0.162-1.724-0.243-2.585c-0.025-0.266-0.441-0.242-0.416,0.026
		c0.081,0.862,0.162,1.724,0.243,2.585C359.075,40.821,359.491,40.797,359.466,40.529z"/>
	<path fill="#E98C24" d="M362.273,39.632c-0.222-0.813-0.444-1.627-0.666-2.44c-0.066-0.243-0.436-0.118-0.369,0.124
		c0.222,0.813,0.444,1.627,0.666,2.44C361.97,39.999,362.339,39.874,362.273,39.632z"/>
	<path fill="#E98C24" d="M364.737,38.181l-1.222-1.981c-0.119-0.194-0.414,0.003-0.294,0.197c0.407,0.66,0.814,1.321,1.222,1.981
		C364.562,38.571,364.856,38.374,364.737,38.181z"/>
	<path fill="#E98C24" d="M367.201,35.801c-0.628-0.455-1.257-0.91-1.885-1.365c-0.215-0.156-0.497,0.152-0.28,0.309
		c0.628,0.455,1.257,0.91,1.885,1.365C367.136,36.266,367.418,35.958,367.201,35.801z"/>
	<path fill="#E98C24" d="M368.983,32.686c-0.791-0.199-1.583-0.397-2.374-0.596c-0.227-0.057-0.316,0.35-0.09,0.406
		c0.791,0.199,1.583,0.397,2.374,0.596C369.12,33.15,369.21,32.743,368.983,32.686z"/>
	<path fill="#E98C24" d="M369.979,29.648c-0.866-0.036-1.733-0.072-2.599-0.108c-0.267-0.011-0.24,0.405,0.026,0.416
		c0.866,0.036,1.733,0.072,2.599,0.108C370.272,30.075,370.245,29.659,369.979,29.648z"/>
	<path fill="#FAA61C" d="M350.814,24.383c0.398-0.956,0.994-1.778,1.78-2.453c0.203-0.175-0.1-0.46-0.302-0.287
		c-0.81,0.696-1.433,1.553-1.843,2.539C350.347,24.427,350.711,24.63,350.814,24.383z"/>
	<path fill="#E98C24" d="M361.937,18.096c0.327-0.777,0.654-1.555,0.98-2.332c0.104-0.247-0.298-0.359-0.4-0.114
		c-0.327,0.777-0.654,1.555-0.98,2.332C361.433,18.228,361.835,18.34,361.937,18.096z"/>
	<path fill="#E98C24" d="M358.699,17.177c-0.059,0.26,0.342,0.377,0.4,0.114c0.186-0.829,0.373-1.658,0.559-2.487
		c0.059-0.26-0.342-0.377-0.4-0.114C359.072,15.519,358.886,16.348,358.699,17.177z"/>
	<path fill="#E98C24" d="M355.622,14.624c0.025,0.781,0.049,1.563,0.074,2.344c0.008,0.241,0.391,0.25,0.383,0.007
		c-0.025-0.781-0.049-1.563-0.074-2.344C355.998,14.389,355.614,14.381,355.622,14.624z"/>
	<path fill="#E98C24" d="M352.784,15.151c0.153,0.837,0.306,1.673,0.459,2.51c0.046,0.25,0.42,0.146,0.374-0.103
		c-0.153-0.837-0.306-1.673-0.459-2.51C353.112,14.798,352.738,14.902,352.784,15.151z"/>
	<path fill="#E98C24" d="M350.147,16.482l1.221,2.225c0.119,0.217,0.456,0.034,0.337-0.184c-0.407-0.742-0.814-1.483-1.221-2.225
		C350.365,16.081,350.028,16.265,350.147,16.482z"/>
	<path fill="#E98C24" d="M347.535,18.661c0.595,0.498,1.189,0.996,1.784,1.495c0.204,0.171,0.506-0.116,0.301-0.288
		c-0.595-0.498-1.189-0.996-1.784-1.495C347.632,18.202,347.33,18.489,347.535,18.661z"/>
	<path fill="#E98C24" d="M345.466,21.754c0.81,0.267,1.621,0.534,2.431,0.801c0.232,0.076,0.349-0.323,0.117-0.399
		c-0.81-0.267-1.621-0.534-2.431-0.801C345.351,21.279,345.235,21.678,345.466,21.754z"/>
	<path fill="#E98C24" d="M344.354,24.821c0.862,0.097,1.723,0.194,2.585,0.291c0.266,0.03,0.268-0.387,0.004-0.417
		c-0.862-0.097-1.723-0.194-2.585-0.291C344.093,24.375,344.09,24.791,344.354,24.821z"/>
	<path fill="#E98C24" d="M367.684,28.19c0.839-0.084,1.678-0.169,2.517-0.253c0.266-0.027,0.173-0.433-0.091-0.406
		c-0.839,0.084-1.678,0.169-2.517,0.253C367.327,27.81,367.42,28.216,367.684,28.19z"/>
	<path fill="#E98C24" d="M369.935,24.793c-0.853,0.145-1.707,0.29-2.56,0.435c-0.263,0.045-0.209,0.458,0.056,0.413
		c0.853-0.145,1.707-0.29,2.56-0.435C370.255,25.161,370.201,24.748,369.935,24.793z"/>
	<path fill="#E98C24" d="M369.038,22.07c-0.803,0.304-1.606,0.607-2.41,0.911c-0.24,0.091-0.09,0.466,0.149,0.376
		c0.803-0.304,1.606-0.607,2.41-0.911C369.427,22.355,369.277,21.98,369.038,22.07z"/>
	<path fill="#E98C24" d="M367.544,19.691l-1.927,1.433c-0.188,0.14,0.033,0.429,0.221,0.289c0.642-0.478,1.284-0.955,1.927-1.433
		C367.954,19.84,367.733,19.551,367.544,19.691z"/>
	<path fill="#E98C24" d="M365.114,17.305c-0.407,0.66-0.814,1.321-1.221,1.981c-0.139,0.226,0.188,0.484,0.329,0.256
		c0.407-0.66,0.814-1.321,1.221-1.981C365.582,17.335,365.255,17.077,365.114,17.305z"/>
	<path fill="#E98C24" d="M346.399,26.833c-0.693,0.059-1.386,0.117-2.078,0.176c-0.266,0.023-0.242,0.438,0.026,0.416
		c0.693-0.059,1.386-0.117,2.078-0.176C346.691,27.226,346.667,26.81,346.399,26.833z"/>
	<path fill="#E98C24" d="M346.616,29.537c-0.763,0.079-1.526,0.158-2.289,0.236c-0.266,0.027-0.242,0.443,0.026,0.416
		c0.763-0.079,1.526-0.158,2.289-0.236C346.907,29.925,346.884,29.509,346.616,29.537z"/>
	<path fill="#E98C24" d="M346.988,31.375c-0.709,0.19-1.418,0.38-2.127,0.57c-0.259,0.069-0.127,0.464,0.132,0.395
		c0.709-0.19,1.418-0.38,2.128-0.57C347.378,31.701,347.246,31.306,346.988,31.375z"/>
	<path fill="#E98C24" d="M348.066,33.205c-0.691,0.319-1.381,0.638-2.072,0.957c-0.241,0.111-0.112,0.508,0.132,0.395
		c0.691-0.319,1.381-0.638,2.072-0.957C348.438,33.489,348.309,33.093,348.066,33.205z"/>
	<path fill="#E98C24" d="M349.096,35.096c-0.517,0.472-1.034,0.944-1.551,1.416c-0.198,0.181,0.112,0.459,0.309,0.28
		c0.517-0.472,1.034-0.944,1.551-1.416C349.603,35.195,349.292,34.917,349.096,35.096z"/>
	<path fill="#E98C24" d="M351.253,36.704c-0.435,0.601-0.87,1.202-1.306,1.803c-0.156,0.215,0.152,0.497,0.309,0.28
		c0.435-0.601,0.87-1.202,1.306-1.803C351.718,36.768,351.41,36.487,351.253,36.704z"/>
</g>
<g>
	<path fill="#E98C24" d="M230.368,31.841c0.45,0.028,0.9,0.104,1.346,0.225c-0.447-0.117-0.901-0.194-1.351-0.222L230.368,31.841z"
		/>
	<path fill="#E98C24" d="M232.421,32.291l-0.001,0.004l-0.004-0.001c-0.117-0.044-0.231-0.083-0.346-0.122
		C232.186,32.206,232.305,32.247,232.421,32.291z"/>
	<g>
		<circle fill="#FEC465" cx="229.439" cy="38.91" r="6.439"/>
		<path fill="#FAA61C" d="M226.875,45.685c-3.736-1.414-5.626-5.604-4.212-9.34s5.604-5.626,9.34-4.212
			c3.736,1.414,5.626,5.604,4.212,9.34C234.801,45.21,230.611,47.099,226.875,45.685z M231.432,33.641
			c-2.905-1.099-6.162,0.37-7.261,3.275s0.37,6.162,3.275,7.261s6.162-0.37,7.261-3.275S234.337,34.74,231.432,33.641z"/>
	</g>
	<g>
		<g>
			<g>
				<path fill="#FAA61C" d="M230.919,40.993c-0.342,0.905-1.182,1.429-2.173,1.398l-0.403,1.064l-1.587-0.601l0.365-0.966
					c-0.424-0.246-0.792-0.57-1.011-0.9l-0.226-0.34l1.162-1.367l0.404,0.566c0.215,0.298,0.557,0.558,0.915,0.694
					c0.267,0.101,0.619,0.118,0.727-0.165c0.043-0.115,0.124-0.328-0.483-0.886c-0.764-0.694-1.489-1.563-1.046-2.735
					c0.327-0.865,1.131-1.367,2.082-1.339l0.392-1.037l1.577,0.597l-0.354,0.935c0.318,0.19,0.587,0.419,0.808,0.692l0.286,0.355
					l-1.177,1.335l-0.406-0.489c-0.109-0.13-0.334-0.404-0.806-0.583c-0.169-0.064-0.473-0.137-0.564,0.103
					c-0.042,0.111-0.088,0.233,0.601,0.88C230.627,38.786,231.404,39.709,230.919,40.993z"/>
			</g>
		</g>
	</g>
	<path fill="#FAA61C" d="M224.684,40.158c-0.28-1.365,0.063-2.754,0.938-3.836c0.092-0.113-0.076-0.266-0.168-0.152
		c-0.931,1.152-1.282,2.61-0.986,4.06C224.498,40.372,224.713,40.299,224.684,40.158z"/>
	<path fill="#FAA61C" d="M228.649,33.924c-0.925,0.246-1.768,0.687-2.497,1.306c-0.11,0.093,0.013,0.284,0.124,0.19
		c0.715-0.608,1.537-1.039,2.445-1.281C228.861,34.102,228.79,33.887,228.649,33.924z"/>
	<path fill="#FAA61C" d="M234.404,37.337c-0.034-0.142-0.249-0.07-0.215,0.072c0.394,1.618,0.019,3.314-1.019,4.617
		c-0.091,0.114,0.077,0.267,0.168,0.152C234.43,40.806,234.819,39.039,234.404,37.337z"/>
	<path fill="#FAA61C" d="M232.534,42.589c-0.612,0.606-1.352,1.029-2.183,1.255c-0.141,0.038-0.069,0.253,0.072,0.215
		c0.868-0.236,1.64-0.685,2.279-1.318C232.806,42.639,232.638,42.487,232.534,42.589z"/>
	<path fill="#FAA61C" d="M233.049,40.979c-0.212,0.522-0.532,0.973-0.956,1.344c-0.11,0.096,0.057,0.25,0.166,0.155
		c0.437-0.383,0.772-0.852,0.99-1.391C233.302,40.952,233.103,40.844,233.049,40.979z"/>
	<path fill="#E98C24" d="M227.263,44.23c-0.148,0.435-0.295,0.869-0.443,1.304c-0.047,0.138,0.175,0.183,0.222,0.047
		c0.148-0.435,0.295-0.869,0.443-1.304C227.532,44.139,227.31,44.093,227.263,44.23z"/>
	<path fill="#E98C24" d="M229.054,44.614c0.022-0.144-0.2-0.191-0.222-0.047c-0.069,0.457-0.139,0.915-0.208,1.372
		c-0.022,0.144,0.2,0.191,0.222,0.047C228.915,45.528,228.985,45.071,229.054,44.614z"/>
	<path fill="#E98C24" d="M230.724,45.961c-0.044-0.469-0.088-0.938-0.132-1.407c-0.014-0.145-0.24-0.132-0.226,0.014
		c0.044,0.469,0.088,0.938,0.132,1.407C230.511,46.12,230.737,46.107,230.724,45.961z"/>
	<path fill="#E98C24" d="M232.251,45.473c-0.121-0.443-0.242-0.885-0.363-1.328c-0.036-0.132-0.237-0.064-0.201,0.068
		c0.121,0.443,0.242,0.885,0.363,1.328C232.086,45.672,232.287,45.605,232.251,45.473z"/>
	<path fill="#E98C24" d="M233.592,44.683l-0.665-1.078c-0.065-0.105-0.225,0.002-0.16,0.107c0.222,0.359,0.443,0.719,0.665,1.078
		C233.497,44.896,233.657,44.788,233.592,44.683z"/>
	<path fill="#E98C24" d="M234.933,43.388c-0.342-0.248-0.684-0.495-1.026-0.743c-0.117-0.085-0.27,0.082-0.152,0.168
		c0.342,0.248,0.684,0.495,1.026,0.743C234.898,43.641,235.051,43.473,234.933,43.388z"/>
	<path fill="#E98C24" d="M235.904,41.692c-0.431-0.108-0.862-0.216-1.292-0.324c-0.123-0.031-0.172,0.19-0.049,0.221
		c0.431,0.108,0.862,0.216,1.292,0.324C235.978,41.945,236.027,41.723,235.904,41.692z"/>
	<path fill="#E98C24" d="M236.446,40.039c-0.472-0.02-0.943-0.039-1.415-0.059c-0.145-0.006-0.131,0.22,0.014,0.226
		c0.472,0.02,0.943,0.039,1.415,0.059C236.605,40.271,236.59,40.045,236.446,40.039z"/>
	<path fill="#FAA61C" d="M226.014,37.173c0.217-0.52,0.541-0.968,0.969-1.335c0.111-0.095-0.054-0.251-0.164-0.156
		c-0.441,0.379-0.78,0.845-1.003,1.382C225.76,37.197,225.958,37.308,226.014,37.173z"/>
	<path fill="#E98C24" d="M232.069,33.751c0.178-0.423,0.356-0.846,0.534-1.269c0.056-0.134-0.162-0.195-0.218-0.062
		c-0.178,0.423-0.356,0.846-0.534,1.269C231.794,33.823,232.013,33.884,232.069,33.751z"/>
	<path fill="#E98C24" d="M230.306,33.251c-0.032,0.142,0.186,0.205,0.218,0.062c0.101-0.451,0.203-0.903,0.304-1.354
		c0.032-0.142-0.186-0.205-0.218-0.062C230.509,32.349,230.408,32.8,230.306,33.251z"/>
	<path fill="#E98C24" d="M228.631,31.861c0.013,0.425,0.027,0.851,0.04,1.276c0.004,0.131,0.213,0.136,0.209,0.004
		c-0.013-0.425-0.027-0.851-0.04-1.276C228.836,31.733,228.627,31.729,228.631,31.861z"/>
	<path fill="#E98C24" d="M227.087,32.148c0.083,0.455,0.167,0.911,0.25,1.366c0.025,0.136,0.228,0.08,0.204-0.056
		c-0.083-0.455-0.167-0.911-0.25-1.366C227.265,31.956,227.062,32.012,227.087,32.148z"/>
	<path fill="#E98C24" d="M225.651,32.873l0.665,1.211c0.065,0.118,0.248,0.018,0.183-0.1c-0.222-0.404-0.443-0.807-0.665-1.211
		C225.77,32.654,225.587,32.754,225.651,32.873z"/>
	<path fill="#E98C24" d="M224.229,34.059c0.324,0.271,0.647,0.542,0.971,0.813c0.111,0.093,0.276-0.063,0.164-0.157
		c-0.324-0.271-0.647-0.542-0.971-0.813C224.282,33.809,224.118,33.965,224.229,34.059z"/>
	<path fill="#E98C24" d="M223.104,35.742c0.441,0.145,0.882,0.291,1.323,0.436c0.126,0.042,0.19-0.176,0.064-0.217
		c-0.441-0.145-0.882-0.291-1.323-0.436C223.041,35.483,222.978,35.701,223.104,35.742z"/>
	<path fill="#E98C24" d="M222.498,37.412c0.469,0.053,0.938,0.106,1.407,0.158c0.145,0.016,0.146-0.211,0.002-0.227
		c-0.469-0.053-0.938-0.106-1.407-0.158C222.356,37.169,222.354,37.395,222.498,37.412z"/>
	<path fill="#E98C24" d="M235.197,39.245c0.457-0.046,0.913-0.092,1.37-0.138c0.145-0.015,0.094-0.236-0.049-0.221
		c-0.457,0.046-0.913,0.092-1.37,0.138C235.002,39.038,235.053,39.259,235.197,39.245z"/>
	<path fill="#E98C24" d="M236.422,37.396c-0.464,0.079-0.929,0.158-1.393,0.237c-0.143,0.024-0.114,0.249,0.031,0.225
		c0.464-0.079,0.929-0.158,1.393-0.237C236.596,37.597,236.566,37.372,236.422,37.396z"/>
	<path fill="#E98C24" d="M235.933,35.914c-0.437,0.165-0.874,0.33-1.311,0.496c-0.13,0.049-0.049,0.254,0.081,0.205
		c0.437-0.165,0.874-0.33,1.311-0.496C236.145,36.069,236.064,35.865,235.933,35.914z"/>
	<path fill="#E98C24" d="M235.12,34.619l-1.049,0.78c-0.102,0.076,0.018,0.234,0.12,0.157c0.35-0.26,0.699-0.52,1.049-0.78
		C235.343,34.7,235.223,34.543,235.12,34.619z"/>
	<path fill="#E98C24" d="M233.798,33.321c-0.221,0.359-0.443,0.719-0.664,1.078c-0.076,0.123,0.102,0.263,0.179,0.139
		c0.221-0.359,0.443-0.719,0.664-1.078C234.053,33.337,233.874,33.197,233.798,33.321z"/>
	<path fill="#E98C24" d="M223.611,38.506c-0.377,0.032-0.754,0.064-1.131,0.096c-0.145,0.012-0.132,0.239,0.014,0.226
		c0.377-0.032,0.754-0.064,1.131-0.096C223.77,38.721,223.757,38.494,223.611,38.506z"/>
	<path fill="#E98C24" d="M223.729,39.978c-0.415,0.043-0.831,0.086-1.246,0.129c-0.145,0.015-0.132,0.241,0.014,0.226
		c0.415-0.043,0.831-0.086,1.246-0.129C223.888,40.19,223.875,39.963,223.729,39.978z"/>
	<path fill="#E98C24" d="M223.932,40.979c-0.386,0.103-0.772,0.207-1.158,0.31c-0.141,0.038-0.069,0.253,0.072,0.215
		c0.386-0.103,0.772-0.207,1.158-0.31C224.144,41.156,224.072,40.941,223.932,40.979z"/>
	<path fill="#E98C24" d="M224.518,41.975c-0.376,0.174-0.752,0.347-1.128,0.521c-0.131,0.061-0.061,0.276,0.072,0.215
		c0.376-0.174,0.752-0.347,1.128-0.521C224.721,42.129,224.651,41.914,224.518,41.975z"/>
	<path fill="#E98C24" d="M225.079,43.004c-0.281,0.257-0.563,0.514-0.844,0.77c-0.108,0.099,0.061,0.25,0.168,0.152
		c0.281-0.257,0.563-0.514,0.844-0.77C225.355,43.058,225.186,42.907,225.079,43.004z"/>
	<path fill="#E98C24" d="M226.253,43.879c-0.237,0.327-0.474,0.654-0.711,0.981c-0.085,0.117,0.082,0.27,0.168,0.152
		c0.237-0.327,0.474-0.654,0.711-0.981C226.506,43.914,226.339,43.761,226.253,43.879z"/>
</g>
<g>
	<path fill="#E98C24" d="M379.952,47.894c0.467-0.389,0.976-0.732,1.524-1.026c-0.546,0.299-1.06,0.644-1.527,1.033L379.952,47.894z
		"/>
	<path fill="#E98C24" d="M382.377,46.433l0.002,0.005l-0.005,0.002c-0.155,0.065-0.303,0.133-0.451,0.201
		C382.068,46.568,382.221,46.498,382.377,46.433z"/>
	<g>
		<circle fill="#FEC465" cx="385.586" cy="55.666" r="8.67"/>
		<path fill="#FAA61C" d="M389.351,64.666c-4.963,2.076-10.689-0.272-12.765-5.235s0.272-10.689,5.235-12.765
			c4.962-2.076,10.689,0.272,12.765,5.235S394.313,62.59,389.351,64.666z M382.659,48.669c-3.858,1.614-5.684,6.066-4.07,9.924
			c1.614,3.858,6.066,5.684,9.924,4.07c3.858-1.614,5.684-6.066,4.07-9.924C390.969,48.882,386.517,47.056,382.659,48.669z"/>
	</g>
	<g>
		<g>
			<g>
				<path fill="#FAA61C" d="M388.962,56.334c0.503,1.202,0.167,2.491-0.832,3.379l0.591,1.413l-2.108,0.882l-0.537-1.283
					c-0.642,0.153-1.302,0.176-1.821,0.056l-0.536-0.123l-0.129-2.413l0.918,0.18c0.486,0.092,1.061,0.03,1.537-0.169
					c0.354-0.148,0.715-0.457,0.558-0.834c-0.064-0.153-0.182-0.435-1.292-0.419c-1.39,0.028-2.904-0.15-3.555-1.707
					c-0.48-1.148-0.159-2.384,0.796-3.237l-0.576-1.377l2.095-0.876l0.52,1.242c0.487-0.109,0.961-0.133,1.43-0.071l0.609,0.083
					l0.085,2.394l-0.85-0.103c-0.227-0.026-0.7-0.087-1.328,0.176c-0.224,0.094-0.589,0.305-0.456,0.623
					c0.062,0.148,0.129,0.31,1.403,0.304C386.633,54.446,388.249,54.629,388.962,56.334z"/>
			</g>
		</g>
	</g>
	<path fill="#FAA61C" d="M382.091,61.288c-1.537-1.076-2.487-2.752-2.633-4.62c-0.015-0.195-0.321-0.19-0.305,0.007
		c0.155,1.988,1.162,3.74,2.794,4.883C382.108,61.67,382.251,61.4,382.091,61.288z"/>
	<path fill="#FAA61C" d="M380.199,51.522c-0.676,1.097-1.093,2.308-1.233,3.589c-0.021,0.193,0.276,0.266,0.297,0.071
		c0.137-1.257,0.541-2.44,1.205-3.516C380.571,51.499,380.302,51.355,380.199,51.522z"/>
	<path fill="#FAA61C" d="M388.986,49.532c-0.165-0.107-0.308,0.163-0.144,0.269c1.883,1.218,3.086,3.224,3.277,5.458
		c0.017,0.195,0.322,0.189,0.305-0.007C392.224,52.901,390.967,50.813,388.986,49.532z"/>
	<path fill="#FAA61C" d="M392.02,56.4c-0.038,1.159-0.37,2.258-0.974,3.248c-0.102,0.168,0.167,0.312,0.269,0.144
		c0.63-1.034,0.97-2.189,1.01-3.398C392.331,56.196,392.026,56.204,392.02,56.4z"/>
	<path fill="#FAA61C" d="M391.032,54.349c0.276,0.707,0.38,1.444,0.309,2.2c-0.018,0.196,0.287,0.192,0.305-0.002
		c0.073-0.779-0.034-1.548-0.319-2.277C391.256,54.088,390.96,54.166,391.032,54.349z"/>
	<path fill="#E98C24" d="M388.383,62.883c0.258,0.562,0.516,1.123,0.774,1.685c0.082,0.178,0.341,0.017,0.26-0.16
		c-0.258-0.562-0.516-1.123-0.774-1.685C388.562,62.545,388.302,62.707,388.383,62.883z"/>
	<path fill="#E98C24" d="M390.49,61.601c-0.112-0.161-0.373-0.002-0.26,0.16c0.356,0.511,0.711,1.023,1.067,1.534
		c0.112,0.161,0.373,0.002,0.26-0.16C391.201,62.624,390.845,62.112,390.49,61.601z"/>
	<path fill="#E98C24" d="M393.37,61.373c-0.477-0.418-0.955-0.836-1.432-1.254c-0.147-0.129-0.357,0.093-0.208,0.223
		c0.477,0.418,0.955,0.836,1.432,1.254C393.309,61.725,393.518,61.503,393.37,61.373z"/>
	<path fill="#E98C24" d="M394.412,59.482c-0.528-0.321-1.056-0.642-1.584-0.963c-0.158-0.096-0.291,0.157-0.134,0.252
		c0.528,0.321,1.056,0.642,1.584,0.963C394.435,59.83,394.569,59.577,394.412,59.482z"/>
	<path fill="#E98C24" d="M394.992,57.468l-1.648-0.439c-0.161-0.043-0.218,0.21-0.057,0.253c0.549,0.146,1.099,0.293,1.648,0.439
		C395.096,57.764,395.153,57.511,394.992,57.468z"/>
	<path fill="#E98C24" d="M395.105,54.96c-0.564,0.074-1.127,0.149-1.691,0.223c-0.193,0.025-0.188,0.331,0.007,0.305
		c0.564-0.074,1.127-0.149,1.691-0.223C395.304,55.24,395.299,54.934,395.105,54.96z"/>
	<path fill="#E98C24" d="M394.484,52.404c-0.521,0.293-1.043,0.586-1.564,0.879c-0.149,0.084,0.008,0.345,0.157,0.262
		c0.521-0.293,1.043-0.586,1.564-0.879C394.791,52.581,394.633,52.32,394.484,52.404z"/>
	<path fill="#E98C24" d="M393.484,50.285c-0.479,0.417-0.959,0.835-1.438,1.252c-0.148,0.129,0.076,0.337,0.223,0.208
		c0.479-0.417,0.959-0.835,1.438-1.252C393.855,50.365,393.631,50.157,393.484,50.285z"/>
	<path fill="#FAA61C" d="M380.63,57.138c-0.27-0.71-0.366-1.447-0.288-2.202c0.02-0.195-0.285-0.195-0.305-0.001
		c-0.081,0.778,0.02,1.548,0.298,2.28C380.403,57.397,380.699,57.322,380.63,57.138z"/>
	<path fill="#E98C24" d="M383.383,48.187c-0.218-0.578-0.435-1.157-0.653-1.735c-0.069-0.183-0.339-0.041-0.271,0.141
		c0.218,0.578,0.435,1.157,0.653,1.735C383.181,48.512,383.452,48.369,383.383,48.187z"/>
	<path fill="#E98C24" d="M381.197,49.33c0.1,0.168,0.372,0.028,0.271-0.141c-0.319-0.535-0.637-1.07-0.956-1.606
		c-0.1-0.168-0.371-0.028-0.271,0.141C380.56,48.259,380.878,48.795,381.197,49.33z"/>
	<path fill="#E98C24" d="M378.272,49.521c0.407,0.403,0.814,0.807,1.221,1.21c0.126,0.125,0.334-0.064,0.207-0.19
		c-0.407-0.403-0.814-0.807-1.221-1.21C378.354,49.207,378.145,49.395,378.272,49.521z"/>
	<path fill="#E98C24" d="M377.027,51.231c0.503,0.368,1.006,0.736,1.509,1.104c0.15,0.11,0.297-0.134,0.147-0.243
		c-0.503-0.368-1.006-0.736-1.509-1.104C377.024,50.878,376.877,51.122,377.027,51.231z"/>
	<path fill="#E98C24" d="M376.294,53.268l1.771,0.569c0.173,0.056,0.26-0.212,0.087-0.268c-0.59-0.19-1.181-0.379-1.771-0.569
		C376.208,52.945,376.121,53.213,376.294,53.268z"/>
	<path fill="#E98C24" d="M376.001,55.744c0.567-0.034,1.135-0.069,1.702-0.103c0.194-0.012,0.211-0.317,0.015-0.305
		c-0.567,0.034-1.135,0.069-1.702,0.103C375.822,55.451,375.806,55.756,376.001,55.744z"/>
	<path fill="#E98C24" d="M376.459,58.433c0.566-0.266,1.132-0.532,1.698-0.799c0.162-0.076,0.023-0.348-0.139-0.272
		c-0.566,0.266-1.132,0.532-1.698,0.799C376.158,58.238,376.297,58.509,376.459,58.433z"/>
	<path fill="#E98C24" d="M377.412,60.626c0.508-0.382,1.015-0.765,1.523-1.147c0.157-0.118-0.052-0.341-0.208-0.224
		c-0.508,0.382-1.015,0.765-1.523,1.147C377.048,60.52,377.256,60.743,377.412,60.626z"/>
	<path fill="#E98C24" d="M391.527,50.665c0.404-0.468,0.808-0.935,1.212-1.403c0.128-0.148-0.126-0.318-0.253-0.171
		c-0.404,0.468-0.808,0.935-1.212,1.403C391.146,50.643,391.4,50.812,391.527,50.665z"/>
	<path fill="#E98C24" d="M391.015,47.723c-0.381,0.507-0.762,1.014-1.144,1.521c-0.118,0.157,0.119,0.349,0.238,0.191
		c0.381-0.507,0.762-1.014,1.144-1.521C391.37,47.758,391.133,47.565,391.015,47.723z"/>
	<path fill="#E98C24" d="M389.165,46.726c-0.275,0.566-0.549,1.132-0.824,1.699c-0.082,0.169,0.187,0.294,0.269,0.125
		c0.275-0.566,0.549-1.132,0.824-1.699C389.516,46.682,389.247,46.557,389.165,46.726z"/>
	<path fill="#E98C24" d="M387.171,46.211l-0.304,1.733c-0.03,0.169,0.234,0.212,0.263,0.043c0.101-0.578,0.202-1.156,0.304-1.733
		C387.464,46.085,387.201,46.042,387.171,46.211z"/>
	<path fill="#E98C24" d="M384.676,46.166c0.116,0.557,0.232,1.113,0.348,1.67c0.04,0.191,0.344,0.163,0.304-0.029
		c-0.116-0.557-0.232-1.113-0.348-1.67C384.94,45.946,384.636,45.974,384.676,46.166z"/>
	<path fill="#E98C24" d="M379.514,60.666c-0.339,0.38-0.679,0.76-1.018,1.141c-0.13,0.146,0.092,0.356,0.223,0.208
		c0.339-0.38,0.679-0.76,1.018-1.141C379.867,60.729,379.645,60.519,379.514,60.666z"/>
	<path fill="#E98C24" d="M380.992,61.996c-0.366,0.426-0.733,0.853-1.099,1.279c-0.128,0.148,0.095,0.358,0.223,0.208
		c0.366-0.426,0.733-0.853,1.099-1.279C381.342,62.056,381.12,61.847,380.992,61.996z"/>
	<path fill="#E98C24" d="M382.116,62.788c-0.282,0.458-0.564,0.917-0.845,1.375c-0.103,0.167,0.166,0.311,0.269,0.144
		c0.282-0.458,0.564-0.917,0.845-1.375C382.488,62.764,382.219,62.621,382.116,62.788z"/>
	<path fill="#E98C24" d="M383.611,63.219c-0.207,0.518-0.414,1.036-0.62,1.553c-0.072,0.18,0.196,0.327,0.269,0.144
		c0.207-0.518,0.414-1.036,0.62-1.553C383.953,63.182,383.684,63.036,383.611,63.219z"/>
	<path fill="#E98C24" d="M385.113,63.706c-0.037,0.512-0.075,1.023-0.112,1.535c-0.014,0.196,0.291,0.188,0.305-0.007
		c0.037-0.512,0.075-1.023,0.112-1.535C385.432,63.503,385.127,63.512,385.113,63.706z"/>
	<path fill="#E98C24" d="M387.071,63.475c0.071,0.539,0.142,1.078,0.214,1.618c0.025,0.193,0.331,0.188,0.305-0.007
		c-0.071-0.539-0.142-1.078-0.214-1.618C387.35,63.275,387.045,63.28,387.071,63.475z"/>
</g>
<g>
	<path fill="#E98C24" d="M236.364,61.019c0.362,0.382,0.687,0.804,0.971,1.262c-0.288-0.455-0.615-0.882-0.977-1.264L236.364,61.019
		z"/>
	<path fill="#E98C24" d="M237.761,63.035l-0.004,0.002l-0.002-0.004c-0.065-0.131-0.131-0.255-0.198-0.379
		C237.627,62.776,237.696,62.905,237.761,63.035z"/>
	<g>
		<circle fill="#FEC465" cx="229.953" cy="66.318" r="7.512"/>
		<path fill="#FAA61C" d="M222.379,70.068c-2.068-4.177-0.352-9.257,3.825-11.325s9.257-0.352,11.325,3.825
			s0.352,9.257-3.825,11.325C229.527,75.961,224.446,74.245,222.379,70.068z M235.842,63.403c-1.607-3.247-5.557-4.581-8.804-2.973
			c-3.247,1.607-4.581,5.557-2.973,8.804c1.607,3.247,5.557,4.581,8.804,2.973C236.116,70.6,237.45,66.65,235.842,63.403z"/>
	</g>
	<g>
		<g>
			<g>
				<path fill="#FAA61C" d="M229.562,69.274c-1.012,0.501-2.145,0.282-2.967-0.534l-1.189,0.589l-0.878-1.774l1.08-0.535
					c-0.167-0.547-0.224-1.116-0.148-1.572l0.077-0.471l2.079-0.244l-0.105,0.804c-0.053,0.426,0.032,0.919,0.23,1.32
					c0.148,0.298,0.435,0.593,0.752,0.436c0.128-0.064,0.366-0.181,0.291-1.141c-0.101-1.2-0.03-2.519,1.28-3.167
					c0.966-0.478,2.053-0.269,2.843,0.51l1.159-0.574l0.873,1.763l-1.046,0.518c0.121,0.415,0.168,0.824,0.14,1.233l-0.038,0.531
					l-2.066,0.205l0.042-0.74c0.01-0.198,0.036-0.61-0.225-1.139c-0.093-0.189-0.296-0.493-0.564-0.36
					c-0.125,0.062-0.26,0.129-0.186,1.229C231.066,67.156,230.997,68.563,229.562,69.274z"/>
			</g>
		</g>
	</g>
	<path fill="#FAA61C" d="M224.9,63.605c0.846-1.388,2.243-2.302,3.85-2.531c0.168-0.024,0.146-0.288-0.022-0.264
		c-1.711,0.244-3.17,1.21-4.068,2.685C224.571,63.641,224.812,63.749,224.9,63.605z"/>
	<path fill="#FAA61C" d="M233.241,61.432c-0.985-0.525-2.056-0.819-3.171-0.869c-0.168-0.008-0.215,0.253-0.045,0.261
		c1.094,0.049,2.139,0.334,3.107,0.849C233.281,61.753,233.391,61.512,233.241,61.432z"/>
	<path fill="#FAA61C" d="M235.445,68.921c0.083-0.148-0.158-0.258-0.241-0.11c-0.95,1.695-2.618,2.846-4.539,3.134
		c-0.168,0.025-0.146,0.289,0.022,0.264C232.709,71.905,234.445,70.704,235.445,68.921z"/>
	<path fill="#FAA61C" d="M229.673,71.921c-1.005,0.031-1.972-0.196-2.862-0.663c-0.151-0.079-0.26,0.162-0.11,0.241
		c0.929,0.488,1.946,0.718,2.994,0.686C229.866,72.18,229.842,71.916,229.673,71.921z"/>
	<path fill="#FAA61C" d="M231.392,70.954c-0.596,0.278-1.228,0.408-1.885,0.388c-0.17-0.005-0.15,0.259,0.018,0.264
		c0.678,0.021,1.337-0.115,1.951-0.401C231.63,71.133,231.546,70.882,231.392,70.954z"/>
	<path fill="#E98C24" d="M223.867,69.134c-0.471,0.254-0.943,0.508-1.414,0.762c-0.15,0.081,0.004,0.296,0.152,0.216
		c0.471-0.254,0.943-0.508,1.414-0.762C224.169,69.269,224.015,69.054,223.867,69.134z"/>
	<path fill="#E98C24" d="M225.092,70.884c0.133-0.105-0.019-0.322-0.152-0.216c-0.423,0.336-0.845,0.671-1.268,1.007
		c-0.133,0.105,0.019,0.322,0.152,0.216C224.246,71.555,224.669,71.22,225.092,70.884z"/>
	<path fill="#E98C24" d="M225.447,73.362c0.335-0.436,0.67-0.871,1.005-1.307c0.103-0.134-0.1-0.303-0.204-0.168
		c-0.335,0.436-0.67,0.871-1.005,1.307C225.139,73.329,225.343,73.498,225.447,73.362z"/>
	<path fill="#E98C24" d="M227.14,74.159c0.249-0.474,0.497-0.948,0.746-1.422c0.074-0.141-0.151-0.243-0.225-0.102
		c-0.249,0.474-0.497,0.948-0.746,1.422C226.84,74.198,227.066,74.3,227.14,74.159z"/>
	<path fill="#E98C24" d="M228.913,74.55l0.289-1.45c0.028-0.142-0.194-0.177-0.222-0.036c-0.096,0.483-0.193,0.966-0.289,1.45
		C228.662,74.656,228.884,74.692,228.913,74.55z"/>
	<path fill="#E98C24" d="M231.087,74.51c-0.095-0.483-0.191-0.966-0.286-1.45c-0.033-0.166-0.296-0.144-0.264,0.022
		c0.095,0.483,0.191,0.966,0.286,1.45C230.856,74.698,231.12,74.677,231.087,74.51z"/>
	<path fill="#E98C24" d="M233.264,73.833c-0.282-0.435-0.564-0.869-0.846-1.304c-0.081-0.124-0.298,0.026-0.217,0.15
		c0.282,0.435,0.564,0.869,0.846,1.304C233.127,74.107,233.344,73.957,233.264,73.833z"/>
	<path fill="#E98C24" d="M235.04,72.851c-0.387-0.391-0.775-0.783-1.162-1.174c-0.119-0.121-0.287,0.084-0.168,0.204
		c0.387,0.391,0.775,0.783,1.162,1.174C234.992,73.176,235.159,72.971,235.04,72.851z"/>
	<path fill="#FAA61C" d="M228.408,62.113c0.599-0.272,1.231-0.396,1.889-0.37c0.17,0.007,0.153-0.257-0.016-0.264
		c-0.677-0.027-1.338,0.102-1.955,0.383C228.172,61.932,228.253,62.184,228.408,62.113z"/>
	<path fill="#E98C24" d="M236.299,64.002c0.488-0.22,0.976-0.44,1.464-0.66c0.155-0.07,0.017-0.296-0.137-0.226
		c-0.488,0.22-0.976,0.44-1.464,0.66C236.007,63.846,236.145,64.071,236.299,64.002z"/>
	<path fill="#E98C24" d="M235.191,62.174c-0.14,0.096-0.004,0.323,0.137,0.226c0.445-0.305,0.891-0.61,1.336-0.915
		c0.14-0.096,0.004-0.323-0.137-0.226C236.081,61.565,235.636,61.87,235.191,62.174z"/>
	<path fill="#E98C24" d="M234.865,59.656c-0.326,0.374-0.653,0.748-0.98,1.122c-0.101,0.115,0.074,0.285,0.175,0.169
		c0.327-0.374,0.653-0.748,0.98-1.122C235.141,59.71,234.966,59.54,234.865,59.656z"/>
	<path fill="#E98C24" d="M233.318,58.674c-0.291,0.455-0.581,0.91-0.872,1.365c-0.087,0.136,0.132,0.249,0.218,0.114
		c0.291-0.455,0.581-0.91,0.872-1.365C233.623,58.652,233.404,58.538,233.318,58.674z"/>
	<path fill="#E98C24" d="M231.516,58.152l-0.395,1.562c-0.039,0.153,0.198,0.213,0.236,0.06c0.132-0.521,0.263-1.042,0.395-1.562
		C231.791,58.06,231.554,58,231.516,58.152z"/>
	<path fill="#E98C24" d="M229.359,58.035c0.061,0.489,0.122,0.978,0.183,1.466c0.021,0.167,0.286,0.165,0.264-0.004
		c-0.061-0.489-0.122-0.978-0.183-1.466C229.603,57.864,229.338,57.866,229.359,58.035z"/>
	<path fill="#E98C24" d="M227.059,58.578c0.261,0.475,0.523,0.949,0.784,1.424c0.075,0.136,0.302,0.001,0.227-0.135
		c-0.261-0.475-0.523-0.949-0.784-1.424C227.212,58.307,226.985,58.443,227.059,58.578z"/>
	<path fill="#E98C24" d="M225.216,59.523c0.359,0.418,0.717,0.836,1.076,1.254c0.111,0.129,0.292-0.064,0.182-0.192
		c-0.359-0.418-0.717-0.836-1.076-1.254C225.287,59.202,225.106,59.395,225.216,59.523z"/>
	<path fill="#E98C24" d="M234.605,71.18c0.426,0.324,0.853,0.647,1.279,0.971c0.135,0.103,0.268-0.126,0.134-0.228
		c-0.426-0.324-0.853-0.647-1.279-0.971C234.603,70.849,234.47,71.078,234.605,71.18z"/>
	<path fill="#E98C24" d="M237.12,70.575c-0.459-0.302-0.919-0.603-1.378-0.905c-0.142-0.093-0.295,0.123-0.152,0.216
		c0.459,0.302,0.919,0.604,1.378,0.905C237.11,70.885,237.263,70.669,237.12,70.575z"/>
	<path fill="#E98C24" d="M237.881,68.921c-0.505-0.206-1.009-0.413-1.514-0.619c-0.151-0.062-0.244,0.178-0.093,0.239
		c0.505,0.206,1.009,0.413,1.514,0.619C237.938,69.222,238.031,68.983,237.881,68.921z"/>
	<path fill="#E98C24" d="M238.216,67.169l-1.515-0.167c-0.148-0.016-0.17,0.214-0.022,0.23c0.505,0.056,1.01,0.111,1.515,0.167
		C238.341,67.415,238.364,67.185,238.216,67.169z"/>
	<path fill="#E98C24" d="M238.118,65.009c-0.475,0.131-0.95,0.262-1.424,0.393c-0.163,0.045-0.122,0.306,0.042,0.261
		c0.475-0.131,0.95-0.262,1.424-0.393C238.323,65.225,238.282,64.963,238.118,65.009z"/>
	<path fill="#E98C24" d="M225.296,61.343c-0.347-0.272-0.695-0.545-1.042-0.817c-0.134-0.105-0.302,0.099-0.168,0.204
		c0.347,0.272,0.695,0.545,1.042,0.817C225.262,61.652,225.431,61.448,225.296,61.343z"/>
	<path fill="#E98C24" d="M224.227,62.694c-0.389-0.293-0.778-0.587-1.166-0.88c-0.135-0.102-0.304,0.101-0.168,0.204
		c0.389,0.293,0.778,0.587,1.166,0.88C224.195,63,224.364,62.796,224.227,62.694z"/>
	<path fill="#E98C24" d="M223.605,63.709c-0.412-0.218-0.824-0.437-1.235-0.655c-0.15-0.08-0.26,0.161-0.11,0.241
		c0.412,0.218,0.824,0.437,1.235,0.655C223.646,64.03,223.755,63.789,223.605,63.709z"/>
	<path fill="#E98C24" d="M223.315,65.026c-0.459-0.15-0.918-0.301-1.377-0.451c-0.16-0.052-0.272,0.188-0.11,0.241
		c0.459,0.15,0.918,0.301,1.377,0.451C223.365,65.319,223.477,65.079,223.315,65.026z"/>
	<path fill="#E98C24" d="M222.976,66.351c-0.444-0.004-0.889-0.008-1.333-0.013c-0.17-0.002-0.146,0.262,0.022,0.264
		c0.444,0.004,0.889,0.008,1.333,0.013C223.169,66.616,223.145,66.353,222.976,66.351z"/>
	<path fill="#E98C24" d="M223.283,68.031c-0.462,0.091-0.925,0.182-1.387,0.274c-0.166,0.033-0.144,0.296,0.022,0.264
		c0.462-0.091,0.925-0.182,1.387-0.274C223.471,68.262,223.45,67.998,223.283,68.031z"/>
</g>
<g>
	<path fill="#E98C24" d="M152.968,1.133c1.513,0.095,3.023,0.348,4.519,0.755c-1.501-0.394-3.024-0.652-4.536-0.747L152.968,1.133z"
		/>
	<path fill="#E98C24" d="M159.864,2.642l-0.005,0.013l-0.013-0.005c-0.392-0.148-0.777-0.279-1.162-0.411
		C159.075,2.358,159.472,2.494,159.864,2.642z"/>
	<g>
		<circle fill="#FEC465" cx="149.85" cy="24.866" r="21.619"/>
		<path fill="#FAA61C" d="M141.241,47.617c-12.545-4.747-18.89-18.815-14.143-31.36c4.747-12.545,18.815-18.89,31.36-14.143
			c12.545,4.747,18.89,18.815,14.143,31.36C167.855,46.019,153.787,52.363,141.241,47.617z M156.542,7.177
			c-9.753-3.69-20.69,1.243-24.38,10.995c-3.69,9.753,1.243,20.69,10.995,24.38c9.753,3.69,20.69-1.243,24.38-10.995
			C171.228,21.805,166.295,10.867,156.542,7.177z"/>
	</g>
	<g>
		<g>
			<g>
				<path fill="#FAA61C" d="M154.819,31.86c-1.15,3.039-3.967,4.799-7.298,4.692l-1.351,3.572l-5.33-2.016l1.227-3.243
					c-1.425-0.824-2.659-1.914-3.394-3.021l-0.76-1.143l3.902-4.59l1.355,1.9c0.724,1,1.87,1.874,3.072,2.329
					c0.896,0.339,2.079,0.398,2.439-0.555c0.146-0.386,0.416-1.1-1.623-2.973c-2.566-2.332-5.001-5.249-3.512-9.184
					c1.098-2.903,3.798-4.591,6.99-4.498l1.317-3.481l5.296,2.004l-1.188,3.141c1.068,0.637,1.97,1.406,2.712,2.322l0.961,1.193
					l-3.951,4.481l-1.362-1.643c-0.366-0.437-1.12-1.357-2.707-1.958c-0.567-0.215-1.589-0.459-1.894,0.346
					c-0.142,0.374-0.296,0.782,2.019,2.955C153.838,24.45,156.449,27.551,154.819,31.86z"/>
			</g>
		</g>
	</g>
	<path fill="#FAA61C" d="M133.884,29.056c-0.939-4.582,0.213-9.247,3.151-12.88c0.307-0.38-0.256-0.893-0.564-0.511
		c-3.127,3.867-4.306,8.764-3.309,13.632C133.26,29.775,133.982,29.532,133.884,29.056z"/>
	<path fill="#FAA61C" d="M147.197,8.126c-3.105,0.827-5.936,2.305-8.385,4.386c-0.369,0.313,0.043,0.954,0.416,0.638
		c2.402-2.041,5.162-3.49,8.21-4.302C147.911,8.722,147.67,8,147.197,8.126z"/>
	<path fill="#FAA61C" d="M166.523,19.584c-0.116-0.476-0.838-0.234-0.722,0.24c1.322,5.434,0.062,11.128-3.42,15.502
		c-0.304,0.382,0.259,0.895,0.564,0.511C166.61,31.235,167.913,25.301,166.523,19.584z"/>
	<path fill="#FAA61C" d="M160.243,37.221c-2.056,2.034-4.54,3.454-7.33,4.213c-0.473,0.129-0.232,0.851,0.241,0.722
		c2.914-0.793,5.508-2.301,7.654-4.424C161.157,37.387,160.59,36.878,160.243,37.221z"/>
	<path fill="#FAA61C" d="M161.97,31.813c-0.711,1.754-1.787,3.266-3.212,4.513c-0.369,0.323,0.19,0.84,0.556,0.52
		c1.468-1.285,2.592-2.862,3.325-4.671C162.823,31.725,162.154,31.36,161.97,31.813z"/>
	<path fill="#E98C24" d="M142.545,42.73c-0.495,1.459-0.991,2.918-1.486,4.378c-0.157,0.463,0.589,0.616,0.745,0.157
		c0.495-1.459,0.991-2.918,1.486-4.378C143.447,42.424,142.701,42.271,142.545,42.73z"/>
	<path fill="#E98C24" d="M148.558,44.018c0.073-0.482-0.671-0.642-0.745-0.157c-0.233,1.536-0.465,3.071-0.698,4.607
		c-0.073,0.482,0.671,0.642,0.745,0.157C148.092,47.089,148.325,45.554,148.558,44.018z"/>
	<path fill="#E98C24" d="M154.164,48.543c-0.148-1.575-0.296-3.15-0.444-4.725c-0.046-0.486-0.806-0.443-0.76,0.047
		c0.148,1.575,0.296,3.15,0.444,4.725C153.449,49.075,154.21,49.032,154.164,48.543z"/>
	<path fill="#E98C24" d="M159.293,46.903c-0.406-1.486-0.812-2.973-1.218-4.459c-0.121-0.443-0.796-0.216-0.675,0.227
		c0.406,1.486,0.812,2.973,1.218,4.459C158.739,47.573,159.414,47.346,159.293,46.903z"/>
	<path fill="#E98C24" d="M163.795,44.251l-2.233-3.621c-0.218-0.354-0.756,0.006-0.538,0.36c0.744,1.207,1.488,2.414,2.233,3.621
		C163.476,44.965,164.013,44.605,163.795,44.251z"/>
	<path fill="#E98C24" d="M168.298,39.902c-1.148-0.831-2.296-1.663-3.445-2.494c-0.393-0.285-0.908,0.277-0.511,0.564
		c1.148,0.831,2.296,1.663,3.445,2.494C168.18,40.751,168.695,40.189,168.298,39.902z"/>
	<path fill="#E98C24" d="M171.556,34.209c-1.446-0.363-2.893-0.726-4.339-1.089c-0.414-0.104-0.577,0.639-0.164,0.743
		c1.446,0.363,2.893,0.726,4.339,1.089C171.807,35.056,171.97,34.313,171.556,34.209z"/>
	<path fill="#E98C24" d="M173.376,28.657c-1.583-0.066-3.167-0.131-4.75-0.197c-0.488-0.02-0.439,0.74,0.047,0.76
		c1.583,0.066,3.167,0.131,4.75,0.197C173.911,29.437,173.862,28.677,173.376,28.657z"/>
	<path fill="#FAA61C" d="M138.351,19.035c0.728-1.747,1.817-3.249,3.254-4.482c0.372-0.319-0.183-0.842-0.551-0.525
		c-1.48,1.271-2.618,2.838-3.369,4.639C137.497,19.116,138.163,19.487,138.351,19.035z"/>
	<path fill="#E98C24" d="M158.68,7.545c0.597-1.421,1.195-2.841,1.792-4.262c0.189-0.451-0.544-0.656-0.732-0.209
		c-0.597,1.421-1.195,2.841-1.792,4.262C157.758,7.787,158.492,7.992,158.68,7.545z"/>
	<path fill="#E98C24" d="M152.762,5.867c-0.107,0.476,0.624,0.688,0.732,0.209c0.341-1.515,0.681-3.031,1.022-4.546
		c0.107-0.476-0.624-0.688-0.732-0.209C153.443,2.836,153.102,4.351,152.762,5.867z"/>
	<path fill="#E98C24" d="M147.138,1.199c0.045,1.428,0.09,2.856,0.136,4.284c0.014,0.441,0.715,0.456,0.701,0.012
		c-0.045-1.428-0.09-2.856-0.136-4.284C147.824,0.77,147.124,0.755,147.138,1.199z"/>
	<path fill="#E98C24" d="M141.951,2.163c0.28,1.529,0.56,3.058,0.839,4.587c0.083,0.456,0.767,0.267,0.683-0.189
		c-0.28-1.529-0.56-3.058-0.839-4.587C142.552,1.518,141.868,1.707,141.951,2.163z"/>
	<path fill="#E98C24" d="M137.133,4.596l2.231,4.066c0.218,0.397,0.834,0.061,0.616-0.336c-0.744-1.355-1.488-2.71-2.231-4.066
		C137.531,3.863,136.915,4.199,137.133,4.596z"/>
	<path fill="#E98C24" d="M132.359,8.578c1.087,0.91,2.173,1.821,3.26,2.731c0.372,0.312,0.925-0.212,0.55-0.526
		c-1.087-0.91-2.173-1.821-3.26-2.731C132.536,7.74,131.983,8.264,132.359,8.578z"/>
	<path fill="#E98C24" d="M128.578,14.231c1.481,0.488,2.962,0.976,4.443,1.464c0.424,0.14,0.637-0.591,0.214-0.73
		c-1.481-0.488-2.962-0.976-4.443-1.464C128.368,13.361,128.155,14.092,128.578,14.231z"/>
	<path fill="#E98C24" d="M126.546,19.836c1.575,0.177,3.15,0.355,4.725,0.532c0.486,0.055,0.491-0.707,0.007-0.761
		c-1.575-0.177-3.15-0.355-4.724-0.532C126.068,19.02,126.063,19.782,126.546,19.836z"/>
	<path fill="#E98C24" d="M169.182,25.992c1.533-0.154,3.067-0.308,4.6-0.462c0.486-0.049,0.316-0.791-0.166-0.743
		c-1.533,0.154-3.067,0.308-4.6,0.462C168.53,25.298,168.7,26.04,169.182,25.992z"/>
	<path fill="#E98C24" d="M173.296,19.785c-1.559,0.265-3.119,0.53-4.679,0.794c-0.481,0.082-0.382,0.837,0.103,0.754
		c1.56-0.265,3.119-0.53,4.679-0.794C173.881,20.458,173.781,19.703,173.296,19.785z"/>
	<path fill="#E98C24" d="M171.656,14.808c-1.468,0.555-2.936,1.11-4.404,1.664c-0.438,0.165-0.165,0.852,0.272,0.687
		c1.468-0.555,2.936-1.11,4.403-1.664C172.366,15.33,172.094,14.643,171.656,14.808z"/>
	<path fill="#E98C24" d="M168.927,10.459l-3.521,2.619c-0.344,0.256,0.06,0.785,0.404,0.529c1.174-0.873,2.347-1.746,3.521-2.619
		C169.675,10.732,169.271,10.204,168.927,10.459z"/>
	<path fill="#E98C24" d="M164.486,6.1c-0.744,1.207-1.487,2.414-2.231,3.621c-0.255,0.413,0.344,0.885,0.601,0.468
		c0.744-1.207,1.487-2.414,2.231-3.621C165.341,6.155,164.742,5.683,164.486,6.1z"/>
	<path fill="#E98C24" d="M130.282,23.512c-1.266,0.107-2.532,0.214-3.798,0.321c-0.487,0.041-0.443,0.801,0.047,0.76
		c1.266-0.107,2.532-0.214,3.798-0.321C130.816,24.231,130.772,23.471,130.282,23.512z"/>
	<path fill="#E98C24" d="M130.679,28.454c-1.394,0.144-2.789,0.288-4.183,0.432c-0.485,0.05-0.442,0.81,0.047,0.76
		c1.394-0.144,2.789-0.288,4.183-0.432C131.211,29.163,131.168,28.403,130.679,28.454z"/>
	<path fill="#E98C24" d="M131.359,31.814c-1.296,0.347-2.592,0.694-3.888,1.041c-0.473,0.127-0.232,0.849,0.24,0.722
		c1.296-0.347,2.592-0.694,3.888-1.041C132.072,32.409,131.831,31.687,131.359,31.814z"/>
	<path fill="#E98C24" d="M133.329,35.158c-1.262,0.583-2.524,1.166-3.786,1.75c-0.44,0.203-0.205,0.928,0.24,0.722
		c1.262-0.583,2.524-1.166,3.786-1.75C134.009,35.677,133.774,34.952,133.329,35.158z"/>
	<path fill="#E98C24" d="M135.212,38.614c-0.945,0.862-1.889,1.725-2.834,2.587c-0.362,0.331,0.205,0.839,0.564,0.511
		c0.945-0.862,1.889-1.725,2.834-2.587C136.138,38.794,135.571,38.286,135.212,38.614z"/>
	<path fill="#E98C24" d="M139.154,41.551c-0.795,1.098-1.591,2.197-2.386,3.295c-0.285,0.393,0.277,0.908,0.564,0.511
		c0.795-1.098,1.591-2.197,2.386-3.295C140.003,41.669,139.441,41.155,139.154,41.551z"/>
</g>
<path fill="#6BC7B5" fill-opacity="0.5" d="M-25.164,248.522c0,0-2.132,0.099-2.404-2.024c0,0-0.51-1.819,1.202-2.927
	c0,0,5.466-1.731,5.466-6.558V219.87c0,0,0.025-2.463,2.276-2.506c0,0,2.272,0.042,2.272,2.421s0,17.228,0,17.228
	S-15.736,245.28-25.164,248.522z"/>
<path fill="#6BC7B5" fill-opacity="0.5" d="M0.969,248.522c0,0-2.132,0.099-2.404-2.024c0,0-0.51-1.819,1.202-2.927
	c0,0,5.466-1.731,5.466-6.558V219.87c0,0,0.025-2.463,2.276-2.506c0,0,2.272,0.042,2.272,2.421s0,17.228,0,17.228
	S10.397,245.28,0.969,248.522z"/>
<path fill="#6BC7B5" fill-opacity="0.5" d="M398.524,162.652c0,0-2.132,0.099-2.404-2.024c0,0-0.51-1.819,1.202-2.927
	c0,0,5.466-1.731,5.466-6.558V134c0,0,0.025-2.463,2.276-2.506c0,0,2.272,0.042,2.272,2.421s0,17.228,0,17.228
	S407.952,159.41,398.524,162.652z"/>
<path fill="#6BC7B5" fill-opacity="0.5" d="M335.428,151.357c0,1.418-1.15,2.568-2.568,2.568l0,0c-1.418,0-2.568-1.15-2.568-2.568
	v-17.883c0-1.418,1.15-2.568,2.568-2.568l0,0c1.418,0,2.568,1.15,2.568,2.568V151.357z"/>
<circle fill="#5EB0E2" fill-opacity="0.5" cx="38.671" cy="96.376" r="38.643"/>
<circle fill="#0A2142" cx="37.684" cy="96.376" r="22.387"/>
<path fill="#6BC7B5" fill-opacity="0.5" d="M29.614,57.733c0,0,7.157-0.333,8.07,6.797c0,0,1.711,6.107-4.035,9.827
	c0,0-18.352,5.812-18.352,22.02v57.56c0,0-0.085,8.27-7.642,8.413c0,0-7.627-0.143-7.627-8.128s0-57.845,0-57.845
	S-2.042,68.618,29.614,57.733z"/>
<circle fill="#5EB0E2" fill-opacity="0.5" cx="98.715" cy="93.476" r="38.643"/>
<circle fill="#0A2142" cx="97.728" cy="93.476" r="22.387"/>
<path fill="#6BC7B5" fill-opacity="0.5" d="M107.023,160.966c0,0-7.157,0.333-8.07-6.797c0,0-1.711-6.107,4.035-9.827
	c0,0,18.352-5.812,18.352-22.02v-57.56c0,0,0.085-8.27,7.642-8.413c0,0,7.627,0.143,7.627,8.128s0,57.845,0,57.845
	S138.679,150.081,107.023,160.966z"/>
</svg>
