<?xml version="1.0" encoding="utf-8"?>
<!-- Generator: Adobe Illustrator 17.0.0, SVG Export Plug-In . SVG Version: 6.00 Build 0)  -->
<!DOCTYPE svg PUBLIC "-//W3C//DTD SVG 1.1//EN" "http://www.w3.org/Graphics/SVG/1.1/DTD/svg11.dtd">
<svg version="1.1" id="Camada_1" xmlns="http://www.w3.org/2000/svg" xmlns:xlink="http://www.w3.org/1999/xlink" x="0px" y="0px"
	 width="191.501px" height="37.348px" viewBox="0 0 191.501 37.348" enable-background="new 0 0 191.501 37.348"
	 xml:space="preserve">
<path fill="#5EB0E2" fill-opacity="0.5" d="M11.509,6.203C5.153,6.203,0,11.356,0,17.712s5.153,11.509,11.509,11.509
	s11.509-5.153,11.509-11.509S17.865,6.203,11.509,6.203z M11.215,24.38c-3.682,0-6.668-2.985-6.668-6.668s2.985-6.668,6.668-6.668
	s6.668,2.985,6.668,6.668S14.898,24.38,11.215,24.38z"/>
<path fill="#6BC7B5" fill-opacity="0.5" d="M8.812,6.203c0,0,2.132-0.099,2.404,2.024c0,0,0.51,1.819-1.202,2.927
	c0,0-5.466,1.731-5.466,6.558v17.143c0,0-0.025,2.463-2.276,2.506c0,0-2.272-0.042-2.272-2.421c0-2.378,0-17.228,0-17.228
	S-0.616,9.445,8.812,6.203z"/>
<path fill="#5EB0E2" fill-opacity="0.5" d="M146.254,6.203c-6.356,0-11.509,5.153-11.509,11.509s5.153,11.509,11.509,11.509
	s11.509-5.153,11.509-11.509S152.61,6.203,146.254,6.203z M145.96,24.38c-3.682,0-6.668-2.985-6.668-6.668s2.985-6.668,6.668-6.668
	s6.668,2.985,6.668,6.668S149.642,24.38,145.96,24.38z"/>
<path fill="#6BC7B5" fill-opacity="0.5" d="M143.556,6.203c0,0,2.132-0.099,2.404,2.024c0,0,0.51,1.819-1.202,2.927
	c0,0-5.466,1.731-5.466,6.558v17.143c0,0-0.025,2.463-2.276,2.506c0,0-2.272-0.042-2.272-2.421c0-2.378,0-17.228,0-17.228
	S134.128,9.445,143.556,6.203z"/>
<path fill="#5EB0E2" fill-opacity="0.5" d="M179.992,6.203c-6.356,0-11.509,5.153-11.509,11.509s5.153,11.509,11.509,11.509
	s11.509-5.153,11.509-11.509S186.348,6.203,179.992,6.203z M179.698,24.38c-3.682,0-6.668-2.985-6.668-6.668
	s2.985-6.668,6.668-6.668s6.668,2.985,6.668,6.668S183.38,24.38,179.698,24.38z"/>
<path fill="#6BC7B5" fill-opacity="0.5" d="M182.243,37.347c0,0-2.132,0.099-2.404-2.024c0,0-0.51-1.819,1.202-2.927
	c0,0,5.466-1.731,5.466-6.558V8.695c0,0,0.025-2.463,2.276-2.506c0,0,2.272,0.042,2.272,2.421s0,17.228,0,17.228
	S191.671,34.105,182.243,37.347z"/>
<path fill="#5EB0E2" fill-opacity="0.5" d="M88.871,6.203c-6.356,0-11.509,5.153-11.509,11.509s5.153,11.509,11.509,11.509
	s11.509-5.153,11.509-11.509S95.227,6.203,88.871,6.203z M88.577,24.38c-3.682,0-6.668-2.985-6.668-6.668s2.985-6.668,6.668-6.668
	s6.668,2.985,6.668,6.668S92.26,24.38,88.577,24.38z"/>
<path fill="#6BC7B5" fill-opacity="0.5" d="M86.174,6.203c0,0,2.132-0.099,2.404,2.024c0,0,0.51,1.819-1.202,2.927
	c0,0-5.466,1.731-5.466,6.558v17.143c0,0-0.025,2.463-2.276,2.506c0,0-2.272-0.042-2.272-2.421c0-2.378,0-17.228,0-17.228
	S76.746,9.445,86.174,6.203z"/>
<path fill="#5EB0E2" fill-opacity="0.5" d="M37.783,6.203c-6.356,0-11.509,5.153-11.509,11.509s5.153,11.509,11.509,11.509
	s11.509-5.153,11.509-11.509S44.139,6.203,37.783,6.203z M37.489,24.38c-3.682,0-6.668-2.985-6.668-6.668s2.985-6.668,6.668-6.668
	s6.668,2.985,6.668,6.668S41.171,24.38,37.489,24.38z"/>
<path fill="#5EB0E2" fill-opacity="0.5" d="M114.724,6.203c-6.356,0-11.509,5.153-11.509,11.509s5.153,11.509,11.509,11.509
	s11.509-5.153,11.509-11.509S121.08,6.203,114.724,6.203z M114.43,24.38c-3.682,0-6.668-2.985-6.668-6.668s2.985-6.668,6.668-6.668
	s6.668,2.985,6.668,6.668S118.112,24.38,114.43,24.38z"/>
<path fill="#5EB0E2" fill-opacity="0.5" d="M52.126,18.072c0,11.749,11.449,12.69,11.449,12.69c12.677,0,10.853-12.69,10.853-12.69
	V8.937c0-3.348-2.457-3.019-2.457-3.019c-2.718,0-2.457,3.019-2.457,3.019v9.135c-0.819,7.068-5.938,6.572-5.938,6.572
	c-6.199,0-6.311-6.572-6.311-6.572V8.937c0-3.183-2.532-3.017-2.532-3.017c-2.681,0-2.606,3.017-2.606,3.017"/>
<circle fill="#5EB0E2" fill-opacity="0.5" cx="163.118" cy="2.301" r="2.301"/>
<g>
	<defs>
		<rect id="SVGID_1_" x="215.66" y="-81.832" width="152.97" height="73.573"/>
	</defs>
	<clipPath id="SVGID_2_">
		<use xlink:href="#SVGID_1_"  overflow="visible"/>
	</clipPath>
	<g clip-path="url(#SVGID_2_)">
		<g>
			<ellipse fill="#010101" cx="259.731" cy="-30.922" rx="1.074" ry="1.174"/>
			<ellipse fill="#010101" cx="324.029" cy="-30.922" rx="1.074" ry="1.174"/>
			<path fill="#7AA0BC" d="M341.573,3.806c0,5.643-9.679,37.324-13.027,37.64c-3.597,0.339-14.057,0.579-16.878,0.24
				c-0.137-1.069,0.345-1.233-0.044-2.309c-0.574-1.582-1.895-1.757-3.243-2.223c-2.273-0.784-4.592-0.497-7.046-0.638
				c-0.046-1.823,4.923-3.45,6.139-4.156c1.836-1.066,3.299-2.72,5.067-3.915c1.786-1.209,3.69-2.23,5.564-3.303
				c3.459-1.98,6.515-4.537,9.584-7.007C329.355,16.795,341.573,3.806,341.573,3.806z"/>
			<path opacity="0.07" fill="#010101" d="M301.073,36.517c-0.046-1.823,4.924-3.45,6.139-4.156c1.836-1.066,3.299-2.72,5.067-3.915
				c1.786-1.209,3.69-2.23,5.564-3.303c3.459-1.98,6.515-4.537,9.584-7.007c1.666-1.34,13.885-14.33,13.885-14.33
				c0,1.643-0.823,5.495-2.068,10.136c-6.849,11.163-17.671,19.623-30.497,23.416c-0.207-0.065-0.416-0.131-0.627-0.203
				C305.847,36.37,303.527,36.657,301.073,36.517z"/>
			<path fill="#7AA0BC" d="M242.728,3.806c0,5.643,9.679,37.324,13.026,37.64c3.596,0.339,14.057,0.579,16.878,0.24
				c0.138-1.069-0.345-1.233,0.045-2.309c0.573-1.582,1.895-1.757,3.243-2.223c2.273-0.784,4.592-0.497,7.046-0.638
				c0.046-1.823-4.924-3.45-6.139-4.156c-1.836-1.066-3.299-2.72-5.067-3.915c-1.787-1.209-3.69-2.23-5.564-3.303
				c-3.459-1.98-6.515-4.537-9.585-7.007C254.946,16.795,242.728,3.806,242.728,3.806z"/>
			<path opacity="0.05" fill="#010101" d="M282.966,36.517c0.046-1.823-4.924-3.45-6.139-4.156c-1.836-1.066-3.299-2.72-5.067-3.915
				c-1.787-1.209-3.69-2.23-5.564-3.303c-3.459-1.98-6.515-4.537-9.585-7.007c-1.665-1.34-13.883-14.33-13.883-14.33
				c0,1.643,0.821,5.495,2.067,10.136c6.849,11.163,17.671,19.623,30.497,23.416c0.207-0.065,0.417-0.131,0.627-0.203
				C278.193,36.37,280.512,36.657,282.966,36.517z"/>
			<g>
				<path fill="#9AC2E6" d="M341.09-38.347c7.426-9.041,10.78-20.604,12.335-31.599c0.725-5.127-0.234-6.297-5.723-5.651
					c-3.875,0.323-8.397,1.292-12.272,2.261c-5.49,1.614-23.251,9.364-21.635,15.177c1.292,6.781,19.413,18.338,25.871,19.63
					L341.09-38.347z"/>
			</g>
			<g>
				<path fill="#7AA0BC" d="M338.534-44.783c4.872-5.931,7.072-13.515,8.092-20.727c0.475-3.363-0.154-4.13-3.755-3.706
					c-2.542,0.212-5.507,0.847-8.049,1.482c-3.601,1.059-15.251,6.143-14.192,9.955c0.847,4.448,12.734,12.029,16.971,12.877
					L338.534-44.783z"/>
			</g>
			<g>
				<path fill="#9AC2E6" d="M243.451-38.347c-7.427-9.041-10.78-20.604-12.335-31.599c-0.725-5.127,0.235-6.297,5.724-5.651
					c3.875,0.323,8.397,1.292,12.272,2.261c5.49,1.614,23.251,9.364,21.635,15.177c-1.292,6.781-19.413,18.338-25.871,19.63
					L243.451-38.347z"/>
			</g>
			<g>
				<path fill="#7AA0BC" d="M246.006-44.783c-4.872-5.931-7.072-13.515-8.092-20.727c-0.475-3.363,0.155-4.13,3.755-3.706
					c2.542,0.212,5.507,0.847,8.049,1.482c3.601,1.059,15.251,6.143,14.192,9.955c-0.847,4.448-12.734,12.029-16.97,12.877
					L246.006-44.783z"/>
			</g>
			<circle fill="#9AC2E6" cx="292.093" cy="-16.349" r="53.612"/>
			<ellipse opacity="0.1" fill="#010101" cx="292.151" cy="-1.827" rx="32.01" ry="32.729"/>
			<circle fill="#A3D0F0" cx="291.822" cy="-8.258" r="31.028"/>
			<ellipse fill="#7BA4C4" cx="278.329" cy="-7.276" rx="3.591" ry="8.837"/>
			<path opacity="0.1" fill="#010101" d="M278.329-0.501c-1.835,0-3.347-3.386-3.564-7.757c-0.017,0.354-0.028,0.714-0.028,1.08
				c0,4.881,1.608,8.837,3.591,8.837s3.591-3.956,3.591-8.837c0-0.366-0.01-0.726-0.028-1.08
				C281.675-3.887,280.163-0.501,278.329-0.501z"/>
			<ellipse fill="#7BA4C4" cx="305.973" cy="-7.276" rx="3.591" ry="8.837"/>
			<path opacity="0.1" fill="#010101" d="M305.973-0.501c1.834,0,3.347-3.386,3.563-7.757c0.017,0.354,0.028,0.714,0.028,1.08
				c0,4.881-1.608,8.837-3.591,8.837s-3.591-3.956-3.591-8.837c0-0.366,0.009-0.726,0.028-1.08
				C302.626-3.887,304.139-0.501,305.973-0.501z"/>
			<circle fill="#272626" cx="259.469" cy="-29.748" r="3.876"/>
			<circle fill="#FFFFFF" cx="261.61" cy="-30.563" r="0.816"/>
			<circle fill="#272626" cx="324.028" cy="-29.748" r="3.876"/>
			<circle fill="#FFFFFF" cx="326.169" cy="-30.563" r="0.816"/>
			<path fill="#5C768A" d="M296.123-52.928V-69.86c-1.33-0.099-2.674-0.15-4.029-0.15c-1.356,0-2.7,0.052-4.03,0.15v16.87
				L296.123-52.928z"/>
			<rect x="288.063" y="-56.373" fill="#A3D0F0" width="8.06" height="3.445"/>
		</g>
	</g>
</g>
<g>
	<path fill="#E98C24" d="M289.543-117.364c1.172-0.262,2.378-0.404,3.606-0.425c-1.229,0.032-2.445,0.173-3.618,0.435
		L289.543-117.364z"/>
	<path fill="#E98C24" d="M295.125-117.741l-0.001,0.011l-0.011-0.001c-0.331-0.026-0.653-0.041-0.975-0.055
		C294.461-117.783,294.793-117.767,295.125-117.741z"/>
	<g>
		<circle fill="#FEC465" cx="292.419" cy="-98.613" r="17.134"/>
		<path fill="#FAA61C" d="M290.9-79.395c-10.597-0.838-18.537-10.14-17.7-20.738c0.838-10.597,10.14-18.537,20.738-17.7
			c10.597,0.838,18.537,10.14,17.7,20.738S301.497-78.557,290.9-79.395z M293.6-113.555c-8.238-0.651-15.471,5.522-16.122,13.761
			S283-84.323,291.238-83.672s15.471-5.522,16.122-13.761S301.838-112.904,293.6-113.555z"/>
	</g>
	<g>
		<g>
			<g>
				<path fill="#FAA61C" d="M297.748-94.39c-0.203,2.567-1.958,4.53-4.516,5.185l-0.238,3.017l-4.502-0.356l0.217-2.74
					c-1.267-0.312-2.447-0.868-3.251-1.548l-0.831-0.702l1.954-4.356l1.452,1.146c0.772,0.601,1.838,1.013,2.853,1.093
					c0.757,0.06,1.67-0.157,1.734-0.962c0.026-0.326,0.073-0.929-1.893-1.904c-2.468-1.207-4.967-2.889-4.704-6.213
					c0.194-2.452,1.875-4.334,4.325-4.969l0.232-2.941l4.473,0.354l-0.21,2.653c0.954,0.249,1.81,0.635,2.578,1.168l0.996,0.696
					l-2.016,4.284l-1.4-0.949c-0.375-0.251-1.152-0.785-2.493-0.891c-0.479-0.038-1.311,0.002-1.365,0.682
					c-0.025,0.316-0.052,0.661,2.19,1.802C295.362-99.812,298.035-98.029,297.748-94.39z"/>
			</g>
		</g>
	</g>
	<path fill="#FAA61C" d="M281.196-91.893c-1.728-3.28-1.884-7.085-0.451-10.499c0.15-0.357-0.392-0.623-0.542-0.264
		c-1.525,3.635-1.339,7.622,0.497,11.106C280.88-91.207,281.375-91.552,281.196-91.893z"/>
	<path fill="#FAA61C" d="M286.698-110.766c-2.18,1.316-4.008,3.067-5.411,5.193c-0.211,0.32,0.244,0.717,0.457,0.393
		c1.377-2.085,3.157-3.798,5.296-5.09C287.373-110.47,287.029-110.966,286.698-110.766z"/>
	<path fill="#FAA61C" d="M303.939-106.32c-0.193-0.336-0.689,0.007-0.496,0.343c2.208,3.843,2.509,8.455,0.826,12.554
		c-0.147,0.358,0.395,0.624,0.542,0.264C306.582-97.473,306.262-102.277,303.939-106.32z"/>
	<path fill="#FAA61C" d="M303.062-91.509c-1.115,2.003-2.691,3.633-4.647,4.827c-0.331,0.202,0.012,0.699,0.343,0.496
		c2.042-1.248,3.683-2.969,4.846-5.06C303.793-91.585,303.25-91.847,303.062-91.509z"/>
	<path fill="#FAA61C" d="M303.18-96.007c-0.153,1.492-0.638,2.881-1.446,4.145c-0.209,0.327,0.331,0.597,0.538,0.272
		c0.833-1.303,1.339-2.752,1.498-4.29C303.809-96.263,303.219-96.393,303.18-96.007z"/>
	<path fill="#E98C24" d="M290.811-83.402c-0.054,1.22-0.108,2.44-0.163,3.66c-0.017,0.387,0.585,0.338,0.602-0.045
		c0.054-1.22,0.108-2.44,0.163-3.66C291.43-83.835,290.828-83.786,290.811-83.402z"/>
	<path fill="#E98C24" d="M295.672-83.752c-0.051-0.383-0.653-0.34-0.602,0.045c0.163,1.22,0.325,2.44,0.488,3.66
		c0.051,0.383,0.653,0.34,0.602-0.045C295.997-81.312,295.834-82.532,295.672-83.752z"/>
	<path fill="#E98C24" d="M300.939-81.548c-0.461-1.166-0.922-2.332-1.383-3.497c-0.142-0.36-0.711-0.159-0.568,0.204
		c0.461,1.166,0.922,2.332,1.383,3.497C300.513-80.985,301.082-81.186,300.939-81.548z"/>
	<path fill="#E98C24" d="M304.48-83.931c-0.638-1.041-1.275-2.083-1.913-3.124c-0.19-0.311-0.654,0.012-0.464,0.322
		c0.638,1.041,1.275,2.083,1.913,3.124C304.206-83.298,304.67-83.621,304.48-83.931z"/>
	<path fill="#E98C24" d="M307.32-86.945l-2.5-2.262c-0.244-0.221-0.574,0.172-0.33,0.393c0.833,0.754,1.667,1.508,2.5,2.262
		C307.234-86.331,307.564-86.724,307.32-86.945z"/>
	<path fill="#E98C24" d="M309.785-91.25c-1.058-0.379-2.115-0.757-3.173-1.136c-0.362-0.13-0.63,0.412-0.264,0.542
		c1.058,0.379,2.115,0.757,3.173,1.136C309.883-90.578,310.15-91.12,309.785-91.25z"/>
	<path fill="#E98C24" d="M311.005-96.303c-1.181,0.044-2.362,0.087-3.543,0.131c-0.338,0.013-0.298,0.614,0.04,0.602
		c1.181-0.044,2.362-0.087,3.543-0.131C311.383-95.714,311.343-96.316,311.005-96.303z"/>
	<path fill="#E98C24" d="M311.162-100.931c-1.22,0.3-2.439,0.601-3.659,0.901c-0.376,0.093-0.171,0.66,0.204,0.568
		c1.22-0.3,2.439-0.601,3.659-0.901C311.742-100.456,311.536-101.023,311.162-100.931z"/>
	<path fill="#FAA61C" d="M282.378-100.507c0.167-1.491,0.664-2.875,1.485-4.131c0.212-0.325-0.325-0.6-0.536-0.277
		c-0.845,1.295-1.365,2.739-1.538,4.276C281.747-100.257,282.335-100.122,282.378-100.507z"/>
	<path fill="#E98C24" d="M295.308-113.747c0.14-1.213,0.281-2.426,0.421-3.64c0.045-0.385-0.559-0.379-0.603,0.003
		c-0.14,1.213-0.281,2.426-0.421,3.64C294.66-113.36,295.264-113.366,295.308-113.747z"/>
	<path fill="#E98C24" d="M290.433-113.716c0.024,0.386,0.627,0.386,0.603-0.003c-0.076-1.229-0.152-2.457-0.228-3.686
		c-0.024-0.386-0.627-0.386-0.603,0.003C290.281-116.173,290.357-114.945,290.433-113.716z"/>
	<path fill="#E98C24" d="M285.12-116.024c0.35,1.077,0.701,2.154,1.051,3.23c0.108,0.332,0.645,0.189,0.536-0.146
		c-0.35-1.077-0.701-2.154-1.051-3.23C285.548-116.502,285.011-116.359,285.12-116.024z"/>
	<path fill="#E98C24" d="M281.387-114.144c0.551,1.102,1.102,2.203,1.653,3.305c0.164,0.329,0.643,0.034,0.478-0.295
		c-0.551-1.102-1.102-2.203-1.653-3.305C281.701-114.767,281.222-114.472,281.387-114.144z"/>
	<path fill="#E98C24" d="M278.258-111.226l2.597,2.6c0.254,0.254,0.648-0.138,0.395-0.392c-0.866-0.867-1.732-1.734-2.597-2.601
		C278.399-111.872,278.004-111.48,278.258-111.226z"/>
	<path fill="#E98C24" d="M275.505-107.14c1.028,0.453,2.057,0.905,3.085,1.358c0.352,0.155,0.657-0.366,0.302-0.522
		c-1.028-0.453-2.057-0.905-3.085-1.358C275.455-107.817,275.15-107.296,275.505-107.14z"/>
	<path fill="#E98C24" d="M273.879-102.001c1.235,0.044,2.47,0.087,3.705,0.131c0.354,0.013,0.354-0.59,0.001-0.603
		c-1.235-0.044-2.47-0.087-3.705-0.131C273.526-102.617,273.526-102.014,273.879-102.001z"/>
	<path fill="#E98C24" d="M273.572-97.286c1.238-0.213,2.475-0.427,3.713-0.64c0.382-0.066,0.217-0.646-0.163-0.581
		c-1.238,0.213-2.475,0.427-3.713,0.64C273.027-97.802,273.192-97.221,273.572-97.286z"/>
	<path fill="#E98C24" d="M307.38-102.032c1.133-0.456,2.266-0.913,3.398-1.369c0.359-0.145,0.066-0.672-0.291-0.529
		c-1.133,0.456-2.266,0.913-3.398,1.369C306.731-102.416,307.024-101.889,307.38-102.032z"/>
	<path fill="#E98C24" d="M309.139-107.666c-1.128,0.547-2.257,1.093-3.385,1.639c-0.348,0.169-0.105,0.721,0.245,0.551
		c1.128-0.546,2.257-1.093,3.385-1.639C309.733-107.283,309.49-107.836,309.139-107.666z"/>
	<path fill="#E98C24" d="M306.79-111.09c-0.994,0.747-1.989,1.494-2.983,2.241c-0.297,0.223,0.063,0.685,0.359,0.462
		c0.994-0.747,1.989-1.494,2.983-2.241C307.446-110.851,307.086-111.313,306.79-111.09z"/>
	<path fill="#E98C24" d="M303.751-113.796l-2.1,2.772c-0.205,0.271,0.219,0.584,0.424,0.313c0.7-0.924,1.4-1.848,2.1-2.772
		C304.38-113.754,303.956-114.067,303.751-113.796z"/>
	<path fill="#E98C24" d="M299.407-116.132c-0.299,1.083-0.598,2.166-0.897,3.249c-0.102,0.371,0.457,0.597,0.561,0.223
		c0.299-1.083,0.598-2.166,0.897-3.249C300.07-116.279,299.51-116.506,299.407-116.132z"/>
	<path fill="#E98C24" d="M277.228-95.315c-0.94,0.362-1.88,0.723-2.82,1.085c-0.361,0.139-0.16,0.708,0.204,0.568
		c0.94-0.361,1.88-0.723,2.82-1.084C277.793-94.886,277.592-95.455,277.228-95.315z"/>
	<path fill="#E98C24" d="M278.623-91.642c-1.029,0.418-2.059,0.836-3.088,1.254c-0.358,0.146-0.157,0.715,0.204,0.568
		c1.029-0.418,2.059-0.836,3.088-1.254C279.185-91.22,278.984-91.789,278.623-91.642z"/>
	<path fill="#E98C24" d="M279.883-89.235c-0.91,0.551-1.819,1.101-2.729,1.652c-0.332,0.201,0.011,0.697,0.343,0.497
		c0.91-0.551,1.819-1.101,2.729-1.652C280.558-88.94,280.215-89.436,279.883-89.235z"/>
	<path fill="#E98C24" d="M282.122-87.126c-0.831,0.723-1.663,1.446-2.494,2.169c-0.29,0.252,0.049,0.752,0.343,0.497
		c0.831-0.723,1.663-1.446,2.494-2.169C282.755-86.881,282.416-87.381,282.122-87.126z"/>
	<path fill="#E98C24" d="M284.32-84.913c-0.528,0.865-1.056,1.73-1.584,2.596c-0.203,0.332,0.342,0.593,0.542,0.264
		c0.528-0.865,1.056-1.73,1.584-2.596C285.065-84.98,284.521-85.241,284.32-84.913z"/>
	<path fill="#E98C24" d="M287.97-83.549c-0.362,1.012-0.725,2.024-1.087,3.036c-0.13,0.362,0.412,0.63,0.542,0.264
		c0.362-1.012,0.725-2.024,1.087-3.036C288.642-83.647,288.1-83.914,287.97-83.549z"/>
</g>
<g>
	<path fill="#E98C24" d="M235.577-123.243c0.637-0.531,1.332-0.999,2.08-1.4c-0.745,0.408-1.447,0.878-2.084,1.41L235.577-123.243z"
		/>
	<path fill="#E98C24" d="M238.885-125.237l0.003,0.007l-0.007,0.003c-0.212,0.089-0.414,0.181-0.616,0.274
		C238.464-125.053,238.673-125.148,238.885-125.237z"/>
	<g>
		<circle fill="#FEC465" cx="243.264" cy="-112.639" r="11.83"/>
		<path fill="#FAA61C" d="M248.401-100.359c-6.771,2.832-14.584-0.372-17.416-7.143c-2.832-6.771,0.372-14.584,7.143-17.416
			s14.584,0.372,17.416,7.143C258.376-111.004,255.172-103.192,248.401-100.359z M239.27-122.185
			c-5.264,2.202-7.755,8.276-5.553,13.54c2.202,5.264,8.276,7.755,13.54,5.553c5.264-2.202,7.755-8.276,5.553-13.54
			C250.609-121.896,244.534-124.387,239.27-122.185z"/>
	</g>
	<g>
		<g>
			<g>
				<path fill="#FAA61C" d="M247.87-111.728c0.686,1.64,0.228,3.399-1.135,4.61l0.806,1.928l-2.876,1.203l-0.732-1.75
					c-0.876,0.208-1.777,0.24-2.485,0.076l-0.732-0.168l-0.176-3.292l1.253,0.245c0.664,0.125,1.448,0.041,2.097-0.23
					c0.483-0.202,0.976-0.624,0.761-1.138c-0.087-0.208-0.248-0.594-1.763-0.571c-1.897,0.038-3.962-0.205-4.85-2.329
					c-0.655-1.567-0.217-3.253,1.086-4.417l-0.786-1.879l2.858-1.196l0.709,1.695c0.664-0.148,1.312-0.182,1.951-0.097l0.831,0.113
					l0.115,3.267l-1.159-0.141c-0.31-0.036-0.955-0.118-1.812,0.24c-0.306,0.128-0.804,0.416-0.622,0.85
					c0.084,0.202,0.177,0.422,1.914,0.415C244.692-114.304,246.897-114.054,247.87-111.728z"/>
			</g>
		</g>
	</g>
	<path fill="#FAA61C" d="M238.495-104.968c-2.097-1.468-3.394-3.755-3.593-6.304c-0.021-0.267-0.437-0.259-0.416,0.009
		c0.212,2.713,1.585,5.103,3.813,6.662C238.518-104.447,238.713-104.816,238.495-104.968z"/>
	<path fill="#FAA61C" d="M235.913-118.293c-0.923,1.496-1.492,3.149-1.682,4.897c-0.029,0.263,0.376,0.363,0.405,0.097
		c0.187-1.715,0.739-3.329,1.645-4.797C236.421-118.325,236.054-118.521,235.913-118.293z"/>
	<path fill="#FAA61C" d="M247.903-121.009c-0.225-0.146-0.421,0.222-0.197,0.367c2.569,1.662,4.211,4.399,4.472,7.447
		c0.023,0.266,0.439,0.258,0.416-0.009C252.32-116.411,250.606-119.26,247.903-121.009z"/>
	<path fill="#FAA61C" d="M252.042-111.638c-0.052,1.582-0.505,3.08-1.328,4.431c-0.139,0.229,0.228,0.425,0.367,0.197
		c0.86-1.411,1.323-2.986,1.378-4.637C252.467-111.915,252.051-111.905,252.042-111.638z"/>
	<path fill="#FAA61C" d="M250.694-114.436c0.377,0.965,0.518,1.97,0.421,3.001c-0.025,0.267,0.392,0.262,0.416-0.003
		c0.1-1.063-0.047-2.112-0.435-3.107C250.999-114.792,250.596-114.686,250.694-114.436z"/>
	<path fill="#E98C24" d="M247.081-102.792c0.352,0.766,0.704,1.532,1.056,2.299c0.112,0.243,0.466,0.023,0.355-0.218
		c-0.352-0.766-0.704-1.532-1.056-2.299C247.324-103.253,246.97-103.033,247.081-102.792z"/>
	<path fill="#E98C24" d="M249.954-104.541c-0.152-0.219-0.508-0.003-0.355,0.218c0.485,0.698,0.97,1.395,1.455,2.093
		c0.152,0.219,0.508,0.003,0.355-0.218C250.925-103.146,250.44-103.844,249.954-104.541z"/>
	<path fill="#E98C24" d="M253.884-104.852c-0.651-0.57-1.302-1.14-1.954-1.711c-0.201-0.176-0.487,0.127-0.284,0.304
		c0.651,0.57,1.302,1.14,1.954,1.711C253.801-104.371,254.087-104.675,253.884-104.852z"/>
	<path fill="#E98C24" d="M255.306-107.433c-0.72-0.438-1.441-0.876-2.161-1.314c-0.215-0.131-0.398,0.214-0.183,0.344
		c0.72,0.438,1.441,0.876,2.161,1.314C255.338-106.958,255.52-107.302,255.306-107.433z"/>
	<path fill="#E98C24" d="M256.098-110.18l-2.249-0.599c-0.22-0.059-0.298,0.287-0.078,0.345c0.75,0.2,1.499,0.399,2.249,0.599
		C256.239-109.776,256.317-110.122,256.098-110.18z"/>
	<path fill="#E98C24" d="M256.251-113.602c-0.769,0.102-1.538,0.203-2.307,0.304c-0.263,0.035-0.257,0.452,0.009,0.416
		c0.769-0.101,1.538-0.203,2.307-0.304C256.524-113.22,256.517-113.637,256.251-113.602z"/>
	<path fill="#E98C24" d="M255.405-117.09c-0.711,0.4-1.423,0.8-2.134,1.199c-0.204,0.114,0.011,0.471,0.214,0.357
		c0.711-0.4,1.423-0.8,2.134-1.199C255.823-116.848,255.608-117.204,255.405-117.09z"/>
	<path fill="#E98C24" d="M254.04-119.981c-0.654,0.57-1.308,1.139-1.962,1.709c-0.202,0.176,0.104,0.459,0.304,0.284
		c0.654-0.57,1.308-1.139,1.962-1.709C254.546-119.872,254.24-120.156,254.04-119.981z"/>
	<path fill="#FAA61C" d="M236.501-110.63c-0.368-0.968-0.5-1.975-0.393-3.005c0.028-0.267-0.389-0.266-0.417-0.001
		c-0.11,1.062,0.027,2.113,0.406,3.111C236.192-110.277,236.596-110.38,236.501-110.63z"/>
	<path fill="#E98C24" d="M240.258-122.843c-0.297-0.789-0.594-1.578-0.891-2.368c-0.094-0.25-0.463-0.056-0.37,0.192
		c0.297,0.789,0.594,1.578,0.891,2.368C239.983-122.4,240.352-122.595,240.258-122.843z"/>
	<path fill="#E98C24" d="M237.275-121.284c0.136,0.229,0.507,0.039,0.37-0.192c-0.435-0.73-0.869-1.461-1.304-2.191
		c-0.136-0.229-0.507-0.039-0.369,0.192C236.406-122.745,236.84-122.014,237.275-121.284z"/>
	<path fill="#E98C24" d="M233.284-121.023c0.555,0.55,1.11,1.101,1.665,1.652c0.171,0.17,0.456-0.088,0.283-0.259
		c-0.555-0.551-1.11-1.101-1.665-1.652C233.396-121.452,233.112-121.195,233.284-121.023z"/>
	<path fill="#E98C24" d="M231.586-118.69c0.686,0.502,1.373,1.005,2.059,1.507c0.205,0.15,0.405-0.182,0.201-0.332
		c-0.686-0.502-1.373-1.005-2.059-1.507C231.582-119.172,231.381-118.84,231.586-118.69z"/>
	<path fill="#E98C24" d="M230.586-115.91l2.416,0.776c0.236,0.076,0.355-0.289,0.119-0.365c-0.805-0.259-1.611-0.518-2.416-0.776
		C230.469-116.351,230.35-115.986,230.586-115.91z"/>
	<path fill="#E98C24" d="M230.187-112.532c0.774-0.047,1.549-0.094,2.323-0.141c0.265-0.016,0.288-0.432,0.021-0.416
		c-0.774,0.047-1.548,0.094-2.323,0.141C229.942-112.932,229.919-112.516,230.187-112.532z"/>
	<path fill="#E98C24" d="M230.811-108.864c0.772-0.363,1.544-0.726,2.316-1.09c0.221-0.104,0.031-0.474-0.19-0.371
		c-0.772,0.363-1.544,0.726-2.316,1.09C230.4-109.13,230.59-108.76,230.811-108.864z"/>
	<path fill="#E98C24" d="M232.111-105.872c0.693-0.522,1.385-1.044,2.078-1.566c0.214-0.161-0.071-0.465-0.284-0.305
		c-0.693,0.522-1.385,1.044-2.078,1.566C231.614-106.016,231.899-105.712,232.111-105.872z"/>
	<path fill="#E98C24" d="M251.37-119.463c0.551-0.638,1.103-1.276,1.654-1.914c0.175-0.202-0.172-0.433-0.345-0.233
		c-0.551,0.638-1.103,1.276-1.654,1.914C250.85-119.493,251.197-119.262,251.37-119.463z"/>
	<path fill="#E98C24" d="M250.671-123.477c-0.52,0.692-1.04,1.384-1.56,2.076c-0.161,0.214,0.163,0.476,0.325,0.261
		c0.52-0.692,1.04-1.384,1.56-2.075C251.156-123.429,250.833-123.692,250.671-123.477z"/>
	<path fill="#E98C24" d="M248.147-124.838c-0.375,0.773-0.749,1.545-1.124,2.318c-0.112,0.23,0.255,0.401,0.367,0.17
		c0.375-0.773,0.749-1.545,1.124-2.318C248.625-124.898,248.259-125.068,248.147-124.838z"/>
	<path fill="#E98C24" d="M245.427-125.539l-0.414,2.365c-0.04,0.231,0.319,0.289,0.359,0.058c0.138-0.788,0.276-1.577,0.414-2.365
		C245.826-125.712,245.467-125.77,245.427-125.539z"/>
	<path fill="#E98C24" d="M242.022-125.601c0.158,0.759,0.317,1.519,0.475,2.278c0.054,0.26,0.469,0.222,0.415-0.04
		c-0.158-0.759-0.317-1.519-0.475-2.278C242.382-125.901,241.967-125.863,242.022-125.601z"/>
	<path fill="#E98C24" d="M234.979-105.816c-0.463,0.519-0.926,1.038-1.389,1.556c-0.178,0.199,0.125,0.485,0.304,0.284
		c0.463-0.519,0.926-1.038,1.389-1.556C235.461-105.731,235.158-106.017,234.979-105.816z"/>
	<path fill="#E98C24" d="M236.995-104.002c-0.5,0.582-1,1.163-1.5,1.745c-0.174,0.202,0.129,0.489,0.304,0.284
		c0.5-0.582,1-1.163,1.5-1.745C237.474-103.92,237.171-104.206,236.995-104.002z"/>
	<path fill="#E98C24" d="M238.529-102.922c-0.385,0.625-0.769,1.251-1.154,1.876c-0.14,0.228,0.227,0.425,0.367,0.197
		c0.385-0.625,0.769-1.251,1.154-1.876C239.037-102.954,238.669-103.15,238.529-102.922z"/>
	<path fill="#E98C24" d="M240.57-102.334c-0.282,0.706-0.564,1.413-0.846,2.119c-0.098,0.246,0.268,0.446,0.367,0.197
		c0.282-0.706,0.564-1.413,0.846-2.119C241.035-102.384,240.669-102.583,240.57-102.334z"/>
	<path fill="#E98C24" d="M242.618-101.669c-0.051,0.698-0.102,1.396-0.153,2.094c-0.02,0.268,0.397,0.256,0.416-0.009
		c0.051-0.698,0.102-1.396,0.153-2.094C243.054-101.946,242.637-101.934,242.618-101.669z"/>
	<path fill="#E98C24" d="M245.289-101.984c0.097,0.736,0.194,1.471,0.291,2.207c0.035,0.263,0.452,0.257,0.416-0.009
		c-0.097-0.736-0.194-1.471-0.291-2.207C245.671-102.257,245.254-102.25,245.289-101.984z"/>
</g>
<g>
	<path fill="#E98C24" d="M344.974-111.362c0.828,0.052,1.654,0.19,2.473,0.413c-0.821-0.216-1.655-0.357-2.482-0.409
		L344.974-111.362z"/>
	<path fill="#E98C24" d="M348.747-110.536l-0.003,0.007l-0.007-0.003c-0.215-0.081-0.425-0.153-0.636-0.225
		C348.315-110.692,348.533-110.617,348.747-110.536z"/>
	<g>
		<circle fill="#FEC465" cx="343.268" cy="-98.376" r="11.83"/>
		<path fill="#FAA61C" d="M338.557-85.927c-6.865-2.597-10.336-10.295-7.739-17.16c2.597-6.865,10.295-10.336,17.16-7.739
			c6.865,2.597,10.336,10.295,7.739,17.16C353.119-86.801,345.422-83.329,338.557-85.927z M346.929-108.055
			c-5.336-2.019-11.321,0.68-13.341,6.017c-2.019,5.336,0.68,11.321,6.017,13.341c5.336,2.019,11.321-0.68,13.341-6.017
			S352.266-106.035,346.929-108.055z"/>
	</g>
	<g>
		<g>
			<g>
				<path fill="#FAA61C" d="M345.987-94.549c-0.629,1.663-2.171,2.626-3.993,2.568l-0.74,1.955l-2.916-1.103l0.671-1.775
					c-0.78-0.451-1.455-1.047-1.857-1.653l-0.416-0.626l2.135-2.512l0.742,1.04c0.396,0.547,1.023,1.026,1.681,1.274
					c0.49,0.185,1.138,0.218,1.335-0.304c0.08-0.211,0.228-0.602-0.888-1.627c-1.404-1.276-2.736-2.872-1.922-5.025
					c0.601-1.588,2.078-2.512,3.825-2.461l0.721-1.905l2.898,1.096l-0.65,1.719c0.584,0.349,1.078,0.77,1.484,1.271l0.526,0.653
					l-2.162,2.452l-0.745-0.899c-0.2-0.239-0.613-0.743-1.481-1.071c-0.31-0.117-0.87-0.251-1.036,0.189
					c-0.077,0.205-0.162,0.428,1.105,1.617C345.45-98.603,346.879-96.907,345.987-94.549z"/>
			</g>
		</g>
	</g>
	<path fill="#FAA61C" d="M334.531-96.083c-0.514-2.507,0.116-5.06,1.724-7.048c0.168-0.208-0.14-0.489-0.309-0.28
		c-1.711,2.116-2.356,4.796-1.811,7.459C334.19-95.689,334.585-95.823,334.531-96.083z"/>
	<path fill="#FAA61C" d="M341.816-107.536c-1.699,0.452-3.248,1.261-4.588,2.4c-0.202,0.171,0.023,0.522,0.228,0.349
		c1.314-1.117,2.825-1.91,4.492-2.354C342.207-107.209,342.075-107.604,341.816-107.536z"/>
	<path fill="#FAA61C" d="M352.391-101.266c-0.063-0.26-0.458-0.128-0.395,0.132c0.723,2.973,0.034,6.089-1.871,8.483
		c-0.167,0.209,0.141,0.49,0.309,0.28C352.438-94.891,353.151-98.138,352.391-101.266z"/>
	<path fill="#FAA61C" d="M348.955-91.615c-1.125,1.113-2.484,1.89-4.011,2.305c-0.259,0.07-0.127,0.466,0.132,0.395
		c1.594-0.434,3.014-1.259,4.188-2.421C349.454-91.524,349.145-91.803,348.955-91.615z"/>
	<path fill="#FAA61C" d="M349.899-94.574c-0.389,0.96-0.978,1.787-1.757,2.469c-0.202,0.177,0.104,0.46,0.304,0.284
		c0.803-0.703,1.418-1.566,1.82-2.556C350.366-94.623,350-94.822,349.899-94.574z"/>
	<path fill="#E98C24" d="M339.271-88.601c-0.271,0.798-0.542,1.597-0.813,2.395c-0.086,0.253,0.322,0.337,0.408,0.086
		c0.271-0.798,0.542-1.597,0.813-2.395C339.764-88.768,339.356-88.852,339.271-88.601z"/>
	<path fill="#E98C24" d="M342.56-87.896c0.04-0.264-0.367-0.351-0.408-0.086c-0.127,0.84-0.255,1.68-0.382,2.521
		c-0.04,0.264,0.367,0.351,0.408,0.086C342.306-86.216,342.433-87.056,342.56-87.896z"/>
	<path fill="#E98C24" d="M345.628-85.42c-0.081-0.862-0.162-1.724-0.243-2.585c-0.025-0.266-0.441-0.242-0.416,0.026
		c0.081,0.862,0.162,1.724,0.243,2.585C345.237-85.129,345.653-85.152,345.628-85.42z"/>
	<path fill="#E98C24" d="M348.435-86.317c-0.222-0.813-0.444-1.627-0.666-2.44c-0.066-0.243-0.436-0.118-0.369,0.124
		c0.222,0.813,0.444,1.627,0.666,2.44C348.131-85.951,348.501-86.075,348.435-86.317z"/>
	<path fill="#E98C24" d="M350.898-87.768l-1.222-1.981c-0.119-0.194-0.414,0.003-0.294,0.197c0.407,0.66,0.814,1.321,1.222,1.981
		C350.723-87.378,351.018-87.575,350.898-87.768z"/>
	<path fill="#E98C24" d="M353.362-90.148c-0.628-0.455-1.257-0.91-1.885-1.365c-0.215-0.156-0.497,0.152-0.28,0.309
		c0.628,0.455,1.257,0.91,1.885,1.365C353.298-89.684,353.579-89.991,353.362-90.148z"/>
	<path fill="#E98C24" d="M355.145-93.263c-0.791-0.199-1.583-0.397-2.374-0.596c-0.227-0.057-0.316,0.35-0.09,0.406
		c0.791,0.199,1.583,0.397,2.374,0.596C355.282-92.8,355.371-93.206,355.145-93.263z"/>
	<path fill="#E98C24" d="M356.141-96.301c-0.866-0.036-1.733-0.072-2.599-0.108c-0.267-0.011-0.24,0.405,0.026,0.416
		c0.866,0.036,1.733,0.072,2.599,0.108C356.433-95.874,356.407-96.29,356.141-96.301z"/>
	<path fill="#FAA61C" d="M336.975-101.566c0.398-0.956,0.994-1.778,1.78-2.453c0.203-0.175-0.1-0.46-0.302-0.287
		c-0.81,0.696-1.433,1.553-1.843,2.539C336.508-101.522,336.872-101.319,336.975-101.566z"/>
	<path fill="#E98C24" d="M348.099-107.853c0.327-0.777,0.654-1.555,0.98-2.332c0.104-0.247-0.298-0.359-0.4-0.114
		c-0.327,0.777-0.654,1.555-0.98,2.332C347.595-107.721,347.996-107.609,348.099-107.853z"/>
	<path fill="#E98C24" d="M344.861-108.772c-0.059,0.26,0.342,0.377,0.4,0.114c0.186-0.829,0.373-1.658,0.559-2.487
		c0.059-0.26-0.342-0.377-0.4-0.114C345.234-110.43,345.047-109.601,344.861-108.772z"/>
	<path fill="#E98C24" d="M341.783-111.326c0.025,0.781,0.049,1.563,0.074,2.344c0.008,0.241,0.391,0.25,0.383,0.007
		c-0.025-0.781-0.049-1.563-0.074-2.344C342.159-111.56,341.776-111.569,341.783-111.326z"/>
	<path fill="#E98C24" d="M338.946-110.798c0.153,0.837,0.306,1.673,0.459,2.51c0.046,0.25,0.42,0.146,0.374-0.103
		c-0.153-0.837-0.306-1.673-0.459-2.51C339.274-111.151,338.9-111.048,338.946-110.798z"/>
	<path fill="#E98C24" d="M336.309-109.467l1.221,2.225c0.119,0.217,0.456,0.034,0.337-0.184c-0.407-0.742-0.814-1.483-1.221-2.225
		C336.527-109.868,336.19-109.684,336.309-109.467z"/>
	<path fill="#E98C24" d="M333.697-107.288c0.595,0.498,1.189,0.996,1.784,1.495c0.204,0.171,0.506-0.116,0.301-0.288
		c-0.595-0.498-1.189-0.996-1.784-1.495C333.794-107.747,333.491-107.46,333.697-107.288z"/>
	<path fill="#E98C24" d="M331.628-104.195c0.81,0.267,1.621,0.534,2.431,0.801c0.232,0.076,0.349-0.323,0.117-0.4
		c-0.81-0.267-1.621-0.534-2.431-0.801C331.513-104.671,331.396-104.271,331.628-104.195z"/>
	<path fill="#E98C24" d="M330.516-101.128c0.862,0.097,1.723,0.194,2.585,0.291c0.266,0.03,0.268-0.387,0.004-0.417
		c-0.862-0.097-1.723-0.194-2.585-0.291C330.254-101.575,330.251-101.158,330.516-101.128z"/>
	<path fill="#E98C24" d="M353.846-97.76c0.839-0.084,1.678-0.169,2.517-0.253c0.266-0.027,0.173-0.433-0.091-0.406
		c-0.839,0.084-1.678,0.169-2.517,0.253C353.489-98.139,353.582-97.733,353.846-97.76z"/>
	<path fill="#E98C24" d="M356.097-101.156c-0.853,0.145-1.707,0.29-2.56,0.435c-0.263,0.045-0.209,0.458,0.056,0.413
		c0.853-0.145,1.707-0.29,2.56-0.435C356.417-100.788,356.362-101.201,356.097-101.156z"/>
	<path fill="#E98C24" d="M355.2-103.879c-0.803,0.304-1.606,0.607-2.41,0.911c-0.24,0.091-0.09,0.466,0.149,0.376
		c0.803-0.304,1.606-0.607,2.41-0.911C355.588-103.594,355.439-103.97,355.2-103.879z"/>
	<path fill="#E98C24" d="M353.706-106.259l-1.927,1.433c-0.188,0.14,0.033,0.429,0.221,0.289c0.642-0.478,1.284-0.955,1.927-1.433
		C354.115-106.109,353.894-106.399,353.706-106.259z"/>
	<path fill="#E98C24" d="M351.276-108.644c-0.407,0.66-0.814,1.321-1.221,1.981c-0.139,0.226,0.188,0.484,0.329,0.256
		c0.407-0.66,0.814-1.321,1.221-1.981C351.744-108.614,351.416-108.872,351.276-108.644z"/>
	<path fill="#E98C24" d="M332.56-99.116c-0.693,0.059-1.386,0.117-2.078,0.176c-0.266,0.023-0.243,0.438,0.026,0.416
		c0.693-0.059,1.386-0.117,2.078-0.176C332.852-98.723,332.828-99.139,332.56-99.116z"/>
	<path fill="#E98C24" d="M332.778-96.413c-0.763,0.079-1.526,0.158-2.289,0.236c-0.266,0.027-0.242,0.443,0.026,0.416
		c0.763-0.079,1.526-0.158,2.289-0.236C333.069-96.024,333.045-96.44,332.778-96.413z"/>
	<path fill="#E98C24" d="M333.149-94.574c-0.709,0.19-1.418,0.38-2.127,0.57c-0.259,0.069-0.127,0.464,0.132,0.395
		c0.709-0.19,1.418-0.38,2.128-0.57C333.54-94.248,333.408-94.643,333.149-94.574z"/>
	<path fill="#E98C24" d="M334.227-92.744c-0.691,0.319-1.381,0.638-2.072,0.957c-0.241,0.111-0.112,0.508,0.132,0.395
		c0.691-0.319,1.381-0.638,2.072-0.957C334.599-92.46,334.471-92.857,334.227-92.744z"/>
	<path fill="#E98C24" d="M335.258-90.853c-0.517,0.472-1.034,0.944-1.551,1.416c-0.198,0.181,0.112,0.459,0.309,0.28
		c0.517-0.472,1.034-0.944,1.551-1.416C335.765-90.754,335.454-91.032,335.258-90.853z"/>
	<path fill="#E98C24" d="M337.415-89.246c-0.435,0.601-0.87,1.202-1.306,1.803c-0.156,0.215,0.152,0.497,0.309,0.28
		c0.435-0.601,0.87-1.202,1.306-1.803C337.879-89.181,337.572-89.463,337.415-89.246z"/>
</g>
<g>
	<path fill="#E98C24" d="M216.529-94.108c0.45,0.028,0.9,0.104,1.346,0.225c-0.447-0.117-0.901-0.194-1.351-0.222L216.529-94.108z"
		/>
	<path fill="#E98C24" d="M218.583-93.658l-0.001,0.004l-0.004-0.001c-0.117-0.044-0.231-0.083-0.346-0.122
		C218.348-93.743,218.466-93.703,218.583-93.658z"/>
	<g>
		<circle fill="#FEC465" cx="215.601" cy="-87.04" r="6.439"/>
		<path fill="#FAA61C" d="M213.037-80.264c-3.736-1.414-5.626-5.604-4.212-9.34c1.414-3.736,5.604-5.626,9.34-4.212
			c3.736,1.414,5.626,5.604,4.212,9.34S216.773-78.85,213.037-80.264z M217.594-92.308c-2.905-1.099-6.162,0.37-7.261,3.275
			c-1.099,2.905,0.37,6.162,3.275,7.261c2.905,1.099,6.162-0.37,7.261-3.275C221.967-87.951,220.498-91.209,217.594-92.308z"/>
	</g>
	<g>
		<g>
			<g>
				<path fill="#FAA61C" d="M217.08-84.957c-0.342,0.905-1.182,1.429-2.173,1.398l-0.403,1.064l-1.587-0.601l0.365-0.966
					c-0.424-0.246-0.792-0.57-1.011-0.9l-0.226-0.34l1.162-1.367l0.404,0.566c0.215,0.298,0.557,0.558,0.915,0.694
					c0.267,0.101,0.619,0.118,0.727-0.165c0.043-0.115,0.124-0.328-0.483-0.886c-0.764-0.694-1.489-1.563-1.046-2.735
					c0.327-0.865,1.131-1.367,2.082-1.339l0.392-1.037l1.577,0.597l-0.354,0.935c0.318,0.19,0.587,0.419,0.808,0.692l0.286,0.355
					l-1.177,1.335l-0.406-0.489c-0.109-0.13-0.334-0.404-0.806-0.583c-0.169-0.064-0.473-0.137-0.564,0.103
					c-0.042,0.111-0.088,0.233,0.601,0.88C216.788-87.164,217.566-86.24,217.08-84.957z"/>
			</g>
		</g>
	</g>
	<path fill="#FAA61C" d="M210.846-85.792c-0.28-1.365,0.063-2.754,0.938-3.836c0.092-0.113-0.076-0.266-0.168-0.152
		c-0.931,1.152-1.282,2.61-0.986,4.06C210.66-85.578,210.875-85.65,210.846-85.792z"/>
	<path fill="#FAA61C" d="M214.81-92.025c-0.925,0.246-1.768,0.687-2.497,1.306c-0.11,0.093,0.013,0.284,0.124,0.19
		c0.715-0.608,1.537-1.039,2.445-1.281C215.023-91.848,214.951-92.063,214.81-92.025z"/>
	<path fill="#FAA61C" d="M220.566-88.613c-0.034-0.142-0.249-0.07-0.215,0.072c0.394,1.618,0.019,3.314-1.019,4.617
		c-0.091,0.114,0.077,0.267,0.168,0.152C220.592-85.143,220.98-86.91,220.566-88.613z"/>
	<path fill="#FAA61C" d="M218.696-83.36c-0.612,0.606-1.352,1.029-2.183,1.255c-0.141,0.038-0.069,0.253,0.072,0.215
		c0.868-0.236,1.64-0.685,2.279-1.318C218.968-83.31,218.799-83.462,218.696-83.36z"/>
	<path fill="#FAA61C" d="M219.21-84.971c-0.212,0.522-0.532,0.973-0.956,1.344c-0.11,0.096,0.057,0.25,0.166,0.155
		c0.437-0.383,0.772-0.852,0.99-1.391C219.464-84.997,219.265-85.106,219.21-84.971z"/>
	<path fill="#E98C24" d="M213.425-81.719c-0.148,0.435-0.295,0.869-0.443,1.304c-0.047,0.138,0.175,0.183,0.222,0.047
		c0.148-0.435,0.295-0.869,0.443-1.304C213.694-81.81,213.471-81.856,213.425-81.719z"/>
	<path fill="#E98C24" d="M215.216-81.336c0.022-0.144-0.2-0.191-0.222-0.047c-0.069,0.457-0.139,0.915-0.208,1.372
		c-0.022,0.144,0.2,0.191,0.222,0.047C215.077-80.421,215.146-80.878,215.216-81.336z"/>
	<path fill="#E98C24" d="M216.885-79.988c-0.044-0.469-0.088-0.938-0.132-1.407c-0.014-0.145-0.24-0.132-0.226,0.014
		c0.044,0.469,0.088,0.938,0.132,1.407C216.673-79.829,216.899-79.842,216.885-79.988z"/>
	<path fill="#E98C24" d="M218.413-80.476c-0.121-0.443-0.242-0.885-0.363-1.328c-0.036-0.132-0.237-0.064-0.201,0.068
		c0.121,0.443,0.242,0.885,0.363,1.328C218.248-80.277,218.449-80.345,218.413-80.476z"/>
	<path fill="#E98C24" d="M219.754-81.266l-0.665-1.078c-0.065-0.105-0.225,0.002-0.16,0.107c0.222,0.359,0.443,0.719,0.665,1.078
		C219.659-81.054,219.819-81.161,219.754-81.266z"/>
	<path fill="#E98C24" d="M221.095-82.561c-0.342-0.248-0.684-0.495-1.026-0.743c-0.117-0.085-0.27,0.082-0.152,0.168
		c0.342,0.248,0.684,0.495,1.026,0.743C221.06-82.309,221.213-82.476,221.095-82.561z"/>
	<path fill="#E98C24" d="M222.065-84.257c-0.431-0.108-0.862-0.216-1.292-0.324c-0.123-0.031-0.172,0.19-0.049,0.221
		c0.431,0.108,0.862,0.216,1.292,0.324C222.14-84.005,222.188-84.226,222.065-84.257z"/>
	<path fill="#E98C24" d="M222.607-85.91c-0.472-0.02-0.943-0.039-1.415-0.059c-0.145-0.006-0.131,0.22,0.014,0.226
		c0.472,0.02,0.943,0.039,1.415,0.059C222.767-85.678,222.752-85.904,222.607-85.91z"/>
	<path fill="#FAA61C" d="M212.176-88.776c0.217-0.52,0.541-0.968,0.969-1.335c0.111-0.095-0.054-0.251-0.164-0.156
		c-0.441,0.379-0.78,0.845-1.003,1.382C211.922-88.752,212.12-88.642,212.176-88.776z"/>
	<path fill="#E98C24" d="M218.23-92.198c0.178-0.423,0.356-0.846,0.534-1.269c0.056-0.134-0.162-0.195-0.218-0.062
		c-0.178,0.423-0.356,0.846-0.534,1.269C217.956-92.126,218.174-92.065,218.23-92.198z"/>
	<path fill="#E98C24" d="M216.468-92.698c-0.032,0.142,0.186,0.205,0.218,0.062c0.101-0.451,0.203-0.903,0.304-1.354
		c0.032-0.142-0.186-0.205-0.218-0.062C216.671-93.601,216.569-93.149,216.468-92.698z"/>
	<path fill="#E98C24" d="M214.793-94.088c0.013,0.425,0.027,0.851,0.04,1.276c0.004,0.131,0.213,0.136,0.209,0.004
		c-0.013-0.425-0.027-0.851-0.04-1.276C214.997-94.216,214.789-94.22,214.793-94.088z"/>
	<path fill="#E98C24" d="M213.248-93.801c0.083,0.455,0.167,0.911,0.25,1.366c0.025,0.136,0.228,0.08,0.204-0.056
		c-0.083-0.455-0.167-0.911-0.25-1.366C213.427-93.993,213.223-93.937,213.248-93.801z"/>
	<path fill="#E98C24" d="M211.813-93.077l0.665,1.211c0.065,0.118,0.248,0.018,0.183-0.1c-0.222-0.404-0.443-0.807-0.665-1.211
		C211.932-93.295,211.748-93.195,211.813-93.077z"/>
	<path fill="#E98C24" d="M210.391-91.891c0.324,0.271,0.647,0.542,0.971,0.813c0.111,0.093,0.276-0.063,0.164-0.157
		c-0.324-0.271-0.647-0.542-0.971-0.813C210.444-92.14,210.279-91.984,210.391-91.891z"/>
	<path fill="#E98C24" d="M209.265-90.207c0.441,0.145,0.882,0.291,1.323,0.436c0.126,0.042,0.19-0.176,0.064-0.217
		c-0.441-0.145-0.882-0.291-1.323-0.436C209.203-90.466,209.139-90.248,209.265-90.207z"/>
	<path fill="#E98C24" d="M208.66-88.538c0.469,0.053,0.938,0.106,1.407,0.158c0.145,0.016,0.146-0.211,0.002-0.227
		c-0.469-0.053-0.938-0.106-1.407-0.158C208.518-88.781,208.516-88.554,208.66-88.538z"/>
	<path fill="#E98C24" d="M221.358-86.704c0.457-0.046,0.913-0.092,1.37-0.138c0.145-0.015,0.094-0.236-0.049-0.221
		c-0.457,0.046-0.913,0.092-1.37,0.138C221.164-86.911,221.215-86.69,221.358-86.704z"/>
	<path fill="#E98C24" d="M222.584-88.553c-0.464,0.079-0.929,0.158-1.393,0.237c-0.143,0.024-0.114,0.249,0.031,0.225
		c0.464-0.079,0.929-0.158,1.393-0.237C222.758-88.353,222.728-88.577,222.584-88.553z"/>
	<path fill="#E98C24" d="M222.095-90.035c-0.437,0.165-0.874,0.33-1.311,0.496c-0.13,0.049-0.049,0.254,0.081,0.205
		c0.437-0.165,0.874-0.33,1.311-0.496C222.307-89.88,222.225-90.084,222.095-90.035z"/>
	<path fill="#E98C24" d="M221.282-91.33l-1.049,0.78c-0.103,0.076,0.018,0.234,0.12,0.157c0.35-0.26,0.699-0.52,1.049-0.78
		C221.505-91.249,221.385-91.406,221.282-91.33z"/>
	<path fill="#E98C24" d="M219.959-92.629c-0.221,0.359-0.443,0.719-0.664,1.078c-0.076,0.123,0.102,0.263,0.179,0.139
		c0.221-0.359,0.443-0.719,0.664-1.078C220.214-92.612,220.036-92.753,219.959-92.629z"/>
	<path fill="#E98C24" d="M209.773-87.443c-0.377,0.032-0.754,0.064-1.131,0.096c-0.145,0.012-0.132,0.239,0.014,0.226
		c0.377-0.032,0.754-0.064,1.131-0.096C209.932-87.229,209.919-87.455,209.773-87.443z"/>
	<path fill="#E98C24" d="M209.891-85.971c-0.415,0.043-0.831,0.086-1.246,0.129c-0.145,0.015-0.132,0.241,0.014,0.226
		c0.415-0.043,0.831-0.086,1.246-0.129C210.049-85.76,210.037-85.986,209.891-85.971z"/>
	<path fill="#E98C24" d="M210.093-84.97c-0.386,0.103-0.772,0.207-1.158,0.31c-0.141,0.038-0.069,0.253,0.072,0.215
		c0.386-0.103,0.772-0.207,1.158-0.31C210.306-84.793,210.234-85.008,210.093-84.97z"/>
	<path fill="#E98C24" d="M210.68-83.974c-0.376,0.174-0.752,0.347-1.128,0.521c-0.131,0.061-0.061,0.276,0.072,0.215
		c0.376-0.174,0.752-0.347,1.128-0.521C210.883-83.82,210.813-84.036,210.68-83.974z"/>
	<path fill="#E98C24" d="M211.241-82.945c-0.281,0.257-0.563,0.514-0.844,0.77c-0.108,0.099,0.061,0.25,0.168,0.152
		c0.281-0.257,0.563-0.514,0.844-0.77C211.517-82.891,211.348-83.043,211.241-82.945z"/>
	<path fill="#E98C24" d="M212.415-82.07c-0.237,0.327-0.474,0.654-0.711,0.981c-0.085,0.117,0.082,0.27,0.168,0.152
		c0.237-0.327,0.474-0.654,0.711-0.981C212.668-82.035,212.5-82.188,212.415-82.07z"/>
</g>
<g>
	<path fill="#E98C24" d="M366.114-78.055c0.467-0.389,0.976-0.732,1.524-1.026c-0.546,0.299-1.06,0.644-1.527,1.033L366.114-78.055z
		"/>
	<path fill="#E98C24" d="M368.538-79.517l0.002,0.005l-0.005,0.002c-0.155,0.065-0.303,0.133-0.451,0.201
		C368.23-79.382,368.383-79.452,368.538-79.517z"/>
	<g>
		<circle fill="#FEC465" cx="371.748" cy="-70.283" r="8.67"/>
		<path fill="#FAA61C" d="M375.512-61.283c-4.963,2.076-10.689-0.272-12.765-5.235s0.272-10.689,5.235-12.765
			c4.963-2.076,10.689,0.272,12.765,5.235C382.823-69.085,380.475-63.359,375.512-61.283z M368.821-77.28
			c-3.858,1.614-5.684,6.066-4.07,9.924c1.614,3.858,6.066,5.684,9.924,4.07c3.858-1.614,5.684-6.066,4.07-9.924
			C377.131-77.068,372.679-78.894,368.821-77.28z"/>
	</g>
	<g>
		<g>
			<g>
				<path fill="#FAA61C" d="M375.123-69.616c0.503,1.202,0.167,2.491-0.832,3.379l0.591,1.413l-2.108,0.882l-0.537-1.283
					c-0.642,0.153-1.302,0.176-1.821,0.056l-0.536-0.123l-0.129-2.413l0.918,0.18c0.486,0.092,1.061,0.03,1.537-0.169
					c0.354-0.148,0.715-0.457,0.558-0.834c-0.064-0.153-0.182-0.435-1.292-0.419c-1.39,0.028-2.904-0.15-3.555-1.707
					c-0.48-1.148-0.159-2.384,0.796-3.237l-0.576-1.377l2.095-0.876l0.52,1.242c0.487-0.109,0.961-0.133,1.43-0.071l0.609,0.083
					l0.085,2.394l-0.85-0.103c-0.227-0.026-0.7-0.087-1.328,0.176c-0.224,0.094-0.589,0.305-0.456,0.623
					c0.062,0.148,0.129,0.31,1.403,0.304C372.795-71.503,374.41-71.32,375.123-69.616z"/>
			</g>
		</g>
	</g>
	<path fill="#FAA61C" d="M368.253-64.661c-1.537-1.076-2.487-2.752-2.633-4.62c-0.015-0.195-0.321-0.19-0.305,0.007
		c0.155,1.988,1.162,3.74,2.794,4.883C368.269-64.28,368.412-64.549,368.253-64.661z"/>
	<path fill="#FAA61C" d="M366.36-74.427c-0.676,1.097-1.093,2.308-1.233,3.589c-0.021,0.193,0.276,0.266,0.297,0.071
		c0.137-1.257,0.541-2.44,1.205-3.516C366.733-74.45,366.463-74.594,366.36-74.427z"/>
	<path fill="#FAA61C" d="M375.148-76.418c-0.165-0.107-0.308,0.163-0.144,0.269c1.883,1.218,3.086,3.224,3.277,5.458
		c0.017,0.195,0.322,0.189,0.305-0.007C378.385-73.048,377.129-75.136,375.148-76.418z"/>
	<path fill="#FAA61C" d="M378.181-69.549c-0.038,1.159-0.37,2.258-0.974,3.248c-0.102,0.168,0.167,0.312,0.269,0.144
		c0.63-1.034,0.97-2.189,1.01-3.398C378.493-69.753,378.188-69.745,378.181-69.549z"/>
	<path fill="#FAA61C" d="M377.193-71.601c0.276,0.707,0.38,1.444,0.309,2.2c-0.018,0.196,0.287,0.192,0.305-0.002
		c0.073-0.779-0.034-1.548-0.319-2.277C377.417-71.861,377.122-71.783,377.193-71.601z"/>
	<path fill="#E98C24" d="M374.545-63.066c0.258,0.562,0.516,1.123,0.774,1.685c0.082,0.178,0.341,0.017,0.26-0.16
		c-0.258-0.562-0.516-1.123-0.774-1.685C374.723-63.404,374.464-63.243,374.545-63.066z"/>
	<path fill="#E98C24" d="M376.651-64.348c-0.112-0.161-0.373-0.002-0.26,0.16c0.356,0.511,0.711,1.023,1.067,1.534
		c0.112,0.161,0.373,0.002,0.26-0.16C377.362-63.326,377.007-63.837,376.651-64.348z"/>
	<path fill="#E98C24" d="M379.531-64.576c-0.477-0.418-0.955-0.836-1.432-1.254c-0.147-0.129-0.357,0.093-0.208,0.223
		c0.477,0.418,0.955,0.836,1.432,1.254C379.47-64.224,379.68-64.446,379.531-64.576z"/>
	<path fill="#E98C24" d="M380.573-66.468c-0.528-0.321-1.056-0.642-1.584-0.963c-0.157-0.096-0.291,0.157-0.134,0.252
		c0.528,0.321,1.056,0.642,1.584,0.963C380.597-66.12,380.731-66.372,380.573-66.468z"/>
	<path fill="#E98C24" d="M381.154-68.481l-1.648-0.439c-0.161-0.043-0.218,0.21-0.057,0.253c0.549,0.146,1.099,0.293,1.648,0.439
		C381.257-68.185,381.315-68.438,381.154-68.481z"/>
	<path fill="#E98C24" d="M381.266-70.989c-0.564,0.074-1.127,0.149-1.691,0.223c-0.193,0.025-0.188,0.331,0.007,0.305
		c0.564-0.074,1.127-0.149,1.691-0.223C381.466-70.709,381.461-71.015,381.266-70.989z"/>
	<path fill="#E98C24" d="M380.646-73.545c-0.521,0.293-1.043,0.586-1.564,0.879c-0.149,0.084,0.008,0.345,0.157,0.262
		c0.521-0.293,1.043-0.586,1.564-0.879C380.952-73.368,380.795-73.629,380.646-73.545z"/>
	<path fill="#E98C24" d="M379.645-75.664c-0.479,0.417-0.959,0.835-1.438,1.252c-0.148,0.129,0.076,0.337,0.223,0.208
		c0.479-0.417,0.959-0.835,1.438-1.252C380.016-75.585,379.793-75.792,379.645-75.664z"/>
	<path fill="#FAA61C" d="M366.791-68.811c-0.27-0.71-0.366-1.447-0.288-2.202c0.02-0.196-0.285-0.195-0.305-0.001
		c-0.081,0.778,0.02,1.548,0.298,2.28C366.565-68.552,366.861-68.628,366.791-68.811z"/>
	<path fill="#E98C24" d="M369.545-77.762c-0.218-0.578-0.435-1.157-0.653-1.735c-0.069-0.183-0.339-0.041-0.271,0.141
		c0.218,0.578,0.435,1.157,0.653,1.735C369.343-77.437,369.613-77.58,369.545-77.762z"/>
	<path fill="#E98C24" d="M367.358-76.619c0.1,0.168,0.372,0.028,0.271-0.141c-0.319-0.535-0.637-1.07-0.956-1.606
		c-0.1-0.168-0.372-0.028-0.271,0.141C366.721-77.69,367.04-77.155,367.358-76.619z"/>
	<path fill="#E98C24" d="M364.434-76.428c0.407,0.403,0.814,0.807,1.221,1.21c0.126,0.125,0.334-0.064,0.207-0.19
		c-0.407-0.403-0.814-0.807-1.221-1.21C364.515-76.743,364.307-76.554,364.434-76.428z"/>
	<path fill="#E98C24" d="M363.189-74.718c0.503,0.368,1.006,0.736,1.509,1.104c0.15,0.11,0.297-0.134,0.147-0.243
		c-0.503-0.368-1.006-0.736-1.509-1.104C363.186-75.071,363.039-74.828,363.189-74.718z"/>
	<path fill="#E98C24" d="M362.456-72.681l1.771,0.569c0.173,0.056,0.26-0.212,0.087-0.268c-0.59-0.19-1.18-0.379-1.771-0.569
		C362.37-73.004,362.283-72.737,362.456-72.681z"/>
	<path fill="#E98C24" d="M362.163-70.205c0.567-0.034,1.135-0.069,1.702-0.103c0.194-0.012,0.211-0.317,0.015-0.305
		c-0.567,0.034-1.135,0.069-1.702,0.103C361.984-70.498,361.967-70.193,362.163-70.205z"/>
	<path fill="#E98C24" d="M362.621-67.516c0.566-0.266,1.132-0.532,1.698-0.799c0.162-0.076,0.023-0.348-0.139-0.272
		c-0.566,0.266-1.132,0.532-1.698,0.799C362.32-67.712,362.459-67.44,362.621-67.516z"/>
	<path fill="#E98C24" d="M363.574-65.324c0.508-0.382,1.015-0.765,1.523-1.147c0.157-0.118-0.052-0.341-0.208-0.224
		c-0.508,0.382-1.015,0.765-1.523,1.147C363.209-65.429,363.418-65.206,363.574-65.324z"/>
	<path fill="#E98C24" d="M377.689-75.284c0.404-0.468,0.808-0.935,1.212-1.403c0.128-0.148-0.126-0.318-0.253-0.171
		c-0.404,0.468-0.808,0.935-1.212,1.403C377.308-75.307,377.562-75.137,377.689-75.284z"/>
	<path fill="#E98C24" d="M377.176-78.226c-0.381,0.507-0.762,1.014-1.144,1.521c-0.118,0.157,0.12,0.349,0.238,0.191
		c0.381-0.507,0.762-1.014,1.144-1.521C377.532-78.192,377.295-78.384,377.176-78.226z"/>
	<path fill="#E98C24" d="M375.327-79.224c-0.275,0.566-0.549,1.132-0.824,1.699c-0.082,0.169,0.187,0.294,0.269,0.125
		c0.275-0.566,0.549-1.132,0.824-1.699C375.677-79.268,375.408-79.393,375.327-79.224z"/>
	<path fill="#E98C24" d="M373.333-79.738l-0.304,1.733c-0.03,0.169,0.234,0.212,0.263,0.043c0.101-0.578,0.202-1.156,0.304-1.733
		C373.626-79.865,373.362-79.907,373.333-79.738z"/>
	<path fill="#E98C24" d="M370.837-79.783c0.116,0.557,0.232,1.113,0.348,1.67c0.04,0.191,0.344,0.163,0.304-0.029
		c-0.116-0.557-0.232-1.113-0.348-1.67C371.102-80.003,370.797-79.976,370.837-79.783z"/>
	<path fill="#E98C24" d="M365.675-65.283c-0.339,0.38-0.679,0.76-1.018,1.141c-0.13,0.146,0.092,0.356,0.223,0.208
		c0.339-0.38,0.679-0.76,1.018-1.141C366.029-65.221,365.807-65.43,365.675-65.283z"/>
	<path fill="#E98C24" d="M367.153-63.953c-0.366,0.426-0.733,0.853-1.099,1.279c-0.128,0.148,0.095,0.358,0.223,0.208
		c0.366-0.426,0.733-0.853,1.099-1.279C367.504-63.893,367.282-64.103,367.153-63.953z"/>
	<path fill="#E98C24" d="M368.277-63.162c-0.282,0.458-0.564,0.917-0.846,1.375c-0.103,0.167,0.166,0.311,0.269,0.144
		c0.282-0.458,0.564-0.917,0.845-1.375C368.65-63.185,368.38-63.329,368.277-63.162z"/>
	<path fill="#E98C24" d="M369.773-62.731c-0.207,0.518-0.414,1.036-0.62,1.553c-0.072,0.18,0.196,0.327,0.269,0.144
		c0.207-0.518,0.414-1.036,0.62-1.553C370.114-62.767,369.846-62.913,369.773-62.731z"/>
	<path fill="#E98C24" d="M371.274-62.243c-0.037,0.512-0.075,1.023-0.112,1.535c-0.014,0.196,0.291,0.188,0.305-0.007
		c0.037-0.512,0.075-1.023,0.112-1.535C371.594-62.446,371.289-62.438,371.274-62.243z"/>
	<path fill="#E98C24" d="M373.232-62.474c0.071,0.539,0.142,1.078,0.213,1.618c0.026,0.193,0.331,0.188,0.305-0.007
		c-0.071-0.539-0.142-1.078-0.214-1.618C373.512-62.674,373.207-62.669,373.232-62.474z"/>
</g>
<g>
	<path fill="#E98C24" d="M222.525-64.93c0.362,0.382,0.687,0.804,0.971,1.262c-0.288-0.455-0.615-0.882-0.977-1.264L222.525-64.93z"
		/>
	<path fill="#E98C24" d="M223.922-62.914l-0.004,0.002l-0.002-0.004c-0.065-0.131-0.132-0.255-0.198-0.379
		C223.789-63.173,223.858-63.045,223.922-62.914z"/>
	<g>
		<circle fill="#FEC465" cx="216.115" cy="-59.631" r="7.512"/>
		<path fill="#FAA61C" d="M208.54-55.881c-2.068-4.177-0.352-9.257,3.825-11.325c4.177-2.068,9.257-0.352,11.325,3.825
			c2.068,4.177,0.352,9.257-3.825,11.325C215.688-49.989,210.608-51.704,208.54-55.881z M222.004-62.547
			c-1.607-3.247-5.557-4.581-8.804-2.973c-3.247,1.607-4.581,5.557-2.973,8.804c1.607,3.247,5.557,4.581,8.804,2.973
			S223.611-59.3,222.004-62.547z"/>
	</g>
	<g>
		<g>
			<g>
				<path fill="#FAA61C" d="M215.724-56.676c-1.012,0.501-2.145,0.282-2.967-0.534l-1.189,0.589l-0.878-1.774l1.08-0.535
					c-0.167-0.547-0.224-1.116-0.148-1.572l0.077-0.471l2.079-0.244l-0.105,0.804c-0.053,0.426,0.032,0.919,0.23,1.32
					c0.148,0.298,0.435,0.593,0.752,0.436c0.128-0.064,0.366-0.181,0.291-1.141c-0.101-1.2-0.03-2.519,1.28-3.167
					c0.966-0.478,2.053-0.269,2.843,0.51l1.159-0.574l0.873,1.763l-1.046,0.518c0.121,0.415,0.168,0.824,0.14,1.233l-0.038,0.531
					l-2.066,0.205l0.042-0.74c0.01-0.198,0.036-0.61-0.225-1.139c-0.093-0.189-0.296-0.493-0.564-0.36
					c-0.125,0.062-0.26,0.129-0.186,1.229C217.228-58.793,217.158-57.386,215.724-56.676z"/>
			</g>
		</g>
	</g>
	<path fill="#FAA61C" d="M211.062-62.344c0.846-1.388,2.243-2.302,3.85-2.531c0.168-0.024,0.146-0.288-0.022-0.264
		c-1.711,0.244-3.17,1.21-4.068,2.685C210.733-62.309,210.974-62.2,211.062-62.344z"/>
	<path fill="#FAA61C" d="M219.402-64.517c-0.985-0.525-2.056-0.819-3.171-0.869c-0.168-0.008-0.215,0.253-0.045,0.261
		c1.094,0.049,2.139,0.334,3.107,0.849C219.443-64.197,219.552-64.437,219.402-64.517z"/>
	<path fill="#FAA61C" d="M221.606-57.028c0.083-0.148-0.158-0.258-0.241-0.11c-0.95,1.695-2.618,2.846-4.539,3.134
		c-0.168,0.025-0.146,0.289,0.022,0.264C218.871-54.044,220.607-55.245,221.606-57.028z"/>
	<path fill="#FAA61C" d="M215.834-54.028c-1.005,0.031-1.972-0.196-2.862-0.663c-0.151-0.079-0.26,0.162-0.11,0.241
		c0.929,0.488,1.946,0.718,2.994,0.686C216.028-53.77,216.004-54.033,215.834-54.028z"/>
	<path fill="#FAA61C" d="M217.554-54.995c-0.596,0.278-1.228,0.408-1.885,0.388c-0.17-0.005-0.15,0.259,0.019,0.264
		c0.678,0.021,1.337-0.115,1.951-0.401C217.792-54.816,217.708-55.067,217.554-54.995z"/>
	<path fill="#E98C24" d="M210.029-56.816c-0.471,0.254-0.943,0.508-1.414,0.762c-0.15,0.081,0.004,0.296,0.152,0.216
		c0.471-0.254,0.943-0.508,1.414-0.762C210.331-56.68,210.177-56.895,210.029-56.816z"/>
	<path fill="#E98C24" d="M211.253-55.065c0.133-0.105-0.019-0.322-0.152-0.216c-0.423,0.336-0.845,0.671-1.268,1.007
		c-0.133,0.105,0.019,0.322,0.152,0.216C210.408-54.394,210.831-54.729,211.253-55.065z"/>
	<path fill="#E98C24" d="M211.608-52.587c0.335-0.436,0.67-0.871,1.005-1.307c0.103-0.134-0.1-0.303-0.204-0.168
		c-0.335,0.436-0.67,0.871-1.005,1.307C211.301-52.621,211.504-52.452,211.608-52.587z"/>
	<path fill="#E98C24" d="M213.301-51.79c0.249-0.474,0.497-0.948,0.746-1.422c0.074-0.141-0.151-0.243-0.225-0.102
		c-0.249,0.474-0.497,0.948-0.746,1.422C213.002-51.751,213.227-51.649,213.301-51.79z"/>
	<path fill="#E98C24" d="M215.074-51.399l0.289-1.45c0.028-0.142-0.194-0.177-0.222-0.036c-0.096,0.483-0.193,0.966-0.289,1.45
		C214.824-51.293,215.046-51.258,215.074-51.399z"/>
	<path fill="#E98C24" d="M217.249-51.44c-0.095-0.483-0.191-0.966-0.286-1.45c-0.033-0.166-0.296-0.144-0.264,0.022
		c0.095,0.483,0.191,0.966,0.286,1.45C217.018-51.252,217.282-51.273,217.249-51.44z"/>
	<path fill="#E98C24" d="M219.425-52.117c-0.282-0.435-0.564-0.869-0.846-1.304c-0.081-0.124-0.298,0.026-0.217,0.15
		c0.282,0.435,0.564,0.869,0.846,1.304C219.288-51.842,219.506-51.992,219.425-52.117z"/>
	<path fill="#E98C24" d="M221.202-53.098c-0.387-0.391-0.775-0.783-1.162-1.174c-0.119-0.121-0.287,0.084-0.168,0.204
		c0.387,0.391,0.775,0.783,1.162,1.174C221.154-52.773,221.321-52.978,221.202-53.098z"/>
	<path fill="#FAA61C" d="M214.57-63.836c0.599-0.272,1.231-0.396,1.889-0.37c0.17,0.007,0.153-0.257-0.016-0.264
		c-0.677-0.027-1.338,0.102-1.955,0.383C214.334-64.017,214.415-63.765,214.57-63.836z"/>
	<path fill="#E98C24" d="M222.46-61.947c0.488-0.22,0.976-0.44,1.464-0.66c0.155-0.07,0.017-0.296-0.137-0.226
		c-0.488,0.22-0.976,0.44-1.464,0.66C222.169-62.104,222.307-61.878,222.46-61.947z"/>
	<path fill="#E98C24" d="M221.353-63.775c-0.14,0.096-0.004,0.323,0.137,0.226c0.445-0.305,0.891-0.61,1.336-0.915
		c0.14-0.096,0.004-0.323-0.137-0.226C222.243-64.384,221.798-64.08,221.353-63.775z"/>
	<path fill="#E98C24" d="M221.027-66.293c-0.326,0.374-0.653,0.748-0.98,1.122c-0.101,0.115,0.074,0.285,0.175,0.169
		c0.327-0.374,0.653-0.748,0.98-1.122C221.303-66.24,221.128-66.41,221.027-66.293z"/>
	<path fill="#E98C24" d="M219.479-67.276c-0.291,0.455-0.581,0.91-0.872,1.365c-0.087,0.136,0.132,0.249,0.219,0.114
		c0.291-0.455,0.581-0.91,0.872-1.365C219.784-67.298,219.566-67.411,219.479-67.276z"/>
	<path fill="#E98C24" d="M217.678-67.797l-0.395,1.562c-0.039,0.153,0.198,0.213,0.236,0.06c0.132-0.521,0.263-1.042,0.395-1.562
		C217.952-67.889,217.716-67.95,217.678-67.797z"/>
	<path fill="#E98C24" d="M215.521-67.914c0.061,0.489,0.122,0.978,0.183,1.466c0.021,0.167,0.286,0.165,0.265-0.004
		c-0.061-0.489-0.122-0.978-0.183-1.466C215.764-68.085,215.5-68.083,215.521-67.914z"/>
	<path fill="#E98C24" d="M213.221-67.371c0.261,0.475,0.523,0.949,0.784,1.424c0.075,0.136,0.302,0.001,0.227-0.135
		c-0.261-0.475-0.523-0.949-0.784-1.424C213.373-67.642,213.146-67.506,213.221-67.371z"/>
	<path fill="#E98C24" d="M211.377-66.426c0.359,0.418,0.717,0.836,1.076,1.254c0.111,0.129,0.292-0.064,0.182-0.192
		c-0.359-0.418-0.717-0.836-1.076-1.254C211.449-66.747,211.267-66.554,211.377-66.426z"/>
	<path fill="#E98C24" d="M220.766-54.769c0.426,0.324,0.853,0.647,1.279,0.971c0.135,0.103,0.268-0.126,0.134-0.228
		c-0.426-0.324-0.853-0.647-1.279-0.971C220.764-55.1,220.632-54.871,220.766-54.769z"/>
	<path fill="#E98C24" d="M223.282-55.374c-0.459-0.302-0.919-0.603-1.378-0.905c-0.142-0.093-0.295,0.123-0.152,0.216
		c0.459,0.302,0.919,0.604,1.378,0.905C223.271-55.065,223.425-55.28,223.282-55.374z"/>
	<path fill="#E98C24" d="M224.042-57.028c-0.505-0.206-1.009-0.413-1.514-0.619c-0.151-0.062-0.244,0.178-0.093,0.239
		c0.505,0.206,1.009,0.413,1.514,0.619C224.1-56.728,224.193-56.967,224.042-57.028z"/>
	<path fill="#E98C24" d="M224.377-58.781l-1.515-0.167c-0.148-0.016-0.171,0.214-0.022,0.23c0.505,0.056,1.01,0.111,1.515,0.167
		C224.503-58.534,224.526-58.764,224.377-58.781z"/>
	<path fill="#E98C24" d="M224.28-60.941c-0.475,0.131-0.95,0.262-1.424,0.393c-0.163,0.045-0.122,0.306,0.042,0.261
		c0.475-0.131,0.95-0.262,1.424-0.393C224.484-60.724,224.443-60.986,224.28-60.941z"/>
	<path fill="#E98C24" d="M211.458-64.607c-0.347-0.272-0.695-0.545-1.042-0.817c-0.134-0.105-0.302,0.099-0.168,0.204
		c0.347,0.272,0.695,0.545,1.042,0.817C211.423-64.298,211.592-64.501,211.458-64.607z"/>
	<path fill="#E98C24" d="M210.389-63.256c-0.389-0.293-0.778-0.587-1.166-0.88c-0.135-0.102-0.304,0.101-0.168,0.204
		c0.389,0.293,0.778,0.587,1.166,0.88C210.357-62.949,210.526-63.153,210.389-63.256z"/>
	<path fill="#E98C24" d="M209.767-62.24c-0.412-0.218-0.824-0.437-1.235-0.655c-0.15-0.08-0.26,0.161-0.11,0.241
		c0.412,0.218,0.824,0.437,1.235,0.655C209.807-61.92,209.917-62.161,209.767-62.24z"/>
	<path fill="#E98C24" d="M209.476-60.923c-0.459-0.15-0.918-0.301-1.377-0.451c-0.16-0.052-0.272,0.188-0.11,0.241
		c0.459,0.15,0.918,0.301,1.377,0.451C209.526-60.63,209.638-60.87,209.476-60.923z"/>
	<path fill="#E98C24" d="M209.137-59.598c-0.444-0.004-0.889-0.008-1.333-0.013c-0.17-0.002-0.146,0.262,0.022,0.264
		c0.444,0.004,0.889,0.008,1.333,0.013C209.33-59.333,209.306-59.597,209.137-59.598z"/>
	<path fill="#E98C24" d="M209.445-57.918c-0.462,0.091-0.925,0.182-1.387,0.274c-0.166,0.033-0.144,0.296,0.022,0.264
		c0.462-0.091,0.925-0.182,1.387-0.274C209.633-57.687,209.612-57.951,209.445-57.918z"/>
</g>
<circle fill="#5EB0E2" fill-opacity="0.5" cx="31.75" cy="255.828" r="11.509"/>
<circle fill="#FFFFFF" cx="31.457" cy="255.828" r="6.668"/>
<path fill="#6BC7B5" fill-opacity="0.5" d="M29.053,244.32c0,0,2.132-0.099,2.404,2.024c0,0,0.51,1.819-1.202,2.927
	c0,0-5.466,1.731-5.466,6.558v17.143c0,0-0.025,2.463-2.276,2.506c0,0-2.272-0.042-2.272-2.421c0-2.378,0-17.228,0-17.228
	S19.625,247.561,29.053,244.32z"/>
<circle fill="#5EB0E2" fill-opacity="0.5" cx="51.247" cy="254.157" r="11.509"/>
<circle fill="#FFFFFF" cx="50.953" cy="254.157" r="6.668"/>
<path fill="#6BC7B5" fill-opacity="0.5" d="M39.738,254.44v-20.045c0,0-0.034-2.208,1.778-2.208c0,0,2.548-0.057,2.491,2.208
	l0.001,20.045c0,0,1.547,6.654,6.945,6.385c0,0,2.227-0.212,2.454,1.883c0,0,1.148,2.605-1.635,2.944
	C51.772,265.652,39.738,265.142,39.738,254.44z"/>
<g>
	<path fill="#E98C24" d="M65.795,227.646c0.45,0.028,0.9,0.104,1.346,0.225c-0.447-0.117-0.901-0.194-1.351-0.222L65.795,227.646z"
		/>
	<path fill="#E98C24" d="M67.849,228.096l-0.001,0.004l-0.004-0.001c-0.117-0.044-0.231-0.083-0.346-0.122
		C67.614,228.011,67.732,228.052,67.849,228.096z"/>
	<g>
		<circle fill="#FEC465" cx="64.866" cy="234.715" r="6.439"/>
		<path fill="#FAA61C" d="M62.302,241.491c-3.736-1.414-5.626-5.604-4.212-9.34s5.604-5.626,9.34-4.212
			c3.736,1.414,5.626,5.604,4.212,9.34C70.228,241.015,66.039,242.904,62.302,241.491z M66.859,229.447
			c-2.905-1.099-6.162,0.37-7.261,3.275c-1.099,2.905,0.37,6.162,3.275,7.261c2.905,1.099,6.162-0.37,7.261-3.275
			C71.233,233.803,69.764,230.546,66.859,229.447z"/>
	</g>
	<g>
		<g>
			<g>
				<path fill="#FAA61C" d="M66.346,236.798c-0.342,0.905-1.182,1.429-2.173,1.398l-0.403,1.064l-1.587-0.601l0.365-0.966
					c-0.424-0.245-0.792-0.57-1.011-0.9l-0.226-0.34l1.162-1.367l0.404,0.566c0.215,0.298,0.557,0.558,0.915,0.694
					c0.267,0.101,0.619,0.118,0.727-0.165c0.043-0.115,0.124-0.328-0.483-0.886c-0.764-0.694-1.489-1.563-1.046-2.735
					c0.327-0.865,1.131-1.367,2.082-1.339l0.392-1.037l1.577,0.597l-0.354,0.935c0.318,0.19,0.587,0.419,0.808,0.692l0.286,0.355
					l-1.177,1.335l-0.406-0.489c-0.109-0.13-0.334-0.404-0.806-0.583c-0.169-0.064-0.473-0.137-0.564,0.103
					c-0.042,0.111-0.088,0.233,0.601,0.88C66.054,234.591,66.832,235.514,66.346,236.798z"/>
			</g>
		</g>
	</g>
	<path fill="#FAA61C" d="M60.111,235.963c-0.28-1.365,0.063-2.754,0.938-3.836c0.092-0.113-0.076-0.266-0.168-0.152
		c-0.931,1.152-1.282,2.61-0.986,4.06C59.925,236.177,60.14,236.104,60.111,235.963z"/>
	<path fill="#FAA61C" d="M64.076,229.729c-0.925,0.246-1.768,0.687-2.497,1.306c-0.11,0.093,0.013,0.284,0.124,0.19
		c0.715-0.608,1.537-1.039,2.445-1.281C64.289,229.907,64.217,229.692,64.076,229.729z"/>
	<path fill="#FAA61C" d="M69.832,233.142c-0.034-0.142-0.249-0.07-0.215,0.072c0.394,1.618,0.019,3.314-1.019,4.617
		c-0.091,0.114,0.077,0.267,0.168,0.152C69.858,236.612,70.246,234.844,69.832,233.142z"/>
	<path fill="#FAA61C" d="M67.962,238.395c-0.612,0.606-1.352,1.029-2.183,1.255c-0.141,0.038-0.069,0.253,0.072,0.215
		c0.868-0.236,1.64-0.685,2.279-1.318C68.234,238.444,68.065,238.292,67.962,238.395z"/>
	<path fill="#FAA61C" d="M68.476,236.784c-0.212,0.522-0.532,0.973-0.956,1.344c-0.11,0.096,0.057,0.25,0.166,0.155
		c0.437-0.383,0.772-0.852,0.99-1.391C68.73,236.757,68.531,236.649,68.476,236.784z"/>
	<path fill="#E98C24" d="M62.691,240.035c-0.148,0.435-0.295,0.869-0.443,1.304c-0.047,0.138,0.175,0.183,0.222,0.047
		c0.148-0.435,0.295-0.869,0.443-1.304C62.959,239.944,62.737,239.898,62.691,240.035z"/>
	<path fill="#E98C24" d="M64.481,240.419c0.022-0.144-0.2-0.191-0.222-0.047c-0.069,0.457-0.139,0.915-0.208,1.372
		c-0.022,0.144,0.2,0.191,0.222,0.047C64.343,241.333,64.412,240.876,64.481,240.419z"/>
	<path fill="#E98C24" d="M66.151,241.766c-0.044-0.469-0.088-0.938-0.132-1.407c-0.014-0.145-0.24-0.132-0.226,0.014
		c0.044,0.469,0.088,0.938,0.132,1.407C65.938,241.925,66.165,241.912,66.151,241.766z"/>
	<path fill="#E98C24" d="M67.679,241.278c-0.121-0.443-0.242-0.885-0.363-1.328c-0.036-0.132-0.237-0.064-0.201,0.068
		c0.121,0.443,0.242,0.885,0.363,1.328C67.513,241.477,67.715,241.41,67.679,241.278z"/>
	<path fill="#E98C24" d="M69.019,240.488l-0.665-1.078c-0.065-0.105-0.225,0.002-0.16,0.107c0.222,0.359,0.443,0.719,0.665,1.078
		C68.924,240.701,69.084,240.593,69.019,240.488z"/>
	<path fill="#E98C24" d="M70.361,239.193c-0.342-0.248-0.684-0.495-1.026-0.743c-0.117-0.085-0.27,0.082-0.152,0.168
		c0.342,0.248,0.684,0.495,1.026,0.743C70.325,239.446,70.479,239.278,70.361,239.193z"/>
	<path fill="#E98C24" d="M71.331,237.497c-0.431-0.108-0.862-0.216-1.292-0.324c-0.123-0.031-0.172,0.19-0.049,0.221
		c0.431,0.108,0.862,0.216,1.292,0.324C71.405,237.75,71.454,237.528,71.331,237.497z"/>
	<path fill="#E98C24" d="M71.873,235.844c-0.472-0.02-0.943-0.039-1.415-0.059c-0.145-0.006-0.131,0.22,0.014,0.226
		c0.472,0.02,0.943,0.039,1.415,0.059C72.032,236.076,72.018,235.85,71.873,235.844z"/>
	<path fill="#FAA61C" d="M61.441,232.978c0.217-0.52,0.541-0.968,0.969-1.335c0.111-0.095-0.054-0.251-0.164-0.156
		c-0.441,0.379-0.78,0.845-1.003,1.382C61.187,233.002,61.385,233.113,61.441,232.978z"/>
	<path fill="#E98C24" d="M67.496,229.556c0.178-0.423,0.356-0.846,0.534-1.269c0.056-0.134-0.162-0.195-0.218-0.062
		c-0.178,0.423-0.356,0.846-0.534,1.269C67.221,229.628,67.44,229.689,67.496,229.556z"/>
	<path fill="#E98C24" d="M65.733,229.056c-0.032,0.142,0.186,0.205,0.218,0.062c0.101-0.451,0.203-0.903,0.304-1.354
		c0.032-0.142-0.186-0.205-0.218-0.062C65.936,228.154,65.835,228.605,65.733,229.056z"/>
	<path fill="#E98C24" d="M64.058,227.666c0.013,0.425,0.027,0.851,0.04,1.276c0.004,0.131,0.213,0.136,0.209,0.004
		c-0.013-0.425-0.027-0.851-0.04-1.276C64.263,227.538,64.054,227.534,64.058,227.666z"/>
	<path fill="#E98C24" d="M62.514,227.953c0.083,0.455,0.167,0.911,0.25,1.366c0.025,0.136,0.228,0.08,0.204-0.056
		c-0.083-0.455-0.167-0.911-0.25-1.366C62.693,227.761,62.489,227.817,62.514,227.953z"/>
	<path fill="#E98C24" d="M61.079,228.678l0.665,1.211c0.065,0.118,0.248,0.018,0.183-0.1c-0.222-0.404-0.443-0.807-0.665-1.211
		C61.197,228.459,61.014,228.56,61.079,228.678z"/>
	<path fill="#E98C24" d="M59.657,229.864c0.324,0.271,0.647,0.542,0.971,0.813c0.111,0.093,0.276-0.063,0.164-0.157
		c-0.324-0.271-0.647-0.542-0.971-0.813C59.71,229.614,59.545,229.77,59.657,229.864z"/>
	<path fill="#E98C24" d="M58.531,231.547c0.441,0.145,0.882,0.291,1.323,0.436c0.126,0.042,0.19-0.176,0.064-0.217
		c-0.441-0.145-0.882-0.291-1.323-0.436C58.468,231.288,58.405,231.506,58.531,231.547z"/>
	<path fill="#E98C24" d="M57.926,233.217c0.469,0.053,0.938,0.106,1.407,0.158c0.145,0.016,0.146-0.211,0.002-0.227
		c-0.469-0.053-0.938-0.106-1.407-0.158C57.783,232.974,57.782,233.2,57.926,233.217z"/>
	<path fill="#E98C24" d="M70.624,235.05c0.457-0.046,0.913-0.092,1.37-0.138c0.145-0.015,0.094-0.236-0.049-0.221
		c-0.457,0.046-0.913,0.092-1.37,0.138C70.429,234.843,70.48,235.064,70.624,235.05z"/>
	<path fill="#E98C24" d="M71.849,233.202c-0.464,0.079-0.929,0.158-1.393,0.237c-0.143,0.024-0.114,0.249,0.031,0.225
		c0.464-0.079,0.929-0.158,1.393-0.237C72.023,233.402,71.994,233.177,71.849,233.202z"/>
	<path fill="#E98C24" d="M71.361,231.719c-0.437,0.165-0.874,0.33-1.312,0.496c-0.13,0.049-0.049,0.254,0.081,0.205
		c0.437-0.165,0.874-0.33,1.311-0.496C71.572,231.875,71.491,231.67,71.361,231.719z"/>
	<path fill="#E98C24" d="M70.548,230.424l-1.049,0.78c-0.103,0.076,0.018,0.234,0.12,0.157c0.35-0.26,0.699-0.52,1.049-0.78
		C70.77,230.505,70.65,230.348,70.548,230.424z"/>
	<path fill="#E98C24" d="M69.225,229.126c-0.221,0.359-0.443,0.719-0.664,1.078c-0.076,0.123,0.102,0.263,0.179,0.139
		c0.221-0.359,0.443-0.719,0.664-1.078C69.48,229.142,69.302,229.002,69.225,229.126z"/>
	<path fill="#E98C24" d="M59.038,234.312c-0.377,0.032-0.754,0.064-1.131,0.096c-0.145,0.012-0.132,0.239,0.014,0.226
		c0.377-0.032,0.754-0.064,1.131-0.096C59.197,234.526,59.184,234.299,59.038,234.312z"/>
	<path fill="#E98C24" d="M59.157,235.783c-0.415,0.043-0.831,0.086-1.246,0.129c-0.145,0.015-0.132,0.241,0.014,0.226
		c0.415-0.043,0.831-0.086,1.246-0.129C59.315,235.995,59.302,235.768,59.157,235.783z"/>
	<path fill="#E98C24" d="M59.359,236.784c-0.386,0.103-0.772,0.207-1.158,0.31c-0.141,0.038-0.069,0.253,0.072,0.215
		c0.386-0.103,0.772-0.207,1.158-0.31C59.572,236.961,59.5,236.746,59.359,236.784z"/>
	<path fill="#E98C24" d="M59.946,237.78c-0.376,0.174-0.752,0.347-1.128,0.521c-0.131,0.061-0.061,0.276,0.072,0.215
		c0.376-0.174,0.752-0.347,1.128-0.521C60.148,237.935,60.078,237.719,59.946,237.78z"/>
	<path fill="#E98C24" d="M60.507,238.809c-0.281,0.257-0.563,0.514-0.844,0.77c-0.108,0.099,0.061,0.25,0.168,0.152
		c0.281-0.257,0.563-0.514,0.844-0.77C60.782,238.863,60.613,238.712,60.507,238.809z"/>
	<path fill="#E98C24" d="M61.681,239.684c-0.237,0.327-0.474,0.654-0.711,0.981c-0.085,0.117,0.082,0.27,0.168,0.152
		c0.237-0.327,0.474-0.654,0.711-0.981C61.933,239.719,61.766,239.566,61.681,239.684z"/>
</g>
<path fill="#6BC7B5" fill-opacity="0.5" d="M126.232,26.26c0,1.636-1.129,2.962-2.521,2.962l0,0c-1.393,0-2.521-1.326-2.521-2.962
	V9.151c0-1.636,1.129-2.962,2.521-2.962l0,0c1.393,0,2.521,1.326,2.521,2.962V26.26z"/>
<path fill="#5EB0E2" fill-opacity="0.5" d="M165.64,26.26c0,1.636-1.129,2.962-2.521,2.962l0,0c-1.393,0-2.521-1.326-2.521-2.962
	V9.151c0-1.636,1.129-2.962,2.521-2.962l0,0c1.393,0,2.521,1.326,2.521,2.962V26.26z"/>
</svg>
