<?xml version="1.0" encoding="utf-8"?>
<!-- Generator: Adobe Illustrator 17.0.0, SVG Export Plug-In . SVG Version: 6.00 Build 0)  -->
<!DOCTYPE svg PUBLIC "-//W3C//DTD SVG 1.1//EN" "http://www.w3.org/Graphics/SVG/1.1/DTD/svg11.dtd">
<svg version="1.1" id="Camada_1" xmlns="http://www.w3.org/2000/svg" xmlns:xlink="http://www.w3.org/1999/xlink" x="0px" y="0px"
	 width="191.501px" height="163.166px" viewBox="0 0 191.501 163.166" enable-background="new 0 0 191.501 163.166"
	 xml:space="preserve">
<path fill="#5EB0E2" fill-opacity="0.5" d="M11.509,132.021C5.153,132.021,0,137.174,0,143.53s5.153,11.509,11.509,11.509
	s11.509-5.153,11.509-11.509S17.865,132.021,11.509,132.021z M11.215,150.198c-3.682,0-6.668-2.985-6.668-6.668
	s2.985-6.668,6.668-6.668s6.668,2.985,6.668,6.668S14.898,150.198,11.215,150.198z"/>
<path fill="#6BC7B5" fill-opacity="0.5" d="M8.812,132.021c0,0,2.132-0.099,2.404,2.024c0,0,0.51,1.819-1.202,2.927
	c0,0-5.466,1.731-5.466,6.558v17.143c0,0-0.025,2.463-2.276,2.506c0,0-2.272-0.042-2.272-2.421c0-2.378,0-17.228,0-17.228
	S-0.616,135.263,8.812,132.021z"/>
<path fill="#5EB0E2" fill-opacity="0.5" d="M146.254,132.021c-6.356,0-11.509,5.153-11.509,11.509s5.153,11.509,11.509,11.509
	s11.509-5.153,11.509-11.509S152.61,132.021,146.254,132.021z M145.96,150.198c-3.682,0-6.668-2.985-6.668-6.668
	s2.985-6.668,6.668-6.668s6.668,2.985,6.668,6.668S149.642,150.198,145.96,150.198z"/>
<path fill="#6BC7B5" fill-opacity="0.5" d="M143.556,132.021c0,0,2.132-0.099,2.404,2.024c0,0,0.51,1.819-1.202,2.927
	c0,0-5.466,1.731-5.466,6.558v17.143c0,0-0.025,2.463-2.276,2.506c0,0-2.272-0.042-2.272-2.421c0-2.378,0-17.228,0-17.228
	S134.128,135.263,143.556,132.021z"/>
<path fill="#5EB0E2" fill-opacity="0.5" d="M179.992,132.021c-6.356,0-11.509,5.153-11.509,11.509s5.153,11.509,11.509,11.509
	s11.509-5.153,11.509-11.509S186.348,132.021,179.992,132.021z M179.698,150.198c-3.682,0-6.668-2.985-6.668-6.668
	s2.985-6.668,6.668-6.668s6.668,2.985,6.668,6.668S183.38,150.198,179.698,150.198z"/>
<path fill="#6BC7B5" fill-opacity="0.5" d="M182.243,163.165c0,0-2.132,0.099-2.404-2.024c0,0-0.51-1.819,1.202-2.927
	c0,0,5.466-1.731,5.466-6.558v-17.143c0,0,0.025-2.463,2.276-2.506c0,0,2.272,0.042,2.272,2.421c0,2.378,0,17.228,0,17.228
	S191.671,159.923,182.243,163.165z"/>
<path fill="#5EB0E2" fill-opacity="0.5" d="M88.871,132.021c-6.356,0-11.509,5.153-11.509,11.509s5.153,11.509,11.509,11.509
	s11.509-5.153,11.509-11.509S95.227,132.021,88.871,132.021z M88.577,150.198c-3.682,0-6.668-2.985-6.668-6.668
	s2.985-6.668,6.668-6.668s6.668,2.985,6.668,6.668S92.26,150.198,88.577,150.198z"/>
<path fill="#6BC7B5" fill-opacity="0.5" d="M86.174,132.021c0,0,2.132-0.099,2.404,2.024c0,0,0.51,1.819-1.202,2.927
	c0,0-5.466,1.731-5.466,6.558v17.143c0,0-0.025,2.463-2.276,2.506c0,0-2.272-0.042-2.272-2.421c0-2.378,0-17.228,0-17.228
	S76.746,135.263,86.174,132.021z"/>
<path fill="#5EB0E2" fill-opacity="0.5" d="M37.783,132.021c-6.356,0-11.509,5.153-11.509,11.509s5.153,11.509,11.509,11.509
	s11.509-5.153,11.509-11.509S44.139,132.021,37.783,132.021z M37.489,150.198c-3.682,0-6.668-2.985-6.668-6.668
	s2.985-6.668,6.668-6.668s6.668,2.985,6.668,6.668S41.171,150.198,37.489,150.198z"/>
<path fill="#5EB0E2" fill-opacity="0.5" d="M114.724,132.021c-6.356,0-11.509,5.153-11.509,11.509s5.153,11.509,11.509,11.509
	s11.509-5.153,11.509-11.509S121.08,132.021,114.724,132.021z M114.43,150.198c-3.682,0-6.668-2.985-6.668-6.668
	s2.985-6.668,6.668-6.668s6.668,2.985,6.668,6.668S118.112,150.198,114.43,150.198z"/>
<path fill="#5EB0E2" fill-opacity="0.5" d="M52.126,143.89c0,11.749,11.449,12.69,11.449,12.69c12.677,0,10.853-12.69,10.853-12.69
	v-9.135c0-3.348-2.457-3.019-2.457-3.019c-2.718,0-2.457,3.019-2.457,3.019v9.135c-0.819,7.068-5.938,6.572-5.938,6.572
	c-6.199,0-6.311-6.572-6.311-6.572v-9.135c0-3.183-2.532-3.017-2.532-3.017c-2.681,0-2.606,3.017-2.606,3.017"/>
<circle fill="#5EB0E2" fill-opacity="0.5" cx="163.118" cy="128.119" r="2.301"/>
<g>
	<defs>
		<rect id="SVGID_1_" x="18.018" y="43.986" width="152.97" height="73.573"/>
	</defs>
	<clipPath id="SVGID_2_">
		<use xlink:href="#SVGID_1_"  overflow="visible"/>
	</clipPath>
	<g clip-path="url(#SVGID_2_)">
		<g>
			<ellipse fill="#010101" cx="62.088" cy="94.896" rx="1.074" ry="1.174"/>
			<ellipse fill="#010101" cx="126.387" cy="94.896" rx="1.074" ry="1.174"/>
			<path fill="#7AA0BC" d="M143.931,129.624c0,5.643-9.679,37.324-13.027,37.64c-3.597,0.339-14.057,0.579-16.878,0.24
				c-0.137-1.069,0.345-1.233-0.044-2.309c-0.574-1.582-1.895-1.757-3.243-2.223c-2.273-0.784-4.592-0.497-7.046-0.638
				c-0.046-1.823,4.923-3.45,6.139-4.156c1.836-1.066,3.299-2.72,5.067-3.915c1.786-1.209,3.69-2.23,5.564-3.303
				c3.459-1.98,6.515-4.537,9.584-7.007C131.712,142.613,143.931,129.624,143.931,129.624z"/>
			<path opacity="0.07" fill="#010101" d="M103.43,162.335c-0.046-1.823,4.924-3.45,6.139-4.156c1.836-1.066,3.299-2.72,5.067-3.915
				c1.786-1.209,3.69-2.23,5.564-3.303c3.459-1.98,6.515-4.537,9.584-7.007c1.666-1.34,13.885-14.33,13.885-14.33
				c0,1.643-0.822,5.495-2.068,10.136c-6.849,11.163-17.671,19.623-30.497,23.416c-0.207-0.065-0.416-0.131-0.627-0.203
				C108.204,162.188,105.885,162.475,103.43,162.335z"/>
			<path fill="#7AA0BC" d="M45.086,129.624c0,5.643,9.679,37.324,13.026,37.64c3.596,0.339,14.057,0.579,16.878,0.24
				c0.138-1.069-0.345-1.233,0.045-2.309c0.573-1.582,1.895-1.757,3.243-2.223c2.273-0.784,4.592-0.497,7.046-0.638
				c0.046-1.823-4.924-3.45-6.139-4.156c-1.836-1.066-3.299-2.72-5.067-3.915c-1.787-1.209-3.69-2.23-5.564-3.303
				c-3.459-1.98-6.515-4.537-9.585-7.007C57.304,142.613,45.086,129.624,45.086,129.624z"/>
			<path opacity="0.05" fill="#010101" d="M85.324,162.335c0.046-1.823-4.924-3.45-6.139-4.156c-1.836-1.066-3.299-2.72-5.067-3.915
				c-1.787-1.209-3.69-2.23-5.564-3.303c-3.459-1.98-6.515-4.537-9.585-7.007c-1.665-1.34-13.883-14.33-13.883-14.33
				c0,1.643,0.821,5.495,2.067,10.136c6.849,11.163,17.671,19.623,30.497,23.416c0.207-0.065,0.417-0.131,0.627-0.203
				C80.551,162.188,82.87,162.475,85.324,162.335z"/>
			<g>
				<path fill="#9AC2E6" d="M143.448,87.471c7.426-9.041,10.78-20.604,12.335-31.599c0.725-5.127-0.234-6.297-5.723-5.651
					c-3.875,0.323-8.397,1.292-12.272,2.261c-5.49,1.614-23.251,9.364-21.635,15.177c1.292,6.781,19.413,18.338,25.871,19.63
					L143.448,87.471z"/>
			</g>
			<g>
				<path fill="#7AA0BC" d="M140.892,81.035c4.872-5.931,7.072-13.515,8.092-20.727c0.475-3.363-0.154-4.13-3.755-3.706
					c-2.542,0.212-5.507,0.847-8.049,1.482c-3.601,1.059-15.251,6.143-14.192,9.955c0.847,4.448,12.734,12.029,16.971,12.877
					L140.892,81.035z"/>
			</g>
			<g>
				<path fill="#9AC2E6" d="M45.808,87.471c-7.427-9.041-10.78-20.604-12.335-31.599c-0.725-5.127,0.235-6.297,5.724-5.651
					c3.875,0.323,8.397,1.292,12.272,2.261c5.49,1.614,23.251,9.364,21.635,15.177c-1.292,6.781-19.413,18.338-25.871,19.63
					L45.808,87.471z"/>
			</g>
			<g>
				<path fill="#7AA0BC" d="M48.364,81.035c-4.872-5.931-7.072-13.515-8.092-20.727c-0.475-3.363,0.155-4.13,3.755-3.706
					c2.542,0.212,5.507,0.847,8.049,1.482c3.601,1.059,15.251,6.143,14.192,9.955c-0.847,4.448-12.734,12.029-16.97,12.877
					L48.364,81.035z"/>
			</g>
			<circle fill="#9AC2E6" cx="94.451" cy="109.469" r="53.612"/>
			<ellipse opacity="0.1" fill="#010101" cx="94.508" cy="123.991" rx="32.01" ry="32.729"/>
			<circle fill="#A3D0F0" cx="94.18" cy="117.56" r="31.028"/>
			<ellipse fill="#7BA4C4" cx="80.686" cy="118.542" rx="3.591" ry="8.837"/>
			<path opacity="0.1" fill="#010101" d="M80.686,125.317c-1.835,0-3.347-3.386-3.564-7.757c-0.017,0.354-0.028,0.714-0.028,1.08
				c0,4.881,1.608,8.837,3.591,8.837s3.591-3.956,3.591-8.837c0-0.366-0.01-0.726-0.028-1.08
				C84.033,121.931,82.521,125.317,80.686,125.317z"/>
			<ellipse fill="#7BA4C4" cx="108.331" cy="118.542" rx="3.591" ry="8.837"/>
			<path opacity="0.1" fill="#010101" d="M108.331,125.317c1.834,0,3.347-3.386,3.563-7.757c0.017,0.354,0.028,0.714,0.028,1.08
				c0,4.881-1.608,8.837-3.591,8.837c-1.983,0-3.591-3.956-3.591-8.837c0-0.366,0.009-0.726,0.028-1.08
				C104.983,121.931,106.496,125.317,108.331,125.317z"/>
			<circle fill="#272626" cx="61.827" cy="96.07" r="3.876"/>
			<circle fill="#FFFFFF" cx="63.968" cy="95.255" r="0.816"/>
			<circle fill="#272626" cx="126.386" cy="96.07" r="3.876"/>
			<circle fill="#FFFFFF" cx="128.527" cy="95.255" r="0.816"/>
			<path fill="#5C768A" d="M98.481,72.89V55.958c-1.33-0.099-2.674-0.15-4.029-0.15c-1.356,0-2.7,0.052-4.03,0.15v16.87
				L98.481,72.89z"/>
			<rect x="90.421" y="69.445" fill="#A3D0F0" width="8.06" height="3.445"/>
		</g>
	</g>
</g>
<g>
	<path fill="#E98C24" d="M91.901,8.454c1.172-0.262,2.378-0.404,3.606-0.425c-1.229,0.032-2.445,0.173-3.618,0.435L91.901,8.454z"/>
	<path fill="#E98C24" d="M97.483,8.077l-0.001,0.011l-0.011-0.001c-0.331-0.026-0.653-0.041-0.975-0.055
		C96.819,8.036,97.151,8.051,97.483,8.077z"/>
	<g>
		<circle fill="#FEC465" cx="94.777" cy="27.205" r="17.134"/>
		<path fill="#FAA61C" d="M93.258,46.423c-10.597-0.838-18.537-10.14-17.7-20.738c0.838-10.597,10.14-18.537,20.738-17.7
			s18.537,10.14,17.7,20.738C113.158,39.321,103.855,47.261,93.258,46.423z M95.957,12.263c-8.238-0.651-15.471,5.522-16.122,13.761
			s5.522,15.471,13.761,16.122c8.238,0.651,15.471-5.522,16.122-13.761C110.369,20.147,104.196,12.914,95.957,12.263z"/>
	</g>
	<g>
		<g>
			<g>
				<path fill="#FAA61C" d="M100.105,31.429c-0.203,2.567-1.958,4.53-4.516,5.185l-0.238,3.017l-4.502-0.356l0.217-2.74
					c-1.267-0.312-2.447-0.868-3.251-1.548l-0.831-0.702l1.954-4.356l1.452,1.146c0.772,0.601,1.838,1.013,2.853,1.093
					c0.757,0.06,1.67-0.157,1.734-0.962c0.026-0.326,0.073-0.929-1.893-1.904c-2.468-1.207-4.967-2.889-4.704-6.213
					c0.194-2.452,1.875-4.334,4.325-4.969l0.232-2.941l4.473,0.354l-0.21,2.653c0.954,0.249,1.81,0.635,2.578,1.168l0.996,0.696
					l-2.016,4.284l-1.4-0.949c-0.375-0.251-1.152-0.785-2.493-0.891c-0.479-0.038-1.311,0.002-1.365,0.682
					c-0.025,0.316-0.052,0.661,2.19,1.802C97.72,26.006,100.393,27.789,100.105,31.429z"/>
			</g>
		</g>
	</g>
	<path fill="#FAA61C" d="M83.553,33.925c-1.728-3.28-1.884-7.085-0.451-10.499c0.15-0.357-0.392-0.623-0.542-0.264
		c-1.525,3.635-1.339,7.622,0.497,11.106C83.237,34.611,83.733,34.266,83.553,33.925z"/>
	<path fill="#FAA61C" d="M89.055,15.052c-2.18,1.316-4.008,3.067-5.411,5.193c-0.211,0.32,0.244,0.717,0.457,0.393
		c1.377-2.085,3.157-3.798,5.296-5.09C89.731,15.348,89.387,14.852,89.055,15.052z"/>
	<path fill="#FAA61C" d="M106.297,19.498c-0.193-0.336-0.689,0.007-0.497,0.343c2.208,3.843,2.509,8.455,0.826,12.554
		c-0.147,0.358,0.395,0.624,0.542,0.264C108.94,28.345,108.62,23.541,106.297,19.498z"/>
	<path fill="#FAA61C" d="M105.42,34.309c-1.115,2.003-2.692,3.633-4.647,4.827c-0.331,0.202,0.012,0.699,0.343,0.496
		c2.042-1.248,3.683-2.969,4.846-5.06C106.151,34.233,105.608,33.971,105.42,34.309z"/>
	<path fill="#FAA61C" d="M105.537,29.811c-0.153,1.492-0.638,2.881-1.446,4.145c-0.209,0.327,0.331,0.597,0.538,0.272
		c0.833-1.303,1.339-2.752,1.498-4.29C106.167,29.555,105.577,29.426,105.537,29.811z"/>
	<path fill="#E98C24" d="M93.169,42.416c-0.054,1.22-0.108,2.44-0.163,3.66c-0.017,0.387,0.585,0.338,0.602-0.045
		c0.054-1.22,0.108-2.44,0.163-3.66C93.788,41.983,93.186,42.032,93.169,42.416z"/>
	<path fill="#E98C24" d="M98.03,42.066c-0.051-0.383-0.653-0.34-0.602,0.045c0.163,1.22,0.325,2.44,0.488,3.66
		c0.051,0.383,0.653,0.34,0.602-0.045C98.355,44.506,98.192,43.286,98.03,42.066z"/>
	<path fill="#E98C24" d="M103.297,44.27c-0.461-1.166-0.922-2.332-1.383-3.497c-0.142-0.36-0.711-0.159-0.568,0.204
		c0.461,1.166,0.922,2.332,1.383,3.497C102.871,44.833,103.44,44.632,103.297,44.27z"/>
	<path fill="#E98C24" d="M106.838,41.887c-0.638-1.041-1.275-2.083-1.913-3.124c-0.19-0.311-0.654,0.012-0.464,0.322
		c0.638,1.041,1.275,2.083,1.913,3.124C106.564,42.52,107.028,42.198,106.838,41.887z"/>
	<path fill="#E98C24" d="M109.678,38.873l-2.5-2.262c-0.244-0.221-0.574,0.172-0.33,0.393c0.833,0.754,1.667,1.508,2.5,2.262
		C109.592,39.487,109.922,39.094,109.678,38.873z"/>
	<path fill="#E98C24" d="M112.143,34.568c-1.058-0.379-2.115-0.757-3.173-1.136c-0.362-0.13-0.63,0.412-0.264,0.542
		c1.058,0.379,2.115,0.757,3.173,1.136C112.241,35.24,112.508,34.698,112.143,34.568z"/>
	<path fill="#E98C24" d="M113.363,29.515c-1.181,0.044-2.362,0.087-3.543,0.131c-0.338,0.013-0.298,0.614,0.04,0.602
		c1.181-0.044,2.362-0.087,3.543-0.131C113.741,30.104,113.7,29.502,113.363,29.515z"/>
	<path fill="#E98C24" d="M113.52,24.887c-1.22,0.3-2.439,0.601-3.659,0.901c-0.376,0.093-0.171,0.66,0.204,0.568
		c1.22-0.3,2.439-0.601,3.659-0.901C114.099,25.362,113.894,24.795,113.52,24.887z"/>
	<path fill="#FAA61C" d="M84.736,25.311c0.167-1.491,0.664-2.875,1.485-4.131c0.212-0.325-0.325-0.6-0.536-0.277
		c-0.845,1.295-1.365,2.739-1.538,4.276C84.104,25.561,84.693,25.697,84.736,25.311z"/>
	<path fill="#E98C24" d="M97.665,12.071c0.14-1.213,0.281-2.426,0.421-3.64c0.045-0.385-0.559-0.379-0.603,0.003
		c-0.14,1.213-0.281,2.426-0.421,3.64C97.018,12.458,97.621,12.452,97.665,12.071z"/>
	<path fill="#E98C24" d="M92.791,12.102c0.024,0.386,0.627,0.386,0.603-0.003c-0.076-1.229-0.152-2.457-0.228-3.686
		c-0.024-0.386-0.627-0.386-0.603,0.003C92.639,9.645,92.715,10.873,92.791,12.102z"/>
	<path fill="#E98C24" d="M87.478,9.794c0.35,1.077,0.701,2.154,1.051,3.23c0.108,0.332,0.645,0.189,0.536-0.146
		c-0.35-1.077-0.701-2.154-1.051-3.23C87.906,9.316,87.369,9.459,87.478,9.794z"/>
	<path fill="#E98C24" d="M83.744,11.674c0.551,1.102,1.102,2.203,1.653,3.305c0.164,0.329,0.643,0.034,0.478-0.295
		c-0.551-1.102-1.102-2.203-1.653-3.305C84.058,11.051,83.58,11.346,83.744,11.674z"/>
	<path fill="#E98C24" d="M80.616,14.592l2.597,2.6c0.254,0.254,0.648-0.138,0.395-0.392c-0.866-0.867-1.732-1.734-2.597-2.601
		C80.756,13.946,80.362,14.338,80.616,14.592z"/>
	<path fill="#E98C24" d="M77.863,18.678c1.028,0.453,2.057,0.905,3.085,1.358c0.352,0.155,0.657-0.366,0.302-0.522
		c-1.028-0.453-2.057-0.905-3.085-1.358C77.813,18.001,77.508,18.522,77.863,18.678z"/>
	<path fill="#E98C24" d="M76.236,23.817c1.235,0.044,2.47,0.087,3.705,0.131c0.354,0.013,0.354-0.59,0.001-0.603
		c-1.235-0.044-2.47-0.087-3.705-0.131C75.884,23.201,75.883,23.804,76.236,23.817z"/>
	<path fill="#E98C24" d="M75.929,28.532c1.238-0.213,2.475-0.427,3.713-0.64c0.382-0.066,0.217-0.646-0.163-0.581
		c-1.238,0.213-2.475,0.427-3.713,0.64C75.385,28.016,75.549,28.597,75.929,28.532z"/>
	<path fill="#E98C24" d="M109.738,23.786c1.133-0.456,2.266-0.913,3.398-1.369c0.359-0.145,0.066-0.672-0.291-0.529
		c-1.133,0.456-2.266,0.913-3.398,1.369C109.088,23.402,109.382,23.929,109.738,23.786z"/>
	<path fill="#E98C24" d="M111.497,18.152c-1.128,0.546-2.257,1.093-3.385,1.639c-0.348,0.169-0.105,0.721,0.245,0.551
		c1.128-0.546,2.257-1.093,3.385-1.639C112.09,18.535,111.847,17.982,111.497,18.152z"/>
	<path fill="#E98C24" d="M109.148,14.728c-0.994,0.747-1.989,1.494-2.983,2.241c-0.297,0.223,0.063,0.685,0.359,0.462
		c0.994-0.747,1.989-1.494,2.983-2.241C109.803,14.967,109.444,14.505,109.148,14.728z"/>
	<path fill="#E98C24" d="M106.108,12.022l-2.1,2.772c-0.205,0.271,0.219,0.584,0.424,0.313c0.7-0.924,1.4-1.848,2.1-2.772
		C106.738,12.064,106.314,11.751,106.108,12.022z"/>
	<path fill="#E98C24" d="M101.764,9.686c-0.299,1.083-0.598,2.166-0.897,3.249c-0.102,0.371,0.457,0.597,0.561,0.223
		c0.299-1.083,0.598-2.166,0.897-3.249C102.427,9.539,101.868,9.313,101.764,9.686z"/>
	<path fill="#E98C24" d="M79.586,30.503c-0.94,0.362-1.88,0.723-2.82,1.085c-0.361,0.139-0.16,0.708,0.204,0.568
		c0.94-0.361,1.88-0.723,2.82-1.084C80.151,30.932,79.949,30.363,79.586,30.503z"/>
	<path fill="#E98C24" d="M80.981,34.176c-1.029,0.418-2.059,0.836-3.088,1.254c-0.358,0.146-0.157,0.715,0.204,0.568
		c1.029-0.418,2.059-0.836,3.088-1.254C81.543,34.598,81.342,34.029,80.981,34.176z"/>
	<path fill="#E98C24" d="M82.241,36.583c-0.91,0.551-1.819,1.101-2.729,1.652c-0.332,0.201,0.011,0.697,0.343,0.497
		c0.91-0.551,1.819-1.101,2.729-1.652C82.916,36.878,82.573,36.382,82.241,36.583z"/>
	<path fill="#E98C24" d="M84.48,38.692c-0.831,0.723-1.663,1.446-2.494,2.169c-0.29,0.252,0.049,0.752,0.343,0.497
		c0.831-0.723,1.663-1.446,2.494-2.169C85.112,38.937,84.773,38.437,84.48,38.692z"/>
	<path fill="#E98C24" d="M86.678,40.905c-0.528,0.865-1.056,1.73-1.584,2.596c-0.203,0.332,0.342,0.593,0.542,0.264
		c0.528-0.865,1.056-1.73,1.584-2.596C87.423,40.838,86.878,40.577,86.678,40.905z"/>
	<path fill="#E98C24" d="M90.327,42.269c-0.362,1.012-0.725,2.024-1.087,3.036c-0.13,0.362,0.412,0.63,0.542,0.264
		c0.362-1.012,0.725-2.024,1.087-3.036C90.999,42.171,90.458,41.904,90.327,42.269z"/>
</g>
<g>
	<path fill="#E98C24" d="M37.934,2.575c0.637-0.531,1.332-0.999,2.08-1.4c-0.745,0.408-1.447,0.878-2.084,1.41L37.934,2.575z"/>
	<path fill="#E98C24" d="M41.243,0.581l0.003,0.007l-0.007,0.003c-0.212,0.089-0.414,0.181-0.616,0.274
		C40.822,0.765,41.031,0.67,41.243,0.581z"/>
	<g>
		<circle fill="#FEC465" cx="45.622" cy="13.179" r="11.83"/>
		<path fill="#FAA61C" d="M50.758,25.459c-6.771,2.832-14.584-0.372-17.416-7.143S33.714,3.732,40.485,0.9
			s14.584,0.372,17.416,7.143S57.529,22.626,50.758,25.459z M41.628,3.633c-5.264,2.202-7.755,8.276-5.553,13.54
			c2.202,5.264,8.276,7.755,13.54,5.553s7.755-8.276,5.553-13.54C52.966,3.922,46.892,1.431,41.628,3.633z"/>
	</g>
	<g>
		<g>
			<g>
				<path fill="#FAA61C" d="M50.227,14.09c0.686,1.64,0.228,3.399-1.135,4.61l0.806,1.928l-2.876,1.203l-0.732-1.75
					c-0.876,0.208-1.777,0.24-2.485,0.076l-0.732-0.168l-0.176-3.292l1.253,0.245c0.664,0.125,1.448,0.041,2.097-0.23
					c0.483-0.202,0.976-0.624,0.761-1.138c-0.087-0.208-0.248-0.594-1.763-0.571c-1.897,0.038-3.962-0.205-4.85-2.329
					c-0.655-1.567-0.217-3.253,1.086-4.417l-0.786-1.879l2.858-1.196l0.709,1.695c0.664-0.148,1.312-0.182,1.951-0.097l0.831,0.113
					l0.115,3.267L46,10.019c-0.31-0.036-0.955-0.118-1.812,0.24c-0.306,0.128-0.804,0.416-0.622,0.85
					c0.084,0.202,0.177,0.422,1.914,0.415C47.05,11.514,49.255,11.764,50.227,14.09z"/>
			</g>
		</g>
	</g>
	<path fill="#FAA61C" d="M40.853,20.85c-2.097-1.468-3.394-3.755-3.593-6.304c-0.021-0.267-0.437-0.259-0.416,0.009
		c0.212,2.713,1.585,5.103,3.813,6.662C40.876,21.371,41.071,21.002,40.853,20.85z"/>
	<path fill="#FAA61C" d="M38.271,7.525c-0.923,1.496-1.492,3.149-1.682,4.897c-0.029,0.263,0.376,0.363,0.405,0.097
		c0.187-1.715,0.739-3.329,1.645-4.797C38.779,7.493,38.412,7.297,38.271,7.525z"/>
	<path fill="#FAA61C" d="M50.261,4.809c-0.225-0.146-0.421,0.222-0.197,0.367c2.569,1.662,4.211,4.399,4.472,7.447
		c0.023,0.266,0.439,0.258,0.416-0.009C54.678,9.407,52.964,6.558,50.261,4.809z"/>
	<path fill="#FAA61C" d="M54.4,14.18c-0.052,1.582-0.505,3.08-1.328,4.431c-0.139,0.229,0.228,0.425,0.367,0.197
		c0.86-1.411,1.323-2.986,1.378-4.637C54.825,13.903,54.409,13.913,54.4,14.18z"/>
	<path fill="#FAA61C" d="M53.052,11.382c0.377,0.965,0.518,1.97,0.421,3.001c-0.025,0.267,0.392,0.262,0.417-0.003
		c0.1-1.063-0.047-2.112-0.435-3.107C53.357,11.026,52.954,11.132,53.052,11.382z"/>
	<path fill="#E98C24" d="M49.438,23.026c0.352,0.766,0.704,1.532,1.056,2.299c0.112,0.243,0.466,0.023,0.355-0.218
		c-0.352-0.766-0.704-1.532-1.056-2.299C49.682,22.566,49.328,22.786,49.438,23.026z"/>
	<path fill="#E98C24" d="M52.312,21.277c-0.152-0.219-0.508-0.003-0.355,0.218c0.485,0.698,0.97,1.395,1.455,2.093
		c0.152,0.219,0.508,0.003,0.355-0.218C53.283,22.672,52.797,21.975,52.312,21.277z"/>
	<path fill="#E98C24" d="M56.242,20.966c-0.651-0.57-1.302-1.14-1.954-1.711c-0.201-0.176-0.487,0.127-0.284,0.304
		c0.651,0.57,1.302,1.14,1.954,1.711C56.159,21.447,56.444,21.143,56.242,20.966z"/>
	<path fill="#E98C24" d="M57.664,18.385c-0.72-0.438-1.441-0.876-2.161-1.314c-0.215-0.131-0.398,0.214-0.183,0.344
		c0.72,0.438,1.441,0.876,2.161,1.314C57.695,18.86,57.878,18.516,57.664,18.385z"/>
	<path fill="#E98C24" d="M58.455,15.638l-2.249-0.599c-0.22-0.059-0.298,0.287-0.078,0.345c0.75,0.2,1.499,0.399,2.249,0.599
		C58.597,16.042,58.675,15.696,58.455,15.638z"/>
	<path fill="#E98C24" d="M58.609,12.216c-0.769,0.102-1.538,0.203-2.307,0.304c-0.263,0.035-0.257,0.452,0.009,0.416
		c0.769-0.101,1.538-0.203,2.307-0.304C58.882,12.598,58.875,12.181,58.609,12.216z"/>
	<path fill="#E98C24" d="M57.763,8.728c-0.711,0.4-1.423,0.8-2.134,1.199c-0.204,0.114,0.011,0.471,0.214,0.357
		c0.711-0.4,1.423-0.8,2.134-1.199C58.181,8.97,57.966,8.614,57.763,8.728z"/>
	<path fill="#E98C24" d="M56.397,5.837c-0.654,0.57-1.308,1.139-1.962,1.709c-0.202,0.176,0.104,0.459,0.304,0.284
		c0.654-0.57,1.308-1.139,1.962-1.709C56.904,5.946,56.598,5.662,56.397,5.837z"/>
	<path fill="#FAA61C" d="M38.859,15.188c-0.368-0.968-0.5-1.975-0.393-3.005c0.028-0.267-0.389-0.266-0.417-0.001
		c-0.11,1.062,0.027,2.113,0.406,3.111C38.55,15.541,38.954,15.438,38.859,15.188z"/>
	<path fill="#E98C24" d="M42.616,2.975c-0.297-0.789-0.594-1.578-0.891-2.368c-0.094-0.25-0.463-0.056-0.37,0.192
		c0.297,0.789,0.594,1.578,0.891,2.368C42.341,3.418,42.709,3.223,42.616,2.975z"/>
	<path fill="#E98C24" d="M39.633,4.534c0.136,0.229,0.507,0.039,0.37-0.192c-0.435-0.73-0.869-1.461-1.304-2.191
		c-0.136-0.229-0.507-0.039-0.369,0.192C38.764,3.073,39.198,3.804,39.633,4.534z"/>
	<path fill="#E98C24" d="M35.642,4.795c0.555,0.551,1.11,1.101,1.665,1.652c0.171,0.17,0.456-0.088,0.283-0.259
		c-0.555-0.551-1.11-1.101-1.665-1.652C35.754,4.366,35.47,4.623,35.642,4.795z"/>
	<path fill="#E98C24" d="M33.944,7.128c0.686,0.502,1.373,1.005,2.059,1.507c0.205,0.15,0.405-0.182,0.201-0.332
		c-0.686-0.502-1.373-1.005-2.059-1.507C33.94,6.646,33.739,6.979,33.944,7.128z"/>
	<path fill="#E98C24" d="M32.944,9.908l2.416,0.776c0.236,0.076,0.355-0.289,0.119-0.365c-0.805-0.259-1.611-0.518-2.416-0.776
		C32.826,9.467,32.708,9.832,32.944,9.908z"/>
	<path fill="#E98C24" d="M32.544,13.286c0.774-0.047,1.549-0.094,2.323-0.141c0.265-0.016,0.288-0.432,0.021-0.416
		c-0.774,0.047-1.548,0.094-2.323,0.141C32.3,12.886,32.277,13.302,32.544,13.286z"/>
	<path fill="#E98C24" d="M33.168,16.954c0.772-0.363,1.544-0.726,2.316-1.09c0.221-0.104,0.031-0.474-0.19-0.371
		c-0.772,0.363-1.544,0.726-2.316,1.09C32.758,16.688,32.948,17.058,33.168,16.954z"/>
	<path fill="#E98C24" d="M34.469,19.946c0.693-0.522,1.385-1.044,2.078-1.566c0.214-0.161-0.071-0.465-0.284-0.305
		c-0.693,0.522-1.385,1.044-2.078,1.566C33.972,19.802,34.256,20.106,34.469,19.946z"/>
	<path fill="#E98C24" d="M53.728,6.355c0.551-0.638,1.103-1.276,1.654-1.914c0.175-0.202-0.172-0.433-0.345-0.233
		c-0.551,0.638-1.103,1.276-1.654,1.914C53.208,6.325,53.555,6.556,53.728,6.355z"/>
	<path fill="#E98C24" d="M53.029,2.341c-0.52,0.692-1.04,1.384-1.56,2.075c-0.161,0.214,0.163,0.476,0.325,0.261
		c0.52-0.692,1.04-1.384,1.56-2.075C53.514,2.389,53.19,2.126,53.029,2.341z"/>
	<path fill="#E98C24" d="M50.505,0.98c-0.375,0.773-0.749,1.545-1.124,2.318c-0.112,0.23,0.255,0.401,0.367,0.17
		c0.375-0.773,0.749-1.545,1.124-2.318C50.983,0.92,50.616,0.75,50.505,0.98z"/>
	<path fill="#E98C24" d="M47.784,0.279L47.37,2.644c-0.04,0.231,0.319,0.289,0.359,0.058c0.138-0.788,0.276-1.577,0.414-2.365
		C48.184,0.106,47.825,0.048,47.784,0.279z"/>
	<path fill="#E98C24" d="M44.38,0.217c0.158,0.759,0.317,1.519,0.475,2.278c0.054,0.26,0.469,0.222,0.415-0.04
		c-0.158-0.759-0.317-1.519-0.475-2.278C44.74-0.083,44.325-0.045,44.38,0.217z"/>
	<path fill="#E98C24" d="M37.336,20.002c-0.463,0.519-0.926,1.038-1.389,1.556c-0.178,0.199,0.125,0.485,0.304,0.284
		c0.463-0.519,0.926-1.038,1.389-1.556C37.819,20.087,37.516,19.801,37.336,20.002z"/>
	<path fill="#E98C24" d="M39.353,21.816c-0.5,0.582-1,1.163-1.5,1.745c-0.174,0.202,0.129,0.489,0.304,0.284
		c0.5-0.582,1-1.163,1.5-1.745C39.831,21.898,39.528,21.612,39.353,21.816z"/>
	<path fill="#E98C24" d="M40.887,22.896c-0.385,0.625-0.769,1.251-1.154,1.876c-0.14,0.228,0.227,0.425,0.367,0.197
		c0.385-0.625,0.769-1.251,1.154-1.876C41.394,22.864,41.027,22.668,40.887,22.896z"/>
	<path fill="#E98C24" d="M42.928,23.484c-0.282,0.706-0.564,1.413-0.846,2.119c-0.098,0.246,0.268,0.446,0.367,0.197
		c0.282-0.706,0.564-1.413,0.846-2.119C43.393,23.434,43.027,23.235,42.928,23.484z"/>
	<path fill="#E98C24" d="M44.976,24.149c-0.051,0.698-0.102,1.396-0.153,2.094c-0.02,0.268,0.397,0.256,0.416-0.009
		c0.051-0.698,0.102-1.396,0.153-2.094C45.412,23.872,44.995,23.884,44.976,24.149z"/>
	<path fill="#E98C24" d="M47.647,23.834c0.097,0.736,0.194,1.471,0.291,2.207c0.035,0.263,0.452,0.257,0.416-0.009
		c-0.097-0.736-0.194-1.471-0.291-2.207C48.029,23.561,47.612,23.568,47.647,23.834z"/>
</g>
<g>
	<path fill="#E98C24" d="M147.332,14.456c0.828,0.052,1.654,0.19,2.473,0.413c-0.821-0.216-1.655-0.357-2.482-0.409L147.332,14.456z
		"/>
	<path fill="#E98C24" d="M151.105,15.282l-0.003,0.007l-0.007-0.003c-0.215-0.081-0.425-0.153-0.636-0.225
		C150.673,15.126,150.89,15.201,151.105,15.282z"/>
	<g>
		<circle fill="#FEC465" cx="145.625" cy="27.442" r="11.83"/>
		<path fill="#FAA61C" d="M140.915,39.891c-6.865-2.597-10.336-10.295-7.739-17.16c2.597-6.865,10.295-10.336,17.16-7.739
			s10.336,10.295,7.739,17.16C155.477,39.017,147.779,42.489,140.915,39.891z M149.287,17.763
			c-5.336-2.019-11.321,0.68-13.341,6.017s0.68,11.321,6.017,13.341c5.336,2.019,11.321-0.68,13.341-6.017
			C157.323,25.768,154.624,19.783,149.287,17.763z"/>
	</g>
	<g>
		<g>
			<g>
				<path fill="#FAA61C" d="M148.344,31.269c-0.629,1.663-2.171,2.626-3.993,2.568l-0.74,1.955l-2.916-1.103l0.671-1.775
					c-0.78-0.451-1.455-1.047-1.857-1.653l-0.416-0.626l2.135-2.512l0.742,1.04c0.396,0.547,1.023,1.026,1.681,1.274
					c0.49,0.185,1.138,0.218,1.335-0.304c0.08-0.211,0.228-0.602-0.888-1.627c-1.404-1.276-2.736-2.872-1.922-5.025
					c0.601-1.588,2.078-2.512,3.825-2.461l0.721-1.905l2.898,1.096l-0.65,1.719c0.584,0.349,1.078,0.77,1.484,1.271l0.526,0.653
					l-2.162,2.452l-0.745-0.899c-0.2-0.239-0.613-0.743-1.481-1.071c-0.31-0.117-0.87-0.251-1.036,0.19
					c-0.077,0.205-0.162,0.428,1.105,1.617C147.807,27.215,149.236,28.911,148.344,31.269z"/>
			</g>
		</g>
	</g>
	<path fill="#FAA61C" d="M136.889,29.735c-0.514-2.507,0.116-5.06,1.724-7.048c0.168-0.208-0.14-0.489-0.309-0.28
		c-1.711,2.116-2.356,4.796-1.811,7.459C136.548,30.129,136.942,29.995,136.889,29.735z"/>
	<path fill="#FAA61C" d="M144.174,18.283c-1.699,0.452-3.248,1.261-4.588,2.4c-0.202,0.171,0.023,0.522,0.228,0.349
		c1.314-1.117,2.825-1.91,4.492-2.354C144.564,18.609,144.432,18.214,144.174,18.283z"/>
	<path fill="#FAA61C" d="M154.748,24.552c-0.063-0.26-0.458-0.128-0.395,0.132c0.723,2.973,0.034,6.089-1.871,8.483
		c-0.166,0.209,0.141,0.49,0.309,0.28C154.796,30.927,155.509,27.68,154.748,24.552z"/>
	<path fill="#FAA61C" d="M151.312,34.203c-1.125,1.113-2.484,1.89-4.011,2.305c-0.259,0.07-0.127,0.466,0.132,0.395
		c1.594-0.434,3.014-1.259,4.188-2.421C151.812,34.294,151.502,34.015,151.312,34.203z"/>
	<path fill="#FAA61C" d="M152.257,31.244c-0.389,0.96-0.978,1.787-1.757,2.469c-0.202,0.177,0.104,0.46,0.304,0.284
		c0.803-0.703,1.418-1.566,1.82-2.556C152.724,31.195,152.358,30.996,152.257,31.244z"/>
	<path fill="#E98C24" d="M141.628,37.217c-0.271,0.798-0.542,1.597-0.813,2.395c-0.086,0.253,0.322,0.337,0.408,0.086
		c0.271-0.798,0.542-1.597,0.813-2.395C142.122,37.05,141.714,36.966,141.628,37.217z"/>
	<path fill="#E98C24" d="M144.918,37.922c0.04-0.264-0.367-0.351-0.408-0.086c-0.127,0.84-0.255,1.68-0.382,2.521
		c-0.04,0.264,0.367,0.351,0.408,0.086C144.664,39.603,144.791,38.762,144.918,37.922z"/>
	<path fill="#E98C24" d="M147.986,40.398c-0.081-0.862-0.162-1.724-0.243-2.585c-0.025-0.266-0.441-0.242-0.416,0.026
		c0.081,0.862,0.162,1.724,0.243,2.585C147.595,40.689,148.011,40.666,147.986,40.398z"/>
	<path fill="#E98C24" d="M150.792,39.501c-0.222-0.813-0.444-1.627-0.666-2.44c-0.066-0.243-0.436-0.118-0.369,0.124
		c0.222,0.813,0.444,1.627,0.666,2.44C150.489,39.867,150.859,39.743,150.792,39.501z"/>
	<path fill="#E98C24" d="M153.256,38.05l-1.222-1.981c-0.119-0.194-0.414,0.003-0.294,0.197c0.407,0.66,0.814,1.321,1.222,1.981
		C153.081,38.44,153.375,38.243,153.256,38.05z"/>
	<path fill="#E98C24" d="M155.72,35.67c-0.628-0.455-1.257-0.91-1.885-1.365c-0.215-0.156-0.497,0.152-0.28,0.309
		c0.628,0.455,1.257,0.91,1.885,1.365C155.655,36.134,155.937,35.827,155.72,35.67z"/>
	<path fill="#E98C24" d="M157.503,32.555c-0.791-0.199-1.583-0.397-2.374-0.596c-0.227-0.057-0.316,0.35-0.09,0.406
		c0.791,0.199,1.583,0.397,2.374,0.596C157.64,33.018,157.729,32.612,157.503,32.555z"/>
	<path fill="#E98C24" d="M158.498,29.517c-0.866-0.036-1.733-0.072-2.599-0.108c-0.267-0.011-0.24,0.405,0.026,0.416
		c0.866,0.036,1.733,0.072,2.599,0.108C158.791,29.944,158.764,29.528,158.498,29.517z"/>
	<path fill="#FAA61C" d="M139.333,24.252c0.398-0.956,0.994-1.778,1.78-2.453c0.203-0.175-0.1-0.46-0.302-0.287
		c-0.81,0.696-1.433,1.553-1.843,2.539C138.866,24.296,139.23,24.499,139.333,24.252z"/>
	<path fill="#E98C24" d="M150.457,17.965c0.327-0.777,0.654-1.555,0.98-2.332c0.104-0.247-0.298-0.359-0.4-0.114
		c-0.327,0.777-0.654,1.555-0.98,2.332C149.953,18.097,150.354,18.209,150.457,17.965z"/>
	<path fill="#E98C24" d="M147.219,17.046c-0.059,0.26,0.342,0.377,0.4,0.114c0.186-0.829,0.373-1.658,0.559-2.487
		c0.059-0.26-0.342-0.377-0.4-0.114C147.591,15.388,147.405,16.217,147.219,17.046z"/>
	<path fill="#E98C24" d="M144.141,14.492c0.025,0.781,0.049,1.563,0.074,2.344c0.008,0.241,0.391,0.25,0.383,0.007
		c-0.025-0.781-0.049-1.563-0.074-2.344C144.517,14.258,144.134,14.249,144.141,14.492z"/>
	<path fill="#E98C24" d="M141.303,15.02c0.153,0.837,0.306,1.673,0.459,2.51c0.046,0.25,0.42,0.146,0.374-0.103
		c-0.153-0.837-0.306-1.673-0.459-2.51C141.632,14.667,141.258,14.77,141.303,15.02z"/>
	<path fill="#E98C24" d="M138.667,16.351l1.221,2.225c0.119,0.217,0.456,0.034,0.337-0.184c-0.407-0.742-0.814-1.483-1.221-2.225
		C138.885,15.95,138.548,16.134,138.667,16.351z"/>
	<path fill="#E98C24" d="M136.054,18.53c0.595,0.498,1.189,0.996,1.784,1.495c0.204,0.171,0.506-0.116,0.301-0.288
		c-0.595-0.498-1.189-0.996-1.784-1.495C136.152,18.071,135.849,18.358,136.054,18.53z"/>
	<path fill="#E98C24" d="M133.986,21.623c0.81,0.267,1.621,0.534,2.431,0.801c0.232,0.076,0.349-0.323,0.117-0.399
		c-0.81-0.267-1.621-0.534-2.431-0.801C133.871,21.147,133.754,21.547,133.986,21.623z"/>
	<path fill="#E98C24" d="M132.874,24.69c0.862,0.097,1.723,0.194,2.585,0.291c0.266,0.03,0.268-0.387,0.004-0.417
		c-0.862-0.097-1.723-0.194-2.585-0.291C132.612,24.244,132.609,24.66,132.874,24.69z"/>
	<path fill="#E98C24" d="M156.204,28.058c0.839-0.084,1.678-0.169,2.517-0.253c0.266-0.027,0.173-0.433-0.091-0.406
		c-0.839,0.084-1.678,0.169-2.517,0.253C155.847,27.679,155.94,28.085,156.204,28.058z"/>
	<path fill="#E98C24" d="M158.455,24.662c-0.853,0.145-1.707,0.29-2.56,0.435c-0.263,0.045-0.209,0.458,0.056,0.413
		c0.853-0.145,1.707-0.29,2.56-0.435C158.775,25.03,158.72,24.617,158.455,24.662z"/>
	<path fill="#E98C24" d="M157.557,21.939c-0.803,0.304-1.606,0.607-2.41,0.911c-0.24,0.091-0.09,0.466,0.149,0.376
		c0.803-0.304,1.606-0.607,2.41-0.911C157.946,22.224,157.797,21.849,157.557,21.939z"/>
	<path fill="#E98C24" d="M156.064,19.559l-1.927,1.433c-0.188,0.14,0.033,0.429,0.221,0.289c0.642-0.478,1.284-0.955,1.927-1.433
		C156.473,19.709,156.252,19.419,156.064,19.559z"/>
	<path fill="#E98C24" d="M153.634,17.174c-0.407,0.66-0.814,1.321-1.221,1.981c-0.139,0.226,0.188,0.484,0.329,0.256
		c0.407-0.66,0.814-1.321,1.221-1.981C154.102,17.204,153.774,16.946,153.634,17.174z"/>
	<path fill="#E98C24" d="M134.918,26.702c-0.693,0.059-1.386,0.117-2.078,0.176c-0.266,0.023-0.243,0.438,0.026,0.416
		c0.693-0.059,1.386-0.117,2.078-0.176C135.21,27.095,135.186,26.679,134.918,26.702z"/>
	<path fill="#E98C24" d="M135.135,29.405c-0.763,0.079-1.526,0.158-2.289,0.236c-0.266,0.027-0.242,0.443,0.026,0.416
		c0.763-0.079,1.526-0.158,2.289-0.236C135.426,29.794,135.403,29.378,135.135,29.405z"/>
	<path fill="#E98C24" d="M135.507,31.244c-0.709,0.19-1.418,0.38-2.127,0.57c-0.259,0.069-0.127,0.464,0.132,0.395
		c0.709-0.19,1.418-0.38,2.128-0.57C135.898,31.57,135.766,31.175,135.507,31.244z"/>
	<path fill="#E98C24" d="M136.585,33.074c-0.691,0.319-1.381,0.638-2.072,0.957c-0.241,0.111-0.112,0.508,0.132,0.395
		c0.691-0.319,1.381-0.638,2.072-0.957C136.957,33.358,136.829,32.961,136.585,33.074z"/>
	<path fill="#E98C24" d="M137.616,34.965c-0.517,0.472-1.034,0.944-1.551,1.416c-0.198,0.181,0.112,0.459,0.309,0.28
		c0.517-0.472,1.034-0.944,1.551-1.416C138.122,35.064,137.812,34.786,137.616,34.965z"/>
	<path fill="#E98C24" d="M139.773,36.572c-0.435,0.601-0.87,1.202-1.306,1.803c-0.156,0.215,0.152,0.497,0.309,0.28
		c0.435-0.601,0.87-1.202,1.306-1.803C140.237,36.637,139.93,36.355,139.773,36.572z"/>
</g>
<g>
	<path fill="#E98C24" d="M18.887,31.71c0.45,0.028,0.9,0.104,1.346,0.225c-0.447-0.117-0.901-0.194-1.351-0.222L18.887,31.71z"/>
	<path fill="#E98C24" d="M20.941,32.16l-0.001,0.004l-0.004-0.001c-0.117-0.044-0.231-0.083-0.346-0.122
		C20.706,32.075,20.824,32.115,20.941,32.16z"/>
	<g>
		<circle fill="#FEC465" cx="17.958" cy="38.778" r="6.439"/>
		<path fill="#FAA61C" d="M15.394,45.554c-3.736-1.414-5.626-5.604-4.212-9.34s5.604-5.626,9.34-4.212
			c3.736,1.414,5.626,5.604,4.212,9.34C23.321,45.078,19.131,46.968,15.394,45.554z M19.951,33.51
			c-2.905-1.099-6.162,0.37-7.261,3.275c-1.099,2.905,0.37,6.162,3.275,7.261c2.905,1.099,6.162-0.37,7.261-3.275
			S22.856,34.609,19.951,33.51z"/>
	</g>
	<g>
		<g>
			<g>
				<path fill="#FAA61C" d="M19.438,40.861c-0.342,0.905-1.182,1.429-2.173,1.398l-0.403,1.064l-1.587-0.601l0.365-0.966
					c-0.424-0.246-0.792-0.57-1.011-0.9l-0.226-0.34l1.162-1.367l0.404,0.566c0.215,0.298,0.557,0.558,0.915,0.694
					c0.267,0.101,0.619,0.118,0.727-0.165c0.043-0.115,0.124-0.328-0.483-0.886c-0.764-0.694-1.489-1.563-1.046-2.735
					c0.327-0.865,1.131-1.367,2.082-1.339l0.392-1.037l1.577,0.597l-0.354,0.935c0.318,0.19,0.587,0.419,0.808,0.692l0.286,0.355
					l-1.177,1.335l-0.406-0.489c-0.109-0.13-0.334-0.404-0.806-0.583c-0.169-0.064-0.473-0.137-0.564,0.103
					c-0.042,0.111-0.088,0.233,0.601,0.88C19.146,38.654,19.924,39.578,19.438,40.861z"/>
			</g>
		</g>
	</g>
	<path fill="#FAA61C" d="M13.203,40.026c-0.28-1.365,0.063-2.754,0.938-3.836c0.092-0.113-0.076-0.266-0.168-0.152
		c-0.931,1.152-1.282,2.61-0.985,4.06C13.017,40.24,13.232,40.168,13.203,40.026z"/>
	<path fill="#FAA61C" d="M17.168,33.793c-0.925,0.246-1.768,0.687-2.497,1.306c-0.11,0.093,0.013,0.284,0.124,0.19
		c0.715-0.608,1.537-1.039,2.445-1.281C17.381,33.97,17.309,33.755,17.168,33.793z"/>
	<path fill="#FAA61C" d="M22.924,37.205c-0.034-0.142-0.249-0.07-0.215,0.072c0.394,1.618,0.019,3.314-1.019,4.617
		c-0.091,0.114,0.077,0.267,0.168,0.152C22.95,40.675,23.338,38.908,22.924,37.205z"/>
	<path fill="#FAA61C" d="M21.054,42.458c-0.612,0.606-1.352,1.029-2.183,1.255c-0.141,0.038-0.069,0.253,0.072,0.215
		c0.868-0.236,1.64-0.685,2.279-1.318C21.326,42.508,21.157,42.356,21.054,42.458z"/>
	<path fill="#FAA61C" d="M21.568,40.847c-0.212,0.522-0.532,0.973-0.956,1.344c-0.11,0.096,0.057,0.25,0.166,0.155
		c0.437-0.383,0.772-0.852,0.99-1.391C21.822,40.821,21.623,40.712,21.568,40.847z"/>
	<path fill="#E98C24" d="M15.783,44.099c-0.148,0.435-0.295,0.869-0.443,1.304c-0.047,0.138,0.175,0.183,0.222,0.047
		c0.148-0.435,0.295-0.869,0.443-1.304C16.051,44.008,15.829,43.962,15.783,44.099z"/>
	<path fill="#E98C24" d="M17.573,44.482c0.022-0.144-0.2-0.191-0.222-0.047c-0.069,0.457-0.139,0.915-0.208,1.372
		c-0.022,0.144,0.2,0.191,0.222,0.047C17.435,45.397,17.504,44.94,17.573,44.482z"/>
	<path fill="#E98C24" d="M19.243,45.83c-0.044-0.469-0.088-0.938-0.132-1.407c-0.014-0.145-0.24-0.132-0.226,0.014
		c0.044,0.469,0.088,0.938,0.132,1.407C19.03,45.989,19.257,45.976,19.243,45.83z"/>
	<path fill="#E98C24" d="M20.771,45.342c-0.121-0.443-0.242-0.885-0.363-1.328c-0.036-0.132-0.237-0.064-0.201,0.068
		c0.121,0.443,0.242,0.885,0.363,1.328C20.606,45.541,20.807,45.473,20.771,45.342z"/>
	<path fill="#E98C24" d="M22.112,44.552l-0.665-1.078c-0.065-0.105-0.225,0.002-0.16,0.107c0.222,0.359,0.443,0.719,0.665,1.078
		C22.016,44.764,22.177,44.657,22.112,44.552z"/>
	<path fill="#E98C24" d="M23.453,43.257c-0.342-0.248-0.684-0.495-1.026-0.743c-0.117-0.085-0.27,0.082-0.152,0.168
		c0.342,0.248,0.684,0.495,1.026,0.743C23.418,43.509,23.571,43.342,23.453,43.257z"/>
	<path fill="#E98C24" d="M24.423,41.561c-0.431-0.108-0.862-0.216-1.292-0.324c-0.123-0.031-0.172,0.19-0.049,0.221
		c0.431,0.108,0.862,0.216,1.292,0.324C24.498,41.813,24.546,41.592,24.423,41.561z"/>
	<path fill="#E98C24" d="M24.965,39.908c-0.472-0.02-0.943-0.039-1.415-0.059c-0.145-0.006-0.131,0.22,0.014,0.226
		c0.472,0.02,0.943,0.039,1.415,0.059C25.124,40.14,25.11,39.914,24.965,39.908z"/>
	<path fill="#FAA61C" d="M14.534,37.042c0.217-0.52,0.541-0.968,0.969-1.335c0.111-0.095-0.054-0.251-0.164-0.156
		c-0.441,0.379-0.78,0.845-1.003,1.382C14.279,37.066,14.477,37.176,14.534,37.042z"/>
	<path fill="#E98C24" d="M20.588,33.62c0.178-0.423,0.356-0.846,0.534-1.269c0.056-0.134-0.162-0.195-0.218-0.062
		c-0.178,0.423-0.356,0.846-0.534,1.269C20.314,33.692,20.532,33.753,20.588,33.62z"/>
	<path fill="#E98C24" d="M18.826,33.12c-0.032,0.142,0.186,0.205,0.218,0.062c0.101-0.451,0.203-0.903,0.304-1.354
		c0.032-0.142-0.186-0.205-0.218-0.062C19.028,32.217,18.927,32.669,18.826,33.12z"/>
	<path fill="#E98C24" d="M17.151,31.73c0.013,0.425,0.027,0.851,0.04,1.276c0.004,0.131,0.213,0.136,0.209,0.004
		c-0.013-0.425-0.027-0.851-0.04-1.276C17.355,31.602,17.146,31.598,17.151,31.73z"/>
	<path fill="#E98C24" d="M15.606,32.017c0.083,0.455,0.167,0.911,0.25,1.366c0.025,0.136,0.228,0.08,0.204-0.056
		c-0.083-0.455-0.167-0.911-0.25-1.366C15.785,31.825,15.581,31.881,15.606,32.017z"/>
	<path fill="#E98C24" d="M14.171,32.741l0.665,1.211c0.065,0.118,0.248,0.018,0.183-0.1c-0.222-0.404-0.443-0.807-0.665-1.211
		C14.289,32.523,14.106,32.623,14.171,32.741z"/>
	<path fill="#E98C24" d="M12.749,33.927c0.324,0.271,0.647,0.542,0.971,0.813c0.111,0.093,0.276-0.063,0.164-0.157
		c-0.324-0.271-0.647-0.542-0.971-0.813C12.802,33.678,12.637,33.834,12.749,33.927z"/>
	<path fill="#E98C24" d="M11.623,35.611c0.441,0.145,0.882,0.291,1.323,0.436c0.126,0.042,0.19-0.176,0.064-0.217
		c-0.441-0.145-0.882-0.291-1.323-0.436C11.56,35.352,11.497,35.57,11.623,35.611z"/>
	<path fill="#E98C24" d="M11.018,37.28c0.469,0.053,0.938,0.106,1.407,0.158c0.145,0.016,0.146-0.211,0.002-0.227
		c-0.469-0.053-0.938-0.106-1.407-0.158C10.875,37.037,10.874,37.264,11.018,37.28z"/>
	<path fill="#E98C24" d="M23.716,39.114c0.457-0.046,0.913-0.092,1.37-0.138c0.145-0.015,0.094-0.236-0.049-0.221
		c-0.457,0.046-0.913,0.092-1.37,0.138C23.522,38.907,23.572,39.128,23.716,39.114z"/>
	<path fill="#E98C24" d="M24.941,37.265c-0.464,0.079-0.929,0.158-1.393,0.237c-0.143,0.024-0.114,0.249,0.031,0.225
		c0.464-0.079,0.929-0.158,1.393-0.237C25.115,37.465,25.086,37.241,24.941,37.265z"/>
	<path fill="#E98C24" d="M24.453,35.783c-0.437,0.165-0.874,0.33-1.311,0.496c-0.13,0.049-0.049,0.254,0.081,0.205
		c0.437-0.165,0.874-0.33,1.311-0.496C24.664,35.938,24.583,35.734,24.453,35.783z"/>
	<path fill="#E98C24" d="M23.64,34.488l-1.049,0.78c-0.102,0.076,0.018,0.234,0.12,0.157c0.35-0.26,0.699-0.52,1.049-0.78
		C23.863,34.569,23.742,34.412,23.64,34.488z"/>
	<path fill="#E98C24" d="M22.317,33.189c-0.221,0.359-0.443,0.719-0.664,1.078c-0.076,0.123,0.102,0.263,0.179,0.139
		c0.221-0.359,0.443-0.719,0.664-1.078C22.572,33.206,22.394,33.065,22.317,33.189z"/>
	<path fill="#E98C24" d="M12.131,38.375c-0.377,0.032-0.754,0.064-1.131,0.096c-0.145,0.012-0.132,0.239,0.014,0.226
		c0.377-0.032,0.754-0.064,1.131-0.096C12.289,38.589,12.276,38.363,12.131,38.375z"/>
	<path fill="#E98C24" d="M12.249,39.847c-0.415,0.043-0.831,0.086-1.246,0.129c-0.145,0.015-0.132,0.241,0.014,0.226
		c0.415-0.043,0.831-0.086,1.246-0.129C12.407,40.058,12.394,39.832,12.249,39.847z"/>
	<path fill="#E98C24" d="M12.451,40.848c-0.386,0.103-0.772,0.207-1.158,0.31c-0.141,0.038-0.069,0.253,0.072,0.215
		c0.386-0.103,0.772-0.207,1.158-0.31C12.664,41.025,12.592,40.81,12.451,40.848z"/>
	<path fill="#E98C24" d="M13.038,41.844c-0.376,0.174-0.752,0.347-1.128,0.521c-0.131,0.061-0.061,0.276,0.072,0.215
		c0.376-0.174,0.752-0.347,1.128-0.521C13.24,41.998,13.17,41.782,13.038,41.844z"/>
	<path fill="#E98C24" d="M13.599,42.873c-0.281,0.257-0.563,0.514-0.844,0.77c-0.108,0.099,0.061,0.25,0.168,0.152
		c0.281-0.257,0.563-0.514,0.844-0.77C13.875,42.927,13.706,42.775,13.599,42.873z"/>
	<path fill="#E98C24" d="M14.773,43.748c-0.237,0.327-0.474,0.654-0.711,0.981c-0.085,0.117,0.082,0.27,0.168,0.152
		c0.237-0.327,0.474-0.654,0.711-0.981C15.025,43.783,14.858,43.63,14.773,43.748z"/>
</g>
<g>
	<path fill="#E98C24" d="M168.471,47.763c0.467-0.389,0.976-0.732,1.524-1.026c-0.546,0.299-1.06,0.644-1.527,1.033L168.471,47.763z
		"/>
	<path fill="#E98C24" d="M170.896,46.302l0.002,0.005l-0.005,0.002c-0.155,0.065-0.303,0.133-0.451,0.201
		C170.588,46.436,170.741,46.366,170.896,46.302z"/>
	<g>
		<circle fill="#FEC465" cx="174.106" cy="55.535" r="8.67"/>
		<path fill="#FAA61C" d="M177.87,64.535c-4.963,2.076-10.689-0.272-12.765-5.235c-2.076-4.963,0.272-10.689,5.235-12.765
			c4.963-2.076,10.689,0.272,12.765,5.235S182.833,62.459,177.87,64.535z M171.179,48.538c-3.858,1.614-5.684,6.066-4.07,9.924
			c1.614,3.858,6.066,5.684,9.924,4.07s5.684-6.066,4.07-9.924C179.488,48.75,175.036,46.924,171.179,48.538z"/>
	</g>
	<g>
		<g>
			<g>
				<path fill="#FAA61C" d="M177.481,56.202c0.503,1.202,0.167,2.491-0.832,3.379l0.591,1.413l-2.108,0.882l-0.537-1.283
					c-0.642,0.153-1.302,0.176-1.821,0.056l-0.536-0.123l-0.129-2.413l0.918,0.18c0.486,0.092,1.061,0.03,1.537-0.169
					c0.354-0.148,0.715-0.457,0.558-0.834c-0.064-0.153-0.182-0.435-1.292-0.419c-1.39,0.028-2.904-0.15-3.555-1.707
					c-0.48-1.148-0.159-2.384,0.796-3.237l-0.576-1.377l2.095-0.876l0.52,1.242c0.487-0.109,0.961-0.133,1.43-0.071l0.609,0.083
					l0.085,2.394l-0.85-0.103c-0.227-0.026-0.7-0.087-1.328,0.176c-0.224,0.094-0.589,0.305-0.456,0.623
					c0.062,0.148,0.129,0.31,1.403,0.304C175.152,54.315,176.768,54.498,177.481,56.202z"/>
			</g>
		</g>
	</g>
	<path fill="#FAA61C" d="M170.611,61.157c-1.537-1.076-2.487-2.752-2.633-4.62c-0.015-0.195-0.321-0.19-0.305,0.007
		c0.155,1.988,1.162,3.74,2.794,4.883C170.627,61.539,170.77,61.269,170.611,61.157z"/>
	<path fill="#FAA61C" d="M168.718,51.391c-0.676,1.097-1.093,2.308-1.233,3.589c-0.021,0.193,0.276,0.266,0.297,0.071
		c0.137-1.257,0.541-2.44,1.205-3.516C169.09,51.368,168.821,51.224,168.718,51.391z"/>
	<path fill="#FAA61C" d="M177.506,49.401c-0.165-0.107-0.308,0.163-0.144,0.269c1.883,1.218,3.086,3.224,3.277,5.458
		c0.017,0.195,0.322,0.189,0.305-0.007C180.743,52.77,179.487,50.682,177.506,49.401z"/>
	<path fill="#FAA61C" d="M180.539,56.269c-0.038,1.159-0.37,2.258-0.974,3.248c-0.102,0.168,0.167,0.312,0.269,0.144
		c0.63-1.034,0.97-2.189,1.01-3.398C180.851,56.065,180.545,56.073,180.539,56.269z"/>
	<path fill="#FAA61C" d="M179.551,54.217c0.276,0.707,0.38,1.444,0.309,2.2c-0.018,0.196,0.287,0.192,0.305-0.002
		c0.073-0.779-0.034-1.548-0.319-2.277C179.775,53.957,179.48,54.035,179.551,54.217z"/>
	<path fill="#E98C24" d="M176.903,62.752c0.258,0.562,0.516,1.123,0.774,1.685c0.082,0.178,0.341,0.017,0.26-0.16
		c-0.258-0.562-0.516-1.123-0.774-1.685C177.081,62.414,176.822,62.575,176.903,62.752z"/>
	<path fill="#E98C24" d="M179.009,61.47c-0.112-0.161-0.373-0.002-0.26,0.16c0.356,0.511,0.711,1.023,1.067,1.534
		c0.112,0.161,0.373,0.002,0.26-0.16C179.72,62.492,179.365,61.981,179.009,61.47z"/>
	<path fill="#E98C24" d="M181.889,61.242c-0.477-0.418-0.955-0.836-1.432-1.254c-0.147-0.129-0.357,0.093-0.208,0.223
		c0.477,0.418,0.955,0.836,1.432,1.254C181.828,61.594,182.038,61.372,181.889,61.242z"/>
	<path fill="#E98C24" d="M182.931,59.35c-0.528-0.321-1.056-0.642-1.584-0.963c-0.157-0.096-0.291,0.157-0.134,0.252
		c0.528,0.321,1.056,0.642,1.584,0.963C182.954,59.698,183.088,59.446,182.931,59.35z"/>
	<path fill="#E98C24" d="M183.511,57.337l-1.648-0.439c-0.161-0.043-0.218,0.21-0.057,0.253c0.549,0.146,1.099,0.293,1.648,0.439
		C183.615,57.633,183.673,57.38,183.511,57.337z"/>
	<path fill="#E98C24" d="M183.624,54.829c-0.564,0.074-1.127,0.149-1.691,0.223c-0.193,0.025-0.188,0.331,0.007,0.305
		c0.564-0.074,1.127-0.149,1.691-0.223C183.824,55.109,183.819,54.803,183.624,54.829z"/>
	<path fill="#E98C24" d="M183.004,52.273c-0.521,0.293-1.043,0.586-1.564,0.879c-0.149,0.084,0.008,0.345,0.157,0.262
		c0.521-0.293,1.043-0.586,1.564-0.879C183.31,52.45,183.153,52.189,183.004,52.273z"/>
	<path fill="#E98C24" d="M182.003,50.154c-0.479,0.417-0.959,0.835-1.438,1.252c-0.148,0.129,0.076,0.337,0.223,0.208
		c0.479-0.417,0.959-0.835,1.438-1.252C182.374,50.234,182.15,50.026,182.003,50.154z"/>
	<path fill="#FAA61C" d="M169.149,57.007c-0.27-0.71-0.366-1.447-0.288-2.202c0.02-0.195-0.285-0.195-0.305-0.001
		c-0.081,0.778,0.02,1.548,0.298,2.28C168.923,57.266,169.219,57.19,169.149,57.007z"/>
	<path fill="#E98C24" d="M171.903,48.056c-0.218-0.578-0.435-1.157-0.653-1.735c-0.069-0.183-0.339-0.041-0.271,0.141
		c0.218,0.578,0.435,1.157,0.653,1.735C171.701,48.381,171.971,48.238,171.903,48.056z"/>
	<path fill="#E98C24" d="M169.716,49.199c0.1,0.168,0.372,0.028,0.271-0.141c-0.319-0.535-0.637-1.07-0.956-1.606
		c-0.1-0.168-0.372-0.028-0.271,0.141C169.079,48.128,169.398,48.663,169.716,49.199z"/>
	<path fill="#E98C24" d="M166.791,49.39c0.407,0.403,0.814,0.807,1.221,1.21c0.126,0.125,0.334-0.064,0.207-0.19
		c-0.407-0.403-0.814-0.807-1.221-1.21C166.873,49.075,166.665,49.264,166.791,49.39z"/>
	<path fill="#E98C24" d="M165.546,51.1c0.503,0.368,1.006,0.736,1.509,1.104c0.15,0.11,0.297-0.134,0.147-0.243
		c-0.503-0.368-1.006-0.736-1.509-1.104C165.543,50.747,165.397,50.99,165.546,51.1z"/>
	<path fill="#E98C24" d="M164.814,53.137l1.771,0.569c0.173,0.056,0.26-0.212,0.087-0.268c-0.59-0.19-1.18-0.379-1.771-0.569
		C164.728,52.814,164.641,53.081,164.814,53.137z"/>
	<path fill="#E98C24" d="M164.521,55.613c0.567-0.034,1.135-0.069,1.702-0.103c0.194-0.012,0.211-0.317,0.015-0.305
		c-0.567,0.034-1.135,0.069-1.702,0.103C164.342,55.32,164.325,55.625,164.521,55.613z"/>
	<path fill="#E98C24" d="M164.978,58.302c0.566-0.266,1.132-0.532,1.698-0.799c0.162-0.076,0.023-0.348-0.139-0.272
		c-0.566,0.266-1.132,0.532-1.698,0.799C164.677,58.106,164.817,58.378,164.978,58.302z"/>
	<path fill="#E98C24" d="M165.932,60.494c0.508-0.382,1.015-0.765,1.523-1.147c0.157-0.118-0.052-0.341-0.208-0.224
		c-0.508,0.382-1.015,0.765-1.523,1.147C165.567,60.389,165.776,60.612,165.932,60.494z"/>
	<path fill="#E98C24" d="M180.047,50.534c0.404-0.468,0.808-0.935,1.212-1.403c0.128-0.148-0.126-0.318-0.253-0.171
		c-0.404,0.468-0.808,0.935-1.212,1.403C179.665,50.511,179.92,50.681,180.047,50.534z"/>
	<path fill="#E98C24" d="M179.534,47.592c-0.381,0.507-0.762,1.014-1.144,1.521c-0.118,0.157,0.119,0.349,0.238,0.191
		c0.381-0.507,0.762-1.014,1.144-1.521C179.89,47.626,179.653,47.434,179.534,47.592z"/>
	<path fill="#E98C24" d="M177.684,46.594c-0.275,0.566-0.549,1.132-0.824,1.699c-0.082,0.169,0.187,0.294,0.269,0.125
		c0.275-0.566,0.549-1.132,0.824-1.699C178.035,46.55,177.766,46.426,177.684,46.594z"/>
	<path fill="#E98C24" d="M175.69,46.08l-0.304,1.733c-0.03,0.169,0.234,0.212,0.263,0.043c0.101-0.578,0.202-1.156,0.304-1.733
		C175.983,45.953,175.72,45.911,175.69,46.08z"/>
	<path fill="#E98C24" d="M173.195,46.035c0.116,0.557,0.232,1.113,0.348,1.67c0.04,0.191,0.344,0.163,0.304-0.029
		c-0.116-0.557-0.232-1.113-0.348-1.67C173.459,45.815,173.155,45.842,173.195,46.035z"/>
	<path fill="#E98C24" d="M168.033,60.535c-0.339,0.38-0.679,0.76-1.018,1.141c-0.13,0.146,0.092,0.356,0.223,0.208
		c0.339-0.38,0.679-0.76,1.018-1.141C168.387,60.597,168.164,60.388,168.033,60.535z"/>
	<path fill="#E98C24" d="M169.511,61.865c-0.366,0.426-0.733,0.853-1.099,1.279c-0.128,0.148,0.095,0.358,0.223,0.208
		c0.366-0.426,0.733-0.853,1.099-1.279C169.862,61.925,169.64,61.715,169.511,61.865z"/>
	<path fill="#E98C24" d="M170.635,62.656c-0.282,0.458-0.564,0.917-0.845,1.375c-0.103,0.167,0.166,0.311,0.269,0.144
		c0.282-0.458,0.564-0.917,0.846-1.375C171.007,62.633,170.738,62.489,170.635,62.656z"/>
	<path fill="#E98C24" d="M172.131,63.087c-0.207,0.518-0.414,1.036-0.62,1.553c-0.072,0.18,0.196,0.327,0.269,0.144
		c0.207-0.518,0.414-1.036,0.62-1.553C172.472,63.051,172.204,62.905,172.131,63.087z"/>
	<path fill="#E98C24" d="M173.632,63.575c-0.037,0.512-0.075,1.023-0.112,1.535c-0.014,0.196,0.291,0.188,0.305-0.007
		c0.037-0.512,0.075-1.023,0.112-1.535C173.952,63.372,173.646,63.38,173.632,63.575z"/>
	<path fill="#E98C24" d="M175.59,63.344c0.071,0.539,0.142,1.078,0.214,1.618c0.025,0.193,0.331,0.188,0.305-0.007
		c-0.071-0.539-0.142-1.078-0.214-1.618C175.87,63.144,175.564,63.149,175.59,63.344z"/>
</g>
<g>
	<path fill="#E98C24" d="M24.883,60.888c0.362,0.382,0.687,0.804,0.971,1.262c-0.288-0.455-0.615-0.882-0.977-1.264L24.883,60.888z"
		/>
	<path fill="#E98C24" d="M26.28,62.904l-0.004,0.002l-0.002-0.004c-0.065-0.131-0.131-0.255-0.198-0.379
		C26.147,62.645,26.215,62.773,26.28,62.904z"/>
	<g>
		<circle fill="#FEC465" cx="18.473" cy="66.187" r="7.512"/>
		<path fill="#FAA61C" d="M10.898,69.937c-2.068-4.177-0.352-9.257,3.825-11.325s9.257-0.352,11.325,3.825s0.352,9.257-3.825,11.325
			C18.046,75.829,12.966,74.114,10.898,69.937z M24.362,63.271c-1.607-3.247-5.557-4.581-8.804-2.973s-4.581,5.557-2.973,8.804
			c1.607,3.247,5.557,4.581,8.804,2.973C24.635,70.468,25.969,66.518,24.362,63.271z"/>
	</g>
	<g>
		<g>
			<g>
				<path fill="#FAA61C" d="M18.081,69.142c-1.012,0.501-2.145,0.282-2.967-0.534l-1.189,0.589l-0.878-1.774l1.08-0.535
					c-0.167-0.547-0.224-1.116-0.148-1.572l0.077-0.471l2.079-0.244l-0.105,0.804c-0.053,0.426,0.032,0.919,0.23,1.32
					c0.148,0.298,0.435,0.593,0.752,0.436c0.128-0.064,0.366-0.181,0.291-1.141c-0.101-1.2-0.03-2.519,1.28-3.167
					c0.966-0.478,2.053-0.269,2.843,0.51l1.159-0.574l0.873,1.763l-1.046,0.518c0.121,0.415,0.168,0.824,0.14,1.233l-0.038,0.531
					l-2.066,0.205l0.042-0.74c0.01-0.198,0.036-0.61-0.225-1.139c-0.093-0.189-0.296-0.493-0.564-0.36
					c-0.125,0.062-0.26,0.129-0.186,1.229C19.586,67.025,19.516,68.432,18.081,69.142z"/>
			</g>
		</g>
	</g>
	<path fill="#FAA61C" d="M13.42,63.474c0.846-1.388,2.243-2.302,3.85-2.531c0.168-0.024,0.146-0.288-0.022-0.264
		c-1.711,0.244-3.17,1.21-4.068,2.685C13.091,63.509,13.332,63.618,13.42,63.474z"/>
	<path fill="#FAA61C" d="M21.76,61.301c-0.985-0.525-2.056-0.819-3.171-0.869c-0.168-0.008-0.215,0.253-0.045,0.261
		c1.094,0.049,2.139,0.334,3.107,0.849C21.8,61.622,21.91,61.381,21.76,61.301z"/>
	<path fill="#FAA61C" d="M23.964,68.79c0.083-0.148-0.158-0.258-0.241-0.11c-0.95,1.695-2.618,2.846-4.539,3.134
		c-0.168,0.025-0.146,0.289,0.022,0.264C21.229,71.774,22.965,70.573,23.964,68.79z"/>
	<path fill="#FAA61C" d="M18.192,71.79c-1.005,0.031-1.972-0.196-2.862-0.663c-0.151-0.079-0.26,0.162-0.11,0.241
		c0.929,0.488,1.946,0.718,2.994,0.686C18.385,72.048,18.362,71.785,18.192,71.79z"/>
	<path fill="#FAA61C" d="M19.912,70.823c-0.596,0.278-1.228,0.408-1.885,0.388c-0.17-0.005-0.15,0.259,0.019,0.264
		c0.678,0.021,1.337-0.115,1.951-0.401C20.149,71.002,20.066,70.751,19.912,70.823z"/>
	<path fill="#E98C24" d="M12.386,69.002c-0.471,0.254-0.943,0.508-1.414,0.762c-0.15,0.081,0.004,0.296,0.152,0.216
		c0.471-0.254,0.943-0.508,1.414-0.762C12.688,69.138,12.535,68.923,12.386,69.002z"/>
	<path fill="#E98C24" d="M13.611,70.753c0.133-0.105-0.019-0.322-0.152-0.216c-0.423,0.336-0.845,0.671-1.268,1.007
		c-0.133,0.105,0.019,0.322,0.152,0.216C12.766,71.424,13.188,71.089,13.611,70.753z"/>
	<path fill="#E98C24" d="M13.966,73.231c0.335-0.436,0.67-0.871,1.005-1.307c0.103-0.134-0.1-0.303-0.204-0.168
		c-0.335,0.436-0.67,0.871-1.005,1.307C13.658,73.197,13.862,73.366,13.966,73.231z"/>
	<path fill="#E98C24" d="M15.659,74.028c0.249-0.474,0.497-0.948,0.746-1.422c0.074-0.141-0.151-0.243-0.225-0.102
		c-0.249,0.474-0.497,0.948-0.746,1.422C15.359,74.067,15.585,74.169,15.659,74.028z"/>
	<path fill="#E98C24" d="M17.432,74.419l0.289-1.45c0.028-0.142-0.194-0.177-0.222-0.036c-0.096,0.483-0.193,0.966-0.289,1.45
		C17.182,74.525,17.404,74.56,17.432,74.419z"/>
	<path fill="#E98C24" d="M19.607,74.378c-0.095-0.483-0.191-0.966-0.286-1.45c-0.033-0.166-0.296-0.144-0.264,0.022
		c0.095,0.483,0.191,0.966,0.286,1.45C19.376,74.566,19.64,74.545,19.607,74.378z"/>
	<path fill="#E98C24" d="M21.783,73.701c-0.282-0.435-0.564-0.869-0.846-1.304c-0.081-0.124-0.298,0.026-0.217,0.15
		c0.282,0.435,0.564,0.869,0.846,1.304C21.646,73.976,21.864,73.826,21.783,73.701z"/>
	<path fill="#E98C24" d="M23.56,72.72c-0.387-0.391-0.775-0.783-1.162-1.174c-0.119-0.121-0.287,0.084-0.168,0.204
		c0.387,0.391,0.775,0.783,1.162,1.174C23.511,73.045,23.679,72.84,23.56,72.72z"/>
	<path fill="#FAA61C" d="M16.928,61.982c0.599-0.272,1.231-0.396,1.889-0.37c0.17,0.007,0.153-0.257-0.016-0.264
		c-0.677-0.027-1.338,0.102-1.955,0.383C16.692,61.801,16.773,62.053,16.928,61.982z"/>
	<path fill="#E98C24" d="M24.818,63.871c0.488-0.22,0.976-0.44,1.464-0.66c0.155-0.07,0.017-0.296-0.137-0.226
		c-0.488,0.22-0.976,0.44-1.464,0.66C24.527,63.714,24.665,63.94,24.818,63.871z"/>
	<path fill="#E98C24" d="M23.71,62.043c-0.14,0.096-0.004,0.323,0.137,0.226c0.445-0.305,0.891-0.61,1.336-0.915
		c0.14-0.096,0.004-0.323-0.137-0.226C24.601,61.434,24.156,61.738,23.71,62.043z"/>
	<path fill="#E98C24" d="M23.384,59.525c-0.326,0.374-0.653,0.748-0.98,1.122c-0.101,0.115,0.074,0.285,0.175,0.169
		c0.327-0.374,0.653-0.748,0.98-1.122C23.66,59.578,23.486,59.409,23.384,59.525z"/>
	<path fill="#E98C24" d="M21.837,58.542c-0.291,0.455-0.581,0.91-0.872,1.365c-0.087,0.136,0.132,0.249,0.218,0.114
		c0.291-0.455,0.581-0.91,0.872-1.365C22.142,58.52,21.924,58.407,21.837,58.542z"/>
	<path fill="#E98C24" d="M20.035,58.021l-0.395,1.562c-0.039,0.153,0.198,0.213,0.236,0.06c0.132-0.521,0.263-1.042,0.395-1.562
		C20.31,57.929,20.074,57.868,20.035,58.021z"/>
	<path fill="#E98C24" d="M17.878,57.904c0.061,0.489,0.122,0.978,0.183,1.466c0.021,0.167,0.286,0.165,0.265-0.004
		c-0.061-0.489-0.122-0.978-0.183-1.466C18.122,57.733,17.857,57.735,17.878,57.904z"/>
	<path fill="#E98C24" d="M15.579,58.447c0.261,0.475,0.523,0.949,0.784,1.424c0.075,0.136,0.302,0.001,0.227-0.135
		c-0.261-0.475-0.523-0.949-0.784-1.424C15.731,58.176,15.504,58.312,15.579,58.447z"/>
	<path fill="#E98C24" d="M13.735,59.392c0.359,0.418,0.717,0.836,1.076,1.254c0.111,0.129,0.292-0.064,0.182-0.192
		c-0.359-0.418-0.717-0.836-1.076-1.254C13.807,59.071,13.625,59.264,13.735,59.392z"/>
	<path fill="#E98C24" d="M23.124,71.049c0.426,0.324,0.853,0.647,1.279,0.971c0.135,0.103,0.268-0.126,0.134-0.228
		c-0.426-0.324-0.853-0.647-1.279-0.971C23.122,70.718,22.99,70.947,23.124,71.049z"/>
	<path fill="#E98C24" d="M25.64,70.444c-0.459-0.302-0.919-0.603-1.378-0.905c-0.142-0.093-0.295,0.123-0.152,0.216
		c0.459,0.302,0.919,0.604,1.378,0.905C25.629,70.753,25.782,70.538,25.64,70.444z"/>
	<path fill="#E98C24" d="M26.4,68.79c-0.505-0.206-1.009-0.413-1.514-0.619c-0.151-0.062-0.244,0.178-0.093,0.239
		c0.505,0.206,1.009,0.413,1.514,0.619C26.458,69.09,26.551,68.851,26.4,68.79z"/>
	<path fill="#E98C24" d="M26.735,67.037L25.22,66.87c-0.148-0.016-0.17,0.214-0.022,0.23c0.505,0.056,1.01,0.111,1.515,0.167
		C26.861,67.284,26.883,67.054,26.735,67.037z"/>
	<path fill="#E98C24" d="M26.637,64.877c-0.475,0.131-0.95,0.262-1.424,0.393c-0.163,0.045-0.122,0.306,0.042,0.261
		c0.475-0.131,0.95-0.262,1.424-0.393C26.842,65.094,26.801,64.832,26.637,64.877z"/>
	<path fill="#E98C24" d="M13.816,61.211c-0.347-0.272-0.695-0.545-1.042-0.817c-0.134-0.105-0.302,0.099-0.168,0.204
		c0.347,0.272,0.695,0.545,1.042,0.817C13.781,61.52,13.95,61.317,13.816,61.211z"/>
	<path fill="#E98C24" d="M12.747,62.562c-0.389-0.293-0.778-0.587-1.166-0.88c-0.135-0.102-0.304,0.101-0.168,0.204
		c0.389,0.293,0.778,0.587,1.166,0.88C12.714,62.869,12.883,62.665,12.747,62.562z"/>
	<path fill="#E98C24" d="M12.124,63.578c-0.412-0.218-0.824-0.437-1.235-0.655c-0.15-0.08-0.26,0.161-0.11,0.241
		c0.412,0.218,0.824,0.437,1.235,0.655C12.165,63.898,12.275,63.658,12.124,63.578z"/>
	<path fill="#E98C24" d="M11.834,64.895c-0.459-0.15-0.918-0.301-1.377-0.451c-0.16-0.052-0.272,0.188-0.11,0.241
		c0.459,0.15,0.918,0.301,1.377,0.451C11.884,65.188,11.996,64.948,11.834,64.895z"/>
	<path fill="#E98C24" d="M11.495,66.22c-0.444-0.004-0.889-0.008-1.333-0.013c-0.17-0.002-0.146,0.262,0.022,0.264
		c0.444,0.004,0.889,0.008,1.333,0.013C11.688,66.485,11.664,66.221,11.495,66.22z"/>
	<path fill="#E98C24" d="M11.803,67.9c-0.462,0.091-0.925,0.182-1.387,0.274c-0.166,0.033-0.144,0.296,0.022,0.264
		c0.462-0.091,0.925-0.182,1.387-0.274C11.991,68.131,11.97,67.867,11.803,67.9z"/>
</g>
<circle fill="#5EB0E2" fill-opacity="0.5" cx="31.75" cy="381.646" r="11.509"/>
<circle fill="#FFFFFF" cx="31.457" cy="381.646" r="6.668"/>
<path fill="#6BC7B5" fill-opacity="0.5" d="M29.053,370.138c0,0,2.132-0.099,2.404,2.024c0,0,0.51,1.819-1.202,2.927
	c0,0-5.466,1.731-5.466,6.558v17.143c0,0-0.025,2.463-2.276,2.506c0,0-2.272-0.042-2.272-2.421s0-17.228,0-17.228
	S19.625,373.379,29.053,370.138z"/>
<circle fill="#5EB0E2" fill-opacity="0.5" cx="51.247" cy="379.975" r="11.509"/>
<circle fill="#FFFFFF" cx="50.953" cy="379.975" r="6.668"/>
<path fill="#6BC7B5" fill-opacity="0.5" d="M39.738,380.258v-20.045c0,0-0.034-2.208,1.778-2.208c0,0,2.548-0.057,2.491,2.208
	l0.001,20.045c0,0,1.547,6.654,6.945,6.385c0,0,2.227-0.212,2.454,1.883c0,0,1.148,2.605-1.635,2.944
	C51.772,391.47,39.738,390.96,39.738,380.258z"/>
<g>
	<path fill="#E98C24" d="M65.795,353.464c0.45,0.028,0.9,0.104,1.346,0.225c-0.447-0.117-0.901-0.194-1.351-0.222L65.795,353.464z"
		/>
	<path fill="#E98C24" d="M67.849,353.914l-0.001,0.004l-0.004-0.001c-0.117-0.044-0.231-0.083-0.346-0.122
		C67.614,353.829,67.732,353.87,67.849,353.914z"/>
	<g>
		<circle fill="#FEC465" cx="64.866" cy="360.533" r="6.439"/>
		<path fill="#FAA61C" d="M62.302,367.309c-3.736-1.414-5.626-5.603-4.212-9.34c1.414-3.736,5.604-5.626,9.34-4.212
			c3.736,1.414,5.626,5.604,4.212,9.34C70.228,366.833,66.039,368.722,62.302,367.309z M66.859,355.265
			c-2.905-1.099-6.162,0.37-7.261,3.275c-1.099,2.905,0.37,6.162,3.275,7.261c2.905,1.099,6.162-0.37,7.261-3.275
			C71.233,359.621,69.764,356.364,66.859,355.265z"/>
	</g>
	<g>
		<g>
			<g>
				<path fill="#FAA61C" d="M66.346,362.616c-0.342,0.905-1.182,1.429-2.173,1.398l-0.403,1.064l-1.587-0.601l0.365-0.966
					c-0.424-0.246-0.792-0.57-1.011-0.9l-0.226-0.34l1.162-1.367l0.404,0.566c0.215,0.298,0.557,0.558,0.915,0.694
					c0.267,0.101,0.619,0.118,0.727-0.165c0.043-0.115,0.124-0.328-0.483-0.886c-0.764-0.694-1.489-1.563-1.046-2.735
					c0.327-0.865,1.131-1.367,2.082-1.339L65.463,356l1.577,0.597l-0.354,0.935c0.318,0.19,0.587,0.419,0.808,0.692l0.286,0.355
					l-1.177,1.335l-0.406-0.489c-0.109-0.13-0.334-0.404-0.806-0.583c-0.169-0.064-0.473-0.137-0.564,0.103
					c-0.042,0.111-0.088,0.233,0.601,0.88C66.054,360.409,66.832,361.332,66.346,362.616z"/>
			</g>
		</g>
	</g>
	<path fill="#FAA61C" d="M60.111,361.781c-0.28-1.365,0.063-2.754,0.938-3.836c0.092-0.113-0.076-0.266-0.168-0.152
		c-0.931,1.152-1.282,2.61-0.986,4.06C59.925,361.995,60.14,361.922,60.111,361.781z"/>
	<path fill="#FAA61C" d="M64.076,355.547c-0.925,0.246-1.768,0.687-2.497,1.306c-0.11,0.093,0.013,0.284,0.124,0.19
		c0.715-0.608,1.537-1.039,2.445-1.281C64.289,355.725,64.217,355.51,64.076,355.547z"/>
	<path fill="#FAA61C" d="M69.832,358.96c-0.034-0.142-0.249-0.07-0.215,0.072c0.394,1.618,0.019,3.314-1.019,4.617
		c-0.091,0.114,0.077,0.267,0.168,0.152C69.858,362.43,70.246,360.662,69.832,358.96z"/>
	<path fill="#FAA61C" d="M67.962,364.213c-0.612,0.606-1.352,1.029-2.183,1.255c-0.141,0.038-0.069,0.253,0.072,0.215
		c0.868-0.236,1.64-0.685,2.279-1.318C68.234,364.262,68.065,364.11,67.962,364.213z"/>
	<path fill="#FAA61C" d="M68.476,362.602c-0.212,0.522-0.532,0.973-0.956,1.344c-0.11,0.096,0.057,0.25,0.166,0.155
		c0.437-0.383,0.772-0.852,0.99-1.391C68.73,362.576,68.531,362.467,68.476,362.602z"/>
	<path fill="#E98C24" d="M62.691,365.853c-0.148,0.435-0.295,0.869-0.443,1.304c-0.047,0.138,0.175,0.183,0.222,0.047
		c0.148-0.435,0.295-0.869,0.443-1.304C62.959,365.762,62.737,365.717,62.691,365.853z"/>
	<path fill="#E98C24" d="M64.481,366.237c0.022-0.144-0.2-0.191-0.222-0.047c-0.069,0.457-0.139,0.915-0.208,1.372
		c-0.022,0.144,0.2,0.191,0.222,0.047C64.343,367.151,64.412,366.694,64.481,366.237z"/>
	<path fill="#E98C24" d="M66.151,367.584c-0.044-0.469-0.088-0.938-0.132-1.407c-0.014-0.145-0.24-0.132-0.226,0.014
		c0.044,0.469,0.088,0.938,0.132,1.407C65.938,367.743,66.165,367.73,66.151,367.584z"/>
	<path fill="#E98C24" d="M67.679,367.096c-0.121-0.443-0.242-0.885-0.363-1.328c-0.036-0.132-0.237-0.064-0.201,0.068
		c0.121,0.443,0.242,0.885,0.363,1.328C67.513,367.296,67.715,367.228,67.679,367.096z"/>
	<path fill="#E98C24" d="M69.019,366.306l-0.665-1.078c-0.065-0.105-0.225,0.002-0.16,0.107c0.222,0.359,0.443,0.719,0.665,1.078
		C68.924,366.519,69.084,366.411,69.019,366.306z"/>
	<path fill="#E98C24" d="M70.361,365.011c-0.342-0.248-0.684-0.495-1.026-0.743c-0.117-0.085-0.27,0.082-0.152,0.168
		c0.342,0.248,0.684,0.495,1.026,0.743C70.325,365.264,70.479,365.096,70.361,365.011z"/>
	<path fill="#E98C24" d="M71.331,363.316c-0.431-0.108-0.862-0.216-1.292-0.324c-0.123-0.031-0.172,0.19-0.049,0.221
		c0.431,0.108,0.862,0.216,1.292,0.324C71.405,363.568,71.454,363.346,71.331,363.316z"/>
	<path fill="#E98C24" d="M71.873,361.662c-0.472-0.02-0.943-0.039-1.415-0.059c-0.145-0.006-0.131,0.22,0.014,0.226
		c0.472,0.02,0.943,0.039,1.415,0.059C72.032,361.894,72.018,361.668,71.873,361.662z"/>
	<path fill="#FAA61C" d="M61.441,358.796c0.217-0.52,0.541-0.968,0.969-1.335c0.111-0.095-0.054-0.251-0.164-0.156
		c-0.441,0.379-0.78,0.845-1.003,1.382C61.187,358.82,61.385,358.931,61.441,358.796z"/>
	<path fill="#E98C24" d="M67.496,355.374c0.178-0.423,0.356-0.846,0.534-1.269c0.056-0.134-0.162-0.195-0.218-0.062
		c-0.178,0.423-0.356,0.846-0.534,1.269C67.221,355.446,67.44,355.507,67.496,355.374z"/>
	<path fill="#E98C24" d="M65.733,354.874c-0.032,0.142,0.186,0.205,0.218,0.062c0.101-0.451,0.203-0.903,0.304-1.354
		c0.032-0.142-0.186-0.205-0.218-0.062C65.936,353.972,65.835,354.423,65.733,354.874z"/>
	<path fill="#E98C24" d="M64.058,353.484c0.013,0.425,0.027,0.851,0.04,1.276c0.004,0.131,0.213,0.136,0.209,0.004
		c-0.013-0.425-0.027-0.851-0.04-1.276C64.263,353.356,64.054,353.352,64.058,353.484z"/>
	<path fill="#E98C24" d="M62.514,353.771c0.083,0.455,0.167,0.911,0.25,1.366c0.025,0.136,0.228,0.08,0.204-0.056
		c-0.083-0.455-0.167-0.911-0.25-1.366C62.693,353.579,62.489,353.635,62.514,353.771z"/>
	<path fill="#E98C24" d="M61.079,354.496l0.665,1.211c0.065,0.118,0.248,0.018,0.183-0.1c-0.222-0.404-0.443-0.807-0.665-1.211
		C61.197,354.278,61.014,354.378,61.079,354.496z"/>
	<path fill="#E98C24" d="M59.657,355.682c0.324,0.271,0.647,0.542,0.971,0.813c0.111,0.093,0.276-0.063,0.164-0.157
		c-0.324-0.271-0.647-0.542-0.971-0.813C59.71,355.432,59.545,355.588,59.657,355.682z"/>
	<path fill="#E98C24" d="M58.531,357.365c0.441,0.145,0.882,0.291,1.323,0.436c0.126,0.042,0.19-0.176,0.064-0.217
		c-0.441-0.145-0.882-0.291-1.323-0.436C58.468,357.106,58.405,357.324,58.531,357.365z"/>
	<path fill="#E98C24" d="M57.926,359.035c0.469,0.053,0.938,0.106,1.407,0.158c0.145,0.016,0.146-0.211,0.002-0.227
		c-0.469-0.053-0.938-0.106-1.407-0.158C57.783,358.792,57.782,359.018,57.926,359.035z"/>
	<path fill="#E98C24" d="M70.624,360.868c0.457-0.046,0.913-0.092,1.37-0.138c0.145-0.015,0.094-0.236-0.049-0.221
		c-0.457,0.046-0.913,0.092-1.37,0.138C70.429,360.661,70.48,360.882,70.624,360.868z"/>
	<path fill="#E98C24" d="M71.849,359.02c-0.464,0.079-0.929,0.158-1.393,0.237c-0.143,0.024-0.114,0.249,0.031,0.225
		c0.464-0.079,0.929-0.158,1.393-0.237C72.023,359.22,71.994,358.995,71.849,359.02z"/>
	<path fill="#E98C24" d="M71.361,357.537c-0.437,0.165-0.874,0.33-1.312,0.496c-0.13,0.049-0.049,0.254,0.081,0.205
		c0.437-0.165,0.874-0.33,1.311-0.496C71.572,357.693,71.491,357.488,71.361,357.537z"/>
	<path fill="#E98C24" d="M70.548,356.242l-1.049,0.78c-0.103,0.076,0.018,0.234,0.12,0.157c0.35-0.26,0.699-0.52,1.049-0.78
		C70.77,356.323,70.65,356.166,70.548,356.242z"/>
	<path fill="#E98C24" d="M69.225,354.944c-0.221,0.359-0.443,0.719-0.664,1.078c-0.076,0.123,0.102,0.263,0.179,0.139
		c0.221-0.359,0.443-0.719,0.664-1.078C69.48,354.96,69.302,354.82,69.225,354.944z"/>
	<path fill="#E98C24" d="M59.038,360.13c-0.377,0.032-0.754,0.064-1.131,0.096c-0.145,0.012-0.132,0.239,0.014,0.226
		c0.377-0.032,0.754-0.064,1.131-0.096C59.197,360.344,59.184,360.117,59.038,360.13z"/>
	<path fill="#E98C24" d="M59.157,361.601c-0.415,0.043-0.831,0.086-1.246,0.129c-0.145,0.015-0.132,0.241,0.014,0.226
		c0.415-0.043,0.831-0.086,1.246-0.129C59.315,361.813,59.302,361.586,59.157,361.601z"/>
	<path fill="#E98C24" d="M59.359,362.602c-0.386,0.103-0.772,0.207-1.158,0.31c-0.141,0.038-0.069,0.253,0.072,0.215
		c0.386-0.103,0.772-0.207,1.158-0.31C59.572,362.779,59.5,362.564,59.359,362.602z"/>
	<path fill="#E98C24" d="M59.946,363.598c-0.376,0.174-0.752,0.347-1.128,0.521c-0.131,0.061-0.061,0.276,0.072,0.215
		c0.376-0.174,0.752-0.347,1.128-0.521C60.148,363.753,60.078,363.537,59.946,363.598z"/>
	<path fill="#E98C24" d="M60.507,364.627c-0.281,0.257-0.563,0.514-0.844,0.77c-0.108,0.099,0.061,0.25,0.168,0.152
		c0.281-0.257,0.563-0.514,0.844-0.77C60.782,364.681,60.613,364.53,60.507,364.627z"/>
	<path fill="#E98C24" d="M61.681,365.502c-0.237,0.327-0.474,0.654-0.711,0.981c-0.085,0.117,0.082,0.27,0.168,0.152
		c0.237-0.327,0.474-0.654,0.711-0.981C61.933,365.537,61.766,365.384,61.681,365.502z"/>
</g>
<path fill="#6BC7B5" fill-opacity="0.5" d="M126.232,152.078c0,1.636-1.129,2.962-2.521,2.962l0,0c-1.393,0-2.521-1.326-2.521-2.962
	v-17.109c0-1.636,1.129-2.962,2.521-2.962l0,0c1.393,0,2.521,1.326,2.521,2.962V152.078z"/>
<path fill="#5EB0E2" fill-opacity="0.5" d="M165.64,152.078c0,1.636-1.129,2.962-2.521,2.962l0,0c-1.393,0-2.521-1.326-2.521-2.962
	v-17.109c0-1.636,1.129-2.962,2.521-2.962l0,0c1.393,0,2.521,1.326,2.521,2.962V152.078z"/>
</svg>
