<?xml version="1.0" encoding="utf-8"?>
<!-- Generator: Adobe Illustrator 17.0.0, SVG Export Plug-In . SVG Version: 6.00 Build 0)  -->
<!DOCTYPE svg PUBLIC "-//W3C//DTD SVG 1.1//EN" "http://www.w3.org/Graphics/SVG/1.1/DTD/svg11.dtd">
<svg version="1.1" xmlns="http://www.w3.org/2000/svg" xmlns:xlink="http://www.w3.org/1999/xlink" x="0px" y="0px"
	 width="1133.667px" height="800px" viewBox="0 0 1133.667 800" enable-background="new 0 0 1133.667 800" xml:space="preserve">
<g id="BACKGROUND">
</g>
<g id="OBJECTS">
	<g>
		<defs>
			<rect id="SVGID_1_" x="334.229" width="800" height="800"/>
		</defs>
		<clipPath id="SVGID_2_">
			<use xlink:href="#SVGID_1_"  overflow="visible"/>
		</clipPath>
		<g clip-path="url(#SVGID_2_)">
			<path fill="#A56234" d="M424.711,599.653c-0.011,0.014-0.023,0.017-0.042,0.023c-3.222,1.408-6.397,2.475-9.488,3.124
				c-10.788,2.268-42.605,45.604-56.543,65.672c0.001,0.012-0.011,0.026-0.023,0.027c-3.865,5.588-32.354,53.038-32.615,53.625
				c-10.068-8.889-51.068-110.614-51.068-110.614s57.4-58.528,59.161-60.896c22.934-30.69,25.793-121.233,32.445-128.882
				c13.381-15.385,33.398-42.429,41.357-44.787c7.968-2.353,25.592-13.594,29.534-8.072c5.643,7.912-3.031,21.062-18.96,33.574
				c-5.92,4.647-10.164,10.86-12.947,16.001c-2.92,5.379-4.246,9.571-4.246,9.571s0.452,2.81,1.129,5.923
				c0.026,0.108,0.037,0.165,0.037,0.165s0.006,0.006,0.008,0.018c0.414,1.904,0.917,3.897,1.452,5.413
				c0.422,1.194,0.863,2.103,1.296,2.444c0.129,0.1,0.254,0.148,0.375,0.147c0.883-0.011,3.524-1.96,7.476-5.268
				c20.868-17.5,78.188-72.939,104.434-79.707c16.654-4.295,14.786,6.065,17.387,7.585c0.419,0.249,0.971,0.26,1.734-0.068
				c2.436-1.04,4.997-2.223,7.616-3.366l0.062-0.029c3.526-1.55,7.148-3.006,10.686-3.924l0.037-0.016c0,0,0.006-0.007,0.013-0.001
				l0.006-0.007c6.439-1.684,12.564-1.572,17.216,3.107c4.961,4.996-1.284,15.38-8.065,23.849
				c-5.742,7.183-11.87,13.002-11.87,13.002c1.49,1.439,6.804-3.723,13.055-8.612c0.017-0.018,0.042-0.033,0.06-0.054
				c7.267-5.677,15.787-10.948,20.965-4.961c7.89,9.124-5.206,24.457-23.515,43.308c-2.533,2.594-5.167,5.267-7.849,7.992
				l-0.032,0.036c-0.269,0.267-0.53,0.543-0.8,0.811l-0.029,0.033c0.213-0.162,3.166-2.869,6.753-5.277l0.005-0.006
				c0.013,0,0.025-0.014,0.031-0.021c1.077-0.714,2.206-1.406,3.331-1.996c0.011-0.002,0.011-0.002,0.017-0.009
				c2.104-1.101,4.19-1.835,5.914-1.712c7.51,0.526,7.401,8.711,5.108,13.164c-19.956,38.83-59.785,72.302-66.342,78.92
				C502.54,525.41,460.559,583.94,424.711,599.653z"/>
			<path fill="#B90049" d="M424.711,599.653c-0.011,0.014-0.023,0.017-0.042,0.023l0.586-0.674
				C425.255,599.003,425.073,599.227,424.711,599.653z"/>
			<g>
				<path opacity="0.2" fill="#F7C497" d="M405.276,518.023c13.658-24.81,4.908-60.411-0.078-76.04
					c0.129,0.1,0.254,0.148,0.375,0.147c0.883-0.011,3.524-1.96,7.476-5.268C431.253,488.938,405.276,518.023,405.276,518.023z"/>
				<path opacity="0.2" fill="#F7C497" d="M415.181,602.801c-10.788,2.268-42.605,45.604-56.543,65.672
					c43.421-69.992,11.065-124.748,28.461-98.77c18.21,27.203,37.57,29.974,37.57,29.974
					C421.447,601.085,418.272,602.151,415.181,602.801z"/>
				<path opacity="0.2" fill="#F7C497" d="M534.87,364.739c0,0-6.656,10.996-20.273,21.88
					c-13.619,10.886-30.251,32.306-45.959,42.569c-15.709,10.263-12.183,15.685-12.183,15.685s14.255-9.898,23.193-18.071
					c8.938-8.173,33.701-34.485,38.96-39.086c5.257-4.601,18.594-20.074,36.367-30.358c0.018-0.008,0.03-0.021,0.05-0.029
					L534.87,364.739z"/>
				<path opacity="0.2" fill="#F7C497" d="M565.36,388.674c-16.753,14.009-42.412,36.383-54.028,49.536
					c-12.852,14.54-29.818,28.89-27.034,22.938c2.786-5.953,6.663-9.256,21.282-22.857c14.618-13.603,33.037-33.173,36.407-34.751
					c3.362-1.585,22.188-19.256,22.188-19.256c-5.742,7.183-11.87,13.002-11.87,13.002
					C553.796,398.726,559.11,393.564,565.36,388.674z"/>
				<path opacity="0.2" fill="#F7C497" d="M562.859,426.968c0,0,0,0,0.012-0.001c-2.533,2.594-5.167,5.267-7.849,7.992l-0.032,0.036
					c-10.177,8.995-27.489,28.39-38.323,39.373c-13.458,13.645-21.577,16.104-17.859,11.36c3.722-4.731,29.808-28.302,34.765-33.548
					C538.53,446.934,562.859,426.968,562.859,426.968z"/>
			</g>
			<path opacity="0.2" fill="#F7C497" d="M564.28,428.539c-0.537,0.491-1.566,1.138-3.331,1.996
				C562.027,429.821,563.155,429.129,564.28,428.539z"/>
			<path fill="#B76930" d="M415.445,374.296c0,0,1.585,4.712,4.086,3.554c2.503-1.157,16.924-5.309,15.737-10.331
				c-1.188-5.021-19.505,6.411-19.505,6.411"/>
		</g>
		<g clip-path="url(#SVGID_2_)">
			<path fill="#065F0F" d="M520.534,559.809c0,0-13-55.441,63-102.941s81-102.5,81-102.5L582.167,272c0,0-5,55-81,102.5
				s-63,102.941-63,102.941L520.534,559.809z"/>
			<path fill="#AECF9F" d="M447.45,472.497c-0.428-4.42-0.671-14.432,3.586-27.115c7.761-23.118,26.949-44.726,55.489-62.487
				c52.989-32.976,73.397-69.804,81.179-91.38l66.171,66.428c-1.213,5.17-4.101,14.651-10.673,26.357
				c-9.318,16.597-28.166,41.196-65.035,64.14c-49.027,30.511-63.736,64.636-67.562,87.457L447.45,472.497z"/>
			<ellipse fill="#065F0F" cx="547.334" cy="405.896" rx="32" ry="24.723"/>
			
				<ellipse transform="matrix(0.6107 -0.7918 0.7918 0.6107 -48.2199 614.1559)" fill="#065F0F" cx="600.55" cy="356.123" rx="11.821" ry="10.123"/>
			
				<ellipse transform="matrix(-0.3535 -0.9354 0.9354 -0.3535 546.7653 1094.8417)" fill="#065F0F" cx="651.703" cy="358.487" rx="11.821" ry="10.556"/>
			
				<ellipse transform="matrix(-0.3536 -0.9354 0.9354 -0.3536 164.2912 1056.5554)" fill="#065F0F" cx="447.229" cy="471.508" rx="12.051" ry="9.381"/>
			
				<ellipse transform="matrix(-0.3535 -0.9354 0.9354 -0.3535 190.9378 1200.016)" fill="#065F0F" cx="510.129" cy="534.03" rx="11.821" ry="10.556"/>
			
				<ellipse transform="matrix(-0.3535 -0.9354 0.9354 -0.3535 520.935 948.6315)" fill="#065F0F" cx="588.262" cy="294.31" rx="10.502" ry="11.423"/>
			
				<ellipse transform="matrix(0.5164 -0.8563 0.8563 0.5164 -152.7926 644.3499)" fill="#065F0F" cx="494.105" cy="457.456" rx="11.821" ry="10.122"/>
		</g>
		<g clip-path="url(#SVGID_2_)">
			<path fill="#754C2D" d="M1077.288,672.096c0.011,0.014,0.023,0.017,0.041,0.023c3.223,1.408,6.397,2.475,9.488,3.124
				c10.789,2.267,42.606,45.603,56.543,65.672c-0.001,0.012,0.012,0.026,0.023,0.027c3.865,5.588,6.354,9.356,6.614,9.942
				c10.067-8.889,77.068-66.932,77.068-66.932s-57.399-58.528-59.161-60.897c-22.934-30.689-25.793-121.232-32.445-128.882
				c-13.381-15.385-33.399-42.429-41.358-44.786c-7.968-2.354-25.592-13.594-29.534-8.072c-5.644,7.912,3.031,21.061,18.96,33.573
				c5.92,4.648,10.164,10.86,12.947,16.001c2.92,5.379,4.246,9.571,4.246,9.571s-0.451,2.81-1.129,5.923
				c-0.026,0.108-0.037,0.165-0.037,0.165s-0.006,0.006-0.008,0.018c-0.414,1.904-0.917,3.897-1.451,5.413
				c-0.422,1.194-0.863,2.103-1.296,2.444c-0.13,0.1-0.255,0.148-0.375,0.146c-0.884-0.011-3.524-1.96-7.476-5.268
				c-20.868-17.5-78.189-72.939-104.434-79.707c-16.654-4.295-14.786,6.064-17.388,7.585c-0.419,0.248-0.972,0.26-1.734-0.068
				c-2.437-1.04-4.997-2.223-7.616-3.366l-0.063-0.028c-3.525-1.551-7.147-3.007-10.685-3.925l-0.037-0.016
				c0,0-0.006-0.007-0.014-0.001l-0.006-0.007c-6.439-1.684-12.564-1.572-17.216,3.107c-4.961,4.995,1.284,15.38,8.065,23.849
				c5.741,7.183,11.869,13.002,11.869,13.002c-1.489,1.44-6.804-3.723-13.055-8.612c-0.016-0.019-0.041-0.033-0.06-0.054
				c-7.267-5.678-15.787-10.948-20.966-4.961c-7.889,9.123,5.207,24.456,23.516,43.308c2.533,2.594,5.167,5.267,7.85,7.992
				l0.031,0.036c0.27,0.267,0.53,0.543,0.801,0.81l0.028,0.033c-0.213-0.162-3.165-2.869-6.753-5.277l-0.006-0.006
				c-0.013,0-0.024-0.014-0.03-0.02c-1.077-0.714-2.206-1.406-3.331-1.996c-0.01-0.002-0.01-0.002-0.017-0.009
				c-2.104-1.101-4.19-1.835-5.913-1.712c-7.51,0.526-7.401,8.711-5.109,13.164c19.956,38.83,59.785,72.302,66.343,78.92
				C999.459,597.852,1041.44,656.382,1077.288,672.096z"/>
			<path fill="#B90049" d="M1077.288,672.096c0.011,0.014,0.023,0.017,0.041,0.023l-0.586-0.674
				C1076.743,671.445,1076.925,671.67,1077.288,672.096z"/>
			<g>
				<path opacity="0.2" fill="#F7C497" d="M1096.722,590.465c-13.658-24.81-4.907-60.411,0.078-76.04
					c-0.13,0.1-0.255,0.148-0.375,0.146c-0.884-0.011-3.524-1.96-7.476-5.268C1070.746,561.38,1096.722,590.465,1096.722,590.465z"
					/>
				<path opacity="0.2" fill="#F7C497" d="M1086.817,675.243c10.789,2.267,42.606,45.603,56.543,65.672
					c-43.421-69.992-11.064-124.748-28.461-98.769c-18.209,27.203-37.57,29.974-37.57,29.974
					C1080.551,673.527,1083.726,674.594,1086.817,675.243z"/>
				<path opacity="0.2" fill="#F7C497" d="M946.973,429.771c0.02,0.008,0.031,0.021,0.05,0.029
					c17.772,10.284,31.11,25.757,36.367,30.358c5.259,4.601,30.021,30.913,38.96,39.086c8.938,8.173,23.193,18.071,23.193,18.071
					s3.525-5.423-12.184-15.686c-15.707-10.263-32.34-31.683-45.959-42.569c-13.617-10.883-20.273-21.879-20.273-21.879
					L946.973,429.771z"/>
				<path opacity="0.2" fill="#F7C497" d="M936.637,461.116c16.754,14.009,42.412,36.383,54.029,49.536
					c12.852,14.54,29.817,28.89,27.033,22.939c-2.785-5.953-6.662-9.256-21.281-22.857c-14.618-13.603-33.037-33.173-36.408-34.751
					c-3.361-1.585-22.188-19.256-22.188-19.256c5.741,7.183,11.869,13.002,11.869,13.002
					C948.203,471.168,942.888,466.006,936.637,461.116z"/>
				<path opacity="0.2" fill="#F7C497" d="M939.139,499.41c0,0,0,0-0.012-0.001c2.533,2.594,5.167,5.267,7.85,7.992l0.031,0.036
					c10.178,8.995,27.489,28.39,38.323,39.373c13.458,13.645,21.577,16.104,17.859,11.36c-3.722-4.731-29.808-28.302-34.765-33.548
					C963.468,519.376,939.139,499.41,939.139,499.41z"/>
			</g>
			<path opacity="0.2" fill="#F7C497" d="M937.717,500.981c0.537,0.491,1.566,1.138,3.331,1.996
				C939.971,502.264,938.842,501.571,937.717,500.981z"/>
			<path fill="#684225" d="M1086.553,446.738c0,0-1.585,4.713-4.087,3.555c-2.503-1.157-16.924-5.309-15.737-10.33
				c1.188-5.021,19.506,6.41,19.506,6.41"/>
		</g>
		<g clip-path="url(#SVGID_2_)">
			<path fill="#065F0F" d="M981.464,632.251c0,0,13-55.441-63-102.941s-81-102.5-81-102.5l82.368-82.367c0,0,5,55,81,102.5
				s63,102.941,63,102.941L981.464,632.251z"/>
			<path fill="#AECF9F" d="M1054.548,544.94c0.429-4.42,0.672-14.432-3.586-27.115c-7.761-23.118-26.949-44.727-55.489-62.487
				c-52.989-32.976-73.398-69.804-81.179-91.38l-66.171,66.428c1.213,5.171,4.101,14.652,10.673,26.357
				c9.318,16.598,28.166,41.196,65.035,64.141c49.027,30.511,63.736,64.636,67.563,87.457L1054.548,544.94z"/>
			<ellipse fill="#065F0F" cx="954.665" cy="478.338" rx="32" ry="24.723"/>
			
				<ellipse transform="matrix(-0.6107 -0.7918 0.7918 -0.6107 1112.6556 1404.1013)" fill="#065F0F" cx="901.449" cy="428.565" rx="11.821" ry="10.123"/>
			
				<ellipse transform="matrix(0.3535 -0.9354 0.9354 0.3535 146.5917 1073.9714)" fill="#065F0F" cx="850.295" cy="430.929" rx="11.821" ry="10.556"/>
			
				<ellipse transform="matrix(0.3536 -0.9354 0.9354 0.3536 173.0343 1338.283)" fill="#065F0F" cx="1054.769" cy="543.951" rx="12.051" ry="9.38"/>
			
				<ellipse transform="matrix(0.3535 -0.9354 0.9354 0.3535 73.8986 1319.8754)" fill="#065F0F" cx="991.869" cy="606.473" rx="11.821" ry="10.556"/>
			
				<ellipse transform="matrix(0.3535 -0.9354 0.9354 0.3535 247.6255 1091.8159)" fill="#065F0F" cx="913.737" cy="366.752" rx="10.502" ry="11.423"/>
			
				<ellipse transform="matrix(-0.5164 -0.8563 0.8563 -0.5164 1074.595 1666.6447)" fill="#065F0F" cx="1007.893" cy="529.898" rx="11.821" ry="10.122"/>
		</g>
		<line clip-path="url(#SVGID_2_)" fill="none" x1="845.667" y1="106" x2="818.857" y2="141.29"/>
		<line clip-path="url(#SVGID_2_)" fill="none" x1="776.417" y1="197.13" x2="758.667" y2="220.5"/>
		<g clip-path="url(#SVGID_2_)">
			<path fill="#E5A331" d="M778.229,318.41h-15.187l-0.004,0.036c-7.586-0.746-17.831,18.785-23.112,44.299
				c-5.385,26.015-3.568,48.384,4.058,49.962c0.096,0.02,0.193,0.021,0.289,0.034l-0.006,0.054h15.817l0.308-8.215h-5.908
				c5.039-7.943,9.923-20.975,13.058-36.119c3.597-17.378,3.977-33.119,1.562-42.133l7.752-0.329L778.229,318.41z"/>
			
				<ellipse transform="matrix(0.9792 0.2027 -0.2027 0.9792 90.077 -148.3347)" fill="#FFCC00" cx="769.233" cy="365.603" rx="14.1" ry="48.102"/>
			<path opacity="0.6" fill="#EEC16A" d="M760.295,408.79c-0.554-0.114-2.955-2.649-3.732-12.224
				c-0.736-9.067,0.251-20.79,2.78-33.01c5.511-26.623,15.292-41.146,18.773-41.146c0.609,0.12,3.011,2.655,3.788,12.23
				c0.736,9.067-0.251,20.791-2.78,33.011c-5.511,26.622-15.292,41.144-18.772,41.144
				C760.322,408.795,760.304,408.792,760.295,408.79z"/>
			<polygon fill="#FFFFFF" points="752.943,363.317 756.33,359.173 757.992,364.261 762.134,367.648 757.048,369.31 753.66,373.453 
				751.999,368.366 747.855,364.978 			"/>
		</g>
		<g clip-path="url(#SVGID_2_)">
			<path fill="#EDBC91" d="M844.282,181.264c0,0,45.81,67.83,53.828,78.065c9.916,12.656,18.28,38.628,11.601,40.873
				c-8.198,2.756-17.862-14.352-29.962-29.791c-9.449-12.055-21.06-20.752-30.166-33.538
				C828.818,207.712,844.282,181.264,844.282,181.264z"/>
			<path fill="#EDBC91" d="M763.507,79.921c0,0,58.492,47.746,72.492,68.413S857.333,247,850,272
				c-7.333,25-49.316,77.96-57.658,74.814C784,343.667,849.101,235.353,824,174.368C798.898,113.383,763.507,79.921,763.507,79.921z
				"/>
			<path fill="#F7C497" d="M818.857,141.29l-37.36,49.16l-5.08,6.68c-3.6-3.24-6.09-5.4-6.79-5.8
				c-3.729-2.13-40.78-13.79-36.43,29.67c0.03,0.22,0.04,0.34,0.04,0.34c0.12,1.21,0.28,2.46,0.47,3.76
				c7.13,48.27,15.52,69.68,15.96,91.4c0.48,23.9-7.41,29.19-16,30.31c-9.29,1.22-25.67-26.81-28.33-52.5
				c-3.94-37.92-6.73-48.92-15.51-67.02c-8.77-18.1-60.2-65.42-75.16-136.96c-7.33-35.07-189.27-100.73-189.27-100.73h175.15
				c0,0,152.94,81.98,161.74,89.26C769.367,84.71,801.917,118.62,818.857,141.29z"/>
			<path fill="#F7D5B7" d="M727.775,344.579c0,0-11.108-23.829-5.858-26.829s13.375-5.375,15.625-3.625s10.875,21.75,7.75,28.25
				S729.914,349.521,727.775,344.579z"/>
			<path fill="#F7C497" d="M842.657,265.17c-1.19,5.93-27.49,53.83-27.49,53.83c-18.25,23.5-33.25,39.49-33.25,39.49
				s-10.481,3.67-14.7-6.01c-1.399-3.19-2.109-7.83-1.55-14.53c1.5-17.95,21.56-37.45,21.56-37.45s9.29-35.09,17.521-43.32
				c4.41-4.41-10.25-18.85-9.91-39.35c0.04-2.9-7.57-10.76-11.17-14.08c-2.69-2.48-5.16-4.73-7.25-6.62l5.08-6.68l37.36-49.16
				c4.109,5.5,7.3,10.34,8.989,13.96C836.487,173.76,845.127,252.91,842.657,265.17z"/>
			<path fill="#F7D5B7" d="M779.667,359.171c0,0,10.152-20.145,16.625-18.296C798.917,341.625,781.667,364.467,779.667,359.171z"/>
			<path opacity="0.2" fill="#F7C497" d="M790.667,304.5c-5,11.5-21.75,21.72-23.12,45.86c-0.06,1.01-0.17,1.71-0.33,2.12
				c-1.399-3.19-2.109-7.83-1.55-14.53c1.5-17.95,21.56-37.45,21.56-37.45s9.29-35.09,17.521-43.32
				c4.41-4.41-10.25-18.85-9.91-39.35c0.04-2.9-7.57-10.76-11.17-14.08c-2.69-2.48-5.16-4.73-7.25-6.62c-3.6-3.24-6.09-5.4-6.79-5.8
				c-3.729-2.13-40.78-13.79-36.43,29.67c-0.42-3.31-3.363-23.081-3.363-32.833c0-8.334,5.307-23.5,27.001-14.5
				c11.042,4.581,16.383,13.39,22.833,19.19c10.2,9.17,18.699,14.601,20.25,20.578c4.363,16.816,10.362,32.336,10.75,43.566
				C810.917,264.25,795.667,293,790.667,304.5z"/>
			<path fill="#F7D5B7" d="M911.258,298.878c0,0-7.34-10.262-4.108-15.007C911.264,277.829,917.127,299.85,911.258,298.878z"/>
		</g>
	</g>
	<line fill="none" stroke="#D18932" stroke-miterlimit="10" x1="754.167" y1="407.5" x2="740.167" y2="408.125"/>
	<line fill="none" stroke="#D18932" stroke-miterlimit="10" x1="752.167" y1="398.25" x2="737.219" y2="398.421"/>
	<line fill="none" stroke="#D18932" stroke-miterlimit="10" x1="752.167" y1="386.875" x2="737.792" y2="386.25"/>
	<line fill="none" stroke="#D18932" stroke-miterlimit="10" x1="752.98" y1="374.108" x2="737.667" y2="372.339"/>
	<line fill="none" stroke="#D18932" stroke-miterlimit="10" x1="756.307" y1="410.462" x2="741.158" y2="410.888"/>
	<line fill="none" stroke="#D18932" stroke-miterlimit="10" x1="752.934" y1="402.75" x2="738.667" y2="402.75"/>
	<line fill="none" stroke="#D18932" stroke-miterlimit="10" x1="756.33" y1="359.173" x2="741.158" y2="357.265"/>
	<line fill="none" stroke="#D18932" stroke-miterlimit="10" x1="758.417" y1="348.375" x2="744.693" y2="344.974"/>
	<line fill="none" stroke="#D18932" stroke-miterlimit="10" x1="762.127" y1="339.631" x2="747.87" y2="336.587"/>
	<line fill="none" stroke="#D18932" stroke-miterlimit="10" x1="765.219" y1="332.526" x2="751.555" y2="329.021"/>
	<line fill="none" stroke="#D18932" stroke-miterlimit="10" x1="772.253" y1="319.697" x2="759.782" y2="319.261"/>
	<line fill="none" stroke="#D18932" stroke-miterlimit="10" x1="770.734" y1="322.418" x2="758.387" y2="321.25"/>
	<line fill="none" stroke="#D18932" stroke-miterlimit="10" x1="768.063" y1="327.292" x2="754.998" y2="324.25"/>
	<polyline fill="#A56234" points="335.229,548.901 113.142,751 113.142,800 276.333,800 335.229,708.344 	"/>
	<polyline fill="#A56234" points="113.142,751 58.667,800 113.142,800 	"/>
</g>
<g id="DESIGNED_BY_FREEPIK">
	<g>
		<defs>
			<rect id="SVGID_3_" x="489.679" y="565.921" width="486.686" height="234.079"/>
		</defs>
		<clipPath id="SVGID_4_">
			<use xlink:href="#SVGID_3_"  overflow="visible"/>
		</clipPath>
		<g clip-path="url(#SVGID_4_)">
			<g>
				<ellipse cx="629.893" cy="727.893" rx="3.418" ry="3.736"/>
				<ellipse cx="834.463" cy="727.893" rx="3.418" ry="3.736"/>
				<path fill="#849DB8" d="M890.282,838.383c0,17.954-30.793,118.75-41.445,119.755c-11.443,1.08-44.722,1.843-53.699,0.764
					c-0.436-3.403,1.099-3.924-0.141-7.345c-1.825-5.034-6.027-5.591-10.317-7.072c-7.232-2.496-14.61-1.582-22.419-2.03
					c-0.148-5.801,15.664-10.977,19.532-13.221c5.843-3.391,10.495-8.652,16.121-12.457c5.684-3.846,11.739-7.095,17.702-10.509
					c11.005-6.299,20.727-14.435,30.493-22.294C851.407,879.71,890.282,838.383,890.282,838.383z"/>
				<path opacity="0.07" d="M761.426,942.455c-0.145-5.801,15.667-10.977,19.532-13.221c5.843-3.391,10.495-8.652,16.121-12.457
					c5.684-3.846,11.739-7.095,17.702-10.509c11.005-6.299,20.727-14.435,30.493-22.294c5.301-4.263,44.175-45.591,44.175-45.591
					c0,5.228-2.617,17.484-6.579,32.248c-21.791,35.516-56.221,62.432-97.029,74.501c-0.658-0.206-1.325-0.415-1.996-0.647
					C776.615,941.989,769.235,942.902,761.426,942.455z"/>
				<path fill="#849DB8" d="M575.8,838.383c0,17.954,30.793,118.75,41.444,119.755c11.442,1.08,44.722,1.843,53.697,0.764
					c0.438-3.403-1.098-3.924,0.142-7.345c1.824-5.034,6.029-5.591,10.317-7.072c7.233-2.496,14.611-1.582,22.419-2.03
					c0.146-5.801-15.665-10.977-19.531-13.221c-5.843-3.391-10.495-8.652-16.122-12.457c-5.685-3.846-11.74-7.095-17.702-10.509
					c-11.005-6.299-20.727-14.435-30.494-22.294C614.672,879.71,575.8,838.383,575.8,838.383z"/>
				<path opacity="0.05" d="M703.819,942.455c0.146-5.801-15.665-10.977-19.531-13.221c-5.843-3.391-10.495-8.652-16.122-12.457
					c-5.685-3.846-11.74-7.095-17.702-10.509c-11.005-6.299-20.727-14.435-30.494-22.294c-5.298-4.263-44.17-45.591-44.17-45.591
					c0,5.228,2.613,17.484,6.577,32.248c21.79,35.516,56.221,62.432,97.028,74.501c0.658-0.206,1.326-0.415,1.996-0.647
					C688.634,941.989,696.011,942.902,703.819,942.455z"/>
				<g>
					<path fill="#A4BFE3" d="M888.745,704.27c23.628-28.765,34.298-65.554,39.244-100.534c2.305-16.31-0.745-20.034-18.21-17.979
						c-12.33,1.028-26.715,4.11-39.043,7.193c-17.466,5.135-73.973,29.794-68.834,48.286c4.11,21.575,61.764,58.345,82.311,62.455
						L888.745,704.27z"/>
				</g>
				<g>
					<path fill="#849DB8" d="M880.613,683.794c15.5-18.87,22.499-42.999,25.744-65.945c1.511-10.699-0.492-13.141-11.947-11.792
						c-8.088,0.675-17.522,2.695-25.608,4.716c-11.457,3.37-48.523,19.545-45.153,31.673c2.695,14.153,40.515,38.272,53.994,40.969
						L880.613,683.794z"/>
				</g>
				<g>
					<path fill="#A4BFE3" d="M578.097,704.27c-23.629-28.765-34.298-65.554-39.245-100.534c-2.305-16.31,0.746-20.034,18.211-17.979
						c12.328,1.028,26.715,4.11,39.043,7.193c17.466,5.135,73.973,29.794,68.834,48.286c-4.11,21.575-61.764,58.345-82.312,62.455
						L578.097,704.27z"/>
				</g>
				<g>
					<path fill="#849DB8" d="M586.228,683.794c-15.499-18.87-22.499-42.999-25.744-65.945c-1.51-10.699,0.493-13.141,11.948-11.792
						c8.088,0.675,17.522,2.695,25.608,4.716c11.457,3.37,48.523,19.545,45.152,31.673c-2.694,14.153-40.514,38.272-53.993,40.969
						L586.228,683.794z"/>
				</g>
				<circle fill="#A4BFE3" cx="732.858" cy="774.26" r="170.57"/>
				<ellipse opacity="0.1" cx="733.04" cy="820.461" rx="101.842" ry="104.131"/>
				<circle fill="#AECEED" cx="731.996" cy="800" r="98.719"/>
				<ellipse fill="#86A2C0" cx="689.064" cy="803.125" rx="11.426" ry="28.116"/>
				<path opacity="0.1" d="M689.064,824.68c-5.837,0-10.649-10.773-11.339-24.68c-0.055,1.127-0.088,2.272-0.088,3.436
					c0,15.529,5.116,28.116,11.426,28.116s11.426-12.587,11.426-28.116c0-1.164-0.032-2.309-0.088-3.436
					C699.713,813.907,694.901,824.68,689.064,824.68z"/>
				<ellipse fill="#86A2C0" cx="777.016" cy="803.125" rx="11.425" ry="28.116"/>
				<path opacity="0.1" d="M777.016,824.68c5.836,0,10.648-10.773,11.337-24.68c0.055,1.127,0.088,2.272,0.088,3.436
					c0,15.529-5.116,28.116-11.425,28.116c-6.309,0-11.425-12.587-11.425-28.116c0-1.164,0.03-2.309,0.088-3.436
					C766.367,813.907,771.18,824.68,777.016,824.68z"/>
				<circle fill="#2A2A2A" cx="629.061" cy="731.63" r="12.331"/>
				<circle fill="#FFFFFF" cx="635.873" cy="729.035" r="2.595"/>
				<circle fill="#2A2A2A" cx="834.461" cy="731.63" r="12.331"/>
				<circle fill="#FFFFFF" cx="841.273" cy="729.035" r="2.595"/>
				<path fill="#647586" d="M745.679,657.879V604.01c-4.232-0.314-8.508-0.478-12.82-0.478c-4.313,0-8.589,0.164-12.823,0.478
					v53.672L745.679,657.879z"/>
				<rect x="720.036" y="646.919" fill="#AECEED" width="25.643" height="10.96"/>
			</g>
		</g>
	</g>
	<g>
		<path fill="#D18932" d="M724.744,452.872c3.729-0.835,7.565-1.285,11.473-1.353c-3.911,0.102-7.78,0.549-11.509,1.384
			L724.744,452.872z"/>
		<path fill="#D18932" d="M742.503,451.673l-0.003,0.034l-0.034-0.003c-1.055-0.083-2.078-0.13-3.101-0.177
			C740.391,451.541,741.448,451.59,742.503,451.673z"/>
		<g>
			<circle fill="#EEC16A" cx="733.894" cy="512.529" r="54.512"/>
			<path fill="#E5A331" d="M729.061,573.674c-33.716-2.665-58.978-32.262-56.313-65.978s32.263-58.978,65.978-56.313
				c33.716,2.665,58.978,32.262,56.313,65.978C792.374,551.077,762.777,576.339,729.061,573.674z M737.65,464.991
				c-26.21-2.071-49.223,17.57-51.294,43.78c-2.071,26.211,17.57,49.223,43.78,51.294c26.211,2.072,49.223-17.57,51.294-43.78
				C783.502,490.075,763.861,467.063,737.65,464.991z"/>
		</g>
		<g>
			<g>
				<g>
					<path fill="#E5A331" d="M750.848,525.967c-0.646,8.167-6.229,14.411-14.367,16.497l-0.759,9.6l-14.323-1.132l0.689-8.716
						c-4.031-0.993-7.785-2.762-10.344-4.927l-2.645-2.233l6.216-13.86l4.618,3.646c2.456,1.911,5.848,3.222,9.078,3.478
						c2.407,0.19,5.314-0.5,5.516-3.06c0.082-1.036,0.234-2.956-6.022-6.057c-7.853-3.841-15.802-9.191-14.966-19.766
						c0.617-7.802,5.965-13.788,13.761-15.809l0.74-9.356l14.232,1.125l-0.667,8.442c3.034,0.792,5.759,2.019,8.201,3.715
						l3.168,2.213l-6.413,13.63l-4.453-3.02c-1.194-0.8-3.666-2.498-7.933-2.835c-1.524-0.12-4.171,0.008-4.342,2.171
						c-0.08,1.006-0.166,2.103,6.968,5.733C743.257,508.716,751.763,514.387,750.848,525.967z"/>
				</g>
			</g>
		</g>
		<path fill="#E5A331" d="M698.186,533.911c-5.497-10.434-5.993-22.54-1.436-33.404c0.477-1.137-1.247-1.982-1.725-0.841
			c-4.851,11.564-4.259,24.251,1.581,35.336C697.18,536.091,698.756,534.994,698.186,533.911z"/>
		<path fill="#E5A331" d="M715.691,473.865c-6.936,4.187-12.751,9.759-17.216,16.521c-0.672,1.018,0.776,2.281,1.455,1.251
			c4.38-6.633,10.043-12.083,16.851-16.193C717.839,474.806,716.747,473.227,715.691,473.865z"/>
		<path fill="#E5A331" d="M770.547,488.009c-0.615-1.071-2.193,0.024-1.58,1.091c7.024,12.226,7.983,26.901,2.628,39.942
			c-0.468,1.14,1.256,1.985,1.726,0.841C778.956,516.157,777.936,500.872,770.547,488.009z"/>
		<path fill="#E5A331" d="M767.755,535.132c-3.547,6.373-8.563,11.558-14.784,15.359c-1.054,0.644,0.038,2.223,1.091,1.58
			c6.497-3.97,11.717-9.447,15.418-16.097C770.082,534.891,768.353,534.056,767.755,535.132z"/>
		<path fill="#E5A331" d="M768.129,520.822c-0.488,4.748-2.028,9.165-4.601,13.186c-0.666,1.041,1.052,1.899,1.712,0.867
			c2.651-4.144,4.261-8.754,4.765-13.649C770.131,520.008,768.256,519.595,768.129,520.822z"/>
		<path fill="#D18932" d="M728.779,560.924c-0.172,3.882-0.345,7.764-0.518,11.645c-0.055,1.231,1.86,1.076,1.914-0.144
			c0.173-3.882,0.345-7.763,0.517-11.645C730.747,559.549,728.833,559.704,728.779,560.924z"/>
		<path fill="#D18932" d="M744.243,559.812c-0.162-1.219-2.077-1.083-1.914,0.145c0.517,3.882,1.035,7.763,1.552,11.645
			c0.162,1.219,2.077,1.083,1.914-0.145C745.278,567.575,744.76,563.694,744.243,559.812z"/>
		<path fill="#D18932" d="M761.001,566.822c-1.467-3.709-2.933-7.418-4.4-11.127c-0.453-1.145-2.263-0.505-1.807,0.648
			c1.467,3.709,2.933,7.418,4.4,11.127C759.646,568.615,761.457,567.975,761.001,566.822z"/>
		<path fill="#D18932" d="M772.266,559.242c-2.029-3.313-4.057-6.626-6.086-9.939c-0.605-0.988-2.08,0.037-1.475,1.024
			c2.029,3.313,4.057,6.626,6.086,9.939C771.396,561.255,772.871,560.23,772.266,559.242z"/>
		<path fill="#D18932" d="M781.302,549.653l-7.954-7.196c-0.777-0.703-1.826,0.547-1.049,1.25c2.651,2.399,5.303,4.798,7.954,7.196
			C781.03,551.607,782.079,550.356,781.302,549.653z"/>
		<path fill="#D18932" d="M789.145,535.955c-3.365-1.205-6.73-2.41-10.095-3.615c-1.153-0.413-2.003,1.309-0.841,1.726
			c3.365,1.205,6.73,2.41,10.095,3.615C789.456,538.093,790.306,536.371,789.145,535.955z"/>
		<path fill="#D18932" d="M793.027,519.878c-3.757,0.139-7.515,0.278-11.272,0.417c-1.076,0.04-0.948,1.954,0.126,1.914
			c3.757-0.139,7.515-0.278,11.272-0.417C794.229,521.752,794.101,519.838,793.027,519.878z"/>
		<path fill="#D18932" d="M793.526,505.154c-3.88,0.955-7.76,1.911-11.64,2.867c-1.197,0.295-0.543,2.1,0.648,1.807
			c3.88-0.955,7.76-1.911,11.64-2.866C795.37,506.667,794.717,504.861,793.526,505.154z"/>
		<path fill="#E5A331" d="M701.948,506.504c0.533-4.743,2.114-9.146,4.724-13.143c0.675-1.035-1.034-1.909-1.704-0.883
			c-2.69,4.12-4.343,8.714-4.892,13.604C699.939,507.299,701.81,507.73,701.948,506.504z"/>
		<path fill="#D18932" d="M743.084,464.379c0.447-3.86,0.893-7.72,1.34-11.579c0.142-1.224-1.779-1.205-1.919,0.009
			c-0.446,3.86-0.893,7.72-1.339,11.579C741.024,465.612,742.944,465.592,743.084,464.379z"/>
		<path fill="#D18932" d="M727.575,464.478c0.076,1.228,1.996,1.227,1.919-0.009c-0.242-3.909-0.483-7.817-0.725-11.726
			c-0.076-1.228-1.996-1.227-1.919,0.009C727.091,456.661,727.333,460.569,727.575,464.478z"/>
		<path fill="#D18932" d="M710.672,457.135c1.115,3.426,2.229,6.852,3.343,10.278c0.344,1.058,2.052,0.601,1.705-0.464
			c-1.114-3.426-2.229-6.852-3.343-10.278C712.033,455.613,710.326,456.07,710.672,457.135z"/>
		<path fill="#D18932" d="M698.793,463.118c1.754,3.505,3.507,7.01,5.26,10.515c0.523,1.045,2.045,0.107,1.522-0.938
			c-1.753-3.505-3.507-7.01-5.26-10.515C699.793,461.135,698.271,462.073,698.793,463.118z"/>
		<path fill="#D18932" d="M688.839,472.4l8.264,8.274c0.808,0.809,2.063-0.438,1.255-1.246c-2.755-2.758-5.509-5.516-8.264-8.274
			C689.287,470.345,688.032,471.592,688.839,472.4z"/>
		<path fill="#D18932" d="M680.081,485.401c3.272,1.44,6.543,2.88,9.815,4.32c1.121,0.493,2.091-1.165,0.961-1.662
			c-3.271-1.44-6.543-2.88-9.814-4.319C679.921,483.247,678.951,484.904,680.081,485.401z"/>
		<path fill="#D18932" d="M674.906,501.75c3.929,0.139,7.858,0.278,11.788,0.417c1.125,0.04,1.127-1.879,0.004-1.918
			c-3.929-0.139-7.858-0.278-11.787-0.417C673.785,499.792,673.783,501.71,674.906,501.75z"/>
		<path fill="#D18932" d="M673.93,516.75c3.938-0.679,7.876-1.358,11.814-2.036c1.214-0.209,0.69-2.057-0.519-1.848
			c-3.938,0.679-7.876,1.358-11.814,2.036C672.196,515.111,672.72,516.959,673.93,516.75z"/>
		<path fill="#D18932" d="M781.495,501.651c3.604-1.452,7.208-2.904,10.812-4.356c1.143-0.461,0.209-2.138-0.925-1.682
			c-3.604,1.452-7.208,2.904-10.812,4.356C779.427,500.43,780.362,502.108,781.495,501.651z"/>
		<path fill="#D18932" d="M787.089,483.728c-3.59,1.739-7.179,3.477-10.769,5.216c-1.108,0.537-0.335,2.294,0.781,1.754
			c3.59-1.739,7.179-3.477,10.769-5.216C788.978,484.945,788.205,483.188,787.089,483.728z"/>
		<path fill="#D18932" d="M779.616,472.832c-3.164,2.376-6.327,4.752-9.491,7.129c-0.944,0.709,0.2,2.179,1.143,1.471
			c3.164-2.376,6.327-4.752,9.491-7.129C781.702,473.595,780.558,472.124,779.616,472.832z"/>
		<path fill="#D18932" d="M769.946,464.223l-6.682,8.818c-0.653,0.862,0.697,1.858,1.349,0.996c2.227-2.939,4.455-5.879,6.683-8.818
			C771.949,464.357,770.599,463.362,769.946,464.223z"/>
		<path fill="#D18932" d="M756.126,456.793c-0.951,3.445-1.902,6.891-2.854,10.336c-0.326,1.18,1.455,1.9,1.783,0.71
			c0.951-3.445,1.902-6.891,2.853-10.336C758.235,456.323,756.454,455.604,756.126,456.793z"/>
		<path fill="#D18932" d="M685.562,523.022c-2.99,1.15-5.981,2.3-8.971,3.451c-1.15,0.442-0.509,2.252,0.648,1.807
			c2.99-1.15,5.981-2.3,8.971-3.45C687.361,524.387,686.72,522.577,685.562,523.022z"/>
		<path fill="#D18932" d="M690.001,534.708c-3.275,1.33-6.55,2.66-9.825,3.99c-1.14,0.463-0.501,2.274,0.648,1.807
			c3.275-1.33,6.55-2.66,9.825-3.99C691.789,536.052,691.15,534.241,690.001,534.708z"/>
		<path fill="#D18932" d="M694.011,542.365c-2.894,1.752-5.788,3.504-8.682,5.256c-1.057,0.64,0.035,2.219,1.091,1.58
			c2.894-1.752,5.788-3.504,8.682-5.256C696.158,543.305,695.066,541.727,694.011,542.365z"/>
		<path fill="#D18932" d="M701.134,549.076c-2.645,2.3-5.291,4.6-7.936,6.901c-0.922,0.801,0.157,2.391,1.091,1.58
			c2.645-2.3,5.291-4.6,7.936-6.901C703.146,549.855,702.068,548.264,701.134,549.076z"/>
		<path fill="#D18932" d="M708.126,556.119c-1.68,2.753-3.36,5.505-5.041,8.258c-0.645,1.056,1.087,1.887,1.726,0.841
			c1.68-2.753,3.36-5.505,5.041-8.258C710.496,555.904,708.764,555.073,708.126,556.119z"/>
		<path fill="#D18932" d="M719.737,560.457c-1.153,3.22-2.305,6.439-3.458,9.658c-0.413,1.153,1.309,2.003,1.725,0.841
			c1.153-3.219,2.306-6.439,3.458-9.658C721.876,560.145,720.154,559.295,719.737,560.457z"/>
	</g>
</g>
</svg>
