<?xml version="1.0" encoding="utf-8"?>
<!-- Generator: Adobe Illustrator 17.0.0, SVG Export Plug-In . SVG Version: 6.00 Build 0)  -->
<!DOCTYPE svg PUBLIC "-//W3C//DTD SVG 1.1//EN" "http://www.w3.org/Graphics/SVG/1.1/DTD/svg11.dtd">
<svg version="1.1" xmlns="http://www.w3.org/2000/svg" xmlns:xlink="http://www.w3.org/1999/xlink" x="0px" y="0px" width="500px"
	 height="500px" viewBox="0 0 500 500" enable-background="new 0 0 500 500" xml:space="preserve">
<g id="BACKGROUND">
	<radialGradient id="SVGID_1_" cx="777.2589" cy="248.5905" r="367.1905" gradientUnits="userSpaceOnUse">
		<stop  offset="0" style="stop-color:#65A7DD"/>
		<stop  offset="1" style="stop-color:#333C8B"/>
	</radialGradient>
	<rect x="522.896" fill="url(#SVGID_1_)" width="500" height="500"/>
</g>
<g id="OBJECTS">
	<g>
		<defs>
			<rect id="SVGID_2_" x="0" width="500" height="500"/>
		</defs>
		<clipPath id="SVGID_3_">
			<use xlink:href="#SVGID_2_"  overflow="visible"/>
		</clipPath>
		<g clip-path="url(#SVGID_3_)">
			<g>
				<path fill="#EAAD74" d="M284.355,336.59c0,0-25.745-4.338-29.091,0.579c0,0-16.215-17.971-24.306-13.235
					c0,0,0.107-33.199-11.753-37.168c-11.86-3.97-14.772,6.222-15.703,12.68c-0.931,6.458,7.193,46.808,11.671,49.714
					c4.479,2.906,54.265,39.088,68.376,35.283C297.659,380.637,284.355,336.59,284.355,336.59z"/>
				<path opacity="0.39" fill="#CF905E" d="M270.316,338.4c-5.76,2.5-11.035,8.557-16.861,11.062
					c-4.201-4.296-6.871-9.667-12.314-13.212c-5.12-3.334-10.903-5.113-16.853-6.12c3.354-15.784,3.816-29.971-4.637-43.176
					c11.402,4.655,11.307,36.98,11.307,36.98c8.091-4.736,24.306,13.235,24.306,13.235c2.443-3.591,16.822-2.247,24.406-1.26
					C276.488,336.298,273.354,337.082,270.316,338.4z"/>
				<path opacity="0.35" fill="#FFFFFF" d="M204.27,308.928c0,0,4.973,3.071,5.803-2.036c0.83-5.107,1.04-14.73,1.04-14.73
					s-2.095-2.782-4.436-1.785C206.677,290.376,202.011,296.5,204.27,308.928z"/>
				<path opacity="0.35" fill="#FFFFFF" d="M206.413,303.521c1.601,0.665,2.863,1.801,3.689,3.17
					c-0.01,0.065-0.019,0.137-0.03,0.201c-0.83,5.107-5.803,2.036-5.803,2.036c-0.398-2.19-0.572-4.172-0.604-5.972
					C204.607,302.998,205.533,303.156,206.413,303.521z"/>
				<path fill="#CF905E" d="M253.455,349.463l1.809-12.294c0,0,0.818-4.152,23.094-1.444
					C278.358,335.725,255.238,335.746,253.455,349.463z"/>
				<path fill="#CF905E" d="M224.623,329.881l6.335-5.947c0,0-0.277-11.036-1.32-16.436
					C229.638,307.498,230.805,323.473,224.623,329.881z"/>
				<path fill="#CF905E" d="M279.167,374.33c0,0,11.381,0.322,10.405,7.527C289.572,381.857,292.613,374.259,279.167,374.33z"/>
				<path fill="#CF905E" d="M277.188,375.427c0,0-5.673,3.201-5.895,5.178C271.293,380.604,270.682,377.44,277.188,375.427z"/>
			</g>
			<path fill="#718467" d="M419.532,259.304c0,0-15.416,49.753,24.115,93.909C443.647,353.213,456.716,294.04,419.532,259.304z"/>
			<path fill="#EAAD74" d="M337.222,352.357c0,0,31.577,13.153,125.241-12.331l-13.569-80.302c0,0-71.701,34.593-94.538,31.388
				C354.356,291.111,362.193,336.775,337.222,352.357z"/>
			<path opacity="0.39" fill="#CF905E" d="M446.797,316.507c-15.225-9.717-33.592-14.87-51.59-15.43
				c-10.479-0.326-21.083,0.747-31.206,3.506c-2.831,0.772-5.692,1.641-8.485,2.67c0.009-9.29-1.16-16.142-1.16-16.142
				c22.837,3.205,94.538-31.388,94.538-31.388l11.492,68.009C456.504,323.595,451.986,319.819,446.797,316.507z"/>
			<path fill="#AECF9F" d="M419.532,259.304c0,0,25.485,43.171,24.115,93.909l96.18-17.343l52.138-139.23L419.532,259.304z"/>
			
				<rect x="128.745" y="278.704" transform="matrix(-0.98 0.1992 -0.1992 -0.98 477.7142 578.8577)" fill="#065F0F" width="162" height="69.5"/>
			
				<rect x="135.5" y="283.717" transform="matrix(-0.98 0.1992 -0.1992 -0.98 477.0501 577.5448)" fill="#AECF9F" width="147.958" height="58.095"/>
			<polyline fill="#AECF9F" points="203.406,284.357 276.191,269.565 287.761,326.497 213.069,341.676 			"/>
			<polygon fill="#718467" points="525.529,277.465 452.029,294.965 453.529,301.298 528.529,285.965 			"/>
			<circle fill="#718467" cx="472.195" cy="274.798" r="8"/>
			<circle fill="#065F0F" cx="210.195" cy="312.506" r="25"/>
			<g>
				<path fill="#AECF9F" d="M205.829,295.848l-0.492-2.515l4.354-0.853l0.492,2.515c3.925,0.035,6.428,2.56,7.328,7.155l0.208,1.064
					l-5.031,0.985l-0.275-1.403c-0.474-2.419-1.621-3.149-3.314-2.817c-1.693,0.332-2.481,1.44-2.007,3.859
					c1.364,6.966,11.831,5.269,13.726,14.944c0.9,4.596-0.506,7.935-4.128,9.448l0.483,2.467l-4.354,0.852l-0.483-2.467
					c-3.973-0.026-6.486-2.598-7.386-7.194l-0.455-2.322l5.031-0.985l0.521,2.661c0.474,2.419,1.708,3.081,3.402,2.749
					c1.693-0.332,2.587-1.41,2.113-3.829c-1.364-6.966-11.831-5.269-13.726-14.944C200.946,300.672,202.265,297.4,205.829,295.848z"
					/>
			</g>
			<g>
				<path fill="#EAAD74" d="M282.97,319.187c0,0-0.512-12.129-36.892-15.865c-36.38-3.736-32.795-24.693-29.096-30.752
					s91.078,12.373,101.889,11.859c10.811-0.514,104.928,6.458,70.574,69.693c0,0-106.915,34.366-109.151,30.276
					c-2.236-4.089-3.016-46.63-3.016-46.63S284.809,324.726,282.97,319.187z"/>
				<path opacity="0.35" fill="#FFFFFF" d="M219.501,286.388c0.902,1.461,2.331,2.517,3.977,3.004
					c4.048,1.199,11.778,2.679,14.533-2.38c3.802-6.981,2.338-12.43,0.424-12.919c-1.503-0.384-11.355-1.232-15.513-1.579
					c-1.707-0.142-3.441,0.438-4.575,1.721C216.643,276.163,215.456,279.836,219.501,286.388z"/>
				<path opacity="0.35" fill="#FFFFFF" d="M235.317,289.592c-3.286-3.152-3.581-7.806-2.598-12.59
					c0.24-1.169,0.523-2.375,0.925-3.518c2.316,0.236,4.202,0.458,4.792,0.609c1.913,0.489,3.377,5.939-0.424,12.919
					C237.357,288.213,236.417,289.036,235.317,289.592z"/>
				<path opacity="0.39" fill="#CF905E" d="M274.61,310.542c0,0,7.279,3.404,8.36,8.645c0,0,6.621,3.073,12.296-2.325
					c0,0-8.343,4.307-10.809-1.134C281.992,310.287,274.61,310.542,274.61,310.542z"/>
				<path fill="#CF905E" d="M277.261,280.817c0,0,0.779,9.405-4.019,16.561C273.242,297.379,280.061,290.576,277.261,280.817z"/>
				<path fill="#CF905E" d="M275.151,281.518c0,0-4.314,6.41-3.973,14.936C271.178,296.454,268.115,285.904,275.151,281.518z"/>
			</g>
		</g>
		<g clip-path="url(#SVGID_3_)">
			<g>
				<path fill="#B36E38" d="M218.31,159.004c0,0,25.014,7.477,28.941,3.01c0,0,13.877,19.832,22.49,16.129
					c0,0-4.197,32.933,7.083,38.333c11.28,5.4,15.427-4.354,17.146-10.648c1.72-6.295-1.37-47.338-5.457-50.773
					c-4.086-3.436-49.035-45.477-63.507-43.439C210.534,113.653,218.31,159.004,218.31,159.004z"/>
				<path opacity="0.63" fill="#81471C" d="M232.464,158.937c6.024-1.771,12.006-7.132,18.096-8.9
					c3.64,4.781,5.627,10.44,10.592,14.628c4.67,3.94,10.19,6.418,15.97,8.15c-5.273,15.251-7.48,29.272-0.718,43.418
					c-10.742-6.024-6.664-38.091-6.664-38.091c-8.613,3.703-22.49-16.129-22.49-16.129c-2.867,3.262-16.97,0.157-24.376-1.757
					C226.08,160.263,229.287,159.872,232.464,158.937z"/>
				<path opacity="0.35" fill="#FFFFFF" d="M294.376,196.323c0,0-4.556-3.66-6.01,1.306c-1.453,4.966-2.847,14.49-2.847,14.49
					s1.736,3.019,4.182,2.318C289.701,214.438,295.086,208.935,294.376,196.323z"/>
				<path opacity="0.35" fill="#FFFFFF" d="M291.582,201.424c-1.507-0.857-2.62-2.14-3.27-3.6c0.018-0.063,0.036-0.133,0.054-0.195
					c1.453-4.966,6.01-1.306,6.01-1.306c0.125,2.222,0.054,4.211-0.137,6C293.311,202.167,292.411,201.895,291.582,201.424z"/>
				<path opacity="0.63" fill="#81471C" d="M250.56,150.037l-3.31,11.977c0,0-1.324,4.019-23.096-1.413
					C224.155,160.601,247.101,163.429,250.56,150.037z"/>
				<path opacity="0.63" fill="#81471C" d="M276.76,173.022l-7.02,5.121c0,0-1.085,10.986-0.715,16.474
					C269.025,194.617,269.836,178.62,276.76,173.022z"/>
				<path fill="#CF905E" d="M228.108,122.19c0,0-11.254-1.721-9.398-8.752C218.71,113.439,214.756,120.604,228.108,122.19z"/>
				<path opacity="0.63" fill="#81471C" d="M230.207,121.346c0,0,6.024-2.477,6.488-4.412
					C236.695,116.934,236.912,120.15,230.207,121.346z"/>
			</g>
			<path fill="#2F5A77" d="M74.639,219.045c0,0,21.429-47.474-12.36-96.165C62.279,122.88,42.019,179.992,74.639,219.045z"/>
			<path fill="#B36E38" d="M167.788,136.843c0,0-29.716-16.943-125.806-3.195l3.571,81.363c0,0,75.417-25.494,97.685-19.5
				C143.238,195.511,141.087,149.229,167.788,136.843z"/>
			<path opacity="0.63" fill="#81471C" d="M54.631,158.919c13.912,11.519,31.504,18.896,49.295,21.669
				c10.36,1.615,21.014,1.857,31.401,0.366c2.904-0.417,5.851-0.927,8.749-1.604c-1.153,9.218-0.838,16.162-0.838,16.162
				c-22.268-5.994-97.685,19.5-97.685,19.5l-3.024-68.907C45.871,150.688,49.889,154.992,54.631,158.919z"/>
			<path fill="#4682B4" d="M74.639,219.045c0,0-19.972-45.982-12.36-96.165l-97.584,5.359l-68.896,131.745L74.639,219.045z"/>
			
				<rect x="208.501" y="156.407" transform="matrix(0.997 -0.0769 0.0769 0.997 -13.8408 22.8253)" fill="#065F0F" width="162" height="69.5"/>
			
				<rect x="216.662" y="161.416" transform="matrix(0.997 -0.0769 0.0769 0.997 -13.8634 22.7911)" fill="#AECF9F" width="144.772" height="60.036"/>
			<circle fill="#065F0F" cx="288.945" cy="191.631" r="28.583"/>
			
				<rect x="216.662" y="161.416" transform="matrix(0.997 -0.0769 0.0769 0.997 -13.8635 22.7913)" fill="none" stroke="#57805C" stroke-miterlimit="10" width="144.772" height="60.036"/>
			<g>
				<path fill="#B36E38" d="M217.539,176.445c0,0-0.986,12.1,34.656,20.29c35.643,8.191,29.502,28.545,25.085,34.103
					c-4.417,5.558-88.86-23.501-99.651-24.323c-10.792-0.822-103.332-19.337-61.449-77.858c0,0,110.334-20.93,112.049-16.596
					c1.715,4.334-2.753,46.646-2.753,46.646S216.397,170.722,217.539,176.445z"/>
				<path opacity="0.35" fill="#FFFFFF" d="M276.484,216.815c-0.715-1.561-2.003-2.785-3.577-3.471
					c-3.869-1.688-11.358-4.11-14.716,0.571c-4.633,6.459-3.852,12.048-2.013,12.769c1.444,0.566,11.117,2.622,15.2,3.478
					c1.676,0.351,3.468-0.011,4.752-1.144C278.06,227.314,279.69,223.815,276.484,216.815z"/>
				<path opacity="0.35" fill="#FFFFFF" d="M261.183,211.686c2.873,3.533,2.592,8.188,1.027,12.814
					c-0.382,1.131-0.811,2.292-1.351,3.377c-2.269-0.519-4.113-0.972-4.68-1.195c-1.839-0.721-2.62-6.309,2.013-12.768
					C258.988,212.803,260.023,212.102,261.183,211.686z"/>
				<path opacity="0.63" fill="#81471C" d="M224.771,186.055c0,0-6.804-4.274-7.231-9.609c0,0-6.191-3.866-12.489,0.792
					c0,0,8.811-3.246,10.587,2.457C217.413,185.398,224.771,186.055,224.771,186.055z"/>
				<path opacity="0.63" fill="#81471C" d="M218.477,215.226c0,0,0.385-9.429,6.029-15.94
					C224.507,199.286,216.901,205.196,218.477,215.226z"/>
				<path opacity="0.63" fill="#81471C" d="M220.658,214.79c0,0,5.071-5.83,5.783-14.332
					C226.441,200.458,228.181,211.305,220.658,214.79z"/>
			</g>
			<g>
				<path fill="#AECF9F" d="M285.335,174.466l-0.202-2.555l4.423-0.349l0.202,2.555c3.895,0.484,6.093,3.278,6.461,7.947
					l0.085,1.081l-5.111,0.403l-0.112-1.425c-0.194-2.457-1.25-3.314-2.97-3.178c-1.72,0.136-2.629,1.147-2.435,3.604
					c0.558,7.077,11.151,6.588,11.926,16.416c0.368,4.669-1.41,7.825-5.182,8.914l0.198,2.506l-4.423,0.349l-0.198-2.506
					c-3.944-0.48-6.146-3.323-6.515-7.991l-0.186-2.359l5.111-0.403l0.213,2.703c0.194,2.457,1.345,3.256,3.065,3.12
					c1.72-0.136,2.731-1.105,2.537-3.562c-0.558-7.077-11.151-6.588-11.926-16.416C279.932,178.7,281.616,175.6,285.335,174.466z"/>
			</g>
		</g>
	</g>
</g>
<g id="DESIGNED_BY_FREEPIK">
</g>
</svg>
