<?xml version="1.0" encoding="utf-8"?>
<!-- Generator: Adobe Illustrator 17.0.0, SVG Export Plug-In . SVG Version: 6.00 Build 0)  -->
<!DOCTYPE svg PUBLIC "-//W3C//DTD SVG 1.1//EN" "http://www.w3.org/Graphics/SVG/1.1/DTD/svg11.dtd">
<svg version="1.1" xmlns="http://www.w3.org/2000/svg" xmlns:xlink="http://www.w3.org/1999/xlink" x="0px" y="0px"
	 width="422.214px" height="338.887px" viewBox="0 0 422.214 338.887" enable-background="new 0 0 422.214 338.887"
	 xml:space="preserve">
<g id="Background">
</g>
<g id="Objects">
	<path fill="#93C5FD" d="M121.057,160.457c-2.003-4.894-6.807-8.345-12.422-8.345c-4.058,0-7.688,1.809-10.149,4.655
		c-3.377-7.682-11.043-13.052-19.972-13.052c-3.152,0-6.14,0.682-8.846,1.885c-4.532-7.222-12.544-12.039-21.699-12.039
		c-13.299,0-24.227,10.131-25.498,23.096c-2.459-2.782-6.044-4.545-10.049-4.545c-5.615,0-10.419,3.451-12.422,8.345H121.057z"/>
	<path fill="#93C5FD" d="M390.178,119.139c-4.059,0-7.688,1.809-10.149,4.655c-3.377-7.681-11.043-13.052-19.972-13.052
		c-3.152,0-6.14,0.682-8.846,1.885c-4.532-7.222-12.544-12.039-21.699-12.039c-13.298,0-24.227,10.131-25.497,23.096
		c-2.459-2.782-6.044-4.545-10.049-4.545c-5.615,0-10.419,3.451-12.422,8.345H402.6C400.597,122.59,395.793,119.139,390.178,119.139
		z"/>
	<g>
		<path fill="#152A3B" d="M143.581,37.862c0,0-4.337-5.935,0.697-16.945c5.034-11.01,5.737-15.484,19.037-14.454
			c4.109,0.318,6.427,3.251,3.588,8.662c-2,3.813,1.312,9.852,1.437,13.125c0.345,8.989-5.534,10.266-9.43,9.56
			C146.091,35.489,143.581,37.862,143.581,37.862z"/>
		<path fill="#70A79D" d="M161.412,29.069c0,0,8.74,6.669,17.278,8.028c12.698,2.022,15.535,1.717,18.692,0.673
			c3.157-1.043,4.463,0.643,4.042,2.479c-0.421,1.835,0.559,9.386-15.402,10.903c-15.961,1.517-28.694-3.396-28.01-10.052
			C158.695,34.444,161.412,29.069,161.412,29.069z"/>
		<path fill="#70A79D" d="M141.701,30.386c0,0-8.677,17.699-8.677,28.197c0,10.813,12.247,16.219,12.247,16.219
			s5.966-29.459,5.135-34.093C149.575,36.074,141.701,30.386,141.701,30.386z"/>
		<path fill="#70A79D" d="M171.173,60.812c-14.955,1.748-26.478-1.269-26.478-1.269s-7.332-25.495-2.996-29.156
			c2.291-1.933,6.157-2.628,10.44-2.608l0.112,0.007c0.834,0,1.688,0.033,2.542,0.093h0.026c1.576,0.106,3.171,0.285,4.733,0.523
			c0.179,0.026,0.351,0.053,0.53,0.079c2.86,0.45,8.32,8.394,8.32,8.394s1.12-2.657,0.375,1.313
			C164.55,60.724,186.121,59.058,171.173,60.812z"/>
		<path fill="#FFC09C" d="M158.815,24.572c0,0-1.076,2.398,0,3.723c1.076,1.325-0.015,4.067-2.45,3.973
			c-2.435-0.094-5.163-1.984-5.246-3.847c-0.083-1.863,2.151-6.083,2.151-6.083L158.815,24.572z"/>
		<path fill="#FFD8BC" d="M151.911,11.176c0,0-2.665,6.709,1.759,12.222c2.08,2.593,4.525,2.337,7.498-1.054
			c0.83-0.947,1.594-2.177,2.07-4.192c0.363-1.537,0.532-2.764,0.61-3.623c0.173-1.919,0.294-2.897-0.608-4.316
			C161.473,7.435,154.531,5.166,151.911,11.176z"/>
		<path fill="#152A3B" d="M164.308,9.128c0,0,0.167-4.265-7.007-4.975c-3.808-0.377-6.854,0.717-11.488,7.614
			c-0.699,1.04-4.537,4.01-4.537,4.01s-8.094,4.123-5.755,10.083c2.417,6.157-3.429,6.184-3.572,10.312
			c-0.199,5.781,12.326,9.7,17.007-6.276c0,0,0,0,0,0c0-0.001,0.001-0.001,0.001-0.002c0-0.001,0.001-0.001,0.001-0.002
			C157.267,1.328,164.308,9.128,164.308,9.128z"/>
		<path fill="#152A3B" d="M162.926,7.381c0,0,0.536,5.094-4.162,6.4c0,0-1.985,0.214-2.224,1.554
			c-0.239,1.34,0.418,3.677-1.215,6.425c-1.634,2.748-2.576,1.276-4.386,6.488c-1.436,4.132-4.715-0.249-1.247-6.567
			S155.138,5.722,162.926,7.381z"/>
	</g>
	<ellipse fill="#EDEBFF" cx="220.213" cy="329.761" rx="202" ry="9.126"/>
	<path fill="#93C5FD" d="M18.213,329.761h404c0,0-3.375-23.134-24.375-22.134s-11.421-24.706-37.875-49.125
		c-19.5-18-61.267-18.338-85.449,5.295c-24.182,23.632-137.405-7.045-170.353,10.955s-19.948,35-43.948,32
		S20.213,317.771,18.213,329.761z"/>
	<g>
		<g>
			<path fill="#202F5A" d="M308.701,327.759V63.104c0-1.106-0.897-2.002-2.002-2.002H111.547c-1.106,0-2.002,0.896-2.002,2.002
				v264.655c0,1.106,0.896,2.002,2.002,2.002h195.151C307.804,329.761,308.701,328.865,308.701,327.759z"/>
			<rect x="121.737" y="73.294" fill="#131E3A" width="177.09" height="246.594"/>
			<rect x="121.737" y="73.294" fill="#FFFFFF" width="174.772" height="244.276"/>
			<rect x="146.995" y="141.873" fill="#728EAD" width="103.338" height="17.305"/>
			<rect x="146.995" y="184.623" fill="#728EAD" width="103.338" height="17.305"/>
			<rect x="265.805" y="184.623" fill="#728EAD" width="17.419" height="17.419"/>
			<rect x="146.995" y="227.373" fill="#728EAD" width="103.338" height="17.305"/>
			<rect x="265.805" y="227.373" fill="#728EAD" width="17.419" height="17.419"/>
			<rect x="146.995" y="270.124" fill="#728EAD" width="103.338" height="17.305"/>
			<rect x="265.805" y="270.124" fill="#728EAD" width="17.419" height="17.419"/>
		</g>
		<g>
			<path fill="#202F5A" d="M244.973,60.812l-0.33-1.67l-0.16-0.79l-0.52-2.63l-2.33-11.74c-0.58-2.93-2.14-4.9-3.89-4.9h-56.42
				c-1.75,0-3.31,1.97-3.9,4.9l-2.33,11.74l-0.52,2.63l-0.16,0.79l-0.33,1.67l-0.85,4.29h72.6L244.973,60.812z M209.523,52.672
				c-1.74,0-3.16-1.41-3.16-3.16s1.42-3.17,3.16-3.17c1.75,0,3.17,1.42,3.17,3.17S211.273,52.672,209.523,52.672z"/>
			<polygon fill="#0F1B3A" points="244.973,60.812 174.083,60.812 174.413,59.142 174.574,58.352 244.483,58.352 244.643,59.142 			
				"/>
		</g>
	</g>
	
		<rect x="147.983" y="97.396" transform="matrix(0.9873 -0.159 0.159 0.9873 -14.3184 33.0838)" fill="#728EAD" width="103.337" height="17.305"/>
	<g>
		<path fill="#366C91" d="M180.081,57.984h-37.337c-0.857,0-1.559,0.702-1.559,1.559l0,0c0,0.857,0.702,1.559,1.559,1.559h37.337
			c0.858,0,1.559-0.702,1.559-1.559l0,0C181.64,58.685,180.938,57.984,180.081,57.984z"/>
		<g>
			<g>
				<path fill="#4682B4" d="M222.599,30.555h-43.957c-1.451,0-2.775,0.826-3.414,2.129l-13.932,28.418h49.219l13.703-27.951
					C224.804,31.953,223.932,30.555,222.599,30.555z"/>
			</g>
			
				<ellipse transform="matrix(0.8994 0.4371 -0.4371 0.8994 39.8826 -80.4699)" fill="#366C91" cx="194.761" cy="46.409" rx="1.865" ry="2.097"/>
		</g>
	</g>
	<g>
		<path fill="#002043" d="M112.03,55.479L112.03,55.479c-1.833,0-3.333,1.5-3.333,3.333L60.528,330.045
			c0,1.833,1.5,3.333,3.333,3.333l0,0c1.833,0,3.333-1.5,3.333-3.333l48.168-271.233C115.363,56.979,113.863,55.479,112.03,55.479z"
			/>
		<path fill="#002043" d="M164.521,55.479L164.521,55.479c-1.833,0-3.333,1.5-3.333,3.333L113.02,330.045
			c0,1.833,1.5,3.333,3.333,3.333l0,0c1.833,0,3.333-1.5,3.333-3.333l48.168-271.233C167.855,56.979,166.355,55.479,164.521,55.479z
			"/>
		<rect x="71.028" y="276.097" fill="#002043" width="54.65" height="7.272"/>
		<rect x="82.345" y="217.605" fill="#002043" width="54.65" height="7.272"/>
		<rect x="93.662" y="159.113" fill="#002043" width="54.65" height="7.272"/>
		<rect x="104.979" y="100.62" fill="#002043" width="54.65" height="7.272"/>
	</g>
	<path fill="#E0E0E0" d="M142.436,108.006"/>
	<g>
		<g>
			<path fill="#FFD8BC" d="M367.036,242.104c0,0,0.812,3.215,0.71,3.959c-0.101,0.743-2.334,5.513-2.334,5.513
				s-4.195-1.488-4.567-3.45c-0.372-1.962,4.059-6.021,4.059-6.021H367.036z"/>
			
				<rect x="316.27" y="282.427" transform="matrix(0.165 -0.9863 0.9863 0.165 13.6388 595.012)" fill="#002043" width="83.896" height="14.049"/>
			<path fill="#FFD8BC" d="M364.296,242.946c0,0,0.812,2.438-0.677,3.25c-1.488,0.812-1.827,1.083-1.827,1.083
				s-0.609,2.436-1.218,2.368c-0.609-0.068-0.474-3.383,0-3.856s2.774-4.059,2.774-4.059L364.296,242.946z"/>
			<path fill="#083326" d="M334.67,195.431c1.761-1.713,3.861-5.172,6.286-4.776c2.671,0.436,11.351,3.881,18.941,12.904
				c10.197,12.121,10.94,38.529,7.432,39.783c-0.824,0.294-3.297,0.282-4.426-0.286c-0.564-0.284-0.92-0.854-0.944-1.485
				c-0.166-4.382-2.542-21.318-6.181-24.979C337.073,197.777,324.497,205.325,334.67,195.431z"/>
		</g>
		<g>
			
				<rect x="282.512" y="133.666" transform="matrix(0.948 -0.3182 0.3182 0.948 -30.1655 100.0532)" fill="#728EAD" width="17.419" height="17.419"/>
			<g>
				<path fill="#0F1D29" d="M342.197,254.282c-1.529,25.741-7.012,73.929-7.012,73.929c-0.059,0.028-0.11,0.043-0.169,0.059
					c-3.4,1.19-3.744,0.035-4.877,0.16c-0.548,0.059-5.801-56.745-4.044-90.993l16.847,3.92
					C344.403,251.06,342.767,250.462,342.197,254.282z"/>
				<path fill="#152A3B" d="M350.921,256.228c-0.123,20.055,16.869,56.721,18.919,64.43c0.61,2.087-2.222,4.119-3.271,4.635
					c-0.508,0.248-30.154-41.147-35.553-85.285l18.354,1.97C352.691,248.517,351.309,252.777,350.921,256.228z"/>
				<path fill="#FFCEAB" d="M346.708,192.717c0,0-2.355-4.308-2.163-7.911c0.192-3.603-0.011-5.713-0.011-5.713l-6.915,3.742
					l-0.184,9.019L346.708,192.717z"/>
				<path fill="#E0E0E0" d="M339.538,176.129"/>
				<path fill="#0D4B39" d="M327.144,201.064c-2.684,9.305-4.623,34.439-1.589,38.704c3.034,4.265,18.878,4.255,22.923,2.346
					c3.688-1.741-0.863-6.99,1.751-31.264c0.139-1.292-0.049-2.573-0.049-3.806C350.181,188.975,332.348,183.026,327.144,201.064z"
					/>
				<path fill="#FFD8BC" d="M339.737,166.843c0,0-1.756,0.441-2.697,3.199c-1.469,4.303-1.412,3.262-3.54,7.608
					c-0.441,0.9-1.043,5.403-0.456,7.272c0.369,1.176,3.137,2.043,3.137,2.043c0.966,0.248,4.066,0.601,8.434-3.055
					c1.662-1.391,7.78-10.773,7.473-11.58C351.781,171.524,343.908,163.619,339.737,166.843z"/>
				<path fill="#152A3B" d="M348.955,176.157c0,0-2.891-0.393-4.086-1.323c-1.195-0.93-7.52-4.898-8.19-7.391
					c-0.67-2.493,0.993-4.177,0.993-4.177s1.299,1.136,3.122,1.587c2.465,0.609,13.035,2.149,12.773,8.527
					C353.567,173.379,350.371,176.427,348.955,176.157z"/>
				<path fill="#152A3B" d="M343.394,172.976c0,0-0.392-0.379,0.056,0.773c0,0-0.62,4.027-0.778,4.909
					c-0.124,0.691,0.371,1.243,0.371,1.243s0.17-1.512,1.533-2.265c0.247-0.137,0.696-0.133,0.949-0.006
					c0.411,0.207,0.931,0.63,0.812,1.423c-0.086,0.575-0.548,1.15-1.082,1.592c-0.894,0.739-1.209,1.967-0.743,3.03l0.104,0.237
					c0,0,7.349-6.073,8.692-9.527c1.343-3.454-2.559-3.966-2.559-3.966L343.394,172.976z"/>
				<path fill="#0D4B39" d="M346.708,192.717c0,0,3.251,5.243,3.473,14.326c0,0-17.352-15.617-14.948-17.946
					C335.233,189.098,342.69,190.654,346.708,192.717z"/>
				<path fill="#0F1D29" d="M321.467,333.123c0,0-0.645-0.146,3.961-1.479c3.198-0.926,4.2-1.948,4.526-3.432h5.112
					c0,0,0.786,5.037,0,5.037C334.281,333.248,321.384,333.561,321.467,333.123z"/>
				<path fill="#0F1D29" d="M363.805,335.149c0,0-0.675,0.522,0.997-4.102c1.161-3.21,1.47-6.206,0.436-7.372l4.516-3.327
					c0,0,2.213,4.781,1.739,5.433C371.018,326.432,364.118,335.483,363.805,335.149z"/>
				<path fill="#FFD8BC" d="M297.776,154.043c0,0-5.252-4.251-4.919-5.251c0.333-1,2.708-5.917,3.125-6.083
					c0.417-0.167,2.917-0.042,3.167,0.375c0.25,0.417,4.333,4.389,4.292,5.257c-0.042,0.868-1.277,5.491-1.277,5.491
					L297.776,154.043z"/>
				<path fill="#0D4B39" d="M334.861,201.816c-1.609,1.856-4.62,1.512-6.917,0.638c-3.54-1.347-10.921-5.229-21.093-13.716
					c-8.833-7.37-12.032-32.429-9.076-34.695c1.122-0.86,3.215-0.682,4.388-0.212c0.586,0.235,0.989,0.773,1.067,1.4
					c0.538,4.352,5.836,18.046,8.208,21.123c3.533,4.584,12.794,9.379,23.183,12.543C341.735,191.064,339.6,196.35,334.861,201.816z
					"/>
			</g>
		</g>
	</g>
	<g>
		<path fill="#6B4E3A" d="M212.716,116.625c0,0-0.075-3.891,0.5-4.438c0.929-0.883,2.895-2.931,3.111-2.895
			c0.216,0.036,0.54,0.541,0.468,0.901c-0.072,0.36-0.653,1.991-0.653,1.991l6.044-0.973c0,0-0.947,2.727-1.988,3.79
			c-0.304,0.31-4.169,3.781-4.169,3.781L212.716,116.625z"/>
		<g>
			<path fill="#6B4E3A" d="M130.167,100.131c0,0,2.183-3.131,4.433-3.256s6.625,1.131,7.125,1.628c0.5,0.497,0.75,2.117,0.75,2.117
				h-6.154L130.167,100.131z"/>
			<g>
				<path fill="#B27928" d="M143.933,140.083c0,0-17.167-12.482-19.487-21.5c-1.98-7.695,3.538-18.942,5.721-18.452
					c2.183,0.489,4.808,4.125,4.808,4.125s-1.708,4.244-0.885,7.646c1.979,8.178,18.697,14.386,18.697,14.386L155.35,130"/>
				<path fill="#6F7A9B" d="M154.201,178.616c0,0,2.709,2.758-10.602,19.455l0,0c-14.077,26.33-19.621,72.958-19.621,72.958h-5.112
					c0,0-1.517-72.958,15.732-98.029L154.201,178.616z"/>
				<path fill="#848FAD" d="M152.528,170.375c0,0-38.345-9.042-49.512-5.042c-6.946,2.488,1.467,48.417,1.467,48.417h4.691
					c0,0,3.592-25.833,2.592-33c-0.352-2.519,11.413,8.415,26.9,8.275c7.826-0.071,10.933-12.887,10.933-12.887L152.528,170.375z"/>
				<path fill="#111111" d="M95.786,217.48c0,0-0.645-0.146,3.961-1.48c3.197-0.926,4.2-1.948,4.526-3.432h5.112
					c0,0,0.786,5.037,0,5.037C108.6,217.605,95.703,217.918,95.786,217.48z"/>
				<path fill="#111111" d="M110.39,275.941c0,0-0.645-0.146,3.961-1.479c3.198-0.926,4.2-1.948,4.526-3.432h5.112
					c0,0,0.786,5.037,0,5.037C123.204,276.066,110.307,276.379,110.39,275.941z"/>
				<path fill="#6B4E3A" d="M138.387,99.926c0,0,0.11,0.501,0.402,0.597c0.292,0.096,4.076,0.88,4.164,1.123
					c0.087,0.243,0.258,1.325-0.084,1.359c-0.342,0.034-5.674,1.365-5.97,1.231c-0.296-0.134-1.679,0.168-1.679,0.168l-5.195-3.626
					C130.025,100.777,136.937,98.585,138.387,99.926z"/>
				<g>
					<path fill="#B27928" d="M160.666,141.664c0.492,2.407,3.968,8.699,6.398,9.064c3.745,0.564,16.735-1.535,27.143-6.125
						c10.526-4.642,23.679-22.942,22.216-26.367c-0.555-1.3-2.466-2.172-3.719-2.338c-0.626-0.083-0.705,0.219-1.08,0.727
						c-2.604,3.529-14.476,12.829-18.053,14.347c-5.328,2.261-15.314,2.689-25.919,0.349
						C160.388,129.718,159.218,134.576,160.666,141.664z"/>
					<path fill="#6B4E3A" d="M176.055,110.428c0,0,1.313,1.246,0.78,4.11c-0.832,4.47-0.371,3.535-0.649,8.366
						c-0.058,1-1.742,5.219-3.171,6.56c-0.898,0.843-3.736,0.241-3.736,0.241c-0.964-0.258-3.838-1.471-5.85-6.8
						c-0.766-2.028-1.492-13.205-0.829-13.757C163.263,108.597,174.003,105.572,176.055,110.428z"/>
					<path fill="#6B4E3A" d="M158.776,131.145c0,0,2.729-8.1,4.33-11.333c1.601-3.233,2.758-1.063,2.758-1.063l3.787,4.313
						l-1.819,10.289L158.776,131.145z"/>
					<path fill="#1C1C1C" d="M161.065,124.895c0,0-0.096-12.992,1.535-15.746c1.632-2.754,10.035-2.686,14.363-0.463
						c2.352,1.208,4.269,0.938,4.269,0.938s-0.416,2.202-2.938,3.054c-2.521,0.852-3.937,3.521-4.062,4.14
						c-0.125,0.619-3.754,8.182-5.45,8.967C167.085,126.57,161.903,126.81,161.065,124.895z"/>
					<path fill="#B27928" d="M178.037,145.748c-2.354,9.394-18.995,33.885-23.923,35.649c-11.002,3.936-27.144-12.19-23.673-15.012
						c6.25-5.083,4.909-10.009,11.041-25.323c5.138-12.833,10.171-15.258,11.305-14.773
						C172.6,134.75,181.867,130.467,178.037,145.748z"/>
				</g>
				<path fill="#6B4E3A" d="M172.508,120.472c0,0-0.022-2.359-1.022-2.437s-2.042,4.048-1.5,4.548
					c0.542,0.5,1.458,0.583,1.458,0.583L172.508,120.472z"/>
			</g>
		</g>
	</g>
</g>
<g id="Designed_by_Freepik">
</g>
</svg>
