<?xml version="1.0" encoding="utf-8"?>
<!-- Generator: Adobe Illustrator 17.0.0, SVG Export Plug-In . SVG Version: 6.00 Build 0)  -->
<!DOCTYPE svg PUBLIC "-//W3C//DTD SVG 1.1//EN" "http://www.w3.org/Graphics/SVG/1.1/DTD/svg11.dtd">
<svg version="1.1" id="_x3C_Layer_x3E_" xmlns="http://www.w3.org/2000/svg" xmlns:xlink="http://www.w3.org/1999/xlink" x="0px"
	 y="0px" width="2527.264px" height="1336.335px" viewBox="0 0 2527.264 1336.335" enable-background="new 0 0 2527.264 1336.335"
	 xml:space="preserve">
<g>
	<path fill="#CBE2BF" d="M2451.506,1332.398l-2331.069-0.633c0,0-202.896-371.128-18.136-656.129
		c184.76-285.01,468.685-138.719,491.184-344.619c0.768-6.97,0.152-13.865,0.152-20.603c-0.011-1.603,0.024-3.184,0.119-4.767
		c6.912-118.249,93.385-194.67,207.495-238.639c3.688-1.423,7.396-2.804,11.131-4.154c181.972-65.804,363.647-95.267,545.845-11.437
		c189.553,87.215,42.693,202.943,425.185,162.619c208.545-21.986,225.532,145.666,231.735,254.823
		C2030.603,740.753,2651.56,502.478,2451.506,1332.398z"/>
	<g>
		<polygon fill="#4682B4" points="1131.251,690.62 937.47,900.078 658.234,641.731 658.23,641.725 540.574,532.874 734.352,323.425 
			954.039,526.669 		"/>
		<g>
			<path fill="#C0D8FB" d="M1086.894,693.047L936.45,855.656L579.711,525.607l150.443-162.609L1086.894,693.047z M949.954,831.121
				l113.456-122.632c7.701-8.324,7.196-21.315-1.127-29.017L745.867,386.732c-8.474-7.839-21.699-7.325-29.538,1.148
				L603.327,510.021c-7.775,8.404-7.265,21.519,1.138,29.293l316.619,292.93C929.366,839.905,942.291,839.403,949.954,831.121z"/>
		</g>
		<circle fill="#C0D8FB" cx="833.299" cy="609.331" r="59.6"/>
	</g>
	<g>
		<polygon fill="#4682B4" points="1207.271,651.571 928.945,714.494 845.067,343.44 845.067,343.434 809.723,187.093 
			1088.04,124.176 1154.036,416.092 		"/>
		<g>
			<path fill="#002043" d="M1169.334,628.455l-216.076,48.847L846.097,203.265l216.075-48.847L1169.334,628.455z M978.281,664.725
				l162.953-36.838c11.062-2.5,18.001-13.494,15.5-24.556l-95.048-420.453c-2.546-11.26-13.737-18.325-24.998-15.779l-162.302,36.69
				c-11.166,2.524-18.172,13.623-15.648,24.789l95.109,420.724C956.337,660.308,967.275,667.213,978.281,664.725z"/>
		</g>
		<circle fill="#002043" cx="1007.71" cy="415.861" r="59.601"/>
	</g>
	<g>
		<path fill="#719ABF" d="M1617.837,873.194c0,49.219-10.75,96.199-30.166,138.982c-58.24,128.361-194.425,218.965-352.115,218.965
			h-109.295c-139.522,0-262.216-70.932-328.974-176.182c-33.837-53.358-53.309-115.533-53.309-181.765
			c0-49.219,10.751-96.191,30.166-138.98c58.234-128.355,194.425-218.96,352.116-218.96h109.295
			c143.398,0,269.016,74.926,334.397,185.031C1600.445,751.62,1617.837,810.6,1617.837,873.194z"/>
		<path fill="#719ABF" d="M1300.244,1079.178l-35.66,216.798c-4.735,16.795,8.79,33.237,27.342,33.237h93.711
			c20.087,0,38.492-10.508,47.691-27.228l145.646-272.016L1300.244,1079.178z"/>
		<path fill="#719ABF" d="M1086.869,1082.9l28.606,213.075c4.735,16.795-8.791,33.237-27.342,33.237h-93.712
			c-20.087,0-38.491-10.508-47.691-27.228l-149.443-247.026L1086.869,1082.9z"/>
		<path fill="#719ABF" d="M802.234,825.104v96.185c0,18.416-16.099,33.481-35.759,33.481h-73.61
			c-19.66,0-35.759-15.064-35.759-33.481v-96.185c0-18.416,16.099-33.48,35.759-33.48h73.61
			C786.136,791.624,802.234,806.688,802.234,825.104z"/>
		<path fill="#93C5FD" d="M802.234,825.104v53.586c0,18.408-16.099,33.482-35.759,33.482h-73.61
			c-19.66,0-35.759-15.074-35.759-33.482v-53.586c0-18.416,16.099-33.48,35.759-33.48h73.61
			C786.136,791.624,802.234,806.688,802.234,825.104z"/>
		<path fill="#93C5FD" d="M1569.952,700.285c9.07,41.283,1.936,100.292-9.667,131.536
			c-77.149,207.763-258.49,245.271-443.858,261.068c-131.806,11.232-319.14-37.931-319.14-37.931
			c-33.837-53.358-53.309-115.533-53.309-181.765c0-49.219,10.751-96.191,30.166-138.98
			c58.234-128.355,194.425-218.96,352.116-218.96h109.295C1378.953,515.254,1504.571,590.18,1569.952,700.285z"/>
		<path fill="#93C5FD" d="M1038.342,609.446l-147.367,27.951c-14.86,2.817-28.734-3.346-30.989-13.769l-40.759-188.396
			c-0.695-3.214-0.246-6.347,1.067-9.239c5.087-11.157,23.152-18.789,38.868-13.985c62.376,19.083,168.004,66.236,201.665,172.192
			C1064.233,594.905,1053.911,606.493,1038.342,609.446z"/>
		<path fill="#719ABF" d="M896.968,636.261l-5.993,1.137c-14.859,2.817-28.734-3.346-30.989-13.769l-40.759-188.396
			c-0.695-3.214-0.246-6.347,1.067-9.239c0.742,0.392,1.478,0.827,2.178,1.32c39.232,27.294,99.553,84.099,106.42,178.392
			C929.89,619.416,916.098,632.633,896.968,636.261z"/>
		<ellipse fill="#2B478B" cx="880.098" cy="733.429" rx="22.402" ry="20.976"/>
		<g>
			<path fill="#93C5FD" d="M1708.904,970.489c-2.159,0-4.312-0.259-6.449-0.786c-16.615-4.095-26.124-22.671-24.816-48.479
				c1.282-25.301,12.593-52.013,31.03-73.289c8.161-9.418,17.58-17.654,28.096-24.627c-4.957-7.658-11.654-15.006-20.665-21.333
				c-15.316-10.756-31.14-13.854-48.37-9.474c-46.328,11.777-85.594,73.779-88.775,80.748c-1.443,3.727-5.803,5.716-9.842,4.456
				c-4.105-1.281-6.322-5.436-4.955-9.279c1.376-3.865,12.852-22.375,28.856-40.704c27.898-31.949,52.202-44.052,67.678-48.578
				c22.959-6.716,44.765-2.982,64.811,11.094c9.947,6.985,18.168,15.469,24.547,25.239c15.895-8.293,33.805-14.05,53.287-17.041
				c4.276-0.655,8.299,2.055,9,6.053c0.699,3.998-2.194,7.77-6.465,8.426c-17.875,2.743-34.252,8.037-48.715,15.665
				c4.442,10.03,7.263,21.094,8.368,33.025c2.274,24.566-2.992,51.382-14.452,73.571
				C1739.398,957.78,1724.022,970.488,1708.904,970.489z M1743.711,836.724c-8.518,5.892-16.18,12.73-22.875,20.455
				c-16.379,18.899-26.419,42.496-27.546,64.74c-0.895,17.652,4.514,31.468,13.152,33.596c8.732,2.147,21.286-8.838,30.522-26.726
				c10.117-19.588,14.957-44.229,12.949-65.917C1749.192,855.082,1747.444,845.969,1743.711,836.724z M1579.022,873.065
				c-0.015,0.043-0.031,0.086-0.048,0.129C1578.994,873.146,1579.01,873.102,1579.022,873.065z"/>
		</g>
	</g>
	<g>
		<path fill="#002043" d="M1548.932,1329.213L1548.932,1329.213c-3.877,0.022-7.946-2.794-9.089-6.289l-233.549-714.393
			c-1.143-3.495,1.073-6.348,4.95-6.37l0,0c3.877-0.023,7.946,2.792,9.089,6.289l233.549,714.392
			C1555.024,1326.338,1552.809,1329.19,1548.932,1329.213z"/>
		<path fill="#002043" d="M1737.157,1328.118L1737.157,1328.118c-3.876,0.022-7.945-2.793-9.088-6.289l-233.549-714.393
			c-1.144-3.496,1.072-6.349,4.949-6.37l0,0c3.878-0.023,7.946,2.793,9.09,6.289l233.549,714.392
			C1743.251,1325.243,1741.034,1328.095,1737.157,1328.118z"/>
		<path fill="#002043" d="M1534.489,706.979l-189.013,1.1c-3.644,0.021-7.505-2.65-8.579-5.937l0,0
			c-1.074-3.286,1.028-5.992,4.673-6.014l189.013-1.099c3.643-0.021,7.505,2.65,8.58,5.937l0,0
			C1540.236,704.253,1538.134,706.959,1534.489,706.979z"/>
		<path fill="#002043" d="M1575.267,831.711l-189.013,1.1c-3.645,0.021-7.506-2.65-8.58-5.937l0,0
			c-1.074-3.287,1.029-5.993,4.674-6.014l189.013-1.1c3.644-0.021,7.504,2.65,8.579,5.938l0,0
			C1581.014,828.984,1578.911,831.69,1575.267,831.711z"/>
		<path fill="#002043" d="M1614.54,951.841l-189.014,1.1c-3.643,0.021-7.505-2.65-8.579-5.937l0,0
			c-1.074-3.286,1.027-5.993,4.673-6.014l189.013-1.1c3.645-0.021,7.505,2.65,8.58,5.938l0,0
			C1620.286,949.114,1618.184,951.82,1614.54,951.841z"/>
		<path fill="#002043" d="M1658.752,1087.082l-189.013,1.1c-3.644,0.021-7.505-2.65-8.579-5.937l0,0
			c-1.074-3.287,1.028-5.993,4.673-6.015l189.013-1.099c3.644-0.021,7.506,2.65,8.58,5.937l0,0
			C1664.499,1084.355,1662.396,1087.062,1658.752,1087.082z"/>
		<path fill="#002043" d="M1705.028,1228.635l-189.013,1.099c-3.645,0.021-7.505-2.65-8.579-5.938l0,0
			c-1.075-3.286,1.028-5.992,4.673-6.013l189.012-1.1c3.646-0.021,7.506,2.65,8.58,5.937l0,0
			C1710.775,1225.907,1708.673,1228.612,1705.028,1228.635z"/>
	</g>
	<g>
		<g>
			<path fill="#EA8E50" d="M2134.897,913.352l7.625,6.193c0,0,20.862-7.48,25.569,17.309c0,0,1.254,10.565-5.438,10.584
				c-6.691,0.02-3.931-1.155-13.407-0.878c-9.477,0.279-17.331-4.718-18.719-12.407l-4.534-6.516L2134.897,913.352z"/>
			<path fill="#783ABA" d="M2134.034,926.644c6.085-6.353,5.594-11.048,5.594-11.048s-70.45-57.679-77.595-62.377
				c-4.868-3.203-56.75-49.198-81.003-77.239c-12.03-13.909-26.932-8.512-43.98-3.621l-14.038,4.028
				c-16.954,4.863-21.363,28.575-7.453,40.097c39.176,32.449,104.346,68.947,116.539,76.617
				c30.271,19.042,89.523,41.669,89.523,41.669S2128.81,932.099,2134.034,926.644z"/>
		</g>
		<path fill="#232323" d="M2214.43,1281.012c0,0,17.098,12.809,43.296,6.04c0,0,21.122-4.813,25.755,5.721
			c0,0-32.395,16.458-40.592,20.957c-6.18,3.393-12.625,8.748-17.184,12.886c-3.606,3.276-9.226,2.832-12.3-0.948
			c-1.426-1.753-3.057-3.84-4.844-6.261c-4.993-6.769-16.633-28.634-16.633-28.634L2214.43,1281.012z"/>
		<path fill="#4F4F4F" d="M2224.468,1274.503c0,0-10.411,24.005-34.442,19.592c0,0-49.037-40.496-82.673-82.565
			c-10.925-13.664-20.227-27.492-25.692-40.148c-22.306-51.644-82.508-128.667-120.786-167.706l95.767-34.643
			c0,0,30.675,61.705,71.489,137.499C2157.543,1161.141,2192.214,1223.068,2224.468,1274.503z"/>
		<path fill="#333333" d="M2128.13,1106.53l-20.777,104.999c-10.925-13.664-20.227-27.492-25.692-40.148
			c-22.306-51.644-82.508-128.667-120.786-167.706l95.767-34.643C2056.641,969.031,2087.315,1030.736,2128.13,1106.53z"/>
		<path fill="#232323" d="M2049.85,1294.941c0,0-1.043,19.155,22.176,21.71c0,0,14.372,0.37,14.41,12.562l-69.93-0.024
			c0,0-0.619-4.979-1.096-15.513c-0.365-8.089,7.84-29.233,7.84-29.233L2049.85,1294.941z"/>
		<path fill="#4F4F4F" d="M2025.23,969.031c0,0,42.662,46.878,69.745,131.336c14.734,45.951-27.008,161.485-35.146,201.626
			c0,0-28.001,2.376-47.147-5.026c0,0-1.456-82.909,9.742-146.81c6.267-35.763-56.173-76.486-83.456-141.105
			c-18.562-43.961,4.019-43.215,31.769-44.272L2025.23,969.031z"/>
		<path fill="#FFB07B" d="M1975.98,759.882c-23.736,13.404-72.33,1.042-72.33,1.042s19.733-22.561,10.767-58.896l18.637,9.465
			l20.018,10.167c0,0,1.295,6.417,2.194,17.942c0.229,2.968,0.434,6.283,0.577,9.906
			C1968.031,753.204,1975.98,759.882,1975.98,759.882z"/>
		<path fill="#A35AE2" d="M2063.02,966.608c0,4.173-4.807,6.169-5.826,6.372c-9.575,1.75-36.307,12.148-60.389,14.533
			c-20.276,2.124-39.102,0.107-59.783-4.046c-2.739-0.552-9.169-2.283-9.625-4.907c-0.57-2.866-79.775-161.467-18.204-229.596
			c1.446-1.598,13.6,1.281,24.715,3.918c10.266,2.435,19.682,1.078,28.089-2.294l10.424,5.483
			c12.802,7.134,37.022,32.477,39.856,52.36c1.44,10.112,7.222,17.602,8.896,26.496c0.621,3.291,1.256,6.506,1.902,9.638
			c1.262,6.144,2.562,11.99,3.899,17.552c3.62,15.038,7.444,27.986,11.197,39.171c3.995,11.875,7.913,21.755,11.413,30.016
			c4.54,10.716,8.376,18.724,10.772,24.856C2062.049,960.477,2063.02,963.863,2063.02,966.608z"/>
		<path fill="#783ABA" d="M2060.356,956.16c-111.808-52.678-150.53-153.827-150.53-153.827s90.841,33.509,113.248,42.233
			c1.262,6.144,2.562,11.99,3.899,17.552c3.62,15.038,7.444,27.986,11.197,39.171c3.995,11.875,7.913,21.755,11.413,30.016
			C2054.124,942.021,2057.96,950.028,2060.356,956.16z"/>
		<path fill="#EA8E50" d="M1955.267,739.602c-23.341,1.311-38.521-17.961-38.521-17.961s10.554-5.847,16.309-10.148l20.018,10.167
			C1953.072,721.66,1954.367,728.077,1955.267,739.602z"/>
		<path fill="#FFB07B" d="M1965.212,715.638c0,0-35.367,25.381-50.835,3.113c-15.465-22.269-30.447-33.99-8.52-51.137
			c21.926-17.147,32.264-11.731,39.233-5.553C1952.062,668.238,1974.014,708.462,1965.212,715.638z"/>
		<path fill="#233862" d="M1948.827,641.95c-1.269-8.56-4.121-14.583-4.121-14.583s-2.22,9.193-19.022,7.926
			c-16.801-1.268-43.432,1.652-52.309,20.798c-0.564,1.218-1.068,2.475-1.516,3.757c-1.606-4.246-1.994-10.606-1.994-10.606
			c-3.192,8.243,0,18.553,0,18.553h0.002c-0.049,0.3-0.088,0.602-0.132,0.902c-3.708,3.136-6.821,12.881-6.821,12.881
			c1.118-2.717,3.848-4.491,6.281-5.584c-0.076,14.898,5.966,29.464,16.57,33.8c15.508,6.34,15.383,1.503,30.979,11.848
			c0,0,4.184-5.19,1.331-8.678c-2.853-3.487-13.633-8.56-7.609-13.633c6.023-5.072,8.242,0.635,10.462-2.853
			c2.219-3.487-8.877-13.633,5.39-23.143C1940.584,663.824,1950.096,650.51,1948.827,641.95z"/>
		<g>
			<path fill="#E98900" d="M2143.915,936.684l-0.079,0.089c-1.915,0.08-3.826,0.103-5.789,0.063
				c-1.964-0.04-3.922-0.137-5.877-0.291c-1.379-0.109-2.816-0.223-4.187-0.446c-0.747-0.059-1.49-0.176-2.29-0.297
				c-2.405-0.306-4.801-0.726-7.188-1.262c-16.607-3.568-31.686-11.122-44.228-21.484c-0.216-0.191-0.38-0.319-0.596-0.51
				c-0.923-0.767-1.841-1.592-2.706-2.354c-1.673-1.52-3.341-3.098-4.89-4.725c-0.64-0.687-1.284-1.316-1.92-2.061
				c-0.692-0.749-1.385-1.498-2.02-2.242c-0.693-0.749-1.381-1.555-2.007-2.415c-0.953-1.116-1.902-2.29-2.73-3.513
				c-1.156-1.479-2.191-3.007-3.228-4.535c-1.86-2.808-3.601-5.664-5.161-8.621c-6.101-11.356-10.144-23.88-11.589-37.067
				c-0.183-1.345-0.304-2.743-0.429-4.083c-0.396-5.237-0.385-10.5,0.038-15.845c0.104-1.322,0.214-2.702,0.433-4.015
				c0.073-0.92,0.203-1.835,0.329-2.693c0.153-1.202,0.359-2.343,0.564-3.484c0.197-1.026,0.394-2.051,0.59-3.077
				c0.067-0.11,0.071-0.168,0.08-0.283c8.553-40.16,40.15-71.095,79.399-79.561c6.301-1.411,12.838-2.167,19.446-2.338
				c1.796-0.032,3.529-0.01,5.32,0.016c1.729,0.079,3.458,0.158,5.24,0.298l0.058,0.005c14.428,1.14,27.988,5.22,40.039,11.551
				c1.387,0.746,2.774,1.492,4.157,2.295c2.708,1.602,5.402,3.377,7.923,5.138c0.053,0.062,0.106,0.124,0.216,0.191
				c1.369,0.976,2.676,2.005,3.982,3.033c1.307,1.029,2.61,2.115,3.854,3.197c2.106,1.902,4.149,3.856,6.131,5.864
				c1.068,1.125,2.135,2.251,3.141,3.429c9.08,10.262,16.108,22.327,20.565,35.463c0.616,1.726,1.169,3.505,1.665,5.28
				c0.939,3.487,1.759,7.022,2.344,10.597c0.153,0.995,0.305,1.991,0.4,2.982c0.231,1.464,0.401,2.981,0.517,4.437
				c0.633,5.892,0.678,11.911,0.197,18.004C2239.439,894.431,2195.857,934.922,2143.915,936.684z"/>
			<path fill="#E98900" d="M2118.496,731.922c6.301-1.411,12.781-2.171,19.384-2.285c-6.608,0.172-13.146,0.927-19.446,2.338
				L2118.496,731.922z"/>
			<path fill="#E98900" d="M2148.502,729.897l-0.005,0.058l-0.058-0.005c-1.782-0.141-3.511-0.22-5.24-0.298
				C2144.934,729.673,2146.72,729.756,2148.502,729.897z"/>
			<g>
				<circle fill="#FFC75C" cx="2133.957" cy="832.718" r="92.102"/>
				<path fill="#FCA615" d="M2125.791,936.027c-56.966-4.502-99.648-54.51-95.146-111.476s54.51-99.648,111.475-95.146
					c56.966,4.502,99.648,54.51,95.146,111.476S2182.756,940.53,2125.791,936.027z M2140.303,752.399
					c-44.285-3.5-83.166,29.685-86.666,73.97s29.685,83.166,73.97,86.666c44.285,3.5,83.166-29.685,86.666-73.97
					S2184.588,755.899,2140.303,752.399z"/>
			</g>
			<g>
				<g>
					<g>
						<path fill="#FCA615" d="M2162.601,855.422c-1.091,13.799-10.525,24.349-24.275,27.873l-1.282,16.219l-24.2-1.913l1.164-14.726
							c-6.81-1.678-13.154-4.666-17.476-8.324l-4.469-3.773l10.503-23.418l7.803,6.161c4.149,3.229,9.88,5.444,15.338,5.875
							c4.067,0.321,8.978-0.845,9.32-5.17c0.138-1.751,0.395-4.995-10.175-10.234c-13.269-6.489-26.699-15.529-25.287-33.396
							c1.042-13.181,10.079-23.296,23.25-26.711l1.249-15.807l24.046,1.9l-1.127,14.263c5.127,1.338,9.73,3.411,13.855,6.276
							l5.352,3.739l-10.835,23.029l-7.524-5.102c-2.018-1.351-6.195-4.22-13.403-4.79c-2.574-0.203-7.048,0.013-7.337,3.669
							c-0.134,1.699-0.281,3.553,11.773,9.687C2149.776,826.275,2164.147,835.856,2162.601,855.422z"/>
					</g>
				</g>
			</g>
			<path fill="#FCA615" d="M2073.625,868.844c-9.288-17.63-10.125-38.083-2.426-56.439c0.806-1.921-2.107-3.349-2.915-1.421
				c-8.196,19.538-7.195,40.974,2.672,59.703C2071.926,872.528,2074.588,870.673,2073.625,868.844z"/>
			<path fill="#FCA615" d="M2103.2,767.391c-11.719,7.074-21.543,16.489-29.087,27.914c-1.136,1.72,1.31,3.854,2.459,2.114
				c7.4-11.207,16.969-20.416,28.471-27.359C2106.83,768.982,2104.985,766.314,2103.2,767.391z"/>
			<path fill="#FCA615" d="M2195.884,791.289c-1.039-1.809-3.704,0.04-2.669,1.843c11.867,20.657,13.487,45.451,4.44,67.485
				c-0.791,1.925,2.122,3.354,2.915,1.421C2210.093,838.847,2208.369,813.022,2195.884,791.289z"/>
			<path fill="#FCA615" d="M2191.167,870.907c-5.992,10.767-14.468,19.528-24.978,25.95c-1.781,1.088,0.064,3.756,1.843,2.669
				c10.978-6.708,19.797-15.961,26.051-27.198C2195.1,870.5,2192.178,869.09,2191.167,870.907z"/>
			<path fill="#FCA615" d="M2191.8,846.73c-0.825,8.022-3.427,15.485-7.773,22.279c-1.125,1.759,1.778,3.209,2.893,1.464
				c4.479-7.002,7.2-14.791,8.051-23.061C2195.182,845.354,2192.013,844.655,2191.8,846.73z"/>
			<path fill="#E98900" d="M2125.314,916.261c-0.292,6.558-0.583,13.117-0.875,19.675c-0.093,2.08,3.142,1.818,3.234-0.244
				c0.292-6.558,0.583-13.117,0.874-19.675C2128.64,913.937,2125.406,914.199,2125.314,916.261z"/>
			<path fill="#E98900" d="M2151.442,914.241c-0.274-2.06-3.51-1.829-3.234,0.244c0.874,6.559,1.749,13.117,2.623,19.676
				c0.274,2.06,3.51,1.829,3.233-0.244C2153.19,927.358,2152.316,920.8,2151.442,914.241z"/>
			<path fill="#E98900" d="M2181.622,926.578c-2.478-6.267-4.956-12.534-7.434-18.8c-0.765-1.935-3.824-0.853-3.053,1.095
				c2.478,6.267,4.956,12.534,7.434,18.8C2179.333,929.607,2182.392,928.526,2181.622,926.578z"/>
			<path fill="#E98900" d="M2201.236,913.913c-3.67-5.959-7.34-11.918-11.01-17.878c-1.095-1.778-3.763,0.067-2.669,1.843
				c3.67,5.959,7.34,11.918,11.01,17.878C2199.661,917.533,2202.329,915.689,2201.236,913.913z"/>
			<path fill="#E98900" d="M2217.08,897.497l-16.032-14.156c-1.567-1.384-3.68,1.076-2.114,2.459
				c5.344,4.719,10.688,9.437,16.032,14.156C2216.533,901.34,2218.646,898.88,2217.08,897.497z"/>
			<path fill="#E98900" d="M2228.987,873.305c-5.686-2.036-11.371-4.072-17.057-6.108c-1.948-0.698-3.385,2.212-1.421,2.915
				c5.686,2.036,11.371,4.072,17.057,6.108C2229.513,876.918,2230.95,874.008,2228.987,873.305z"/>
			<path fill="#E98900" d="M2237.835,845.134c-7.289,0.235-14.578,0.47-21.867,0.705c-2.088,0.067-1.839,3.301,0.244,3.234
				c7.289-0.235,14.578-0.47,21.867-0.705C2240.167,848.301,2239.918,845.067,2237.835,845.134z"/>
			<path fill="#E98900" d="M2238.293,818.913c-6.556,1.614-13.111,3.229-19.667,4.843c-2.022,0.498-0.918,3.549,1.095,3.053
				c6.556-1.614,13.111-3.229,19.667-4.843C2241.41,821.469,2240.307,818.418,2238.293,818.913z"/>
			<path fill="#FCA615" d="M2079.982,822.538c0.9-8.014,3.571-15.452,7.981-22.205c1.141-1.748-1.748-3.226-2.88-1.491
				c-4.544,6.96-7.338,14.723-8.265,22.985C2076.586,823.882,2079.749,824.61,2079.982,822.538z"/>
			<path fill="#E98900" d="M2149.485,751.364c0.754-6.521,1.509-13.043,2.263-19.564c0.239-2.069-3.006-2.036-3.243,0.015
				c-0.754,6.521-1.509,13.043-2.263,19.564C2146.002,753.447,2149.247,753.414,2149.485,751.364z"/>
			<path fill="#E98900" d="M2123.28,751.532c0.128,2.074,3.372,2.073,3.243-0.015c-0.408-6.604-0.817-13.208-1.225-19.812
				c-0.128-2.074-3.372-2.073-3.243,0.015C2122.463,738.324,2122.871,744.928,2123.28,751.532z"/>
			<path fill="#E98900" d="M2094.047,737.092c2.029,6.426,4.058,12.853,6.086,19.279c0.626,1.984,3.754,1.122,3.123-0.876
				c-2.029-6.426-4.058-12.853-6.086-19.279C2096.544,734.232,2093.417,735.094,2094.047,737.092z"/>
			<path fill="#E98900" d="M2073.587,748.339c3.24,6.204,6.479,12.407,9.719,18.611c0.966,1.851,3.758,0.199,2.792-1.65
				c-3.239-6.204-6.479-12.408-9.719-18.611C2075.413,744.839,2072.621,746.49,2073.587,748.339z"/>
			<path fill="#E98900" d="M2056.622,763.594l14.991,15.254c1.465,1.491,3.747-0.813,2.282-2.303
				c-4.997-5.085-9.994-10.169-14.991-15.254C2057.439,759.799,2055.158,762.104,2056.622,763.594z"/>
			<path fill="#E98900" d="M2043.035,786.883c5.527,2.433,11.055,4.866,16.582,7.298c1.894,0.833,3.532-1.968,1.624-2.808
				c-5.527-2.433-11.055-4.865-16.582-7.298C2042.765,783.242,2041.126,786.044,2043.035,786.883z"/>
			<path fill="#E98900" d="M2032.217,814.358c7.287,0.281,14.575,0.562,21.862,0.842c2.087,0.08,2.068-3.162-0.015-3.243
				c-7.287-0.281-14.575-0.562-21.862-0.843C2030.115,811.035,2030.134,814.278,2032.217,814.358z"/>
			<path fill="#E98900" d="M2029.906,840.481c6.653-1.147,13.307-2.294,19.96-3.441c2.052-0.354,1.167-3.475-0.876-3.123
				c-6.653,1.147-13.307,2.294-19.96,3.441C2026.977,837.712,2027.863,840.833,2029.906,840.481z"/>
			<path fill="#E98900" d="M2217.07,812.211c6.089-2.453,12.179-4.907,18.268-7.36c1.932-0.778,0.352-3.613-1.563-2.842
				c-6.089,2.453-12.179,4.907-18.268,7.36C2213.576,810.148,2215.155,812.983,2217.07,812.211z"/>
			<path fill="#E98900" d="M2228.169,781.816c-6.065,2.938-12.13,5.875-18.195,8.813c-1.872,0.907-0.566,3.877,1.319,2.963
				c6.065-2.938,12.13-5.875,18.195-8.813C2231.36,783.873,2230.054,780.903,2228.169,781.816z"/>
			<path fill="#E98900" d="M2214.079,763.199c-5.67,4.103-11.339,8.207-17.009,12.31c-1.691,1.224,0.347,3.747,2.036,2.524
				c5.67-4.103,11.339-8.207,17.009-12.31C2217.806,764.5,2215.769,761.977,2214.079,763.199z"/>
			<path fill="#E98900" d="M2196.53,748.621l-12.924,17.041c-1.263,1.666,1.347,3.589,2.61,1.925
				c4.308-5.68,8.616-11.361,12.924-17.041C2200.402,748.88,2197.792,746.956,2196.53,748.621z"/>
			<path fill="#E98900" d="M2171.519,738.547c-1.607,5.822-3.214,11.643-4.822,17.464c-0.551,1.994,2.458,3.211,3.013,1.2
				c1.607-5.821,3.214-11.643,4.821-17.464C2175.082,737.754,2172.073,736.538,2171.519,738.547z"/>
			<path fill="#E98900" d="M2052.297,850.447c-5.052,1.943-10.105,3.887-15.157,5.83c-1.943,0.747-0.86,3.805,1.095,3.053
				c5.052-1.943,10.105-3.886,15.157-5.83C2055.335,852.753,2054.252,849.695,2052.297,850.447z"/>
			<path fill="#E98900" d="M2058.438,870.611c-5.533,2.247-11.067,4.494-16.6,6.741c-1.926,0.782-0.846,3.842,1.095,3.053
				c5.533-2.247,11.067-4.494,16.6-6.741C2061.459,872.882,2060.379,869.822,2058.438,870.611z"/>
			<path fill="#E98900" d="M2066.57,883.129c-4.889,2.96-9.779,5.921-14.668,8.881c-1.786,1.081,0.06,3.748,1.843,2.669
				c4.89-2.96,9.779-5.921,14.668-8.881C2070.199,884.716,2068.353,882.049,2066.57,883.129z"/>
			<path fill="#E98900" d="M2077.584,895.269c-4.469,3.886-8.939,7.773-13.408,11.659c-1.557,1.354,0.266,4.041,1.843,2.669
				c4.469-3.886,8.939-7.773,13.408-11.66C2080.983,896.584,2079.161,893.897,2077.584,895.269z"/>
			<path fill="#E98900" d="M2090.419,906.366c-2.839,4.651-5.678,9.302-8.517,13.952c-1.089,1.784,1.837,3.189,2.916,1.421
				c2.839-4.651,5.678-9.302,8.517-13.953C2094.423,906.003,2091.498,904.599,2090.419,906.366z"/>
			<path fill="#E98900" d="M2110.038,913.696c-1.948,5.44-3.895,10.879-5.843,16.318c-0.698,1.948,2.212,3.384,2.915,1.421
				c1.948-5.439,3.896-10.879,5.843-16.318C2113.651,913.169,2110.741,911.732,2110.038,913.696z"/>
		</g>
		<path fill="#FFB07B" d="M2125.771,925.633l9.662,3.543c0,0,19.348-13.681,31.394,8.569c0,0,4.357,9.719-2.539,11.83
			c-6.897,2.111-4.39,0.123-14.084,3.352c-9.694,3.229-19.244,0.903-22.906-6.021l-6.566-4.818L2125.771,925.633z"/>
		<path fill="#A35AE2" d="M2133.724,939.296c3.572-9.32,5.204-13.542,5.204-13.542s-73.007-59.506-80.445-64.61
			c-5.068-3.478-55.533-41.199-80.137-70.598c-12.204-14.582-31.447-21.248-50.057-17.345l-15.326,3.214
			c-18.506,3.88-24.518,27.304-10.163,39.61c40.429,34.659,108.618,74.857,121.332,83.22
			c31.563,20.757,101.374,49.843,101.374,49.843S2130.918,946.616,2133.724,939.296z"/>
	</g>
	<path fill="#FFAD1D" d="M713.97,1309.902c-1.654,1.009-3.336,1.985-5.045,2.928c-0.579,0.32-1.159,0.635-1.737,0.939
		c-1.323,0.705-2.648,1.384-3.983,2.046c-63.942,31.402-141.936,7.301-176.699-55.756c-33.156-60.143-15.334-134.642,39.069-173.76
		c4.34-3.122,8.905-6.017,13.703-8.658c1.72-0.947,3.457-1.858,5.2-2.719c1.692-0.844,3.401-1.648,5.117-2.409
		c5.255-2.343,10.599-4.317,15.991-5.934c8.018-2.415,16.157-4.042,24.313-4.901c25.293-2.681,50.742,1.94,73.306,12.98
		c23.943,11.707,44.645,30.643,58.49,55.755C796.551,1193.65,775.074,1272.736,713.97,1309.902z"/>
	<g>
		<circle fill="#DCE4FF" cx="639.951" cy="1194.152" r="120.43"/>
		<g>
			<g>
				<circle fill="#4D4E4F" cx="728.939" cy="1221.845" r="5.805"/>
			</g>
			<g>
				<circle fill="#4D4E4F" cx="616.2" cy="1106.294" r="5.805"/>
				<circle fill="#4D4E4F" cx="662.427" cy="1284.179" r="5.805"/>
			</g>
			<circle fill="#4D4E4F" cx="666.851" cy="1107.563" r="5.806"/>
			<circle fill="#4D4E4F" cx="573.471" cy="1130.984" r="5.806"/>
			<circle fill="#4D4E4F" cx="611.776" cy="1282.91" r="5.805"/>
			<circle fill="#4D4E4F" cx="705.546" cy="1131.532" r="5.805"/>
			<circle fill="#4D4E4F" cx="553.497" cy="1169.668" r="5.805"/>
			<circle fill="#4D4E4F" cx="573.081" cy="1258.94" r="5.805"/>
			<g>
				<circle fill="#4D4E4F" cx="728.256" cy="1172.123" r="5.805"/>
				<circle fill="#4D4E4F" cx="550.372" cy="1218.35" r="5.805"/>
			</g>
			<g>
				<circle fill="#4D4E4F" cx="702.254" cy="1259.242" r="5.806"/>
			</g>
		</g>
		<path fill="#FFAD1D" d="M581.43,1207.733c17.765-5.767,52.229-17.025,52.229-17.025l2.488,9.577l-54.348,8.996
			C580.704,1209.463,580.373,1208.075,581.43,1207.733z"/>
		<path fill="#4D4E4F" d="M625.046,1131.746c8.055,26.354,19.056,62.245,19.056,62.245l-9.577,2.49l-12.379-64.059
			C621.585,1129.523,624.182,1128.916,625.046,1131.746z"/>
		<circle fill="#EA9A1B" cx="639.313" cy="1195.237" r="9.18"/>
	</g>
	<g>
		<path fill="#0A0B0C" d="M548.614,725.942c0,0,2.479-27.021-27.71-27.021c0,0,9.147,2.481,13.879,7.444
			c0,0-19.254-11.304-40.209,6.066c-20.954,17.369-7.934,60.932-14.307,69.204c-6.371,8.271-31.186,9.926-28.153,36.67
			c3.033,26.743,78.754,60.241,73.892,82.367c0,0,29.674-43.62,8.456-63.527c0,0,10.343,9.742,11.396,21.321
			c0,0,2.807-22.607-11.58-29.84c-12.731-6.398-23.16-29.803-22.058-33.985C513.323,790.459,548.614,725.942,548.614,725.942z"/>
		<path fill="#1A1C1E" d="M540.074,722.143c0.408-1.644-35.766,16.351-37.6,18.384c-16.965,18.82-12.128,43.378-2.421,43.614
			c6.227,0.15,5.02,10.502,5.02,10.502l69.359-29.342C574.433,765.301,566.082,716.604,540.074,722.143z"/>
		<path fill="#ED985F" d="M521.202,853.061c-4.655-22.418-33.722-29.369-47.475-11.063c-2.473,3.292-4.214,7.184-4.781,11.777
			c-3.14,25.446,37.546,129.091,43.372,138.476c10.607,17.086,73.07,75.651,73.07,75.651l11.512-6.977
			c0,0-44.305-75.004-51.165-82.023C537.804,970.784,530.04,895.623,521.202,853.061z"/>
		<path fill="#ED985F" d="M581.011,1060.956c0,0,16.802-11.031,23.16-10.32c6.361,0.711,24.769,6.007,24.994,8.713
			c0.224,2.706-20.512,4.396-21.903,5.875c-1.393,1.48-15.473,10.879-20.576,7.931
			C581.581,1070.208,581.011,1060.956,581.011,1060.956z"/>
		<path fill="#5B6387" d="M463.815,1310.179l-15.009-2.205c0,0-50.468-40.105-57.983-114.939
			c-0.766-7.614-0.926-15.347-0.357-23.138c0.066-0.898-0.034-1.798-0.525-2.554c0-0.005-0.005-0.011-0.016-0.021
			c-1.615-2.476-5.636-8.68-11.078-17.502c-5.365-8.691-14.548-25.123-24.649-43.563c-18.197-33.208-39.383-72.921-46.65-85.571
			c-23.154-40.315-11.993-67.423-11.993-67.423s64.594-6.386,82.295-21.87l6.374,9.827c0,0,13.995,61.958,13.333,62.244
			c0.691,2.107,1.391,4.252,2.102,6.435c11.045,34.09,23.75,76.698,30.677,111.399c3.892,19.526,5.955,36.538,4.847,48.129
			c-0.381,3.976,0.083,10.085,1.141,17.629C442.575,1231.523,463.815,1310.179,463.815,1310.179z"/>
		<path fill="#4C2A11" d="M495.301,1329.17h-62.62c0,0-1.502-9.545,1.77-16.785c3.134-6.947,7.601-7.168,0.57-18.06
			c3.979,4.098,16.771,5.793,25.823,4.574c1.108,1.799,7.151,13.863,10.857,16.525
			C475.792,1318.366,494.04,1317.317,495.301,1329.17z"/>
		<path fill="#404863" d="M399.657,1009.899c-5.471,30.169-18.39,80.377-45.46,96.357c-18.197-33.208-39.383-72.921-46.65-85.571
			c-23.154-40.315-11.993-67.423-11.993-67.423s64.594-6.386,82.295-21.87l6.374,9.827c0,0,13.995,61.958,13.333,62.244
			C398.246,1005.571,398.946,1007.716,399.657,1009.899z"/>
		<path fill="#994116" d="M514.503,839.151c0,0,8.854,9.208,12.898,20.236c0,0-14.124,40.559-47.133,45.645
			C480.267,905.032,506.385,839.136,514.503,839.151z"/>
		<path fill="#5B6387" d="M355.739,957.922l0.212-11.713c-23.334,2.943-80.458-27.884-80.458-27.884s-24.412,16.236-27.754,62.606
			c-1.631,22.633-11.95,118.349-13.092,146.93c-0.416,10.359-0.554,17.751-0.602,20.705c0.005,0.016,0.005,0.022,0.004,0.029
			c-0.015,0.901-0.437,1.697-0.993,2.411c-4.828,6.136-9.017,12.638-12.644,19.381c-35.607,66.248-16.987,156.267-16.987,156.267
			l8.269-2.103c0,0,30.107-93.318,49.784-133.683c3.341-6.847,6.374-12.171,8.912-15.255c7.399-8.985,15.2-24.246,22.891-42.612
			c14.535-34.722,28.647-80.539,38.712-116.017C332.705,1017.113,355.739,957.922,355.739,957.922z"/>
		<path fill="#FFB27D" d="M492.293,879.755c-38.147-8.755-13.777-62.358-11.566-61.415c5.286-1.077,16.894-10.357,27.277-28.483
			l1.404,1.217l23.429,20.541c0,0-5.416,7.99-9.973,15.815c-3.56,6.126-6.586,12.163-6.105,14.234
			C518.646,843.148,502.468,882.093,492.293,879.755z"/>
		<path fill="#ED985F" d="M532.836,811.621c0,0-5.417,7.979-9.972,15.815c-14.567-8.981-14.582-27.015-13.46-36.357L532.836,811.621
			z"/>
		<path fill="#FFB27D" d="M533.486,821.909c0,0-35.37-19.682-22.774-41.519c12.596-21.838,16.514-39.085,39.628-27.442
			c23.115,11.643,22.657,22.483,20.227,30.795C568.135,792.055,543.011,826.466,533.486,821.909z"/>
		<path fill="#0A0B0C" d="M576.541,771.006c-1.62-9.694-6.545-10.621-9.981-9.974c-13.061-21.601-34.4-13.171-34.4-13.171
			c-11.398,14.304-27.877,16.744-27.877,16.744s4.104,7.638,21.015,12.364c5.166,1.444,11.029,0.57,16.682-1.333
			c-11.732,6.542-24.001,9.048-24.001,9.048c22.285,2.039,43.488-18.335,45.688-20.515c1.028,3.158,2.831,9.768,1.752,14.601
			c-1.468,6.566-7.297,18.461-3.737,20C561.681,798.771,578.97,785.548,576.541,771.006z"/>
		<path fill="#4C2A11" d="M253.224,1329.17h-62.62c0,0-1.501-9.545,1.77-16.785c3.134-6.947,8.043-10.104,6.868-18.511
			c3.979,4.097,10.464,8.685,19.517,7.467c1.109,1.798,7.16,11.422,10.865,14.084
			C233.716,1318.366,251.963,1317.317,253.224,1329.17z"/>
		<path fill="#BC5115" d="M496.78,922.25c-8.057,2.813-19.366,4.352-30.935,5.608c-16.466,1.798-33.467,3.027-42.372,6.578
			c-3.248,1.297-5.421,2.896-6.099,4.941c-3.86,11.607-20.872,29.519-20.872,29.519c-109.039-4.964-121.011-50.572-121.011-50.572
			c73.362-85.306,197.576-109.999,197.576-109.999s8.873-3.761,31.217,13.995c14.91,11.857,12.948,16.405,12.948,16.405
			S520.492,913.979,496.78,922.25z"/>
		<path fill="#994116" d="M465.846,927.858c-16.466,1.798-33.467,3.027-42.372,6.578c-3.64-54.382,22.023-95.286,22.023-95.286
			S462.239,907.279,465.846,927.858z"/>
		<path fill="#FFB27D" d="M482.792,828.628c0,0-41.268,4.078-44.576,30.893c-3.309,26.815,39.565,136.033,45.705,145.923
			c11.179,18.005,77,79.721,77,79.721l12.13-7.354c0,0-46.687-79.037-53.916-86.434
			C507.787,979.765,496.766,837.917,482.792,828.628z"/>
		<path fill="#BC5115" d="M439.407,875.653c0.107,0.609,38.085,12.406,62.525,0c0,0,5.23-56.391-23.947-53.33
			c-29.179,3.06-46.458,12.25-47.192,26.22C430.058,862.512,439.407,875.653,439.407,875.653z"/>
		<path fill="#FFB27D" d="M557.169,1077.325c0,0,14.804-13.596,21.195-13.919s25.413,1.938,26.071,4.571
			c0.657,2.635-19.536,7.643-20.67,9.328c-1.135,1.685-13.518,13.229-19.029,11.144
			C559.224,1086.363,557.169,1077.325,557.169,1077.325z"/>
	</g>
	<g>
		<path fill="#E06236" d="M1247.445,534.254c-7.156,5.042-14.97,9.348-23.364,12.767c-1.61-0.076-3.211-0.153-4.811-0.22
			c-0.822-0.032-1.645-0.076-2.466-0.098c-5.151-0.208-10.235-0.34-15.222-0.417c-2.478-0.044-4.932-0.076-7.354-0.087
			c-10.214-0.055-19.999,0.109-29.271,0.449c-2.497,0.076-4.952,0.175-7.374,0.285c-1.93,0.087-3.814,0.185-5.688,0.273
			c-0.416,0.021-0.833,0.044-1.249,0.076c-4.132,0.232-8.121,0.472-11.989,0.746c-0.076,0.011-0.163,0.011-0.241,0.021
			c-8.383-3.199-16.395-7.342-23.867-12.372c-20.614-13.863-37.161-34.389-46.126-59.879c-8.022-22.828-8.866-46.498-3.715-68.438
			c5.304-22.608,16.975-43.386,33.697-59.54c11.596-11.211,25.622-20.196,41.655-26.026c17.336-6.311,35.167-8.253,52.316-6.389
			c11.869,1.271,23.408,4.372,34.257,9.107c11.311,4.942,21.853,11.648,31.2,19.935c14.784,13.096,26.564,30.103,33.633,50.213
			C1309.91,447.12,1290.426,503.985,1247.445,534.254z"/>
		<path fill="#DCE4FF" d="M1275.385,399.691c-19.329-54.973-78.809-83.599-132.855-63.939
			c-54.045,19.659-82.188,80.159-62.861,135.132c19.328,54.972,78.81,83.598,132.856,63.939
			C1266.568,515.163,1294.712,454.663,1275.385,399.691z"/>
		<path fill="#E06236" d="M1035.537,356.033c-13.146,23.226-6.438,52.543,14.745,67.624c1.991,1.417,4.751,0.791,5.963-1.351
			l46.038-81.33c1.213-2.143,0.359-4.884-1.846-5.924C1076.979,323.99,1048.684,332.808,1035.537,356.033z"/>
		<path fill="#F77D48" d="M1275.442,343.453c-1.094,4.17-5.753,6.239-9.614,4.544l-71.783-31.852
			c-0.059-0.028-0.117-0.057-0.117-0.057l-6.579-2.908c-3.921-1.726-5.563-6.602-3.308-10.244
			c13.124-20.912,39.617-29.621,62.703-19.415c12.423,5.532,21.616,15.555,26.452,27.388
			C1277.29,321.022,1278.257,332.403,1275.442,343.453z"/>
		<g>
			<g>
				<path fill="#233862" d="M1257.042,447.183c2.729,0.463,4.571,3.091,4.114,5.865c-0.456,2.775-3.038,4.649-5.768,4.186
					c-2.728-0.465-4.571-3.091-4.115-5.867C1251.73,448.591,1254.313,446.717,1257.042,447.183z"/>
			</g>
			<g>
				<path fill="#233862" d="M1145.342,362.185c-0.943-2.646,0.401-5.568,3.003-6.527c2.602-0.958,5.475,0.409,6.417,3.055
					c0.942,2.646-0.402,5.569-3.004,6.527C1149.156,366.198,1146.283,364.83,1145.342,362.185z"/>
				<path fill="#233862" d="M1199.372,513.862c-0.943-2.645,0.401-5.567,3.002-6.526c2.602-0.959,5.476,0.409,6.418,3.055
					c0.942,2.647-0.402,5.569-3.004,6.527C1203.187,517.877,1200.313,516.51,1199.372,513.862z"/>
			</g>
			<path fill="#233862" d="M1188.774,356.345c0.58-2.752,3.243-4.505,5.949-3.915c2.705,0.589,4.429,3.298,3.849,6.05
				c-0.578,2.752-3.241,4.505-5.947,3.916C1189.918,361.806,1188.195,359.098,1188.774,356.345z"/>
			<path fill="#233862" d="M1110.426,384.455c0.579-2.752,3.242-4.505,5.947-3.915c2.705,0.589,4.43,3.297,3.85,6.049
				c-0.579,2.752-3.242,4.506-5.947,3.916C1111.569,389.916,1109.846,387.207,1110.426,384.455z"/>
			<path fill="#233862" d="M1155.561,514.097c0.579-2.752,3.242-4.505,5.947-3.916c2.706,0.59,4.43,3.298,3.85,6.05
				c-0.579,2.751-3.242,4.505-5.947,3.916C1156.705,519.557,1154.98,516.849,1155.561,514.097z"/>
			<path fill="#233862" d="M1225.055,371.866c1.808-2.131,4.97-2.37,7.066-0.531c2.096,1.838,2.329,5.054,0.522,7.187
				c-1.807,2.132-4.97,2.37-7.065,0.532C1223.482,377.216,1223.249,373.997,1225.055,371.866z"/>
			<path fill="#233862" d="M1097.48,417.638c1.807-2.133,4.97-2.37,7.065-0.533c2.097,1.838,2.331,5.057,0.523,7.188
				c-1.806,2.131-4.971,2.37-7.065,0.532C1095.908,422.986,1095.673,419.77,1097.48,417.638z"/>
			<path fill="#233862" d="M1121.489,494.054c1.807-2.131,4.97-2.369,7.065-0.531c2.096,1.838,2.33,5.055,0.523,7.188
				c-1.807,2.131-4.971,2.369-7.065,0.531C1119.917,499.403,1119.683,496.186,1121.489,494.054z"/>
			<g>
				<path fill="#233862" d="M1249.921,404.018c2.602-0.957,5.474,0.41,6.417,3.056c0.942,2.646-0.402,5.568-3.004,6.527
					c-2.602,0.959-5.475-0.41-6.417-3.055C1245.975,407.899,1247.319,404.978,1249.921,404.018z"/>
				<path fill="#233862" d="M1100.799,458.976c2.602-0.96,5.475,0.408,6.417,3.055c0.942,2.646-0.403,5.568-3.004,6.527
					c-2.601,0.958-5.474-0.409-6.417-3.056C1096.853,462.857,1098.197,459.934,1100.799,458.976z"/>
			</g>
			<g>
				<path fill="#233862" d="M1239.575,483.223c2.092,1.843,2.317,5.06,0.507,7.188c-1.812,2.126-4.976,2.358-7.067,0.516
					c-2.092-1.843-2.318-5.062-0.507-7.188C1234.319,481.611,1237.483,481.381,1239.575,483.223z"/>
			</g>
		</g>
		<path fill="#F77D48" d="M1128.336,451.946c14.801-6.494,43.508-19.153,43.508-19.153l2.909,8.166l-45.974,12.31
			C1127.853,453.517,1127.456,452.332,1128.336,451.946z"/>
		<path fill="#233862" d="M1159.7,381.968c9.04,22.373,21.38,52.841,21.38,52.841l-8.029,2.958l-15.789-54.97
			C1156.547,380.308,1158.729,379.566,1159.7,381.968z"/>
		<path fill="#E06236" d="M1275.442,343.453c-1.094,4.17-5.753,6.239-9.614,4.544l-71.783-31.852
			c2.215,0.747,37.856,13.208,55.776,8.518c17.556-4.607,22.88-12.93,23.375-13.754
			C1277.29,321.022,1278.257,332.403,1275.442,343.453z"/>
		<path fill="#E06236" d="M1169.618,439.032c-1.49-4.184,0.636-8.805,4.75-10.32c4.113-1.517,8.655,0.647,10.148,4.83
			c1.489,4.186-0.637,8.806-4.75,10.321C1175.651,445.38,1171.108,443.217,1169.618,439.032z"/>
	</g>
	<g>
		<path fill="#233862" d="M1304.289,549.169c-0.582,3.287-3.321,5.654-6.51,5.896c-0.592,0.032-1.194,0.011-1.798-0.1
			c-20.449-3.628-40.723-5.918-60.196-7.255c-3.934-0.273-7.847-0.493-11.704-0.69c-1.61-0.076-3.211-0.153-4.811-0.22
			c-0.822-0.032-1.645-0.076-2.466-0.098c-5.151-0.208-10.235-0.34-15.222-0.417c-2.478-0.044-4.932-0.076-7.354-0.087
			c-10.214-0.055-19.999,0.109-29.271,0.449c-2.497,0.076-4.952,0.175-7.374,0.285c-1.93,0.087-3.814,0.185-5.688,0.273
			c-0.416,0.021-0.833,0.044-1.249,0.076c-4.132,0.232-8.121,0.472-11.989,0.746c-0.076,0.011-0.163,0.011-0.241,0.021
			c-36.219,2.576-59.681,6.937-60.174,7.036c-3.891,0.733-7.639-1.819-8.384-5.71c-0.735-3.891,1.808-7.638,5.698-8.372
			c0.811-0.154,15.244-2.872,38.992-5.326c1.972-0.198,4.011-0.405,6.114-0.604c1.052-0.098,2.126-0.196,3.211-0.295
			c2.115-0.188,4.285-0.373,6.521-0.548c0.657-0.056,1.327-0.121,2.006-0.165c0.997-0.076,2.006-0.164,3.035-0.229
			c1.25-0.099,2.51-0.186,3.791-0.274c1.557-0.109,3.135-0.219,4.735-0.318c2.937-0.185,5.994-0.35,9.161-0.504
			c18.554-0.932,40.92-1.337,65.424-0.328c1.491,0.065,2.992,0.132,4.504,0.208c1.008,0.055,2.017,0.099,3.036,0.153
			c2.421,0.121,4.854,0.263,7.32,0.428c1.118,0.064,2.235,0.143,3.364,0.219c0.372,0.023,0.767,0.055,1.15,0.077
			c3.146,0.229,6.323,0.471,9.524,0.756c4.866,0.405,9.798,0.888,14.762,1.436c11.901,1.305,24.044,3.002,36.273,5.173
			C1302.382,541.553,1304.979,545.268,1304.289,549.169z"/>
	</g>
	<g>
		<path fill="#6B5445" d="M1303.949,465.259c-3.556-3.064-11.631-9.83-12.209-8.553c-0.416,0.918-0.111,2.576,0.765,4.357
			c-5.044-2.463-10.233-4.262-23.033-3.065c-2.563,0.238-4.983,1.446-6.577,3.469c-1.473,1.871-2.194,4.317,0.818,6.622
			c6.025,4.61,4.398,2.041,12.747,8.711c8.349,6.671,19.115,9.211,26.03,5.769l8.89-0.609l2.48-14.285
			C1313.86,467.674,1308.932,466.596,1303.949,465.259z"/>
		<path fill="#6B5445" d="M1513.408,357.232c0,0-18.807,22.312-42.755,12.978c0,0-5.152-12.46-5.226-21.645
			c-0.008-1.13-0.023-2.227-0.039-3.269c-0.129-10.343-0.477-16.146-0.477-16.146s0.007-0.003,0.024-0.006
			c1.09-0.454,36.61-15.038,36.581-13.826C1500.907,343.292,1513.408,357.232,1513.408,357.232z"/>
		<path fill="#4F3E34" d="M1497.95,321.988c-3.426,6.349-15.179,18.77-32.562,23.308c-0.129-10.343-0.477-16.146-0.477-16.146
			s0.007-0.003,0.024-0.006C1465.918,328.88,1498.969,320.116,1497.95,321.988z"/>
		<path fill="#6B5445" d="M1457.473,328.075c0,0,39.947,9.39,45.412-15.576c5.466-24.967,14.302-40.569-10.972-47.622
			c-25.275-7.051-32.331,1.387-36.183,9.277C1451.879,282.044,1447.222,324.987,1457.473,328.075z"/>
		<path fill="#233862" d="M1501.519,319.301c0.545,0.351,9.141,2.99,25.418-29.438c2.556-5.091,4.297-16.103-1.66-25.833
			c-5.956-9.73-27.077-17.381-44.624-20.711c-17.548-3.329-21.761,6.545-25.894,16.469c-4.338,10.416-16.865,18.993-16.865,18.993
			c15.132,8.453,33.357-3.637,39.671-1.648c6.314,1.988,8.545,11.938,9.018,15.128c0.475,3.19,1.203,5.841,9.143,2.992
			c7.939-2.848,3.59,11.252,2.318,13.948C1498.043,309.201,1496.964,316.384,1501.519,319.301z"/>
		<g>
			<path fill="#02070F" d="M1544.609,940.277h24.19c5.07,0,10.705-5.078,12.116-14.372c1.41-9.302,11.833-14.373,14.089-21.981
				c2.257-7.61-9.301-18.322-9.301-18.322l-1.933-2.482l-2.011-2.588l-19.159,4.506c0,0-0.473,4.563-0.77,10.374
				c-0.204,4.195-0.318,9.047-0.077,13.3c0.564,10.148-2.842,21.071-11.854,23.047
				C1540.88,933.733,1544.609,940.277,1544.609,940.277z"/>
			<path fill="#02070F" d="M1436.347,940.867c0,0,66.839-0.212,67.121-0.352c4.281-2.144,0.984-17.518,0.471-22.582
				c-0.099-0.938-0.17-1.487-0.17-1.487s-22.545-18.032-25.648-4.225c-0.099,0.431-0.211,0.854-0.331,1.269v0.007
				c-3.914,12.92-21.41,18.787-31.516,20.423C1438.551,935.176,1436.861,938.618,1436.347,940.867z"/>
			<path fill="#B2AA9B" d="M1448.957,572.18c0,0,3.424,42.721,7.448,94.072c5.47,69.759,12.048,155.444,12.698,171.677
				c1.125,28.188,5.64,73.275,5.64,73.275s10.703,10.711,32.126,6.196c0,0,19.091-64.363,24.544-132.465
				c0.084-1.116,0.169-2.239,0.253-3.364c5.073-69.326,12.961-215.31,12.961-215.31L1448.957,572.18z"/>
			<path fill="#898379" d="M1448.957,572.18c0,0,3.424,42.721,7.448,94.072l75.008,118.684c0.084-1.116,0.169-2.239,0.253-3.364
				c5.073-69.326,12.961-215.31,12.961-215.31L1448.957,572.18z"/>
			<path fill="#B2AA9B" d="M1470.29,563.066c0,0,34.661,142.92,61.123,221.869c26.462,78.95,27.576,117.172,27.576,117.172
				s29.991-5.859,33.239-11.7c0,0,10.275-135.215-10.118-173.861c-11.523-21.838-9.577-72.438-9.577-95.491
				c0-42.707-13.329-85.119-13.329-85.119L1470.29,563.066z"/>
		</g>
		<path fill="#6B5445" d="M1605.342,549.143l0.653,9.951c0,0-6.563,17.676,11.824,26.743c0,0,7.87,3.175,8.19-2.953
			c0.318-6.126-0.688-3.821-0.049-12.45c0.639-8.629-2.753-16.783-8.46-19.528l-4.683-5.403L1605.342,549.143z"/>
		<path fill="#6D2222" d="M1612.523,556.388c-6.831,2.192-7.926,1.696-7.926,1.696s-33.249-60.533-36.617-66.075
			c-3.367-5.541-70.594-67.882-70.594-67.882l17.276-64.423c0,0,76.462,99.015,84.719,113.222
			c13.646,23.478,21.64,78.005,21.64,78.005S1617.889,554.664,1612.523,556.388z"/>
		<path fill="#913030" d="M1435.928,449.421c0.24,13.229,1.008,28.102,2.045,43.208c0.063,0.895,0.127,1.791,0.19,2.686
			c0.663,9.358,1.383,18.737,2.207,27.884c0.332,3.667,0.685,7.292,1.051,10.853l0.057,0.48c0.028,1.333,0.19,2.777,0.339,4.097
			c3.371,34.259,6.903,61.325,7.561,61.741c0.781,0.522,1.663,0.783,2.629,0.67c8.984-1.129,35.789,0.91,57.735-3.864
			c18.52-3.907,34.464-11.311,51.361-21.298c2.242-1.326,7.354-4.837,6.938-7.46c-0.408-2.885-1.163-7.053-2.122-12.293
			c-3.329-18.222-9.076-49.568-11.037-86.254c-0.38-6.833-0.938-13.582-1.657-20.218c-1.883-17.284-4.9-33.702-8.949-48.286
			c-7.525-27.094-18.582-47.842-32.453-55.958c-1.813-1.016-11.565,5.19-20.522,10.938c-8.271,5.304-16.981,6.771-25.449,6.029
			l-7.455,8.244c-9.026,10.493-18.639,24.464-21.262,44.322c-0.198,1.467-0.367,3.025-0.508,4.684
			C1435.898,427.714,1435.723,437.954,1435.928,449.421z"/>
		<path fill="#6D2222" d="M1435.928,449.421c0.24,13.229,1.008,28.102,2.045,43.208c0.063,0.895,0.127,1.791,0.19,2.686
			c51.317-32.123,59.224-90.901,59.224-90.901c-25.246,1.106-45.303,6.911-60.761,15.212
			C1435.898,427.714,1435.723,437.954,1435.928,449.421z"/>
		<path fill="#913030" d="M1306.265,474.723c-0.529-7.611,3.412-8.878,3.412-8.878s77.375-14.021,83.952-16.091
			c6.578-2.07,62.822-60.578,62.822-60.578s21.558-24.313,39.21-18.943c15.34,4.665,21.335,16.631,23.378,28.029
			c2.432,13.583-3.83,27.252-15.593,34.467c-26.405,16.196-79.269,48.106-91.718,51.757c-27.71,8.124-102.158,0.65-102.158,0.65
			S1306.68,480.701,1306.265,474.723z"/>
	</g>
	<path fill="#E06236" d="M1296.753,455.286c0,0-0.131,2.187-0.749,4.139c-0.431,1.358-1.917,2.102-3.499,1.639
		c-3.715-1.092-4.263-6.297-4.263-6.297l4.93-2.191L1296.753,455.286z"/>
	<g>
		<g>
			<g>
				<path fill="#FFB93E" d="M1949.024,1312.688v11.114c0,0.882-0.322,1.705-0.875,2.39c-0.579,0.718-1.416,1.284-2.39,1.6
					c-0.304,0.105-0.613,0.179-0.935,0.224c-0.297,0.046-0.592,0.066-0.902,0.066h-210.756c-2.548,0-4.675-1.587-5.049-3.641
					c-0.021-0.139-0.04-0.277-0.047-0.422c0-0.072-0.007-0.145-0.007-0.217v-11.114c0-0.071,0.007-0.145,0.007-0.216
					c0.007-0.146,0.026-0.284,0.047-0.422c0.374-2.055,2.501-3.642,5.049-3.642h210.756c0.311,0,0.606,0.021,0.902,0.065
					c0.322,0.047,0.632,0.126,0.935,0.225c0.974,0.315,1.811,0.883,2.39,1.6C1948.702,1310.982,1949.024,1311.806,1949.024,1312.688
					z"/>
				<path fill="#FFA412" d="M1845.533,1328.081h-112.914c-2.091,0-3.854-1.352-4.379-3.169c-0.051-0.155-0.095-0.312-0.123-0.472
					c-0.021-0.139-0.04-0.277-0.047-0.422c0-0.072-0.007-0.145-0.007-0.217v-11.114c0-0.071,0.007-0.145,0.007-0.216
					c0.007-0.146,0.026-0.284,0.047-0.422c0.028-0.161,0.072-0.317,0.123-0.472c0.525-1.817,2.288-3.17,4.379-3.17h99.048
					C1833.247,1314.202,1836.934,1322.208,1845.533,1328.081z"/>
				<g>
					<rect x="1920.982" y="1308.408" fill="#FFA412" width="2.395" height="19.675"/>
					<rect x="1912.874" y="1308.408" fill="#FFA412" width="2.395" height="19.675"/>
					<rect x="1903.151" y="1308.408" fill="#FFA412" width="2.395" height="19.675"/>
					<rect x="1888.247" y="1308.408" fill="#FFA412" width="2.395" height="19.675"/>
					<rect x="1872.486" y="1308.408" fill="#FFA412" width="2.395" height="19.675"/>
					<rect x="1848.326" y="1308.408" fill="#FFA412" width="2.395" height="19.675"/>
					<rect x="1825.703" y="1308.408" fill="#FFA412" width="2.395" height="19.675"/>
					<rect x="1805.503" y="1308.408" fill="#FFA412" width="2.395" height="19.675"/>
					<rect x="1928.701" y="1308.408" fill="#FFA412" width="2.395" height="19.675"/>
					<rect x="1933.8" y="1308.408" fill="#FFA412" width="2.395" height="19.675"/>
					<rect x="1938.723" y="1308.408" fill="#FFA412" width="2.395" height="19.675"/>
					<path fill="#FFA412" d="M1944.823,1308.476v19.539c-0.293,0.045-0.592,0.067-0.899,0.067h-1.496v-19.675h1.496
						C1944.231,1308.407,1944.53,1308.431,1944.823,1308.476z"/>
					<path fill="#FFA412" d="M1948.149,1310.299v15.893c-0.58,0.72-1.415,1.285-2.394,1.603v-19.098
						C1946.734,1309.013,1947.569,1309.579,1948.149,1310.299z"/>
				</g>
			</g>
			<g>
				<path fill="#FFB93E" d="M1926.488,1293.016v11.107c0,0.889-0.322,1.711-0.869,2.396c-0.145,0.179-0.31,0.349-0.481,0.507
					c-0.526,0.475-1.179,0.856-1.916,1.094c-0.296,0.099-0.612,0.171-0.935,0.217c-0.29,0.046-0.593,0.072-0.896,0.072H1710.63
					c-2.541,0-4.668-1.593-5.043-3.647c-0.021-0.139-0.04-0.275-0.046-0.414c-0.008-0.073-0.008-0.145-0.008-0.224v-11.107
					c0-0.073,0-0.152,0.008-0.224c0.006-0.139,0.025-0.277,0.046-0.415c0.375-2.054,2.502-3.647,5.043-3.647h210.763
					c0.131,0,0.27,0.007,0.401,0.02c0.053,0,0.099,0.007,0.144,0.014c0.007-0.007,0.02-0.007,0.026,0c0.06,0,0.125,0.006,0.191,0.02
					c0.047,0.006,0.085,0.014,0.132,0.02c0.322,0.046,0.639,0.119,0.935,0.218c0.178,0.059,0.349,0.125,0.514,0.197h0.006
					c0.112,0.052,0.225,0.105,0.33,0.157c0.059,0.033,0.125,0.073,0.184,0.106c0.06,0.032,0.119,0.065,0.171,0.104
					c0.224,0.133,0.429,0.283,0.619,0.455c0.065,0.052,0.119,0.111,0.178,0.164c0.04,0.032,0.073,0.065,0.105,0.099
					c0.02,0.021,0.04,0.04,0.053,0.06l0.046,0.046c0.065,0.065,0.133,0.139,0.191,0.218
					C1926.166,1291.311,1926.488,1292.127,1926.488,1293.016z"/>
				<path fill="#FFA412" d="M1822.997,1308.408h-112.914c-2.093,0-3.851-1.358-4.374-3.178c-0.05-0.153-0.094-0.31-0.122-0.47
					c-0.021-0.139-0.04-0.275-0.046-0.414c-0.008-0.073-0.008-0.145-0.008-0.224v-11.107c0-0.073,0-0.152,0.008-0.224
					c0.006-0.139,0.025-0.277,0.046-0.415c0.028-0.16,0.072-0.315,0.122-0.47c0.523-1.819,2.281-3.178,4.374-3.178h99.048
					c0.039,0.165,0.086,0.323,0.139,0.487C1810.922,1294.964,1814.635,1302.7,1822.997,1308.408z"/>
				<g>
					<rect x="1898.449" y="1288.731" fill="#FFA412" width="2.395" height="19.676"/>
					<rect x="1890.34" y="1288.731" fill="#FFA412" width="2.395" height="19.676"/>
					<rect x="1880.617" y="1288.731" fill="#FFA412" width="2.395" height="19.676"/>
					<rect x="1865.713" y="1288.731" fill="#FFA412" width="2.395" height="19.676"/>
					<rect x="1849.953" y="1288.731" fill="#FFA412" width="2.395" height="19.676"/>
					<rect x="1825.791" y="1288.731" fill="#FFA412" width="2.395" height="19.676"/>
					<rect x="1803.168" y="1288.731" fill="#FFA412" width="2.397" height="19.676"/>
					<rect x="1782.968" y="1288.731" fill="#FFA412" width="2.396" height="19.676"/>
					<rect x="1906.167" y="1288.731" fill="#FFA412" width="2.395" height="19.676"/>
					<rect x="1911.265" y="1288.731" fill="#FFA412" width="2.397" height="19.676"/>
					<rect x="1916.189" y="1288.731" fill="#FFA412" width="2.395" height="19.676"/>
					<path fill="#FFA412" d="M1922.289,1288.8v19.539c-0.293,0.045-0.592,0.067-0.898,0.067h-1.497v-19.676h1.497
						C1921.697,1288.73,1921.996,1288.755,1922.289,1288.8z"/>
					<path fill="#FFA412" d="M1925.615,1290.623v15.893c-0.581,0.72-1.414,1.285-2.393,1.603v-19.098
						C1924.201,1289.337,1925.034,1289.902,1925.615,1290.623z"/>
				</g>
			</g>
			<g>
				<path fill="#FFB93E" d="M1937.378,1273.824v11.112c0,0.883-0.322,1.705-0.876,2.391c-0.578,0.717-1.408,1.283-2.39,1.6
					c-0.297,0.099-0.612,0.172-0.935,0.224c-0.29,0.04-0.593,0.066-0.896,0.066H1721.52c-0.843,0-1.646-0.178-2.351-0.487
					c-1.396-0.612-2.423-1.758-2.687-3.108c-0.02-0.092-0.025-0.184-0.039-0.275c-0.006-0.06-0.014-0.126-0.014-0.191
					c-0.006-0.072-0.006-0.145-0.006-0.218v-11.112c0-0.073,0-0.146,0.006-0.218c0.008-0.139,0.021-0.284,0.047-0.415
					c0.375-2.061,2.501-3.647,5.043-3.647h210.763c0.303,0,0.605,0.02,0.896,0.066c0.322,0.046,0.638,0.117,0.935,0.217
					c0.981,0.322,1.812,0.889,2.39,1.606C1937.056,1272.119,1937.378,1272.941,1937.378,1273.824z"/>
				<path fill="#FFA412" d="M1833.887,1289.217h-112.914c-0.757,0-1.469-0.178-2.093-0.487c-1.252-0.612-2.166-1.758-2.397-3.108
					c-0.02-0.092-0.025-0.184-0.039-0.275c-0.006-0.06-0.014-0.126-0.014-0.191c-0.006-0.072-0.006-0.145-0.006-0.218v-11.112
					c0-0.073,0-0.146,0.006-0.218c0.008-0.139,0.021-0.284,0.047-0.415c0.027-0.156,0.07-0.308,0.117-0.458
					c0.516-1.83,2.281-3.189,4.379-3.189h99.048c1.541,5.63,5.069,13.365,13.175,19.186
					C1833.419,1288.895,1833.648,1289.059,1833.887,1289.217z"/>
				<g>
					<rect x="1909.339" y="1269.542" fill="#FFA412" width="2.395" height="19.675"/>
					<rect x="1901.229" y="1269.542" fill="#FFA412" width="2.395" height="19.675"/>
					<rect x="1891.506" y="1269.542" fill="#FFA412" width="2.397" height="19.675"/>
					<rect x="1876.603" y="1269.542" fill="#FFA412" width="2.395" height="19.675"/>
					<rect x="1860.843" y="1269.542" fill="#FFA412" width="2.396" height="19.675"/>
					<rect x="1836.682" y="1269.542" fill="#FFA412" width="2.395" height="19.675"/>
					<rect x="1814.059" y="1269.542" fill="#FFA412" width="2.395" height="19.675"/>
					<rect x="1793.859" y="1269.542" fill="#FFA412" width="2.395" height="19.675"/>
					<rect x="1917.057" y="1269.542" fill="#FFA412" width="2.395" height="19.675"/>
					<rect x="1922.156" y="1269.542" fill="#FFA412" width="2.395" height="19.675"/>
					<rect x="1927.079" y="1269.542" fill="#FFA412" width="2.395" height="19.675"/>
					<path fill="#FFA412" d="M1933.18,1269.609v19.538c-0.294,0.045-0.593,0.069-0.9,0.069h-1.496v-19.676h1.496
						C1932.587,1269.541,1932.886,1269.564,1933.18,1269.609z"/>
					<path fill="#FFA412" d="M1936.506,1271.433v15.893c-0.582,0.719-1.416,1.285-2.394,1.603v-19.099
						C1935.09,1270.146,1935.924,1270.713,1936.506,1271.433z"/>
				</g>
			</g>
			<g>
				<path fill="#FFB93E" d="M1942.428,1254.151v11.107c0,0.888-0.323,1.705-0.875,2.39c-0.073,0.091-0.152,0.178-0.231,0.263
					c-0.4,0.428-0.895,0.79-1.454,1.061c-0.225,0.105-0.461,0.204-0.705,0.283c-0.303,0.099-0.612,0.17-0.936,0.217
					c-0.144,0.02-0.289,0.04-0.44,0.053c-0.151,0.013-0.31,0.02-0.461,0.02h-210.756c-2.548,0-4.675-1.593-5.05-3.647
					c-0.02-0.139-0.04-0.276-0.046-0.415v-11.555c0.131-2.087,2.054-3.785,4.49-4.029c0.197-0.02,0.401-0.033,0.606-0.033h210.756
					c0.151,0,0.309,0.008,0.461,0.02c0.151,0.014,0.296,0.027,0.44,0.054c0.323,0.046,0.633,0.118,0.936,0.217
					c0.975,0.316,1.811,0.883,2.391,1.601C1942.104,1252.439,1942.428,1253.263,1942.428,1254.151z"/>
				<path fill="#FFA412" d="M1838.937,1269.544h-112.914c-2.092,0-3.855-1.357-4.38-3.176c-0.051-0.155-0.094-0.312-0.123-0.472
					c-0.02-0.139-0.04-0.276-0.046-0.415v-11.555c0.118-2.08,1.837-3.785,4.009-4.029c0.178-0.02,0.355-0.033,0.54-0.033h99.048
					c0,0.014,0.007,0.02,0.007,0.033C1826.664,1255.686,1830.351,1263.678,1838.937,1269.544z"/>
				<g>
					<rect x="1914.387" y="1249.865" fill="#FFA412" width="2.395" height="19.676"/>
					<rect x="1906.278" y="1249.865" fill="#FFA412" width="2.395" height="19.676"/>
					<rect x="1896.555" y="1249.865" fill="#FFA412" width="2.395" height="19.676"/>
					<rect x="1881.65" y="1249.865" fill="#FFA412" width="2.395" height="19.676"/>
					<rect x="1865.891" y="1249.865" fill="#FFA412" width="2.395" height="19.676"/>
					<rect x="1841.729" y="1249.865" fill="#FFA412" width="2.395" height="19.676"/>
					<rect x="1819.107" y="1249.865" fill="#FFA412" width="2.395" height="19.676"/>
					<rect x="1798.906" y="1249.865" fill="#FFA412" width="2.395" height="19.676"/>
					<rect x="1922.104" y="1249.865" fill="#FFA412" width="2.395" height="19.676"/>
					<rect x="1927.203" y="1249.865" fill="#FFA412" width="2.395" height="19.676"/>
					<rect x="1932.128" y="1249.865" fill="#FFA412" width="2.395" height="19.676"/>
					<path fill="#FFA412" d="M1938.226,1249.934v19.538c-0.293,0.045-0.592,0.068-0.898,0.068h-1.496v-19.675h1.496
						C1937.635,1249.865,1937.934,1249.889,1938.226,1249.934z"/>
					<path fill="#FFA412" d="M1941.554,1251.757v15.893c-0.581,0.719-1.415,1.285-2.394,1.603v-19.099
						C1940.139,1250.471,1940.973,1251.037,1941.554,1251.757z"/>
				</g>
			</g>
			<g>
				<path fill="#FFB93E" d="M1926.93,1234.505v11.106c0,0.89-0.316,1.705-0.869,2.391c-0.58,0.724-1.416,1.29-2.397,1.606
					c-0.296,0.099-0.611,0.171-0.928,0.217c-0.099,0.02-0.198,0.033-0.297,0.039h-0.038c-0.053,0.008-0.106,0.014-0.159,0.014
					c-0.046,0.006-0.085,0.006-0.138,0.014c-0.092,0-0.178,0.006-0.271,0.006h-210.755c-2.72,0-4.958-1.811-5.097-4.062
					c-0.007-0.073-0.007-0.146-0.007-0.225v-11.106c0-0.073,0-0.152,0.007-0.224c0-0.06,0.007-0.119,0.013-0.178
					c0.205-1.811,1.771-3.312,3.826-3.747c0.046-0.014,0.099-0.025,0.151-0.033c0.354-0.065,0.725-0.105,1.107-0.105h210.755
					c0.158,0,0.303,0.008,0.455,0.021c0.065,0.007,0.131,0.014,0.19,0.02c0.006,0,0.006,0,0.014,0h0.006
					c0.079,0.007,0.158,0.02,0.237,0.033c0.316,0.046,0.632,0.118,0.928,0.218c0.981,0.316,1.817,0.882,2.397,1.606
					C1926.613,1232.8,1926.93,1233.616,1926.93,1234.505z"/>
				<path fill="#FFA412" d="M1823.438,1249.897H1710.53c-2.429,0-4.424-1.811-4.549-4.062c-0.007-0.073-0.007-0.146-0.007-0.225
					v-11.106c0-0.073,0-0.152,0.007-0.224c0-0.06,0.007-0.119,0.013-0.178c0.186-1.857,1.64-3.371,3.535-3.772
					c0.061-0.021,0.126-0.033,0.191-0.04c0.264-0.046,0.534-0.073,0.809-0.073h99.042c0.013,0.054,0.026,0.093,0.039,0.146
					c1.6,5.768,5.287,13.681,13.78,19.501C1823.404,1249.878,1823.425,1249.884,1823.438,1249.897z"/>
				<g>
					<rect x="1898.892" y="1230.221" fill="#FFA412" width="2.395" height="19.676"/>
					<rect x="1890.783" y="1230.221" fill="#FFA412" width="2.395" height="19.676"/>
					<rect x="1881.061" y="1230.221" fill="#FFA412" width="2.395" height="19.676"/>
					<rect x="1866.156" y="1230.221" fill="#FFA412" width="2.395" height="19.676"/>
					<rect x="1850.396" y="1230.221" fill="#FFA412" width="2.395" height="19.676"/>
					<rect x="1826.234" y="1230.221" fill="#FFA412" width="2.395" height="19.676"/>
					<rect x="1803.612" y="1230.221" fill="#FFA412" width="2.395" height="19.676"/>
					<rect x="1783.412" y="1230.221" fill="#FFA412" width="2.395" height="19.676"/>
					<rect x="1906.609" y="1230.221" fill="#FFA412" width="2.397" height="19.676"/>
					<rect x="1911.709" y="1230.221" fill="#FFA412" width="2.395" height="19.676"/>
					<rect x="1916.633" y="1230.221" fill="#FFA412" width="2.395" height="19.676"/>
					<path fill="#FFA412" d="M1922.732,1230.289v19.538c-0.293,0.045-0.592,0.068-0.899,0.068h-1.497v-19.676h1.497
						C1922.141,1230.22,1922.439,1230.244,1922.732,1230.289z"/>
					<path fill="#FFA412" d="M1926.059,1232.111v15.894c-0.58,0.72-1.415,1.284-2.394,1.603v-19.098
						C1924.644,1230.826,1925.479,1231.393,1926.059,1232.111z"/>
				</g>
			</g>
			<g>
				<path fill="#FFB93E" d="M1926.488,1214.971v11.106c0,0.889-0.322,1.705-0.869,2.391c-0.145,0.178-0.31,0.348-0.481,0.514
					c-0.526,0.473-1.179,0.855-1.916,1.092c-0.236,0.079-0.48,0.139-0.725,0.185h-0.006c-0.008,0-0.008,0-0.014,0
					c-0.065,0.014-0.125,0.027-0.19,0.033c-0.29,0.046-0.593,0.072-0.896,0.072H1710.63c-0.218,0-0.442-0.013-0.658-0.04
					c-0.086-0.006-0.172-0.019-0.251-0.032c-2.146-0.329-3.838-1.798-4.141-3.62c-0.019-0.126-0.033-0.245-0.039-0.37
					c-0.008-0.079-0.008-0.15-0.008-0.224v-11.106c0-0.08,0-0.151,0.008-0.225c0.006-0.138,0.025-0.276,0.046-0.414
					c0.375-2.055,2.502-3.647,5.043-3.647h210.763c0.131,0,0.27,0.006,0.401,0.013c0.019,0,0.039,0.007,0.053,0.007
					c0.04,0.007,0.079,0.007,0.118,0.007c0.06,0.007,0.125,0.013,0.191,0.025c0.047,0,0.085,0.008,0.132,0.021
					c0.322,0.046,0.639,0.118,0.935,0.217c0.178,0.06,0.349,0.125,0.514,0.197h0.006c0.659,0.291,1.231,0.698,1.686,1.186
					c0.065,0.072,0.133,0.145,0.191,0.218C1926.166,1213.259,1926.488,1214.081,1926.488,1214.971z"/>
				<path fill="#FFA412" d="M1822.997,1230.363h-112.914c-0.085,0-0.178-0.007-0.263-0.007c-0.1-0.006-0.198-0.02-0.291-0.025
					c-2.04-0.244-3.673-1.759-3.949-3.66c-0.019-0.126-0.033-0.245-0.039-0.37c-0.008-0.079-0.008-0.15-0.008-0.224v-11.106
					c0-0.08,0-0.151,0.008-0.225c0.006-0.138,0.025-0.276,0.046-0.414c0.028-0.16,0.072-0.316,0.122-0.47
					c0.523-1.819,2.281-3.178,4.374-3.178h99.048c0.039,0.164,0.086,0.322,0.139,0.486c1.639,5.702,5.307,13.353,13.522,19.047
					C1822.859,1230.271,1822.931,1230.311,1822.997,1230.363z"/>
				<g>
					<rect x="1898.449" y="1210.687" fill="#FFA412" width="2.395" height="19.675"/>
					<rect x="1890.34" y="1210.687" fill="#FFA412" width="2.395" height="19.675"/>
					<rect x="1880.617" y="1210.687" fill="#FFA412" width="2.395" height="19.675"/>
					<rect x="1865.713" y="1210.687" fill="#FFA412" width="2.395" height="19.675"/>
					<rect x="1849.953" y="1210.687" fill="#FFA412" width="2.395" height="19.675"/>
					<rect x="1825.791" y="1210.687" fill="#FFA412" width="2.395" height="19.675"/>
					<rect x="1803.168" y="1210.687" fill="#FFA412" width="2.397" height="19.675"/>
					<rect x="1782.968" y="1210.687" fill="#FFA412" width="2.396" height="19.675"/>
					<rect x="1906.167" y="1210.687" fill="#FFA412" width="2.395" height="19.675"/>
					<rect x="1911.265" y="1210.687" fill="#FFA412" width="2.397" height="19.675"/>
					<rect x="1916.189" y="1210.687" fill="#FFA412" width="2.395" height="19.675"/>
					<path fill="#FFA412" d="M1922.289,1210.754v19.538c-0.293,0.046-0.592,0.069-0.898,0.069h-1.497v-19.676h1.497
						C1921.697,1210.686,1921.996,1210.709,1922.289,1210.754z"/>
					<path fill="#FFA412" d="M1925.615,1212.576v15.894c-0.581,0.72-1.414,1.285-2.393,1.603v-19.098
						C1924.201,1211.291,1925.034,1211.856,1925.615,1212.576z"/>
				</g>
			</g>
			<g>
				<path fill="#FFB93E" d="M1937.378,1195.778v11.107c0,0.889-0.322,1.712-0.876,2.396c-0.578,0.718-1.408,1.283-2.39,1.6
					c-0.297,0.1-0.612,0.171-0.935,0.217c-0.29,0.047-0.593,0.072-0.896,0.072H1721.52c-0.843,0-1.646-0.178-2.351-0.486
					c-1.396-0.613-2.423-1.758-2.687-3.107c-0.02-0.093-0.025-0.185-0.039-0.277c-0.006-0.065-0.014-0.125-0.014-0.19
					c-0.006-0.072-0.006-0.146-0.006-0.224v-11.107c0-0.072,0-0.151,0.006-0.224c0.008-0.139,0.021-0.276,0.047-0.415
					c0.375-2.054,2.501-3.647,5.043-3.647h210.763c0.303,0,0.605,0.026,0.896,0.072c0.322,0.046,0.638,0.119,0.935,0.218
					c0.981,0.316,1.812,0.883,2.39,1.606C1937.056,1194.073,1937.378,1194.89,1937.378,1195.778z"/>
				<path fill="#FFA412" d="M1833.887,1211.171h-112.914c-0.757,0-1.469-0.178-2.093-0.486c-1.252-0.613-2.166-1.758-2.397-3.107
					c-0.02-0.093-0.025-0.185-0.039-0.277c-0.006-0.065-0.014-0.125-0.014-0.19c-0.006-0.072-0.006-0.146-0.006-0.224v-11.107
					c0-0.072,0-0.151,0.006-0.224c0.008-0.139,0.021-0.276,0.047-0.415c0.027-0.155,0.07-0.308,0.117-0.457
					c0.516-1.826,2.281-3.19,4.379-3.19h99.048c1.541,5.636,5.069,13.372,13.175,19.192
					C1833.419,1210.849,1833.648,1211.007,1833.887,1211.171z"/>
				<g>
					<rect x="1909.339" y="1191.495" fill="#FFA412" width="2.395" height="19.676"/>
					<rect x="1901.229" y="1191.495" fill="#FFA412" width="2.395" height="19.676"/>
					<rect x="1891.506" y="1191.495" fill="#FFA412" width="2.397" height="19.676"/>
					<rect x="1876.603" y="1191.495" fill="#FFA412" width="2.395" height="19.676"/>
					<rect x="1860.843" y="1191.495" fill="#FFA412" width="2.396" height="19.676"/>
					<rect x="1836.682" y="1191.495" fill="#FFA412" width="2.395" height="19.676"/>
					<rect x="1814.059" y="1191.495" fill="#FFA412" width="2.395" height="19.676"/>
					<rect x="1793.859" y="1191.495" fill="#FFA412" width="2.395" height="19.676"/>
					<rect x="1917.057" y="1191.495" fill="#FFA412" width="2.395" height="19.676"/>
					<rect x="1922.156" y="1191.495" fill="#FFA412" width="2.395" height="19.676"/>
					<rect x="1927.079" y="1191.495" fill="#FFA412" width="2.395" height="19.676"/>
					<path fill="#FFA412" d="M1933.18,1191.563v19.539c-0.294,0.045-0.593,0.068-0.9,0.068h-1.496v-19.676h1.496
						C1932.587,1191.495,1932.886,1191.519,1933.18,1191.563z"/>
					<path fill="#FFA412" d="M1936.506,1193.387v15.893c-0.582,0.72-1.416,1.286-2.394,1.603v-19.098
						C1935.09,1192.102,1935.924,1192.667,1936.506,1193.387z"/>
				</g>
			</g>
			<g>
				<path fill="#FFB93E" d="M1954.601,1176.099v11.114c0,0.882-0.323,1.699-0.869,2.384l-0.008,0.006
					c-0.071,0.093-0.15,0.178-0.229,0.264c-0.322,0.342-0.698,0.639-1.126,0.882c-0.211,0.118-0.435,0.231-0.672,0.322
					c-0.006,0-0.006,0.008-0.006,0.008c-0.111,0.046-0.23,0.092-0.356,0.131c-0.296,0.099-0.611,0.172-0.935,0.218
					c-0.29,0.046-0.593,0.065-0.896,0.065h-210.762c-2.542,0-4.668-1.587-5.044-3.641c-0.025-0.139-0.039-0.276-0.046-0.421
					c-0.006-0.073-0.006-0.146-0.006-0.218v-11.114c0-0.071,0-0.145,0.006-0.217c0.125-2.08,2.048-3.785,4.49-4.028
					c0.197-0.027,0.395-0.034,0.599-0.034h210.762c0.303,0,0.605,0.026,0.896,0.066c0.323,0.053,0.639,0.125,0.935,0.224
					c0.856,0.276,1.595,0.743,2.16,1.337c0.079,0.085,0.158,0.172,0.229,0.263l0.008,0.007
					C1954.278,1174.401,1954.601,1175.217,1954.601,1176.099z"/>
				<path fill="#FFA412" d="M1851.109,1191.492h-112.913c-2.097,0-3.864-1.358-4.378-3.184c-0.049-0.149-0.09-0.302-0.119-0.457
					c-0.025-0.139-0.039-0.276-0.046-0.421c-0.006-0.073-0.006-0.146-0.006-0.218v-11.114c0-0.071,0-0.145,0.006-0.217
					c0.112-2.08,1.831-3.785,4.003-4.028c0.178-0.027,0.355-0.034,0.54-0.034h99.048c0,0.007,0.006,0.021,0.006,0.034
					C1838.838,1177.64,1842.523,1185.633,1851.109,1191.492z"/>
				<g>
					<rect x="1926.562" y="1171.819" fill="#FFA412" width="2.395" height="19.676"/>
					<rect x="1918.453" y="1171.819" fill="#FFA412" width="2.397" height="19.676"/>
					<rect x="1908.73" y="1171.819" fill="#FFA412" width="2.395" height="19.676"/>
					<rect x="1893.826" y="1171.819" fill="#FFA412" width="2.395" height="19.676"/>
					<rect x="1878.066" y="1171.819" fill="#FFA412" width="2.395" height="19.676"/>
					<rect x="1853.905" y="1171.819" fill="#FFA412" width="2.396" height="19.676"/>
					<rect x="1831.282" y="1171.819" fill="#FFA412" width="2.395" height="19.676"/>
					<rect x="1811.082" y="1171.819" fill="#FFA412" width="2.395" height="19.676"/>
					<rect x="1934.28" y="1171.819" fill="#FFA412" width="2.396" height="19.676"/>
					<rect x="1939.379" y="1171.819" fill="#FFA412" width="2.397" height="19.676"/>
					<rect x="1944.303" y="1171.819" fill="#FFA412" width="2.395" height="19.676"/>
					<path fill="#FFA412" d="M1950.402,1171.888v19.539c-0.293,0.045-0.592,0.068-0.898,0.068h-1.496v-19.676h1.496
						C1949.811,1171.819,1950.109,1171.843,1950.402,1171.888z"/>
					<path fill="#FFA412" d="M1953.729,1173.71v15.894c-0.58,0.72-1.414,1.286-2.393,1.602v-19.097
						C1952.314,1172.426,1953.148,1172.99,1953.729,1173.71z"/>
				</g>
			</g>
			<g>
				<path fill="#FFB93E" d="M1926.93,1156.459v11.107c0,0.889-0.316,1.705-0.869,2.39c-0.58,0.725-1.416,1.291-2.397,1.606
					c-0.296,0.1-0.611,0.172-0.928,0.218c-0.099,0.014-0.198,0.026-0.297,0.039h-0.038c-0.066,0.014-0.133,0.014-0.197,0.021
					c-0.04,0-0.08,0.006-0.119,0.006c-0.086,0-0.165,0.008-0.251,0.008h-210.755c-1.831,0-3.444-0.817-4.339-2.042
					c-0.443-0.593-0.712-1.283-0.758-2.021c-0.007-0.079-0.007-0.15-0.007-0.224v-11.107c0-0.079,0-0.15,0.007-0.224
					c0.112-1.823,1.606-3.357,3.615-3.871c0.467-0.125,0.967-0.19,1.482-0.19h210.755c0.093,0,0.179,0.006,0.271,0.006
					c0.046,0,0.092,0.007,0.131,0.014c0.171,0.007,0.336,0.026,0.501,0.052c0.316,0.047,0.632,0.119,0.928,0.218
					c0.152,0.047,0.297,0.099,0.435,0.165h0.007c0.559,0.23,1.061,0.547,1.475,0.929c0.006,0.006,0.014,0.013,0.02,0.026
					c0.02,0.02,0.039,0.033,0.059,0.053c0.145,0.131,0.275,0.275,0.401,0.428C1926.613,1154.748,1926.93,1155.57,1926.93,1156.459z"
					/>
				<path fill="#FFA412" d="M1823.438,1171.854H1710.53c-1.586,0-2.995-0.777-3.805-1.942c-0.435-0.619-0.704-1.344-0.744-2.121
					c-0.007-0.079-0.007-0.15-0.007-0.224v-11.107c0-0.079,0-0.15,0.007-0.224c0.112-1.962,1.633-3.581,3.628-3.97
					c0.296-0.06,0.606-0.092,0.921-0.092h99.042c0.039,0.151,0.086,0.303,0.131,0.454c1.641,5.741,5.346,13.471,13.688,19.191
					C1823.404,1171.826,1823.425,1171.84,1823.438,1171.854z"/>
				<g>
					<rect x="1898.892" y="1152.176" fill="#FFA412" width="2.395" height="19.675"/>
					<rect x="1890.783" y="1152.176" fill="#FFA412" width="2.395" height="19.675"/>
					<rect x="1881.061" y="1152.176" fill="#FFA412" width="2.395" height="19.675"/>
					<rect x="1866.156" y="1152.176" fill="#FFA412" width="2.395" height="19.675"/>
					<rect x="1850.396" y="1152.176" fill="#FFA412" width="2.395" height="19.675"/>
					<rect x="1826.234" y="1152.176" fill="#FFA412" width="2.395" height="19.675"/>
					<rect x="1803.612" y="1152.176" fill="#FFA412" width="2.395" height="19.675"/>
					<rect x="1783.412" y="1152.176" fill="#FFA412" width="2.395" height="19.675"/>
					<rect x="1906.609" y="1152.176" fill="#FFA412" width="2.397" height="19.675"/>
					<rect x="1911.709" y="1152.176" fill="#FFA412" width="2.395" height="19.675"/>
					<rect x="1916.633" y="1152.176" fill="#FFA412" width="2.395" height="19.675"/>
					<path fill="#FFA412" d="M1922.732,1152.243v19.538c-0.293,0.045-0.592,0.069-0.899,0.069h-1.497v-19.676h1.497
						C1922.141,1152.175,1922.439,1152.198,1922.732,1152.243z"/>
					<path fill="#FFA412" d="M1926.059,1154.065v15.894c-0.58,0.719-1.415,1.285-2.394,1.603v-19.099
						C1924.644,1152.78,1925.479,1153.347,1926.059,1154.065z"/>
				</g>
			</g>
			<g>
				<path fill="#FFB93E" d="M1942.428,1137.235v11.112c0,0.885-0.321,1.706-0.875,2.391c-0.58,0.72-1.414,1.284-2.393,1.602
					c-0.299,0.1-0.611,0.174-0.934,0.22c-0.293,0.045-0.592,0.069-0.898,0.069h-210.759c-0.817,0-1.592-0.163-2.277-0.454
					c-1.536-0.646-2.635-1.932-2.802-3.433c-0.006-0.058-0.012-0.115-0.014-0.175c-0.003-0.073-0.006-0.147-0.006-0.22v-11.112
					c0-0.072,0.003-0.146,0.006-0.22c0.127-2.086,2.052-3.787,4.49-4.031c0.197-0.021,0.396-0.031,0.603-0.031h210.759
					c0.307,0,0.605,0.023,0.898,0.068c0.322,0.048,0.635,0.122,0.934,0.221c0.978,0.317,1.813,0.883,2.393,1.603
					C1942.106,1135.529,1942.428,1136.351,1942.428,1137.235z"/>
				<path fill="#FFA412" d="M1838.934,1152.629h-112.91c-0.731,0-1.422-0.163-2.032-0.454c-1.373-0.646-2.352-1.932-2.501-3.433
					c-0.006-0.058-0.012-0.115-0.014-0.175c-0.003-0.073-0.006-0.147-0.006-0.22v-11.112c0-0.072,0.003-0.146,0.006-0.22
					c0.112-2.083,1.832-3.787,4.008-4.031c0.175-0.021,0.356-0.031,0.539-0.031h99.045c0.002,0.011,0.006,0.021,0.008,0.031
					c1.545,5.641,5.089,13.374,13.209,19.19C1838.497,1152.328,1838.715,1152.48,1838.934,1152.629z"/>
				<g>
					<rect x="1914.387" y="1132.953" fill="#FFA412" width="2.395" height="19.676"/>
					<rect x="1906.278" y="1132.953" fill="#FFA412" width="2.395" height="19.676"/>
					<rect x="1896.555" y="1132.953" fill="#FFA412" width="2.395" height="19.676"/>
					<rect x="1881.65" y="1132.953" fill="#FFA412" width="2.395" height="19.676"/>
					<rect x="1865.891" y="1132.953" fill="#FFA412" width="2.395" height="19.676"/>
					<rect x="1841.729" y="1132.953" fill="#FFA412" width="2.395" height="19.676"/>
					<rect x="1819.107" y="1132.953" fill="#FFA412" width="2.395" height="19.676"/>
					<rect x="1798.906" y="1132.953" fill="#FFA412" width="2.395" height="19.676"/>
					<rect x="1922.104" y="1132.953" fill="#FFA412" width="2.395" height="19.676"/>
					<rect x="1927.203" y="1132.953" fill="#FFA412" width="2.395" height="19.676"/>
					<rect x="1932.128" y="1132.953" fill="#FFA412" width="2.395" height="19.676"/>
					<path fill="#FFA412" d="M1938.226,1133.021v19.538c-0.293,0.045-0.592,0.068-0.898,0.068h-1.496v-19.676h1.496
						C1937.635,1132.952,1937.934,1132.977,1938.226,1133.021z"/>
					<path fill="#FFA412" d="M1941.554,1134.845v15.893c-0.581,0.72-1.415,1.285-2.394,1.603v-19.098
						C1940.139,1133.559,1940.973,1134.125,1941.554,1134.845z"/>
				</g>
			</g>
			<g>
				<path fill="#FFB93E" d="M1949.023,1117.591v11.111c0,0.885-0.321,1.707-0.874,2.391c-0.58,0.72-1.415,1.285-2.394,1.603
					c-0.298,0.099-0.611,0.173-0.933,0.221c-0.099,0.014-0.197,0.027-0.296,0.037c-0.054,0.005-0.11,0.011-0.166,0.015
					c-0.054,0.005-0.11,0.007-0.167,0.009c-0.09,0.006-0.18,0.008-0.271,0.008h-210.758c-2.717,0-4.956-1.809-5.094-4.063
					c-0.002-0.073-0.006-0.146-0.006-0.22v-11.111c0-0.073,0.004-0.147,0.006-0.22c0.138-2.254,2.377-4.062,5.094-4.062h210.758
					c0.308,0,0.606,0.023,0.899,0.068c0.321,0.047,0.635,0.12,0.933,0.22c0.978,0.317,1.813,0.883,2.394,1.603
					C1948.702,1115.884,1949.023,1116.705,1949.023,1117.591z"/>
				<path fill="#FFA412" d="M1845.529,1132.984h-112.91c-2.425,0-4.423-1.809-4.547-4.063c-0.002-0.073-0.006-0.146-0.006-0.22
					v-11.111c0-0.073,0.004-0.147,0.006-0.22c0.124-2.254,2.122-4.062,4.547-4.062h99.045c1.578,5.782,5.254,13.773,13.82,19.644
					C1845.5,1132.964,1845.516,1132.975,1845.529,1132.984z"/>
				<g>
					<rect x="1920.982" y="1113.31" fill="#FFA412" width="2.395" height="19.675"/>
					<rect x="1912.874" y="1113.31" fill="#FFA412" width="2.397" height="19.675"/>
					<rect x="1903.151" y="1113.31" fill="#FFA412" width="2.395" height="19.675"/>
					<rect x="1888.247" y="1113.31" fill="#FFA412" width="2.395" height="19.675"/>
					<rect x="1872.486" y="1113.31" fill="#FFA412" width="2.395" height="19.675"/>
					<rect x="1848.326" y="1113.31" fill="#FFA412" width="2.395" height="19.675"/>
					<rect x="1825.703" y="1113.31" fill="#FFA412" width="2.395" height="19.675"/>
					<rect x="1805.503" y="1113.31" fill="#FFA412" width="2.395" height="19.675"/>
					<rect x="1928.701" y="1113.31" fill="#FFA412" width="2.395" height="19.675"/>
					<rect x="1933.8" y="1113.31" fill="#FFA412" width="2.395" height="19.675"/>
					<rect x="1938.723" y="1113.31" fill="#FFA412" width="2.395" height="19.675"/>
					<path fill="#FFA412" d="M1944.823,1113.376v19.539c-0.293,0.045-0.591,0.069-0.899,0.069h-1.496v-19.676h1.496
						C1944.232,1113.309,1944.53,1113.333,1944.823,1113.376z"/>
					<path fill="#FFA412" d="M1948.149,1115.199v15.894c-0.58,0.72-1.414,1.285-2.393,1.602v-19.098
						C1946.735,1113.915,1947.569,1114.479,1948.149,1115.199z"/>
				</g>
			</g>
		</g>
		<g>
			<path fill="#237042" d="M1882.218,1001.185c0,0-11.069,15.584-21.219,15.801c-10.148,0.216-25.589-7.224-25.589-7.224
				s-9.318-20.768-2.998-28.893c0,0,6.339-2.781,12.967,2.131c1.138,0.849,2.293,1.914,3.43,3.286
				c1.609,1.933,3.414,3.034,5.328,3.612c7.242,2.202,15.837-2.979,19.052,2.021c1.878,2.908,3.919,5.093,5.599,6.628
				C1880.773,1000.317,1882.218,1001.185,1882.218,1001.185z"/>
			<path fill="#237042" d="M1737.9,1113.597c0,0,39.127-94.806,109.555-96.611c0,0,65.01,7.223,68.622,96.611H1737.9z"/>
			<path fill="#DB6A1D" d="M1828.161,1019.88c0,0,28.229,6.277,36.939,2.588c0,0,1.316-11.804-10.573-10.148
				c-8.136,1.133-13.436-2.777-16.553-4.363C1833.563,1005.71,1826.988,1014.942,1828.161,1019.88z"/>
			<path fill="#1A4C2E" d="M1852.729,1002.086c-1.807,1.356-7.35-19.087-7.35-19.087c1.138,0.849,2.293,1.914,3.43,3.286
				c1.609,1.933,3.414,3.034,5.328,3.612C1854.154,990.493,1854.48,1000.769,1852.729,1002.086z"/>
			<path fill="#1A4C2E" d="M1878.787,998.547c-0.399,0.235-13.454,8.054-15.224,8.054c-1.806,0,9.625-14.682,9.625-14.682
				C1875.066,994.827,1877.107,997.012,1878.787,998.547z"/>
			<path fill="#1A4C2E" d="M1776.125,1087.111c-0.724-0.618,27.688-41.835,35.514-42.137c7.826-0.301,25.408,9.029,38.137,10.233
				c12.728,1.204,25.068-2.408,27.475,5.117c2.407,7.523,9.029,34.2,4.967,38.469
				C1878.154,1103.063,1791.748,1100.459,1776.125,1087.111z"/>
		</g>
		<path opacity="0.5" fill="#E2810E" d="M1802.883,1230.218c-0.006,0.054-0.006,0.1-0.014,0.146
			c-0.368,6.604-1.428,13.135-3.16,19.501c0,0.008-0.007,0.02-0.007,0.033c-0.249,0.922-0.513,1.844-0.796,2.76
			c-1.765,5.807-4.089,11.462-6.945,16.887c-3.589,6.814-8.014,13.267-13.24,19.186c-0.139,0.165-0.283,0.329-0.429,0.487
			c-6.531,7.314-14.28,13.813-23.155,19.191c-1.87,1.14-3.785,2.226-5.754,3.26c-1.331,0.697-2.667,1.355-4.01,1.994
			c-1.284,0.744-2.641,1.383-3.918,2.167c-3.713,2.271-8.348,4.075-13.392,5.51v-8.651c0-0.071,0.007-0.145,0.007-0.216
			c0.007-0.146,0.026-0.284,0.047-0.422c0.028-0.161,0.072-0.317,0.123-0.472c0.525-1.817,2.288-3.17,4.379-3.17h-22.536
			c-2.093,0-3.851-1.358-4.374-3.178c-0.05-0.153-0.094-0.31-0.122-0.47c-0.021-0.139-0.04-0.275-0.046-0.414
			c-0.008-0.073-0.008-0.145-0.008-0.224v-11.107c0-0.073,0-0.152,0.008-0.224c0.006-0.139,0.025-0.277,0.046-0.415
			c0.028-0.16,0.072-0.315,0.122-0.47c0.523-1.819,2.281-3.178,4.374-3.178h8.797c-1.252-0.612-2.166-1.758-2.397-3.108
			c-0.02-0.092-0.025-0.184-0.039-0.275c-0.006-0.06-0.014-0.126-0.014-0.191c-0.006-0.072-0.006-0.145-0.006-0.218v-11.112
			c0-0.073,0-0.146,0.006-0.218c0.008-0.139,0.021-0.284,0.047-0.415c0.027-0.156,0.07-0.308,0.117-0.458
			c0.516-1.83,2.281-3.189,4.379-3.189h5.05c-2.092,0-3.855-1.357-4.38-3.176c-0.051-0.155-0.094-0.312-0.123-0.472
			c-0.02-0.139-0.04-0.276-0.046-0.415v-11.555c0.118-2.08,1.837-3.785,4.009-4.029h-14.952c-2.429,0-4.424-1.811-4.549-4.062
			c-0.007-0.073-0.007-0.146-0.007-0.225v-11.106c0-0.073,0-0.152,0.007-0.224c0-0.06,0.007-0.119,0.013-0.178
			c0.186-1.857,1.64-3.371,3.535-3.772c-2.04-0.244-3.673-1.759-3.949-3.66c-0.019-0.126-0.033-0.245-0.039-0.37
			c-0.008-0.079-0.008-0.15-0.008-0.224v-11.106c0-0.08,0-0.151,0.008-0.225c0.006-0.138,0.025-0.276,0.046-0.414
			c0.028-0.16,0.072-0.316,0.122-0.47c0.523-1.819,2.281-3.178,4.374-3.178h8.797c-1.252-0.613-2.166-1.758-2.397-3.107
			c-0.02-0.093-0.025-0.185-0.039-0.277c-0.006-0.065-0.014-0.125-0.014-0.19c-0.006-0.072-0.006-0.146-0.006-0.224v-11.107
			c0-0.072,0-0.151,0.006-0.224c0.008-0.139,0.021-0.276,0.047-0.415c0.027-0.155,0.07-0.308,0.117-0.457
			c0.516-1.826,2.281-3.19,4.379-3.19h17.224c-2.097,0-3.864-1.358-4.378-3.184c-0.049-0.149-0.09-0.302-0.119-0.457
			c-0.025-0.139-0.039-0.276-0.046-0.421c-0.006-0.073-0.006-0.146-0.006-0.218v-11.114c0-0.071,0-0.145,0.006-0.217
			c0.112-2.08,1.831-3.785,4.003-4.028h-27.126c-1.586,0-2.995-0.777-3.805-1.942l0.014-0.1l2.857-17.447l0.013-0.099l4.068-24.894
			c4.722,0.632,9.389,1.573,13.965,2.812c0.271,0.072,0.533,0.145,0.803,0.218c0.014,0.006,0.033,0.012,0.053,0.02
			c2.667,0.744,5.301,1.587,7.894,2.534c0.026,0.007,0.046,0.014,0.072,0.026c11.943,4.352,23.07,10.811,32.721,19.192
			c0.172,0.145,0.344,0.296,0.508,0.454c5.018,4.404,9.625,9.343,13.721,14.78c0.822,1.08,1.621,2.18,2.391,3.299
			c0.256,0.369,0.513,0.737,0.758,1.112c0.012,0.007,0.02,0.021,0.02,0.034c1.243,1.836,2.422,3.719,3.541,5.654
			c2.641,4.563,4.859,9.237,6.67,13.984c2.416,6.301,4.108,12.728,5.109,19.192c0.033,0.164,0.052,0.322,0.078,0.486
			C1802.936,1217.525,1803.225,1223.905,1802.883,1230.218z"/>
		<g>
			<path fill="#E98900" d="M1734.998,1312.013l-0.027,0.117c-1.664,0.997-3.352,1.941-5.117,2.855
				c-1.765,0.914-3.554,1.775-5.367,2.583c-1.279,0.57-2.612,1.164-3.939,1.628c-0.693,0.309-1.41,0.564-2.18,0.844
				c-2.287,0.891-4.62,1.676-7.002,2.353c-16.493,4.857-33.554,5.431-49.717,2.282c-0.284-0.065-0.492-0.1-0.776-0.165
				c-1.191-0.236-2.406-0.525-3.545-0.785c-2.223-0.543-4.469-1.139-6.633-1.837c-0.901-0.302-1.778-0.55-2.703-0.904
				c-0.978-0.331-1.956-0.662-2.881-1.017c-0.978-0.331-1.98-0.715-2.952-1.177c-1.387-0.532-2.798-1.117-4.126-1.803
				c-1.743-0.757-3.403-1.615-5.063-2.472c-3.012-1.597-5.941-3.295-8.758-5.171c-10.917-7.148-20.567-16.33-28.228-27.357
				c-0.813-1.108-1.596-2.292-2.356-3.423c-2.884-4.466-5.419-9.151-7.628-14.109c-0.547-1.226-1.117-2.506-1.557-3.779
				c-0.38-0.853-0.707-1.73-1.01-2.553c-0.445-1.143-0.814-2.257-1.182-3.371c-0.321-1.007-0.642-2.014-0.963-3.021
				c0.006-0.13-0.018-0.184-0.065-0.29c-11.813-39.847,1.326-82.634,32.133-109.14c4.92-4.301,10.369-8.134,16.161-11.482
				c1.581-0.896,3.133-1.716,4.738-2.559c1.576-0.766,3.151-1.532,4.804-2.268l0.053-0.024c13.381-5.963,27.411-8.891,41.189-9.088
				c1.594-0.008,3.188-0.015,4.806,0.031c3.182,0.115,6.436,0.391,9.53,0.737c0.077,0.03,0.154,0.059,0.284,0.065
				c1.689,0.206,3.349,0.489,5.008,0.771c1.66,0.283,3.343,0.619,4.973,0.979c2.792,0.673,5.554,1.423,8.287,2.25
				c1.494,0.484,2.987,0.969,4.452,1.531c13.036,4.734,25.12,12.065,35.435,21.59c1.382,1.237,2.734,2.551,4.033,3.89
				c2.521,2.646,4.959,5.394,7.208,8.29c0.617,0.811,1.234,1.622,1.798,2.458c0.914,1.19,1.798,2.457,2.605,3.695
				c3.412,4.933,6.363,10.264,8.881,15.915C1799.51,1228.251,1780.334,1285.33,1734.998,1312.013z"/>
			<path fill="#E98900" d="M1613.385,1142.224c4.921-4.301,10.315-8.111,16.132-11.405c-5.793,3.348-11.241,7.181-16.161,11.482
				L1613.385,1142.224z"/>
			<path fill="#E98900" d="M1639.088,1125.914l0.024,0.053l-0.053,0.024c-1.653,0.736-3.228,1.502-4.804,2.268
				C1635.807,1127.441,1637.436,1126.651,1639.088,1125.914z"/>
			<g>
				<circle fill="#FFC75C" cx="1675.871" cy="1224.379" r="93.225"/>
				<path fill="#FCA615" d="M1718.564,1320.193c-52.832,23.541-114.967-0.289-138.508-53.121
					c-23.541-52.832,0.289-114.967,53.121-138.508c52.832-23.541,114.967,0.288,138.508,53.121
					C1795.226,1234.517,1771.396,1296.651,1718.564,1320.193z M1642.678,1149.888c-41.072,18.301-59.599,66.61-41.298,107.682
					c18.301,41.072,66.61,59.599,107.682,41.298c41.072-18.301,59.599-66.61,41.298-107.682
					C1732.059,1150.115,1683.75,1131.587,1642.678,1149.888z"/>
			</g>
			<g>
				<g>
					<g>
						<path fill="#FCA615" d="M1712.321,1230.718c5.703,12.798,2.414,26.741-8.108,36.523l6.703,15.043l-22.444,10.001
							l-6.086-13.658c-6.867,1.801-13.953,2.211-19.565,1.049l-5.798-1.194l-1.984-25.902l9.918,1.705
							c5.251,0.866,11.418,0.064,16.48-2.192c3.772-1.681,7.575-5.093,5.788-9.104c-0.724-1.624-2.064-4.632-13.997-4.18
							c-14.937,0.646-31.25-0.899-38.634-17.47c-5.447-12.225-2.302-25.589,7.759-34.994l-6.533-14.661l22.301-9.937l5.894,13.228
							c5.206-1.29,10.302-1.671,15.355-1.119l6.567,0.737l1.5,25.717l-9.158-0.899c-2.447-0.226-7.549-0.757-14.235,2.222
							c-2.388,1.064-6.261,3.42-4.75,6.81c0.702,1.576,1.468,3.295,15.153,2.921C1686.823,1211,1704.235,1212.571,1712.321,1230.718
							z"/>
					</g>
				</g>
			</g>
			<path fill="#FCA615" d="M1639.691,1285.676c-16.784-11.186-27.418-28.969-29.447-49.014c-0.212-2.098-3.493-1.959-3.28,0.146
				c2.16,21.336,13.414,39.915,31.244,51.798C1639.962,1289.773,1641.432,1286.836,1639.691,1285.676z"/>
			<path fill="#FCA615" d="M1616.935,1181.16c-7,11.956-11.184,25.079-12.368,38.887c-0.178,2.079,3.029,2.793,3.209,0.691
				c1.161-13.544,5.217-26.359,12.088-38.095C1620.931,1180.819,1618,1179.34,1616.935,1181.16z"/>
			<path fill="#FCA615" d="M1710.907,1157.595c-1.799-1.106-3.275,1.827-1.482,2.929c20.541,12.63,33.97,33.895,36.58,57.862
				c0.228,2.094,3.509,1.957,3.28-0.146C1746.537,1193.015,1732.518,1170.883,1710.907,1157.595z"/>
			<path fill="#FCA615" d="M1745.21,1230.675c-0.122,12.472-3.423,24.361-9.663,35.153c-1.057,1.829,1.873,3.309,2.929,1.482
				c6.518-11.273,9.886-23.766,10.014-36.781C1748.51,1228.411,1745.231,1228.569,1745.21,1230.675z"/>
			<path fill="#FCA615" d="M1734.083,1208.869c3.145,7.532,4.44,15.427,3.861,23.57c-0.15,2.108,3.132,1.994,3.281-0.097
				c0.597-8.393-0.75-16.634-3.992-24.399C1736.425,1206.01,1733.269,1206.921,1734.083,1208.869z"/>
			<path fill="#E98900" d="M1708.583,1302.847c2.912,5.973,5.824,11.946,8.736,17.919c0.924,1.895,3.673,0.097,2.757-1.781
				c-2.912-5.973-5.824-11.946-8.736-17.919C1710.416,1299.172,1707.667,1300.969,1708.583,1302.847z"/>
			<path fill="#E98900" d="M1730.839,1288.417c-1.24-1.699-4.006,0.07-2.757,1.781c3.949,5.409,7.897,10.819,11.846,16.228
				c1.24,1.699,4.006-0.071,2.757-1.781C1738.736,1299.235,1734.788,1293.826,1730.839,1288.417z"/>
			<path fill="#E98900" d="M1763.641,1284.794c-5.234-4.374-10.468-8.749-15.701-13.123c-1.616-1.35-3.813,1.09-2.186,2.45
				c5.234,4.374,10.468,8.749,15.701,13.123C1763.071,1288.594,1765.268,1286.154,1763.641,1284.794z"/>
			<path fill="#E98900" d="M1774.958,1264.047c-6.145-3.525-12.29-7.049-18.435-10.573c-1.833-1.051-3.314,1.879-1.482,2.929
				c6.145,3.524,12.29,7.049,18.435,10.573C1775.309,1268.028,1776.79,1265.098,1774.958,1264.047z"/>
			<path fill="#E98900" d="M1781.11,1241.789l-21.101-4.836c-2.063-0.473-2.752,2.736-0.691,3.209
				c7.034,1.612,14.067,3.224,21.101,4.836C1782.481,1245.47,1783.171,1242.261,1781.11,1241.789z"/>
			<path fill="#E98900" d="M1780,1214.519c-6.04,0.939-12.081,1.878-18.121,2.816c-2.069,0.322-1.94,3.604,0.146,3.28
				c6.04-0.939,12.08-1.878,18.121-2.817C1782.215,1217.477,1782.085,1214.195,1780,1214.519z"/>
			<path fill="#E98900" d="M1774.247,1185.191c-6.368,3.734-12.736,7.467-19.104,11.201c-1.824,1.069-0.039,3.824,1.781,2.757
				c6.368-3.733,12.736-7.467,19.104-11.2C1777.851,1186.879,1776.067,1184.124,1774.247,1185.191z"/>
			<path fill="#E98900" d="M1761.976,1161.653c-5.049,4.605-10.098,9.211-15.147,13.816c-1.557,1.42,0.9,3.6,2.45,2.185
				c5.049-4.605,10.098-9.211,15.146-13.816C1765.983,1162.418,1763.526,1160.239,1761.976,1161.653z"/>
			<path fill="#FCA615" d="M1622.953,1241.425c-3.075-7.561-4.296-15.468-3.64-23.605c0.17-2.107-3.114-2.023-3.282,0.066
				c-0.675,8.387,0.594,16.641,3.764,24.435C1620.584,1244.262,1623.748,1243.38,1622.953,1241.425z"/>
			<path fill="#E98900" d="M1650.342,1144.528c-2.482-6.164-4.965-12.328-7.448-18.492c-0.787-1.955-3.657-0.357-2.876,1.581
				c2.482,6.164,4.965,12.328,7.448,18.491C1648.253,1148.064,1651.122,1146.466,1650.342,1144.528z"/>
			<path fill="#E98900" d="M1627.121,1157.349c1.117,1.782,4.001,0.213,2.876-1.581c-3.556-5.675-7.113-11.35-10.669-17.025
				c-1.117-1.782-4.001-0.213-2.876,1.581C1620.008,1145.999,1623.565,1151.673,1627.121,1157.349z"/>
			<path fill="#E98900" d="M1594.145,1158.643c4.911,4.733,9.823,9.467,14.734,14.2c1.516,1.461,3.88-0.818,2.353-2.289
				c-4.911-4.734-9.823-9.467-14.734-14.2C1594.982,1154.893,1592.618,1157.172,1594.145,1158.643z"/>
			<path fill="#E98900" d="M1581.389,1178.538c5.881,3.95,11.761,7.9,17.641,11.85c1.754,1.178,3.438-1.64,1.685-2.817
				c-5.88-3.95-11.761-7.9-17.641-11.85C1581.321,1174.542,1579.637,1177.36,1581.389,1178.538z"/>
			<path fill="#E98900" d="M1573.68,1200.306l20.706,6.316c2.024,0.617,2.938-2.535,0.916-3.152
				c-6.902-2.105-13.804-4.21-20.706-6.316C1572.572,1196.536,1571.657,1199.689,1573.68,1200.306z"/>
			<path fill="#E98900" d="M1572.859,1227.585c6.092-0.51,12.183-1.019,18.275-1.528c2.087-0.174,2.19-3.458,0.086-3.282
				c-6.091,0.51-12.183,1.019-18.275,1.529C1570.858,1224.478,1570.755,1227.761,1572.859,1227.585z"/>
			<path fill="#E98900" d="M1576.524,1257.247c6.616-3.274,13.232-6.548,19.848-9.822c1.895-0.938,0.31-3.812-1.581-2.876
				c-6.616,3.274-13.232,6.548-19.848,9.822C1573.048,1255.308,1574.633,1258.183,1576.524,1257.247z"/>
			<path fill="#E98900" d="M1587.1,1281.594c5.362-4.237,10.724-8.474,16.086-12.711c1.654-1.307-0.643-3.654-2.289-2.353
				c-5.362,4.237-10.724,8.474-16.085,12.711C1583.157,1280.547,1585.454,1282.895,1587.1,1281.594z"/>
			<path fill="#E98900" d="M1739.862,1165.955c4.229-5.126,8.457-10.252,12.686-15.378c1.341-1.626-1.434-3.383-2.763-1.771
				c-4.229,5.126-8.457,10.252-12.686,15.378C1735.758,1165.81,1738.533,1167.567,1739.862,1165.955z"/>
			<path fill="#E98900" d="M1735.035,1133.561c-3.973,5.545-7.945,11.09-11.918,16.635c-1.226,1.712,1.371,3.721,2.606,1.997
				c3.973-5.545,7.946-11.09,11.918-16.634C1738.867,1133.846,1736.27,1131.837,1735.035,1133.561z"/>
			<path fill="#E98900" d="M1713.504,1123.819c-3.057,6.39-6.115,12.78-9.172,19.171c-0.912,1.906,2.12,3.165,3.031,1.26
				c3.057-6.39,6.115-12.78,9.172-19.17C1717.447,1123.173,1714.415,1121.915,1713.504,1123.819z"/>
			<path fill="#E98900" d="M1690.849,1119.341l-3.252,21.402c-0.318,2.092,2.934,2.54,3.251,0.45
				c1.084-7.134,2.168-14.268,3.252-21.402C1694.419,1117.699,1691.167,1117.251,1690.849,1119.341z"/>
			<path fill="#E98900" d="M1663.738,1122.477c1.386,5.954,2.771,11.907,4.157,17.861c0.475,2.04,3.738,1.666,3.26-0.39
				c-1.386-5.954-2.771-11.907-4.157-17.861C1666.523,1120.048,1663.26,1120.422,1663.738,1122.477z"/>
			<path fill="#E98900" d="M1611.83,1279.629c-3.553,4.171-7.106,8.342-10.659,12.513c-1.366,1.604,1.075,3.8,2.45,2.186
				c3.553-4.171,7.106-8.342,10.66-12.513C1615.646,1280.211,1613.205,1278.015,1611.83,1279.629z"/>
			<path fill="#E98900" d="M1627.041,1294.59c-3.834,4.674-7.667,9.348-11.501,14.021c-1.334,1.627,1.105,3.825,2.45,2.186
				c3.834-4.674,7.668-9.347,11.501-14.021C1630.825,1295.148,1628.386,1292.95,1627.041,1294.59z"/>
			<path fill="#E98900" d="M1640.325,1301.789c-2.916,4.997-5.833,9.993-8.749,14.99c-1.065,1.825,1.866,3.304,2.929,1.482
				c2.916-4.997,5.833-9.993,8.749-14.99C1644.319,1301.446,1641.389,1299.967,1640.325,1301.789z"/>
			<path fill="#E98900" d="M1655.989,1307.259c-2.095,5.617-4.19,11.234-6.285,16.851c-0.73,1.957,2.19,3.465,2.929,1.482
				c2.095-5.617,4.19-11.234,6.285-16.851C1659.648,1306.785,1656.728,1305.276,1655.989,1307.259z"/>
			<path fill="#E98900" d="M1672.768,1310.92c-0.276,5.508-0.551,11.017-0.827,16.525c-0.106,2.113,3.175,1.947,3.28-0.146
				c0.276-5.508,0.551-11.017,0.827-16.525C1676.153,1308.662,1672.873,1308.827,1672.768,1310.92z"/>
			<path fill="#E98900" d="M1693.758,1307.952c0.898,5.779,1.796,11.557,2.695,17.336c0.322,2.069,3.604,1.94,3.28-0.146
				c-0.898-5.778-1.797-11.557-2.695-17.336C1696.716,1305.737,1693.434,1305.866,1693.758,1307.952z"/>
		</g>
		<g>
			<g>
				<g>
					<path fill="#FCA615" d="M1826.501,1078.983c-0.548,3.51-3.169,6.026-6.756,6.659l-0.645,4.126l-6.156-0.962l0.585-3.746
						c-1.71-0.562-3.275-1.451-4.31-2.471l-1.07-1.053l3.145-5.788l1.877,1.729c0.999,0.907,2.422,1.586,3.81,1.803
						c1.035,0.162,2.314-0.041,2.486-1.141c0.07-0.445,0.198-1.271-2.404-2.818c-3.269-1.92-6.53-4.495-5.819-9.04
						c0.524-3.353,3.034-5.765,6.471-6.382l0.628-4.021l6.116,0.956l-0.567,3.628c1.286,0.442,2.423,1.063,3.423,1.877l1.297,1.061
						l-3.222,5.682l-1.826-1.453c-0.49-0.385-1.503-1.201-3.337-1.487c-0.655-0.102-1.804-0.134-1.949,0.796
						c-0.068,0.432-0.141,0.904,2.824,2.709C1823.788,1071.274,1827.279,1074.006,1826.501,1078.983z"/>
				</g>
			</g>
		</g>
		<g>
			<g>
				<g>
					<path fill="#FCA615" d="M1858.64,1082.168c0.109,3.551-2.002,6.507-5.41,7.792l0.128,4.174l-6.227,0.191l-0.117-3.79
						c-1.784-0.237-3.487-0.821-4.692-1.633l-1.246-0.837l2.022-6.269l2.164,1.353c1.149,0.707,2.673,1.111,4.078,1.068
						c1.047-0.032,2.267-0.468,2.233-1.581c-0.014-0.451-0.039-1.285-2.883-2.325c-3.567-1.283-7.247-3.212-7.389-7.81
						c-0.104-3.392,1.917-6.226,5.182-7.467l-0.125-4.068l6.188-0.19l0.113,3.67c1.346,0.197,2.578,0.597,3.711,1.212l1.47,0.804
						l-2.118,6.179l-2.063-1.09c-0.553-0.288-1.699-0.903-3.554-0.846c-0.663,0.02-1.798,0.201-1.769,1.142
						c0.013,0.437,0.028,0.914,3.275,2.141C1854.55,1075.092,1858.486,1077.133,1858.64,1082.168z"/>
				</g>
			</g>
		</g>
	</g>
	<path fill="#A8D29F" d="M2389.686,1329.17h-59.858c-3.207-2.721,2.22-8.9,7.892-9.315c2.462-0.186,5.577,0.329,9.136,1.081
		c0.823-10.94,5.527-60.123,23.256-58.147c19.934,2.213,0,21.66-5.635,33.174c-4.175,8.526-8.578,20.756-10.59,26.527
		c1.618,0.351,3.294,0.695,5.004,1.01c2.643-8.112,12.474-35.399,24.976-33.811c14.678,1.861,8.778,12.803-1.626,19.297
		c-7.633,4.776-17.006,11.563-21.459,14.843c3.773,0.615,7.712,1.03,11.706,0.938
		C2382.74,1324.522,2387.745,1327.544,2389.686,1329.17z"/>
	<path fill="#A8D29F" d="M297.938,1326.935h58.321c3.126-2.65-2.162-8.671-7.688-9.075c-2.4-0.182-5.434,0.32-8.901,1.053
		c-0.803-10.66-5.386-58.579-22.659-56.653c-19.421,2.155,0,21.102,5.49,32.32c4.067,8.309,8.358,20.225,10.318,25.847
		c-1.577,0.343-3.21,0.677-4.876,0.983c-2.575-7.904-12.153-34.489-24.334-32.941c-14.301,1.813-8.553,12.474,1.584,18.802
		c7.437,4.652,16.568,11.267,20.908,14.461c-3.677,0.601-7.514,1.005-11.407,0.914
		C304.705,1322.407,299.828,1325.352,297.938,1326.935z"/>
	<path fill="#2E3552" d="M2524.068,1336.335L3.192,1335.466c-1.756-0.001-3.192-1.438-3.192-3.195l0.001-1.949
		c0-1.756,1.438-3.192,3.194-3.191l2520.876,0.869c1.757,0,3.192,1.438,3.192,3.193l-0.001,1.95
		C2527.262,1334.898,2525.824,1336.335,2524.068,1336.335z"/>
</g>
</svg>
