<?xml version="1.0" encoding="utf-8"?>
<!-- Generator: Adobe Illustrator 17.0.0, SVG Export Plug-In . SVG Version: 6.00 Build 0)  -->
<!DOCTYPE svg PUBLIC "-//W3C//DTD SVG 1.1//EN" "http://www.w3.org/Graphics/SVG/1.1/DTD/svg11.dtd">
<svg version="1.1" id="Camada_1" xmlns="http://www.w3.org/2000/svg" xmlns:xlink="http://www.w3.org/1999/xlink" x="0px" y="0px"
	 width="47.77px" height="49.262px" viewBox="0 0 47.77 49.262" enable-background="new 0 0 47.77 49.262" xml:space="preserve">
<path fill="#5EB0E2" fill-opacity="0.5" d="M11.509,18.118C5.153,18.118,0,23.271,0,29.627s5.153,11.509,11.509,11.509
	s11.509-5.153,11.509-11.509S17.865,18.118,11.509,18.118z M11.215,36.295c-3.682,0-6.668-2.985-6.668-6.668
	s2.985-6.668,6.668-6.668s6.668,2.985,6.668,6.668S14.898,36.295,11.215,36.295z"/>
<path fill="#6BC7B5" fill-opacity="0.5" d="M8.812,18.118c0,0,2.132-0.099,2.404,2.024c0,0,0.51,1.819-1.202,2.927
	c0,0-5.466,1.731-5.466,6.558V46.77c0,0-0.025,2.463-2.276,2.506c0,0-2.272-0.042-2.272-2.421c0-2.378,0-17.228,0-17.228
	S-0.616,21.36,8.812,18.118z"/>
<path fill="#5EB0E2" fill-opacity="0.5" d="M29.016,18.118c-6.356,0-11.509,5.153-11.509,11.509s5.153,11.509,11.509,11.509
	s11.509-5.153,11.509-11.509S35.372,18.118,29.016,18.118z M28.722,36.295c-3.682,0-6.668-2.985-6.668-6.668
	s2.985-6.668,6.668-6.668s6.668,2.985,6.668,6.668S32.405,36.295,28.722,36.295z"/>
<path fill="#6BC7B5" fill-opacity="0.5" d="M31.268,49.262c0,0-2.132,0.099-2.404-2.024c0,0-0.51-1.819,1.202-2.927
	c0,0,5.466-1.731,5.466-6.558V20.61c0,0,0.025-2.463,2.276-2.506c0,0,2.272,0.042,2.272,2.421s0,17.228,0,17.228
	S40.696,46.02,31.268,49.262z"/>
<g>
	<defs>
		<rect id="SVGID_1_" x="215.66" y="-69.917" width="152.97" height="73.573"/>
	</defs>
	<clipPath id="SVGID_2_">
		<use xlink:href="#SVGID_1_"  overflow="visible"/>
	</clipPath>
	<g clip-path="url(#SVGID_2_)">
		<g>
			<ellipse fill="#010101" cx="259.731" cy="-19.007" rx="1.074" ry="1.174"/>
			<ellipse fill="#010101" cx="324.029" cy="-19.007" rx="1.074" ry="1.174"/>
			<path fill="#7AA0BC" d="M341.573,15.721c0,5.643-9.679,37.324-13.027,37.64c-3.597,0.339-14.057,0.579-16.878,0.24
				c-0.137-1.069,0.345-1.233-0.044-2.309c-0.574-1.582-1.895-1.757-3.243-2.223c-2.273-0.784-4.592-0.497-7.046-0.638
				c-0.046-1.823,4.923-3.45,6.139-4.156c1.836-1.066,3.299-2.72,5.067-3.915c1.786-1.209,3.69-2.23,5.564-3.303
				c3.459-1.98,6.515-4.537,9.584-7.007C329.355,28.71,341.573,15.721,341.573,15.721z"/>
			<path opacity="0.07" fill="#010101" d="M301.073,48.431c-0.046-1.823,4.924-3.45,6.139-4.156c1.836-1.066,3.299-2.72,5.067-3.915
				c1.786-1.209,3.69-2.23,5.564-3.303c3.459-1.98,6.515-4.537,9.584-7.007c1.666-1.34,13.885-14.33,13.885-14.33
				c0,1.643-0.823,5.495-2.068,10.136c-6.849,11.163-17.671,19.623-30.497,23.416c-0.207-0.065-0.416-0.131-0.627-0.203
				C305.847,48.285,303.527,48.572,301.073,48.431z"/>
			<path fill="#7AA0BC" d="M242.728,15.721c0,5.643,9.679,37.324,13.026,37.64c3.596,0.339,14.057,0.579,16.878,0.24
				c0.138-1.069-0.345-1.233,0.045-2.309c0.573-1.582,1.895-1.757,3.243-2.223c2.273-0.784,4.592-0.497,7.046-0.638
				c0.046-1.823-4.924-3.45-6.139-4.156c-1.836-1.066-3.299-2.72-5.067-3.915c-1.787-1.209-3.69-2.23-5.564-3.303
				c-3.459-1.98-6.515-4.537-9.585-7.007C254.946,28.71,242.728,15.721,242.728,15.721z"/>
			<path opacity="0.05" fill="#010101" d="M282.966,48.431c0.046-1.823-4.924-3.45-6.139-4.156c-1.836-1.066-3.299-2.72-5.067-3.915
				c-1.787-1.209-3.69-2.23-5.564-3.303c-3.459-1.98-6.515-4.537-9.585-7.007c-1.665-1.34-13.883-14.33-13.883-14.33
				c0,1.643,0.821,5.495,2.067,10.136c6.849,11.163,17.671,19.623,30.497,23.416c0.207-0.065,0.417-0.131,0.627-0.203
				C278.193,48.285,280.512,48.572,282.966,48.431z"/>
			<g>
				<path fill="#9AC2E6" d="M341.09-26.432c7.426-9.041,10.78-20.604,12.335-31.599c0.725-5.127-0.234-6.297-5.723-5.651
					c-3.875,0.323-8.397,1.292-12.272,2.261c-5.49,1.614-23.251,9.364-21.635,15.177c1.292,6.781,19.413,18.338,25.871,19.63
					L341.09-26.432z"/>
			</g>
			<g>
				<path fill="#7AA0BC" d="M338.534-32.868c4.872-5.931,7.072-13.515,8.092-20.727c0.475-3.363-0.154-4.13-3.755-3.706
					c-2.542,0.212-5.507,0.847-8.049,1.482c-3.601,1.059-15.251,6.143-14.192,9.955c0.847,4.448,12.734,12.029,16.971,12.877
					L338.534-32.868z"/>
			</g>
			<g>
				<path fill="#9AC2E6" d="M243.451-26.432c-7.427-9.041-10.78-20.604-12.335-31.599c-0.725-5.127,0.235-6.297,5.724-5.651
					c3.875,0.323,8.397,1.292,12.272,2.261c5.49,1.614,23.251,9.364,21.635,15.177c-1.292,6.781-19.413,18.338-25.871,19.63
					L243.451-26.432z"/>
			</g>
			<g>
				<path fill="#7AA0BC" d="M246.006-32.868c-4.872-5.931-7.072-13.515-8.092-20.727c-0.475-3.363,0.155-4.13,3.755-3.706
					c2.542,0.212,5.507,0.847,8.049,1.482c3.601,1.059,15.251,6.143,14.192,9.955c-0.847,4.448-12.734,12.029-16.97,12.877
					L246.006-32.868z"/>
			</g>
			<circle fill="#9AC2E6" cx="292.093" cy="-4.434" r="53.612"/>
			<ellipse opacity="0.1" fill="#010101" cx="292.151" cy="10.087" rx="32.01" ry="32.729"/>
			<circle fill="#A3D0F0" cx="291.822" cy="3.657" r="31.028"/>
			<ellipse fill="#7BA4C4" cx="278.329" cy="4.639" rx="3.591" ry="8.837"/>
			<path opacity="0.1" fill="#010101" d="M278.329,11.414c-1.835,0-3.347-3.386-3.564-7.757c-0.017,0.354-0.028,0.714-0.028,1.08
				c0,4.881,1.608,8.837,3.591,8.837s3.591-3.956,3.591-8.837c0-0.366-0.01-0.726-0.028-1.08
				C281.675,8.028,280.163,11.414,278.329,11.414z"/>
			<ellipse fill="#7BA4C4" cx="305.973" cy="4.639" rx="3.591" ry="8.837"/>
			<path opacity="0.1" fill="#010101" d="M305.973,11.414c1.834,0,3.347-3.386,3.563-7.757c0.017,0.354,0.028,0.714,0.028,1.08
				c0,4.881-1.608,8.837-3.591,8.837s-3.591-3.956-3.591-8.837c0-0.366,0.009-0.726,0.028-1.08
				C302.626,8.028,304.139,11.414,305.973,11.414z"/>
			<circle fill="#272626" cx="259.469" cy="-17.833" r="3.876"/>
			<circle fill="#FFFFFF" cx="261.61" cy="-18.649" r="0.816"/>
			<circle fill="#272626" cx="324.028" cy="-17.833" r="3.876"/>
			<circle fill="#FFFFFF" cx="326.169" cy="-18.649" r="0.816"/>
			<path fill="#5C768A" d="M296.123-41.014v-16.932c-1.33-0.099-2.674-0.15-4.029-0.15c-1.356,0-2.7,0.052-4.03,0.15v16.87
				L296.123-41.014z"/>
			<rect x="288.063" y="-44.458" fill="#A3D0F0" width="8.06" height="3.445"/>
		</g>
	</g>
</g>
<g>
	<path fill="#E98C24" d="M289.543-105.449c1.172-0.262,2.378-0.404,3.606-0.425c-1.229,0.032-2.445,0.173-3.618,0.435
		L289.543-105.449z"/>
	<path fill="#E98C24" d="M295.125-105.826l-0.001,0.011l-0.011-0.001c-0.331-0.026-0.653-0.041-0.975-0.055
		C294.461-105.868,294.793-105.852,295.125-105.826z"/>
	<g>
		<circle fill="#FEC465" cx="292.419" cy="-86.698" r="17.134"/>
		<path fill="#FAA61C" d="M290.9-67.48c-10.597-0.838-18.537-10.14-17.7-20.738c0.838-10.597,10.14-18.537,20.738-17.7
			c10.597,0.838,18.537,10.14,17.7,20.738S301.497-66.642,290.9-67.48z M293.6-101.64c-8.238-0.651-15.471,5.522-16.122,13.761
			S283-72.408,291.238-71.757c8.238,0.651,15.471-5.522,16.122-13.761S301.838-100.989,293.6-101.64z"/>
	</g>
	<g>
		<g>
			<g>
				<path fill="#FAA61C" d="M297.748-82.475c-0.203,2.567-1.958,4.53-4.516,5.185l-0.238,3.017l-4.502-0.356l0.217-2.74
					c-1.267-0.312-2.447-0.868-3.251-1.548l-0.831-0.702l1.954-4.356l1.452,1.146c0.772,0.601,1.838,1.013,2.853,1.093
					c0.757,0.06,1.67-0.157,1.734-0.962c0.026-0.326,0.073-0.929-1.893-1.904c-2.468-1.207-4.967-2.889-4.704-6.213
					c0.194-2.452,1.875-4.334,4.325-4.969l0.232-2.941l4.473,0.354l-0.21,2.653c0.954,0.249,1.81,0.635,2.578,1.168l0.996,0.696
					l-2.016,4.284l-1.4-0.949c-0.375-0.251-1.152-0.785-2.493-0.891c-0.479-0.038-1.311,0.002-1.365,0.682
					c-0.025,0.316-0.052,0.661,2.19,1.802C295.362-87.897,298.035-86.115,297.748-82.475z"/>
			</g>
		</g>
	</g>
	<path fill="#FAA61C" d="M281.196-79.978c-1.728-3.28-1.884-7.085-0.451-10.499c0.15-0.357-0.392-0.623-0.542-0.264
		c-1.525,3.635-1.339,7.622,0.497,11.106C280.88-79.293,281.375-79.638,281.196-79.978z"/>
	<path fill="#FAA61C" d="M286.698-98.851c-2.18,1.316-4.008,3.067-5.411,5.193c-0.211,0.32,0.244,0.717,0.457,0.393
		c1.377-2.085,3.157-3.798,5.296-5.09C287.373-98.555,287.029-99.051,286.698-98.851z"/>
	<path fill="#FAA61C" d="M303.939-94.405c-0.193-0.336-0.689,0.007-0.496,0.343c2.208,3.843,2.509,8.455,0.826,12.554
		c-0.147,0.358,0.395,0.624,0.542,0.264C306.582-85.558,306.262-90.362,303.939-94.405z"/>
	<path fill="#FAA61C" d="M303.062-79.594c-1.115,2.003-2.691,3.633-4.647,4.827c-0.331,0.202,0.012,0.699,0.343,0.496
		c2.042-1.248,3.683-2.969,4.846-5.06C303.793-79.67,303.25-79.932,303.062-79.594z"/>
	<path fill="#FAA61C" d="M303.18-84.092c-0.153,1.492-0.638,2.881-1.446,4.145c-0.209,0.327,0.331,0.597,0.538,0.272
		c0.833-1.303,1.339-2.752,1.498-4.29C303.809-84.348,303.219-84.478,303.18-84.092z"/>
	<path fill="#E98C24" d="M290.811-71.487c-0.054,1.22-0.108,2.44-0.163,3.66c-0.017,0.387,0.585,0.338,0.602-0.045
		c0.054-1.22,0.108-2.44,0.163-3.66C291.43-71.92,290.828-71.871,290.811-71.487z"/>
	<path fill="#E98C24" d="M295.672-71.837c-0.051-0.383-0.653-0.34-0.602,0.045c0.163,1.22,0.325,2.44,0.488,3.66
		c0.051,0.383,0.653,0.34,0.602-0.045C295.997-69.397,295.834-70.617,295.672-71.837z"/>
	<path fill="#E98C24" d="M300.939-69.634c-0.461-1.166-0.922-2.332-1.383-3.497c-0.142-0.36-0.711-0.159-0.568,0.204
		c0.461,1.166,0.922,2.332,1.383,3.497C300.513-69.07,301.082-69.271,300.939-69.634z"/>
	<path fill="#E98C24" d="M304.48-72.016c-0.638-1.041-1.275-2.083-1.913-3.124c-0.19-0.311-0.654,0.012-0.464,0.322
		c0.638,1.041,1.275,2.083,1.913,3.124C304.206-71.383,304.67-71.706,304.48-72.016z"/>
	<path fill="#E98C24" d="M307.32-75.03l-2.5-2.262c-0.244-0.221-0.574,0.172-0.33,0.393c0.833,0.754,1.667,1.508,2.5,2.262
		C307.234-74.416,307.564-74.809,307.32-75.03z"/>
	<path fill="#E98C24" d="M309.785-79.336c-1.058-0.379-2.115-0.757-3.173-1.136c-0.362-0.13-0.63,0.412-0.264,0.542
		c1.058,0.379,2.115,0.757,3.173,1.136C309.883-78.663,310.15-79.205,309.785-79.336z"/>
	<path fill="#E98C24" d="M311.005-84.389c-1.181,0.044-2.362,0.087-3.543,0.131c-0.338,0.013-0.298,0.614,0.04,0.602
		c1.181-0.044,2.362-0.087,3.543-0.131C311.383-83.8,311.343-84.401,311.005-84.389z"/>
	<path fill="#E98C24" d="M311.162-89.016c-1.22,0.3-2.439,0.601-3.659,0.901c-0.376,0.093-0.171,0.66,0.204,0.568
		c1.22-0.3,2.439-0.601,3.659-0.901C311.742-88.541,311.536-89.109,311.162-89.016z"/>
	<path fill="#FAA61C" d="M282.378-88.592c0.167-1.491,0.664-2.875,1.485-4.131c0.212-0.325-0.325-0.6-0.536-0.277
		c-0.845,1.295-1.365,2.739-1.538,4.276C281.747-88.342,282.335-88.207,282.378-88.592z"/>
	<path fill="#E98C24" d="M295.308-101.833c0.14-1.213,0.281-2.426,0.421-3.64c0.045-0.385-0.559-0.379-0.603,0.003
		c-0.14,1.213-0.281,2.426-0.421,3.64C294.66-101.445,295.264-101.451,295.308-101.833z"/>
	<path fill="#E98C24" d="M290.433-101.801c0.024,0.386,0.627,0.386,0.603-0.003c-0.076-1.229-0.152-2.457-0.228-3.686
		c-0.024-0.386-0.627-0.386-0.603,0.003C290.281-104.258,290.357-103.03,290.433-101.801z"/>
	<path fill="#E98C24" d="M285.12-104.109c0.35,1.077,0.701,2.154,1.051,3.23c0.108,0.332,0.645,0.189,0.536-0.146
		c-0.35-1.077-0.701-2.154-1.051-3.23C285.548-104.588,285.011-104.444,285.12-104.109z"/>
	<path fill="#E98C24" d="M281.387-102.229c0.551,1.102,1.102,2.203,1.653,3.305c0.164,0.329,0.643,0.034,0.478-0.295
		c-0.551-1.102-1.102-2.203-1.653-3.305C281.701-102.852,281.222-102.557,281.387-102.229z"/>
	<path fill="#E98C24" d="M278.258-99.311l2.597,2.6c0.254,0.254,0.648-0.138,0.395-0.392c-0.866-0.867-1.732-1.734-2.597-2.601
		C278.399-99.957,278.004-99.565,278.258-99.311z"/>
	<path fill="#E98C24" d="M275.505-95.225c1.028,0.453,2.057,0.905,3.085,1.358c0.352,0.155,0.657-0.366,0.302-0.522
		c-1.028-0.453-2.057-0.905-3.085-1.358C275.455-95.902,275.15-95.381,275.505-95.225z"/>
	<path fill="#E98C24" d="M273.879-90.086c1.235,0.044,2.47,0.087,3.705,0.131c0.354,0.013,0.354-0.59,0.001-0.603
		c-1.235-0.044-2.47-0.087-3.705-0.131C273.526-90.702,273.526-90.099,273.879-90.086z"/>
	<path fill="#E98C24" d="M273.572-85.372c1.238-0.213,2.475-0.427,3.713-0.64c0.382-0.066,0.217-0.646-0.163-0.581
		c-1.238,0.213-2.475,0.427-3.713,0.64C273.027-85.887,273.192-85.306,273.572-85.372z"/>
	<path fill="#E98C24" d="M307.38-90.117c1.133-0.456,2.266-0.913,3.398-1.369c0.359-0.145,0.066-0.672-0.291-0.529
		c-1.133,0.456-2.266,0.913-3.398,1.369C306.731-90.501,307.024-89.974,307.38-90.117z"/>
	<path fill="#E98C24" d="M309.139-95.751c-1.128,0.547-2.257,1.093-3.385,1.639c-0.348,0.169-0.105,0.721,0.245,0.551
		c1.128-0.546,2.257-1.093,3.385-1.639C309.733-95.368,309.49-95.921,309.139-95.751z"/>
	<path fill="#E98C24" d="M306.79-99.176c-0.994,0.747-1.989,1.494-2.983,2.241c-0.297,0.223,0.063,0.685,0.359,0.462
		c0.994-0.747,1.989-1.494,2.983-2.241C307.446-98.936,307.086-99.398,306.79-99.176z"/>
	<path fill="#E98C24" d="M303.751-101.882l-2.1,2.772c-0.205,0.271,0.219,0.584,0.424,0.313c0.7-0.924,1.4-1.848,2.1-2.772
		C304.38-101.839,303.956-102.152,303.751-101.882z"/>
	<path fill="#E98C24" d="M299.407-104.217c-0.299,1.083-0.598,2.166-0.897,3.249c-0.102,0.371,0.457,0.597,0.561,0.223
		c0.299-1.083,0.598-2.166,0.897-3.249C300.07-104.364,299.51-104.591,299.407-104.217z"/>
	<path fill="#E98C24" d="M277.228-83.4c-0.94,0.362-1.88,0.723-2.82,1.085c-0.361,0.139-0.16,0.708,0.204,0.568
		c0.94-0.361,1.88-0.723,2.82-1.084C277.793-82.971,277.592-83.54,277.228-83.4z"/>
	<path fill="#E98C24" d="M278.623-79.727c-1.029,0.418-2.059,0.836-3.088,1.254c-0.358,0.146-0.157,0.715,0.204,0.568
		c1.029-0.418,2.059-0.836,3.088-1.254C279.185-79.305,278.984-79.874,278.623-79.727z"/>
	<path fill="#E98C24" d="M279.883-77.321c-0.91,0.551-1.819,1.101-2.729,1.652c-0.332,0.201,0.011,0.697,0.343,0.497
		c0.91-0.551,1.819-1.101,2.729-1.652C280.558-77.025,280.215-77.521,279.883-77.321z"/>
	<path fill="#E98C24" d="M282.122-75.211c-0.831,0.723-1.663,1.446-2.494,2.169c-0.29,0.252,0.049,0.752,0.343,0.497
		c0.831-0.723,1.663-1.446,2.494-2.169C282.755-74.967,282.416-75.466,282.122-75.211z"/>
	<path fill="#E98C24" d="M284.32-72.998c-0.528,0.865-1.056,1.73-1.584,2.596c-0.203,0.332,0.342,0.593,0.542,0.264
		c0.528-0.865,1.056-1.73,1.584-2.596C285.065-73.065,284.521-73.326,284.32-72.998z"/>
	<path fill="#E98C24" d="M287.97-71.634c-0.362,1.012-0.725,2.024-1.087,3.036c-0.13,0.362,0.412,0.63,0.542,0.264
		c0.362-1.012,0.725-2.024,1.087-3.036C288.642-71.732,288.1-71.999,287.97-71.634z"/>
</g>
<g>
	<path fill="#E98C24" d="M235.577-111.328c0.637-0.531,1.332-0.999,2.08-1.4c-0.745,0.408-1.447,0.878-2.084,1.41L235.577-111.328z"
		/>
	<path fill="#E98C24" d="M238.885-113.322l0.003,0.007l-0.007,0.003c-0.212,0.089-0.414,0.181-0.616,0.274
		C238.464-113.138,238.673-113.234,238.885-113.322z"/>
	<g>
		<circle fill="#FEC465" cx="243.264" cy="-100.724" r="11.83"/>
		<path fill="#FAA61C" d="M248.401-88.444c-6.771,2.832-14.584-0.372-17.416-7.143c-2.832-6.771,0.372-14.584,7.143-17.416
			c6.771-2.832,14.584,0.372,17.416,7.143C258.376-99.09,255.172-91.277,248.401-88.444z M239.27-110.27
			c-5.264,2.202-7.755,8.276-5.553,13.54c2.202,5.264,8.276,7.755,13.54,5.553s7.755-8.276,5.553-13.54
			C250.609-109.981,244.534-112.472,239.27-110.27z"/>
	</g>
	<g>
		<g>
			<g>
				<path fill="#FAA61C" d="M247.87-99.813c0.686,1.64,0.228,3.399-1.135,4.61l0.806,1.928l-2.876,1.203l-0.732-1.75
					c-0.876,0.208-1.777,0.24-2.485,0.076l-0.732-0.168l-0.176-3.292l1.253,0.245c0.664,0.125,1.448,0.041,2.097-0.23
					c0.483-0.202,0.976-0.624,0.761-1.138c-0.087-0.208-0.248-0.594-1.763-0.571c-1.897,0.038-3.962-0.205-4.85-2.329
					c-0.655-1.567-0.217-3.253,1.086-4.417l-0.786-1.879l2.858-1.196l0.709,1.695c0.664-0.148,1.312-0.182,1.951-0.097l0.831,0.113
					l0.115,3.267l-1.159-0.141c-0.31-0.036-0.955-0.118-1.812,0.24c-0.306,0.128-0.804,0.416-0.622,0.85
					c0.084,0.202,0.177,0.422,1.914,0.415C244.692-102.389,246.897-102.139,247.87-99.813z"/>
			</g>
		</g>
	</g>
	<path fill="#FAA61C" d="M238.495-93.053c-2.097-1.468-3.394-3.755-3.593-6.304c-0.021-0.267-0.437-0.259-0.416,0.009
		c0.212,2.713,1.585,5.103,3.813,6.662C238.518-92.533,238.713-92.901,238.495-93.053z"/>
	<path fill="#FAA61C" d="M235.913-106.378c-0.923,1.496-1.492,3.149-1.682,4.897c-0.029,0.263,0.376,0.363,0.405,0.097
		c0.187-1.715,0.739-3.329,1.645-4.797C236.421-106.41,236.054-106.606,235.913-106.378z"/>
	<path fill="#FAA61C" d="M247.903-109.094c-0.225-0.146-0.421,0.222-0.197,0.367c2.569,1.662,4.211,4.399,4.472,7.447
		c0.023,0.266,0.439,0.258,0.416-0.009C252.32-104.497,250.606-107.345,247.903-109.094z"/>
	<path fill="#FAA61C" d="M252.042-99.723c-0.052,1.582-0.505,3.08-1.328,4.431c-0.139,0.229,0.228,0.425,0.367,0.197
		c0.86-1.411,1.323-2.986,1.378-4.637C252.467-100,252.051-99.99,252.042-99.723z"/>
	<path fill="#FAA61C" d="M250.694-102.522c0.377,0.965,0.518,1.97,0.421,3.001c-0.025,0.267,0.392,0.262,0.416-0.003
		c0.1-1.063-0.047-2.112-0.435-3.107C250.999-102.877,250.596-102.771,250.694-102.522z"/>
	<path fill="#E98C24" d="M247.081-90.877c0.352,0.766,0.704,1.532,1.056,2.299c0.112,0.243,0.466,0.023,0.355-0.218
		c-0.352-0.766-0.704-1.532-1.056-2.299C247.324-91.338,246.97-91.118,247.081-90.877z"/>
	<path fill="#E98C24" d="M249.954-92.626c-0.152-0.219-0.508-0.003-0.355,0.218c0.485,0.698,0.97,1.395,1.455,2.093
		c0.152,0.219,0.508,0.003,0.355-0.218C250.925-91.231,250.44-91.929,249.954-92.626z"/>
	<path fill="#E98C24" d="M253.884-92.937c-0.651-0.57-1.302-1.14-1.954-1.711c-0.201-0.176-0.487,0.127-0.284,0.304
		c0.651,0.57,1.302,1.14,1.954,1.711C253.801-92.457,254.087-92.76,253.884-92.937z"/>
	<path fill="#E98C24" d="M255.306-95.518c-0.72-0.438-1.441-0.876-2.161-1.314c-0.215-0.131-0.398,0.214-0.183,0.344
		c0.72,0.438,1.441,0.876,2.161,1.314C255.338-95.043,255.52-95.387,255.306-95.518z"/>
	<path fill="#E98C24" d="M256.098-98.265l-2.249-0.599c-0.22-0.059-0.298,0.287-0.078,0.345c0.75,0.2,1.499,0.399,2.249,0.599
		C256.239-97.861,256.317-98.207,256.098-98.265z"/>
	<path fill="#E98C24" d="M256.251-101.687c-0.769,0.102-1.538,0.203-2.307,0.304c-0.263,0.035-0.257,0.452,0.009,0.416
		c0.769-0.101,1.538-0.203,2.307-0.304C256.524-101.306,256.517-101.722,256.251-101.687z"/>
	<path fill="#E98C24" d="M255.405-105.175c-0.711,0.4-1.423,0.8-2.134,1.199c-0.204,0.114,0.011,0.471,0.214,0.357
		c0.711-0.4,1.423-0.8,2.134-1.199C255.823-104.933,255.608-105.289,255.405-105.175z"/>
	<path fill="#E98C24" d="M254.04-108.066c-0.654,0.57-1.308,1.139-1.962,1.709c-0.202,0.176,0.104,0.459,0.304,0.284
		c0.654-0.57,1.308-1.139,1.962-1.709C254.546-107.957,254.24-108.241,254.04-108.066z"/>
	<path fill="#FAA61C" d="M236.501-98.716c-0.368-0.968-0.5-1.975-0.393-3.005c0.028-0.267-0.389-0.266-0.417-0.001
		c-0.11,1.062,0.027,2.113,0.406,3.111C236.192-98.363,236.596-98.465,236.501-98.716z"/>
	<path fill="#E98C24" d="M240.258-110.928c-0.297-0.789-0.594-1.578-0.891-2.368c-0.094-0.25-0.463-0.056-0.37,0.192
		c0.297,0.789,0.594,1.578,0.891,2.368C239.983-110.485,240.352-110.68,240.258-110.928z"/>
	<path fill="#E98C24" d="M237.275-109.369c0.136,0.229,0.507,0.039,0.37-0.192c-0.435-0.73-0.869-1.461-1.304-2.191
		c-0.136-0.229-0.507-0.039-0.369,0.192C236.406-110.83,236.84-110.1,237.275-109.369z"/>
	<path fill="#E98C24" d="M233.284-109.109c0.555,0.55,1.11,1.101,1.665,1.652c0.171,0.17,0.456-0.088,0.283-0.259
		c-0.555-0.551-1.11-1.101-1.665-1.652C233.396-109.537,233.112-109.28,233.284-109.109z"/>
	<path fill="#E98C24" d="M231.586-106.775c0.686,0.502,1.373,1.005,2.059,1.507c0.205,0.15,0.405-0.182,0.201-0.332
		c-0.686-0.502-1.373-1.005-2.059-1.507C231.582-107.257,231.381-106.925,231.586-106.775z"/>
	<path fill="#E98C24" d="M230.586-103.996l2.416,0.776c0.236,0.076,0.355-0.289,0.119-0.365c-0.805-0.259-1.611-0.518-2.416-0.776
		C230.469-104.437,230.35-104.071,230.586-103.996z"/>
	<path fill="#E98C24" d="M230.187-100.617c0.774-0.047,1.549-0.094,2.323-0.141c0.265-0.016,0.288-0.432,0.021-0.416
		c-0.774,0.047-1.548,0.094-2.323,0.141C229.942-101.017,229.919-100.601,230.187-100.617z"/>
	<path fill="#E98C24" d="M230.811-96.949c0.772-0.363,1.544-0.726,2.316-1.09c0.221-0.104,0.031-0.474-0.19-0.371
		c-0.772,0.363-1.544,0.726-2.316,1.09C230.4-97.215,230.59-96.845,230.811-96.949z"/>
	<path fill="#E98C24" d="M232.111-93.957c0.693-0.522,1.385-1.044,2.078-1.566c0.214-0.161-0.071-0.465-0.284-0.305
		c-0.693,0.522-1.385,1.044-2.078,1.566C231.614-94.101,231.899-93.797,232.111-93.957z"/>
	<path fill="#E98C24" d="M251.37-107.548c0.551-0.638,1.103-1.276,1.654-1.914c0.175-0.202-0.172-0.433-0.345-0.233
		c-0.551,0.638-1.103,1.276-1.654,1.914C250.85-107.578,251.197-107.347,251.37-107.548z"/>
	<path fill="#E98C24" d="M250.671-111.562c-0.52,0.692-1.04,1.384-1.56,2.076c-0.161,0.214,0.163,0.476,0.325,0.261
		c0.52-0.692,1.04-1.384,1.56-2.075C251.156-111.515,250.833-111.777,250.671-111.562z"/>
	<path fill="#E98C24" d="M248.147-112.923c-0.375,0.773-0.749,1.545-1.124,2.318c-0.112,0.23,0.255,0.401,0.367,0.17
		c0.375-0.773,0.749-1.545,1.124-2.318C248.625-112.983,248.259-113.153,248.147-112.923z"/>
	<path fill="#E98C24" d="M245.427-113.624l-0.414,2.365c-0.04,0.231,0.319,0.289,0.359,0.058c0.138-0.788,0.276-1.577,0.414-2.365
		C245.826-113.797,245.467-113.855,245.427-113.624z"/>
	<path fill="#E98C24" d="M242.022-113.686c0.158,0.759,0.317,1.519,0.475,2.278c0.054,0.26,0.469,0.222,0.415-0.04
		c-0.158-0.759-0.317-1.519-0.475-2.278C242.382-113.986,241.967-113.948,242.022-113.686z"/>
	<path fill="#E98C24" d="M234.979-93.901c-0.463,0.519-0.926,1.038-1.389,1.556c-0.178,0.199,0.125,0.485,0.304,0.284
		c0.463-0.519,0.926-1.038,1.389-1.556C235.461-93.817,235.158-94.102,234.979-93.901z"/>
	<path fill="#E98C24" d="M236.995-92.087c-0.5,0.582-1,1.163-1.5,1.745c-0.174,0.202,0.129,0.489,0.304,0.284
		c0.5-0.582,1-1.163,1.5-1.745C237.474-92.005,237.171-92.291,236.995-92.087z"/>
	<path fill="#E98C24" d="M238.529-91.007c-0.385,0.625-0.769,1.251-1.154,1.876c-0.14,0.228,0.227,0.425,0.367,0.197
		c0.385-0.625,0.769-1.251,1.154-1.876C239.037-91.039,238.669-91.235,238.529-91.007z"/>
	<path fill="#E98C24" d="M240.57-90.419c-0.282,0.706-0.564,1.413-0.846,2.119c-0.098,0.246,0.268,0.446,0.367,0.197
		c0.282-0.706,0.564-1.413,0.846-2.119C241.035-90.469,240.669-90.669,240.57-90.419z"/>
	<path fill="#E98C24" d="M242.618-89.754c-0.051,0.698-0.102,1.396-0.153,2.094c-0.02,0.268,0.397,0.256,0.416-0.009
		c0.051-0.698,0.102-1.396,0.153-2.094C243.054-90.031,242.637-90.019,242.618-89.754z"/>
	<path fill="#E98C24" d="M245.289-90.07c0.097,0.736,0.194,1.471,0.291,2.207c0.035,0.263,0.452,0.257,0.416-0.009
		c-0.097-0.736-0.194-1.471-0.291-2.207C245.671-90.342,245.254-90.335,245.289-90.07z"/>
</g>
<g>
	<path fill="#E98C24" d="M344.974-99.447c0.828,0.052,1.654,0.19,2.473,0.413c-0.821-0.216-1.655-0.357-2.482-0.409L344.974-99.447z
		"/>
	<path fill="#E98C24" d="M348.747-98.621l-0.003,0.007l-0.007-0.003c-0.215-0.081-0.425-0.153-0.636-0.225
		C348.315-98.777,348.533-98.702,348.747-98.621z"/>
	<g>
		<circle fill="#FEC465" cx="343.268" cy="-86.461" r="11.83"/>
		<path fill="#FAA61C" d="M338.557-74.012c-6.865-2.597-10.336-10.295-7.739-17.16c2.597-6.865,10.295-10.336,17.16-7.739
			s10.336,10.295,7.739,17.16C353.119-74.886,345.422-71.415,338.557-74.012z M346.929-96.14c-5.336-2.019-11.321,0.68-13.341,6.017
			c-2.019,5.336,0.68,11.321,6.017,13.341c5.336,2.019,11.321-0.68,13.341-6.017C354.965-88.136,352.266-94.121,346.929-96.14z"/>
	</g>
	<g>
		<g>
			<g>
				<path fill="#FAA61C" d="M345.987-82.634c-0.629,1.663-2.171,2.626-3.993,2.568l-0.74,1.955l-2.916-1.103l0.671-1.775
					c-0.78-0.451-1.455-1.047-1.857-1.653l-0.416-0.626l2.135-2.512l0.742,1.04c0.396,0.547,1.023,1.026,1.681,1.274
					c0.49,0.185,1.138,0.218,1.335-0.304c0.08-0.211,0.228-0.602-0.888-1.627c-1.404-1.276-2.736-2.872-1.922-5.025
					c0.601-1.588,2.078-2.512,3.825-2.461l0.721-1.905l2.898,1.096l-0.65,1.719c0.584,0.349,1.078,0.77,1.484,1.271l0.526,0.653
					l-2.162,2.452l-0.745-0.899c-0.2-0.239-0.613-0.743-1.481-1.071c-0.31-0.117-0.87-0.251-1.036,0.189
					c-0.077,0.205-0.162,0.428,1.105,1.617C345.45-86.689,346.879-84.992,345.987-82.634z"/>
			</g>
		</g>
	</g>
	<path fill="#FAA61C" d="M334.531-84.168c-0.514-2.507,0.116-5.06,1.724-7.048c0.168-0.208-0.14-0.489-0.309-0.28
		c-1.711,2.116-2.356,4.796-1.811,7.459C334.19-83.775,334.585-83.908,334.531-84.168z"/>
	<path fill="#FAA61C" d="M341.816-95.621c-1.699,0.452-3.248,1.261-4.588,2.4c-0.202,0.171,0.023,0.522,0.228,0.349
		c1.314-1.117,2.825-1.91,4.492-2.354C342.207-95.294,342.075-95.69,341.816-95.621z"/>
	<path fill="#FAA61C" d="M352.391-89.351c-0.063-0.26-0.458-0.128-0.395,0.132c0.723,2.973,0.034,6.089-1.871,8.483
		c-0.167,0.209,0.141,0.49,0.309,0.28C352.438-82.976,353.151-86.223,352.391-89.351z"/>
	<path fill="#FAA61C" d="M348.955-79.7c-1.125,1.113-2.484,1.89-4.011,2.305c-0.259,0.07-0.127,0.466,0.132,0.395
		c1.594-0.434,3.014-1.259,4.188-2.421C349.454-79.609,349.145-79.888,348.955-79.7z"/>
	<path fill="#FAA61C" d="M349.899-82.659c-0.389,0.96-0.978,1.787-1.757,2.469c-0.202,0.177,0.104,0.46,0.304,0.284
		c0.803-0.703,1.418-1.566,1.82-2.556C350.366-82.708,350-82.908,349.899-82.659z"/>
	<path fill="#E98C24" d="M339.271-76.686c-0.271,0.798-0.542,1.597-0.813,2.395c-0.086,0.253,0.322,0.337,0.408,0.086
		c0.271-0.798,0.542-1.597,0.813-2.395C339.764-76.853,339.356-76.937,339.271-76.686z"/>
	<path fill="#E98C24" d="M342.56-75.981c0.04-0.264-0.367-0.351-0.408-0.086c-0.127,0.84-0.255,1.68-0.382,2.521
		c-0.04,0.264,0.367,0.351,0.408,0.086C342.306-74.301,342.433-75.141,342.56-75.981z"/>
	<path fill="#E98C24" d="M345.628-73.505c-0.081-0.862-0.162-1.724-0.243-2.585c-0.025-0.266-0.441-0.242-0.416,0.026
		c0.081,0.862,0.162,1.724,0.243,2.585C345.237-73.214,345.653-73.237,345.628-73.505z"/>
	<path fill="#E98C24" d="M348.435-74.403c-0.222-0.813-0.444-1.627-0.666-2.44c-0.066-0.243-0.436-0.118-0.369,0.124
		c0.222,0.813,0.444,1.627,0.666,2.44C348.131-74.036,348.501-74.16,348.435-74.403z"/>
	<path fill="#E98C24" d="M350.898-75.854l-1.222-1.981c-0.119-0.194-0.414,0.003-0.294,0.197c0.407,0.66,0.814,1.321,1.222,1.981
		C350.723-75.463,351.018-75.66,350.898-75.854z"/>
	<path fill="#E98C24" d="M353.362-78.233c-0.628-0.455-1.257-0.91-1.885-1.365c-0.215-0.156-0.497,0.152-0.28,0.309
		c0.628,0.455,1.257,0.91,1.885,1.365C353.298-77.769,353.579-78.076,353.362-78.233z"/>
	<path fill="#E98C24" d="M355.145-81.348c-0.791-0.199-1.583-0.397-2.374-0.596c-0.227-0.057-0.316,0.35-0.09,0.406
		c0.791,0.199,1.583,0.397,2.374,0.596C355.282-80.885,355.371-81.291,355.145-81.348z"/>
	<path fill="#E98C24" d="M356.141-84.386c-0.866-0.036-1.733-0.072-2.599-0.108c-0.267-0.011-0.24,0.405,0.026,0.416
		c0.866,0.036,1.733,0.072,2.599,0.108C356.433-83.959,356.407-84.375,356.141-84.386z"/>
	<path fill="#FAA61C" d="M336.975-89.651c0.398-0.956,0.994-1.778,1.78-2.453c0.203-0.175-0.1-0.46-0.302-0.287
		c-0.81,0.696-1.433,1.553-1.843,2.539C336.508-89.607,336.872-89.404,336.975-89.651z"/>
	<path fill="#E98C24" d="M348.099-95.938c0.327-0.777,0.654-1.555,0.98-2.332c0.104-0.247-0.298-0.359-0.4-0.114
		c-0.327,0.777-0.654,1.555-0.98,2.332C347.595-95.806,347.996-95.694,348.099-95.938z"/>
	<path fill="#E98C24" d="M344.861-96.857c-0.059,0.26,0.342,0.377,0.4,0.114c0.186-0.829,0.373-1.658,0.559-2.487
		c0.059-0.26-0.342-0.377-0.4-0.114C345.234-98.515,345.047-97.686,344.861-96.857z"/>
	<path fill="#E98C24" d="M341.783-99.411c0.025,0.781,0.049,1.563,0.074,2.344c0.008,0.241,0.391,0.25,0.383,0.007
		c-0.025-0.781-0.049-1.563-0.074-2.344C342.159-99.646,341.776-99.654,341.783-99.411z"/>
	<path fill="#E98C24" d="M338.946-98.884c0.153,0.837,0.306,1.673,0.459,2.51c0.046,0.25,0.42,0.146,0.374-0.103
		c-0.153-0.837-0.306-1.673-0.459-2.51C339.274-99.236,338.9-99.133,338.946-98.884z"/>
	<path fill="#E98C24" d="M336.309-97.552l1.221,2.225c0.119,0.217,0.456,0.034,0.337-0.184c-0.407-0.742-0.814-1.483-1.221-2.225
		C336.527-97.953,336.19-97.769,336.309-97.552z"/>
	<path fill="#E98C24" d="M333.697-95.373c0.595,0.498,1.189,0.996,1.784,1.495c0.204,0.171,0.506-0.116,0.301-0.288
		c-0.595-0.498-1.189-0.996-1.784-1.495C333.794-95.832,333.491-95.545,333.697-95.373z"/>
	<path fill="#E98C24" d="M331.628-92.28c0.81,0.267,1.621,0.534,2.431,0.801c0.232,0.076,0.349-0.323,0.117-0.4
		c-0.81-0.267-1.621-0.534-2.431-0.801C331.513-92.756,331.396-92.356,331.628-92.28z"/>
	<path fill="#E98C24" d="M330.516-89.213c0.862,0.097,1.723,0.194,2.585,0.291c0.266,0.03,0.268-0.387,0.004-0.417
		c-0.862-0.097-1.723-0.194-2.585-0.291C330.254-89.66,330.251-89.243,330.516-89.213z"/>
	<path fill="#E98C24" d="M353.846-85.845c0.839-0.084,1.678-0.169,2.517-0.253c0.266-0.027,0.173-0.433-0.091-0.406
		c-0.839,0.084-1.678,0.169-2.517,0.253C353.489-86.225,353.582-85.818,353.846-85.845z"/>
	<path fill="#E98C24" d="M356.097-89.241c-0.853,0.145-1.707,0.29-2.56,0.435c-0.263,0.045-0.209,0.458,0.056,0.413
		c0.853-0.145,1.707-0.29,2.56-0.435C356.417-88.873,356.362-89.286,356.097-89.241z"/>
	<path fill="#E98C24" d="M355.2-91.964c-0.803,0.304-1.606,0.607-2.41,0.911c-0.24,0.091-0.09,0.466,0.149,0.376
		c0.803-0.304,1.606-0.607,2.41-0.911C355.588-91.679,355.439-92.055,355.2-91.964z"/>
	<path fill="#E98C24" d="M353.706-94.344l-1.927,1.433c-0.188,0.14,0.033,0.429,0.221,0.289c0.642-0.478,1.284-0.955,1.927-1.433
		C354.115-94.195,353.894-94.484,353.706-94.344z"/>
	<path fill="#E98C24" d="M351.276-96.729c-0.407,0.66-0.814,1.321-1.221,1.981c-0.139,0.226,0.188,0.484,0.329,0.256
		c0.407-0.66,0.814-1.321,1.221-1.981C351.744-96.699,351.416-96.957,351.276-96.729z"/>
	<path fill="#E98C24" d="M332.56-87.202c-0.693,0.059-1.386,0.117-2.078,0.176c-0.266,0.023-0.243,0.438,0.026,0.416
		c0.693-0.059,1.386-0.117,2.078-0.176C332.852-86.808,332.828-87.224,332.56-87.202z"/>
	<path fill="#E98C24" d="M332.778-84.498c-0.763,0.079-1.526,0.158-2.289,0.236c-0.266,0.027-0.242,0.443,0.026,0.416
		c0.763-0.079,1.526-0.158,2.289-0.236C333.069-84.109,333.045-84.525,332.778-84.498z"/>
	<path fill="#E98C24" d="M333.149-82.659c-0.709,0.19-1.418,0.38-2.127,0.57c-0.259,0.069-0.127,0.464,0.132,0.395
		c0.709-0.19,1.418-0.38,2.128-0.57C333.54-82.333,333.408-82.728,333.149-82.659z"/>
	<path fill="#E98C24" d="M334.227-80.829c-0.691,0.319-1.381,0.638-2.072,0.957c-0.241,0.111-0.112,0.508,0.132,0.395
		c0.691-0.319,1.381-0.638,2.072-0.957C334.599-80.545,334.471-80.942,334.227-80.829z"/>
	<path fill="#E98C24" d="M335.258-78.938c-0.517,0.472-1.034,0.944-1.551,1.416c-0.198,0.181,0.112,0.459,0.309,0.28
		c0.517-0.472,1.034-0.944,1.551-1.416C335.765-78.839,335.454-79.117,335.258-78.938z"/>
	<path fill="#E98C24" d="M337.415-77.331c-0.435,0.601-0.87,1.202-1.306,1.803c-0.156,0.215,0.152,0.497,0.309,0.28
		c0.435-0.601,0.87-1.202,1.306-1.803C337.879-77.266,337.572-77.548,337.415-77.331z"/>
</g>
<g>
	<path fill="#E98C24" d="M216.529-82.193c0.45,0.028,0.9,0.104,1.346,0.225c-0.447-0.117-0.901-0.194-1.351-0.222L216.529-82.193z"
		/>
	<path fill="#E98C24" d="M218.583-81.744l-0.001,0.004l-0.004-0.001c-0.117-0.044-0.231-0.083-0.346-0.122
		C218.348-81.828,218.466-81.788,218.583-81.744z"/>
	<g>
		<circle fill="#FEC465" cx="215.601" cy="-75.125" r="6.439"/>
		<path fill="#FAA61C" d="M213.037-68.349c-3.736-1.414-5.626-5.604-4.212-9.34c1.414-3.736,5.604-5.626,9.34-4.212
			s5.626,5.604,4.212,9.34S216.773-66.935,213.037-68.349z M217.594-80.393c-2.905-1.099-6.162,0.37-7.261,3.275
			c-1.099,2.905,0.37,6.162,3.275,7.261c2.905,1.099,6.162-0.37,7.261-3.275C221.967-76.036,220.498-79.294,217.594-80.393z"/>
	</g>
	<g>
		<g>
			<g>
				<path fill="#FAA61C" d="M217.08-73.042c-0.342,0.905-1.182,1.429-2.173,1.398l-0.403,1.064l-1.587-0.601l0.365-0.966
					c-0.424-0.246-0.792-0.57-1.011-0.9l-0.226-0.34l1.162-1.367l0.404,0.566c0.215,0.298,0.557,0.558,0.915,0.694
					c0.267,0.101,0.619,0.118,0.727-0.165c0.043-0.115,0.124-0.328-0.483-0.886c-0.764-0.694-1.489-1.563-1.046-2.735
					c0.327-0.865,1.131-1.367,2.082-1.339l0.392-1.037l1.577,0.597l-0.354,0.935c0.318,0.19,0.587,0.419,0.808,0.692l0.286,0.355
					l-1.177,1.335l-0.406-0.489c-0.109-0.13-0.334-0.404-0.806-0.583c-0.169-0.064-0.473-0.137-0.564,0.103
					c-0.042,0.111-0.088,0.233,0.601,0.88C216.788-75.249,217.566-74.325,217.08-73.042z"/>
			</g>
		</g>
	</g>
	<path fill="#FAA61C" d="M210.846-73.877c-0.28-1.365,0.063-2.754,0.938-3.836c0.092-0.113-0.076-0.266-0.168-0.152
		c-0.931,1.152-1.282,2.61-0.986,4.06C210.66-73.663,210.875-73.735,210.846-73.877z"/>
	<path fill="#FAA61C" d="M214.81-80.11c-0.925,0.246-1.768,0.687-2.497,1.306c-0.11,0.093,0.013,0.284,0.124,0.19
		c0.715-0.608,1.537-1.039,2.445-1.281C215.023-79.933,214.951-80.148,214.81-80.11z"/>
	<path fill="#FAA61C" d="M220.566-76.698c-0.034-0.142-0.249-0.07-0.215,0.072c0.394,1.618,0.019,3.314-1.019,4.617
		c-0.091,0.114,0.077,0.267,0.168,0.152C220.592-73.228,220.98-74.995,220.566-76.698z"/>
	<path fill="#FAA61C" d="M218.696-71.445c-0.612,0.606-1.352,1.029-2.183,1.255c-0.141,0.038-0.069,0.253,0.072,0.215
		c0.868-0.236,1.64-0.685,2.279-1.318C218.968-71.396,218.799-71.547,218.696-71.445z"/>
	<path fill="#FAA61C" d="M219.21-73.056c-0.212,0.522-0.532,0.973-0.956,1.344c-0.11,0.096,0.057,0.25,0.166,0.155
		c0.437-0.383,0.772-0.852,0.99-1.391C219.464-73.082,219.265-73.191,219.21-73.056z"/>
	<path fill="#E98C24" d="M213.425-69.804c-0.148,0.435-0.295,0.869-0.443,1.304c-0.047,0.138,0.175,0.183,0.222,0.047
		c0.148-0.435,0.295-0.869,0.443-1.304C213.694-69.896,213.471-69.941,213.425-69.804z"/>
	<path fill="#E98C24" d="M215.216-69.421c0.022-0.144-0.2-0.191-0.222-0.047c-0.069,0.457-0.139,0.915-0.208,1.372
		c-0.022,0.144,0.2,0.191,0.222,0.047C215.077-68.506,215.146-68.964,215.216-69.421z"/>
	<path fill="#E98C24" d="M216.885-68.073c-0.044-0.469-0.088-0.938-0.132-1.407c-0.014-0.145-0.24-0.132-0.226,0.014
		c0.044,0.469,0.088,0.938,0.132,1.407C216.673-67.915,216.899-67.927,216.885-68.073z"/>
	<path fill="#E98C24" d="M218.413-68.562c-0.121-0.443-0.242-0.885-0.363-1.328c-0.036-0.132-0.237-0.064-0.201,0.068
		c0.121,0.443,0.242,0.885,0.363,1.328C218.248-68.362,218.449-68.43,218.413-68.562z"/>
	<path fill="#E98C24" d="M219.754-69.351l-0.665-1.078c-0.065-0.105-0.225,0.002-0.16,0.107c0.222,0.359,0.443,0.719,0.665,1.078
		C219.659-69.139,219.819-69.246,219.754-69.351z"/>
	<path fill="#E98C24" d="M221.095-70.647c-0.342-0.248-0.684-0.495-1.026-0.743c-0.117-0.085-0.27,0.082-0.152,0.168
		c0.342,0.248,0.684,0.495,1.026,0.743C221.06-70.394,221.213-70.561,221.095-70.647z"/>
	<path fill="#E98C24" d="M222.065-72.342c-0.431-0.108-0.862-0.216-1.292-0.324c-0.123-0.031-0.172,0.19-0.049,0.221
		c0.431,0.108,0.862,0.216,1.292,0.324C222.14-72.09,222.188-72.311,222.065-72.342z"/>
	<path fill="#E98C24" d="M222.607-73.996c-0.472-0.02-0.943-0.039-1.415-0.059c-0.145-0.006-0.131,0.22,0.014,0.226
		c0.472,0.02,0.943,0.039,1.415,0.059C222.767-73.763,222.752-73.99,222.607-73.996z"/>
	<path fill="#FAA61C" d="M212.176-76.861c0.217-0.52,0.541-0.968,0.969-1.335c0.111-0.095-0.054-0.251-0.164-0.156
		c-0.441,0.379-0.78,0.845-1.003,1.382C211.922-76.837,212.12-76.727,212.176-76.861z"/>
	<path fill="#E98C24" d="M218.23-80.283c0.178-0.423,0.356-0.846,0.534-1.269c0.056-0.134-0.162-0.195-0.218-0.062
		c-0.178,0.423-0.356,0.846-0.534,1.269C217.956-80.211,218.174-80.15,218.23-80.283z"/>
	<path fill="#E98C24" d="M216.468-80.783c-0.032,0.142,0.186,0.205,0.218,0.062c0.101-0.451,0.203-0.903,0.304-1.354
		c0.032-0.142-0.186-0.205-0.218-0.062C216.671-81.686,216.569-81.235,216.468-80.783z"/>
	<path fill="#E98C24" d="M214.793-82.173c0.013,0.425,0.027,0.851,0.04,1.276c0.004,0.131,0.213,0.136,0.209,0.004
		c-0.013-0.425-0.027-0.851-0.04-1.276C214.997-82.301,214.789-82.306,214.793-82.173z"/>
	<path fill="#E98C24" d="M213.248-81.886c0.083,0.455,0.167,0.911,0.25,1.366c0.025,0.136,0.228,0.08,0.204-0.056
		c-0.083-0.455-0.167-0.911-0.25-1.366C213.427-82.078,213.223-82.022,213.248-81.886z"/>
	<path fill="#E98C24" d="M211.813-81.162l0.665,1.211c0.065,0.118,0.248,0.018,0.183-0.1c-0.222-0.404-0.443-0.807-0.665-1.211
		C211.932-81.38,211.748-81.28,211.813-81.162z"/>
	<path fill="#E98C24" d="M210.391-79.976c0.324,0.271,0.647,0.542,0.971,0.813c0.111,0.093,0.276-0.063,0.164-0.157
		c-0.324-0.271-0.647-0.542-0.971-0.813C210.444-80.225,210.279-80.069,210.391-79.976z"/>
	<path fill="#E98C24" d="M209.265-78.292c0.441,0.145,0.882,0.291,1.323,0.436c0.126,0.042,0.19-0.176,0.064-0.217
		c-0.441-0.145-0.882-0.291-1.323-0.436C209.203-78.551,209.139-78.334,209.265-78.292z"/>
	<path fill="#E98C24" d="M208.66-76.623c0.469,0.053,0.938,0.106,1.407,0.158c0.145,0.016,0.146-0.211,0.002-0.227
		c-0.469-0.053-0.938-0.106-1.407-0.158C208.518-76.866,208.516-76.639,208.66-76.623z"/>
	<path fill="#E98C24" d="M221.358-74.79c0.457-0.046,0.913-0.092,1.37-0.138c0.145-0.015,0.094-0.236-0.049-0.221
		c-0.457,0.046-0.913,0.092-1.37,0.138C221.164-74.996,221.215-74.775,221.358-74.79z"/>
	<path fill="#E98C24" d="M222.584-76.638c-0.464,0.079-0.929,0.158-1.393,0.237c-0.143,0.024-0.114,0.249,0.031,0.225
		c0.464-0.079,0.929-0.158,1.393-0.237C222.758-76.438,222.728-76.663,222.584-76.638z"/>
	<path fill="#E98C24" d="M222.095-78.12c-0.437,0.165-0.874,0.33-1.311,0.496c-0.13,0.049-0.049,0.254,0.081,0.205
		c0.437-0.165,0.874-0.33,1.311-0.496C222.307-77.965,222.225-78.169,222.095-78.12z"/>
	<path fill="#E98C24" d="M221.282-79.415l-1.049,0.78c-0.103,0.076,0.018,0.234,0.12,0.157c0.35-0.26,0.699-0.52,1.049-0.78
		C221.505-79.334,221.385-79.492,221.282-79.415z"/>
	<path fill="#E98C24" d="M219.959-80.714c-0.221,0.359-0.443,0.719-0.664,1.078c-0.076,0.123,0.102,0.263,0.179,0.139
		c0.221-0.359,0.443-0.719,0.664-1.078C220.214-80.698,220.036-80.838,219.959-80.714z"/>
	<path fill="#E98C24" d="M209.773-75.528c-0.377,0.032-0.754,0.064-1.131,0.096c-0.145,0.012-0.132,0.239,0.014,0.226
		c0.377-0.032,0.754-0.064,1.131-0.096C209.932-75.314,209.919-75.54,209.773-75.528z"/>
	<path fill="#E98C24" d="M209.891-74.056c-0.415,0.043-0.831,0.086-1.246,0.129c-0.145,0.015-0.132,0.241,0.014,0.226
		c0.415-0.043,0.831-0.086,1.246-0.129C210.049-73.845,210.037-74.071,209.891-74.056z"/>
	<path fill="#E98C24" d="M210.093-73.056c-0.386,0.103-0.772,0.207-1.158,0.31c-0.141,0.038-0.069,0.253,0.072,0.215
		c0.386-0.103,0.772-0.207,1.158-0.31C210.306-72.878,210.234-73.093,210.093-73.056z"/>
	<path fill="#E98C24" d="M210.68-72.06c-0.376,0.174-0.752,0.347-1.128,0.521c-0.131,0.061-0.061,0.276,0.072,0.215
		c0.376-0.174,0.752-0.347,1.128-0.521C210.883-71.905,210.813-72.121,210.68-72.06z"/>
	<path fill="#E98C24" d="M211.241-71.03c-0.281,0.257-0.563,0.514-0.844,0.77c-0.108,0.099,0.061,0.25,0.168,0.152
		c0.281-0.257,0.563-0.514,0.844-0.77C211.517-70.977,211.348-71.128,211.241-71.03z"/>
	<path fill="#E98C24" d="M212.415-70.156c-0.237,0.327-0.474,0.654-0.711,0.981c-0.085,0.117,0.082,0.27,0.168,0.152
		c0.237-0.327,0.474-0.654,0.711-0.981C212.668-70.12,212.5-70.274,212.415-70.156z"/>
</g>
<g>
	<path fill="#E98C24" d="M41.454,0.177c0.45,0.028,0.9,0.104,1.346,0.225c-0.447-0.117-0.901-0.194-1.351-0.222L41.454,0.177z"/>
	<path fill="#E98C24" d="M43.508,0.627L43.506,0.63l-0.004-0.001c-0.117-0.044-0.231-0.083-0.346-0.122
		C43.272,0.542,43.391,0.582,43.508,0.627z"/>
	<g>
		<circle fill="#FEC465" cx="40.525" cy="7.245" r="6.439"/>
		<path fill="#FAA61C" d="M37.961,14.021c-3.736-1.414-5.626-5.604-4.212-9.34c1.414-3.736,5.604-5.626,9.34-4.212
			c3.736,1.414,5.626,5.604,4.212,9.34C45.887,13.545,41.697,15.435,37.961,14.021z M42.518,1.977
			c-2.905-1.099-6.162,0.37-7.261,3.275c-1.099,2.905,0.37,6.162,3.275,7.261s6.162-0.37,7.261-3.275
			C46.892,6.334,45.423,3.076,42.518,1.977z"/>
	</g>
	<g>
		<g>
			<g>
				<path fill="#FAA61C" d="M42.005,9.328c-0.342,0.905-1.182,1.429-2.173,1.398l-0.403,1.064l-1.587-0.601l0.365-0.966
					c-0.424-0.246-0.792-0.57-1.011-0.9l-0.226-0.34l1.162-1.367l0.404,0.566c0.215,0.298,0.557,0.558,0.915,0.694
					c0.267,0.101,0.619,0.118,0.727-0.165c0.043-0.115,0.124-0.328-0.483-0.886c-0.764-0.694-1.489-1.563-1.046-2.735
					c0.327-0.865,1.131-1.367,2.082-1.339l0.392-1.037l1.577,0.597l-0.354,0.935c0.318,0.19,0.587,0.419,0.808,0.692l0.286,0.355
					l-1.177,1.335l-0.406-0.489c-0.109-0.13-0.334-0.404-0.806-0.583c-0.169-0.064-0.473-0.137-0.564,0.103
					c-0.042,0.111-0.088,0.233,0.601,0.88C41.713,7.121,42.49,8.045,42.005,9.328z"/>
			</g>
		</g>
	</g>
	<path fill="#FAA61C" d="M35.77,8.493c-0.28-1.365,0.063-2.754,0.938-3.836c0.092-0.113-0.076-0.266-0.168-0.152
		c-0.931,1.152-1.282,2.61-0.985,4.06C35.584,8.707,35.799,8.635,35.77,8.493z"/>
	<path fill="#FAA61C" d="M39.735,2.26c-0.925,0.246-1.768,0.687-2.497,1.306c-0.11,0.093,0.013,0.284,0.124,0.19
		c0.715-0.608,1.537-1.039,2.445-1.281C39.948,2.437,39.876,2.222,39.735,2.26z"/>
	<path fill="#FAA61C" d="M45.491,5.672c-0.034-0.142-0.249-0.07-0.215,0.072c0.394,1.618,0.019,3.314-1.019,4.617
		c-0.091,0.114,0.077,0.267,0.168,0.152C45.516,9.142,45.905,7.375,45.491,5.672z"/>
	<path fill="#FAA61C" d="M43.62,10.925c-0.612,0.606-1.352,1.029-2.183,1.255c-0.141,0.038-0.069,0.253,0.072,0.215
		c0.868-0.236,1.64-0.685,2.279-1.318C43.892,10.975,43.724,10.823,43.62,10.925z"/>
	<path fill="#FAA61C" d="M44.135,9.314c-0.212,0.522-0.532,0.973-0.956,1.344c-0.11,0.096,0.057,0.25,0.166,0.155
		c0.437-0.383,0.772-0.852,0.99-1.391C44.389,9.288,44.189,9.179,44.135,9.314z"/>
	<path fill="#E98C24" d="M38.349,12.566c-0.148,0.435-0.295,0.869-0.443,1.304c-0.047,0.138,0.175,0.183,0.222,0.047
		c0.148-0.435,0.295-0.869,0.443-1.304C38.618,12.475,38.396,12.429,38.349,12.566z"/>
	<path fill="#E98C24" d="M40.14,12.949c0.022-0.144-0.2-0.191-0.222-0.047c-0.069,0.457-0.139,0.915-0.208,1.372
		c-0.022,0.144,0.2,0.191,0.222,0.047C40.002,13.864,40.071,13.407,40.14,12.949z"/>
	<path fill="#E98C24" d="M41.81,14.297c-0.044-0.469-0.088-0.938-0.132-1.407c-0.014-0.145-0.24-0.132-0.226,0.014
		c0.044,0.469,0.088,0.938,0.132,1.407C41.597,14.456,41.823,14.443,41.81,14.297z"/>
	<path fill="#E98C24" d="M43.337,13.809c-0.121-0.443-0.242-0.885-0.363-1.328c-0.036-0.132-0.237-0.064-0.201,0.068
		c0.121,0.443,0.242,0.885,0.363,1.328C43.172,14.008,43.373,13.94,43.337,13.809z"/>
	<path fill="#E98C24" d="M44.678,13.019l-0.665-1.078c-0.065-0.105-0.225,0.002-0.16,0.107c0.222,0.359,0.443,0.719,0.665,1.078
		C44.583,13.231,44.743,13.124,44.678,13.019z"/>
	<path fill="#E98C24" d="M46.019,11.724c-0.342-0.248-0.684-0.495-1.026-0.743c-0.117-0.085-0.27,0.082-0.152,0.168
		c0.342,0.248,0.684,0.495,1.026,0.743C45.984,11.976,46.138,11.809,46.019,11.724z"/>
	<path fill="#E98C24" d="M46.99,10.028c-0.431-0.108-0.862-0.216-1.292-0.324c-0.123-0.031-0.172,0.19-0.049,0.221
		c0.431,0.108,0.862,0.216,1.292,0.324C47.064,10.28,47.113,10.059,46.99,10.028z"/>
	<path fill="#E98C24" d="M47.532,8.375c-0.472-0.02-0.943-0.039-1.415-0.059c-0.145-0.006-0.131,0.22,0.014,0.226
		c0.472,0.02,0.943,0.039,1.415,0.059C47.691,8.607,47.677,8.381,47.532,8.375z"/>
	<path fill="#FAA61C" d="M37.1,5.509c0.217-0.52,0.541-0.968,0.969-1.335c0.111-0.095-0.054-0.251-0.164-0.156
		c-0.441,0.379-0.78,0.845-1.003,1.382C36.846,5.533,37.044,5.643,37.1,5.509z"/>
	<path fill="#E98C24" d="M43.155,2.087c0.178-0.423,0.356-0.846,0.534-1.269c0.056-0.134-0.162-0.195-0.218-0.062
		c-0.178,0.423-0.356,0.846-0.534,1.269C42.88,2.159,43.099,2.22,43.155,2.087z"/>
	<path fill="#E98C24" d="M41.392,1.587c-0.032,0.142,0.186,0.205,0.218,0.062c0.101-0.451,0.203-0.903,0.304-1.354
		c0.032-0.142-0.186-0.205-0.218-0.062C41.595,0.684,41.494,1.136,41.392,1.587z"/>
	<path fill="#E98C24" d="M39.717,0.197c0.013,0.425,0.027,0.851,0.04,1.276c0.004,0.131,0.213,0.136,0.209,0.004
		c-0.013-0.425-0.027-0.851-0.04-1.276C39.922,0.069,39.713,0.065,39.717,0.197z"/>
	<path fill="#E98C24" d="M38.173,0.484c0.083,0.455,0.167,0.911,0.25,1.366c0.025,0.136,0.228,0.08,0.204-0.056
		c-0.083-0.455-0.167-0.911-0.25-1.366C38.351,0.292,38.148,0.348,38.173,0.484z"/>
	<path fill="#E98C24" d="M36.738,1.208l0.665,1.211c0.065,0.118,0.248,0.018,0.183-0.1c-0.222-0.404-0.443-0.807-0.665-1.211
		C36.856,0.99,36.673,1.09,36.738,1.208z"/>
	<path fill="#E98C24" d="M35.316,2.394c0.324,0.271,0.647,0.542,0.971,0.813c0.111,0.093,0.276-0.063,0.164-0.157
		c-0.324-0.271-0.647-0.542-0.971-0.813C35.369,2.145,35.204,2.301,35.316,2.394z"/>
	<path fill="#E98C24" d="M34.19,4.078c0.441,0.145,0.882,0.291,1.323,0.436c0.126,0.042,0.19-0.176,0.064-0.217
		c-0.441-0.145-0.882-0.291-1.323-0.436C34.127,3.819,34.064,4.037,34.19,4.078z"/>
	<path fill="#E98C24" d="M33.585,5.747c0.469,0.053,0.938,0.106,1.407,0.158c0.145,0.016,0.146-0.211,0.002-0.227
		c-0.469-0.053-0.938-0.106-1.407-0.158C33.442,5.504,33.44,5.731,33.585,5.747z"/>
	<path fill="#E98C24" d="M46.283,7.581c0.457-0.046,0.913-0.092,1.37-0.138c0.145-0.015,0.094-0.236-0.049-0.221
		c-0.457,0.046-0.913,0.092-1.37,0.138C46.088,7.374,46.139,7.595,46.283,7.581z"/>
	<path fill="#E98C24" d="M47.508,5.732c-0.464,0.079-0.929,0.158-1.393,0.237c-0.143,0.024-0.114,0.249,0.031,0.225
		c0.464-0.079,0.929-0.158,1.393-0.237C47.682,5.932,47.652,5.708,47.508,5.732z"/>
	<path fill="#E98C24" d="M47.019,4.25c-0.437,0.165-0.874,0.33-1.312,0.496c-0.13,0.049-0.049,0.254,0.081,0.205
		c0.437-0.165,0.874-0.33,1.311-0.496C47.231,4.405,47.15,4.201,47.019,4.25z"/>
	<path fill="#E98C24" d="M46.207,2.955l-1.049,0.78c-0.102,0.076,0.018,0.234,0.12,0.157c0.35-0.26,0.699-0.52,1.049-0.78
		C46.429,3.036,46.309,2.879,46.207,2.955z"/>
	<path fill="#E98C24" d="M44.884,1.656c-0.221,0.359-0.443,0.719-0.664,1.078c-0.076,0.123,0.102,0.263,0.179,0.139
		c0.221-0.359,0.443-0.719,0.664-1.078C45.139,1.673,44.96,1.532,44.884,1.656z"/>
	<path fill="#E98C24" d="M34.697,6.842c-0.377,0.032-0.754,0.064-1.131,0.096c-0.145,0.012-0.132,0.239,0.014,0.226
		c0.377-0.032,0.754-0.064,1.131-0.096C34.856,7.056,34.843,6.83,34.697,6.842z"/>
	<path fill="#E98C24" d="M34.815,8.314C34.4,8.357,33.985,8.4,33.57,8.443c-0.145,0.015-0.132,0.241,0.014,0.226
		c0.415-0.043,0.831-0.086,1.246-0.129C34.974,8.525,34.961,8.299,34.815,8.314z"/>
	<path fill="#E98C24" d="M35.018,9.315c-0.386,0.103-0.772,0.207-1.158,0.31c-0.141,0.038-0.069,0.253,0.072,0.215
		c0.386-0.103,0.772-0.207,1.158-0.31C35.23,9.492,35.159,9.277,35.018,9.315z"/>
	<path fill="#E98C24" d="M35.605,10.311c-0.376,0.174-0.752,0.347-1.128,0.521c-0.131,0.061-0.061,0.276,0.072,0.215
		c0.376-0.174,0.752-0.347,1.128-0.521C35.807,10.465,35.737,10.249,35.605,10.311z"/>
	<path fill="#E98C24" d="M36.165,11.34c-0.281,0.257-0.563,0.514-0.844,0.77c-0.108,0.099,0.061,0.25,0.168,0.152
		c0.281-0.257,0.563-0.514,0.844-0.77C36.441,11.394,36.272,11.242,36.165,11.34z"/>
	<path fill="#E98C24" d="M37.339,12.215c-0.237,0.327-0.474,0.654-0.711,0.981c-0.085,0.117,0.082,0.27,0.168,0.152
		c0.237-0.327,0.474-0.654,0.711-0.981C37.592,12.25,37.425,12.097,37.339,12.215z"/>
</g>
<g>
	<path fill="#E98C24" d="M366.114-66.14c0.467-0.389,0.976-0.732,1.524-1.026c-0.546,0.299-1.06,0.644-1.527,1.033L366.114-66.14z"
		/>
	<path fill="#E98C24" d="M368.538-67.602l0.002,0.005l-0.005,0.002c-0.155,0.065-0.303,0.133-0.451,0.201
		C368.23-67.467,368.383-67.537,368.538-67.602z"/>
	<g>
		<circle fill="#FEC465" cx="371.748" cy="-58.368" r="8.67"/>
		<path fill="#FAA61C" d="M375.512-49.368c-4.963,2.076-10.689-0.272-12.765-5.235s0.272-10.689,5.235-12.765
			c4.963-2.076,10.689,0.272,12.765,5.235C382.823-57.17,380.475-51.444,375.512-49.368z M368.821-65.365
			c-3.858,1.614-5.684,6.066-4.07,9.924s6.066,5.684,9.924,4.07c3.858-1.614,5.684-6.066,4.07-9.924
			C377.131-65.153,372.679-66.979,368.821-65.365z"/>
	</g>
	<g>
		<g>
			<g>
				<path fill="#FAA61C" d="M375.123-57.701c0.503,1.202,0.167,2.491-0.832,3.379l0.591,1.413l-2.108,0.882l-0.537-1.283
					c-0.642,0.153-1.302,0.176-1.821,0.056l-0.536-0.123l-0.129-2.413l0.918,0.18c0.486,0.092,1.061,0.03,1.537-0.169
					c0.354-0.148,0.715-0.457,0.558-0.834c-0.064-0.153-0.182-0.435-1.292-0.419c-1.39,0.028-2.904-0.15-3.555-1.707
					c-0.48-1.148-0.159-2.384,0.796-3.237l-0.576-1.377l2.095-0.876l0.52,1.242c0.487-0.109,0.961-0.133,1.43-0.071l0.609,0.083
					l0.085,2.394l-0.85-0.103c-0.227-0.026-0.7-0.087-1.328,0.176c-0.224,0.094-0.589,0.305-0.456,0.623
					c0.062,0.148,0.129,0.31,1.403,0.304C372.795-59.589,374.41-59.405,375.123-57.701z"/>
			</g>
		</g>
	</g>
	<path fill="#FAA61C" d="M368.253-52.746c-1.537-1.076-2.487-2.752-2.633-4.62c-0.015-0.195-0.321-0.19-0.305,0.007
		c0.155,1.988,1.162,3.74,2.794,4.883C368.269-52.365,368.412-52.635,368.253-52.746z"/>
	<path fill="#FAA61C" d="M366.36-62.512c-0.676,1.097-1.093,2.308-1.233,3.589c-0.021,0.193,0.276,0.266,0.297,0.071
		c0.137-1.257,0.541-2.44,1.205-3.516C366.733-62.536,366.463-62.679,366.36-62.512z"/>
	<path fill="#FAA61C" d="M375.148-64.503c-0.165-0.107-0.308,0.163-0.144,0.269c1.883,1.218,3.086,3.224,3.277,5.458
		c0.017,0.195,0.322,0.189,0.305-0.007C378.385-61.133,377.129-63.221,375.148-64.503z"/>
	<path fill="#FAA61C" d="M378.181-57.635c-0.038,1.159-0.37,2.258-0.974,3.248c-0.102,0.168,0.167,0.312,0.269,0.144
		c0.63-1.034,0.97-2.189,1.01-3.398C378.493-57.838,378.188-57.83,378.181-57.635z"/>
	<path fill="#FAA61C" d="M377.193-59.686c0.276,0.707,0.38,1.444,0.309,2.2c-0.018,0.196,0.287,0.192,0.305-0.002
		c0.073-0.779-0.034-1.548-0.319-2.277C377.417-59.947,377.122-59.869,377.193-59.686z"/>
	<path fill="#E98C24" d="M374.545-51.151c0.258,0.562,0.516,1.123,0.774,1.685c0.082,0.178,0.341,0.017,0.26-0.16
		c-0.258-0.562-0.516-1.123-0.774-1.685C374.723-51.489,374.464-51.328,374.545-51.151z"/>
	<path fill="#E98C24" d="M376.651-52.434c-0.112-0.161-0.373-0.002-0.26,0.16c0.356,0.511,0.711,1.023,1.067,1.534
		c0.112,0.161,0.373,0.002,0.26-0.16C377.362-51.411,377.007-51.922,376.651-52.434z"/>
	<path fill="#E98C24" d="M379.531-52.661c-0.477-0.418-0.955-0.836-1.432-1.254c-0.147-0.129-0.357,0.093-0.208,0.223
		c0.477,0.418,0.955,0.836,1.432,1.254C379.47-52.309,379.68-52.531,379.531-52.661z"/>
	<path fill="#E98C24" d="M380.573-54.553c-0.528-0.321-1.056-0.642-1.584-0.963c-0.157-0.096-0.291,0.157-0.134,0.252
		c0.528,0.321,1.056,0.642,1.584,0.963C380.597-54.205,380.731-54.457,380.573-54.553z"/>
	<path fill="#E98C24" d="M381.154-56.566l-1.648-0.439c-0.161-0.043-0.218,0.21-0.057,0.253c0.549,0.146,1.099,0.293,1.648,0.439
		C381.257-56.27,381.315-56.523,381.154-56.566z"/>
	<path fill="#E98C24" d="M381.266-59.074c-0.564,0.074-1.127,0.149-1.691,0.223c-0.193,0.025-0.188,0.331,0.007,0.305
		c0.564-0.074,1.127-0.149,1.691-0.223C381.466-58.795,381.461-59.1,381.266-59.074z"/>
	<path fill="#E98C24" d="M380.646-61.631c-0.521,0.293-1.043,0.586-1.564,0.879c-0.149,0.084,0.008,0.345,0.157,0.262
		c0.521-0.293,1.043-0.586,1.564-0.879C380.952-61.453,380.795-61.714,380.646-61.631z"/>
	<path fill="#E98C24" d="M379.645-63.749c-0.479,0.417-0.959,0.835-1.438,1.252c-0.148,0.129,0.076,0.337,0.223,0.208
		c0.479-0.417,0.959-0.835,1.438-1.252C380.016-63.67,379.793-63.878,379.645-63.749z"/>
	<path fill="#FAA61C" d="M366.791-56.896c-0.27-0.71-0.366-1.447-0.288-2.202c0.02-0.195-0.285-0.195-0.305-0.001
		c-0.081,0.778,0.02,1.548,0.298,2.28C366.565-56.638,366.861-56.713,366.791-56.896z"/>
	<path fill="#E98C24" d="M369.545-65.847c-0.218-0.578-0.435-1.157-0.653-1.735c-0.069-0.183-0.339-0.041-0.271,0.141
		c0.218,0.578,0.435,1.157,0.653,1.735C369.343-65.523,369.613-65.665,369.545-65.847z"/>
	<path fill="#E98C24" d="M367.358-64.705c0.1,0.168,0.372,0.028,0.271-0.141c-0.319-0.535-0.637-1.07-0.956-1.606
		c-0.1-0.168-0.372-0.028-0.271,0.141C366.721-65.775,367.04-65.24,367.358-64.705z"/>
	<path fill="#E98C24" d="M364.434-64.514c0.407,0.403,0.814,0.807,1.221,1.21c0.126,0.125,0.334-0.064,0.207-0.19
		c-0.407-0.403-0.814-0.807-1.221-1.21C364.515-64.828,364.307-64.639,364.434-64.514z"/>
	<path fill="#E98C24" d="M363.189-62.803c0.503,0.368,1.006,0.736,1.509,1.104c0.15,0.11,0.297-0.134,0.147-0.243
		c-0.503-0.368-1.006-0.736-1.509-1.104C363.186-63.156,363.039-62.913,363.189-62.803z"/>
	<path fill="#E98C24" d="M362.456-60.766l1.771,0.569c0.173,0.056,0.26-0.212,0.087-0.268c-0.59-0.19-1.18-0.379-1.771-0.569
		C362.37-61.089,362.283-60.822,362.456-60.766z"/>
	<path fill="#E98C24" d="M362.163-58.29c0.567-0.034,1.135-0.069,1.702-0.103c0.194-0.012,0.211-0.317,0.015-0.305
		c-0.567,0.034-1.135,0.069-1.702,0.103C361.984-58.583,361.967-58.278,362.163-58.29z"/>
	<path fill="#E98C24" d="M362.621-55.601c0.566-0.266,1.132-0.532,1.698-0.799c0.162-0.076,0.023-0.348-0.139-0.272
		c-0.566,0.266-1.132,0.532-1.698,0.799C362.32-55.797,362.459-55.525,362.621-55.601z"/>
	<path fill="#E98C24" d="M363.574-53.409c0.508-0.382,1.015-0.765,1.523-1.147c0.157-0.118-0.052-0.341-0.208-0.224
		c-0.508,0.382-1.015,0.765-1.523,1.147C363.209-53.514,363.418-53.291,363.574-53.409z"/>
	<path fill="#E98C24" d="M377.689-63.37c0.404-0.468,0.808-0.935,1.212-1.403c0.128-0.148-0.126-0.318-0.253-0.171
		c-0.404,0.468-0.808,0.935-1.212,1.403C377.308-63.392,377.562-63.223,377.689-63.37z"/>
	<path fill="#E98C24" d="M377.176-66.312c-0.381,0.507-0.762,1.014-1.144,1.521c-0.118,0.157,0.12,0.349,0.238,0.191
		c0.381-0.507,0.762-1.014,1.144-1.521C377.532-66.277,377.295-66.469,377.176-66.312z"/>
	<path fill="#E98C24" d="M375.327-67.309c-0.275,0.566-0.549,1.132-0.824,1.699c-0.082,0.169,0.187,0.294,0.269,0.125
		c0.275-0.566,0.549-1.132,0.824-1.699C375.677-67.353,375.408-67.478,375.327-67.309z"/>
	<path fill="#E98C24" d="M373.333-67.823l-0.304,1.733c-0.03,0.169,0.234,0.212,0.263,0.043c0.101-0.578,0.202-1.156,0.304-1.733
		C373.626-67.95,373.362-67.993,373.333-67.823z"/>
	<path fill="#E98C24" d="M370.837-67.869c0.116,0.557,0.232,1.113,0.348,1.67c0.04,0.191,0.344,0.163,0.304-0.029
		c-0.116-0.557-0.232-1.113-0.348-1.67C371.102-68.089,370.797-68.061,370.837-67.869z"/>
	<path fill="#E98C24" d="M365.675-53.368c-0.339,0.38-0.679,0.76-1.018,1.141c-0.13,0.146,0.092,0.356,0.223,0.208
		c0.339-0.38,0.679-0.76,1.018-1.141C366.029-53.306,365.807-53.515,365.675-53.368z"/>
	<path fill="#E98C24" d="M367.153-52.038c-0.366,0.426-0.733,0.853-1.099,1.279c-0.128,0.148,0.095,0.358,0.223,0.208
		c0.366-0.426,0.733-0.853,1.099-1.279C367.504-51.978,367.282-52.188,367.153-52.038z"/>
	<path fill="#E98C24" d="M368.277-51.247c-0.282,0.458-0.564,0.917-0.846,1.375c-0.103,0.167,0.166,0.311,0.269,0.144
		c0.282-0.458,0.564-0.917,0.845-1.375C368.65-51.27,368.38-51.414,368.277-51.247z"/>
	<path fill="#E98C24" d="M369.773-50.816c-0.207,0.518-0.414,1.036-0.62,1.553c-0.072,0.18,0.196,0.327,0.269,0.144
		c0.207-0.518,0.414-1.036,0.62-1.553C370.114-50.852,369.846-50.999,369.773-50.816z"/>
	<path fill="#E98C24" d="M371.274-50.328c-0.037,0.512-0.075,1.023-0.112,1.535c-0.014,0.196,0.291,0.188,0.305-0.007
		c0.037-0.512,0.075-1.023,0.112-1.535C371.594-50.531,371.289-50.523,371.274-50.328z"/>
	<path fill="#E98C24" d="M373.232-50.56c0.071,0.539,0.142,1.078,0.213,1.618c0.026,0.193,0.331,0.188,0.305-0.007
		c-0.071-0.539-0.142-1.078-0.214-1.618C373.512-50.759,373.207-50.754,373.232-50.56z"/>
</g>
<g>
	<path fill="#E98C24" d="M222.525-53.015c0.362,0.382,0.687,0.804,0.971,1.262c-0.288-0.455-0.615-0.882-0.977-1.264L222.525-53.015
		z"/>
	<path fill="#E98C24" d="M223.922-50.999l-0.004,0.002l-0.002-0.004c-0.065-0.131-0.132-0.255-0.198-0.379
		C223.789-51.258,223.858-51.13,223.922-50.999z"/>
	<g>
		<circle fill="#FEC465" cx="216.115" cy="-47.716" r="7.512"/>
		<path fill="#FAA61C" d="M208.54-43.966c-2.068-4.177-0.352-9.257,3.825-11.325c4.177-2.068,9.257-0.352,11.325,3.825
			c2.068,4.177,0.352,9.257-3.825,11.325C215.688-38.074,210.608-39.79,208.54-43.966z M222.004-50.632
			c-1.607-3.247-5.557-4.581-8.804-2.973c-3.247,1.607-4.581,5.557-2.973,8.804c1.607,3.247,5.557,4.581,8.804,2.973
			C222.277-43.435,223.611-47.385,222.004-50.632z"/>
	</g>
	<g>
		<g>
			<g>
				<path fill="#FAA61C" d="M215.724-44.761c-1.012,0.501-2.145,0.282-2.967-0.534l-1.189,0.589l-0.878-1.774l1.08-0.535
					c-0.167-0.547-0.224-1.116-0.148-1.572l0.077-0.471l2.079-0.244l-0.105,0.804c-0.053,0.426,0.032,0.919,0.23,1.32
					c0.148,0.298,0.435,0.593,0.752,0.436c0.128-0.064,0.366-0.181,0.291-1.141c-0.101-1.2-0.03-2.519,1.28-3.167
					c0.966-0.478,2.053-0.269,2.843,0.51l1.159-0.574l0.873,1.763l-1.046,0.518c0.121,0.415,0.168,0.824,0.14,1.233l-0.038,0.531
					l-2.066,0.205l0.042-0.74c0.01-0.198,0.036-0.61-0.225-1.139c-0.093-0.189-0.296-0.493-0.564-0.36
					c-0.125,0.062-0.26,0.129-0.186,1.229C217.228-46.878,217.158-45.471,215.724-44.761z"/>
			</g>
		</g>
	</g>
	<path fill="#FAA61C" d="M211.062-50.429c0.846-1.388,2.243-2.302,3.85-2.531c0.168-0.024,0.146-0.288-0.022-0.264
		c-1.711,0.244-3.17,1.21-4.068,2.685C210.733-50.394,210.974-50.285,211.062-50.429z"/>
	<path fill="#FAA61C" d="M219.402-52.602c-0.985-0.525-2.056-0.819-3.171-0.869c-0.168-0.008-0.215,0.253-0.045,0.261
		c1.094,0.049,2.139,0.334,3.107,0.849C219.443-52.282,219.552-52.522,219.402-52.602z"/>
	<path fill="#FAA61C" d="M221.606-45.114c0.083-0.148-0.158-0.258-0.241-0.11c-0.95,1.695-2.618,2.846-4.539,3.134
		c-0.168,0.025-0.146,0.289,0.022,0.264C218.871-42.129,220.607-43.33,221.606-45.114z"/>
	<path fill="#FAA61C" d="M215.834-42.113c-1.005,0.031-1.972-0.196-2.862-0.663c-0.151-0.079-0.26,0.162-0.11,0.241
		c0.929,0.488,1.946,0.718,2.994,0.686C216.028-41.855,216.004-42.118,215.834-42.113z"/>
	<path fill="#FAA61C" d="M217.554-43.08c-0.596,0.278-1.228,0.408-1.885,0.388c-0.17-0.005-0.15,0.259,0.019,0.264
		c0.678,0.021,1.337-0.115,1.951-0.401C217.792-42.901,217.708-43.152,217.554-43.08z"/>
	<path fill="#E98C24" d="M210.029-44.901c-0.471,0.254-0.943,0.508-1.414,0.762c-0.15,0.081,0.004,0.296,0.152,0.216
		c0.471-0.254,0.943-0.508,1.414-0.762C210.331-44.765,210.177-44.981,210.029-44.901z"/>
	<path fill="#E98C24" d="M211.253-43.15c0.133-0.105-0.019-0.322-0.152-0.216c-0.423,0.336-0.845,0.671-1.268,1.007
		c-0.133,0.105,0.019,0.322,0.152,0.216C210.408-42.479,210.831-42.815,211.253-43.15z"/>
	<path fill="#E98C24" d="M211.608-40.672c0.335-0.436,0.67-0.871,1.005-1.307c0.103-0.134-0.1-0.303-0.204-0.168
		c-0.335,0.436-0.67,0.871-1.005,1.307C211.301-40.706,211.504-40.537,211.608-40.672z"/>
	<path fill="#E98C24" d="M213.301-39.875c0.249-0.474,0.497-0.948,0.746-1.422c0.074-0.141-0.151-0.243-0.225-0.102
		c-0.249,0.474-0.497,0.948-0.746,1.422C213.002-39.836,213.227-39.734,213.301-39.875z"/>
	<path fill="#E98C24" d="M215.074-39.484l0.289-1.45c0.028-0.142-0.194-0.177-0.222-0.036c-0.096,0.483-0.193,0.966-0.289,1.45
		C214.824-39.378,215.046-39.343,215.074-39.484z"/>
	<path fill="#E98C24" d="M217.249-39.525c-0.095-0.483-0.191-0.966-0.286-1.45c-0.033-0.166-0.296-0.144-0.264,0.022
		c0.095,0.483,0.191,0.966,0.286,1.45C217.018-39.337,217.282-39.358,217.249-39.525z"/>
	<path fill="#E98C24" d="M219.425-40.202c-0.282-0.435-0.564-0.869-0.846-1.304c-0.081-0.124-0.298,0.026-0.217,0.15
		c0.282,0.435,0.564,0.869,0.846,1.304C219.288-39.927,219.506-40.078,219.425-40.202z"/>
	<path fill="#E98C24" d="M221.202-41.183c-0.387-0.391-0.775-0.783-1.162-1.174c-0.119-0.121-0.287,0.084-0.168,0.204
		c0.387,0.391,0.775,0.783,1.162,1.174C221.154-40.858,221.321-41.063,221.202-41.183z"/>
	<path fill="#FAA61C" d="M214.57-51.921c0.599-0.272,1.231-0.396,1.889-0.37c0.17,0.007,0.153-0.257-0.016-0.264
		c-0.677-0.027-1.338,0.102-1.955,0.383C214.334-52.103,214.415-51.851,214.57-51.921z"/>
	<path fill="#E98C24" d="M222.46-50.032c0.488-0.22,0.976-0.44,1.464-0.66c0.155-0.07,0.017-0.296-0.137-0.226
		c-0.488,0.22-0.976,0.44-1.464,0.66C222.169-50.189,222.307-49.963,222.46-50.032z"/>
	<path fill="#E98C24" d="M221.353-51.86c-0.14,0.096-0.004,0.323,0.137,0.226c0.445-0.305,0.891-0.61,1.336-0.915
		c0.14-0.096,0.004-0.323-0.137-0.226C222.243-52.47,221.798-52.165,221.353-51.86z"/>
	<path fill="#E98C24" d="M221.027-54.378c-0.326,0.374-0.653,0.748-0.98,1.122c-0.101,0.115,0.074,0.285,0.175,0.169
		c0.327-0.374,0.653-0.748,0.98-1.122C221.303-54.325,221.128-54.495,221.027-54.378z"/>
	<path fill="#E98C24" d="M219.479-55.361c-0.291,0.455-0.581,0.91-0.872,1.365c-0.087,0.136,0.132,0.249,0.219,0.114
		c0.291-0.455,0.581-0.91,0.872-1.365C219.784-55.383,219.566-55.496,219.479-55.361z"/>
	<path fill="#E98C24" d="M217.678-55.882l-0.395,1.562c-0.039,0.153,0.198,0.213,0.236,0.06c0.132-0.521,0.263-1.042,0.395-1.562
		C217.952-55.975,217.716-56.035,217.678-55.882z"/>
	<path fill="#E98C24" d="M215.521-55.999c0.061,0.489,0.122,0.978,0.183,1.466c0.021,0.167,0.286,0.165,0.265-0.004
		c-0.061-0.489-0.122-0.978-0.183-1.466C215.764-56.171,215.5-56.168,215.521-55.999z"/>
	<path fill="#E98C24" d="M213.221-55.456c0.261,0.475,0.523,0.949,0.784,1.424c0.075,0.136,0.302,0.001,0.227-0.135
		c-0.261-0.475-0.523-0.949-0.784-1.424C213.373-55.727,213.146-55.592,213.221-55.456z"/>
	<path fill="#E98C24" d="M211.377-54.511c0.359,0.418,0.717,0.836,1.076,1.254c0.111,0.129,0.292-0.064,0.182-0.192
		c-0.359-0.418-0.717-0.836-1.076-1.254C211.449-54.832,211.267-54.64,211.377-54.511z"/>
	<path fill="#E98C24" d="M220.766-42.854c0.426,0.324,0.853,0.647,1.279,0.971c0.135,0.103,0.268-0.126,0.134-0.228
		c-0.426-0.324-0.853-0.647-1.279-0.971C220.764-43.185,220.632-42.956,220.766-42.854z"/>
	<path fill="#E98C24" d="M223.282-43.459c-0.459-0.302-0.919-0.603-1.378-0.905c-0.142-0.093-0.295,0.123-0.152,0.216
		c0.459,0.302,0.919,0.604,1.378,0.905C223.271-43.15,223.425-43.365,223.282-43.459z"/>
	<path fill="#E98C24" d="M224.042-45.113c-0.505-0.206-1.009-0.413-1.514-0.619c-0.151-0.062-0.244,0.178-0.093,0.239
		c0.505,0.206,1.009,0.413,1.514,0.619C224.1-44.813,224.193-45.052,224.042-45.113z"/>
	<path fill="#E98C24" d="M224.377-46.866l-1.515-0.167c-0.148-0.016-0.171,0.214-0.022,0.23c0.505,0.056,1.01,0.111,1.515,0.167
		C224.503-46.619,224.526-46.849,224.377-46.866z"/>
	<path fill="#E98C24" d="M224.28-49.026c-0.475,0.131-0.95,0.262-1.424,0.393c-0.163,0.045-0.122,0.306,0.042,0.261
		c0.475-0.131,0.95-0.262,1.424-0.393C224.484-48.809,224.443-49.071,224.28-49.026z"/>
	<path fill="#E98C24" d="M211.458-52.692c-0.347-0.272-0.695-0.545-1.042-0.817c-0.134-0.105-0.302,0.099-0.168,0.204
		c0.347,0.272,0.695,0.545,1.042,0.817C211.423-52.383,211.592-52.586,211.458-52.692z"/>
	<path fill="#E98C24" d="M210.389-51.341c-0.389-0.293-0.778-0.587-1.166-0.88c-0.135-0.102-0.304,0.101-0.168,0.204
		c0.389,0.293,0.778,0.587,1.166,0.88C210.357-51.034,210.526-51.238,210.389-51.341z"/>
	<path fill="#E98C24" d="M209.767-50.325c-0.412-0.218-0.824-0.437-1.235-0.655c-0.15-0.08-0.26,0.161-0.11,0.241
		c0.412,0.218,0.824,0.437,1.235,0.655C209.807-50.005,209.917-50.246,209.767-50.325z"/>
	<path fill="#E98C24" d="M209.476-49.008c-0.459-0.15-0.918-0.301-1.377-0.451c-0.16-0.052-0.272,0.188-0.11,0.241
		c0.459,0.15,0.918,0.301,1.377,0.451C209.526-48.715,209.638-48.955,209.476-49.008z"/>
	<path fill="#E98C24" d="M209.137-47.684c-0.444-0.004-0.889-0.008-1.333-0.013c-0.17-0.002-0.146,0.262,0.022,0.264
		c0.444,0.004,0.889,0.008,1.333,0.013C209.33-47.418,209.306-47.682,209.137-47.684z"/>
	<path fill="#E98C24" d="M209.445-46.003c-0.462,0.091-0.925,0.182-1.387,0.274c-0.166,0.033-0.144,0.296,0.022,0.264
		c0.462-0.091,0.925-0.182,1.387-0.274C209.633-45.772,209.612-46.036,209.445-46.003z"/>
</g>
<circle fill="#5EB0E2" fill-opacity="0.5" cx="31.75" cy="267.743" r="11.509"/>
<circle fill="#FFFFFF" cx="31.457" cy="267.743" r="6.668"/>
<path fill="#6BC7B5" fill-opacity="0.5" d="M29.053,256.234c0,0,2.132-0.099,2.404,2.024c0,0,0.51,1.819-1.202,2.927
	c0,0-5.466,1.731-5.466,6.558v17.143c0,0-0.025,2.463-2.276,2.506c0,0-2.272-0.042-2.272-2.421c0-2.378,0-17.228,0-17.228
	S19.625,259.476,29.053,256.234z"/>
<circle fill="#5EB0E2" fill-opacity="0.5" cx="51.247" cy="266.072" r="11.509"/>
<circle fill="#FFFFFF" cx="50.953" cy="266.072" r="6.668"/>
<path fill="#6BC7B5" fill-opacity="0.5" d="M39.738,266.355V246.31c0,0-0.034-2.208,1.778-2.208c0,0,2.548-0.057,2.491,2.208
	l0.001,20.045c0,0,1.547,6.654,6.945,6.385c0,0,2.227-0.212,2.454,1.883c0,0,1.148,2.605-1.635,2.944
	C51.772,277.567,39.738,277.057,39.738,266.355z"/>
<g>
	<path fill="#E98C24" d="M65.795,239.561c0.45,0.028,0.9,0.104,1.346,0.225c-0.447-0.117-0.901-0.194-1.351-0.222L65.795,239.561z"
		/>
	<path fill="#E98C24" d="M67.849,240.011l-0.001,0.004l-0.004-0.001c-0.117-0.044-0.231-0.083-0.346-0.122
		C67.614,239.926,67.732,239.967,67.849,240.011z"/>
	<g>
		<circle fill="#FEC465" cx="64.866" cy="246.629" r="6.439"/>
		<path fill="#FAA61C" d="M62.302,253.405c-3.736-1.414-5.626-5.604-4.212-9.34s5.604-5.626,9.34-4.212
			c3.736,1.414,5.626,5.604,4.212,9.34C70.228,252.929,66.039,254.819,62.302,253.405z M66.859,241.361
			c-2.905-1.099-6.162,0.37-7.261,3.275c-1.099,2.905,0.37,6.162,3.275,7.261c2.905,1.099,6.162-0.37,7.261-3.275
			C71.233,245.718,69.764,242.46,66.859,241.361z"/>
	</g>
	<g>
		<g>
			<g>
				<path fill="#FAA61C" d="M66.346,248.713c-0.342,0.905-1.182,1.429-2.173,1.398l-0.403,1.064l-1.587-0.601l0.365-0.966
					c-0.424-0.245-0.792-0.57-1.011-0.9l-0.226-0.34L62.473,247l0.404,0.566c0.215,0.298,0.557,0.558,0.915,0.694
					c0.267,0.101,0.619,0.118,0.727-0.165c0.043-0.115,0.124-0.328-0.483-0.886c-0.764-0.695-1.489-1.563-1.046-2.735
					c0.327-0.865,1.131-1.367,2.082-1.339l0.392-1.037l1.577,0.597l-0.354,0.935c0.318,0.19,0.587,0.419,0.808,0.692l0.286,0.355
					l-1.177,1.335l-0.406-0.489c-0.109-0.13-0.334-0.404-0.806-0.583c-0.169-0.064-0.473-0.137-0.564,0.103
					c-0.042,0.111-0.088,0.233,0.601,0.88C66.054,246.506,66.832,247.429,66.346,248.713z"/>
			</g>
		</g>
	</g>
	<path fill="#FAA61C" d="M60.111,247.878c-0.28-1.365,0.063-2.754,0.938-3.836c0.092-0.113-0.076-0.266-0.168-0.152
		c-0.931,1.152-1.282,2.61-0.986,4.06C59.925,248.092,60.14,248.019,60.111,247.878z"/>
	<path fill="#FAA61C" d="M64.076,241.644c-0.925,0.246-1.768,0.687-2.497,1.306c-0.11,0.093,0.013,0.284,0.124,0.19
		c0.715-0.608,1.537-1.039,2.445-1.281C64.289,241.822,64.217,241.606,64.076,241.644z"/>
	<path fill="#FAA61C" d="M69.832,245.057c-0.034-0.142-0.249-0.07-0.215,0.072c0.394,1.618,0.019,3.314-1.019,4.617
		c-0.091,0.114,0.077,0.267,0.168,0.152C69.858,248.526,70.246,246.759,69.832,245.057z"/>
	<path fill="#FAA61C" d="M67.962,250.309c-0.612,0.606-1.352,1.029-2.183,1.255c-0.141,0.038-0.069,0.253,0.072,0.215
		c0.868-0.236,1.64-0.685,2.279-1.318C68.234,250.359,68.065,250.207,67.962,250.309z"/>
	<path fill="#FAA61C" d="M68.476,248.699c-0.212,0.522-0.532,0.973-0.956,1.344c-0.11,0.096,0.057,0.25,0.166,0.155
		c0.437-0.383,0.772-0.852,0.99-1.391C68.73,248.672,68.531,248.564,68.476,248.699z"/>
	<path fill="#E98C24" d="M62.691,251.95c-0.148,0.435-0.295,0.869-0.443,1.304c-0.047,0.138,0.175,0.183,0.222,0.047
		c0.148-0.435,0.295-0.869,0.443-1.304C62.959,251.859,62.737,251.813,62.691,251.95z"/>
	<path fill="#E98C24" d="M64.481,252.334c0.022-0.144-0.2-0.191-0.222-0.047c-0.069,0.457-0.139,0.915-0.208,1.372
		c-0.022,0.144,0.2,0.191,0.222,0.047C64.343,253.248,64.412,252.791,64.481,252.334z"/>
	<path fill="#E98C24" d="M66.151,253.681c-0.044-0.469-0.088-0.938-0.132-1.407c-0.014-0.145-0.24-0.132-0.226,0.014
		c0.044,0.469,0.088,0.938,0.132,1.407C65.938,253.84,66.165,253.827,66.151,253.681z"/>
	<path fill="#E98C24" d="M67.679,253.193c-0.121-0.443-0.242-0.885-0.363-1.328c-0.036-0.132-0.237-0.064-0.201,0.068
		c0.121,0.443,0.242,0.885,0.363,1.328C67.513,253.392,67.715,253.325,67.679,253.193z"/>
	<path fill="#E98C24" d="M69.019,252.403l-0.665-1.078c-0.065-0.105-0.225,0.002-0.16,0.107c0.222,0.359,0.443,0.719,0.665,1.078
		C68.924,252.616,69.084,252.508,69.019,252.403z"/>
	<path fill="#E98C24" d="M70.361,251.108c-0.342-0.248-0.684-0.495-1.026-0.743c-0.117-0.085-0.27,0.082-0.152,0.168
		c0.342,0.248,0.684,0.495,1.026,0.743C70.325,251.361,70.479,251.193,70.361,251.108z"/>
	<path fill="#E98C24" d="M71.331,249.412c-0.431-0.108-0.862-0.216-1.292-0.324c-0.123-0.031-0.172,0.19-0.049,0.221
		c0.431,0.108,0.862,0.216,1.292,0.324C71.405,249.664,71.454,249.443,71.331,249.412z"/>
	<path fill="#E98C24" d="M71.873,247.759c-0.472-0.02-0.943-0.039-1.415-0.059c-0.145-0.006-0.131,0.22,0.014,0.226
		c0.472,0.02,0.943,0.039,1.415,0.059C72.032,247.991,72.018,247.765,71.873,247.759z"/>
	<path fill="#FAA61C" d="M61.441,244.893c0.217-0.52,0.541-0.968,0.969-1.335c0.111-0.095-0.054-0.251-0.164-0.156
		c-0.441,0.379-0.78,0.845-1.003,1.382C61.187,244.917,61.385,245.028,61.441,244.893z"/>
	<path fill="#E98C24" d="M67.496,241.471c0.178-0.423,0.356-0.846,0.534-1.269c0.056-0.134-0.162-0.195-0.218-0.062
		c-0.178,0.423-0.356,0.846-0.534,1.269C67.221,241.543,67.44,241.604,67.496,241.471z"/>
	<path fill="#E98C24" d="M65.733,240.971c-0.032,0.142,0.186,0.205,0.218,0.062c0.101-0.451,0.203-0.903,0.304-1.354
		c0.032-0.142-0.186-0.205-0.218-0.062C65.936,240.068,65.835,240.52,65.733,240.971z"/>
	<path fill="#E98C24" d="M64.058,239.581c0.013,0.425,0.027,0.851,0.04,1.276c0.004,0.131,0.213,0.136,0.209,0.004
		c-0.013-0.425-0.027-0.851-0.04-1.276C64.263,239.453,64.054,239.449,64.058,239.581z"/>
	<path fill="#E98C24" d="M62.514,239.868c0.083,0.455,0.167,0.911,0.25,1.366c0.025,0.136,0.228,0.08,0.204-0.056
		c-0.083-0.455-0.167-0.911-0.25-1.366C62.693,239.676,62.489,239.732,62.514,239.868z"/>
	<path fill="#E98C24" d="M61.079,240.593l0.665,1.211c0.065,0.118,0.248,0.018,0.183-0.1c-0.222-0.404-0.443-0.807-0.665-1.211
		C61.197,240.374,61.014,240.474,61.079,240.593z"/>
	<path fill="#E98C24" d="M59.657,241.779c0.324,0.271,0.647,0.542,0.971,0.813c0.111,0.093,0.276-0.063,0.164-0.157
		c-0.324-0.271-0.647-0.542-0.971-0.813C59.71,241.529,59.545,241.685,59.657,241.779z"/>
	<path fill="#E98C24" d="M58.531,243.462c0.441,0.145,0.882,0.291,1.323,0.436c0.126,0.042,0.19-0.176,0.064-0.217
		c-0.441-0.145-0.882-0.291-1.323-0.436C58.468,243.203,58.405,243.421,58.531,243.462z"/>
	<path fill="#E98C24" d="M57.926,245.132c0.469,0.053,0.938,0.106,1.407,0.158c0.145,0.016,0.146-0.211,0.002-0.227
		c-0.469-0.053-0.938-0.106-1.407-0.158C57.783,244.888,57.782,245.115,57.926,245.132z"/>
	<path fill="#E98C24" d="M70.624,246.965c0.457-0.046,0.913-0.092,1.37-0.138c0.145-0.015,0.094-0.236-0.049-0.221
		c-0.457,0.046-0.913,0.092-1.37,0.138C70.429,246.758,70.48,246.979,70.624,246.965z"/>
	<path fill="#E98C24" d="M71.849,245.116c-0.464,0.079-0.929,0.158-1.393,0.237c-0.143,0.024-0.114,0.249,0.031,0.225
		c0.464-0.079,0.929-0.158,1.393-0.237C72.023,245.317,71.994,245.092,71.849,245.116z"/>
	<path fill="#E98C24" d="M71.361,243.634c-0.437,0.165-0.874,0.33-1.312,0.496c-0.13,0.049-0.049,0.254,0.081,0.205
		c0.437-0.165,0.874-0.33,1.311-0.496C71.572,243.789,71.491,243.585,71.361,243.634z"/>
	<path fill="#E98C24" d="M70.548,242.339l-1.049,0.78c-0.103,0.076,0.018,0.234,0.12,0.157c0.35-0.26,0.699-0.52,1.049-0.78
		C70.77,242.42,70.65,242.263,70.548,242.339z"/>
	<path fill="#E98C24" d="M69.225,241.041c-0.221,0.359-0.443,0.719-0.664,1.078c-0.076,0.123,0.102,0.263,0.179,0.139
		c0.221-0.359,0.443-0.719,0.664-1.078C69.48,241.057,69.302,240.916,69.225,241.041z"/>
	<path fill="#E98C24" d="M59.038,246.226c-0.377,0.032-0.754,0.064-1.131,0.096c-0.145,0.012-0.132,0.239,0.014,0.226
		c0.377-0.032,0.754-0.064,1.131-0.096C59.197,246.44,59.184,246.214,59.038,246.226z"/>
	<path fill="#E98C24" d="M59.157,247.698c-0.415,0.043-0.831,0.086-1.246,0.129c-0.145,0.015-0.132,0.241,0.014,0.226
		c0.415-0.043,0.831-0.086,1.246-0.129C59.315,247.909,59.302,247.683,59.157,247.698z"/>
	<path fill="#E98C24" d="M59.359,248.699c-0.386,0.103-0.772,0.207-1.158,0.31c-0.141,0.038-0.069,0.253,0.072,0.215
		c0.386-0.103,0.772-0.207,1.158-0.31C59.572,248.876,59.5,248.661,59.359,248.699z"/>
	<path fill="#E98C24" d="M59.946,249.695c-0.376,0.174-0.752,0.347-1.128,0.521c-0.131,0.061-0.061,0.276,0.072,0.215
		c0.376-0.174,0.752-0.347,1.128-0.521C60.148,249.849,60.078,249.633,59.946,249.695z"/>
	<path fill="#E98C24" d="M60.507,250.724c-0.281,0.257-0.563,0.514-0.844,0.77c-0.108,0.099,0.061,0.25,0.168,0.152
		c0.281-0.257,0.563-0.514,0.844-0.77C60.782,250.778,60.613,250.626,60.507,250.724z"/>
	<path fill="#E98C24" d="M61.681,251.599c-0.237,0.327-0.474,0.654-0.711,0.981c-0.085,0.117,0.082,0.27,0.168,0.152
		c0.237-0.327,0.474-0.654,0.711-0.981C61.933,251.634,61.766,251.481,61.681,251.599z"/>
</g>
</svg>
